<svg width="462" height="371" viewBox="0 0 462 371" fill="none" xmlns="http://www.w3.org/2000/svg">
<g style="mix-blend-mode:multiply">
<path fill-rule="evenodd" clip-rule="evenodd" d="M350.281 147.06C375.758 147.06 396.412 126.407 396.412 100.929C396.412 75.4521 375.758 54.7986 350.281 54.7986C324.803 54.7986 304.149 75.4521 304.149 100.929C304.149 126.407 324.803 147.06 350.281 147.06Z" fill="url(#paint0_linear)"/>
</g>
<g style="mix-blend-mode:multiply">
<path fill-rule="evenodd" clip-rule="evenodd" d="M269.026 293.713C333.532 289.569 382.424 233.281 378.229 167.991C374.034 102.701 317.769 44.2203 253.263 48.3646C208.636 51.2317 181.381 85.1664 144.989 117.045C116.768 141.765 28.0924 115.59 25.5666 196.65C23.0408 277.709 204.52 297.858 269.026 293.713Z" fill="url(#paint1_linear)"/>
</g>
<path fill-rule="evenodd" clip-rule="evenodd" d="M218.693 176.554L114.331 221.25V311.243L218.693 266.547V176.554Z" fill="#FABF2C"/>
<path fill-rule="evenodd" clip-rule="evenodd" d="M217.937 176.554L322.299 221.25V311.243L217.937 266.547V176.554Z" fill="#FDCC55"/>
<path d="M173.282 202.606L168.024 224.205L195.189 234.785H269.236L284.109 224.205L266.607 210.541L251.272 227.732L236.813 210.541C233.746 205.545 225.597 196.964 217.535 202.606C209.473 208.249 211.839 214.655 214.03 217.153L192.122 213.626L173.282 202.606Z" fill="#5E74D5"/>
<path fill-rule="evenodd" clip-rule="evenodd" d="M248.746 225.293C249.146 223.682 251.086 223.032 252.376 224.078L275.106 242.495C276.497 243.622 276.096 245.841 274.399 246.409L244.611 256.383C242.913 256.952 241.257 255.422 241.689 253.684L248.746 225.293Z" fill="#F471B3"/>
<path fill-rule="evenodd" clip-rule="evenodd" d="M199.408 241.591C207.553 241.591 214.155 234.989 214.155 226.844C214.155 218.7 207.553 212.097 199.408 212.097C191.264 212.097 184.662 218.7 184.662 226.844C184.662 234.989 191.264 241.591 199.408 241.591Z" fill="#A27CFA"/>
<path fill-rule="evenodd" clip-rule="evenodd" d="M238.519 238.8C238.294 240.446 236.436 241.3 235.041 240.4L207.266 222.481C205.762 221.51 205.922 219.261 207.548 218.513L239.792 203.682C241.419 202.934 243.23 204.277 242.988 206.05L238.519 238.8Z" fill="#F471B3"/>
<path fill-rule="evenodd" clip-rule="evenodd" d="M290.272 235.488C288.725 236.091 287.076 234.882 287.185 233.225L289.353 200.243C289.47 198.457 291.514 197.504 292.958 198.562L321.586 219.539C323.03 220.597 322.737 222.833 321.069 223.483L290.272 235.488Z" fill="#F471B3"/>
<rect width="26.6744" height="26.6744" rx="5.29373" transform="matrix(0.707109 0.707104 -0.707109 0.707104 244.361 211.341)" fill="white"/>
<path fill-rule="evenodd" clip-rule="evenodd" d="M180.826 36.6116C172.837 57.0357 171.735 59.8528 164.297 78.8684C156.859 97.884 197.852 113.919 205.29 94.9033C211.796 78.2723 211.511 78.9988 218.755 60.4797C220.335 56.442 229.801 53.753 234.77 52.6001C235.543 52.4209 235.606 51.2455 234.855 50.9896C230.498 49.504 222.823 46.6521 222.407 44.8696C218.524 28.208 187.775 18.849 180.826 36.6116Z" fill="#F3F3F3"/>
<path fill-rule="evenodd" clip-rule="evenodd" d="M192.647 83.6284C193.636 81.1001 192.388 78.2488 189.86 77.2599C187.332 76.2709 184.48 77.5188 183.491 80.047C182.502 82.5753 183.75 85.4266 186.278 86.4155C188.807 87.4045 191.658 86.1566 192.647 83.6284ZM198.983 67.43C199.972 64.9018 198.724 62.0505 196.196 61.0615C193.667 60.0726 190.816 61.3204 189.827 63.8487C188.838 66.3769 190.086 69.2282 192.614 70.2172C195.143 71.2062 197.994 69.9583 198.983 67.43ZM202.532 44.8629C205.061 45.8519 206.309 48.7032 205.32 51.2314C204.331 53.7597 201.479 55.0075 198.951 54.0186C196.423 53.0296 195.175 50.1783 196.164 47.6501C197.153 45.1218 200.004 43.874 202.532 44.8629Z" fill="#3CD000" fill-opacity="0.5"/>
<path fill-rule="evenodd" clip-rule="evenodd" d="M153.52 115.918C133.27 107.498 130.476 106.337 111.622 98.4973C92.7685 90.6581 107.761 54.6014 126.615 62.4406C143.104 69.2967 142.384 68.9972 160.746 76.6317C164.761 78.3012 172.962 74.1386 177.047 71.8024C177.719 71.4179 178.555 72.187 178.223 72.8866C176.465 76.5871 173.584 83.1758 174.619 84.5961C184.341 97.9446 171.132 123.24 153.52 115.918Z" fill="#6EE041"/>
<path fill-rule="evenodd" clip-rule="evenodd" d="M157.838 90.369C155.331 89.3267 152.454 90.5139 151.411 93.0207C150.369 95.5274 151.556 98.4045 154.063 99.4468C156.57 100.489 159.447 99.3019 160.489 96.7951C161.532 94.2884 160.344 91.4113 157.838 90.369Z" fill="white"/>
<path fill-rule="evenodd" clip-rule="evenodd" d="M141.777 83.691C139.27 82.6488 136.393 83.8359 135.351 86.3427C134.309 88.8495 135.496 91.7265 138.003 92.7688C140.509 93.8111 143.386 92.6239 144.429 90.1171C145.471 87.6104 144.284 84.7333 141.777 83.691Z" fill="white"/>
<path fill-rule="evenodd" clip-rule="evenodd" d="M125.716 77.0133C123.209 75.971 120.332 77.1582 119.29 79.665C118.248 82.1717 119.435 85.0488 121.942 86.0911C124.448 87.1333 127.325 85.9461 128.368 83.4394C129.41 80.9326 128.223 78.0556 125.716 77.0133Z" fill="white"/>
<rect width="24.5669" height="24.5669" rx="5.29373" transform="matrix(0.707109 0.707104 -0.707109 0.707104 243.627 82.001)" fill="white"/>
<rect width="17.1276" height="17.1276" rx="5.29373" transform="matrix(0.707109 0.707104 -0.707109 0.707104 243.661 102.442)" fill="#FDCC55"/>
<path fill-rule="evenodd" clip-rule="evenodd" d="M151.54 224.882C151.54 224.882 151.54 224.882 151.54 224.882C158.344 227.956 166.351 224.932 169.425 218.129C169.518 217.922 169.606 217.715 169.688 217.506L224.537 242.285C224.435 242.484 224.337 242.687 224.243 242.894C221.17 249.698 224.193 257.704 230.997 260.778C231.203 260.871 231.411 260.959 231.62 261.041L221.032 284.477C220.832 284.375 220.629 284.277 220.423 284.184C213.619 281.11 205.612 284.134 202.539 290.937C202.445 291.144 202.358 291.351 202.276 291.56L147.426 266.781C147.528 266.581 147.626 266.378 147.72 266.172C150.793 259.369 147.77 251.362 140.966 248.288L151.54 224.882Z" fill="#FEB5F4"/>
<mask id="path-20-inside-1" fill="white">
<path fill-rule="evenodd" clip-rule="evenodd" d="M160.004 232.414C160.004 232.414 160.004 232.414 160.004 232.414C165.106 234.719 171.112 232.451 173.417 227.349C173.51 227.142 173.596 226.933 173.675 226.724L215.6 245.664C215.494 245.861 215.395 246.064 215.301 246.271C212.996 251.373 215.264 257.378 220.366 259.683L212.297 277.546C207.194 275.241 201.189 277.508 198.884 282.611L198.884 282.611L157 263.689C159.305 258.587 157.037 252.582 151.934 250.276L151.934 250.276L160.004 232.414Z"/>
</mask>
<path d="M160.004 232.414L157.247 231.169L158.492 228.412L161.249 229.657L160.004 232.414ZM173.675 226.724L170.842 225.662L171.976 222.637L174.92 223.967L173.675 226.724ZM215.6 245.664L216.845 242.907L219.789 244.237L218.269 247.088L215.6 245.664ZM220.366 259.683L221.612 256.927L224.368 258.172L223.123 260.929L220.366 259.683ZM212.297 277.546L215.053 278.791L213.808 281.548L211.051 280.302L212.297 277.546ZM198.884 282.611L201.641 283.856L198.884 282.611ZM198.884 282.611L201.641 283.857L200.395 286.613L197.638 285.368L198.884 282.611ZM157 263.689L155.754 266.446L152.997 265.201L154.243 262.444L157 263.689ZM151.934 250.276L153.18 247.52L151.934 250.276ZM151.934 250.276L150.689 253.033L147.932 251.788L149.177 249.031L151.934 250.276ZM158.758 235.171C158.758 235.171 158.758 235.171 158.758 235.171C158.758 235.171 158.758 235.171 158.758 235.171L161.249 229.657C161.249 229.657 161.249 229.657 161.249 229.657C161.249 229.657 161.249 229.657 161.249 229.657L158.758 235.171ZM176.174 228.594C173.181 235.219 165.384 238.164 158.758 235.171L161.249 229.657C164.829 231.275 169.043 229.684 170.66 226.103L176.174 228.594ZM176.507 227.786C176.406 228.057 176.294 228.327 176.174 228.594L170.66 226.103C170.726 225.957 170.787 225.81 170.842 225.662L176.507 227.786ZM214.354 248.421L172.43 229.481L174.92 223.967L216.845 242.907L214.354 248.421ZM212.545 245.025C212.665 244.758 212.794 244.496 212.931 244.24L218.269 247.088C218.195 247.227 218.124 247.369 218.058 247.516L212.545 245.025ZM219.121 262.44C212.496 259.447 209.552 251.65 212.545 245.025L218.058 247.516C216.441 251.096 218.032 255.309 221.612 256.927L219.121 262.44ZM209.54 276.3L217.61 258.438L223.123 260.929L215.053 278.791L209.54 276.3ZM196.127 281.366C199.12 274.741 206.917 271.796 213.542 274.789L211.051 280.302C207.471 278.685 203.258 280.276 201.641 283.856L196.127 281.366ZM196.127 281.366L196.127 281.366L201.641 283.856L201.641 283.857L196.127 281.366ZM158.245 260.933L200.129 279.855L197.638 285.368L155.754 266.446L158.245 260.933ZM153.18 247.52C159.805 250.513 162.749 258.31 159.756 264.935L154.243 262.444C155.86 258.864 154.269 254.651 150.689 253.033L153.18 247.52ZM153.179 247.52L153.18 247.52L150.689 253.033L150.689 253.033L153.179 247.52ZM162.76 233.659L154.691 251.522L149.177 249.031L157.247 231.169L162.76 233.659Z" fill="#FB95C8" mask="url(#path-20-inside-1)"/>
<path fill-rule="evenodd" clip-rule="evenodd" d="M200.022 237.135C204.142 242.806 202.885 250.744 197.214 254.864C197.041 254.989 196.867 255.109 196.691 255.224L229.908 300.944C230.072 300.812 230.24 300.683 230.413 300.558C236.084 296.438 244.021 297.695 248.141 303.366C248.266 303.538 248.387 303.712 248.502 303.888L268.037 289.695C267.905 289.531 267.776 289.363 267.651 289.191C263.531 283.52 264.788 275.583 270.459 271.462C270.631 271.337 270.805 271.217 270.982 271.102L237.764 225.383C237.6 225.515 237.432 225.643 237.26 225.768C231.589 229.888 223.652 228.631 219.532 222.96L200.022 237.135Z" fill="#6EE040"/>
<g opacity="0.4">
<mask id="path-23-inside-2" fill="white">
<path fill-rule="evenodd" clip-rule="evenodd" d="M208.557 243.484C208.557 243.484 208.557 243.484 208.557 243.484C211.648 247.737 210.705 253.69 206.451 256.781C206.279 256.906 206.103 257.025 205.926 257.137L231.316 292.083C231.477 291.948 231.644 291.818 231.817 291.693C236.07 288.603 242.023 289.546 245.113 293.799L260.002 282.981C256.912 278.728 257.855 272.775 262.108 269.685L236.743 234.773C232.49 237.863 226.537 236.92 223.446 232.667L223.446 232.667L208.557 243.484Z"/>
</mask>
<path d="M208.557 243.484L206.779 241.037L204.332 242.815L206.11 245.262L208.557 243.484ZM205.926 257.137L204.312 254.578L201.579 256.301L203.478 258.915L205.926 257.137ZM231.316 292.083L228.868 293.861L230.767 296.475L233.251 294.408L231.316 292.083ZM245.113 293.799L242.666 295.577L244.444 298.024L246.891 296.246L245.113 293.799ZM260.002 282.981L261.78 285.429L264.228 283.651L262.45 281.203L260.002 282.981ZM262.108 269.685L263.886 272.132L266.334 270.354L264.556 267.907L262.108 269.685ZM236.743 234.773L239.19 232.995L237.412 230.548L234.965 232.326L236.743 234.773ZM223.446 232.667L225.894 230.889L223.446 232.667ZM223.446 232.667L225.894 230.889L224.116 228.441L221.668 230.219L223.446 232.667ZM211.005 241.706C211.005 241.706 211.005 241.706 211.005 241.706C211.005 241.706 211.005 241.706 211.005 241.706L206.11 245.262C206.11 245.262 206.11 245.262 206.11 245.262C206.11 245.262 206.11 245.262 206.11 245.262L211.005 241.706ZM208.229 259.228C213.834 255.156 215.077 247.311 211.005 241.706L206.11 245.262C208.218 248.164 207.575 252.225 204.673 254.333L208.229 259.228ZM207.539 259.696C207.773 259.548 208.003 259.392 208.229 259.228L204.673 254.333C204.554 254.42 204.434 254.501 204.312 254.578L207.539 259.696ZM233.763 290.305L208.373 255.359L203.478 258.915L228.868 293.861L233.763 290.305ZM230.039 289.246C229.813 289.41 229.593 289.581 229.381 289.758L233.251 294.408C233.361 294.316 233.476 294.227 233.595 294.14L230.039 289.246ZM247.56 292.021C243.488 286.416 235.644 285.174 230.039 289.246L233.595 294.14C236.497 292.032 240.558 292.675 242.666 295.577L247.56 292.021ZM258.224 280.534L243.335 291.351L246.891 296.246L261.78 285.429L258.224 280.534ZM260.33 267.238C254.725 271.31 253.483 279.154 257.555 284.759L262.45 281.203C260.341 278.302 260.985 274.24 263.886 272.132L260.33 267.238ZM234.296 236.551L259.661 271.463L264.556 267.907L239.19 232.995L234.296 236.551ZM220.999 234.445C225.071 240.05 232.916 241.292 238.521 237.22L234.965 232.326C232.063 234.434 228.002 233.791 225.894 230.889L220.999 234.445ZM220.999 234.445L220.999 234.445L225.894 230.889L225.894 230.889L220.999 234.445ZM210.335 245.931L225.224 235.114L221.668 230.219L206.779 241.037L210.335 245.931Z" fill="#0D9E47" mask="url(#path-23-inside-2)"/>
</g>
<path fill-rule="evenodd" clip-rule="evenodd" d="M114.331 221.172L218.693 265.868V370.986L114.331 326.29V221.172Z" fill="#FFE6A9"/>
<path opacity="0.7" d="M116.6 278.269L127.648 265.791H217.937V341.415L137.553 307.762L116.6 278.269Z" fill="#FDCC55"/>
<path fill-rule="evenodd" clip-rule="evenodd" d="M114.609 221.172L218.203 265.723L181.085 308.085L74.2495 260.197L114.609 221.172Z" fill="#FFDE8C"/>
<path fill-rule="evenodd" clip-rule="evenodd" d="M258.159 137.229L358.728 178.755L321.61 221.117L217.937 176.612L258.159 137.229Z" fill="#FFDE8C"/>
<path fill-rule="evenodd" clip-rule="evenodd" d="M177.843 137.229L77.2747 178.755L114.632 221.286L218.354 176.774L177.843 137.229Z" fill="#FFDE8C"/>
<path fill-rule="evenodd" clip-rule="evenodd" d="M322.299 221.172L217.937 265.868V370.986L322.299 326.29V221.172Z" fill="#FFE094"/>
<path fill-rule="evenodd" clip-rule="evenodd" d="M261.029 312.823L266.337 315.889C267.07 316.312 267.07 317.533 266.337 318.617L253.673 336.561C252.941 337.644 251.752 338.179 251.02 337.756L245.712 334.69C244.979 334.267 244.979 333.045 245.712 331.962L258.375 314.018C259.108 312.934 260.296 312.399 261.029 312.823Z" fill="#FB9E8F"/>
<rect width="24.8503" height="8.03697" transform="matrix(-0.697908 0.716188 -0.716193 -0.697902 335.567 187.457)" fill="#5E74D5"/>
<path fill-rule="evenodd" clip-rule="evenodd" d="M273.075 282.147L290.954 292.194C293.423 293.581 293.423 297.583 290.954 301.133L273.075 326.844C270.607 330.394 266.605 332.147 264.136 330.76L246.257 320.713C243.789 319.326 243.789 315.324 246.257 311.774L264.136 286.063C266.605 282.513 270.607 280.76 273.075 282.147Z" fill="#FEB5F4"/>
<path fill-rule="evenodd" clip-rule="evenodd" d="M173.635 138.845L218.362 124.757L218.533 139.162L218.533 139.162L219.021 180.262L218.958 180.284C219.004 180.633 219.029 180.987 219.034 181.346C219.098 186.735 214.344 191.159 208.415 191.228C202.487 191.297 197.63 186.985 197.566 181.596C197.502 176.208 202.255 171.784 208.184 171.714C210.206 171.691 212.104 172.177 213.73 173.043L213.347 140.795L178.992 151.616L179.428 188.313L179.333 188.314C178.69 193.096 174.237 196.83 168.794 196.894C162.866 196.963 158.008 192.651 157.944 187.262C157.88 181.874 162.634 177.45 168.563 177.381C170.585 177.357 172.483 177.843 174.109 178.709L173.807 153.249L173.806 153.249L173.635 138.845Z" fill="#FFFCF7"/>
<path d="M125.297 173.907C137.699 169.672 131.725 161.807 127.187 158.404L78.4092 180.713L94.6685 198.485C118.869 196.972 125.171 181.469 125.297 173.907Z" fill="#FABF2C"/>
<path fill-rule="evenodd" clip-rule="evenodd" d="M92.6761 181.503C108.006 179.556 119.218 168.405 117.718 156.596C116.218 144.788 107.9 119.889 84.3977 122.331C60.8953 124.773 60.7021 151.839 62.202 163.648C63.7019 175.456 77.3456 183.45 92.6761 181.503Z" fill="white"/>
<path fill-rule="evenodd" clip-rule="evenodd" d="M121.3 133.37C122.436 135.176 124.052 136.654 126.029 137.45C129.446 138.827 132.448 141.336 134.414 144.841C138.532 152.186 136.498 161.608 129.717 166.568C128.103 167.749 126.359 168.595 124.563 169.126C122.529 169.727 120.759 171.01 119.465 172.69C117.074 175.797 114.107 178.543 110.599 180.756C94.5625 190.87 73.3443 186.038 63.2067 169.964L63.1868 169.933C62.0507 168.126 60.4352 166.649 58.4576 165.852C55.0413 164.476 52.0392 161.968 50.0733 158.462C45.9546 151.117 47.989 141.694 54.7698 136.734C56.384 135.554 58.1275 134.708 59.9241 134.177C61.958 133.575 63.7277 132.293 65.0215 130.612C67.4129 127.505 70.3797 124.76 73.8878 122.547C89.9243 112.433 111.143 117.265 121.28 133.339C121.285 133.346 121.29 133.354 121.294 133.361C121.296 133.364 121.298 133.367 121.3 133.37ZM113.089 149.763C106.928 139.995 96.7505 143.466 90.0155 145.763C82.8043 148.222 81.3767 148.182 80.1145 146.18C78.9233 144.292 81.6096 140.81 85.3595 138.916C90.3152 136.412 95.631 137.924 95.8175 137.992C98.4653 139.012 101.439 137.707 102.475 135.061C103.515 132.403 102.204 129.4 99.5472 128.353C99.1238 128.186 89.0744 124.335 79.8377 130.161C65.2095 139.387 69.8377 149.244 71.6046 152.046C77.2783 161.042 86.9595 157.74 93.3656 155.556L93.3662 155.555C100.924 152.978 103.408 153.299 104.354 155.272C105.129 156.888 104.89 159.505 98.8561 163.047C93.8454 165.989 87.8596 164.184 87.836 164.177C85.1402 163.235 82.196 164.657 81.2614 167.354C80.3258 170.051 81.7536 173.001 84.4494 173.943C84.8839 174.094 95.1963 177.593 104.378 171.802C107.366 169.918 110.72 167.553 112.95 164.298C116.074 159.737 116.124 154.575 113.089 149.763Z" fill="#17E9FD"/>
<path fill-rule="evenodd" clip-rule="evenodd" d="M268.524 151.39C268.524 151.39 268.524 151.39 268.524 151.389C276.869 151.011 283.326 143.939 282.948 135.594C282.936 135.341 282.918 135.089 282.895 134.84L350.169 131.786C350.168 132.037 350.173 132.289 350.185 132.543C350.563 140.887 357.635 147.345 365.98 146.966C366.233 146.955 366.485 146.937 366.734 146.913L368.039 175.658C367.788 175.657 367.536 175.662 367.283 175.674C358.938 176.053 352.48 183.124 352.859 191.469C352.871 191.722 352.888 191.974 352.912 192.224L285.638 195.277C285.639 195.026 285.634 194.774 285.622 194.521C285.243 186.176 278.172 179.718 269.827 180.097L269.827 180.097L268.524 151.39Z" fill="#17E9FD"/>
<mask id="path-39-inside-3" fill="white">
<path fill-rule="evenodd" clip-rule="evenodd" d="M291.542 142.018C291.57 142.266 291.589 142.518 291.601 142.772C291.885 149.03 287.042 154.334 280.783 154.618L281.778 176.527C288.036 176.243 293.34 181.086 293.624 187.344L293.624 187.344L344.996 185.013L344.996 185.012C344.712 178.754 349.555 173.45 355.814 173.166L355.814 173.166L354.82 151.258L354.82 151.258C348.561 151.542 343.257 146.699 342.973 140.44C342.962 140.186 342.958 139.934 342.964 139.684L291.542 142.018Z"/>
</mask>
<path d="M291.542 142.018L288.536 142.353L288.177 139.142L291.405 138.996L291.542 142.018ZM280.783 154.618L277.761 154.755L277.624 151.733L280.646 151.596L280.783 154.618ZM281.778 176.527L281.915 179.548L278.893 179.686L278.756 176.664L281.778 176.527ZM293.624 187.344L293.761 190.366L290.739 190.503L290.602 187.482L293.624 187.344ZM344.996 185.013L348.018 184.876L348.155 187.897L345.133 188.035L344.996 185.013ZM355.814 173.166L355.677 170.144L355.814 173.166ZM355.814 173.166L358.836 173.029L358.973 176.051L355.951 176.188L355.814 173.166ZM354.82 151.258L354.682 148.236L357.704 148.099L357.842 151.121L354.82 151.258ZM354.82 151.258L354.682 148.236L354.82 151.258ZM342.964 139.684L342.826 136.662L346.054 136.515L345.988 139.745L342.964 139.684ZM294.548 141.682C294.583 141.997 294.608 142.315 294.623 142.635L288.579 142.909C288.571 142.721 288.556 142.536 288.536 142.353L294.548 141.682ZM294.623 142.635C294.983 150.562 288.848 157.28 280.921 157.64L280.646 151.596C285.236 151.388 288.787 147.498 288.579 142.909L294.623 142.635ZM278.756 176.664L277.761 154.755L283.805 154.481L284.8 176.389L278.756 176.664ZM290.602 187.481C290.394 182.892 286.504 179.34 281.915 179.548L281.641 173.505C289.568 173.145 296.286 179.28 296.646 187.207L290.602 187.481ZM290.602 187.482L290.602 187.481L296.646 187.207L296.646 187.207L290.602 187.482ZM345.133 188.035L293.761 190.366L293.487 184.323L344.859 181.991L345.133 188.035ZM348.018 184.875L348.018 184.876L341.974 185.15L341.974 185.15L348.018 184.875ZM355.951 176.188C351.361 176.396 347.81 180.286 348.018 184.875L341.974 185.15C341.614 177.222 347.749 170.504 355.677 170.144L355.951 176.188ZM355.951 176.188L355.951 176.188L355.677 170.144L355.677 170.144L355.951 176.188ZM357.842 151.121L358.836 173.029L352.792 173.303L351.798 151.395L357.842 151.121ZM354.682 148.236L354.682 148.236L354.957 154.28L354.957 154.28L354.682 148.236ZM345.995 140.303C346.203 144.893 350.093 148.444 354.682 148.236L354.957 154.28C347.029 154.64 340.311 148.505 339.951 140.577L345.995 140.303ZM345.988 139.745C345.984 139.929 345.986 140.115 345.995 140.303L339.951 140.577C339.937 140.257 339.933 139.939 339.939 139.622L345.988 139.745ZM291.405 138.996L342.826 136.662L343.101 142.706L291.679 145.039L291.405 138.996Z" fill="#1EC8E8" mask="url(#path-39-inside-3)"/>
<path fill-rule="evenodd" clip-rule="evenodd" d="M285.243 195.082L308.616 194.112C308.616 194.112 320.525 175.656 328.301 167.519C336.077 159.382 356.416 144.092 356.416 144.092C356.416 144.092 353.023 141.192 351.979 138.919C350.936 136.645 350.196 131.859 350.196 131.859L324.812 132.947L300.828 170.882L268.983 178.066L275.248 181.792C280.198 184.735 283.789 189.51 285.243 195.082Z" fill="#1EC8E8"/>
<path fill-rule="evenodd" clip-rule="evenodd" d="M249.501 151.025C249.73 151.128 249.957 151.238 250.183 151.354C257.616 155.165 260.552 164.281 256.74 171.713L282.311 184.826L282.311 184.826C286.123 177.393 295.239 174.457 302.672 178.269C302.897 178.385 303.119 178.505 303.336 178.63L334.064 118.707C333.836 118.604 333.609 118.494 333.383 118.378C325.95 114.567 323.014 105.451 326.826 98.0184C326.941 97.7927 327.062 97.5712 327.187 97.3539L301.583 84.2244C301.48 84.453 301.37 84.6801 301.255 84.9057C297.443 92.3387 288.327 95.2744 280.894 91.4629C280.669 91.3471 280.447 91.2265 280.23 91.1012L249.501 151.025Z" fill="#17E9FD"/>
<mask id="path-43-inside-4" fill="white">
<path fill-rule="evenodd" clip-rule="evenodd" d="M265.626 162.672C265.626 162.672 265.626 162.672 265.626 162.672C268.484 157.097 266.282 150.26 260.708 147.402C260.482 147.286 260.254 147.178 260.024 147.079L283.511 101.276C283.726 101.404 283.947 101.527 284.173 101.643C289.747 104.501 296.584 102.3 299.443 96.7249L299.443 96.7248L318.958 106.732C316.099 112.307 318.301 119.143 323.876 122.002L323.876 122.002L300.411 167.761L300.411 167.761C294.836 164.902 287.999 167.104 285.141 172.679L265.626 162.672Z"/>
</mask>
<path d="M265.626 162.672L264.245 165.363L261.554 163.983L262.934 161.291L265.626 162.672ZM260.024 147.079L258.823 149.855L255.858 148.573L257.332 145.699L260.024 147.079ZM283.511 101.276L280.82 99.8956L282.294 97.021L285.065 98.6806L283.511 101.276ZM299.443 96.7248L296.751 95.3445L298.131 92.6528L300.823 94.0331L299.443 96.7248ZM318.958 106.732L320.338 104.04L323.03 105.42L321.65 108.112L318.958 106.732ZM323.876 122.002L325.256 119.31L327.948 120.691L326.568 123.382L323.876 122.002ZM300.411 167.761L303.103 169.142L301.723 171.833L299.031 170.453L300.411 167.761ZM285.141 172.679L287.832 174.059L286.452 176.751L283.76 175.37L285.141 172.679ZM268.317 164.052C268.317 164.052 268.317 164.052 268.317 164.052C268.317 164.052 268.317 164.052 268.317 164.052C268.317 164.052 268.317 164.052 268.317 164.052L268.317 164.052L268.317 164.052C268.317 164.052 268.317 164.052 268.317 164.052C268.317 164.052 268.317 164.052 268.317 164.052C268.317 164.052 268.317 164.052 268.317 164.052C268.317 164.052 268.317 164.052 268.317 164.052C268.317 164.052 268.317 164.052 268.317 164.052L268.317 164.052L268.317 164.052L268.317 164.052C268.317 164.052 268.317 164.052 268.317 164.052C268.317 164.052 268.317 164.052 268.317 164.052L262.934 161.291C262.934 161.291 262.934 161.291 262.934 161.291C262.934 161.291 262.934 161.291 262.934 161.291L262.934 161.291L262.934 161.291L262.934 161.291C262.934 161.291 262.934 161.291 262.934 161.291C262.934 161.291 262.934 161.291 262.934 161.291C262.934 161.291 262.934 161.291 262.934 161.291C262.934 161.291 262.934 161.291 262.934 161.291C262.934 161.291 262.934 161.291 262.934 161.291L262.934 161.291L262.934 161.291C262.934 161.291 262.934 161.291 262.934 161.291C262.934 161.291 262.934 161.291 262.934 161.291C262.934 161.291 262.934 161.291 262.934 161.291L268.317 164.052ZM262.088 144.71C269.149 148.331 271.938 156.991 268.317 164.052L262.934 161.291C265.03 157.203 263.416 152.19 259.327 150.093L262.088 144.71ZM261.225 144.302C261.515 144.428 261.803 144.564 262.088 144.71L259.327 150.093C259.16 150.008 258.992 149.928 258.823 149.855L261.225 144.302ZM257.332 145.699L280.82 99.8956L286.203 102.656L262.716 148.459L257.332 145.699ZM285.065 98.6806C285.223 98.7752 285.386 98.8655 285.553 98.9511L282.792 104.335C282.507 104.188 282.229 104.034 281.957 103.871L285.065 98.6806ZM285.553 98.9511C289.641 101.047 294.655 99.4328 296.751 95.3447L302.134 98.1052C298.513 105.167 289.854 107.955 282.792 104.335L285.553 98.9511ZM296.751 95.3447L296.751 95.3445L302.135 98.1051L302.134 98.1052L296.751 95.3447ZM300.823 94.0331L320.338 104.04L317.578 109.424L298.063 99.4165L300.823 94.0331ZM321.65 108.112C319.553 112.2 321.168 117.214 325.256 119.31L322.496 124.693C315.434 121.073 312.645 112.413 316.266 105.352L321.65 108.112ZM325.256 119.31L325.256 119.31L322.496 124.694L322.496 124.693L325.256 119.31ZM326.568 123.382L303.103 169.142L297.719 166.381L321.184 120.622L326.568 123.382ZM299.031 170.453L299.03 170.453L301.791 165.069L301.791 165.07L299.031 170.453ZM299.03 170.453C294.942 168.356 289.929 169.971 287.832 174.059L282.449 171.298C286.07 164.237 294.73 161.448 301.791 165.069L299.03 170.453ZM283.76 175.37L264.245 165.363L267.006 159.98L286.521 169.987L283.76 175.37Z" fill="#1EC8E8" mask="url(#path-43-inside-4)"/>
<path fill-rule="evenodd" clip-rule="evenodd" d="M260.665 204.535C267.139 204.535 272.387 199.287 272.387 192.813C272.387 186.339 267.139 181.091 260.665 181.091C254.191 181.091 248.943 186.339 248.943 192.813C248.943 199.287 254.191 204.535 260.665 204.535Z" fill="#A27CFA"/>
<path d="M302.487 222.542C302.263 222.93 301.106 224.293 299.868 225.539C297.77 227.682 297.658 227.913 297.67 229.696C297.688 232.442 296.446 238.182 295.184 241.323C292.847 247.223 287.799 253.334 282.728 256.428C275.593 260.771 266.061 261.921 258.013 259.456C255.331 258.62 250.716 256.484 250.714 256.098C250.713 255.979 252.105 255.817 253.805 255.765C257.35 255.667 260.888 254.64 263.89 252.834L265.916 251.58L263.572 250.786C260.247 249.645 257.253 246.994 256.481 244.483C256.248 243.671 256.325 243.63 258.433 243.616L260.618 243.565L258.765 242.685C256.569 241.575 254.559 239.696 253.567 237.764C252.843 236.375 251.914 232.859 252.176 232.587C252.252 232.471 253.045 232.699 253.95 233.002C256.556 233.954 256.895 233.718 255.377 232.101C252.531 229.177 251.634 224.81 252.963 220.659L253.592 218.797L256.098 221.296C261.223 226.333 267.236 229.314 274.102 230.157L275.988 230.375L275.861 228.478C275.491 223.565 278.439 219.054 283.141 217.281C284.871 216.649 287.814 216.555 289.739 217.081C290.495 217.307 291.931 218.073 292.954 218.762L294.81 220.027L296.84 219.353C297.971 219 299.474 218.407 300.149 218.016C300.789 217.663 301.352 217.466 301.353 217.581C301.357 218.239 299.976 220.495 298.817 221.74C297.242 223.493 297.698 223.646 300.894 222.462C302.82 221.804 302.86 221.804 302.487 222.542Z" fill="#35D8FF"/>
<path fill-rule="evenodd" clip-rule="evenodd" d="M383.669 220.542C384.069 218.931 386.008 218.282 387.299 219.327L410.029 237.744C411.42 238.871 411.019 241.09 409.321 241.658L379.534 251.632C377.836 252.201 376.18 250.671 376.612 248.934L383.669 220.542Z" fill="#F471B3"/>
<path fill-rule="evenodd" clip-rule="evenodd" d="M65.5334 299.967C64.1122 300.826 62.2801 299.918 62.1039 298.267L59.5967 274.775C59.4067 272.995 61.2569 271.706 62.8607 272.502L85.5868 283.773C87.1906 284.568 87.2844 286.821 85.7523 287.747L65.5334 299.967Z" fill="#17E9FD"/>
<path d="M1.81387 184.509C7.90264 198.806 17.6846 199.679 30.1727 187.698C40.4663 177.822 47.6673 179.712 52.8491 193.403L57.2 188.623C50.6336 171.272 40.5194 168.618 27.9309 180.696C17.5369 190.668 10.5668 190.046 6.03348 179.401L1.81387 184.509Z" fill="#FFD238"/>
<path d="M358.227 210.935C358.227 210.935 360.784 203.374 364.712 202.173C368.641 200.972 373.093 206.39 377.515 205.038C381.938 203.686 381.849 196.933 387.11 195.325C392.371 193.717 394.809 199.75 400.151 198.117C405.493 196.484 406.458 189.41 406.458 189.41" stroke="#FEB5F4" stroke-width="7.56247"/>
<path d="M105.48 300.369C105.48 300.369 103.878 292.55 106.666 289.533C109.454 286.516 116.03 288.952 119.168 285.555C122.307 282.159 118.827 276.371 122.561 272.331C126.295 268.29 131.441 272.273 135.232 268.171C139.023 264.068 136.291 257.472 136.291 257.472" stroke="#FEB5F4" stroke-width="7.56247"/>
<path fill-rule="evenodd" clip-rule="evenodd" d="M447.837 286.209C455.355 286.209 461.45 280.115 461.45 272.597C461.45 265.079 455.355 258.985 447.837 258.985C440.319 258.985 434.225 265.079 434.225 272.597C434.225 280.115 440.319 286.209 447.837 286.209Z" fill="#A27CFA" fill-opacity="0.4"/>
<path fill-rule="evenodd" clip-rule="evenodd" d="M153.278 60.0923C157.245 60.0923 160.462 56.8757 160.462 52.908C160.462 48.9402 157.245 45.7236 153.278 45.7236C149.31 45.7236 146.093 48.9402 146.093 52.908C146.093 56.8757 149.31 60.0923 153.278 60.0923Z" fill="#6EE040"/>
<path fill-rule="evenodd" clip-rule="evenodd" d="M238.734 38.1611C242.702 38.1611 245.918 34.9446 245.918 30.9768C245.918 27.009 242.702 23.7925 238.734 23.7925C234.766 23.7925 231.549 27.009 231.549 30.9768C231.549 34.9446 234.766 38.1611 238.734 38.1611Z" fill="#F3F3F3"/>
<g style="mix-blend-mode:multiply" opacity="0.5">
<path d="M239.112 268.438L248.565 260.497L322.299 255.959V296.797L277.681 317.971L239.112 268.438Z" fill="#FABF2C"/>
</g>
<path fill-rule="evenodd" clip-rule="evenodd" d="M321.905 221.172L217.937 265.804L255.294 308.335L362.417 260.717L321.905 221.172Z" fill="#FCD77C"/>
<path d="M119.186 196.158L129.016 194.984L130.325 205.951L141.384 204.631L142.621 214.987L155.523 213.447L156.832 224.414" stroke="white" stroke-width="6.16148"/>
<path d="M276.519 26.0613L279.141 35.6075L268.492 38.5331L271.442 49.2727L261.384 52.0358L264.826 64.5652L254.177 67.4908" stroke="#FFDC72" stroke-width="6.16148"/>
<rect width="30.2499" height="11.3437" transform="matrix(0.817721 0.575614 -0.57562 0.817717 65.1465 205.938)" fill="#A27CFA"/>
<rect width="30.2498" height="11.3437" transform="matrix(-0.208661 0.977988 -0.977989 -0.208658 164.101 127.667)" fill="#A27CFA"/>
<rect width="30.2499" height="11.3437" transform="matrix(0.817721 0.575614 -0.57562 0.817717 57.3354 74.4609)" fill="#17E9FD"/>
<defs>
<linearGradient id="paint0_linear" x1="365.658" y1="62.4871" x2="229.572" y2="193.961" gradientUnits="userSpaceOnUse">
<stop stop-color="#85EEFF"/>
<stop offset="1" stop-color="#DFEAFF"/>
</linearGradient>
<linearGradient id="paint1_linear" x1="266.862" y1="113.037" x2="-61.1515" y2="274.612" gradientUnits="userSpaceOnUse">
<stop stop-color="#F471B3"/>
<stop offset="1" stop-color="#B480E2"/>
</linearGradient>
</defs>
</svg>
