<svg width="563" height="333" viewBox="0 0 563 333" fill="none" xmlns="http://www.w3.org/2000/svg">
<g clip-path="url(#clip0)">
<rect width="563.2" height="332.8" fill="white"/>
<path d="M68.6799 78.6731H61.4755V102H68.6799C76.6776 102 81.3113 97.6837 81.3113 90.3207C81.3113 82.9577 76.6142 78.6731 68.6799 78.6731ZM68.5846 82.3546C74.2339 82.3546 77.3124 85.2745 77.3124 90.3207C77.3124 95.3987 74.2656 98.3502 68.5846 98.3502H65.4427V82.3546H68.5846ZM90.5262 85.6871C86.1782 85.6871 83.2267 89.1782 83.2267 94.0022C83.2267 98.7945 86.1782 102.317 90.5262 102.317C92.9383 102.317 94.5569 101.334 95.4455 100.128L95.6359 102H99.0636V86.0044H95.6359L95.4455 87.8769C94.5569 86.6709 92.9383 85.6871 90.5262 85.6871ZM91.3514 89.0512C93.2556 89.0512 94.3982 90.0668 95.2551 91.4315V96.5729C94.3982 97.9376 93.2556 98.9532 91.3514 98.9532C88.8759 98.9532 87.0986 97.0173 87.0986 94.0022C87.0986 90.9872 88.8759 89.0512 91.3514 89.0512ZM112.095 85.6871C109.778 85.6871 108.16 86.7026 107.271 87.8452L107.112 86.0044H103.685V102H107.493V91.5267C108.287 90.3207 109.429 89.2734 111.111 89.2734C113.079 89.2734 114.317 90.7333 114.317 92.8597V102H118.157V92.6375C118.157 88.4482 115.999 85.6871 112.095 85.6871ZM130.784 85.6871C128.467 85.6871 126.849 86.7026 125.96 87.8452L125.801 86.0044H122.374V102H126.182V91.5267C126.976 90.3207 128.118 89.2734 129.8 89.2734C131.768 89.2734 133.006 90.7333 133.006 92.8597V102H136.846V92.6375C136.846 88.4482 134.688 85.6871 130.784 85.6871ZM155.428 86.0044H151.144L146.859 94.9543L142.575 86.0044H138.322L144.796 98.7311L139.02 109.3H143.4L155.428 86.0044ZM174.53 78.2605H174.403L163.422 102H167.738L169.579 97.7789H179.354L181.195 102H185.511L174.53 78.2605ZM174.467 86.417L177.989 94.51H170.944L174.467 86.417ZM196.459 85.6871C194.142 85.6871 192.524 86.7026 191.635 87.8452L191.476 86.0044H188.049V102H191.857V91.5267C192.651 90.3207 193.793 89.2734 195.475 89.2734C197.443 89.2734 198.681 90.7333 198.681 92.8597V102H202.521V92.6375C202.521 88.4482 200.363 85.6871 196.459 85.6871Z" fill="#3E423E"/>
<path d="M71.2277 206.963H60.2838V208.577H64.8423V220H66.6515V208.577H71.2277V206.963ZM81.0437 206.963H72.9733V220H81.1856V218.333H74.7825V214.2H80.281V212.586H74.7825V208.63H81.0437V206.963ZM85.0195 206.963H83.2103V220H91.2275V218.386H85.0195V206.963ZM103.915 206.981H102.159L95.6844 220H97.4759L103.915 206.981ZM112.978 206.733C110.938 206.733 109.253 208.187 109.253 210.245C109.253 211.522 109.891 212.55 110.849 213.1C109.572 213.668 108.703 214.874 108.703 216.311C108.703 218.599 110.636 220.231 112.978 220.231C115.319 220.231 117.27 218.599 117.27 216.311C117.27 214.874 116.365 213.686 115.088 213.082C116.046 212.533 116.702 211.504 116.702 210.245C116.702 208.187 115.017 206.733 112.978 206.733ZM112.978 213.987C114.361 213.987 115.478 214.998 115.478 216.346C115.478 217.676 114.361 218.67 112.978 218.67C111.594 218.67 110.494 217.676 110.494 216.346C110.494 214.998 111.594 213.987 112.978 213.987ZM112.978 208.293C114.13 208.293 115.053 209.163 115.053 210.315C115.053 211.539 114.13 212.426 112.978 212.426C111.825 212.426 110.902 211.539 110.902 210.315C110.902 209.163 111.825 208.293 112.978 208.293ZM122.678 206.733C120.638 206.733 118.953 208.187 118.953 210.245C118.953 211.522 119.591 212.55 120.549 213.1C119.272 213.668 118.403 214.874 118.403 216.311C118.403 218.599 120.336 220.231 122.678 220.231C125.019 220.231 126.97 218.599 126.97 216.311C126.97 214.874 126.065 213.686 124.788 213.082C125.746 212.533 126.402 211.504 126.402 210.245C126.402 208.187 124.717 206.733 122.678 206.733ZM122.678 213.987C124.061 213.987 125.179 214.998 125.179 216.346C125.179 217.676 124.061 218.67 122.678 218.67C121.294 218.67 120.194 217.676 120.194 216.346C120.194 214.998 121.294 213.987 122.678 213.987ZM122.678 208.293C123.831 208.293 124.753 209.163 124.753 210.315C124.753 211.539 123.831 212.426 122.678 212.426C121.525 212.426 120.602 211.539 120.602 210.315C120.602 209.163 121.525 208.293 122.678 208.293ZM132.378 206.733C130.338 206.733 128.653 208.187 128.653 210.245C128.653 211.522 129.291 212.55 130.249 213.1C128.972 213.668 128.103 214.874 128.103 216.311C128.103 218.599 130.036 220.231 132.378 220.231C134.719 220.231 136.67 218.599 136.67 216.311C136.67 214.874 135.765 213.686 134.488 213.082C135.446 212.533 136.102 211.504 136.102 210.245C136.102 208.187 134.417 206.733 132.378 206.733ZM132.378 213.987C133.761 213.987 134.879 214.998 134.879 216.346C134.879 217.676 133.761 218.67 132.378 218.67C130.994 218.67 129.894 217.676 129.894 216.346C129.894 214.998 130.994 213.987 132.378 213.987ZM132.378 208.293C133.531 208.293 134.453 209.163 134.453 210.315C134.453 211.539 133.531 212.426 132.378 212.426C131.225 212.426 130.302 211.539 130.302 210.315C130.302 209.163 131.225 208.293 132.378 208.293ZM146.163 206.733C144.106 206.733 142.882 207.885 142.296 209.535L143.84 210.191C144.212 209.021 144.957 208.329 146.145 208.329C147.351 208.329 148.238 209.127 148.238 210.422C148.238 211.77 147.227 212.444 146.145 212.444H144.691V213.987H146.11C147.6 213.987 148.646 214.963 148.646 216.275C148.646 217.712 147.688 218.634 146.305 218.634C144.815 218.634 144.088 217.836 143.68 216.577L142.084 217.002C142.722 219.042 143.999 220.231 146.305 220.231C148.788 220.231 150.402 218.634 150.402 216.275C150.402 214.768 149.551 213.703 148.238 213.207C149.249 212.745 149.994 211.894 149.994 210.44C149.994 208.276 148.433 206.733 146.163 206.733ZM158.533 206.857H158.445L150.906 217.481V217.552H156.777V220H158.533V217.552H160.289V215.956H158.533V206.857ZM156.795 211.894V215.974H153.904L156.795 211.894ZM168.868 206.963H162.039V213.792L163.156 214.324C163.688 213.898 164.416 213.526 165.462 213.526C166.917 213.526 167.91 214.537 167.91 216.045C167.91 217.535 166.899 218.634 165.444 218.634C164.043 218.634 163.28 217.907 162.89 216.701L161.383 217.41C162.057 219.202 163.351 220.231 165.551 220.231C168.105 220.231 169.684 218.439 169.684 216.116C169.684 213.49 167.945 211.93 165.533 211.93C164.806 211.93 164.238 212.107 163.813 212.32V208.559H168.868V206.963ZM179.074 206.733C177.016 206.733 175.793 207.885 175.207 209.535L176.75 210.191C177.123 209.021 177.868 208.329 179.056 208.329C180.262 208.329 181.149 209.127 181.149 210.422C181.149 211.77 180.138 212.444 179.056 212.444H177.602V213.987H179.021C180.511 213.987 181.557 214.963 181.557 216.275C181.557 217.712 180.599 218.634 179.216 218.634C177.726 218.634 176.999 217.836 176.591 216.577L174.994 217.002C175.633 219.042 176.91 220.231 179.216 220.231C181.699 220.231 183.313 218.634 183.313 216.275C183.313 214.768 182.462 213.703 181.149 213.207C182.16 212.745 182.905 211.894 182.905 210.44C182.905 208.276 181.344 206.733 179.074 206.733ZM191.444 206.857H191.355L183.817 217.481V217.552H189.688V220H191.444V217.552H193.2V215.956H191.444V206.857ZM189.706 211.894V215.974H186.815L189.706 211.894ZM198.249 206.733C196.103 206.733 194.772 207.903 194.329 210.138L195.925 210.511C196.209 209.038 196.936 208.329 198.249 208.329C199.508 208.329 200.448 209.163 200.448 210.582C200.448 211.77 200.147 212.533 199.207 213.721L194.382 219.894V220H202.382V218.404H197.752L200.661 214.661C201.708 213.331 202.222 212.231 202.222 210.617C202.222 208.329 200.608 206.733 198.249 206.733ZM207.796 211.646C207.69 211.646 207.584 211.646 207.477 211.663L210.546 206.963H208.559L204.462 213.224C203.876 213.952 203.539 214.892 203.539 215.956C203.539 218.457 205.455 220.231 207.796 220.231C210.155 220.231 212.089 218.457 212.089 215.956C212.089 213.455 210.155 211.646 207.796 211.646ZM207.796 213.224C209.198 213.224 210.315 214.342 210.315 215.956C210.315 217.552 209.198 218.652 207.796 218.652C206.413 218.652 205.331 217.552 205.331 215.956C205.331 214.342 206.413 213.224 207.796 213.224Z" fill="#3E423E"/>
<path d="M65.3921 237.963H61.4545V251H65.3921C69.8264 251 72.3983 248.588 72.3983 244.473C72.3983 240.358 69.791 237.963 65.3921 237.963ZM65.3389 239.648C68.6912 239.648 70.5714 241.422 70.5714 244.473C70.5714 247.541 68.7267 249.333 65.3389 249.333H63.2637V239.648H65.3389ZM77.6383 241.919C75.1906 241.919 73.5233 243.87 73.5233 246.548C73.5233 249.226 75.1906 251.177 77.6383 251.177C79.0395 251.177 79.9796 250.592 80.494 249.918L80.5649 251H82.1436V242.096H80.5649L80.494 243.178C79.9796 242.504 79.0395 241.919 77.6383 241.919ZM77.9576 243.462C79.146 243.462 79.8732 244.1 80.4053 244.969V248.127C79.8732 248.996 79.146 249.634 77.9576 249.634C76.3967 249.634 75.2792 248.393 75.2792 246.548C75.2792 244.703 76.3967 243.462 77.9576 243.462ZM89.3409 241.919C87.9751 241.919 87.035 242.522 86.5206 243.178L86.4497 242.096H84.8711V251H86.6093V244.987C87.1592 244.207 87.8687 243.568 88.9152 243.568C90.1745 243.568 90.9727 244.49 90.9727 245.838V251H92.7109V245.732C92.7109 243.444 91.4871 241.919 89.3409 241.919ZM99.6818 241.919C98.316 241.919 97.376 242.522 96.8616 243.178L96.7906 242.096H95.212V251H96.9503V244.987C97.5001 244.207 98.2096 243.568 99.2561 243.568C100.515 243.568 101.314 244.49 101.314 245.838V251H103.052V245.732C103.052 243.444 101.828 241.919 99.6818 241.919ZM113.262 242.096H111.311L108.632 247.594L105.954 242.096H104.021L107.692 249.546L104.766 255.08H106.752L113.262 242.096ZM121.133 239.701C116.982 239.701 114.073 242.646 114.073 246.708C114.073 250.805 116.947 253.696 121.044 253.696C122.002 253.696 122.942 253.519 123.74 253.199L123.332 251.94C122.623 252.224 121.878 252.366 121.044 252.366C117.763 252.366 115.475 250.007 115.475 246.708C115.475 243.444 117.798 241.032 121.133 241.032C124.538 241.032 126.809 243.373 126.809 246.619C126.809 248.198 126.277 249.297 125.337 249.297C124.84 249.297 124.609 249.013 124.609 248.517V243.018H123.261L123.208 243.887C122.765 243.32 122.02 242.876 120.76 242.876C118.774 242.876 117.39 244.508 117.39 246.743C117.39 248.96 118.774 250.592 120.76 250.592C122.02 250.592 122.853 250.042 123.332 249.439L123.368 249.528C123.616 250.131 124.184 250.592 125.177 250.592C127.11 250.592 128.21 248.978 128.21 246.619C128.21 242.539 125.319 239.701 121.133 239.701ZM121.097 244.171C122.091 244.171 122.711 244.739 123.137 245.324V248.144C122.694 248.783 122.091 249.297 121.097 249.297C119.802 249.297 118.88 248.286 118.88 246.743C118.88 245.2 119.802 244.171 121.097 244.171ZM138.38 237.963H129.494V239.613H135.56L129.21 250.929V251H138.575V249.35H132.083L138.38 238.034V237.963ZM143.844 241.919C141.344 241.919 139.588 243.887 139.588 246.566C139.588 249.244 141.29 251.177 144.04 251.177C145.654 251.177 146.807 250.61 147.658 249.563L146.452 248.552C146.008 249.173 145.21 249.687 144.04 249.687C142.355 249.687 141.397 248.801 141.344 247.169H147.871V246.477C147.871 243.976 146.505 241.919 143.844 241.919ZM143.844 243.408C145.281 243.408 146.097 244.349 146.15 245.75H141.344C141.432 244.331 142.408 243.408 143.844 243.408ZM154.297 241.919C152.931 241.919 151.991 242.522 151.476 243.178L151.405 242.096H149.827V251H151.565V244.987C152.115 244.207 152.824 243.568 153.871 243.568C155.13 243.568 155.928 244.49 155.928 245.838V251H157.667V245.732C157.667 243.444 156.443 241.919 154.297 241.919ZM162.491 239.081H160.753V242.096H159.015V243.586H160.753V248.02C160.753 250.078 161.977 251.177 163.875 251.177C164.744 251.177 165.365 250.947 165.79 250.681L165.294 249.315C165.028 249.475 164.62 249.599 164.017 249.599C163.112 249.599 162.491 249.031 162.491 248.002V243.586H165.294V242.096H162.491V239.081ZM171.545 241.919C170.233 241.919 169.346 242.593 168.902 243.302L168.814 242.096H167.235V251H168.973V245.147C169.576 244.278 170.286 243.657 171.385 243.657H171.545V241.919ZM180.626 242.096H178.888V248.109C178.338 248.872 177.682 249.528 176.564 249.528C175.394 249.528 174.684 248.623 174.684 247.311V242.096H172.946V247.399C172.946 249.67 174.081 251.177 176.121 251.177C177.558 251.177 178.445 250.592 178.977 249.918L179.048 251H180.626V242.096ZM186.235 241.919C184.159 241.919 182.865 242.912 182.865 244.597C182.865 245.998 183.751 246.725 185.827 247.204C187.193 247.524 187.725 247.79 187.725 248.517C187.725 249.279 186.997 249.634 185.933 249.634C184.869 249.634 183.982 249.279 183.326 248.712L182.528 250.095C183.326 250.752 184.567 251.177 185.915 251.177C188.097 251.177 189.481 250.095 189.481 248.41C189.481 247.062 188.541 246.211 186.465 245.714C185.117 245.395 184.603 245.218 184.603 244.49C184.603 243.763 185.241 243.462 186.235 243.462C187.193 243.462 187.902 243.816 188.452 244.242L189.197 242.894C188.505 242.326 187.423 241.919 186.235 241.919ZM193.791 239.081H192.053V242.096H190.315V243.586H192.053V248.02C192.053 250.078 193.277 251.177 195.175 251.177C196.044 251.177 196.665 250.947 197.09 250.681L196.594 249.315C196.328 249.475 195.92 249.599 195.317 249.599C194.412 249.599 193.791 249.031 193.791 248.002V243.586H196.594V242.096H193.791V239.081ZM199.067 248.73C198.358 248.73 197.843 249.244 197.843 249.954C197.843 250.663 198.358 251.177 199.067 251.177C199.777 251.177 200.291 250.663 200.291 249.954C200.291 249.226 199.777 248.73 199.067 248.73ZM205.982 241.919C203.233 241.919 201.495 243.87 201.495 246.548C201.495 249.226 203.251 251.177 206.018 251.177C207.596 251.177 208.802 250.468 209.601 249.262L208.306 248.268C207.862 248.996 207.1 249.652 206.018 249.652C204.226 249.652 203.251 248.304 203.251 246.548C203.251 244.774 204.191 243.444 206 243.444C207.082 243.444 207.809 244.1 208.253 244.827L209.547 243.834C208.749 242.628 207.579 241.919 205.982 241.919ZM215.026 241.919C212.383 241.919 210.467 243.887 210.467 246.566C210.467 249.244 212.383 251.177 215.026 251.177C217.669 251.177 219.602 249.244 219.602 246.566C219.602 243.887 217.669 241.919 215.026 241.919ZM215.026 243.462C216.658 243.462 217.846 244.774 217.846 246.566C217.846 248.339 216.658 249.634 215.026 249.634C213.394 249.634 212.223 248.339 212.223 246.566C212.223 244.774 213.394 243.462 215.026 243.462ZM231.88 241.919C230.407 241.919 229.361 242.61 228.687 243.55C228.172 242.522 227.232 241.919 225.938 241.919C224.59 241.919 223.667 242.522 223.153 243.178L223.082 242.096H221.503V251H223.242V244.969C223.809 244.207 224.483 243.568 225.494 243.568C226.683 243.568 227.428 244.49 227.428 245.838V251H229.166V245.59C229.166 245.413 229.148 245.235 229.13 245.04C229.698 244.224 230.407 243.568 231.418 243.568C232.607 243.568 233.352 244.49 233.352 245.838V251H235.108V245.732C235.108 243.444 233.919 241.919 231.88 241.919Z" fill="#3E423E"/>
<path d="M65.5911 119.725C62.5551 119.725 60.4121 121.964 60.4121 124.945C60.4121 127.939 62.5551 130.179 65.5911 130.179C67.0609 130.179 68.2561 129.739 69.2589 128.64L67.9539 127.115C67.4181 127.761 66.6351 128.269 65.5911 128.269C63.7365 128.269 62.5277 126.868 62.5277 124.945C62.5277 123.021 63.7365 121.634 65.5911 121.634C66.6214 121.634 67.3906 122.129 67.9264 122.76L69.2452 121.236C68.2698 120.233 67.1846 119.725 65.5911 119.725ZM77.7161 119.903H71.1909V130H77.826V128.091H73.2927V125.769H77.1254V123.997H73.2927V121.813H77.7161V119.903ZM84.733 119.725C81.7521 119.725 79.5541 121.936 79.5541 124.972C79.5541 127.981 81.7521 130.179 84.733 130.179C87.7003 130.179 89.9257 127.981 89.9257 124.972C89.9257 121.936 87.7003 119.725 84.733 119.725ZM84.733 121.634C86.5326 121.634 87.7964 123.021 87.7964 124.972C87.7964 126.895 86.5326 128.269 84.733 128.269C82.9335 128.269 81.6696 126.895 81.6696 124.972C81.6696 123.021 82.9335 121.634 84.733 121.634ZM102.193 119.903H100.16L95.1598 130H97.2067L102.193 119.903ZM114.351 119.903H108.032V130H110.134V125.92H113.637V124.134H110.134V121.813H114.351V119.903ZM121.064 119.725C118.083 119.725 115.885 121.936 115.885 124.972C115.885 127.981 118.083 130.179 121.064 130.179C124.032 130.179 126.257 127.981 126.257 124.972C126.257 121.936 124.032 119.725 121.064 119.725ZM121.064 121.634C122.864 121.634 124.128 123.021 124.128 124.972C124.128 126.895 122.864 128.269 121.064 128.269C119.265 128.269 118.001 126.895 118.001 124.972C118.001 123.021 119.265 121.634 121.064 121.634ZM136.14 119.903H134.052V126.236C134.052 127.445 133.434 128.269 132.253 128.269C131.057 128.269 130.467 127.445 130.467 126.236V119.903H128.365V126.373C128.365 128.667 129.711 130.179 132.253 130.179C134.794 130.179 136.14 128.667 136.14 126.373V119.903ZM146.97 119.903H144.868V125.535L138.906 119.725H138.851V130H140.953V124.368L146.915 130.179H146.97V119.903ZM153.018 119.903H149.804V130H153.018C156.494 130 158.541 128.132 158.541 124.945C158.541 121.758 156.466 119.903 153.018 119.903ZM152.95 121.826C155.216 121.826 156.412 122.967 156.412 124.958C156.412 126.937 155.23 128.091 152.95 128.091H151.906V121.826H152.95ZM167.295 119.903H160.77V130H167.405V128.091H162.872V125.769H166.705V123.997H162.872V121.813H167.295V119.903ZM173.68 119.903H169.724V130H171.812V126.442H173.199L175.315 130H177.76L175.411 126.085C176.496 125.59 177.266 124.588 177.266 123.173C177.266 121.085 175.617 119.903 173.68 119.903ZM173.488 121.716C174.477 121.716 175.136 122.238 175.136 123.173C175.136 124.12 174.477 124.629 173.488 124.629H171.812V121.716H173.488Z" fill="#7BB3F6"/>
<path d="M731.803 343.182L659.942 469.084L289.582 419.491L387.876 247.278C415.61 198.687 415.6 138.834 387.851 90.2521L138.096 -347.001L536.91 -346.871L731.748 -5.76376C793.413 102.196 793.435 235.203 731.803 343.182Z" fill="url(#paint0_linear)"/>
<path d="M379.063 260.815C379.507 260.054 379.95 259.287 380.392 258.514C381.448 256.665 382.499 254.815 383.544 252.965L386.715 247.409C387.705 245.674 388.66 243.925 389.58 242.162C492.676 55.5744 541.396 -140.726 535.749 -346.74L737.231 5.99804C794.785 106.76 794.805 230.9 737.282 331.681L525.181 703.287L126.588 703.158L379.063 260.815V260.815Z" fill="url(#paint1_linear)"/>
</g>
<defs>
<linearGradient id="paint0_linear" x1="117.281" y1="-347.052" x2="260.759" y2="748.71" gradientUnits="userSpaceOnUse">
<stop stop-color="#FF5DAF"/>
<stop offset="0.518359" stop-color="#C4A0FF"/>
<stop offset="1" stop-color="#7D93F3"/>
</linearGradient>
<linearGradient id="paint1_linear" x1="126.588" y1="704.104" x2="882.082" y2="57.1766" gradientUnits="userSpaceOnUse">
<stop stop-color="#12FFE8"/>
<stop offset="0.653061" stop-color="#6B8CFA"/>
<stop offset="1" stop-color="#B851FF"/>
</linearGradient>
<clipPath id="clip0">
<rect width="563" height="333" fill="white"/>
</clipPath>
</defs>
</svg>
