<svg width="563" height="333" viewBox="0 0 563 333" fill="none" xmlns="http://www.w3.org/2000/svg">
<g clip-path="url(#clip0)">
<rect width="563.2" height="332.8" fill="white"/>
<g opacity="0.07">
<path fill-rule="evenodd" clip-rule="evenodd" d="M241.179 23.1975C227.565 15.3377 210.792 15.3377 197.179 23.1975L141.629 55.2691L197.179 23.1975C210.792 15.3377 219.179 0.812084 219.179 -14.9076V-79.0508V-14.9076C219.179 0.8121 227.565 15.3377 241.179 23.1975L296.728 55.2691L241.179 23.1975Z" stroke="black" stroke-width="0.6"/>
<path fill-rule="evenodd" clip-rule="evenodd" d="M357.96 23.1975C344.346 15.3377 327.573 15.3377 313.96 23.1975L258.41 55.2691L313.96 23.1975C327.573 15.3377 335.96 0.812084 335.96 -14.9076V-79.0508V-14.9076C335.96 0.8121 344.346 15.3377 357.96 23.1975L413.509 55.2691L357.96 23.1975Z" stroke="black" stroke-width="0.6"/>
<path fill-rule="evenodd" clip-rule="evenodd" d="M278.368 24.6911C278.368 8.97143 269.981 -5.55415 256.368 -13.414L200.818 -45.4856L256.368 -13.414C269.981 -5.55414 286.754 -5.55415 300.368 -13.414L355.917 -45.4856L300.368 -13.414C286.754 -5.55414 278.368 8.97144 278.368 24.6911L278.368 88.8343L278.368 24.6911Z" stroke="black" stroke-width="0.6"/>
<path fill-rule="evenodd" clip-rule="evenodd" d="M-73.5795 24.6911C-73.5795 8.97143 -81.9659 -5.55415 -95.5795 -13.414L-151.129 -45.4856L-95.5795 -13.414C-81.9658 -5.55414 -65.1932 -5.55415 -51.5795 -13.414L3.97012 -45.4856L-51.5795 -13.414C-65.1932 -5.55414 -73.5795 8.97144 -73.5795 24.6911L-73.5795 88.8343L-73.5795 24.6911Z" stroke="black" stroke-width="0.6"/>
<path fill-rule="evenodd" clip-rule="evenodd" d="M395.155 24.6911C395.155 8.97143 386.769 -5.55415 373.155 -13.414L317.605 -45.4856L373.155 -13.414C386.769 -5.55414 403.541 -5.55415 417.155 -13.414L472.704 -45.4856L417.155 -13.414C403.541 -5.55414 395.155 8.97144 395.155 24.6911L395.155 88.8343L395.155 24.6911Z" stroke="black" stroke-width="0.6"/>
<path fill-rule="evenodd" clip-rule="evenodd" d="M7.61014 23.1975C-6.00351 15.3377 -22.7762 15.3377 -36.3898 23.1975L-91.9395 55.2691L-36.3898 23.1975C-22.7762 15.3377 -14.3898 0.812084 -14.3898 -14.9076V-79.0508V-14.9076C-14.3898 0.8121 -6.0035 15.3377 7.61015 23.1975L63.1598 55.2691L7.61014 23.1975Z" stroke="black" stroke-width="0.6"/>
<path fill-rule="evenodd" clip-rule="evenodd" d="M476.348 23.1975C462.735 15.3377 445.962 15.3377 432.348 23.1975L376.799 55.2691L432.348 23.1975C445.962 15.3377 454.348 0.812084 454.348 -14.9076V-79.0508V-14.9076C454.348 0.8121 462.735 15.3377 476.348 23.1975L531.898 55.2691L476.348 23.1975Z" stroke="black" stroke-width="0.6"/>
<path fill-rule="evenodd" clip-rule="evenodd" d="M124.397 23.1975C110.784 15.3377 94.0109 15.3377 80.3973 23.1975L24.8477 55.2691L80.3973 23.1975C94.0109 15.3377 102.397 0.812084 102.397 -14.9076V-79.0508V-14.9076C102.397 0.8121 110.784 15.3377 124.397 23.1975L179.947 55.2691L124.397 23.1975Z" stroke="black" stroke-width="0.6"/>
<path fill-rule="evenodd" clip-rule="evenodd" d="M593.128 23.1975C579.514 15.3377 562.741 15.3377 549.128 23.1975L493.578 55.2691L549.128 23.1975C562.741 15.3377 571.128 0.812084 571.128 -14.9076V-79.0508V-14.9076C571.128 0.8121 579.514 15.3377 593.128 23.1975L648.677 55.2691L593.128 23.1975Z" stroke="black" stroke-width="0.6"/>
<path fill-rule="evenodd" clip-rule="evenodd" d="M44.8033 24.6911C44.8033 8.97143 36.417 -5.55415 22.8033 -13.414L-32.7463 -45.4856L22.8033 -13.414C36.417 -5.55414 53.1897 -5.55415 66.8033 -13.414L122.353 -45.4856L66.8033 -13.414C53.1896 -5.55414 44.8033 8.97144 44.8033 24.6911L44.8033 88.8343L44.8033 24.6911Z" stroke="black" stroke-width="0.6"/>
<path fill-rule="evenodd" clip-rule="evenodd" d="M513.538 24.6911C513.538 8.97143 505.151 -5.55415 491.538 -13.414L435.988 -45.4856L491.538 -13.414C505.151 -5.55414 521.924 -5.55415 535.538 -13.414L591.087 -45.4856L535.538 -13.414C521.924 -5.55414 513.538 8.97144 513.538 24.6911L513.538 88.8343L513.538 24.6911Z" stroke="black" stroke-width="0.6"/>
<path fill-rule="evenodd" clip-rule="evenodd" d="M161.59 24.6911C161.59 8.97143 153.204 -5.55415 139.59 -13.414L84.0408 -45.4856L139.59 -13.414C153.204 -5.55414 169.977 -5.55415 183.59 -13.414L239.14 -45.4856L183.59 -13.414C169.977 -5.55414 161.59 8.97144 161.59 24.6911L161.59 88.8343L161.59 24.6911Z" stroke="black" stroke-width="0.6"/>
<path fill-rule="evenodd" clip-rule="evenodd" d="M630.889 24.6911C630.889 8.97143 622.503 -5.55415 608.889 -13.414L553.34 -45.4856L608.889 -13.414C622.503 -5.55414 639.276 -5.55415 652.889 -13.414L708.439 -45.4856L652.889 -13.414C639.276 -5.55414 630.889 8.97144 630.889 24.6911L630.889 88.8343L630.889 24.6911Z" stroke="black" stroke-width="0.6"/>
<path fill-rule="evenodd" clip-rule="evenodd" d="M241.179 131.981C227.565 124.121 210.792 124.121 197.179 131.981L141.629 164.052L197.179 131.981C210.792 124.121 219.179 109.595 219.179 93.8756V29.7324V93.8756C219.179 109.595 227.565 124.121 241.179 131.981L296.728 164.052L241.179 131.981Z" stroke="black" stroke-width="0.6"/>
<path fill-rule="evenodd" clip-rule="evenodd" d="M357.96 131.981C344.346 124.121 327.573 124.121 313.96 131.981L258.41 164.052L313.96 131.981C327.573 124.121 335.96 109.595 335.96 93.8756V29.7324V93.8756C335.96 109.595 344.346 124.121 357.96 131.981L413.509 164.052L357.96 131.981Z" stroke="black" stroke-width="0.6"/>
<path fill-rule="evenodd" clip-rule="evenodd" d="M278.368 133.475C278.368 117.756 269.981 103.23 256.368 95.3702L200.818 63.2986L256.368 95.3702C269.981 103.23 286.754 103.23 300.368 95.3702L355.917 63.2986L300.368 95.3702C286.754 103.23 278.368 117.756 278.368 133.475L278.368 197.618L278.368 133.475Z" stroke="black" stroke-width="0.6"/>
<path fill-rule="evenodd" clip-rule="evenodd" d="M-73.5795 133.475C-73.5795 117.756 -81.9659 103.23 -95.5795 95.3702L-151.129 63.2986L-95.5795 95.3702C-81.9658 103.23 -65.1932 103.23 -51.5795 95.3702L3.97012 63.2986L-51.5795 95.3702C-65.1932 103.23 -73.5795 117.756 -73.5795 133.475L-73.5795 197.618L-73.5795 133.475Z" stroke="black" stroke-width="0.6"/>
<path fill-rule="evenodd" clip-rule="evenodd" d="M395.155 133.475C395.155 117.756 386.769 103.23 373.155 95.3702L317.605 63.2986L373.155 95.3702C386.769 103.23 403.541 103.23 417.155 95.3702L472.704 63.2986L417.155 95.3702C403.541 103.23 395.155 117.756 395.155 133.475L395.155 197.618L395.155 133.475Z" stroke="black" stroke-width="0.6"/>
<path fill-rule="evenodd" clip-rule="evenodd" d="M7.61014 131.981C-6.00351 124.121 -22.7762 124.121 -36.3898 131.981L-91.9395 164.052L-36.3898 131.981C-22.7762 124.121 -14.3898 109.595 -14.3898 93.8756V29.7324V93.8756C-14.3898 109.595 -6.0035 124.121 7.61015 131.981L63.1598 164.052L7.61014 131.981Z" stroke="black" stroke-width="0.6"/>
<path fill-rule="evenodd" clip-rule="evenodd" d="M476.348 131.981C462.735 124.121 445.962 124.121 432.348 131.981L376.799 164.052L432.348 131.981C445.962 124.121 454.348 109.595 454.348 93.8756V29.7324V93.8756C454.348 109.595 462.735 124.121 476.348 131.981L531.898 164.052L476.348 131.981Z" stroke="black" stroke-width="0.6"/>
<path fill-rule="evenodd" clip-rule="evenodd" d="M124.397 131.981C110.784 124.121 94.0109 124.121 80.3973 131.981L24.8477 164.052L80.3973 131.981C94.0109 124.121 102.397 109.595 102.397 93.8756V29.7324V93.8756C102.397 109.595 110.784 124.121 124.397 131.981L179.947 164.052L124.397 131.981Z" stroke="black" stroke-width="0.6"/>
<path fill-rule="evenodd" clip-rule="evenodd" d="M593.128 131.981C579.514 124.121 562.741 124.121 549.128 131.981L493.578 164.052L549.128 131.981C562.741 124.121 571.128 109.595 571.128 93.8756V29.7324V93.8756C571.128 109.595 579.514 124.121 593.128 131.981L648.677 164.052L593.128 131.981Z" stroke="black" stroke-width="0.6"/>
<path fill-rule="evenodd" clip-rule="evenodd" d="M44.8033 133.475C44.8033 117.756 36.417 103.23 22.8033 95.3702L-32.7463 63.2986L22.8033 95.3702C36.417 103.23 53.1897 103.23 66.8033 95.3702L122.353 63.2986L66.8033 95.3702C53.1896 103.23 44.8033 117.756 44.8033 133.475L44.8033 197.618L44.8033 133.475Z" stroke="black" stroke-width="0.6"/>
<path fill-rule="evenodd" clip-rule="evenodd" d="M513.538 133.475C513.538 117.756 505.151 103.23 491.538 95.3702L435.988 63.2986L491.538 95.3702C505.151 103.23 521.924 103.23 535.538 95.3702L591.087 63.2986L535.538 95.3702C521.924 103.23 513.538 117.756 513.538 133.475L513.538 197.618L513.538 133.475Z" stroke="black" stroke-width="0.6"/>
<path fill-rule="evenodd" clip-rule="evenodd" d="M161.59 133.475C161.59 117.756 153.204 103.23 139.59 95.3702L84.0408 63.2986L139.59 95.3702C153.204 103.23 169.977 103.23 183.59 95.3702L239.14 63.2986L183.59 95.3702C169.977 103.23 161.59 117.756 161.59 133.475L161.59 197.618L161.59 133.475Z" stroke="black" stroke-width="0.6"/>
<path fill-rule="evenodd" clip-rule="evenodd" d="M630.889 133.475C630.889 117.756 622.503 103.23 608.889 95.3702L553.34 63.2986L608.889 95.3702C622.503 103.23 639.276 103.23 652.889 95.3702L708.439 63.2986L652.889 95.3702C639.276 103.23 630.889 117.756 630.889 133.475L630.889 197.618L630.889 133.475Z" stroke="black" stroke-width="0.6"/>
<path fill-rule="evenodd" clip-rule="evenodd" d="M241.179 240.769C227.565 232.909 210.792 232.909 197.179 240.769L141.629 272.84L197.179 240.769C210.792 232.909 219.179 218.383 219.179 202.664V138.521V202.664C219.179 218.383 227.565 232.909 241.179 240.769L296.728 272.84L241.179 240.769Z" stroke="black" stroke-width="0.6"/>
<path fill-rule="evenodd" clip-rule="evenodd" d="M357.96 240.769C344.346 232.909 327.573 232.909 313.96 240.769L258.41 272.84L313.96 240.769C327.573 232.909 335.96 218.383 335.96 202.664V138.521V202.664C335.96 218.383 344.346 232.909 357.96 240.769L413.509 272.84L357.96 240.769Z" stroke="black" stroke-width="0.6"/>
<path fill-rule="evenodd" clip-rule="evenodd" d="M278.368 242.261C278.368 226.542 269.981 212.016 256.368 204.156L200.818 172.085L256.368 204.156C269.981 212.016 286.754 212.016 300.368 204.156L355.917 172.085L300.368 204.156C286.754 212.016 278.368 226.542 278.368 242.261L278.368 306.405L278.368 242.261Z" stroke="black" stroke-width="0.6"/>
<path fill-rule="evenodd" clip-rule="evenodd" d="M-73.5795 242.261C-73.5795 226.542 -81.9659 212.016 -95.5795 204.156L-151.129 172.085L-95.5795 204.156C-81.9658 212.016 -65.1932 212.016 -51.5795 204.156L3.97012 172.085L-51.5795 204.156C-65.1932 212.016 -73.5795 226.542 -73.5795 242.261L-73.5795 306.405L-73.5795 242.261Z" stroke="black" stroke-width="0.6"/>
<path fill-rule="evenodd" clip-rule="evenodd" d="M395.155 242.261C395.155 226.542 386.769 212.016 373.155 204.156L317.605 172.085L373.155 204.156C386.769 212.016 403.541 212.016 417.155 204.156L472.704 172.085L417.155 204.156C403.541 212.016 395.155 226.542 395.155 242.261L395.155 306.405L395.155 242.261Z" stroke="black" stroke-width="0.6"/>
<path fill-rule="evenodd" clip-rule="evenodd" d="M7.61014 240.769C-6.00351 232.909 -22.7762 232.909 -36.3898 240.769L-91.9395 272.84L-36.3898 240.769C-22.7762 232.909 -14.3898 218.383 -14.3898 202.664V138.521V202.664C-14.3898 218.383 -6.0035 232.909 7.61015 240.769L63.1598 272.84L7.61014 240.769Z" stroke="black" stroke-width="0.6"/>
<path fill-rule="evenodd" clip-rule="evenodd" d="M476.348 240.769C462.735 232.909 445.962 232.909 432.348 240.769L376.799 272.84L432.348 240.769C445.962 232.909 454.348 218.383 454.348 202.664V138.521V202.664C454.348 218.383 462.735 232.909 476.348 240.769L531.898 272.84L476.348 240.769Z" stroke="black" stroke-width="0.6"/>
<path fill-rule="evenodd" clip-rule="evenodd" d="M124.397 240.769C110.784 232.909 94.0109 232.909 80.3973 240.769L24.8477 272.84L80.3973 240.769C94.0109 232.909 102.397 218.383 102.397 202.664V138.521V202.664C102.397 218.383 110.784 232.909 124.397 240.769L179.947 272.84L124.397 240.769Z" stroke="black" stroke-width="0.6"/>
<path fill-rule="evenodd" clip-rule="evenodd" d="M593.128 240.769C579.514 232.909 562.741 232.909 549.128 240.769L493.578 272.84L549.128 240.769C562.741 232.909 571.128 218.383 571.128 202.664V138.521V202.664C571.128 218.383 579.514 232.909 593.128 240.769L648.677 272.84L593.128 240.769Z" stroke="black" stroke-width="0.6"/>
<path fill-rule="evenodd" clip-rule="evenodd" d="M44.8033 242.261C44.8033 226.542 36.417 212.016 22.8033 204.156L-32.7463 172.085L22.8033 204.156C36.417 212.016 53.1897 212.016 66.8033 204.156L122.353 172.085L66.8033 204.156C53.1896 212.016 44.8033 226.542 44.8033 242.261L44.8033 306.405L44.8033 242.261Z" stroke="black" stroke-width="0.6"/>
<path fill-rule="evenodd" clip-rule="evenodd" d="M513.538 242.261C513.538 226.542 505.151 212.016 491.538 204.156L435.988 172.085L491.538 204.156C505.151 212.016 521.924 212.016 535.538 204.156L591.087 172.085L535.538 204.156C521.924 212.016 513.538 226.542 513.538 242.261L513.538 306.405L513.538 242.261Z" stroke="black" stroke-width="0.6"/>
<path fill-rule="evenodd" clip-rule="evenodd" d="M161.59 242.261C161.59 226.542 153.204 212.016 139.59 204.156L84.0408 172.085L139.59 204.156C153.204 212.016 169.977 212.016 183.59 204.156L239.14 172.085L183.59 204.156C169.977 212.016 161.59 226.542 161.59 242.261L161.59 306.405L161.59 242.261Z" stroke="black" stroke-width="0.6"/>
<path fill-rule="evenodd" clip-rule="evenodd" d="M630.889 242.261C630.889 226.542 622.503 212.016 608.889 204.156L553.34 172.085L608.889 204.156C622.503 212.016 639.276 212.016 652.889 204.156L708.439 172.085L652.889 204.156C639.276 212.016 630.889 226.542 630.889 242.261L630.889 306.405L630.889 242.261Z" stroke="black" stroke-width="0.6"/>
<path fill-rule="evenodd" clip-rule="evenodd" d="M241.179 349.554C227.565 341.694 210.792 341.694 197.179 349.554L141.629 381.626L197.179 349.554C210.792 341.694 219.179 327.169 219.179 311.449V247.306V311.449C219.179 327.169 227.565 341.694 241.179 349.554L296.728 381.626L241.179 349.554Z" stroke="black" stroke-width="0.6"/>
<path fill-rule="evenodd" clip-rule="evenodd" d="M357.96 349.554C344.346 341.694 327.573 341.694 313.96 349.554L258.41 381.626L313.96 349.554C327.573 341.694 335.96 327.169 335.96 311.449V247.306V311.449C335.96 327.169 344.346 341.694 357.96 349.554L413.509 381.626L357.96 349.554Z" stroke="black" stroke-width="0.6"/>
<path fill-rule="evenodd" clip-rule="evenodd" d="M278.368 351.046C278.368 335.326 269.981 320.8 256.368 312.941L200.818 280.869L256.368 312.941C269.981 320.8 286.754 320.8 300.368 312.941L355.917 280.869L300.368 312.941C286.754 320.8 278.368 335.326 278.368 351.046L278.368 415.189L278.368 351.046Z" stroke="black" stroke-width="0.6"/>
<path fill-rule="evenodd" clip-rule="evenodd" d="M-73.5795 351.046C-73.5795 335.326 -81.9659 320.8 -95.5795 312.941L-151.129 280.869L-95.5795 312.941C-81.9658 320.8 -65.1932 320.8 -51.5795 312.941L3.97012 280.869L-51.5795 312.941C-65.1932 320.8 -73.5795 335.326 -73.5795 351.046L-73.5795 415.189L-73.5795 351.046Z" stroke="black" stroke-width="0.6"/>
<path fill-rule="evenodd" clip-rule="evenodd" d="M395.155 351.046C395.155 335.326 386.769 320.8 373.155 312.941L317.605 280.869L373.155 312.941C386.769 320.8 403.541 320.8 417.155 312.941L472.704 280.869L417.155 312.941C403.541 320.8 395.155 335.326 395.155 351.046L395.155 415.189L395.155 351.046Z" stroke="black" stroke-width="0.6"/>
<path fill-rule="evenodd" clip-rule="evenodd" d="M7.61014 349.554C-6.00351 341.694 -22.7762 341.694 -36.3898 349.554L-91.9395 381.626L-36.3898 349.554C-22.7762 341.694 -14.3898 327.169 -14.3898 311.449V247.306V311.449C-14.3898 327.169 -6.0035 341.694 7.61015 349.554L63.1598 381.626L7.61014 349.554Z" stroke="black" stroke-width="0.6"/>
<path fill-rule="evenodd" clip-rule="evenodd" d="M476.348 349.554C462.735 341.694 445.962 341.694 432.348 349.554L376.799 381.626L432.348 349.554C445.962 341.694 454.348 327.169 454.348 311.449V247.306V311.449C454.348 327.169 462.735 341.694 476.348 349.554L531.898 381.626L476.348 349.554Z" stroke="black" stroke-width="0.6"/>
<path fill-rule="evenodd" clip-rule="evenodd" d="M124.397 349.554C110.784 341.694 94.0109 341.694 80.3973 349.554L24.8477 381.626L80.3973 349.554C94.0109 341.694 102.397 327.169 102.397 311.449V247.306V311.449C102.397 327.169 110.784 341.694 124.397 349.554L179.947 381.626L124.397 349.554Z" stroke="black" stroke-width="0.6"/>
<path fill-rule="evenodd" clip-rule="evenodd" d="M593.128 349.554C579.514 341.694 562.741 341.694 549.128 349.554L493.578 381.626L549.128 349.554C562.741 341.694 571.128 327.169 571.128 311.449V247.306V311.449C571.128 327.169 579.514 341.694 593.128 349.554L648.677 381.626L593.128 349.554Z" stroke="black" stroke-width="0.6"/>
<path fill-rule="evenodd" clip-rule="evenodd" d="M44.8033 351.046C44.8033 335.326 36.417 320.8 22.8033 312.941L-32.7463 280.869L22.8033 312.941C36.417 320.8 53.1897 320.8 66.8033 312.941L122.353 280.869L66.8033 312.941C53.1896 320.8 44.8033 335.326 44.8033 351.046L44.8033 415.189L44.8033 351.046Z" stroke="black" stroke-width="0.6"/>
<path fill-rule="evenodd" clip-rule="evenodd" d="M513.538 351.046C513.538 335.326 505.151 320.8 491.538 312.941L435.988 280.869L491.538 312.941C505.151 320.8 521.924 320.8 535.538 312.941L591.087 280.869L535.538 312.941C521.924 320.8 513.538 335.326 513.538 351.046L513.538 415.189L513.538 351.046Z" stroke="black" stroke-width="0.6"/>
<path fill-rule="evenodd" clip-rule="evenodd" d="M161.59 351.046C161.59 335.326 153.204 320.8 139.59 312.941L84.0408 280.869L139.59 312.941C153.204 320.8 169.977 320.8 183.59 312.941L239.14 280.869L183.59 312.941C169.977 320.8 161.59 335.326 161.59 351.046L161.59 415.189L161.59 351.046Z" stroke="black" stroke-width="0.6"/>
<path fill-rule="evenodd" clip-rule="evenodd" d="M630.889 351.046C630.889 335.326 622.503 320.8 608.889 312.941L553.34 280.869L608.889 312.941C622.503 320.8 639.276 320.8 652.889 312.941L708.439 280.869L652.889 312.941C639.276 320.8 630.889 335.326 630.889 351.046L630.889 415.189L630.889 351.046Z" stroke="black" stroke-width="0.6"/>
<path fill-rule="evenodd" clip-rule="evenodd" d="M278.368 459.831C278.368 444.111 269.981 429.586 256.368 421.726L200.818 389.654L256.368 421.726C269.981 429.586 286.754 429.586 300.368 421.726L355.917 389.654L300.368 421.726C286.754 429.586 278.368 444.111 278.368 459.831L278.368 523.974L278.368 459.831Z" stroke="black" stroke-width="0.6"/>
<path fill-rule="evenodd" clip-rule="evenodd" d="M-73.5795 459.831C-73.5795 444.111 -81.9659 429.586 -95.5795 421.726L-151.129 389.654L-95.5795 421.726C-81.9658 429.586 -65.1932 429.586 -51.5795 421.726L3.97012 389.654L-51.5795 421.726C-65.1932 429.586 -73.5795 444.111 -73.5795 459.831L-73.5795 523.974L-73.5795 459.831Z" stroke="black" stroke-width="0.6"/>
<path fill-rule="evenodd" clip-rule="evenodd" d="M395.155 459.831C395.155 444.111 386.769 429.586 373.155 421.726L317.605 389.654L373.155 421.726C386.769 429.586 403.541 429.586 417.155 421.726L472.704 389.654L417.155 421.726C403.541 429.586 395.155 444.111 395.155 459.831L395.155 523.974L395.155 459.831Z" stroke="black" stroke-width="0.6"/>
<path fill-rule="evenodd" clip-rule="evenodd" d="M44.8033 459.831C44.8033 444.111 36.417 429.586 22.8033 421.726L-32.7463 389.654L22.8033 421.726C36.417 429.586 53.1897 429.586 66.8033 421.726L122.353 389.654L66.8033 421.726C53.1896 429.586 44.8033 444.111 44.8033 459.831L44.8033 523.974L44.8033 459.831Z" stroke="black" stroke-width="0.6"/>
<path fill-rule="evenodd" clip-rule="evenodd" d="M513.538 459.831C513.538 444.111 505.151 429.586 491.538 421.726L435.988 389.654L491.538 421.726C505.151 429.586 521.924 429.586 535.538 421.726L591.087 389.654L535.538 421.726C521.924 429.586 513.538 444.111 513.538 459.831L513.538 523.974L513.538 459.831Z" stroke="black" stroke-width="0.6"/>
<path fill-rule="evenodd" clip-rule="evenodd" d="M161.59 459.831C161.59 444.111 153.204 429.586 139.59 421.726L84.0408 389.654L139.59 421.726C153.204 429.586 169.977 429.586 183.59 421.726L239.14 389.654L183.59 421.726C169.977 429.586 161.59 444.111 161.59 459.831L161.59 523.974L161.59 459.831Z" stroke="black" stroke-width="0.6"/>
<path fill-rule="evenodd" clip-rule="evenodd" d="M630.889 459.831C630.889 444.111 622.503 429.586 608.889 421.726L553.34 389.654L608.889 421.726C622.503 429.586 639.276 429.586 652.889 421.726L708.439 389.654L652.889 421.726C639.276 429.586 630.889 444.111 630.889 459.831L630.889 523.974L630.889 459.831Z" stroke="black" stroke-width="0.6"/>
</g>
<path fill-rule="evenodd" clip-rule="evenodd" d="M269.031 107.101L275.73 111.022C281.476 114.384 288.553 114.383 294.297 111.019L312.447 100.388L312.454 78.6289L289.188 92.2556C286.603 93.7696 283.419 93.7702 280.833 92.257L271.67 86.894L269.031 107.101ZM277.671 138.277L277.674 146.123L259.104 153.908L259.101 143.176C259.1 140.148 257.507 137.35 254.922 135.836L231.656 122.21L250.235 111.336L268.385 121.966C274.13 125.331 277.669 131.548 277.671 138.277ZM306.574 119L322.505 131.421L313.345 136.79C310.761 138.305 309.169 141.103 309.169 144.131V171.385L290.597 160.499V139.238C290.597 132.509 294.134 126.291 299.878 122.925L306.574 119Z" fill="url(#paint0_linear)"/>
<path fill-rule="evenodd" clip-rule="evenodd" d="M280.235 91.8476C280.194 91.8235 280.153 91.7993 280.113 91.7751L256.576 78L256.569 99.7474L276.342 111.32C281.704 114.458 288.31 114.457 293.671 111.317L312.44 100.324C301.478 100.632 291.033 97.9739 281.105 92.3489C281.011 92.2987 280.918 92.2466 280.826 92.1926L280.53 92.0196C280.432 91.9626 280.333 91.9052 280.235 91.8476ZM259.093 143.819L259.093 143.803C259.093 143.688 259.093 143.573 259.092 143.458L259.092 143.112C259.092 143.004 259.09 142.896 259.086 142.788C258.924 131.253 255.97 120.748 250.227 111.272L268.995 122.264C274.357 125.405 277.66 131.207 277.662 137.488L277.67 160.645L259.101 171.513L259.092 143.947C259.093 143.905 259.093 143.862 259.093 143.819ZM314.049 136.308C314.008 136.332 313.967 136.355 313.926 136.38C313.828 136.437 313.73 136.495 313.632 136.553L313.336 136.726C313.244 136.78 313.153 136.836 313.063 136.893C303.297 142.803 295.806 150.65 290.588 160.435V138.449C290.588 132.169 293.889 126.365 299.25 123.223L319.015 111.638L337.577 122.518L314.049 136.308Z" fill="url(#paint1_linear)"/>
<path fill-rule="evenodd" clip-rule="evenodd" d="M201.021 197.026L175.864 240.694H201.817V245.323H167.932V245.056L193.229 201.388H169.056V196.759H201.036V197.026H201.021ZM234.094 228.537V230.521H208.672C208.875 237.529 212.935 241.812 220.134 241.812C224.975 241.812 228.254 239.56 230.034 237.119L233.376 239.954C230.299 243.781 225.974 245.969 220.134 245.969C209.906 245.969 203.878 238.773 203.878 228.852C203.878 218.947 210.171 211.609 219.337 211.609C228.925 211.625 234.094 219.168 234.094 228.537ZM229.379 226.568H208.673C209.001 220.159 213.201 215.86 219.354 215.86C225.506 215.86 229.176 220.222 229.379 226.568ZM268.261 225.576V245.339H263.482V225.843C263.482 220.159 260.078 216.269 254.831 216.269C250.443 216.269 247.617 218.71 245.134 222.017V245.339H240.356V212.301H244.744L244.869 216.726C246.899 214.285 250.506 211.639 255.815 211.639C263.67 211.624 268.261 217.245 268.261 225.576ZM284.251 201.326H301.74V196.775H261.78V201.326H279.269V245.324H284.251V201.326ZM314.075 216.458H313.623C309.422 216.458 306.736 218.773 304.378 222.332V245.323H299.6V212.285H303.988L304.191 216.978C305.83 214.332 309.11 211.624 314.091 211.624V216.458H314.075ZM341.138 245.323H345.526V212.301H340.81V235.686C338.327 238.993 335.704 241.433 331.051 241.433C326.194 241.433 323.118 237.591 323.118 232.048V212.285H318.34V232.237C318.34 240.441 322.603 245.984 330.004 245.984C335.579 245.984 338.921 243.465 341.013 240.961L341.138 245.323ZM374.538 215.261L372.446 218.962C370.291 217.309 367.668 215.986 364.06 215.986C359.938 215.986 357.112 217.435 357.112 220.946C357.112 224.111 359.345 225.04 364.904 226.363C372.508 228.206 375.975 231.056 375.975 236.016C375.975 242.032 371.056 246 363.529 246C358.548 246 354.285 244.473 351.349 242.032L353.582 238.126C356.143 240.3 359.548 241.701 363.545 241.701C367.995 241.701 371.212 239.922 371.212 236.284C371.212 233.119 368.792 231.859 363.217 230.536C355.612 228.82 352.411 226.3 352.411 221.214C352.411 215.135 357.002 211.64 364.014 211.64C368.308 211.624 371.977 213.151 374.538 215.261ZM400.709 212.285H389.903V201.042H385.187V212.269H378.504V216.505H385.187V234.945C385.187 242.221 389.387 245.984 395.805 245.984C398.882 245.984 401.115 245.197 402.551 244.268L401.052 240.504C400.068 241.103 398.429 241.559 396.133 241.559C392.464 241.559 389.903 239.244 389.903 234.883V216.521H400.709V212.285Z" fill="#3D3D3D"/>
</g>
<defs>
<linearGradient id="paint0_linear" x1="343.026" y1="145.045" x2="294.644" y2="76.588" gradientUnits="userSpaceOnUse">
<stop stop-color="#FF5DAF"/>
<stop offset="0.518359" stop-color="#C4A0FF"/>
<stop offset="1" stop-color="#7D93F3"/>
</linearGradient>
<linearGradient id="paint1_linear" x1="221.496" y1="102.024" x2="270.802" y2="173.059" gradientUnits="userSpaceOnUse">
<stop stop-color="#12FFE8"/>
<stop offset="0.653061" stop-color="#6B8CFA"/>
<stop offset="1" stop-color="#B851FF"/>
</linearGradient>
<clipPath id="clip0">
<rect width="563" height="333" fill="white"/>
</clipPath>
</defs>
</svg>
