<svg width="1045" height="345" viewBox="0 0 1045 345" fill="none" xmlns="http://www.w3.org/2000/svg">
<circle cx="42.4751" cy="302.38" r="42.312" fill="url(#paint0_linear)"/>
<circle cx="162.506" cy="302.38" r="42.312" fill="url(#paint1_linear)"/>
<circle cx="282.533" cy="302.38" r="42.312" fill="#294859"/>
<circle cx="402.558" cy="302.38" r="42.312" fill="#657884"/>
<circle cx="522.584" cy="302.38" r="42.312" fill="#DEE5EA"/>
<circle cx="42.4751" cy="97.2036" r="42.312" fill="url(#paint2_linear)"/>
<circle cx="162.506" cy="97.2036" r="42.312" fill="url(#paint3_linear)"/>
<circle opacity="0.9" cx="282.533" cy="97.2036" r="42.312" fill="url(#paint4_linear)"/>
<circle cx="402.558" cy="97.2036" r="42.312" fill="url(#paint5_linear)"/>
<circle cx="522.584" cy="97.2036" r="42.312" fill="url(#paint6_linear)"/>
<circle opacity="0.5" cx="642.61" cy="97.2036" r="42.312" fill="url(#paint7_linear)"/>
<circle cx="762.636" cy="97.2036" r="42.312" fill="url(#paint8_linear)"/>
<circle opacity="0.9" cx="882.662" cy="97.2036" r="42.312" fill="url(#paint9_linear)"/>
<circle cx="1002.69" cy="97.2036" r="42.312" fill="url(#paint10_linear)"/>
<path d="M6.02946 19.2344V6.48348H8.73314V19.2344H6.02946ZM11.4068 19.2344V6.48348H14.1105V17.0017H19.2824V19.2344H11.4068ZM20.9705 19.2344V6.48348H23.6742V17.0017H28.8461V19.2344H20.9705ZM30.447 14.6992V6.48348H33.142V14.2893C33.142 15.2719 33.3396 15.9929 33.735 16.4522C34.1304 16.9115 34.7845 17.1412 35.6974 17.1412C36.5812 17.1412 37.2207 16.9115 37.6161 16.4522C38.0173 15.9871 38.2179 15.2603 38.2179 14.2718V6.48348H40.9129V14.7341C40.9129 15.676 40.7006 16.5016 40.2762 17.211C39.8575 17.9203 39.2499 18.464 38.4534 18.8419C37.6568 19.2198 36.7149 19.4088 35.6276 19.4088C33.9879 19.4088 32.7146 18.9902 31.8076 18.1529C30.9005 17.3098 30.447 16.1586 30.447 14.6992ZM42.7144 18.6413V16.1295C43.5749 16.5133 44.3017 16.7836 44.8948 16.9406C45.4936 17.0976 46.0402 17.1761 46.5344 17.1761C47.1275 17.1761 47.581 17.0627 47.895 16.836C48.2148 16.6092 48.3747 16.272 48.3747 15.8243C48.3747 15.5742 48.3049 15.3533 48.1653 15.1614C48.0258 14.9637 47.8194 14.7748 47.5461 14.5945C47.2787 14.4143 46.7292 14.1265 45.8977 13.7311C45.1186 13.3648 44.5343 13.013 44.1447 12.6758C43.7551 12.3385 43.4441 11.9461 43.2115 11.4984C42.9789 11.0507 42.8626 10.5274 42.8626 9.92849C42.8626 8.8005 43.2435 7.91381 44.0052 7.26841C44.7727 6.62302 45.8309 6.30032 47.1798 6.30032C47.8426 6.30032 48.4735 6.37882 49.0724 6.5358C49.6771 6.69279 50.3079 6.91374 50.965 7.19864L50.0928 9.30053C49.4125 9.02145 48.8485 8.82666 48.4008 8.71619C47.9589 8.60572 47.5229 8.55048 47.0926 8.55048C46.5809 8.55048 46.1885 8.66968 45.9152 8.90807C45.6419 9.14645 45.5053 9.45752 45.5053 9.84127C45.5053 10.0797 45.5605 10.289 45.671 10.4692C45.7815 10.6437 45.9559 10.8152 46.1943 10.9838C46.4385 11.1466 47.0112 11.4431 47.9124 11.8734C49.1044 12.4432 49.9213 13.0159 50.3632 13.5915C50.8051 14.1613 51.026 14.862 51.026 15.6934C51.026 16.8447 50.6103 17.7517 49.7788 18.4145C48.9532 19.0774 47.8019 19.4088 46.3251 19.4088C44.9645 19.4088 43.761 19.153 42.7144 18.6413ZM51.5542 8.73363V6.48348H61.1828V8.73363H57.7203V19.2344H55.0166V8.73363H51.5542ZM62.6093 19.2344V6.48348H66.3246C68.0573 6.48348 69.3394 6.80036 70.1708 7.43412C71.0023 8.06208 71.418 9.01854 71.418 10.3035C71.418 11.0536 71.2116 11.7222 70.7988 12.3095C70.386 12.8909 69.8016 13.3473 69.0458 13.6788C70.9645 16.5452 72.2146 18.3971 72.796 19.2344H69.7958L66.752 14.3416H65.3129V19.2344H62.6093ZM65.3129 12.1438H66.1851C67.0398 12.1438 67.6707 12.0013 68.0777 11.7164C68.4847 11.4315 68.6882 10.9838 68.6882 10.3733C68.6882 9.76859 68.4789 9.33833 68.0602 9.0825C67.6474 8.82666 67.0049 8.69875 66.1328 8.69875H65.3129V12.1438ZM72.2602 19.2344L76.7605 6.43115H80.066L84.5837 19.2344H81.6707L80.7462 16.1993H76.0977L75.1732 19.2344H72.2602ZM76.7779 13.9317H80.1008C79.2461 11.1815 78.7635 9.62614 78.6531 9.26565C78.5484 8.90516 78.4728 8.62025 78.4263 8.41094C78.2344 9.15518 77.685 10.9954 76.7779 13.9317ZM84.4142 8.73363V6.48348H94.0428V8.73363H90.5803V19.2344H87.8766V8.73363H84.4142ZM95.4693 19.2344V6.48348H98.1729V19.2344H95.4693ZM100.28 12.824C100.28 10.7018 100.803 9.0825 101.85 7.96614C102.902 6.84397 104.408 6.28288 106.367 6.28288C108.327 6.28288 109.824 6.84687 110.859 7.97486C111.9 9.10285 112.42 10.7251 112.42 12.8415C112.42 14.9521 111.897 16.5743 110.85 17.7081C109.804 18.8419 108.304 19.4088 106.35 19.4088C104.396 19.4088 102.896 18.8419 101.85 17.7081C100.803 16.5743 100.28 14.9463 100.28 12.824ZM103.114 12.8415C103.114 14.266 103.385 15.3388 103.925 16.0597C104.466 16.7807 105.274 17.1412 106.35 17.1412C108.507 17.1412 109.586 15.708 109.586 12.8415C109.586 9.96919 108.513 8.53304 106.367 8.53304C105.292 8.53304 104.481 8.89644 103.934 9.62323C103.387 10.3442 103.114 11.417 103.114 12.8415ZM114.527 19.2344V6.48348H117.937L123.475 16.0336H123.536C123.449 14.3765 123.405 13.2049 123.405 12.5188V6.48348H125.839V19.2344H122.402L116.856 9.58835H116.777C116.888 11.292 116.943 12.5072 116.943 13.234V19.2344H114.527ZM132.058 12.8764C132.058 11.5507 132.3 10.3907 132.782 9.39647C133.265 8.3964 133.957 7.63181 134.858 7.10271C135.765 6.56778 136.826 6.30032 138.041 6.30032C139.28 6.30032 140.524 6.59976 141.774 7.19864L140.902 9.39647C140.425 9.16971 139.945 8.97202 139.463 8.80341C138.98 8.63479 138.506 8.55048 138.041 8.55048C137.024 8.55048 136.236 8.93423 135.678 9.70173C135.119 10.4634 134.84 11.5274 134.84 12.8938C134.84 15.737 135.907 17.1586 138.041 17.1586C138.937 17.1586 140.021 16.9348 141.294 16.4871V18.7547C140.248 19.1908 139.079 19.4088 137.788 19.4088C135.934 19.4088 134.515 18.8477 133.532 17.7255C132.55 16.5976 132.058 14.9812 132.058 12.8764ZM142.913 12.824C142.913 10.7018 143.436 9.0825 144.483 7.96614C145.535 6.84397 147.041 6.28288 149 6.28288C150.96 6.28288 152.457 6.84687 153.492 7.97486C154.533 9.10285 155.053 10.7251 155.053 12.8415C155.053 14.9521 154.53 16.5743 153.483 17.7081C152.437 18.8419 150.937 19.4088 148.983 19.4088C147.029 19.4088 145.529 18.8419 144.483 17.7081C143.436 16.5743 142.913 14.9463 142.913 12.824ZM145.747 12.8415C145.747 14.266 146.018 15.3388 146.558 16.0597C147.099 16.7807 147.907 17.1412 148.983 17.1412C151.14 17.1412 152.219 15.708 152.219 12.8415C152.219 9.96919 151.146 8.53304 149 8.53304C147.925 8.53304 147.114 8.89644 146.567 9.62323C146.021 10.3442 145.747 11.417 145.747 12.8415ZM157.16 19.2344V6.48348H159.864V17.0017H165.035V19.2344H157.16ZM166.157 12.824C166.157 10.7018 166.68 9.0825 167.727 7.96614C168.779 6.84397 170.285 6.28288 172.244 6.28288C174.204 6.28288 175.701 6.84687 176.736 7.97486C177.777 9.10285 178.297 10.7251 178.297 12.8415C178.297 14.9521 177.774 16.5743 176.727 17.7081C175.681 18.8419 174.181 19.4088 172.227 19.4088C170.273 19.4088 168.773 18.8419 167.727 17.7081C166.68 16.5743 166.157 14.9463 166.157 12.824ZM168.991 12.8415C168.991 14.266 169.262 15.3388 169.802 16.0597C170.343 16.7807 171.151 17.1412 172.227 17.1412C174.384 17.1412 175.463 15.708 175.463 12.8415C175.463 9.96919 174.39 8.53304 172.244 8.53304C171.169 8.53304 170.358 8.89644 169.811 9.62323C169.264 10.3442 168.991 11.417 168.991 12.8415ZM180.404 19.2344V6.48348H184.119C185.852 6.48348 187.134 6.80036 187.965 7.43412C188.797 8.06208 189.213 9.01854 189.213 10.3035C189.213 11.0536 189.006 11.7222 188.593 12.3095C188.181 12.8909 187.596 13.3473 186.84 13.6788C188.759 16.5452 190.009 18.3971 190.591 19.2344H187.59L184.547 14.3416H183.108V19.2344H180.404ZM183.108 12.1438H183.98C184.834 12.1438 185.465 12.0013 185.872 11.7164C186.279 11.4315 186.483 10.9838 186.483 10.3733C186.483 9.76859 186.273 9.33833 185.855 9.0825C185.442 8.82666 184.8 8.69875 183.927 8.69875H183.108V12.1438ZM190.875 18.6413V16.1295C191.735 16.5133 192.462 16.7836 193.055 16.9406C193.654 17.0976 194.2 17.1761 194.695 17.1761C195.288 17.1761 195.741 17.0627 196.055 16.836C196.375 16.6092 196.535 16.272 196.535 15.8243C196.535 15.5742 196.465 15.3533 196.326 15.1614C196.186 14.9637 195.98 14.7748 195.706 14.5945C195.439 14.4143 194.889 14.1265 194.058 13.7311C193.279 13.3648 192.694 13.013 192.305 12.6758C191.915 12.3385 191.604 11.9461 191.372 11.4984C191.139 11.0507 191.023 10.5274 191.023 9.92849C191.023 8.8005 191.404 7.91381 192.165 7.26841C192.933 6.62302 193.991 6.30032 195.34 6.30032C196.003 6.30032 196.634 6.37882 197.233 6.5358C197.837 6.69279 198.468 6.91374 199.125 7.19864L198.253 9.30053C197.573 9.02145 197.009 8.82666 196.561 8.71619C196.119 8.60572 195.683 8.55048 195.253 8.55048C194.741 8.55048 194.349 8.66968 194.075 8.90807C193.802 9.14645 193.665 9.45752 193.665 9.84127C193.665 10.0797 193.721 10.289 193.831 10.4692C193.942 10.6437 194.116 10.8152 194.354 10.9838C194.599 11.1466 195.171 11.4431 196.073 11.8734C197.265 12.4432 198.081 13.0159 198.523 13.5915C198.965 14.1613 199.186 14.862 199.186 15.6934C199.186 16.8447 198.77 17.7517 197.939 18.4145C197.113 19.0774 195.962 19.4088 194.485 19.4088C193.125 19.4088 191.921 19.153 190.875 18.6413Z" fill="#657884"/>
<path d="M4.39551 211.847H7.05558L8.68651 218.807C8.97141 220.092 9.17782 221.205 9.30574 222.147C9.34062 221.815 9.41912 221.304 9.54122 220.612C9.66914 219.914 9.78833 219.373 9.8988 218.99L11.7565 211.847H14.3119L16.1696 218.99C16.251 219.309 16.3527 219.798 16.4748 220.455C16.5969 221.112 16.69 221.676 16.7539 222.147C16.8121 221.693 16.9051 221.129 17.033 220.455C17.1609 219.775 17.2772 219.225 17.3819 218.807L19.0041 211.847H21.6642L18.4198 224.598H15.341L13.6142 217.9C13.5502 217.661 13.4398 217.17 13.2828 216.426C13.1316 215.676 13.0444 215.173 13.0211 214.917C12.9862 215.231 12.899 215.737 12.7595 216.434C12.6199 217.126 12.5124 217.62 12.4368 217.917L10.7186 224.598H7.64864L4.39551 211.847ZM22.7331 224.598V211.847H30.0766V214.062H25.4368V216.862H29.7539V219.077H25.4368V222.365H30.0766V224.598H22.7331ZM32.2096 224.598V211.847H36.1779C37.9861 211.847 39.2973 212.105 40.1113 212.623C40.9311 213.135 41.341 213.952 41.341 215.074C41.341 215.835 41.1608 216.46 40.8003 216.949C40.4456 217.437 39.9717 217.731 39.3787 217.83V217.917C40.1869 218.097 40.7683 218.434 41.123 218.929C41.4835 219.423 41.6637 220.08 41.6637 220.9C41.6637 222.063 41.2422 222.97 40.3991 223.621C39.5618 224.272 38.4222 224.598 36.9802 224.598H32.2096ZM34.9132 222.365H36.675C37.4192 222.365 37.9687 222.222 38.3234 221.938C38.678 221.653 38.8554 221.217 38.8554 220.629C38.8554 219.571 38.0995 219.042 36.5878 219.042H34.9132V222.365ZM34.9132 216.897H36.4831C37.2157 216.897 37.7448 216.783 38.0704 216.556C38.4019 216.33 38.5676 215.955 38.5676 215.431C38.5676 214.943 38.3873 214.594 38.0268 214.385C37.6722 214.17 37.1082 214.062 36.3349 214.062H34.9132V216.897ZM42.8896 224.005V221.493C43.7501 221.877 44.4769 222.147 45.07 222.304C45.6689 222.461 46.2154 222.539 46.7097 222.539C47.3027 222.539 47.7562 222.426 48.0702 222.199C48.39 221.972 48.5499 221.635 48.5499 221.188C48.5499 220.938 48.4801 220.717 48.3406 220.525C48.201 220.327 47.9946 220.138 47.7214 219.958C47.4539 219.778 46.9044 219.49 46.073 219.094C45.2939 218.728 44.7095 218.376 44.32 218.039C43.9304 217.702 43.6193 217.309 43.3867 216.862C43.1542 216.414 43.0379 215.891 43.0379 215.292C43.0379 214.164 43.4187 213.277 44.1804 212.632C44.9479 211.986 46.0061 211.664 47.3551 211.664C48.0179 211.664 48.6487 211.742 49.2476 211.899C49.8523 212.056 50.4832 212.277 51.1402 212.562L50.268 214.664C49.5878 214.385 49.0238 214.19 48.5761 214.079C48.1342 213.969 47.6981 213.914 47.2678 213.914C46.7562 213.914 46.3637 214.033 46.0904 214.271C45.8172 214.51 45.6805 214.821 45.6805 215.205C45.6805 215.443 45.7357 215.652 45.8462 215.833C45.9567 216.007 46.1311 216.178 46.3695 216.347C46.6137 216.51 47.1864 216.806 48.0877 217.237C49.2796 217.806 50.0965 218.379 50.5384 218.955C50.9803 219.525 51.2013 220.225 51.2013 221.057C51.2013 222.208 50.7855 223.115 49.9541 223.778C49.1284 224.441 47.9772 224.772 46.5003 224.772C45.1398 224.772 43.9362 224.516 42.8896 224.005ZM52.9766 224.598V211.847H55.6803V224.598H52.9766ZM57.1068 214.097V211.847H66.7354V214.097H63.2729V224.598H60.5692V214.097H57.1068ZM68.1619 224.598V211.847H75.5054V214.062H70.8655V216.862H75.1827V219.077H70.8655V222.365H75.5054V224.598H68.1619ZM81.1755 218.24C81.1755 216.914 81.4168 215.754 81.8993 214.76C82.3819 213.76 83.0738 212.995 83.9751 212.466C84.8821 211.931 85.9432 211.664 87.1584 211.664C88.3969 211.664 89.6412 211.963 90.8913 212.562L90.0191 214.76C89.5423 214.533 89.0626 214.335 88.5801 214.167C88.0975 213.998 87.6236 213.914 87.1584 213.914C86.1409 213.914 85.3531 214.298 84.7949 215.065C84.2367 215.827 83.9576 216.891 83.9576 218.257C83.9576 221.1 85.0246 222.522 87.1584 222.522C88.0539 222.522 89.1382 222.298 90.4116 221.85V224.118C89.365 224.554 88.1963 224.772 86.9055 224.772C85.0507 224.772 83.632 224.211 82.6494 223.089C81.6668 221.961 81.1755 220.344 81.1755 218.24ZM92.0299 218.187C92.0299 216.065 92.5532 214.446 93.5998 213.329C94.6522 212.207 96.1581 211.646 98.1176 211.646C100.077 211.646 101.574 212.21 102.609 213.338C103.65 214.466 104.17 216.088 104.17 218.205C104.17 220.315 103.647 221.938 102.6 223.071C101.554 224.205 100.054 224.772 98.1001 224.772C96.1465 224.772 94.6464 224.205 93.5998 223.071C92.5532 221.938 92.0299 220.31 92.0299 218.187ZM94.8644 218.205C94.8644 219.629 95.1348 220.702 95.6756 221.423C96.2163 222.144 97.0245 222.504 98.1001 222.504C100.257 222.504 101.336 221.071 101.336 218.205C101.336 215.332 100.263 213.896 98.1176 213.896C97.0419 213.896 96.2308 214.26 95.6843 214.987C95.1377 215.707 94.8644 216.78 94.8644 218.205ZM106.277 224.598V211.847H108.981V222.365H114.153V224.598H106.277ZM115.274 218.187C115.274 216.065 115.797 214.446 116.844 213.329C117.896 212.207 119.402 211.646 121.362 211.646C123.321 211.646 124.818 212.21 125.853 213.338C126.894 214.466 127.414 216.088 127.414 218.205C127.414 220.315 126.891 221.938 125.844 223.071C124.798 224.205 123.298 224.772 121.344 224.772C119.39 224.772 117.89 224.205 116.844 223.071C115.797 221.938 115.274 220.31 115.274 218.187ZM118.108 218.205C118.108 219.629 118.379 220.702 118.92 221.423C119.46 222.144 120.268 222.504 121.344 222.504C123.501 222.504 124.58 221.071 124.58 218.205C124.58 215.332 123.507 213.896 121.362 213.896C120.286 213.896 119.475 214.26 118.928 214.987C118.382 215.707 118.108 216.78 118.108 218.205ZM129.521 224.598V211.847H133.236C134.969 211.847 136.251 212.164 137.083 212.797C137.914 213.425 138.33 214.382 138.33 215.667C138.33 216.417 138.123 217.085 137.711 217.673C137.298 218.254 136.713 218.711 135.958 219.042C137.876 221.909 139.126 223.76 139.708 224.598H136.708L133.664 219.705H132.225V224.598H129.521ZM132.225 217.507H133.097C133.952 217.507 134.582 217.365 134.989 217.08C135.396 216.795 135.6 216.347 135.6 215.737C135.6 215.132 135.391 214.702 134.972 214.446C134.559 214.19 133.917 214.062 133.045 214.062H132.225V217.507ZM139.992 224.005V221.493C140.852 221.877 141.579 222.147 142.172 222.304C142.771 222.461 143.318 222.539 143.812 222.539C144.405 222.539 144.858 222.426 145.172 222.199C145.492 221.972 145.652 221.635 145.652 221.188C145.652 220.938 145.582 220.717 145.443 220.525C145.303 220.327 145.097 220.138 144.824 219.958C144.556 219.778 144.007 219.49 143.175 219.094C142.396 218.728 141.812 218.376 141.422 218.039C141.033 217.702 140.722 217.309 140.489 216.862C140.256 216.414 140.14 215.891 140.14 215.292C140.14 214.164 140.521 213.277 141.283 212.632C142.05 211.986 143.108 211.664 144.457 211.664C145.12 211.664 145.751 211.742 146.35 211.899C146.955 212.056 147.585 212.277 148.242 212.562L147.37 214.664C146.69 214.385 146.126 214.19 145.678 214.079C145.236 213.969 144.8 213.914 144.37 213.914C143.858 213.914 143.466 214.033 143.193 214.271C142.919 214.51 142.783 214.821 142.783 215.205C142.783 215.443 142.838 215.652 142.948 215.833C143.059 216.007 143.233 216.178 143.472 216.347C143.716 216.51 144.289 216.806 145.19 217.237C146.382 217.806 147.199 218.379 147.641 218.955C148.083 219.525 148.303 220.225 148.303 221.057C148.303 222.208 147.888 223.115 147.056 223.778C146.231 224.441 145.079 224.772 143.603 224.772C142.242 224.772 141.038 224.516 139.992 224.005Z" fill="#657884"/>
<defs>
<linearGradient id="paint0_linear" x1="0.163086" y1="260.068" x2="84.7872" y2="344.692" gradientUnits="userSpaceOnUse">
<stop stop-color="#7D57E1"/>
<stop offset="1" stop-color="#485FF2"/>
</linearGradient>
<linearGradient id="paint1_linear" x1="162.506" y1="387.004" x2="247.13" y2="302.38" gradientUnits="userSpaceOnUse">
<stop stop-color="#FE8C00"/>
<stop offset="1" stop-color="#F83600"/>
</linearGradient>
<linearGradient id="paint2_linear" x1="34.7337" y1="65.3102" x2="31.9889" y2="131.358" gradientUnits="userSpaceOnUse">
<stop stop-color="#C97DF0"/>
<stop offset="1" stop-color="#1F2C97"/>
</linearGradient>
<linearGradient id="paint3_linear" x1="162.506" y1="54.8916" x2="162.506" y2="139.516" gradientUnits="userSpaceOnUse">
<stop stop-color="#FB7070"/>
<stop offset="1" stop-color="#C96EDE"/>
</linearGradient>
<linearGradient id="paint4_linear" x1="256.831" y1="59.3172" x2="338.149" y2="174.874" gradientUnits="userSpaceOnUse">
<stop stop-color="#FFF3A1"/>
<stop offset="1" stop-color="#FF681F"/>
</linearGradient>
<linearGradient id="paint5_linear" x1="402.558" y1="134.389" x2="413.088" y2="60.3392" gradientUnits="userSpaceOnUse">
<stop offset="0.00487805" stop-color="#7EE9D9"/>
<stop offset="1" stop-color="#55CCDF"/>
</linearGradient>
<linearGradient id="paint6_linear" x1="540.841" y1="59.0261" x2="509.618" y2="134.125" gradientUnits="userSpaceOnUse">
<stop stop-color="#0E3DC7"/>
<stop offset="1" stop-color="#A66FE3"/>
</linearGradient>
<linearGradient id="paint7_linear" x1="638.833" y1="80.7012" x2="637.429" y2="55.2096" gradientUnits="userSpaceOnUse">
<stop offset="0.00487805" stop-color="#CA7DF1"/>
<stop offset="1" stop-color="#80E6FB"/>
</linearGradient>
<linearGradient id="paint8_linear" x1="720.324" y1="34.8833" x2="900.414" y2="44.3793" gradientUnits="userSpaceOnUse">
<stop offset="0.0277757" stop-color="#FFC169"/>
<stop offset="0.374358" stop-color="#C67BF0"/>
<stop offset="0.9946" stop-color="#1321CB"/>
</linearGradient>
<linearGradient id="paint9_linear" x1="870.053" y1="8.68312" x2="915.54" y2="84.6761" gradientUnits="userSpaceOnUse">
<stop offset="0.00487805" stop-color="#79E6DA"/>
<stop offset="1" stop-color="#B29FF5"/>
</linearGradient>
<linearGradient id="paint10_linear" x1="1002.53" y1="137.613" x2="1002.53" y2="83.8335" gradientUnits="userSpaceOnUse">
<stop stop-color="#FFFF87"/>
<stop offset="1" stop-color="#F15A24"/>
</linearGradient>
</defs>
</svg>
