<svg width="1032" height="576" viewBox="0 0 1032 576" fill="none" xmlns="http://www.w3.org/2000/svg">
<g filter="url(#filter0_d)">
<path fill-rule="evenodd" clip-rule="evenodd" d="M533.851 170.74C557.549 170.74 576.76 151.529 576.76 127.831C576.76 104.133 557.549 84.9219 533.851 84.9219C510.153 84.9219 490.941 104.133 490.941 127.831C490.941 151.529 510.153 170.74 533.851 170.74Z" fill="#2A3035"/>
<path d="M533.851 174.041C559.372 174.041 580.061 153.352 580.061 127.831C580.061 102.31 559.372 81.6212 533.851 81.6212C508.33 81.6212 487.641 102.31 487.641 127.831C487.641 153.352 508.33 174.041 533.851 174.041Z" stroke="white" stroke-width="6.60142"/>
</g>
<g filter="url(#filter1_d)">
<path fill-rule="evenodd" clip-rule="evenodd" d="M515.147 408.392C527.299 408.392 537.151 398.54 537.151 386.388C537.151 374.235 527.299 364.383 515.147 364.383C502.994 364.383 493.142 374.235 493.142 386.388C493.142 398.54 502.994 408.392 515.147 408.392Z" fill="#FFBD00"/>
<path d="M515.147 411.693C529.122 411.693 540.452 400.363 540.452 386.388C540.452 372.412 529.122 361.082 515.147 361.082C501.171 361.082 489.841 372.412 489.841 386.388C489.841 400.363 501.171 411.693 515.147 411.693Z" stroke="white" stroke-width="6.60142"/>
</g>
<g filter="url(#filter2_d)">
<path fill-rule="evenodd" clip-rule="evenodd" d="M603.166 408.391C615.319 408.391 625.171 398.539 625.171 386.387C625.171 374.234 615.319 364.382 603.166 364.382C591.013 364.382 581.161 374.234 581.161 386.387C581.161 398.539 591.013 408.391 603.166 408.391Z" fill="#FF681F"/>
<path d="M603.166 411.692C617.142 411.692 628.471 400.362 628.471 386.387C628.471 372.411 617.142 361.081 603.166 361.081C589.19 361.081 577.86 372.411 577.86 386.387C577.86 400.362 589.19 411.692 603.166 411.692Z" stroke="white" stroke-width="6.60142"/>
</g>
<g filter="url(#filter3_d)">
<path fill-rule="evenodd" clip-rule="evenodd" d="M692.285 408.391C704.438 408.391 714.29 398.539 714.29 386.387C714.29 374.234 704.438 364.382 692.285 364.382C680.132 364.382 670.28 374.234 670.28 386.387C670.28 398.539 680.132 408.391 692.285 408.391Z" fill="#CF7DF2"/>
<path d="M692.285 411.692C706.261 411.692 717.59 400.362 717.59 386.387C717.59 372.411 706.261 361.081 692.285 361.081C678.309 361.081 666.98 372.411 666.98 386.387C666.98 400.362 678.309 411.692 692.285 411.692Z" stroke="white" stroke-width="6.60142"/>
</g>
<g filter="url(#filter4_d)">
<path fill-rule="evenodd" clip-rule="evenodd" d="M782.504 408.391C794.657 408.391 804.509 398.539 804.509 386.387C804.509 374.234 794.657 364.382 782.504 364.382C770.352 364.382 760.5 374.234 760.5 386.387C760.5 398.539 770.352 408.391 782.504 408.391Z" fill="#19BC9C"/>
<path d="M782.504 411.692C796.48 411.692 807.81 400.362 807.81 386.387C807.81 372.411 796.48 361.081 782.504 361.081C768.529 361.081 757.199 372.411 757.199 386.387C757.199 400.362 768.529 411.692 782.504 411.692Z" stroke="white" stroke-width="6.60142"/>
</g>
<g filter="url(#filter5_d)">
<path fill-rule="evenodd" clip-rule="evenodd" d="M871.624 408.391C883.777 408.391 893.628 398.539 893.628 386.387C893.628 374.234 883.777 364.382 871.624 364.382C859.471 364.382 849.619 374.234 849.619 386.387C849.619 398.539 859.471 408.391 871.624 408.391Z" fill="#278FE6"/>
<path d="M871.624 411.692C885.599 411.692 896.929 400.362 896.929 386.387C896.929 372.411 885.599 361.081 871.624 361.081C857.648 361.081 846.318 372.411 846.318 386.387C846.318 400.362 857.648 411.692 871.624 411.692Z" stroke="white" stroke-width="6.60142"/>
</g>
<g filter="url(#filter6_d)">
<path fill-rule="evenodd" clip-rule="evenodd" d="M675.781 170.74C699.479 170.74 718.691 151.529 718.691 127.831C718.691 104.133 699.479 84.9219 675.781 84.9219C652.083 84.9219 632.872 104.133 632.872 127.831C632.872 151.529 652.083 170.74 675.781 170.74Z" fill="#4A5660"/>
<path d="M675.781 174.041C701.302 174.041 721.991 153.352 721.991 127.831C721.991 102.31 701.302 81.6212 675.781 81.6212C650.26 81.6212 629.571 102.31 629.571 127.831C629.571 153.352 650.26 174.041 675.781 174.041Z" stroke="white" stroke-width="6.60142"/>
</g>
<g filter="url(#filter7_d)">
<path fill-rule="evenodd" clip-rule="evenodd" d="M533.851 299.468C557.549 299.468 576.76 280.257 576.76 256.559C576.76 232.861 557.549 213.649 533.851 213.649C510.153 213.649 490.941 232.861 490.941 256.559C490.941 280.257 510.153 299.468 533.851 299.468Z" fill="#92989E"/>
<path d="M533.851 302.769C559.372 302.769 580.061 282.08 580.061 256.559C580.061 231.038 559.372 210.349 533.851 210.349C508.33 210.349 487.641 231.038 487.641 256.559C487.641 282.08 508.33 302.769 533.851 302.769Z" stroke="white" stroke-width="6.60142"/>
</g>
<g filter="url(#filter8_d)">
<path fill-rule="evenodd" clip-rule="evenodd" d="M675.781 299.468C699.479 299.468 718.691 280.257 718.691 256.559C718.691 232.861 699.479 213.649 675.781 213.649C652.083 213.649 632.872 232.861 632.872 256.559C632.872 280.257 652.083 299.468 675.781 299.468Z" fill="#B9BEC3"/>
<path d="M675.781 302.769C701.302 302.769 721.991 282.08 721.991 256.559C721.991 231.038 701.302 210.349 675.781 210.349C650.26 210.349 629.571 231.038 629.571 256.559C629.571 282.08 650.26 302.769 675.781 302.769Z" stroke="white" stroke-width="6.60142"/>
</g>
<g filter="url(#filter9_d)">
<path fill-rule="evenodd" clip-rule="evenodd" d="M815.511 168.54C839.209 168.54 858.421 149.329 858.421 125.631C858.421 101.933 839.209 82.7217 815.511 82.7217C791.813 82.7217 772.602 101.933 772.602 125.631C772.602 149.329 791.813 168.54 815.511 168.54Z" fill="#C9D2DA"/>
<path d="M815.511 171.841C841.032 171.841 861.721 151.152 861.721 125.631C861.721 100.11 841.032 79.421 815.511 79.421C789.99 79.421 769.301 100.11 769.301 125.631C769.301 151.152 789.99 171.841 815.511 171.841Z" stroke="white" stroke-width="6.60142"/>
</g>
<g filter="url(#filter10_d)">
<path fill-rule="evenodd" clip-rule="evenodd" d="M957.442 168.54C981.14 168.54 1000.35 149.329 1000.35 125.631C1000.35 101.933 981.14 82.7217 957.442 82.7217C933.744 82.7217 914.533 101.933 914.533 125.631C914.533 149.329 933.744 168.54 957.442 168.54Z" fill="#ECEFF1"/>
<path d="M957.442 171.841C982.963 171.841 1003.65 151.152 1003.65 125.631C1003.65 100.11 982.963 79.421 957.442 79.421C931.921 79.421 911.232 100.11 911.232 125.631C911.232 151.152 931.921 171.841 957.442 171.841Z" stroke="white" stroke-width="6.60142"/>
</g>
<g filter="url(#filter11_d)">
<path fill-rule="evenodd" clip-rule="evenodd" d="M816.611 295.067C840.309 295.067 859.521 275.856 859.521 252.158C859.521 228.46 840.309 209.249 816.611 209.249C792.913 209.249 773.702 228.46 773.702 252.158C773.702 275.856 792.913 295.067 816.611 295.067Z" fill="#F5F6F7"/>
<path d="M816.611 298.368C842.132 298.368 862.821 277.679 862.821 252.158C862.821 226.637 842.132 205.948 816.611 205.948C791.09 205.948 770.401 226.637 770.401 252.158C770.401 277.679 791.09 298.368 816.611 298.368Z" stroke="white" stroke-width="6.60142"/>
</g>
<g filter="url(#filter12_d)">
<path fill-rule="evenodd" clip-rule="evenodd" d="M959.642 295.067C983.34 295.067 1002.55 275.856 1002.55 252.158C1002.55 228.46 983.34 209.249 959.642 209.249C935.944 209.249 916.733 228.46 916.733 252.158C916.733 275.856 935.944 295.067 959.642 295.067Z" fill="#F9FAFA"/>
<path d="M959.642 298.368C985.163 298.368 1005.85 277.679 1005.85 252.158C1005.85 226.637 985.163 205.948 959.642 205.948C934.121 205.948 913.432 226.637 913.432 252.158C913.432 277.679 934.121 298.368 959.642 298.368Z" stroke="white" stroke-width="6.60142"/>
</g>
<g filter="url(#filter13_d)">
<path fill-rule="evenodd" clip-rule="evenodd" d="M219.183 448C295.138 448 356.713 386.426 356.713 310.47C356.713 234.515 295.138 172.94 219.183 172.94C143.227 172.94 81.6533 234.515 81.6533 310.47C81.6533 386.426 143.227 448 219.183 448Z" fill="#57C2F4"/>
<path d="M219.183 453.281C298.055 453.281 361.994 389.342 361.994 310.47C361.994 231.598 298.055 167.659 219.183 167.659C140.311 167.659 76.3722 231.598 76.3722 310.47C76.3722 389.342 140.311 453.281 219.183 453.281Z" stroke="white" stroke-width="10.5623"/>
</g>
<g filter="url(#filter14_d)">
<path fill-rule="evenodd" clip-rule="evenodd" d="M219.183 310.47C295.138 310.47 356.713 248.896 356.713 172.941C356.713 96.9852 295.138 35.4111 219.183 35.4111C143.227 35.4111 81.6533 96.9852 81.6533 172.941C81.6533 248.896 143.227 310.47 219.183 310.47Z" fill="#3EDF82" style="mix-blend-mode:darken"/>
<path d="M219.183 315.751C298.055 315.751 361.994 251.813 361.994 172.941C361.994 94.0685 298.055 30.13 219.183 30.13C140.311 30.13 76.3722 94.0685 76.3722 172.941C76.3722 251.813 140.311 315.751 219.183 315.751Z" stroke="white" stroke-width="10.5623"/>
</g>
<defs>
<filter id="filter0_d" x="462.335" y="70.6187" width="143.031" height="143.031" filterUnits="userSpaceOnUse" color-interpolation-filters="sRGB">
<feFlood flood-opacity="0" result="BackgroundImageFix"/>
<feColorMatrix in="SourceAlpha" type="matrix" values="0 0 0 0 0 0 0 0 0 0 0 0 0 0 0 0 0 0 127 0"/>
<feOffset dy="14.3031"/>
<feGaussianBlur stdDeviation="11.0024"/>
<feColorMatrix type="matrix" values="0 0 0 0 0 0 0 0 0 0 0 0 0 0 0 0 0 0 0.0898721 0"/>
<feBlend mode="normal" in2="BackgroundImageFix" result="effect1_dropShadow"/>
<feBlend mode="normal" in="SourceGraphic" in2="effect1_dropShadow" result="shape"/>
</filter>
<filter id="filter1_d" x="464.536" y="350.08" width="101.222" height="101.222" filterUnits="userSpaceOnUse" color-interpolation-filters="sRGB">
<feFlood flood-opacity="0" result="BackgroundImageFix"/>
<feColorMatrix in="SourceAlpha" type="matrix" values="0 0 0 0 0 0 0 0 0 0 0 0 0 0 0 0 0 0 127 0"/>
<feOffset dy="14.3031"/>
<feGaussianBlur stdDeviation="11.0024"/>
<feColorMatrix type="matrix" values="0 0 0 0 0 0 0 0 0 0 0 0 0 0 0 0 0 0 0.0898721 0"/>
<feBlend mode="normal" in2="BackgroundImageFix" result="effect1_dropShadow"/>
<feBlend mode="normal" in="SourceGraphic" in2="effect1_dropShadow" result="shape"/>
</filter>
<filter id="filter2_d" x="552.555" y="350.079" width="101.222" height="101.222" filterUnits="userSpaceOnUse" color-interpolation-filters="sRGB">
<feFlood flood-opacity="0" result="BackgroundImageFix"/>
<feColorMatrix in="SourceAlpha" type="matrix" values="0 0 0 0 0 0 0 0 0 0 0 0 0 0 0 0 0 0 127 0"/>
<feOffset dy="14.3031"/>
<feGaussianBlur stdDeviation="11.0024"/>
<feColorMatrix type="matrix" values="0 0 0 0 0 0 0 0 0 0 0 0 0 0 0 0 0 0 0.0898721 0"/>
<feBlend mode="normal" in2="BackgroundImageFix" result="effect1_dropShadow"/>
<feBlend mode="normal" in="SourceGraphic" in2="effect1_dropShadow" result="shape"/>
</filter>
<filter id="filter3_d" x="641.674" y="350.079" width="101.222" height="101.222" filterUnits="userSpaceOnUse" color-interpolation-filters="sRGB">
<feFlood flood-opacity="0" result="BackgroundImageFix"/>
<feColorMatrix in="SourceAlpha" type="matrix" values="0 0 0 0 0 0 0 0 0 0 0 0 0 0 0 0 0 0 127 0"/>
<feOffset dy="14.3031"/>
<feGaussianBlur stdDeviation="11.0024"/>
<feColorMatrix type="matrix" values="0 0 0 0 0 0 0 0 0 0 0 0 0 0 0 0 0 0 0.0898721 0"/>
<feBlend mode="normal" in2="BackgroundImageFix" result="effect1_dropShadow"/>
<feBlend mode="normal" in="SourceGraphic" in2="effect1_dropShadow" result="shape"/>
</filter>
<filter id="filter4_d" x="731.894" y="350.079" width="101.222" height="101.222" filterUnits="userSpaceOnUse" color-interpolation-filters="sRGB">
<feFlood flood-opacity="0" result="BackgroundImageFix"/>
<feColorMatrix in="SourceAlpha" type="matrix" values="0 0 0 0 0 0 0 0 0 0 0 0 0 0 0 0 0 0 127 0"/>
<feOffset dy="14.3031"/>
<feGaussianBlur stdDeviation="11.0024"/>
<feColorMatrix type="matrix" values="0 0 0 0 0 0 0 0 0 0 0 0 0 0 0 0 0 0 0.0898721 0"/>
<feBlend mode="normal" in2="BackgroundImageFix" result="effect1_dropShadow"/>
<feBlend mode="normal" in="SourceGraphic" in2="effect1_dropShadow" result="shape"/>
</filter>
<filter id="filter5_d" x="821.013" y="350.079" width="101.222" height="101.222" filterUnits="userSpaceOnUse" color-interpolation-filters="sRGB">
<feFlood flood-opacity="0" result="BackgroundImageFix"/>
<feColorMatrix in="SourceAlpha" type="matrix" values="0 0 0 0 0 0 0 0 0 0 0 0 0 0 0 0 0 0 127 0"/>
<feOffset dy="14.3031"/>
<feGaussianBlur stdDeviation="11.0024"/>
<feColorMatrix type="matrix" values="0 0 0 0 0 0 0 0 0 0 0 0 0 0 0 0 0 0 0.0898721 0"/>
<feBlend mode="normal" in2="BackgroundImageFix" result="effect1_dropShadow"/>
<feBlend mode="normal" in="SourceGraphic" in2="effect1_dropShadow" result="shape"/>
</filter>
<filter id="filter6_d" x="604.266" y="70.6187" width="143.031" height="143.031" filterUnits="userSpaceOnUse" color-interpolation-filters="sRGB">
<feFlood flood-opacity="0" result="BackgroundImageFix"/>
<feColorMatrix in="SourceAlpha" type="matrix" values="0 0 0 0 0 0 0 0 0 0 0 0 0 0 0 0 0 0 127 0"/>
<feOffset dy="14.3031"/>
<feGaussianBlur stdDeviation="11.0024"/>
<feColorMatrix type="matrix" values="0 0 0 0 0 0 0 0 0 0 0 0 0 0 0 0 0 0 0.0898721 0"/>
<feBlend mode="normal" in2="BackgroundImageFix" result="effect1_dropShadow"/>
<feBlend mode="normal" in="SourceGraphic" in2="effect1_dropShadow" result="shape"/>
</filter>
<filter id="filter7_d" x="462.335" y="199.346" width="143.031" height="143.031" filterUnits="userSpaceOnUse" color-interpolation-filters="sRGB">
<feFlood flood-opacity="0" result="BackgroundImageFix"/>
<feColorMatrix in="SourceAlpha" type="matrix" values="0 0 0 0 0 0 0 0 0 0 0 0 0 0 0 0 0 0 127 0"/>
<feOffset dy="14.3031"/>
<feGaussianBlur stdDeviation="11.0024"/>
<feColorMatrix type="matrix" values="0 0 0 0 0 0 0 0 0 0 0 0 0 0 0 0 0 0 0.0898721 0"/>
<feBlend mode="normal" in2="BackgroundImageFix" result="effect1_dropShadow"/>
<feBlend mode="normal" in="SourceGraphic" in2="effect1_dropShadow" result="shape"/>
</filter>
<filter id="filter8_d" x="604.266" y="199.346" width="143.031" height="143.031" filterUnits="userSpaceOnUse" color-interpolation-filters="sRGB">
<feFlood flood-opacity="0" result="BackgroundImageFix"/>
<feColorMatrix in="SourceAlpha" type="matrix" values="0 0 0 0 0 0 0 0 0 0 0 0 0 0 0 0 0 0 127 0"/>
<feOffset dy="14.3031"/>
<feGaussianBlur stdDeviation="11.0024"/>
<feColorMatrix type="matrix" values="0 0 0 0 0 0 0 0 0 0 0 0 0 0 0 0 0 0 0.0898721 0"/>
<feBlend mode="normal" in2="BackgroundImageFix" result="effect1_dropShadow"/>
<feBlend mode="normal" in="SourceGraphic" in2="effect1_dropShadow" result="shape"/>
</filter>
<filter id="filter9_d" x="743.996" y="68.4185" width="143.031" height="143.031" filterUnits="userSpaceOnUse" color-interpolation-filters="sRGB">
<feFlood flood-opacity="0" result="BackgroundImageFix"/>
<feColorMatrix in="SourceAlpha" type="matrix" values="0 0 0 0 0 0 0 0 0 0 0 0 0 0 0 0 0 0 127 0"/>
<feOffset dy="14.3031"/>
<feGaussianBlur stdDeviation="11.0024"/>
<feColorMatrix type="matrix" values="0 0 0 0 0 0 0 0 0 0 0 0 0 0 0 0 0 0 0.0898721 0"/>
<feBlend mode="normal" in2="BackgroundImageFix" result="effect1_dropShadow"/>
<feBlend mode="normal" in="SourceGraphic" in2="effect1_dropShadow" result="shape"/>
</filter>
<filter id="filter10_d" x="885.927" y="68.4185" width="143.031" height="143.031" filterUnits="userSpaceOnUse" color-interpolation-filters="sRGB">
<feFlood flood-opacity="0" result="BackgroundImageFix"/>
<feColorMatrix in="SourceAlpha" type="matrix" values="0 0 0 0 0 0 0 0 0 0 0 0 0 0 0 0 0 0 127 0"/>
<feOffset dy="14.3031"/>
<feGaussianBlur stdDeviation="11.0024"/>
<feColorMatrix type="matrix" values="0 0 0 0 0 0 0 0 0 0 0 0 0 0 0 0 0 0 0.0898721 0"/>
<feBlend mode="normal" in2="BackgroundImageFix" result="effect1_dropShadow"/>
<feBlend mode="normal" in="SourceGraphic" in2="effect1_dropShadow" result="shape"/>
</filter>
<filter id="filter11_d" x="745.096" y="194.946" width="143.031" height="143.031" filterUnits="userSpaceOnUse" color-interpolation-filters="sRGB">
<feFlood flood-opacity="0" result="BackgroundImageFix"/>
<feColorMatrix in="SourceAlpha" type="matrix" values="0 0 0 0 0 0 0 0 0 0 0 0 0 0 0 0 0 0 127 0"/>
<feOffset dy="14.3031"/>
<feGaussianBlur stdDeviation="11.0024"/>
<feColorMatrix type="matrix" values="0 0 0 0 0 0 0 0 0 0 0 0 0 0 0 0 0 0 0.0898721 0"/>
<feBlend mode="normal" in2="BackgroundImageFix" result="effect1_dropShadow"/>
<feBlend mode="normal" in="SourceGraphic" in2="effect1_dropShadow" result="shape"/>
</filter>
<filter id="filter12_d" x="888.127" y="194.946" width="143.031" height="143.031" filterUnits="userSpaceOnUse" color-interpolation-filters="sRGB">
<feFlood flood-opacity="0" result="BackgroundImageFix"/>
<feColorMatrix in="SourceAlpha" type="matrix" values="0 0 0 0 0 0 0 0 0 0 0 0 0 0 0 0 0 0 127 0"/>
<feOffset dy="14.3031"/>
<feGaussianBlur stdDeviation="11.0024"/>
<feColorMatrix type="matrix" values="0 0 0 0 0 0 0 0 0 0 0 0 0 0 0 0 0 0 0.0898721 0"/>
<feBlend mode="normal" in2="BackgroundImageFix" result="effect1_dropShadow"/>
<feBlend mode="normal" in="SourceGraphic" in2="effect1_dropShadow" result="shape"/>
</filter>
<filter id="filter13_d" x="0.675911" y="138.173" width="437.014" height="437.014" filterUnits="userSpaceOnUse" color-interpolation-filters="sRGB">
<feFlood flood-opacity="0" result="BackgroundImageFix"/>
<feColorMatrix in="SourceAlpha" type="matrix" values="0 0 0 0 0 0 0 0 0 0 0 0 0 0 0 0 0 0 127 0"/>
<feOffset dy="46.2099"/>
<feGaussianBlur stdDeviation="35.2076"/>
<feColorMatrix type="matrix" values="0 0 0 0 0 0 0 0 0 0 0 0 0 0 0 0 0 0 0.0898721 0"/>
<feBlend mode="normal" in2="BackgroundImageFix" result="effect1_dropShadow"/>
<feBlend mode="normal" in="SourceGraphic" in2="effect1_dropShadow" result="shape"/>
</filter>
<filter id="filter14_d" x="0.675911" y="0.643425" width="437.014" height="437.014" filterUnits="userSpaceOnUse" color-interpolation-filters="sRGB">
<feFlood flood-opacity="0" result="BackgroundImageFix"/>
<feColorMatrix in="SourceAlpha" type="matrix" values="0 0 0 0 0 0 0 0 0 0 0 0 0 0 0 0 0 0 127 0"/>
<feOffset dy="46.2099"/>
<feGaussianBlur stdDeviation="35.2076"/>
<feColorMatrix type="matrix" values="0 0 0 0 0 0 0 0 0 0 0 0 0 0 0 0 0 0 0.0898721 0"/>
<feBlend mode="normal" in2="BackgroundImageFix" result="effect1_dropShadow"/>
<feBlend mode="normal" in="SourceGraphic" in2="effect1_dropShadow" result="shape"/>
</filter>
</defs>
</svg>
