<svg width="1237" height="619" viewBox="0 0 1237 619" fill="none" xmlns="http://www.w3.org/2000/svg">
<path d="M7.81174 14.6343C5.77363 14.6343 4.3598 13.1103 4.3598 11.0355C4.3598 8.96062 5.77363 7.43663 7.81174 7.43663C9.46426 7.43663 10.5659 8.40978 10.8964 9.9705H14.0913C13.6874 6.7389 11.227 4.53554 7.8301 4.53554C4.06602 4.53554 1.22001 7.27138 1.22001 11.0355C1.22001 14.7995 4.06602 17.5354 7.8301 17.5354C11.227 17.5354 13.6874 15.332 14.0913 12.1004H10.8964C10.5659 13.6611 9.46426 14.6343 7.81174 14.6343ZM22.3184 4.53554C18.5543 4.53554 15.7083 7.39991 15.7083 11.0355C15.7083 14.671 18.5543 17.5354 22.3184 17.5354C26.0824 17.5354 28.9285 14.671 28.9285 11.0355C28.9285 7.39991 26.0824 4.53554 22.3184 4.53554ZM22.3184 14.6526C20.2986 14.6526 18.8481 13.0001 18.8481 11.0355C18.8481 9.07079 20.2986 7.41827 22.3184 7.41827C24.3381 7.41827 25.7887 9.07079 25.7887 11.0355C25.7887 13.0001 24.3381 14.6526 22.3184 14.6526ZM40.1035 14.5425H33.9341V4.7926H30.831V17.2783H40.1035V14.5425ZM47.2604 4.53554C43.4963 4.53554 40.6503 7.39991 40.6503 11.0355C40.6503 14.671 43.4963 17.5354 47.2604 17.5354C51.0245 17.5354 53.8705 14.671 53.8705 11.0355C53.8705 7.39991 51.0245 4.53554 47.2604 4.53554ZM47.2604 14.6526C45.2407 14.6526 43.7901 13.0001 43.7901 11.0355C43.7901 9.07079 45.2407 7.41827 47.2604 7.41827C49.2802 7.41827 50.7307 9.07079 50.7307 11.0355C50.7307 13.0001 49.2802 14.6526 47.2604 14.6526ZM60.8041 13.6611L63.5032 17.2783H67.2305L64.0173 13.0552C65.5046 12.3024 66.4043 10.9253 66.4043 9.18096C66.4043 6.48184 64.3294 4.7926 61.2264 4.7926H55.773V17.2783H58.8761V13.6611H60.8041ZM58.8761 10.8702V7.52844H61.1713C62.3648 7.52844 63.3012 8.17109 63.3012 9.18096C63.3012 10.2092 62.3648 10.8702 61.1713 10.8702H58.8761ZM73.0881 4.51717C70.1503 4.51717 68.1305 6.09625 68.1305 8.5934C68.1305 10.5764 69.2873 11.7332 71.7477 12.2657L73.8042 12.7247C74.8691 12.9267 75.1262 13.3674 75.1262 13.7897C75.1262 14.469 74.5203 14.8913 73.3635 14.8913C71.8946 14.8913 70.9398 14.2303 70.7378 13.1287H67.6348C67.9286 16.2134 70.4624 17.5354 73.2717 17.5354C76.3931 17.5354 78.4496 15.9747 78.4496 13.4775C78.4496 11.3292 76.9623 10.4112 74.6855 9.91541L72.9412 9.51146C72.0048 9.30949 71.509 9.01571 71.509 8.33634C71.509 7.52844 72.2251 7.08777 73.2901 7.08777C74.557 7.08777 75.1446 7.73041 75.3098 8.66684H78.4312C78.1191 5.30671 75.1078 4.51717 73.0881 4.51717Z" fill="#353839"/>
<rect x="134.537" y="59.5996" width="431.114" height="115.818" fill="#32B4D7"/>
<rect x="0.412109" y="59.5996" width="134.124" height="115.818" fill="#2CA2C3"/>
<rect x="565.65" y="59.5996" width="134.124" height="115.818" fill="#55BFDE"/>
<rect x="699.775" y="59.5996" width="134.124" height="115.818" fill="#79CBE3"/>
<rect x="833.9" y="59.5996" width="134.124" height="115.818" fill="#9DDAEB"/>
<rect x="968.023" y="59.5996" width="134.124" height="115.818" fill="#BFE4F1"/>
<rect x="1102.15" y="59.5996" width="134.124" height="115.818" fill="#E1F1F8"/>
<rect x="134.537" y="192.366" width="431.114" height="115.818" fill="#2D3E4D"/>
<rect x="0.412109" y="192.366" width="134.124" height="115.818" fill="#22303A"/>
<rect x="565.65" y="192.366" width="134.124" height="115.818" fill="#4B5C6A"/>
<rect x="699.775" y="192.366" width="134.124" height="115.818" fill="#6A7A87"/>
<rect x="833.9" y="192.366" width="134.124" height="115.818" fill="#8897A3"/>
<rect x="968.023" y="192.366" width="134.124" height="115.818" fill="#A6B5BF"/>
<rect x="1102.15" y="192.366" width="134.124" height="115.818" fill="#C5D3DD"/>
<rect x="134.537" y="325.133" width="431.114" height="45.1972" fill="#4EB148"/>
<rect x="0.412109" y="325.134" width="134.124" height="45.1972" fill="#469644"/>
<rect x="565.65" y="325.133" width="134.124" height="45.1972" fill="#6BBE61"/>
<rect x="699.775" y="325.133" width="134.124" height="45.1972" fill="#89C87F"/>
<rect x="833.9" y="325.133" width="134.124" height="45.1972" fill="#A5D49C"/>
<rect x="968.023" y="325.133" width="134.124" height="45.1972" fill="#C2E1BB"/>
<rect x="1102.15" y="325.133" width="134.124" height="45.1972" fill="#DEEEDA"/>
<rect x="134.537" y="387.279" width="431.114" height="45.1972" fill="#FAAA38"/>
<rect x="0.412109" y="387.279" width="134.124" height="45.1972" fill="#E5A229"/>
<rect x="565.65" y="387.279" width="134.124" height="45.1972" fill="#F7B555"/>
<rect x="699.775" y="387.279" width="134.124" height="45.1972" fill="#F8C273"/>
<rect x="833.9" y="387.279" width="134.124" height="45.1972" fill="#F8CE91"/>
<rect x="968.023" y="387.279" width="134.124" height="45.1972" fill="#F8DAAF"/>
<rect x="1102.15" y="387.279" width="134.124" height="45.1972" fill="#F7E6CD"/>
<rect x="134.537" y="449.426" width="431.114" height="45.1972" fill="#EE4152"/>
<rect x="0.412109" y="449.425" width="134.124" height="45.1972" fill="#D63850"/>
<rect x="565.65" y="449.426" width="134.124" height="45.1972" fill="#F0616F"/>
<rect x="699.775" y="449.426" width="134.124" height="45.1972" fill="#F2818D"/>
<rect x="833.9" y="449.426" width="134.124" height="45.1972" fill="#F5A2AB"/>
<rect x="968.023" y="449.426" width="134.124" height="45.1972" fill="#F9C4C9"/>
<rect x="1102.15" y="449.426" width="134.124" height="45.1972" fill="#F7E3E6"/>
<rect x="134.537" y="511.572" width="431.114" height="45.1972" fill="#7D6EB2"/>
<rect x="0.412109" y="511.572" width="134.124" height="45.1972" fill="#655BA7"/>
<rect x="565.65" y="511.572" width="134.124" height="45.1972" fill="#9484BE"/>
<rect x="699.775" y="511.572" width="134.124" height="45.1972" fill="#A69BCB"/>
<rect x="833.9" y="511.572" width="134.124" height="45.1972" fill="#BAB1D7"/>
<rect x="968.023" y="511.572" width="134.124" height="45.1972" fill="#CCC8E3"/>
<rect x="1102.15" y="511.572" width="134.124" height="45.1972" fill="#DFDEEF"/>
<rect x="134.537" y="573.718" width="431.114" height="45.1972" fill="#5D6367"/>
<rect x="0.412109" y="573.718" width="134.124" height="45.1972" fill="#393C3F"/>
<rect x="565.65" y="573.718" width="134.124" height="45.1972" fill="#797E82"/>
<rect x="699.775" y="573.718" width="134.124" height="45.1972" fill="#969B9D"/>
<rect x="833.9" y="573.718" width="134.124" height="45.1972" fill="#B4B7B9"/>
<rect x="968.023" y="573.718" width="134.124" height="45.1972" fill="#D1D4D4"/>
<rect x="1102.15" y="573.718" width="134.124" height="45.1972" fill="#EEF0F0"/>
</svg>
