<svg width="1920" height="1066" viewBox="0 0 1920 1066" fill="none" xmlns="http://www.w3.org/2000/svg">
<g clip-path="url(#clip0)">
<rect width="1920" height="1066" fill="white"/>
<mask id="mask0" mask-type="alpha" maskUnits="userSpaceOnUse" x="-953" y="-215" width="3700" height="1435">
<g style="mix-blend-mode:multiply">
<path d="M2320.57 1120.92L2725.58 437.592C1529.96 -305.488 1427.68 919.122 -208.819 -125.805C-208.819 -125.805 -1792.79 -109.218 -313.863 689.681C1165.07 1488.58 1590.78 667.566 2320.57 1120.92Z" fill="url(#paint0_linear)"/>
<path d="M2320.57 1120.92L2725.58 437.592C1529.96 -305.488 1427.68 919.122 -208.819 -125.805C-208.819 -125.805 -1792.79 -109.218 -313.863 689.681C1165.07 1488.58 1590.78 667.566 2320.57 1120.92Z" fill="url(#paint1_linear)"/>
</g>
</mask>
<g mask="url(#mask0)">
<g style="mix-blend-mode:multiply">
<path d="M2320.57 1120.92L2725.57 437.592C1529.96 -305.488 1427.68 919.122 -208.823 -125.805C-208.823 -125.805 -1792.8 -109.218 -313.867 689.681C1165.06 1488.58 1590.78 667.566 2320.57 1120.92Z" fill="url(#paint2_linear)"/>
</g>
<path opacity="0.9" d="M2058.31 789.843C2062.7 755.199 2063.69 720.601 2061.08 686.754C2061 686.355 2060.91 685.956 2061.01 685.604C2060.85 684.055 2060.69 682.506 2060.53 680.957C2060.45 680.558 2060.36 680.159 2060.5 679.63C2060.34 678.081 2060.19 676.532 2060.07 674.807C2059.88 672.683 2059.63 670.735 2059.44 668.611C2043.06 672.783 2017.48 673.216 2013.27 636.873C2012.95 633.775 2012.41 630.807 2011.69 627.792C2009.3 616.801 2004.81 607.33 1999.73 599.398C1984.3 575.558 1958.46 560.473 1930 557.511C1926.51 557.158 1923.02 556.805 1920.01 556.767C1921.25 567.833 1922.54 571.562 1915.1 582.609C1909.09 574.622 1907.91 566.209 1911.29 556.924C1902.57 557.081 1893.49 557.896 1884.18 559.592L1896.51 572.255C1896.51 572.255 1880.9 574.934 1878.95 560.853C1853.08 563.095 1822.15 585.297 1810.45 624.049C1821.5 625.071 1827.21 628.457 1833.24 638.522L1809.07 632.165C1807.57 639.307 1806.68 646.987 1806.18 655.335C1805.76 664.834 1796.39 671.789 1786.64 669.414C1778.47 667.455 1769.48 668.67 1762.76 679.15C1756.94 688.36 1746.22 693.266 1735.44 691.938C1732.52 691.548 1729.57 690.583 1726.88 689.312C1719.18 685.592 1691.19 677.287 1662.98 734.31C1662.94 734.486 1662.89 734.662 1662.89 734.662C1654.82 751.005 1639.55 762.44 1621.59 766.195C1605 769.745 1589.23 778.036 1583.76 795.251C1577.07 807.809 1574.09 827 1588.73 853.836C1590.12 856.462 1591.64 858.558 1593.21 860.478C1599.1 867.491 1599.6 877.797 1593.15 884.391C1590.55 887.099 1587.16 889.223 1583.12 890.233C1558.67 896.427 1526.23 911.449 1523.55 946.734C1523.03 953.755 1521.62 960.545 1518.62 966.917C1500.1 1006.51 1460.11 1012.95 1446.25 1014.02C1443.19 1014.16 1441.47 1014.27 1441.47 1014.27L1455.98 1017.9C1456.16 1017.94 1456.16 1017.94 1456.33 1017.99L1502.04 1029.26L1875.61 1128.06L1901.73 1134.92C1922.99 1107.17 1943.44 1076.74 1962.95 1043.44C1963.31 1042.78 1963.67 1042.12 1964.03 1041.46C1977.76 1017.94 1990.98 992.777 2003.47 966.102C2013.12 947.348 2021.53 928.269 2028.93 908.735C2034.55 893.82 2039.42 878.896 2043.63 863.611C2044.04 862.025 2044.46 860.439 2044.83 859.029C2050.85 836.119 2055.42 813.013 2058.31 789.843Z" fill="url(#paint3_linear)"/>
<path d="M2421.99 142.143C2408.21 157.107 2401.83 150.262 2384.37 132.566C2369.26 115.172 2358.45 158.034 2332.68 116.43C2291.08 49.2669 2263.2 88.7877 2263.2 88.7877C2248.65 105.919 2252.72 143.989 2252.72 143.989C2253.88 151.698 2255.42 159.079 2257.1 165.596C2257.33 166.886 2257.82 168.209 2258.18 169.39C2258.78 171.609 2259.13 174.048 2259.35 176.344C2259.57 179.647 2259.16 182.744 2258.5 185.807C2256.41 193.347 2251.47 199.634 2243.94 202.687C2239.42 204.62 2235.53 206.759 2232.25 209.357C2229.6 211.406 2227.2 213.74 2225.17 216.248C2223.78 217.957 2222.64 219.698 2221.74 221.471C2218.3 227.701 2216.6 234.661 2216.26 242.176C2215.96 246.672 2216.29 251.123 2216.74 255.717C2217.2 259.052 2217.79 262.529 2218.5 265.897C2219.33 269.659 2220.41 273.452 2221.5 276.995C2222.7 280.931 2224.16 284.647 2225.62 288.364C2227.44 292.758 2227.52 297.177 2226.72 301.105C2226.07 303.414 2225.18 305.439 2223.78 307.4C2222.89 308.67 2221.88 309.798 2220.5 310.752C2219.49 311.629 2218.23 312.473 2216.85 312.924C2214.09 314.077 2210.96 314.804 2207.46 314.35C2207.21 314.318 2207.21 314.318 2206.96 314.285L2196.48 313.176C2192.49 312.657 2188.62 312.532 2184.62 312.517C2174.63 312.478 2164.86 313.982 2155.71 316.699C2153.08 317.49 2150.57 318.424 2147.94 319.468C2146.3 320.138 2144.8 320.698 2143.29 321.51C2142.92 321.587 2142.66 321.806 2142.41 322.025C2137.39 324.396 2132.48 327.161 2127.95 330.603C2125.81 332.214 2123.54 333.935 2121.52 335.689C2121.39 335.798 2121.39 335.798 2121.27 335.908C2117.1 339.524 2113.31 343.567 2110.01 347.925C2109.51 348.615 2109 349.305 2108.49 349.995C2107.48 351.375 2106.46 352.755 2105.7 354.167C2104.81 355.437 2104.04 356.85 2103.28 358.262C2098.43 366.703 2094.83 376.062 2092.97 386.401C2092.57 387.988 2092.43 389.607 2092.04 391.194C2091.49 395.154 2091.07 399.257 2090.78 403.25C2090.64 404.617 2090.62 406.127 2090.61 407.385C2090.61 407.385 2090.61 407.385 2090.61 407.636C2090.44 421.977 2092.66 436.499 2097.75 450.262C2103.57 466.387 2113.15 481.236 2126.76 492.579C2141.37 504.806 2152.87 526.708 2152.16 545.512C2152.02 546.88 2152 548.138 2151.86 549.505C2149.95 563.871 2140.32 575.721 2118.42 579.049C2112.29 579.891 2105.29 580.241 2097.18 579.565C2096.68 579.501 2096.43 579.468 2095.93 579.403C2095.18 579.306 2094.44 578.957 2093.57 578.718C2085.46 577.036 2077.48 576.25 2069.73 576.252C2065.48 576.204 2061.48 576.44 2057.48 576.928C2056.85 576.973 2056.1 577.127 2055.48 577.172C2053.48 577.416 2051.6 577.802 2049.6 578.046C2047.84 578.322 2045.97 578.708 2044.34 579.126C2004.37 588.926 1974.03 621.266 1967.3 664.735C1966.62 669.056 1966.2 673.662 1966.02 678.3C1965.67 686.822 1965.44 696.743 1965.19 708.174C1964.06 753.253 1926.22 762.951 1904.46 764.66C1885.33 766.332 1867.75 774.127 1855.48 788.027C1855.1 788.356 1854.97 788.717 1854.59 789.046C1852.06 791.993 1849.77 795.223 1847.73 798.738C1840.22 811.996 1837.52 829.786 1847.51 852.248C1847.76 852.784 1847.88 853.178 1848.12 853.713C1849.7 857.32 1851.79 860.992 1854.12 864.948C1861.6 877.132 1871.48 887.737 1882.5 896.601C1894.76 906.382 1928.18 945.115 1883.94 979.807C1836.55 1016.99 1844.16 1051.74 1851.72 1067.84C1851.84 1068.23 1852.21 1068.91 1852.21 1068.91C1852.33 1069.05 2288.01 1188.65 2288.01 1188.65C2505.42 816.919 2576.46 153.963 2576.46 153.963C2576.46 153.963 2496.06 243.19 2458.27 164.627C2450.58 148.637 2437.93 124.812 2421.99 142.143Z" fill="url(#paint4_linear)"/>
<path d="M1442.98 1134.44C1425.89 1103.99 1411.97 1072.3 1401.67 1039.95C1401.6 1039.55 1401.52 1039.15 1401.31 1038.86C1400.87 1037.36 1400.44 1035.87 1400 1034.37C1399.93 1033.97 1399.86 1033.57 1399.53 1033.13C1399.09 1031.64 1398.66 1030.14 1398.11 1028.5C1397.5 1026.46 1396.99 1024.56 1396.37 1022.52C1413.12 1020.23 1436.99 1011.02 1427.23 975.758C1426.36 972.768 1425.75 969.814 1425.28 966.751C1423.36 955.666 1423.96 945.203 1425.69 935.942C1431.03 908.053 1449.3 884.363 1474.56 870.921C1477.67 869.282 1480.77 867.643 1483.54 866.478C1486.55 877.198 1486.77 881.136 1497.81 888.58C1500.37 878.919 1498.31 870.678 1491.68 863.346C1499.82 860.214 1508.54 857.557 1517.81 855.629L1511.15 871.997C1511.15 871.997 1526.62 868.614 1523.14 854.83C1547.95 847.185 1584.96 856.137 1610.36 887.651C1600.51 892.751 1596.48 898.035 1594.68 909.629L1614.69 894.654C1618.77 900.708 1622.47 907.491 1626.07 915.041C1630.03 923.684 1641.34 926.606 1649.48 920.74C1656.31 915.858 1665.1 913.601 1675.27 920.789C1684.12 927.138 1695.9 927.654 1705.39 922.372C1707.94 920.915 1710.32 918.911 1712.33 916.724C1718.06 910.383 1740.89 892.164 1788.45 934.409C1788.56 934.554 1788.67 934.7 1788.67 934.7C1802.29 946.812 1820.74 951.67 1838.8 948.398C1855.51 945.453 1873.23 947.212 1884.77 961.109C1895.7 970.229 1905.66 986.897 1902.19 1017.27C1901.89 1020.22 1901.26 1022.74 1900.53 1025.1C1897.71 1033.82 1901.12 1043.55 1909.58 1047.24C1913 1048.77 1916.94 1049.47 1921.06 1048.89C1946.05 1045.44 1981.76 1047.17 1997.5 1078.86C2000.62 1085.17 2004.48 1090.93 2009.65 1095.71C2041.7 1125.44 2081.18 1116.38 2094.42 1112.16C2097.31 1111.14 2098.95 1110.59 2098.95 1110.59L2086.86 1119.41C2086.71 1119.52 2086.71 1119.52 2086.57 1119.63L2048.45 1147.25L1739.39 1379.2L1717.77 1395.38C1687.64 1377.64 1657.26 1357.14 1626.66 1333.61C1626.08 1333.13 1625.49 1332.66 1624.91 1332.18C1603.35 1315.55 1581.64 1297.2 1560.04 1277.17C1544.05 1263.42 1529.09 1248.9 1514.89 1233.58C1504.08 1221.87 1493.96 1209.87 1484.31 1197.28C1483.33 1195.97 1482.35 1194.66 1481.47 1193.49C1467.28 1174.52 1454.36 1154.83 1442.98 1134.44Z" fill="url(#paint5_linear)"/>
<path d="M878.455 1101.97C877.346 1106.85 874.635 1111.59 868.17 1113.38C867.405 1113.68 870.581 1104.84 873.625 1097.61C872.055 1096.32 870.485 1095.03 869.086 1094.01C860.198 1088.03 854.988 1078.45 860.087 1069.35C884.836 1025.1 857.325 1013.94 836.937 1011.4C830.084 1026.15 811.651 1022.19 811.651 1022.19L829.155 1010.79C821.101 1010.36 816.007 1006.87 808.306 1004.88L794.43 1029C794.43 1029 786.333 1013.4 798.491 1001.95C740.005 977.444 742.66 922.799 748.59 900.837C752.161 887.196 750.809 872.668 743.998 860.627C738.848 851.529 730.123 842.783 715.657 838.79C716.182 855.928 699.821 856.167 699.821 856.167L712.163 837.762C699.931 835.211 684.134 836.045 663.209 842.005C650.008 845.761 638.539 848.046 628.48 849.253C596.431 852.914 566.698 833.092 555.97 802.443C553.446 795.108 549.975 789.889 545.879 786.392C538.029 779.943 527.558 779.891 515.394 783.183C505.697 785.871 494.559 790.796 483.099 796.113C442.987 814.724 418.391 792.807 405.996 774.6C402.223 789.127 384.976 789.164 384.976 789.164L401.257 766.761C400.281 764.907 398.38 760.978 395.523 756.131C386.781 741.32 368.428 717.56 333.522 716.375L333.066 741.915L332.952 749.582C332.952 749.582 327.204 746.175 323.543 739.747C320.565 734.407 319.028 726.83 323.735 717.411C312.487 719.747 302.818 726.404 294.086 733.042C293.22 733.777 292.353 734.513 291.266 735.198C280.972 743.578 271.836 751.989 263.005 753.942C221.539 763.153 214.212 737.008 214.796 714.994C214.827 713.836 214.858 712.677 214.939 711.297C215.639 700.033 220.155 689.405 227.127 680.269C242.088 660.595 233.993 639.87 224.264 625.3C220.676 632.876 213.485 636.834 213.485 636.834C213.459 627.737 216.694 621.712 219.867 618.005C213.399 606.509 210.586 593.28 212.012 579.851C214.601 556.196 212.082 538.605 206.581 525.93C203.685 519.209 199.992 513.94 195.876 509.506C194.562 520.397 182.367 524.848 182.367 524.848L191.66 505.516C191.267 505.193 189.083 503.531 188.691 503.208C187.906 502.563 186.899 501.868 186.064 501.445C179.269 519.014 157.923 520.682 157.923 520.682L177.487 497.161C176.652 496.738 175.766 496.536 174.931 496.113C174.045 495.911 173.209 495.488 172.323 495.286C171.437 495.085 170.823 494.712 169.937 494.51C169.052 494.309 168.166 494.107 167.28 493.905C166.394 493.704 165.508 493.502 164.622 493.3C163.736 493.099 162.85 492.897 161.914 492.917C160.091 492.735 158.32 492.332 156.719 492.201C155.833 491.999 155.118 492.07 154.182 492.09C153.245 492.109 152.581 491.958 151.644 491.978C150.044 491.847 148.614 491.988 147.013 491.857C146.298 491.927 145.634 491.776 144.919 491.846C129.393 492.508 -9.86372 525.93 -9.86372 525.93C-44.4338 661.561 -213.875 660.617 -145.093 777.113C-170.739 755.075 -150.952 830.294 -150.668 830.771L-167.395 991.745C211.098 1183.1 426.108 1271.8 844.893 1196.21C848.239 1187.64 852.915 1179.38 856.915 1173.07C861.56 1165.96 867.04 1159.29 873.084 1153.2C873.407 1152.81 873.729 1152.42 874.001 1152.24C867.819 1151.77 861.136 1148.38 854.454 1139.87L881.738 1142.82C892.943 1125.32 887.694 1111.53 878.455 1101.97ZM330.879 768.925L349.162 750.008C348.487 770.369 330.879 768.925 330.879 768.925ZM468.22 832.823C468.22 832.823 488.706 840.05 483.871 864.36C465.037 857.042 468.22 832.823 468.22 832.823ZM495.906 857.541C495.906 857.541 487.94 840.342 506.448 834.764L495.906 857.541ZM753.136 1014.93L778.651 1012.35C778.228 1013.19 767.034 1028.59 753.136 1014.93Z" fill="url(#paint6_linear)"/>
<path d="M-108.36 168.807C-97.6666 186.116 -90.1106 180.605 -69.6043 166.546C-51.4674 152.336 -48.9853 196.473 -15.7889 160.516C37.8009 102.471 57.6683 146.564 57.6683 146.564C68.7104 166.148 57.4857 202.752 57.4857 202.752C54.8802 210.101 51.9653 217.055 49.0826 223.135C48.6065 224.357 47.8792 225.564 47.3 226.655C46.2898 228.72 45.4857 231.048 44.8296 233.26C43.9935 236.463 43.8076 239.581 43.873 242.714C44.487 250.512 48.1466 257.623 54.9603 262.05C59.0305 264.805 62.4502 267.645 65.1748 270.818C67.3841 273.333 69.2974 276.079 70.8114 278.927C71.8551 280.869 72.6476 282.795 73.189 284.706C75.3868 291.476 75.7366 298.632 74.6378 306.074C74.079 310.546 72.9149 314.854 71.6027 319.279C70.5155 322.466 69.2803 325.769 67.9419 328.94C66.4105 332.475 64.6281 335.995 62.8906 339.267C60.96 342.902 58.8232 346.275 56.6865 349.647C54.0607 353.615 53.1477 357.939 53.1811 361.946C53.3814 364.337 53.8779 366.496 54.8766 368.685C55.5081 370.101 56.2875 371.401 57.4662 372.601C58.2907 373.653 59.3663 374.721 60.635 375.425C63.1273 377.081 66.0637 378.39 69.5794 378.607C69.8305 378.623 69.8307 378.623 70.0818 378.638L80.5838 379.539C84.6017 379.787 88.4267 380.4 92.3546 381.143C102.174 383.003 111.473 386.332 119.942 390.736C122.376 392.014 124.662 393.407 127.052 394.931C128.526 395.899 129.898 396.735 131.225 397.818C131.579 397.965 131.785 398.228 131.991 398.491C136.474 401.773 140.763 405.418 144.563 409.658C146.36 411.647 148.261 413.768 149.91 415.872C150.013 416.004 150.013 416.004 150.116 416.135C153.517 420.476 156.473 425.165 158.883 430.071C159.25 430.844 159.618 431.618 159.985 432.392C160.719 433.939 161.454 435.487 161.937 437.019C162.569 438.434 163.052 439.966 163.536 441.498C166.687 450.705 168.448 460.577 168.316 471.083C168.4 472.715 168.233 474.332 168.317 475.964C168.099 479.956 167.733 484.064 167.265 488.04C167.143 489.41 166.873 490.895 166.648 492.133C166.648 492.133 166.648 492.133 166.603 492.38C164.038 506.49 159.11 520.329 151.497 532.875C142.725 547.602 130.501 560.363 114.98 568.915C98.3188 578.147 82.8712 597.468 79.9987 616.065C79.8767 617.434 79.6517 618.672 79.5298 620.041C78.6778 634.508 85.8805 647.971 106.751 655.396C112.611 657.385 119.418 659.059 127.512 659.935C128.014 659.966 128.265 659.982 128.767 660.013C129.521 660.059 130.319 659.858 131.22 659.789C139.494 659.675 147.485 660.42 155.09 661.892C159.269 662.652 163.152 663.643 166.99 664.882C167.595 665.045 168.304 665.339 168.909 665.501C170.828 666.121 172.599 666.856 174.518 667.476C176.186 668.08 177.957 668.815 179.476 669.535C216.853 686.743 240.508 724.255 238.866 768.211C238.707 772.582 238.251 777.185 237.544 781.773C236.265 790.205 234.613 799.991 232.692 811.262C225.242 855.735 260.552 872.44 281.589 878.248C300.058 883.521 315.836 894.511 325.249 910.489C325.558 910.884 325.616 911.263 325.925 911.658C327.851 915.031 329.481 918.637 330.815 922.474C335.681 936.919 334.952 954.898 320.877 975.054C320.536 975.534 320.342 975.897 320.001 976.377C317.762 979.618 315.02 982.827 311.982 986.269C302.32 996.811 290.61 1005.35 278.108 1011.96C264.215 1019.23 224.046 1050.92 260.896 1093.38C300.367 1138.88 286.302 1171.55 275.817 1185.92C275.624 1186.29 275.134 1186.88 275.134 1186.88C274.986 1187 -175.467 1221.72 -175.467 1221.72C-318.365 815.476 -340.676 99.4402 -340.676 99.4402C-340.676 99.4402 -235.599 284.993 -148.245 183.996C-136.637 170.576 -120.716 148.767 -108.36 168.807Z" fill="url(#paint7_linear)"/>
<path d="M180.207 958.783C182.707 960.23 185.203 961.599 187.772 963.042C192.123 965.419 196.473 967.795 200.885 970.013C200.951 969.931 201.017 969.85 201.083 969.769C201.148 969.687 201.214 969.606 201.21 969.528C204.947 964.74 205.914 960.159 206.056 957.259C206.42 951.69 207.836 946.307 210.682 941.794C213.079 938.085 216.52 934.405 221.629 932.21C221.629 932.21 248.332 923.687 240.775 897.377C240.775 897.377 236.832 881.453 253.257 867.156C259.067 862.113 263.018 855.985 265.434 849.695C267.163 845.078 268.053 840.345 268.18 835.647C268.97 812.465 251.597 791.697 227.92 803.988C227.037 804.421 226.158 804.931 225.278 805.442C223.045 806.719 220.957 808.146 219.009 809.567C214.174 813.156 210.054 817.181 206.707 821.403C201.124 828.312 197.483 836.615 195.882 845.448C194.003 855.779 194.8 866.846 198.41 877.155C201.622 886.387 202.229 899.339 192.085 914.203C181.806 929.151 180.157 938.455 181.041 943.965C181.826 948.855 181.571 953.793 180.258 958.39C180.261 958.468 180.196 958.549 180.199 958.627C180.265 958.546 180.199 958.627 180.207 958.783Z" fill="url(#paint8_linear)"/>
<path d="M270.735 953.147C269.403 955.19 268.045 957.173 266.66 959.24C264.289 962.688 261.918 966.137 259.44 969.49C259.36 969.453 259.279 969.417 259.199 969.381C259.118 969.345 259.038 969.309 259.011 969.249C254.37 967.066 251.896 963.985 250.683 961.854C248.285 957.799 245.167 954.283 241.302 951.97C238.082 950.09 234.087 948.63 229.402 948.925C229.402 948.925 206.039 952.685 201.7 929.986C201.7 929.986 198.599 916.489 180.775 911.982C174.477 910.399 169.164 907.29 164.946 903.472C161.884 900.654 159.408 897.428 157.521 893.938C148.088 876.777 153.256 854.51 175.776 854.742C176.606 854.731 177.463 854.78 178.32 854.829C180.49 854.94 182.606 855.219 184.616 855.546C189.626 856.406 194.264 857.866 198.394 859.771C205.234 862.846 211.142 867.712 215.716 873.755C221.07 880.821 224.69 889.46 225.901 898.602C227.001 906.781 231.482 916.768 244.79 924.096C258.232 931.436 263.021 937.816 264.457 942.304C265.73 946.286 267.804 949.908 270.546 952.87C270.573 952.93 270.654 952.966 270.681 953.027C270.6 952.99 270.681 953.027 270.735 953.147Z" fill="url(#paint9_linear)"/>
<path d="M197.368 978.997C193.789 980.287 190.234 981.476 186.566 982.745C180.372 984.806 174.178 986.866 167.941 988.706C167.875 988.586 167.808 988.465 167.742 988.344C167.676 988.224 167.61 988.103 167.633 988.003C163.913 980.922 163.732 974.76 164.227 970.969C165.059 963.667 164.486 956.359 161.854 949.845C159.616 944.477 156.019 938.902 149.912 934.862C149.912 934.862 117.306 917.563 133.26 885.238C133.26 885.238 142.098 865.527 124.162 843.152C117.814 835.258 114.129 826.391 112.472 817.674C111.312 811.287 111.267 804.944 112.202 798.827C116.608 768.6 143.985 745.757 171.788 767.23C172.831 767.997 173.852 768.864 174.872 769.732C177.467 771.91 179.837 774.248 182.03 776.546C187.455 782.329 191.852 788.509 195.199 794.765C200.816 805.025 203.59 816.637 203.597 828.458C203.612 842.287 199.988 856.441 192.895 868.954C186.57 880.167 182.75 896.809 192.415 918.445C202.235 940.223 202.192 952.666 199.757 959.6C197.594 965.752 196.768 972.211 197.394 978.476C197.371 978.576 197.437 978.697 197.414 978.797C197.348 978.676 197.414 978.797 197.368 978.997Z" fill="url(#paint10_linear)"/>
<path d="M202.211 927.097C202.159 929.535 202.163 931.939 202.142 934.426C202.155 938.611 202.169 942.797 202.326 946.963C202.413 946.978 202.5 946.994 202.587 947.009C202.673 947.025 202.76 947.04 202.817 947.006C207.879 947.819 211.661 946.669 213.863 945.593C218.13 943.595 222.688 942.45 227.184 942.718C230.903 942.98 235.026 944.027 238.729 946.912C238.729 946.912 255.905 963.189 272.286 946.888C309.818 945.446 342.292 898.754 314.601 890.759C307.219 889.442 299.596 890.13 292.411 892.542C284.006 895.36 276.146 900.455 269.992 907.322C264.472 913.458 255.14 919.18 240.017 917.73C224.777 916.214 217.225 918.783 213.509 921.681C210.213 924.252 206.457 926.074 202.523 926.975C202.466 927.009 202.38 926.994 202.323 927.028C202.41 927.044 202.323 927.028 202.211 927.097Z" fill="url(#paint11_linear)"/>
</g>
</g>
<defs>
<linearGradient id="paint0_linear" x1="1390.09" y1="1514.03" x2="992.85" y2="345.213" gradientUnits="userSpaceOnUse">
<stop stop-color="#65E7F7" stop-opacity="0.38"/>
<stop offset="1" stop-color="#9C95EE"/>
</linearGradient>
<linearGradient id="paint1_linear" x1="1390.09" y1="1514.03" x2="992.85" y2="345.213" gradientUnits="userSpaceOnUse">
<stop stop-color="#FDE964"/>
<stop offset="1" stop-color="#FA8B4B"/>
</linearGradient>
<linearGradient id="paint2_linear" x1="1483.66" y1="1192.79" x2="1096.74" y2="-43.5786" gradientUnits="userSpaceOnUse">
<stop stop-color="#65E7F7" stop-opacity="0"/>
<stop offset="0.630274" stop-color="#9C95EE"/>
<stop offset="1" stop-color="#2750D1"/>
</linearGradient>
<linearGradient id="paint3_linear" x1="1887.84" y1="934.459" x2="1938.95" y2="417.732" gradientUnits="userSpaceOnUse">
<stop stop-color="#111B54"/>
<stop offset="1" stop-color="#6790F9"/>
</linearGradient>
<linearGradient id="paint4_linear" x1="1872.46" y1="704.975" x2="2558.8" y2="275.553" gradientUnits="userSpaceOnUse">
<stop offset="0.00540541" stop-color="#6FBBE1"/>
<stop offset="0.9951" stop-color="#2424CD"/>
</linearGradient>
<linearGradient id="paint5_linear" x1="1522.67" y1="795.497" x2="1730.11" y2="1194.16" gradientUnits="userSpaceOnUse">
<stop stop-color="#FFFF99"/>
<stop offset="0.5049" stop-color="#FF736E"/>
<stop offset="1" stop-color="#B8005F"/>
</linearGradient>
<linearGradient id="paint6_linear" x1="116.187" y1="612.581" x2="818.541" y2="1163.48" gradientUnits="userSpaceOnUse">
<stop offset="0.00540541" stop-color="#6FBBE1"/>
<stop offset="0.9951" stop-color="#2424CD" stop-opacity="0.3"/>
</linearGradient>
<linearGradient id="paint7_linear" x1="299.761" y1="380.952" x2="-274.343" y2="738.557" gradientUnits="userSpaceOnUse">
<stop stop-color="#FFFF99"/>
<stop offset="0.5049" stop-color="#FF736E"/>
<stop offset="1" stop-color="#B8005F"/>
</linearGradient>
<linearGradient id="paint8_linear" x1="219.252" y1="792.361" x2="190.042" y2="918.587" gradientUnits="userSpaceOnUse">
<stop stop-color="#FFFF99"/>
<stop offset="0.5049" stop-color="#FF736E"/>
<stop offset="1" stop-color="#B8005F"/>
</linearGradient>
<linearGradient id="paint9_linear" x1="153.149" y1="854.785" x2="246.654" y2="924.419" gradientUnits="userSpaceOnUse">
<stop stop-color="#FFFF99"/>
<stop offset="0.5049" stop-color="#FF736E"/>
<stop offset="1" stop-color="#B8005F"/>
</linearGradient>
<linearGradient id="paint10_linear" x1="143.595" y1="745.998" x2="194.431" y2="920.6" gradientUnits="userSpaceOnUse">
<stop stop-color="#FFFF99"/>
<stop offset="0.5049" stop-color="#FF736E"/>
<stop offset="1" stop-color="#B8005F"/>
</linearGradient>
<linearGradient id="paint11_linear" x1="354.782" y1="912.148" x2="238.296" y2="916.946" gradientUnits="userSpaceOnUse">
<stop stop-color="#FFFF99"/>
<stop offset="0.5049" stop-color="#FF736E"/>
<stop offset="1" stop-color="#B8005F"/>
</linearGradient>
<clipPath id="clip0">
<rect width="1920" height="1066" fill="white"/>
</clipPath>
</defs>
</svg>
