<svg width="508" height="795" viewBox="0 0 508 795" fill="none" xmlns="http://www.w3.org/2000/svg">
<g clip-path="url(#clip0)">
<path d="M4.20475 6.77844H10.4293V4.0426H1.10168V16.5283H4.20475V12.1216H9.56627V9.42247H4.20475V6.77844ZM17.8718 3.78554C14.1077 3.78554 11.2617 6.64991 11.2617 10.2855C11.2617 13.921 14.1077 16.7854 17.8718 16.7854C21.6359 16.7854 24.4819 13.921 24.4819 10.2855C24.4819 6.64991 21.6359 3.78554 17.8718 3.78554ZM17.8718 13.9026C15.852 13.9026 14.4015 12.2501 14.4015 10.2855C14.4015 8.32079 15.852 6.66827 17.8718 6.66827C19.8915 6.66827 21.3421 8.32079 21.3421 10.2855C21.3421 12.2501 19.8915 13.9026 17.8718 13.9026ZM31.4154 12.9111L34.1145 16.5283H37.8419L34.6287 12.3052C36.1159 11.5524 37.0156 10.1753 37.0156 8.43096C37.0156 5.73184 34.9408 4.0426 31.8377 4.0426H26.3844V16.5283H29.4875V12.9111H31.4154ZM29.4875 10.1202V6.77844H31.7827C32.9761 6.77844 33.9126 7.42109 33.9126 8.43096C33.9126 9.4592 32.9761 10.1202 31.7827 10.1202H29.4875ZM52.4851 4.0426H50.1716L45.7465 10.7078L41.3214 4.0426H39.0078V16.5283H42.1109L42.0926 10.2304L44.8835 14.5453V14.5637H46.6095V14.5453L49.382 10.2671V16.5283H52.4851V4.0426ZM62.4985 6.77844H68.723V4.0426H59.3954V16.5283H62.4985V12.1216H67.86V9.42247H62.4985V6.77844ZM73.2033 4.0426H70.1002V16.5283H73.2033V4.0426ZM78.5109 6.74171H84.8456V4.0426H75.4078V16.5283H84.8456V13.8292H78.5109V11.6626H84.056V9.01852H78.5109V6.74171ZM95.8872 13.7925H89.7178V4.0426H86.6147V16.5283H95.8872V13.7925ZM97.3554 4.0426V16.5283H102.368C106.297 16.5283 109.107 13.9577 109.107 10.2487C109.107 6.59482 106.297 4.0426 102.368 4.0426H97.3554ZM100.458 13.7374V6.83352H102.368C104.406 6.83352 105.948 8.32079 105.948 10.2487C105.948 12.2318 104.406 13.7374 102.368 13.7374H100.458ZM115.621 3.76717C112.683 3.76717 110.663 5.34625 110.663 7.8434C110.663 9.82642 111.82 10.9832 114.28 11.5157L116.337 11.9747C117.402 12.1767 117.659 12.6174 117.659 13.0397C117.659 13.719 117.053 14.1413 115.896 14.1413C114.427 14.1413 113.472 13.4803 113.271 12.3787H110.167C110.461 15.4634 112.995 16.7854 115.804 16.7854C118.926 16.7854 120.982 15.2247 120.982 12.7275C120.982 10.5792 119.495 9.66117 117.218 9.16541L115.474 8.76146C114.537 8.55949 114.042 8.26571 114.042 7.58634C114.042 6.77844 114.758 6.33777 115.823 6.33777C117.09 6.33777 117.677 6.98041 117.842 7.91684H120.964C120.652 4.55671 117.641 3.76717 115.621 3.76717Z" fill="#353839"/>
<path d="M20.5367 699.729C18.4986 699.729 17.0848 698.205 17.0848 696.13C17.0848 694.055 18.4986 692.531 20.5367 692.531C22.1892 692.531 23.2909 693.505 23.6214 695.065H26.8163C26.4124 691.834 23.9519 689.63 20.5551 689.63C16.791 689.63 13.945 692.366 13.945 696.13C13.945 699.894 16.791 702.63 20.5551 702.63C23.9519 702.63 26.4124 700.427 26.8163 697.195H23.6214C23.2909 698.756 22.1892 699.729 20.5367 699.729ZM33.6133 693.192C32.6585 693.192 31.8873 693.505 31.1712 694.055V689.337H28.1783V702.373H31.1712V696.773C31.6854 696.185 32.2546 695.892 32.787 695.892C33.7786 695.892 34.4212 696.498 34.4212 697.764V702.373H37.3957V697.287C37.3957 694.753 35.8534 693.192 33.6133 693.192ZM47.7435 697.728C47.7435 695.047 45.7789 693.266 43.2083 693.266C40.3439 693.266 38.4527 695.212 38.4527 697.911C38.4527 700.629 40.399 702.575 43.3184 702.575C45.5218 702.575 47.2294 701.418 47.6701 699.582H44.7139C44.4568 699.986 43.9794 700.225 43.3552 700.225C42.2168 700.225 41.5925 699.601 41.3538 698.793H47.6884C47.7435 698.444 47.7435 698.077 47.7435 697.728ZM43.1899 695.561C44.1447 695.561 44.7873 696.075 44.9526 697.048H41.3354C41.5557 696.149 42.18 695.561 43.1899 695.561ZM53.4951 700.06C52.2098 700.06 51.457 699.123 51.457 697.911C51.457 696.7 52.2098 695.781 53.4951 695.781C54.3948 695.781 55.0925 696.314 55.2394 697.122H58.0487C57.8284 694.827 55.9371 693.266 53.4767 693.266C50.6858 693.266 48.611 695.212 48.611 697.911C48.611 700.629 50.6858 702.575 53.4767 702.575C55.9371 702.575 57.8284 701.014 58.0487 698.719H55.2394C55.0925 699.527 54.3948 700.06 53.4951 700.06ZM63.468 699.288L65.5979 702.373H69.16L65.4878 697.103L68.8663 693.468H65.3225L62.2378 696.791V689.337H59.2449V702.373H62.2378V700.61L63.468 699.288ZM75.2681 693.303C74.2949 693.303 73.5054 693.56 72.8444 693.964V689.337H69.8515V702.373H72.8444V701.932C73.5054 702.336 74.2949 702.594 75.2681 702.594C77.6734 702.594 79.6932 700.592 79.6932 697.93C79.6932 695.286 77.6734 693.303 75.2681 693.303ZM74.6805 700.151C74.0379 700.151 73.3952 699.968 72.8444 699.344V696.553C73.3952 695.928 74.0379 695.726 74.6805 695.726C75.8923 695.726 76.7737 696.718 76.7737 697.93C76.7737 699.178 75.8923 700.151 74.6805 700.151ZM85.3856 693.266C82.558 693.266 80.5382 695.231 80.5382 697.911C80.5382 700.629 82.558 702.649 85.3856 702.649C88.1949 702.649 90.1963 700.629 90.1963 697.911C90.1963 695.231 88.1949 693.266 85.3856 693.266ZM85.3856 700.078C84.1554 700.078 83.3659 699.123 83.3659 697.93C83.3659 696.773 84.1554 695.837 85.3856 695.837C86.5791 695.837 87.387 696.773 87.387 697.93C87.387 699.123 86.5791 700.078 85.3856 700.078ZM96.9283 697.948L100.05 693.468H96.6529L95.0004 695.818L93.3295 693.468H89.9326L93.0541 697.93L89.9326 702.373H93.2193L95.0004 699.821L96.7814 702.373H100.05L96.9283 697.948Z" fill="white"/>
<path d="M9.88689 248.621H430.786C435.466 248.621 439.26 252.415 439.26 257.095V307.942C439.26 312.622 435.466 316.417 430.786 316.417H9.88689C5.20657 316.417 1.41241 312.622 1.41241 307.942V257.095C1.41241 252.415 5.20656 248.621 9.88689 248.621Z" fill="white" stroke="#A7B5C0" stroke-width="2.82482"/>
<path d="M31.8006 292.196C34.994 292.196 37.4898 290.371 37.4898 286.48V273.974H35.2624V286.453C35.2624 288.68 33.8669 290.21 31.6664 290.21C30.1099 290.21 29.0633 289.378 28.2851 288.439L27.1311 290.129C28.3656 291.578 29.8952 292.196 31.8006 292.196ZM47.2475 292.196C51.1924 292.196 53.6613 289.136 53.6613 285.379C53.6613 281.622 51.1924 278.59 47.2475 278.59C43.3027 278.59 40.8338 281.622 40.8338 285.379C40.8338 289.136 43.3027 292.196 47.2475 292.196ZM47.2475 290.398C44.4834 290.398 42.927 288.036 42.927 285.379C42.927 282.749 44.4834 280.388 47.2475 280.388C50.0116 280.388 51.5413 282.749 51.5413 285.379C51.5413 288.036 50.0116 290.398 47.2475 290.398ZM67.7304 291.874V282.723C67.7304 279.905 66.3081 278.59 63.5977 278.59C61.6387 278.59 59.8675 279.717 58.9551 280.79V273.974H56.9424V291.874H58.9551V282.4C59.7333 281.354 61.2361 280.388 62.7926 280.388C64.5369 280.388 65.7177 281.059 65.7177 283.34V291.874H67.7304ZM82.5104 291.874V282.776C82.5104 279.958 81.0881 278.59 78.3777 278.59C76.4455 278.59 74.6744 279.717 73.762 280.79V278.912H71.7493V291.874H73.762V282.4C74.5134 281.354 76.0162 280.388 77.5995 280.388C79.3438 280.388 80.4978 281.112 80.4978 283.393V291.874H82.5104Z" fill="#5C6266"/>
<path d="M3.52538 232.153V227.475H8.99989V225.357H3.52538V222.967H9.11853V220.848H1.11863V232.153H3.52538ZM13.2081 232.153V220.848H10.8014V232.153H13.2081ZM24.6048 232.153L22.0625 227.848C23.2828 227.56 24.537 226.492 24.537 224.492C24.537 222.391 23.0964 220.848 20.7405 220.848H15.4524V232.153H17.8592V228.136H19.6219L21.8422 232.153H24.6048ZM20.3846 226.018H17.8592V222.967H20.3846C21.3506 222.967 22.0794 223.543 22.0794 224.492C22.0794 225.441 21.3506 226.018 20.3846 226.018ZM30.3603 232.357C33.4111 232.357 34.8857 230.797 34.8857 228.73C34.8857 224.509 28.3943 225.713 28.3943 223.916C28.3943 223.238 28.9705 222.78 30.0044 222.78C31.1569 222.78 32.3773 223.17 33.2925 224.018L34.6315 222.255C33.5128 221.221 32.0213 220.679 30.2247 220.679C27.5638 220.679 25.9367 222.238 25.9367 224.119C25.9367 228.374 32.4451 227.001 32.4451 229.001C32.4451 229.645 31.801 230.255 30.479 230.255C28.9197 230.255 27.6824 229.56 26.8858 228.73L25.5807 230.56C26.6316 231.628 28.1909 232.357 30.3603 232.357ZM41.3248 232.153V222.967H44.6129V220.848H35.5961V222.967H38.9011V232.153H41.3248ZM60.6109 232.153V220.848H58.2041V227.95L52.9669 220.848H50.4924V232.153H52.8991V224.78L58.2889 232.153H60.6109ZM73.3822 232.153L69.0263 220.848H66.0094L61.6366 232.153H64.3823L65.0942 230.238H69.9416L70.6365 232.153H73.3822ZM69.2805 228.119H65.7552L67.5179 223.255L69.2805 228.119ZM86.6802 232.153V220.848H83.2904L80.5447 227.679L77.799 220.848H74.4261V232.153H76.8329V224.238L80.0193 232.153H81.0701L84.2565 224.238V232.153H86.6802ZM96.9253 232.153V230.035H91.3322V227.475H96.8067V225.357H91.3322V222.967H96.9253V220.848H88.9254V232.153H96.9253Z" fill="#4B5C69"/>
<path d="M9.88689 391.5H430.786C435.466 391.5 439.26 395.295 439.26 399.975V450.822C439.26 455.502 435.466 459.296 430.786 459.296H9.88689C5.20657 459.296 1.41241 455.502 1.41241 450.822V399.975C1.41241 395.295 5.20656 391.5 9.88689 391.5Z" fill="white" stroke="#32B4D8" stroke-width="2.82482"/>
<path d="M34.7257 434.849C39.5561 434.849 41.3273 432.192 41.3273 429.589C41.3273 422.907 30.7271 425.215 30.7271 421.19C30.7271 419.499 32.2568 418.345 34.4036 418.345C36.3627 418.345 38.2412 419.016 39.583 420.492L40.9248 418.855C39.4219 417.272 37.3019 416.359 34.5647 416.359C31.0492 416.359 28.4193 418.372 28.4193 421.324C28.4193 427.711 39.0194 425.161 39.0194 429.777C39.0194 431.146 37.9996 432.863 34.8062 432.863C32.2836 432.863 30.3514 431.629 29.1707 430.314L27.8557 432.004C29.3317 433.668 31.6127 434.849 34.7257 434.849ZM62.2307 434.527V425.161C62.2307 422.558 60.9694 421.243 58.6079 421.243C56.7294 421.243 54.9851 422.478 54.2605 423.658C53.8848 422.317 52.7577 421.243 50.7718 421.243C48.8665 421.243 47.1222 422.612 46.5854 423.444V421.565H44.5727V434.527H46.5854V425.054C47.2832 424.007 48.6786 423.041 49.9936 423.041C51.6842 423.041 52.382 424.088 52.382 425.725V434.527H54.3947V425.027C55.0656 424.007 56.4879 423.041 57.8297 423.041C59.4935 423.041 60.218 424.088 60.218 425.725V434.527H62.2307ZM67.2388 419.714C67.9902 419.714 68.6074 419.123 68.6074 418.372C68.6074 417.62 67.9902 417.003 67.2388 417.003C66.5142 417.003 65.897 417.62 65.897 418.372C65.897 419.123 66.5142 419.714 67.2388 419.714ZM68.2585 434.527V421.565H66.2458V434.527H68.2585ZM75.5474 434.849C76.7282 434.849 77.4527 434.5 77.9626 434.017L77.3722 432.514C77.1039 432.809 76.5671 433.051 76.0036 433.051C75.118 433.051 74.6886 432.353 74.6886 431.387V423.336H77.3185V421.565H74.6886V418.023H72.6759V421.565H70.5291V423.336H72.6759V431.817C72.6759 433.749 73.642 434.849 75.5474 434.849Z" fill="#5C6266"/>
<rect x="80.5078" y="404.527" width="1.41241" height="42.3724" fill="#5C6266"/>
<path d="M8.30498 374.807V372.688H3.52538V363.502H1.11863V374.807H8.30498ZM20.5326 374.807L16.1767 363.502H13.1598L8.78697 374.807H11.5327L12.2446 372.892H17.092L17.7869 374.807H20.5326ZM16.4309 370.773H12.9056L14.6683 365.909L16.4309 370.773ZM25.4776 375.01C28.5284 375.01 30.0029 373.451 30.0029 371.383C30.0029 367.163 23.5115 368.366 23.5115 366.57C23.5115 365.892 24.0878 365.434 25.1217 365.434C26.2742 365.434 27.4945 365.824 28.4097 366.671L29.7487 364.909C28.6301 363.875 27.1386 363.332 25.342 363.332C22.681 363.332 21.0539 364.892 21.0539 366.773C21.0539 371.027 27.5623 369.654 27.5623 371.654C27.5623 372.298 26.9182 372.908 25.5962 372.908C24.0369 372.908 22.7996 372.214 22.003 371.383L20.698 373.214C21.7488 374.281 23.3081 375.01 25.4776 375.01ZM36.4421 374.807V365.62H39.7302V363.502H30.7133V365.62H34.0184V374.807H36.4421ZM55.7281 374.807V363.502H53.3214V370.603L48.0842 363.502H45.6096V374.807H48.0164V367.434L53.4061 374.807H55.7281ZM68.4994 374.807L64.1436 363.502H61.1266L56.7538 374.807H59.4995L60.2114 372.892H65.0588L65.7537 374.807H68.4994ZM64.3978 370.773H60.8724L62.6351 365.909L64.3978 370.773ZM81.7975 374.807V363.502H78.4077L75.662 370.332L72.9162 363.502H69.5434V374.807H71.9501V366.892L75.1365 374.807H76.1874L79.3738 366.892V374.807H81.7975ZM92.0426 374.807V372.688H86.4494V370.129H91.9239V368.01H86.4494V365.62H92.0426V363.502H84.0427V374.807H92.0426Z" fill="#4B5C69"/>
<path d="M9.88689 558.16H430.786C435.466 558.16 439.26 561.954 439.26 566.634V617.481C439.26 622.161 435.466 625.956 430.786 625.956H9.88689C5.20657 625.956 1.41241 622.161 1.41241 617.481V566.634C1.41241 561.954 5.20656 558.16 9.88689 558.16Z" stroke="#F24154" stroke-width="2.82482"/>
<path d="M31.2537 586.058C32.0051 586.058 32.6223 585.468 32.6223 584.716C32.6223 583.965 32.0051 583.348 31.2537 583.348C30.5291 583.348 29.9119 583.965 29.9119 584.716C29.9119 585.468 30.5291 586.058 31.2537 586.058ZM28.4359 606.131C30.9048 606.131 32.2734 604.682 32.2734 602.133V587.91H30.2607V602.133C30.2607 603.77 29.3752 604.467 28.1675 604.467C27.3625 604.467 26.7721 604.092 26.3159 603.636L25.5913 605.165C26.4232 605.809 27.1209 606.131 28.4359 606.131ZM41.9507 601.193C45.8955 601.193 48.3644 598.134 48.3644 594.377C48.3644 590.62 45.8955 587.588 41.9507 587.588C38.0058 587.588 35.5369 590.62 35.5369 594.377C35.5369 598.134 38.0058 601.193 41.9507 601.193ZM41.9507 599.395C39.1866 599.395 37.6301 597.034 37.6301 594.377C37.6301 591.747 39.1866 589.386 41.9507 589.386C44.7148 589.386 46.2444 591.747 46.2444 594.377C46.2444 597.034 44.7148 599.395 41.9507 599.395ZM62.4335 600.871V591.72C62.4335 588.903 61.0112 587.588 58.3008 587.588C56.3418 587.588 54.5706 588.715 53.6582 589.788V582.972H51.6455V600.871H53.6582V591.398C54.4365 590.352 55.9393 589.386 57.4958 589.386C59.2401 589.386 60.4209 590.057 60.4209 592.338V600.871H62.4335ZM77.2136 600.871V591.774C77.2136 588.956 75.7913 587.588 73.0809 587.588C71.1487 587.588 69.3775 588.715 68.4651 589.788V587.91H66.4524V600.871H68.4651V591.398C69.2165 590.352 70.7193 589.386 72.3026 589.386C74.047 589.386 75.2009 590.11 75.2009 592.391V600.871H77.2136ZM85.339 601.193C88.6935 601.193 90.4378 599.449 90.4378 597.275C90.4378 592.23 82.4139 594.109 82.4139 591.264C82.4139 590.11 83.5141 589.225 85.2853 589.225C86.9491 589.225 88.3714 589.922 89.1497 590.862L90.0889 589.466C89.0423 588.42 87.4859 587.588 85.2853 587.588C82.1992 587.588 80.4549 589.305 80.4549 591.318C80.4549 596.122 88.4788 594.189 88.4788 597.329C88.4788 598.617 87.4053 599.557 85.4195 599.557C83.6483 599.557 82.0113 598.698 81.1526 597.705L80.106 599.154C81.421 600.549 83.219 601.193 85.339 601.193ZM111.366 600.871V591.506C111.366 588.903 110.104 587.588 107.743 587.588C105.864 587.588 104.12 588.822 103.395 590.003C103.02 588.661 101.893 587.588 99.9067 587.588C98.0013 587.588 96.257 588.956 95.7203 589.788V587.91H93.7076V600.871H95.7203V591.398C96.418 590.352 97.8135 589.386 99.1284 589.386C100.819 589.386 101.517 590.432 101.517 592.069V600.871H103.529V591.372C104.2 590.352 105.623 589.386 106.964 589.386C108.628 589.386 109.353 590.432 109.353 592.069V600.871H111.366ZM116.374 586.058C117.125 586.058 117.742 585.468 117.742 584.716C117.742 583.965 117.125 583.348 116.374 583.348C115.649 583.348 115.032 583.965 115.032 584.716C115.032 585.468 115.649 586.058 116.374 586.058ZM117.393 600.871V587.91H115.381V600.871H117.393ZM124.682 601.193C125.863 601.193 126.588 600.845 127.097 600.362L126.507 598.859C126.239 599.154 125.702 599.395 125.138 599.395C124.253 599.395 123.823 598.698 123.823 597.732V589.681H126.453V587.91H123.823V584.367H121.811V587.91H119.664V589.681H121.811V598.161C121.811 600.093 122.777 601.193 124.682 601.193ZM140.085 600.871V591.72C140.085 588.903 138.662 587.588 135.952 587.588C133.993 587.588 132.222 588.715 131.309 589.788V582.972H129.297V600.871H131.309V591.398C132.087 590.352 133.59 589.386 135.147 589.386C136.891 589.386 138.072 590.057 138.072 592.338V600.871H140.085ZM145.177 601.14C145.982 601.14 146.653 600.469 146.653 599.664C146.653 598.859 145.982 598.188 145.177 598.188C144.372 598.188 143.701 598.859 143.701 599.664C143.701 600.469 144.372 601.14 145.177 601.14ZM155.821 601.193C158.182 601.193 159.578 600.227 160.571 598.939L159.229 597.705C158.37 598.859 157.27 599.395 155.928 599.395C153.164 599.395 151.447 597.249 151.447 594.377C151.447 591.506 153.164 589.386 155.928 589.386C157.27 589.386 158.37 589.896 159.229 591.076L160.571 589.842C159.578 588.554 158.182 587.588 155.821 587.588C151.956 587.588 149.353 590.54 149.353 594.377C149.353 598.242 151.956 601.193 155.821 601.193ZM169.054 601.193C172.999 601.193 175.468 598.134 175.468 594.377C175.468 590.62 172.999 587.588 169.054 587.588C165.109 587.588 162.64 590.62 162.64 594.377C162.64 598.134 165.109 601.193 169.054 601.193ZM169.054 599.395C166.29 599.395 164.733 597.034 164.733 594.377C164.733 591.747 166.29 589.386 169.054 589.386C171.818 589.386 173.348 591.747 173.348 594.377C173.348 597.034 171.818 599.395 169.054 599.395ZM196.407 600.871V591.506C196.407 588.903 195.146 587.588 192.784 587.588C190.905 587.588 189.161 588.822 188.437 590.003C188.061 588.661 186.934 587.588 184.948 587.588C183.043 587.588 181.298 588.956 180.762 589.788V587.91H178.749V600.871H180.762V591.398C181.459 590.352 182.855 589.386 184.17 589.386C185.86 589.386 186.558 590.432 186.558 592.069V600.871H188.571V591.372C189.242 590.352 190.664 589.386 192.006 589.386C193.67 589.386 194.394 590.432 194.394 592.069V600.871H196.407Z" fill="#5C6266"/>
<path d="M114.406 505.172C114.406 501.272 117.568 498.11 121.468 498.11H433.611C437.512 498.11 440.674 501.272 440.674 505.172V541.895C440.674 545.795 437.512 548.957 433.611 548.957H121.468C117.568 548.957 114.406 545.795 114.406 541.895V505.172Z" fill="#F14155"/>
<rect x="388.414" y="536.446" width="28.2482" height="28.2482" transform="rotate(-45 388.414 536.446)" fill="#F14155"/>
<path d="M144.499 528.76V526.869H138.256V523.472H144.371V521.58H138.256V518.404H144.499V516.513H136.108V528.76H144.499ZM159.448 528.76V522.352C159.448 520.552 158.53 519.671 156.896 519.671C155.574 519.671 154.399 520.497 153.885 521.305C153.591 520.332 152.783 519.671 151.461 519.671C150.121 519.671 148.946 520.552 148.578 521.103V519.891H146.65V528.76H148.578V522.572C148.982 521.984 149.772 521.378 150.616 521.378C151.663 521.378 152.085 522.021 152.085 522.976V528.76H154.013V522.554C154.399 521.984 155.207 521.378 156.07 521.378C157.098 521.378 157.52 522.021 157.52 522.976V528.76H159.448ZM169.29 528.76V522.884C169.29 520.497 167.564 519.671 165.599 519.671C164.186 519.671 162.9 520.13 161.872 521.103L162.662 522.443C163.433 521.691 164.296 521.323 165.287 521.323C166.517 521.323 167.362 521.948 167.362 522.976V524.298C166.719 523.545 165.691 523.16 164.498 523.16C163.047 523.16 161.413 524.004 161.413 526.042C161.413 528.007 163.047 528.98 164.498 528.98C165.673 528.98 166.701 528.558 167.362 527.805V528.76H169.29ZM165.251 527.658C164.167 527.658 163.359 527.034 163.359 526.079C163.359 525.106 164.167 524.482 165.251 524.482C166.095 524.482 166.921 524.794 167.362 525.4V526.74C166.921 527.346 166.095 527.658 165.251 527.658ZM172.744 518.808C173.405 518.808 173.938 518.275 173.938 517.614C173.938 516.953 173.405 516.421 172.744 516.421C172.102 516.421 171.551 516.953 171.551 517.614C171.551 518.275 172.102 518.808 172.744 518.808ZM173.718 528.76V519.891H171.79V528.76H173.718ZM178.147 528.76V516.513H176.219V528.76H178.147ZM183.677 528.98C186.064 528.98 187.368 527.787 187.368 526.226C187.368 522.701 182.006 523.876 182.006 522.297C182.006 521.672 182.649 521.213 183.659 521.213C184.76 521.213 185.752 521.672 186.284 522.278L187.092 520.919C186.284 520.203 185.146 519.671 183.64 519.671C181.4 519.671 180.152 520.919 180.152 522.37C180.152 525.767 185.513 524.518 185.513 526.263C185.513 526.96 184.926 527.456 183.769 527.456C182.612 527.456 181.382 526.85 180.758 526.208L179.876 527.603C180.794 528.503 182.172 528.98 183.677 528.98ZM206.822 528.76V522.352C206.822 520.552 205.904 519.671 204.27 519.671C202.948 519.671 201.773 520.497 201.258 521.305C200.965 520.332 200.157 519.671 198.835 519.671C197.494 519.671 196.319 520.552 195.952 521.103V519.891H194.024V528.76H195.952V522.572C196.356 521.984 197.146 521.378 197.99 521.378C199.037 521.378 199.459 522.021 199.459 522.976V528.76H201.387V522.554C201.773 521.984 202.58 521.378 203.443 521.378C204.472 521.378 204.894 522.021 204.894 522.976V528.76H206.822ZM217.233 528.76V519.891H215.305V526.116C214.846 526.722 214.001 527.272 213.028 527.272C211.945 527.272 211.247 526.85 211.247 525.473V519.891H209.319V526.171C209.319 527.989 210.256 528.98 212.165 528.98C213.561 528.98 214.662 528.301 215.305 527.585V528.76H217.233ZM222.767 528.98C225.154 528.98 226.457 527.787 226.457 526.226C226.457 522.701 221.096 523.876 221.096 522.297C221.096 521.672 221.739 521.213 222.748 521.213C223.85 521.213 224.842 521.672 225.374 522.278L226.182 520.919C225.374 520.203 224.236 519.671 222.73 519.671C220.49 519.671 219.241 520.919 219.241 522.37C219.241 525.767 224.603 524.518 224.603 526.263C224.603 526.96 224.015 527.456 222.859 527.456C221.702 527.456 220.472 526.85 219.847 526.208L218.966 527.603C219.884 528.503 221.261 528.98 222.767 528.98ZM231.06 528.98C231.96 528.98 232.529 528.741 232.878 528.411L232.419 526.96C232.272 527.126 231.923 527.272 231.556 527.272C231.005 527.272 230.711 526.832 230.711 526.226V521.58H232.511V519.891H230.711V517.468H228.783V519.891H227.315V521.58H228.783V526.703C228.783 528.172 229.573 528.98 231.06 528.98ZM240.905 526.097V522.59C241.327 521.929 242.282 521.378 243.182 521.378C244.724 521.378 245.697 522.609 245.697 524.335C245.697 526.061 244.724 527.272 243.182 527.272C242.282 527.272 241.327 526.758 240.905 526.097ZM240.905 528.76V527.548C241.584 528.429 242.594 528.98 243.751 528.98C246.01 528.98 247.68 527.254 247.68 524.335C247.68 521.47 246.028 519.671 243.751 519.671C242.631 519.671 241.603 520.185 240.905 521.121V516.513H238.977V528.76H240.905ZM253.741 528.98C255.155 528.98 256.458 528.539 257.34 527.695L256.458 526.428C255.834 527.052 254.806 527.401 253.943 527.401C252.272 527.401 251.262 526.299 251.115 524.959H257.964V524.5C257.964 521.709 256.256 519.671 253.594 519.671C250.968 519.671 249.095 521.746 249.095 524.316C249.095 527.126 251.078 528.98 253.741 528.98ZM256.091 523.6H251.097C251.188 522.517 251.941 521.25 253.594 521.25C255.338 521.25 256.054 522.554 256.091 523.6ZM266.97 528.76V521.58H268.769V519.891H266.97V519.395C266.97 518.404 267.447 517.908 268.2 517.908C268.64 517.908 268.971 518.055 269.228 518.294L269.981 517.1C269.43 516.531 268.64 516.329 267.851 516.329C266.162 516.329 265.042 517.468 265.042 519.395V519.891H263.573V521.58H265.042V528.76H266.97ZM274.234 528.98C277.08 528.98 278.806 526.869 278.806 524.316C278.806 521.782 277.08 519.671 274.234 519.671C271.424 519.671 269.68 521.782 269.68 524.316C269.68 526.869 271.424 528.98 274.234 528.98ZM274.234 527.272C272.6 527.272 271.681 525.895 271.681 524.316C271.681 522.756 272.6 521.378 274.234 521.378C275.886 521.378 276.804 522.756 276.804 524.316C276.804 525.895 275.886 527.272 274.234 527.272ZM282.684 528.76V522.719C283.07 522.095 284.153 521.544 284.961 521.544C285.2 521.544 285.402 521.562 285.567 521.599V519.689C284.41 519.689 283.345 520.35 282.684 521.195V519.891H280.756V528.76H282.684ZM299.92 528.76V522.352C299.92 520.552 299.002 519.671 297.368 519.671C296.046 519.671 294.87 520.497 294.356 521.305C294.063 520.332 293.255 519.671 291.933 519.671C290.592 519.671 289.417 520.552 289.05 521.103V519.891H287.122V528.76H289.05V522.572C289.454 521.984 290.243 521.378 291.088 521.378C292.135 521.378 292.557 522.021 292.557 522.976V528.76H294.485V522.554C294.87 521.984 295.678 521.378 296.541 521.378C297.57 521.378 297.992 522.021 297.992 522.976V528.76H299.92ZM309.762 528.76V522.884C309.762 520.497 308.036 519.671 306.071 519.671C304.657 519.671 303.372 520.13 302.344 521.103L303.133 522.443C303.904 521.691 304.767 521.323 305.759 521.323C306.989 521.323 307.834 521.948 307.834 522.976V524.298C307.191 523.545 306.163 523.16 304.969 523.16C303.519 523.16 301.885 524.004 301.885 526.042C301.885 528.007 303.519 528.98 304.969 528.98C306.144 528.98 307.173 528.558 307.834 527.805V528.76H309.762ZM305.722 527.658C304.639 527.658 303.831 527.034 303.831 526.079C303.831 525.106 304.639 524.482 305.722 524.482C306.567 524.482 307.393 524.794 307.834 525.4V526.74C307.393 527.346 306.567 527.658 305.722 527.658ZM314.924 528.98C315.823 528.98 316.393 528.741 316.741 528.411L316.282 526.96C316.135 527.126 315.787 527.272 315.419 527.272C314.869 527.272 314.575 526.832 314.575 526.226V521.58H316.374V519.891H314.575V517.468H312.647V519.891H311.178V521.58H312.647V526.703C312.647 528.172 313.436 528.98 314.924 528.98ZM320.787 528.98C321.687 528.98 322.256 528.741 322.605 528.411L322.146 526.96C321.999 527.126 321.65 527.272 321.283 527.272C320.732 527.272 320.438 526.832 320.438 526.226V521.58H322.238V519.891H320.438V517.468H318.51V519.891H317.041V521.58H318.51V526.703C318.51 528.172 319.3 528.98 320.787 528.98ZM328.083 528.98C329.496 528.98 330.8 528.539 331.682 527.695L330.8 526.428C330.176 527.052 329.148 527.401 328.285 527.401C326.614 527.401 325.604 526.299 325.457 524.959H332.306V524.5C332.306 521.709 330.598 519.671 327.936 519.671C325.31 519.671 323.437 521.746 323.437 524.316C323.437 527.126 325.42 528.98 328.083 528.98ZM330.433 523.6H325.439C325.53 522.517 326.283 521.25 327.936 521.25C329.68 521.25 330.396 522.554 330.433 523.6ZM342.38 528.76V516.513H340.452V521.121C339.736 520.185 338.707 519.671 337.606 519.671C335.31 519.671 333.658 521.47 333.658 524.335C333.658 527.254 335.329 528.98 337.606 528.98C338.744 528.98 339.772 528.429 340.452 527.548V528.76H342.38ZM338.156 527.272C336.632 527.272 335.659 526.042 335.659 524.335C335.659 522.609 336.632 521.378 338.156 521.378C339.075 521.378 340.011 521.911 340.452 522.572V526.097C340.011 526.758 339.075 527.272 338.156 527.272ZM353.633 528.98C355.359 528.98 356.406 528.246 357.03 527.401L355.763 526.226C355.267 526.905 354.588 527.272 353.725 527.272C352.109 527.272 351.044 526.042 351.044 524.316C351.044 522.59 352.109 521.378 353.725 521.378C354.588 521.378 355.267 521.727 355.763 522.425L357.03 521.25C356.406 520.405 355.359 519.671 353.633 519.671C350.934 519.671 349.043 521.636 349.043 524.316C349.043 527.015 350.934 528.98 353.633 528.98ZM362.723 528.98C365.569 528.98 367.295 526.869 367.295 524.316C367.295 521.782 365.569 519.671 362.723 519.671C359.914 519.671 358.17 521.782 358.17 524.316C358.17 526.869 359.914 528.98 362.723 528.98ZM362.723 527.272C361.089 527.272 360.171 525.895 360.171 524.316C360.171 522.756 361.089 521.378 362.723 521.378C364.376 521.378 365.294 522.756 365.294 524.316C365.294 525.895 364.376 527.272 362.723 527.272ZM371.174 528.76V522.719C371.559 522.095 372.643 521.544 373.451 521.544C373.689 521.544 373.891 521.562 374.057 521.599V519.689C372.9 519.689 371.835 520.35 371.174 521.195V519.891H369.246V528.76H371.174ZM377.539 528.76V522.719C377.925 522.095 379.008 521.544 379.816 521.544C380.055 521.544 380.257 521.562 380.422 521.599V519.689C379.265 519.689 378.2 520.35 377.539 521.195V519.891H375.611V528.76H377.539ZM386.072 528.98C387.485 528.98 388.789 528.539 389.67 527.695L388.789 526.428C388.165 527.052 387.137 527.401 386.274 527.401C384.603 527.401 383.593 526.299 383.446 524.959H390.295V524.5C390.295 521.709 388.587 519.671 385.925 519.671C383.299 519.671 381.426 521.746 381.426 524.316C381.426 527.126 383.409 528.98 386.072 528.98ZM388.422 523.6H383.428C383.519 522.517 384.272 521.25 385.925 521.25C387.669 521.25 388.385 522.554 388.422 523.6ZM396.237 528.98C397.963 528.98 399.01 528.246 399.634 527.401L398.367 526.226C397.871 526.905 397.192 527.272 396.329 527.272C394.713 527.272 393.648 526.042 393.648 524.316C393.648 522.59 394.713 521.378 396.329 521.378C397.192 521.378 397.871 521.727 398.367 522.425L399.634 521.25C399.01 520.405 397.963 519.671 396.237 519.671C393.538 519.671 391.647 521.636 391.647 524.316C391.647 527.015 393.538 528.98 396.237 528.98ZM403.987 528.98C404.887 528.98 405.456 528.741 405.805 528.411L405.346 526.96C405.199 527.126 404.85 527.272 404.483 527.272C403.932 527.272 403.638 526.832 403.638 526.226V521.58H405.438V519.891H403.638V517.468H401.71V519.891H400.241V521.58H401.71V526.703C401.71 528.172 402.5 528.98 403.987 528.98ZM409.116 528.76V516.513H407.188V528.76H409.116ZM411.231 532.23C411.507 532.304 412.039 532.359 412.315 532.359C413.692 532.34 414.757 531.863 415.363 530.357L419.641 519.891H417.566L414.977 526.538L412.388 519.891H410.332L413.967 528.87L413.527 529.88C413.269 530.467 412.866 530.651 412.26 530.651C412.039 530.651 411.727 530.596 411.525 530.504L411.231 532.23ZM420.839 528.962C421.537 528.962 422.124 528.374 422.124 527.676C422.124 526.979 421.537 526.391 420.839 526.391C420.141 526.391 419.554 526.979 419.554 527.676C419.554 528.374 420.141 528.962 420.839 528.962Z" fill="white"/>
<path d="M9.11853 540.787V538.669H3.52538V536.109H8.99989V533.991H3.52538V531.601H9.11853V529.482H1.11863V540.787H9.11853ZM23.2541 540.787V529.482H19.8643L17.1186 536.313L14.3728 529.482H11V540.787H13.4067V532.872L16.5932 540.787H17.644L20.8304 532.872V540.787H23.2541ZM36.0415 540.787L31.6857 529.482H28.6687L24.2959 540.787H27.0416L27.7535 538.872H32.6009L33.2958 540.787H36.0415ZM31.9399 536.754H28.4145L30.1772 531.889L31.9399 536.754ZM39.4922 540.787V529.482H37.0855V540.787H39.4922ZM48.9229 540.787V538.669H44.1433V529.482H41.7365V540.787H48.9229Z" fill="#4B5C69"/>
<path d="M9.88689 107.743H430.786C435.466 107.743 439.26 111.537 439.26 116.218V167.065C439.26 171.745 435.466 175.539 430.786 175.539H9.88689C5.20657 175.539 1.41241 171.745 1.41241 167.065V116.218C1.41241 111.537 5.20656 107.743 9.88689 107.743Z" fill="white" stroke="#DAE3EA" stroke-width="2.82482"/>
<path d="M4.93749 90.912V86.2341H10.412V84.1155H4.93749V81.7257H10.5306V79.607H2.53074V90.912H4.93749ZM14.6202 90.912V79.607H12.2135V90.912H14.6202ZM26.017 90.912L23.4746 86.607C24.6949 86.3188 25.9492 85.251 25.9492 83.2511C25.9492 81.1494 24.5085 79.607 22.1526 79.607H16.8645V90.912H19.2713V86.8951H21.034L23.2543 90.912H26.017ZM21.7967 84.7765H19.2713V81.7257H21.7967C22.7628 81.7257 23.4916 82.3019 23.4916 83.2511C23.4916 84.2002 22.7628 84.7765 21.7967 84.7765ZM31.7724 91.1154C34.8233 91.1154 36.2978 89.5561 36.2978 87.4883C36.2978 83.268 29.8064 84.4714 29.8064 82.6748C29.8064 81.9968 30.3826 81.5392 31.4165 81.5392C32.569 81.5392 33.7894 81.929 34.7046 82.7765L36.0436 81.0138C34.9249 79.9799 33.4334 79.4375 31.6369 79.4375C28.9759 79.4375 27.3488 80.9969 27.3488 82.8782C27.3488 87.1324 33.8572 85.7595 33.8572 87.7595C33.8572 88.4035 33.2131 89.0137 31.8911 89.0137C30.3318 89.0137 29.0945 88.3188 28.2979 87.4883L26.9928 89.3188C28.0437 90.3866 29.603 91.1154 31.7724 91.1154ZM42.737 90.912V81.7257H46.0251V79.607H37.0082V81.7257H40.3133V90.912H42.737ZM62.023 90.912V79.607H59.6163V86.7086L54.379 79.607H51.9045V90.912H54.3112V83.5392L59.701 90.912H62.023ZM74.7943 90.912L70.4384 79.607H67.4215L63.0487 90.912H65.7944L66.5063 88.9968H71.3537L72.0486 90.912H74.7943ZM70.6927 86.8781H67.1673L68.93 82.0138L70.6927 86.8781ZM88.0923 90.912V79.607H84.7026L81.9568 86.4375L79.2111 79.607H75.8383V90.912H78.245V82.9968L81.4314 90.912H82.4822L85.6686 82.9968V90.912H88.0923ZM98.3375 90.912V88.7934H92.7443V86.2341H98.2188V84.1155H92.7443V81.7257H98.3375V79.607H90.3375V90.912H98.3375Z" fill="#4B5C69"/>
<path d="M11.299 683.136H33.8976C38.5779 683.136 42.3721 686.93 42.3721 691.611V714.209C42.3721 718.889 38.5779 722.684 33.8976 722.684H11.299C6.61868 722.684 2.82452 718.889 2.82452 714.209V691.611C2.82452 686.93 6.61868 683.136 11.299 683.136Z" fill="white" stroke="#DAE3EA" stroke-width="2.82482"/>
<path d="M64.2627 710.698C67.822 710.698 69.1271 708.74 69.1271 706.822C69.1271 701.898 61.3164 703.599 61.3164 700.633C61.3164 699.387 62.4435 698.537 64.0254 698.537C65.4689 698.537 66.8531 699.031 67.8418 700.119L68.8305 698.912C67.7231 697.746 66.161 697.073 64.1441 697.073C61.5537 697.073 59.6159 698.557 59.6159 700.732C59.6159 705.438 67.4265 703.559 67.4265 706.96C67.4265 707.969 66.6751 709.234 64.322 709.234C62.4633 709.234 61.0396 708.325 60.1695 707.356L59.2006 708.602C60.2882 709.828 61.969 710.698 64.2627 710.698ZM79.4477 710.46V700.91H77.9647V707.929C77.411 708.7 76.3037 709.373 75.137 709.373C73.8518 709.373 73.0015 708.878 73.0015 707.198V700.91H71.5184V707.652C71.5184 709.729 72.5665 710.698 74.5636 710.698C75.9873 710.698 77.2331 709.946 77.9647 709.116V710.46H79.4477ZM83.8925 707.87V703.54C84.4066 702.709 85.5733 701.997 86.7399 701.997C88.6778 701.997 89.8246 703.579 89.8246 705.695C89.8246 707.811 88.6778 709.373 86.7399 709.373C85.5733 709.373 84.4066 708.7 83.8925 707.87ZM83.8925 710.46V709.037C84.6044 710.006 85.771 710.698 87.1156 710.698C89.6071 710.698 91.367 708.799 91.367 705.695C91.367 702.65 89.6071 700.672 87.1156 700.672C85.8106 700.672 84.6637 701.305 83.8925 702.353V697.271H82.4095V710.46H83.8925ZM96.8086 710.698C99.2804 710.698 100.566 709.412 100.566 707.811C100.566 704.093 94.6533 705.477 94.6533 703.381C94.6533 702.531 95.464 701.879 96.7691 701.879C97.9951 701.879 99.0431 702.393 99.6165 703.085L100.309 702.056C99.5374 701.285 98.3905 700.672 96.7691 700.672C94.4951 700.672 93.2098 701.938 93.2098 703.421C93.2098 706.96 99.1222 705.537 99.1222 707.85C99.1222 708.799 98.3312 709.491 96.868 709.491C95.5629 709.491 94.3567 708.859 93.7239 708.127L92.9528 709.195C93.9217 710.223 95.2465 710.698 96.8086 710.698ZM107.187 710.698C108.927 710.698 109.955 709.986 110.687 709.037L109.698 708.127C109.065 708.977 108.255 709.373 107.266 709.373C105.229 709.373 103.964 707.791 103.964 705.675C103.964 703.559 105.229 701.997 107.266 701.997C108.255 701.997 109.065 702.373 109.698 703.243L110.687 702.333C109.955 701.384 108.927 700.672 107.187 700.672C104.339 700.672 102.421 702.847 102.421 705.675C102.421 708.522 104.339 710.698 107.187 710.698ZM114.248 710.46V703.698C114.683 702.927 115.929 702.175 116.839 702.175C117.076 702.175 117.254 702.195 117.432 702.234V700.712C116.127 700.712 115.02 701.443 114.248 702.452V700.91H112.765V710.46H114.248ZM120.024 699.545C120.577 699.545 121.032 699.11 121.032 698.557C121.032 698.003 120.577 697.548 120.024 697.548C119.49 697.548 119.035 698.003 119.035 698.557C119.035 699.11 119.49 699.545 120.024 699.545ZM120.775 710.46V700.91H119.292V710.46H120.775ZM125.217 707.87V703.54C125.731 702.709 126.897 701.997 128.064 701.997C130.002 701.997 131.149 703.579 131.149 705.695C131.149 707.811 130.002 709.373 128.064 709.373C126.897 709.373 125.731 708.7 125.217 707.87ZM125.217 710.46V709.037C125.928 710.006 127.095 710.698 128.44 710.698C130.931 710.698 132.691 708.799 132.691 705.695C132.691 702.65 130.931 700.672 128.44 700.672C127.135 700.672 125.988 701.305 125.217 702.353V697.271H123.734V710.46H125.217ZM139.418 710.698C140.98 710.698 142.265 710.183 143.215 709.234L142.503 708.265C141.751 709.037 140.644 709.472 139.556 709.472C137.5 709.472 136.234 707.969 136.116 706.169H143.847V705.794C143.847 702.927 142.147 700.672 139.26 700.672C136.531 700.672 134.554 702.907 134.554 705.675C134.554 708.661 136.59 710.698 139.418 710.698ZM142.384 705.082H136.116C136.195 703.619 137.203 701.898 139.24 701.898C141.415 701.898 142.364 703.658 142.384 705.082ZM153.76 710.698C154.63 710.698 155.164 710.441 155.539 710.085L155.104 708.977C154.907 709.195 154.511 709.373 154.096 709.373C153.443 709.373 153.127 708.859 153.127 708.147V702.215H155.065V700.91H153.127V698.299H151.644V700.91H150.062V702.215H151.644V708.463C151.644 709.887 152.356 710.698 153.76 710.698ZM161.332 710.698C164.239 710.698 166.058 708.443 166.058 705.675C166.058 702.907 164.239 700.672 161.332 700.672C158.425 700.672 156.606 702.907 156.606 705.675C156.606 708.443 158.425 710.698 161.332 710.698ZM161.332 709.373C159.295 709.373 158.148 707.633 158.148 705.675C158.148 703.737 159.295 701.997 161.332 701.997C163.369 701.997 164.496 703.737 164.496 705.675C164.496 707.633 163.369 709.373 161.332 709.373ZM175.986 710.698C176.856 710.698 177.39 710.441 177.766 710.085L177.331 708.977C177.133 709.195 176.737 709.373 176.322 709.373C175.67 709.373 175.353 708.859 175.353 708.147V702.215H177.291V700.91H175.353V698.299H173.87V700.91H172.288V702.215H173.87V708.463C173.87 709.887 174.582 710.698 175.986 710.698ZM187.335 710.46V703.717C187.335 701.641 186.287 700.672 184.29 700.672C182.846 700.672 181.541 701.503 180.869 702.294V697.271H179.386V710.46H180.869V703.48C181.442 702.709 182.55 701.997 183.697 701.997C184.982 701.997 185.852 702.491 185.852 704.172V710.46H187.335ZM194.607 710.698C196.169 710.698 197.454 710.183 198.403 709.234L197.692 708.265C196.94 709.037 195.833 709.472 194.745 709.472C192.689 709.472 191.423 707.969 191.305 706.169H199.036V705.794C199.036 702.927 197.336 700.672 194.449 700.672C191.72 700.672 189.743 702.907 189.743 705.675C189.743 708.661 191.779 710.698 194.607 710.698ZM197.573 705.082H191.305C191.384 703.619 192.392 701.898 194.429 701.898C196.604 701.898 197.553 703.658 197.573 705.082ZM208.237 710.46V705.22H211.895C214.505 705.22 216.028 703.401 216.028 701.246C216.028 699.09 214.545 697.271 211.895 697.271H206.596V710.46H208.237ZM211.697 703.757H208.237V698.734H211.697C213.259 698.734 214.327 699.763 214.327 701.246C214.327 702.729 213.259 703.757 211.697 703.757ZM225.21 710.46V703.895C225.21 701.582 223.529 700.672 221.513 700.672C219.95 700.672 218.724 701.186 217.696 702.254L218.388 703.282C219.239 702.373 220.168 701.958 221.315 701.958C222.699 701.958 223.727 702.689 223.727 703.975V705.695C222.956 704.805 221.868 704.39 220.563 704.39C218.942 704.39 217.222 705.398 217.222 707.534C217.222 709.61 218.942 710.698 220.563 710.698C221.849 710.698 222.936 710.243 223.727 709.373V710.46H225.21ZM221.097 709.63C219.713 709.63 218.744 708.76 218.744 707.554C218.744 706.328 219.713 705.458 221.097 705.458C222.145 705.458 223.154 705.853 223.727 706.644V708.443C223.154 709.234 222.145 709.63 221.097 709.63ZM227.649 714.198C227.926 714.277 228.42 714.336 228.737 714.336C230.002 714.316 230.971 713.782 231.545 712.398L236.33 700.91H234.708L231.545 708.74L228.361 700.91H226.759L230.754 710.559L230.121 712.003C229.785 712.794 229.35 713.011 228.697 713.011C228.46 713.011 228.104 712.952 227.887 712.853L227.649 714.198ZM240.052 710.698C242.405 710.698 244.244 709.353 244.244 706.486V697.271H242.603V706.466C242.603 708.107 241.575 709.234 239.953 709.234C238.806 709.234 238.035 708.621 237.462 707.929L236.611 709.175C237.521 710.243 238.648 710.698 240.052 710.698ZM255.191 710.46V700.91H253.708V707.929C253.154 708.7 252.047 709.373 250.88 709.373C249.595 709.373 248.745 708.878 248.745 707.198V700.91H247.262V707.652C247.262 709.729 248.31 710.698 250.307 710.698C251.731 710.698 252.976 709.946 253.708 709.116V710.46H255.191ZM266.082 710.46V703.757C266.082 701.681 265.034 700.672 263.037 700.672C261.613 700.672 260.308 701.503 259.636 702.294V700.91H258.153V710.46H259.636V703.48C260.189 702.709 261.297 701.997 262.463 701.997C263.749 701.997 264.599 702.531 264.599 704.212V710.46H266.082ZM273.256 710.698C274.996 710.698 276.024 709.986 276.756 709.037L275.767 708.127C275.134 708.977 274.323 709.373 273.335 709.373C271.298 709.373 270.032 707.791 270.032 705.675C270.032 703.559 271.298 701.997 273.335 701.997C274.323 701.997 275.134 702.373 275.767 703.243L276.756 702.333C276.024 701.384 274.996 700.672 273.256 700.672C270.408 700.672 268.49 702.847 268.49 705.675C268.49 708.522 270.408 710.698 273.256 710.698ZM281.247 710.698C282.117 710.698 282.65 710.441 283.026 710.085L282.591 708.977C282.393 709.195 281.998 709.373 281.583 709.373C280.93 709.373 280.614 708.859 280.614 708.147V702.215H282.552V700.91H280.614V698.299H279.131V700.91H277.549V702.215H279.131V708.463C279.131 709.887 279.843 710.698 281.247 710.698ZM285.378 699.545C285.932 699.545 286.387 699.11 286.387 698.557C286.387 698.003 285.932 697.548 285.378 697.548C284.844 697.548 284.389 698.003 284.389 698.557C284.389 699.11 284.844 699.545 285.378 699.545ZM286.13 710.46V700.91H284.647V710.46H286.13ZM293.26 710.698C296.167 710.698 297.986 708.443 297.986 705.675C297.986 702.907 296.167 700.672 293.26 700.672C290.353 700.672 288.534 702.907 288.534 705.675C288.534 708.443 290.353 710.698 293.26 710.698ZM293.26 709.373C291.223 709.373 290.077 707.633 290.077 705.675C290.077 703.737 291.223 701.997 293.26 701.997C295.297 701.997 296.424 703.737 296.424 705.675C296.424 707.633 295.297 709.373 293.26 709.373ZM308.333 710.46V703.757C308.333 701.681 307.285 700.672 305.288 700.672C303.864 700.672 302.559 701.503 301.887 702.294V700.91H300.404V710.46H301.887V703.48C302.44 702.709 303.548 701.997 304.714 701.997C306 701.997 306.85 702.531 306.85 704.212V710.46H308.333ZM317.876 707.87V703.54C318.39 702.709 319.556 701.997 320.723 701.997C322.661 701.997 323.808 703.579 323.808 705.695C323.808 707.811 322.661 709.373 320.723 709.373C319.556 709.373 318.39 708.7 317.876 707.87ZM317.876 710.46V709.037C318.588 710.006 319.754 710.698 321.099 710.698C323.59 710.698 325.35 708.799 325.35 705.695C325.35 702.65 323.59 700.672 321.099 700.672C319.794 700.672 318.647 701.305 317.876 702.353V697.271H316.393V710.46H317.876ZM329.249 710.46V697.271H327.766V710.46H329.249ZM336.38 710.698C339.287 710.698 341.106 708.443 341.106 705.675C341.106 702.907 339.287 700.672 336.38 700.672C333.473 700.672 331.654 702.907 331.654 705.675C331.654 708.443 333.473 710.698 336.38 710.698ZM336.38 709.373C334.343 709.373 333.197 707.633 333.197 705.675C333.197 703.737 334.343 701.997 336.38 701.997C338.417 701.997 339.544 703.737 339.544 705.675C339.544 707.633 338.417 709.373 336.38 709.373ZM347.36 714.336C349.693 714.336 351.908 713.347 351.908 710.183V700.91H350.425V702.353C349.654 701.305 348.507 700.672 347.221 700.672C344.71 700.672 342.97 702.571 342.97 705.636C342.97 708.72 344.73 710.579 347.221 710.579C348.566 710.579 349.733 709.847 350.425 708.878V710.243C350.425 712.339 348.942 713.11 347.36 713.11C345.995 713.11 345.046 712.754 344.255 711.805L343.504 712.912C344.631 714.02 345.738 714.336 347.36 714.336ZM347.577 709.274C345.659 709.274 344.512 707.732 344.512 705.636C344.512 703.52 345.659 701.997 347.577 701.997C348.764 701.997 349.911 702.709 350.425 703.54V707.712C349.911 708.542 348.764 709.274 347.577 709.274Z" fill="#6A7A87"/>
<path d="M11.299 753.757H33.8976C38.5779 753.757 42.3721 757.551 42.3721 762.231V784.83C42.3721 789.51 38.5779 793.304 33.8976 793.304H11.299C6.61868 793.304 2.82452 789.51 2.82452 784.83V762.231C2.82452 757.551 6.61868 753.757 11.299 753.757Z" fill="white" stroke="#DAE3EA" stroke-width="2.82482"/>
<path fill-rule="evenodd" clip-rule="evenodd" d="M31.6808 766.289C31.1806 765.806 30.5842 765.564 29.8915 765.564C29.1989 765.564 28.6089 765.806 28.1215 766.289L19.233 775.051L17.0013 772.856C16.5139 772.372 15.9239 772.13 15.2313 772.13C14.5387 772.13 13.9422 772.372 13.442 772.856C12.9546 773.34 12.7109 773.926 12.7109 774.614C12.7109 775.302 12.9546 775.888 13.442 776.372L17.4438 780.316C17.944 780.799 18.5404 781.041 19.233 781.041C19.9256 781.041 20.5156 780.799 21.003 780.316L31.6808 769.805C32.1682 769.309 32.4119 768.72 32.4119 768.038C32.4119 767.356 32.1682 766.773 31.6808 766.289Z" fill="#32B4D8"/>
<path d="M64.2627 781.826C67.822 781.826 69.1271 779.868 69.1271 777.95C69.1271 773.027 61.3164 774.727 61.3164 771.761C61.3164 770.515 62.4435 769.665 64.0254 769.665C65.4689 769.665 66.8531 770.159 67.8418 771.247L68.8305 770.041C67.7231 768.874 66.161 768.202 64.1441 768.202C61.5537 768.202 59.6159 769.685 59.6159 771.86C59.6159 776.566 67.4265 774.688 67.4265 778.089C67.4265 779.097 66.6751 780.363 64.322 780.363C62.4633 780.363 61.0396 779.453 60.1695 778.484L59.2006 779.73C60.2882 780.956 61.969 781.826 64.2627 781.826ZM79.4477 781.589V772.038H77.9647V779.058C77.411 779.829 76.3037 780.501 75.137 780.501C73.8518 780.501 73.0015 780.007 73.0015 778.326V772.038H71.5184V778.781C71.5184 780.857 72.5665 781.826 74.5636 781.826C75.9873 781.826 77.2331 781.075 77.9647 780.244V781.589H79.4477ZM83.8925 778.998V774.668C84.4066 773.837 85.5733 773.125 86.7399 773.125C88.6778 773.125 89.8246 774.707 89.8246 776.823C89.8246 778.939 88.6778 780.501 86.7399 780.501C85.5733 780.501 84.4066 779.829 83.8925 778.998ZM83.8925 781.589V780.165C84.6044 781.134 85.771 781.826 87.1156 781.826C89.6071 781.826 91.367 779.928 91.367 776.823C91.367 773.778 89.6071 771.801 87.1156 771.801C85.8106 771.801 84.6637 772.433 83.8925 773.481V768.4H82.4095V781.589H83.8925ZM96.8086 781.826C99.2804 781.826 100.566 780.541 100.566 778.939C100.566 775.221 94.6533 776.606 94.6533 774.51C94.6533 773.659 95.464 773.007 96.7691 773.007C97.9951 773.007 99.0431 773.521 99.6165 774.213L100.309 773.185C99.5374 772.414 98.3905 771.801 96.7691 771.801C94.4951 771.801 93.2098 773.066 93.2098 774.549C93.2098 778.089 99.1222 776.665 99.1222 778.978C99.1222 779.928 98.3312 780.62 96.868 780.62C95.5629 780.62 94.3567 779.987 93.7239 779.255L92.9528 780.323C93.9217 781.351 95.2465 781.826 96.8086 781.826ZM107.187 781.826C108.927 781.826 109.955 781.114 110.687 780.165L109.698 779.255C109.065 780.106 108.255 780.501 107.266 780.501C105.229 780.501 103.964 778.919 103.964 776.803C103.964 774.688 105.229 773.125 107.266 773.125C108.255 773.125 109.065 773.501 109.698 774.371L110.687 773.462C109.955 772.512 108.927 771.801 107.187 771.801C104.339 771.801 102.421 773.976 102.421 776.803C102.421 779.651 104.339 781.826 107.187 781.826ZM114.248 781.589V774.826C114.683 774.055 115.929 773.303 116.839 773.303C117.076 773.303 117.254 773.323 117.432 773.363V771.84C116.127 771.84 115.02 772.572 114.248 773.58V772.038H112.765V781.589H114.248ZM120.024 770.673C120.577 770.673 121.032 770.238 121.032 769.685C121.032 769.131 120.577 768.676 120.024 768.676C119.49 768.676 119.035 769.131 119.035 769.685C119.035 770.238 119.49 770.673 120.024 770.673ZM120.775 781.589V772.038H119.292V781.589H120.775ZM125.217 778.998V774.668C125.731 773.837 126.897 773.125 128.064 773.125C130.002 773.125 131.149 774.707 131.149 776.823C131.149 778.939 130.002 780.501 128.064 780.501C126.897 780.501 125.731 779.829 125.217 778.998ZM125.217 781.589V780.165C125.928 781.134 127.095 781.826 128.44 781.826C130.931 781.826 132.691 779.928 132.691 776.823C132.691 773.778 130.931 771.801 128.44 771.801C127.135 771.801 125.988 772.433 125.217 773.481V768.4H123.734V781.589H125.217ZM139.418 781.826C140.98 781.826 142.265 781.312 143.215 780.363L142.503 779.394C141.751 780.165 140.644 780.6 139.556 780.6C137.5 780.6 136.234 779.097 136.116 777.298H143.847V776.922C143.847 774.055 142.147 771.801 139.26 771.801C136.531 771.801 134.554 774.035 134.554 776.803C134.554 779.789 136.59 781.826 139.418 781.826ZM142.384 776.21H136.116C136.195 774.747 137.203 773.027 139.24 773.027C141.415 773.027 142.364 774.786 142.384 776.21ZM153.76 781.826C154.63 781.826 155.164 781.569 155.539 781.213L155.104 780.106C154.907 780.323 154.511 780.501 154.096 780.501C153.443 780.501 153.127 779.987 153.127 779.275V773.343H155.065V772.038H153.127V769.428H151.644V772.038H150.062V773.343H151.644V779.591C151.644 781.015 152.356 781.826 153.76 781.826ZM161.332 781.826C164.239 781.826 166.058 779.572 166.058 776.803C166.058 774.035 164.239 771.801 161.332 771.801C158.425 771.801 156.606 774.035 156.606 776.803C156.606 779.572 158.425 781.826 161.332 781.826ZM161.332 780.501C159.295 780.501 158.148 778.761 158.148 776.803C158.148 774.866 159.295 773.125 161.332 773.125C163.369 773.125 164.496 774.866 164.496 776.803C164.496 778.761 163.369 780.501 161.332 780.501ZM175.986 781.826C176.856 781.826 177.39 781.569 177.766 781.213L177.331 780.106C177.133 780.323 176.737 780.501 176.322 780.501C175.67 780.501 175.353 779.987 175.353 779.275V773.343H177.291V772.038H175.353V769.428H173.87V772.038H172.288V773.343H173.87V779.591C173.87 781.015 174.582 781.826 175.986 781.826ZM187.335 781.589V774.846C187.335 772.77 186.287 771.801 184.29 771.801C182.846 771.801 181.541 772.631 180.869 773.422V768.4H179.386V781.589H180.869V774.608C181.442 773.837 182.55 773.125 183.697 773.125C184.982 773.125 185.852 773.62 185.852 775.301V781.589H187.335ZM194.607 781.826C196.169 781.826 197.454 781.312 198.403 780.363L197.692 779.394C196.94 780.165 195.833 780.6 194.745 780.6C192.689 780.6 191.423 779.097 191.305 777.298H199.036V776.922C199.036 774.055 197.336 771.801 194.449 771.801C191.72 771.801 189.743 774.035 189.743 776.803C189.743 779.789 191.779 781.826 194.607 781.826ZM197.573 776.21H191.305C191.384 774.747 192.392 773.027 194.429 773.027C196.604 773.027 197.553 774.786 197.573 776.21ZM208.237 781.589V776.349H211.895C214.505 776.349 216.028 774.529 216.028 772.374C216.028 770.219 214.545 768.4 211.895 768.4H206.596V781.589H208.237ZM211.697 774.885H208.237V769.863H211.697C213.259 769.863 214.327 770.891 214.327 772.374C214.327 773.857 213.259 774.885 211.697 774.885ZM225.21 781.589V775.024C225.21 772.71 223.529 771.801 221.513 771.801C219.95 771.801 218.724 772.315 217.696 773.383L218.388 774.411C219.239 773.501 220.168 773.086 221.315 773.086C222.699 773.086 223.727 773.818 223.727 775.103V776.823C222.956 775.933 221.868 775.518 220.563 775.518C218.942 775.518 217.222 776.527 217.222 778.662C217.222 780.738 218.942 781.826 220.563 781.826C221.849 781.826 222.936 781.371 223.727 780.501V781.589H225.21ZM221.097 780.758C219.713 780.758 218.744 779.888 218.744 778.682C218.744 777.456 219.713 776.586 221.097 776.586C222.145 776.586 223.154 776.981 223.727 777.772V779.572C223.154 780.363 222.145 780.758 221.097 780.758ZM227.649 785.326C227.926 785.405 228.42 785.464 228.737 785.464C230.002 785.445 230.971 784.911 231.545 783.526L236.33 772.038H234.708L231.545 779.868L228.361 772.038H226.759L230.754 781.687L230.121 783.131C229.785 783.922 229.35 784.139 228.697 784.139C228.46 784.139 228.104 784.08 227.887 783.981L227.649 785.326ZM240.052 781.826C242.405 781.826 244.244 780.481 244.244 777.614V768.4H242.603V777.594C242.603 779.236 241.575 780.363 239.953 780.363C238.806 780.363 238.035 779.75 237.462 779.058L236.611 780.303C237.521 781.371 238.648 781.826 240.052 781.826ZM255.191 781.589V772.038H253.708V779.058C253.154 779.829 252.047 780.501 250.88 780.501C249.595 780.501 248.745 780.007 248.745 778.326V772.038H247.262V778.781C247.262 780.857 248.31 781.826 250.307 781.826C251.731 781.826 252.976 781.075 253.708 780.244V781.589H255.191ZM266.082 781.589V774.885C266.082 772.809 265.034 771.801 263.037 771.801C261.613 771.801 260.308 772.631 259.636 773.422V772.038H258.153V781.589H259.636V774.608C260.189 773.837 261.297 773.125 262.463 773.125C263.749 773.125 264.599 773.659 264.599 775.34V781.589H266.082ZM273.256 781.826C274.996 781.826 276.024 781.114 276.756 780.165L275.767 779.255C275.134 780.106 274.323 780.501 273.335 780.501C271.298 780.501 270.032 778.919 270.032 776.803C270.032 774.688 271.298 773.125 273.335 773.125C274.323 773.125 275.134 773.501 275.767 774.371L276.756 773.462C276.024 772.512 274.996 771.801 273.256 771.801C270.408 771.801 268.49 773.976 268.49 776.803C268.49 779.651 270.408 781.826 273.256 781.826ZM281.247 781.826C282.117 781.826 282.65 781.569 283.026 781.213L282.591 780.106C282.393 780.323 281.998 780.501 281.583 780.501C280.93 780.501 280.614 779.987 280.614 779.275V773.343H282.552V772.038H280.614V769.428H279.131V772.038H277.549V773.343H279.131V779.591C279.131 781.015 279.843 781.826 281.247 781.826ZM285.378 770.673C285.932 770.673 286.387 770.238 286.387 769.685C286.387 769.131 285.932 768.676 285.378 768.676C284.844 768.676 284.389 769.131 284.389 769.685C284.389 770.238 284.844 770.673 285.378 770.673ZM286.13 781.589V772.038H284.647V781.589H286.13ZM293.26 781.826C296.167 781.826 297.986 779.572 297.986 776.803C297.986 774.035 296.167 771.801 293.26 771.801C290.353 771.801 288.534 774.035 288.534 776.803C288.534 779.572 290.353 781.826 293.26 781.826ZM293.26 780.501C291.223 780.501 290.077 778.761 290.077 776.803C290.077 774.866 291.223 773.125 293.26 773.125C295.297 773.125 296.424 774.866 296.424 776.803C296.424 778.761 295.297 780.501 293.26 780.501ZM308.333 781.589V774.885C308.333 772.809 307.285 771.801 305.288 771.801C303.864 771.801 302.559 772.631 301.887 773.422V772.038H300.404V781.589H301.887V774.608C302.44 773.837 303.548 773.125 304.714 773.125C306 773.125 306.85 773.659 306.85 775.34V781.589H308.333ZM317.876 778.998V774.668C318.39 773.837 319.556 773.125 320.723 773.125C322.661 773.125 323.808 774.707 323.808 776.823C323.808 778.939 322.661 780.501 320.723 780.501C319.556 780.501 318.39 779.829 317.876 778.998ZM317.876 781.589V780.165C318.588 781.134 319.754 781.826 321.099 781.826C323.59 781.826 325.35 779.928 325.35 776.823C325.35 773.778 323.59 771.801 321.099 771.801C319.794 771.801 318.647 772.433 317.876 773.481V768.4H316.393V781.589H317.876ZM329.249 781.589V768.4H327.766V781.589H329.249ZM336.38 781.826C339.287 781.826 341.106 779.572 341.106 776.803C341.106 774.035 339.287 771.801 336.38 771.801C333.473 771.801 331.654 774.035 331.654 776.803C331.654 779.572 333.473 781.826 336.38 781.826ZM336.38 780.501C334.343 780.501 333.197 778.761 333.197 776.803C333.197 774.866 334.343 773.125 336.38 773.125C338.417 773.125 339.544 774.866 339.544 776.803C339.544 778.761 338.417 780.501 336.38 780.501ZM347.36 785.464C349.693 785.464 351.908 784.476 351.908 781.312V772.038H350.425V773.481C349.654 772.433 348.507 771.801 347.221 771.801C344.71 771.801 342.97 773.699 342.97 776.764C342.97 779.849 344.73 781.707 347.221 781.707C348.566 781.707 349.733 780.976 350.425 780.007V781.371C350.425 783.467 348.942 784.238 347.36 784.238C345.995 784.238 345.046 783.882 344.255 782.933L343.504 784.041C344.631 785.148 345.738 785.464 347.36 785.464ZM347.577 780.402C345.659 780.402 344.512 778.86 344.512 776.764C344.512 774.648 345.659 773.125 347.577 773.125C348.764 773.125 349.911 773.837 350.425 774.668V778.84C349.911 779.671 348.764 780.402 347.577 780.402Z" fill="#6A7A87"/>
</g>
<defs>
<clipPath id="clip0">
<rect width="508" height="795" fill="white"/>
</clipPath>
</defs>
</svg>
