<svg width="479" height="306" viewBox="0 0 479 306" fill="none" xmlns="http://www.w3.org/2000/svg">
<g style="mix-blend-mode:multiply">
<path d="M45.5968 131.435C91.175 111.695 153.428 198.283 109.186 232.629C53.1371 276.14 -18.9032 159.371 45.5968 131.435Z" fill="url(#paint0_linear)"/>
</g>
<g style="mix-blend-mode:multiply">
<path d="M355.699 73.5483C406.627 41.2295 456.956 96.0646 450.201 137.245C446.734 158.384 432.851 184.489 405.367 201.09C389.999 210.373 372.996 217.079 356.019 222.915C253.835 258.04 172.08 163.189 255.517 108.549C286.07 88.5413 290.11 123.156 355.699 73.5483Z" fill="url(#paint1_linear)"/>
</g>
<g style="mix-blend-mode:multiply">
<ellipse rx="53.5801" ry="53.6274" transform="matrix(0.995775 0.0918224 -0.0922517 0.995736 408.538 225.806)" fill="url(#paint2_linear)"/>
</g>
<g style="mix-blend-mode:multiply">
<ellipse rx="23.836" ry="23.857" transform="matrix(0.916333 -0.400418 0.400023 0.916505 348.169 31.9221)" fill="url(#paint3_linear)"/>
</g>
<g style="mix-blend-mode:multiply">
<ellipse rx="11.2457" ry="11.2556" transform="matrix(0.916333 -0.400418 0.400023 0.916505 293.89 38.2098)" fill="#ECECEC"/>
</g>
<path fill-rule="evenodd" clip-rule="evenodd" d="M299.479 134.973C299.479 132.086 301.82 129.745 304.707 129.745H392.514C395.402 129.745 397.743 132.086 397.743 134.973V183.942C397.743 186.83 395.402 189.171 392.514 189.171H304.707C301.82 189.171 299.479 186.83 299.479 183.942V134.973Z" fill="#474747" fill-opacity="0.1"/>
<path fill-rule="evenodd" clip-rule="evenodd" d="M282.796 116.811C282.796 113.923 285.137 111.582 288.025 111.582H375.832C378.719 111.582 381.06 113.923 381.06 116.811V165.78C381.06 168.667 378.719 171.008 375.832 171.008H288.025C285.137 171.008 282.796 168.667 282.796 165.78V116.811Z" fill="url(#paint4_linear)"/>
<path d="M374.335 148.035C374.258 148.167 373.861 148.631 373.437 149.054C372.718 149.781 372.679 149.86 372.679 150.47C372.679 151.409 372.243 153.368 371.807 154.439C370.998 156.451 369.265 158.529 367.532 159.575C365.093 161.043 361.846 161.415 359.111 160.554C358.2 160.262 356.634 159.522 356.634 159.39C356.634 159.349 357.108 159.297 357.687 159.283C358.894 159.258 360.101 158.914 361.127 158.304L361.82 157.88L361.023 157.603C359.894 157.205 358.88 156.292 358.623 155.432C358.546 155.154 358.572 155.14 359.29 155.14L360.034 155.127L359.405 154.823C358.66 154.438 357.98 153.791 357.646 153.128C357.403 152.652 357.095 151.448 357.184 151.355C357.211 151.316 357.48 151.396 357.787 151.501C358.672 151.833 358.788 151.753 358.275 151.197C357.313 150.191 357.017 148.696 357.479 147.28L357.697 146.644L358.545 147.504C360.278 149.238 362.319 150.271 364.654 150.574L365.296 150.653L365.257 150.004C365.142 148.324 366.156 146.788 367.761 146.193C368.351 145.981 369.353 145.955 370.007 146.139C370.264 146.218 370.751 146.484 371.098 146.721L371.727 147.158L372.42 146.932C372.806 146.814 373.319 146.615 373.55 146.482C373.768 146.363 373.96 146.297 373.96 146.336C373.96 146.561 373.485 147.33 373.088 147.753C372.547 148.348 372.702 148.402 373.793 148.004C374.45 147.784 374.464 147.784 374.335 148.035Z" fill="white"/>
<path fill-rule="evenodd" clip-rule="evenodd" d="M294.456 132.131H349.972V137.685H294.456V132.131Z" fill="white"/>
<path fill-rule="evenodd" clip-rule="evenodd" d="M299.452 143.794H349.972V149.348H299.452V143.794Z" fill="#DCDCDC"/>
<path fill-rule="evenodd" clip-rule="evenodd" d="M302.228 155.458H349.972V161.012H302.228V155.458Z" fill="#DCDCDC"/>
<path d="M282.792 111.813H334.09V156.051C334.09 158.939 331.749 161.28 328.861 161.28H282.792V111.813Z" fill="#12CAE8" fill-opacity="0.6"/>
<path fill-rule="evenodd" clip-rule="evenodd" d="M292.68 143.966H334.089V149.551H292.68V143.966Z" fill="#36BBD0"/>
<path fill-rule="evenodd" clip-rule="evenodd" d="M292.68 155.695H334.089V156.051C334.089 158.939 331.748 161.28 328.86 161.28H292.68V155.695Z" fill="#36BBD0"/>
<path fill-rule="evenodd" clip-rule="evenodd" d="M299.452 132.131H333.872V137.685H299.452V132.131Z" fill="#76E9FC"/>
<path fill-rule="evenodd" clip-rule="evenodd" d="M223.395 66.8265C223.395 63.9387 225.736 61.5977 228.623 61.5977H318.65C321.538 61.5977 323.879 63.9387 323.879 66.8265V136.9C323.879 139.788 321.538 142.129 318.65 142.129H228.623C225.736 142.129 223.395 139.788 223.395 136.9V66.8265Z" fill="#627EF7"/>
<path d="M285.805 101.862H282.271V114.693H276.971V101.863H274.323V97.4412H276.971V94.7863C276.971 91.179 278.466 89.0342 282.713 89.0342H286.249V93.4564H284.039C282.386 93.4564 282.275 94.0756 282.275 95.2269L282.271 97.4412H286.274L285.805 101.862Z" fill="white"/>
<path fill-rule="evenodd" clip-rule="evenodd" d="M250.598 163.789H258.37V182.672H250.598V163.789Z" fill="#E993DC"/>
<path d="M254.547 85.9456L241.223 91.4994C240.575 105.014 241.5 132.876 250.383 136.208C259.265 139.54 266.853 133.338 269.536 129.821L259.265 122.601L245.386 107.328C247.514 105.291 252.992 100.052 257.878 95.3871C262.763 90.7219 257.693 87.1489 254.547 85.9456Z" fill="#5D64C3"/>
<g style="mix-blend-mode:multiply">
<path fill-rule="evenodd" clip-rule="evenodd" d="M71.5654 96.0368C71.5654 92.8218 74.1717 90.2156 77.3867 90.2156H169.274C172.489 90.2156 175.095 92.8218 175.095 96.0368V167.236C175.095 170.451 172.489 173.057 169.274 173.057H77.3867C74.1717 173.057 71.5654 170.451 71.5654 167.236V96.0368Z" fill="url(#paint5_linear)"/>
</g>
<path fill-rule="evenodd" clip-rule="evenodd" d="M128.858 131.385L111.771 141.928V120.842L128.858 131.385Z" fill="white"/>
<path opacity="0.25" d="M71.5654 90.2153H125.34V105.069C125.34 107.957 122.999 110.298 120.112 110.298H71.5654V90.2153Z" fill="#2F4B98"/>
<mask id="mask0" mask-type="alpha" maskUnits="userSpaceOnUse" x="45" y="61" width="89" height="39">
<path fill-rule="evenodd" clip-rule="evenodd" d="M45.9346 66.8267C45.9346 63.9389 48.2756 61.5979 51.1634 61.5979H128.655C131.543 61.5979 133.884 63.9389 133.884 66.8267V94.0243C133.884 96.9121 131.543 99.2531 128.655 99.2531H51.1634C48.2756 99.2531 45.9346 96.9121 45.9346 94.0243V66.8267Z" fill="white"/>
</mask>
<g mask="url(#mask0)">
<g style="mix-blend-mode:multiply">
<path fill-rule="evenodd" clip-rule="evenodd" d="M45.9346 67.4192C45.9346 64.2042 48.5408 61.5979 51.7558 61.5979H128.063C131.278 61.5979 133.884 64.2042 133.884 67.4192V93.4318C133.884 96.6468 131.278 99.2531 128.063 99.2531H51.7558C48.5408 99.2531 45.9346 96.6468 45.9346 93.4318V67.4192Z" fill="url(#paint6_linear)"/>
</g>
</g>
<path d="M77.9236 84.2714C61.1232 94.0453 57.6127 70.8966 46.0781 79.3844V94.2178C46.0781 97.1056 48.4191 99.4466 51.3069 99.4466L128.612 99.4466C131.5 99.4466 133.841 97.1056 133.841 94.2178V67.2957C127.702 67.1435 124.897 74.1199 114.784 81.4421C101.996 90.7016 94.724 74.4975 77.9236 84.2714Z" fill="white" fill-opacity="0.5"/>
<path fill-rule="evenodd" clip-rule="evenodd" d="M159.694 283.149C181.773 280.184 180.713 250.451 190.481 230.429C198.942 213.084 204.861 219.729 218.033 203.142C231.204 186.554 238.685 169.425 238.685 169.425L247.364 160.744C247.364 160.744 250.056 163.572 255.565 166.138C261.073 168.703 265.282 166.442 265.282 166.442C265.282 166.442 264.708 140.706 263.562 137.47C261.371 131.29 245.31 124.989 245.31 124.989L247.364 116.28L248.528 122.666C248.528 122.666 257.442 125.347 263.225 122.666C269.007 119.986 271.209 116.142 269.337 113.476C267.464 110.81 246.473 98.6894 246.473 98.6894L260.374 80.5764C262.557 77.731 262.214 73.6906 259.581 71.2547C254.924 66.9452 247.629 67.3239 243.443 72.0924L230.21 87.1653L178.848 169.265C178.848 169.265 117.359 241.543 114.028 257.371C113.131 265.526 124.651 282.365 147.318 283.558C151.853 283.796 155.985 283.647 159.694 283.149Z" fill="#FEB5F4"/>
<path fill-rule="evenodd" clip-rule="evenodd" d="M181.641 188.189C181.641 188.189 181.627 191.258 181.017 194.149C181.017 194.149 193.069 202.11 200.633 202.11C215.9 202.943 222.759 196.156 222.759 196.156C222.759 196.156 223.542 195.521 224.566 194.149C225.589 192.777 228.964 187.589 228.964 187.589L181.641 188.189Z" fill="#E993DC"/>
<path fill-rule="evenodd" clip-rule="evenodd" d="M164.547 39.2226C164.547 32.8695 169.697 27.7192 176.05 27.7192H240.759C247.113 27.7192 252.263 32.8695 252.263 39.2226V177.278C252.263 183.631 247.113 188.781 240.759 188.781H176.05C169.697 188.781 164.547 183.631 164.547 177.278V39.2226Z" fill="#2F4B98"/>
<path fill-rule="evenodd" clip-rule="evenodd" d="M168.988 40.0058C168.988 35.6741 172.5 32.1626 176.831 32.1626H194.114C194.98 32.1626 195.682 32.8649 195.682 33.7312V35.5638C195.682 37.2965 197.087 38.7011 198.819 38.7011H218.036C219.769 38.7011 221.174 37.2965 221.174 35.5638V33.7312C221.174 32.8649 221.876 32.1626 222.742 32.1626H239.978C244.31 32.1626 247.822 35.6741 247.822 40.0058V176.495C247.822 180.827 244.31 184.338 239.978 184.338H176.831C172.5 184.338 168.988 180.827 168.988 176.495V40.0058Z" fill="#F5F5F5"/>
<mask id="mask1" mask-type="alpha" maskUnits="userSpaceOnUse" x="168" y="32" width="80" height="153">
<path fill-rule="evenodd" clip-rule="evenodd" d="M168.988 40.0058C168.988 35.6741 172.5 32.1626 176.831 32.1626H194.114C194.98 32.1626 195.682 32.8649 195.682 33.7312V35.5638C195.682 37.2965 197.087 38.7011 198.819 38.7011H218.036C219.769 38.7011 221.174 37.2965 221.174 35.5638V33.7312C221.174 32.8649 221.876 32.1626 222.742 32.1626H239.978C244.31 32.1626 247.822 35.6741 247.822 40.0058V176.495C247.822 180.827 244.31 184.338 239.978 184.338H176.831C172.5 184.338 168.988 180.827 168.988 176.495V40.0058Z" fill="white"/>
</mask>
<g mask="url(#mask1)">
<path fill-rule="evenodd" clip-rule="evenodd" d="M168.988 40.0058C168.988 35.6741 172.5 32.1626 176.831 32.1626H194.114C194.98 32.1626 195.682 32.8649 195.682 33.7312V35.5638C195.682 37.2965 197.087 38.7011 198.819 38.7011H218.036C219.769 38.7011 221.174 37.2965 221.174 35.5638V33.7312C221.174 32.8649 221.876 32.1626 222.742 32.1626H239.978C244.31 32.1626 247.822 35.6741 247.822 40.0058V176.495C247.822 180.827 244.31 184.338 239.978 184.338H176.831C172.5 184.338 168.988 180.827 168.988 176.495V40.0058Z" fill="#F5F5F5"/>
<g style="mix-blend-mode:multiply">
<path fill-rule="evenodd" clip-rule="evenodd" d="M168.989 31.6074H247.822V128.8H168.989V31.6074Z" fill="url(#paint7_linear)"/>
</g>
<path d="M249.487 50.2119C214.58 114.28 169.058 77.0621 154.963 127.82C154.69 128.805 154.554 129.872 154.554 130.894C154.554 137.242 159.423 142.529 165.751 143.05L208.79 146.593C240.595 149.212 269.096 126.097 270.48 94.2143C272.386 50.3218 269.066 14.276 249.487 50.2119Z" fill="url(#paint8_linear)"/>
<g style="mix-blend-mode:hard-light" opacity="0.7">
<path d="M205.351 150.737C147.892 109.414 264.754 30.7732 162.604 21.6094L125.408 166.01C166.212 147.219 244.573 178.943 205.351 150.737Z" fill="url(#paint9_linear)"/>
</g>
</g>
<path fill-rule="evenodd" clip-rule="evenodd" d="M168.988 128.8H247.822V176.495C247.822 180.827 244.31 184.338 239.978 184.338H176.831C172.5 184.338 168.988 180.827 168.988 176.495V128.8Z" fill="white"/>
<path fill-rule="evenodd" clip-rule="evenodd" d="M176.206 141.573H241.16V147.127H176.206V141.573Z" fill="#C9C1DC"/>
<path fill-rule="evenodd" clip-rule="evenodd" d="M176.206 152.125H241.16V157.679H176.206V152.125Z" fill="#F1F1F1"/>
<path fill-rule="evenodd" clip-rule="evenodd" d="M175.869 162.516H228.403V168.081H175.869V162.516Z" fill="#F1F1F1"/>
<path fill-rule="evenodd" clip-rule="evenodd" d="M228.946 38.8271C230.173 38.8271 231.167 37.8325 231.167 36.6056C231.167 35.3787 230.173 34.384 228.946 34.384C227.72 34.384 226.726 35.3787 226.726 36.6056C226.726 37.8325 227.72 38.8271 228.946 38.8271Z" fill="#2F4B98"/>
<path fill-rule="evenodd" clip-rule="evenodd" d="M237.273 38.8271C238.5 38.8271 239.494 37.8325 239.494 36.6056C239.494 35.3787 238.5 34.384 237.273 34.384C236.047 34.384 235.053 35.3787 235.053 36.6056C235.053 37.8325 236.047 38.8271 237.273 38.8271Z" fill="#2F4B98"/>
<path fill-rule="evenodd" clip-rule="evenodd" d="M324.005 280.544C336.593 250.265 336.217 232.575 333.792 220.81C332.059 212.395 323.133 196.773 318.189 188.558C316.163 185.192 312.506 183.191 308.577 183.191C306.681 183.191 304.499 183.191 302.238 183.191C296.001 183.191 294.499 175.282 287.233 175.282C279.968 175.282 278.716 179.657 274.898 179.657C271.079 179.657 269.57 175.282 262.43 175.282C255.29 175.282 253.366 183.862 250.89 181.021C248.999 178.852 234.594 141.832 227.892 124.456C225.985 119.512 220.495 117.002 215.501 118.777C210.38 120.597 207.733 126.25 209.614 131.349L235.154 200.594C235.154 200.594 226.332 194.942 221.707 193.962C217.082 192.983 212.303 196.818 212.303 196.818C212.303 196.818 224.936 214.732 229.922 222.22C241.728 239.95 249.117 251.813 253.366 256.95C262.43 267.911 264.136 259.941 268.731 272.016C273.326 284.091 268.725 299.189 274.898 302.635C281.791 306.485 311.417 310.822 324.005 280.544Z" fill="#FEB5F4"/>
<path fill-rule="evenodd" clip-rule="evenodd" d="M210.976 126.326C209.777 122.947 211.49 119.226 214.838 117.941C218.186 116.655 221.947 118.273 223.317 121.587L228.223 133.463C228.26 133.552 228.264 133.649 228.228 133.738C227.966 134.398 226.659 137.27 223.359 138.576C220.069 139.878 216.354 138.891 215.503 138.633C215.388 138.598 215.299 138.51 215.259 138.397L210.976 126.326Z" fill="#FFEAFC"/>
<path fill-rule="evenodd" clip-rule="evenodd" d="M222.405 209.2C222.631 208.42 222.496 207.58 222.036 206.91L215.262 197.038C214.336 195.69 212.461 195.408 211.181 196.426L221.97 210.704L222.405 209.2Z" fill="#F6E5F4"/>
<path fill-rule="evenodd" clip-rule="evenodd" d="M132.348 266.258C132.348 266.258 127.448 235.67 129.017 232.379C135.124 224.048 137.811 216.237 138.404 207.84C139.371 194.151 132.065 169.454 136.584 158.597C151.907 121.78 158.365 81.5918 158.365 81.5918C158.365 81.5918 171.141 83.8716 173.46 95.0387C177.345 113.743 164.542 126.038 167.024 145.755C168.393 156.632 177.972 157.818 180.445 171.608C181.086 175.181 181.632 178.951 182.089 182.576C183.47 193.526 192.571 202.111 203.608 202.111H206.185L132.348 266.258Z" fill="#FEB5F4"/>
<path fill-rule="evenodd" clip-rule="evenodd" d="M264.779 149.747H261.233C260.367 149.747 259.665 150.449 259.665 151.315V160.47C259.665 163.586 262.19 166.111 265.306 166.111L264.779 149.747Z" fill="#FFEAFC"/>
<path fill-rule="evenodd" clip-rule="evenodd" d="M155.908 99.7022C157.385 99.3216 158.518 98.1339 158.828 96.6397L161.394 84.2804C161.799 82.331 160.311 80.5017 158.321 80.5017L155.033 99.9279L155.908 99.7022Z" fill="#FFEAFC"/>
<path fill-rule="evenodd" clip-rule="evenodd" d="M94.7935 269.884C99.8526 269.884 103.954 265.782 103.954 260.721C103.954 255.659 99.8526 251.557 94.7935 251.557C89.7345 251.557 85.6333 255.659 85.6333 260.721C85.6333 265.782 89.7345 269.884 94.7935 269.884Z" fill="#FEB5F4"/>
<path fill-rule="evenodd" clip-rule="evenodd" d="M235.159 200.597C235.159 200.597 237.918 216.938 240.578 225.004C243.237 233.069 252.118 255.286 252.118 255.286L243.136 242.058L234.998 229.927C234.998 229.927 232.576 224.185 232.966 219.708C233.225 216.74 234.998 212.585 235.233 210.189C235.625 206.198 235.159 200.597 235.159 200.597Z" fill="#E993DC"/>
<path fill-rule="evenodd" clip-rule="evenodd" d="M194.104 74.3131C190.383 78.0361 190.383 84.0723 194.104 87.7953L208.423 102.12L221.9 88.6379L221.9 88.6379L222.743 87.795C226.464 84.072 226.464 78.0358 222.743 74.3128C219.021 70.5898 212.987 70.5897 209.266 74.3128L208.423 75.1557L207.581 74.3131C203.859 70.5901 197.826 70.5901 194.104 74.3131Z" fill="white"/>
<defs>
<linearGradient id="paint0_linear" x1="16.1661" y1="103.941" x2="146.071" y2="111.735" gradientUnits="userSpaceOnUse">
<stop stop-color="#A37FFF"/>
<stop offset="1" stop-color="#1FE9FF"/>
</linearGradient>
<linearGradient id="paint1_linear" x1="401.118" y1="248.692" x2="232.951" y2="186.067" gradientUnits="userSpaceOnUse">
<stop stop-color="#FFD123"/>
<stop offset="1" stop-color="#FF6EAA"/>
</linearGradient>
<linearGradient id="paint2_linear" x1="66.7192" y1="120.638" x2="1.94407" y2="58.7509" gradientUnits="userSpaceOnUse">
<stop stop-color="#A37FFF"/>
<stop offset="1" stop-color="#1FE9FF"/>
</linearGradient>
<linearGradient id="paint3_linear" x1="29.2927" y1="-12.5792" x2="25.9575" y2="59.019" gradientUnits="userSpaceOnUse">
<stop stop-color="#FFD123"/>
<stop offset="1" stop-color="#FF6EAA"/>
</linearGradient>
<linearGradient id="paint4_linear" x1="331.928" y1="111.582" x2="331.928" y2="171.008" gradientUnits="userSpaceOnUse">
<stop stop-color="#28E2FF"/>
<stop offset="1" stop-color="#28E2FF"/>
</linearGradient>
<linearGradient id="paint5_linear" x1="95.9253" y1="61.1784" x2="163.381" y2="137.062" gradientUnits="userSpaceOnUse">
<stop stop-color="#23E2FF"/>
<stop offset="1" stop-color="#7BF969"/>
</linearGradient>
<linearGradient id="paint6_linear" x1="50.5338" y1="116.652" x2="147.551" y2="93.815" gradientUnits="userSpaceOnUse">
<stop stop-color="#FFD123"/>
<stop offset="1" stop-color="#FF6EAA"/>
</linearGradient>
<linearGradient id="paint7_linear" x1="176.483" y1="10.5021" x2="227.391" y2="125.751" gradientUnits="userSpaceOnUse">
<stop stop-color="#A37FFF"/>
<stop offset="1" stop-color="#1FE9FF"/>
</linearGradient>
<linearGradient id="paint8_linear" x1="160.64" y1="204.777" x2="294.772" y2="191.183" gradientUnits="userSpaceOnUse">
<stop stop-color="#FFD123"/>
<stop offset="1" stop-color="#FF6EAA"/>
</linearGradient>
<linearGradient id="paint9_linear" x1="261.989" y1="36.9144" x2="94.8356" y2="111.222" gradientUnits="userSpaceOnUse">
<stop stop-color="#23E2FF"/>
<stop offset="1" stop-color="#7BF969"/>
</linearGradient>
</defs>
</svg>
