<svg width="135" height="135" viewBox="0 0 135 135" fill="none" xmlns="http://www.w3.org/2000/svg">
<mask id="mask0" mask-type="alpha" maskUnits="userSpaceOnUse" x="0" y="0" width="135" height="135">
<path fill-rule="evenodd" clip-rule="evenodd" d="M47.2771 0.589844H87.6712C101.069 0.589844 107.765 0.589844 114.975 2.86939C122.848 5.73383 129.048 11.9364 131.915 19.8069C134.192 27.017 134.192 33.7155 134.192 47.1125V87.5038C134.192 100.901 134.192 107.597 131.915 114.809C129.048 122.68 122.848 128.88 114.975 131.747C107.765 134.026 101.069 134.026 87.6712 134.026H47.2771C33.8821 134.026 27.1834 134.026 19.9733 131.747C12.1004 128.88 5.89993 122.68 3.03322 114.809C0.755859 107.597 0.755859 100.901 0.755859 87.5038V47.1125C0.755859 33.7155 0.755859 27.017 3.03322 19.8069C5.89993 11.9364 12.1004 5.73383 19.9733 2.86939C27.1834 0.589844 33.8821 0.589844 47.2771 0.589844Z" fill="white"/>
</mask>
<g mask="url(#mask0)">
<path fill-rule="evenodd" clip-rule="evenodd" d="M0.755859 0.589844H134.192V134.026H0.755859V0.589844Z" fill="url(#paint0_linear)"/>
<path fill-rule="evenodd" clip-rule="evenodd" d="M40.5219 80.4272C47.2437 81.7226 55.048 82.4664 63.3784 82.4664C71.7061 82.4664 79.5055 81.7218 86.2263 80.4274C83.9936 73.9899 80.7515 66.9035 76.5839 59.7273C72.4189 52.5556 67.8691 46.2034 63.3802 41.0636C58.8901 46.2042 54.3388 52.554 50.1729 59.7273C46.0071 66.9006 42.755 73.9913 40.5219 80.4272ZM110.373 55.1819C115.844 59.4788 116.992 64.1473 116.992 67.3073C116.992 70.4673 115.844 75.1362 110.373 79.4329C107.348 81.8084 103.244 83.8668 98.1754 85.5506C88.7626 88.6776 76.4048 90.3996 63.3784 90.3996C54.4496 90.3996 45.8396 89.5874 38.2724 88.0712C36.0842 97.3863 36.6813 104.369 40.5616 106.596C41.4219 107.09 42.4054 107.328 43.4916 107.328C48.2443 107.328 54.9633 102.77 61.9471 95.152C62.4236 95.1564 62.9005 95.1592 63.3784 95.1592C66.5178 95.1592 69.6073 95.0637 72.6356 94.8756C69.9724 98.2277 67.2441 101.277 64.4999 103.95C56.7966 111.456 49.7284 115.261 43.4916 115.261C40.9748 115.261 38.6466 114.657 36.5719 113.466C33.8192 111.886 30.3263 108.563 29.3187 101.705C28.7617 97.9129 29.0205 93.3507 30.0882 88.1446C32.0706 78.477 36.7493 66.9764 43.2625 55.7614C47.7488 48.0364 52.7209 41.076 57.8427 35.3079C52.3793 30.2175 47.3031 27.2856 43.4916 27.2866C42.4063 27.2868 41.4215 27.5247 40.5616 28.0183C35.9394 30.6715 35.9762 40.0723 39.8306 52.1257C39.5955 52.5219 39.3616 52.9194 39.1293 53.3189C37.5528 56.034 36.0855 58.7539 34.7298 61.4674C32.6224 56.2013 31.0422 51.1232 30.0882 46.4702C29.0205 41.2641 28.7617 36.7019 29.3187 32.9099C30.3263 26.0513 33.8192 22.7282 36.5721 21.1482C38.6457 19.958 40.973 19.3541 43.493 19.3535C49.7298 19.3535 56.798 23.1592 64.5011 30.6651C71.1598 37.1533 77.7277 45.8314 83.4945 55.7614C87.9605 63.4513 91.5477 71.2679 94.0106 78.5432C103.224 75.7696 109.012 71.7633 109.012 67.3073C109.012 61.9986 100.797 57.3274 88.3601 54.6195C88.1285 54.2124 87.8956 53.8055 87.6597 53.3992C86.0876 50.6925 84.4574 48.0768 82.7768 45.5604C88.4231 46.3791 93.6414 47.558 98.1754 49.0642C103.244 50.748 107.348 52.8064 110.373 55.1819Z" fill="white"/>
</g>
<defs>
<linearGradient id="paint0_linear" x1="69.95" y1="120.996" x2="113.864" y2="-7.48933" gradientUnits="userSpaceOnUse">
<stop stop-color="#44B6E4"/>
<stop offset="1" stop-color="#52C8F7"/>
</linearGradient>
</defs>
</svg>
