<svg width="785" height="786" viewBox="0 0 785 786" fill="none" xmlns="http://www.w3.org/2000/svg">
<g filter="url(#filter0_d)">
<mask id="mask0" mask-type="alpha" maskUnits="userSpaceOnUse" x="108" y="62" width="569" height="570">
<path fill-rule="evenodd" clip-rule="evenodd" d="M306.524 62.5898H478.603C535.676 62.5898 564.202 62.5898 594.918 72.3007C628.456 84.5032 654.87 110.926 667.082 144.455C676.784 175.169 676.784 203.705 676.784 260.776V432.843C676.784 489.915 676.784 518.441 667.082 549.165C654.87 582.693 628.456 609.107 594.918 621.319C564.202 631.03 535.676 631.03 478.603 631.03H306.524C249.461 631.03 220.925 631.03 190.21 621.319C156.671 609.107 130.257 582.693 118.045 549.165C108.344 518.441 108.344 489.915 108.344 432.843V260.776C108.344 203.705 108.344 175.169 118.045 144.455C130.257 110.926 156.671 84.5032 190.21 72.3007C220.925 62.5898 249.461 62.5898 306.524 62.5898Z" fill="white"/>
</mask>
<g mask="url(#mask0)">
<path fill-rule="evenodd" clip-rule="evenodd" d="M108.344 62.5898H676.784V631.03H108.344V62.5898Z" fill="white"/>
<path fill-rule="evenodd" clip-rule="evenodd" d="M274.874 403.862C304.103 409.495 338.039 412.729 374.263 412.729C410.475 412.729 444.391 409.491 473.615 403.863C463.907 375.87 449.808 345.055 431.686 313.85C413.575 282.665 393.791 255.043 374.271 232.693C354.746 255.046 334.955 282.658 316.84 313.85C298.725 345.043 284.584 375.876 274.874 403.862ZM578.614 294.083C602.404 312.768 607.397 333.068 607.397 346.809C607.397 360.55 602.404 380.852 578.614 399.536C565.461 409.866 547.617 418.817 525.575 426.138C484.644 439.736 430.908 447.224 374.263 447.224C335.437 447.224 297.997 443.692 265.092 437.099C255.577 477.605 258.173 507.969 275.046 517.655C278.787 519.803 283.064 520.837 287.787 520.837C308.454 520.837 337.671 501.016 368.039 467.889C370.111 467.908 372.185 467.921 374.263 467.921C387.914 467.921 401.349 467.505 414.517 466.687C402.936 481.264 391.073 494.522 379.14 506.148C345.643 538.784 314.907 555.332 287.787 555.332C276.843 555.332 266.719 552.707 257.697 547.528C245.727 540.658 230.539 526.208 226.158 496.384C223.735 479.895 224.861 460.057 229.504 437.418C238.124 395.38 258.469 345.37 286.791 296.603C306.299 263.011 327.92 232.745 350.191 207.663C326.435 185.527 304.361 172.778 287.787 172.782C283.068 172.783 278.786 173.818 275.046 175.964C254.947 187.501 255.107 228.38 271.868 280.793C270.845 282.516 269.828 284.245 268.818 285.982C261.963 297.788 255.582 309.615 249.687 321.415C240.523 298.516 233.652 276.434 229.504 256.201C224.861 233.563 223.735 213.724 226.158 197.235C230.539 167.411 245.727 152.961 257.698 146.09C266.715 140.915 276.835 138.289 287.793 138.286C314.913 138.286 345.649 154.835 379.145 187.473C408.1 215.687 436.66 253.423 461.736 296.603C481.157 330.042 496.755 364.031 507.465 395.667C547.529 383.607 572.699 366.186 572.699 346.809C572.699 323.725 536.976 303.412 482.894 291.637C481.887 289.867 480.874 288.098 479.848 286.331C473.012 274.561 465.923 263.187 458.616 252.245C483.168 255.805 505.859 260.931 525.575 267.481C547.617 274.803 565.461 283.753 578.614 294.083Z" fill="url(#paint0_linear)"/>
<mask id="mask1" mask-type="alpha" maskUnits="userSpaceOnUse" x="108" y="62" width="569" height="570">
<path fill-rule="evenodd" clip-rule="evenodd" d="M108.344 62.5898H676.784V631.03H108.344V62.5898Z" fill="white"/>
</mask>
<g mask="url(#mask1)">
<path opacity="0.1" fill-rule="evenodd" clip-rule="evenodd" d="M500.348 566.948C524.36 555.144 546.169 539.54 564.984 520.905L636.048 591.969H500.348V566.948ZM393.765 591.968V591.939C431.036 591.759 466.369 583.233 497.979 568.112V591.968H393.765ZM287.183 591.968V568.112C318.793 583.233 354.126 591.759 391.397 591.939V591.968H287.183ZM149.118 591.969L220.178 520.905C238.993 539.54 260.807 555.144 284.814 566.948V591.969H149.118ZM172.461 454.595C184.266 478.607 199.869 500.416 218.505 519.231L147.44 590.296V454.595H172.461ZM147.44 348.013H147.469C147.649 385.288 156.175 420.617 171.296 452.227H147.44V348.013ZM147.44 241.432H171.296C156.175 273.042 147.649 308.375 147.469 345.646H147.44V241.432ZM147.44 103.363L218.505 174.423C199.869 193.238 184.266 215.052 172.461 239.059H147.44V103.363ZM284.814 126.707C260.807 138.511 238.993 154.115 220.178 172.75L149.118 101.686H284.814V126.707ZM391.397 101.686V101.714C354.126 101.894 318.793 110.425 287.183 125.541V101.686H391.397ZM497.979 101.686V125.541C466.369 110.425 431.036 101.894 393.765 101.714V101.686H497.979ZM636.048 101.686L564.984 172.75C546.169 154.115 524.36 138.511 500.348 126.707V101.686H636.048ZM612.699 239.059C600.9 215.052 585.296 193.238 566.661 174.423L637.72 103.363V239.059H612.699ZM637.72 345.646H637.692C637.516 308.375 628.985 273.042 613.869 241.432H637.72V345.646ZM637.72 452.227H613.869C628.985 420.617 637.516 385.288 637.692 348.013H637.72V452.227ZM502.024 454.595H610.037C598.417 477.958 583.164 499.199 564.984 517.555L502.024 454.595ZM500.348 456.267L563.312 519.231C544.951 537.412 523.711 552.66 500.348 564.285V456.267ZM393.765 499.566C434.139 499.253 470.808 483.2 497.979 457.255V565.5C466.421 580.772 431.074 589.389 393.765 589.569V499.566ZM287.183 457.255C314.354 483.2 351.023 499.253 391.397 499.566V589.569C354.088 589.389 318.741 580.772 287.183 565.5V457.255ZM284.813 456.273V564.286C261.455 552.661 240.21 537.413 221.854 519.232L284.813 456.273ZM283.142 454.595L220.178 517.555C201.997 499.199 186.749 477.958 175.124 454.595H283.142ZM239.84 348.013C240.153 388.386 256.206 425.055 282.151 452.227H173.906C158.634 420.669 150.017 385.321 149.837 348.013H239.84ZM282.151 241.432C256.206 268.603 240.153 305.272 239.84 345.646H149.837C150.017 308.337 158.634 272.989 173.91 241.432H282.151ZM283.142 239.058H175.124C186.749 215.7 201.997 194.454 220.178 176.098L283.142 239.058ZM284.813 237.383L221.854 174.423C240.21 156.243 261.455 140.994 284.813 129.37V237.383ZM391.397 194.087C351.023 194.4 314.354 210.453 287.183 236.398V128.158C318.741 112.881 354.088 104.264 391.397 104.084V194.087ZM497.979 236.398C470.808 210.453 434.139 194.4 393.765 194.087V104.084C431.074 104.264 466.421 112.881 497.979 128.158V236.398ZM500.348 237.388V129.37C523.711 140.994 544.951 156.243 563.312 174.423L500.348 237.388ZM502.024 239.058L564.984 176.098C583.164 194.454 598.413 215.7 610.037 239.058H502.024ZM545.32 345.646C545.012 305.272 528.954 268.603 503.009 241.432H611.255C626.527 272.989 635.143 308.337 635.323 345.646H545.32ZM545.32 348.013H635.323C635.143 385.321 626.527 420.669 611.255 452.227H503.009C528.954 425.055 545.012 388.386 545.32 348.013ZM393.765 454.595H497.34C470.5 480.696 433.997 496.887 393.765 497.2V454.595ZM391.396 454.595V497.2C351.164 496.887 314.661 480.696 287.821 454.595H391.396ZM284.813 348.013V451.588C258.717 424.748 242.526 388.244 242.209 348.013H284.813ZM284.813 345.644H242.209C242.526 305.412 258.717 268.909 284.813 242.069V345.644ZM391.396 239.06H287.821C314.661 212.964 351.164 196.772 391.396 196.455V239.06ZM393.765 239.06V196.455C433.997 196.772 470.5 212.964 497.34 239.06H393.765ZM500.348 345.644V242.069C526.449 268.909 542.64 305.412 542.952 345.644H500.348ZM500.348 348.013H542.952C542.64 388.244 526.449 424.748 500.348 451.592V348.013ZM393.765 349.685L496.307 452.226H393.765V349.685ZM391.396 349.689V452.227H288.859L391.396 349.689ZM389.725 348.013L287.183 450.555V348.013H389.725ZM389.725 345.644H287.183V243.102L389.725 345.644ZM391.396 343.969L288.859 241.432H391.396V343.969ZM393.765 343.973V241.432H496.307L393.765 343.973ZM497.979 348.013V450.55L395.442 348.013H497.979ZM395.442 345.645L497.979 243.108V345.645H395.442ZM637.72 590.296L566.661 519.231C585.296 500.416 600.9 478.607 612.699 454.595H637.72V590.296ZM683.214 635.785L641.766 594.336H677.985V591.968H640.089V454.595H677.985V452.226H640.089V348.012H677.985V345.643H640.089V241.429H677.985V239.061H640.089V101.688H677.985V99.3195H641.766L678.477 62.6077L676.801 60.9355L640.089 97.6473V61.4235H637.72V99.3195H500.347V61.4235H497.979V99.3195H393.765V61.4235H391.396V99.3195H287.182V61.4235H284.814V99.3195H147.441V61.4235H145.072V97.6473L108.36 60.9355L106.684 62.6077L143.4 99.3195H107.176V101.688H145.072V239.061H107.176V241.429H145.072V345.643H107.176V348.012H145.072V452.226H107.176V454.595H145.072V591.968H107.176V594.336H143.4L106.684 631.048L108.36 632.725L145.072 596.013V632.232H147.441V594.336H284.814V632.232H287.182V594.336H391.396V632.232H393.765V594.336H497.979V632.232H500.347V594.336H637.72V632.232H640.089V596.013L681.538 637.462L683.214 635.785Z" fill="#434D54"/>
</g>
</g>
</g>
<defs>
<filter id="filter0_d" x="0.274002" y="0.990089" width="784.579" height="784.579" filterUnits="userSpaceOnUse" color-interpolation-filters="sRGB">
<feFlood flood-opacity="0" result="BackgroundImageFix"/>
<feColorMatrix in="SourceAlpha" type="matrix" values="0 0 0 0 0 0 0 0 0 0 0 0 0 0 0 0 0 0 127 0"/>
<feOffset dy="46.47"/>
<feGaussianBlur stdDeviation="54.0349"/>
<feColorMatrix type="matrix" values="0 0 0 0 0 0 0 0 0 0 0 0 0 0 0 0 0 0 0.11 0"/>
<feBlend mode="normal" in2="BackgroundImageFix" result="effect1_dropShadow"/>
<feBlend mode="normal" in="SourceGraphic" in2="effect1_dropShadow" result="shape"/>
</filter>
<linearGradient id="paint0_linear" x1="423.253" y1="514.605" x2="570.007" y2="120.816" gradientUnits="userSpaceOnUse">
<stop stop-color="#44B6E4"/>
<stop offset="1" stop-color="#52C8F7"/>
</linearGradient>
</defs>
</svg>
