<svg width="520" height="381" viewBox="0 0 520 381" fill="none" xmlns="http://www.w3.org/2000/svg">
<mask id="mask0" mask-type="alpha" maskUnits="userSpaceOnUse" x="77" y="69" width="372" height="302">
<path d="M444.455 159.977C463.058 228.482 421.766 275.762 329.692 301.302C290.651 312.131 278.621 321.937 243.13 343.409C201.911 368.347 149.059 386.131 106.626 350.655C31.9777 288.247 110.566 115.213 235.057 80.3659C359.548 45.5186 427.423 97.2589 444.455 159.977Z" fill="url(#paint0_linear)"/>
</mask>
<g mask="url(#mask0)">
<path d="M444.455 159.977C463.058 228.482 421.766 275.762 329.692 301.302C290.651 312.131 278.621 321.937 243.13 343.409C201.911 368.347 149.059 386.131 106.626 350.655C31.9777 288.247 110.566 115.213 235.057 80.3659C359.548 45.5186 427.423 97.2589 444.455 159.977Z" fill="url(#paint1_linear)"/>
<path d="M454.366 181.956C453.467 176.662 452.275 171.263 450.79 165.759C445.839 147.419 437.574 129.801 425.9 114.018C424.1 114.239 422.243 114.037 420.507 113.352C412.036 109.988 400.133 106.99 396.115 114.522C394.51 117.446 391.221 119.275 387.713 119.348C382.24 119.494 375.449 122.053 375.3 134.118C375.3 136.897 372.744 138.945 369.97 138.433C363.178 137.19 360.106 140.115 358.868 144.209C356.381 152.18 362.662 160.223 370.99 160.223H384.573L384.212 159.273C384.865 160.15 385.599 160.955 386.326 161.686C391.146 166.219 399.691 165.854 408.311 155.178C408.97 154.447 409.99 154.008 411.016 154.154C412.111 154.227 412.988 155.032 413.205 155.982C414.3 160.15 417.366 167.17 425.476 162.49C425.476 162.49 429.127 164.83 431.832 161.978C433.287 160.443 435.992 160.662 436.795 162.49C439.861 169.217 445.632 178.797 454.103 181.868C454.189 181.899 454.28 181.928 454.366 181.956Z" fill="url(#paint2_linear)"/>
<path d="M223.277 260.518C223.277 261.591 222.937 262.713 221.673 263.396C221.527 263.493 221.77 261.494 222.062 259.835C221.673 259.64 221.284 259.445 220.944 259.299C218.805 258.469 217.262 256.714 217.894 254.567C220.957 244.129 214.686 243.105 210.31 243.544C209.581 246.958 205.546 247.007 205.546 247.007L208.657 243.788C206.955 244.08 205.727 243.593 204.025 243.544L202.275 249.251C202.275 249.251 199.844 246.373 201.837 243.397C188.468 241.056 186.426 229.496 186.62 224.618C186.718 221.594 185.745 218.619 183.752 216.424C182.245 214.766 180.009 213.351 176.8 213.205C177.724 216.765 174.32 217.595 174.32 217.595L176.022 213.156C173.348 213.205 170.091 214.132 166.007 216.375C163.43 217.79 161.145 218.814 159.104 219.546C152.589 221.838 145.442 219.107 141.747 213.205C140.872 211.79 139.9 210.864 138.879 210.327C136.934 209.351 134.747 209.839 132.364 211.107C130.468 212.132 128.378 213.693 126.239 215.351C118.752 221.155 112.578 217.741 109.126 214.522C109.029 217.741 105.431 218.57 105.431 218.57L107.765 213.107C107.473 212.766 106.889 212.034 106.063 211.156C103.535 208.473 98.576 204.376 91.2349 205.791L92.3531 211.156L92.6934 212.766C92.6934 212.766 91.3321 212.327 90.2626 211.156C89.3875 210.181 88.7068 208.669 89.2416 206.474C87.0053 207.498 85.3037 209.351 83.7966 211.156C83.6507 211.351 83.5049 211.546 83.3104 211.741C81.5602 213.985 80.0531 216.18 78.3029 217.009C70.0867 220.911 67.3156 215.79 66.3919 211.156C66.3433 210.912 66.2947 210.668 66.246 210.376C65.8571 207.986 66.2947 205.547 67.3156 203.303C69.5033 198.474 66.8294 194.523 64.1069 191.938C63.718 193.694 62.4053 194.865 62.4053 194.865C61.9678 192.962 62.3567 191.548 62.8429 190.621C60.9468 188.524 59.7314 185.89 59.3911 183.012C58.8077 177.939 57.4465 174.379 55.6963 171.989C54.7726 170.72 53.7516 169.794 52.682 169.062C52.9251 171.403 50.5915 172.915 50.5915 172.915L51.6125 168.428C51.5152 168.379 50.9805 168.135 50.8832 168.086C50.6888 167.989 50.4457 167.891 50.2512 167.843C49.6678 171.842 45.2923 173.208 45.2923 173.208L48.2579 167.355C48.0635 167.306 47.869 167.306 47.6745 167.257C47.4801 167.257 47.2856 167.208 47.0911 167.208C46.8967 167.208 46.7508 167.16 46.5564 167.16C46.3619 167.16 46.1674 167.16 45.973 167.16C45.7785 167.16 45.584 167.16 45.3896 167.16C45.1951 167.16 45.0006 167.16 44.8062 167.208C44.4172 167.257 44.0283 167.257 43.688 167.306C43.4935 167.306 43.3477 167.355 43.1532 167.404C42.9587 167.452 42.8129 167.452 42.6184 167.501C42.2781 167.55 41.9864 167.647 41.6461 167.696C41.5003 167.745 41.3544 167.745 41.2086 167.794C37.9999 168.672 32.5548 172.33 32.5548 172.33C32.1173 189.353 35.8607 206.181 43.2504 221.448C43.6394 222.228 44.0283 223.009 44.4172 223.789C49.4734 233.642 19.1436 242.763 27.214 250.763C30.4713 253.982 34.0203 257.299 37.9582 260.664C39.8056 262.225 41.7503 263.835 43.7922 265.445C46.8064 267.786 49.6261 270.371 52.2514 273.102C54.8767 275.834 57.3075 278.761 59.5439 281.833H220.749C221.041 279.882 221.624 277.931 222.159 276.419C222.791 274.712 223.618 273.054 224.59 271.493C224.639 271.395 224.687 271.298 224.736 271.249C223.423 271.444 221.867 271.054 220.069 269.591L225.903 268.908C227.41 264.713 225.659 262.079 223.277 260.518ZM93.1796 216.912L96.0966 212.083C96.923 216.375 93.1796 216.912 93.1796 216.912ZM124.878 223.741C124.878 223.741 129.496 224.277 129.642 229.594C125.364 228.96 124.878 223.741 124.878 223.741ZM131.83 227.594C131.83 227.594 129.35 224.375 132.948 222.326L131.83 227.594ZM192.989 248.275L198.191 246.519C198.143 246.714 196.538 250.47 192.989 248.275Z" fill="url(#paint3_linear)"/>
<path d="M319.027 315.42C319.563 316.349 320.418 317.15 321.853 317.109C322.028 317.12 320.819 315.51 319.738 314.22C319.978 313.856 320.217 313.492 320.439 313.195C321.877 311.406 322.336 309.113 320.717 307.571C312.853 300.065 317.773 296.038 321.781 294.227C324.118 296.819 327.636 294.841 327.636 294.841L323.334 293.611C324.954 293.012 325.775 291.975 327.224 291.081L331.589 295.147C331.589 295.147 332.257 291.437 329.046 289.858C339.455 281.137 335.451 270.103 332.847 265.977C331.253 263.406 330.609 260.343 331.239 257.444C331.717 255.253 332.947 252.908 335.653 251.175C336.631 254.721 339.992 253.736 339.992 253.736L336.302 250.743C338.642 249.447 341.926 248.619 346.583 248.517C349.52 248.452 352.011 248.195 354.144 247.806C360.931 246.53 365.756 240.586 366.009 233.625C366.061 231.962 366.44 230.673 367.056 229.697C368.253 227.878 370.391 227.205 373.088 227.111C375.241 227.049 377.831 227.354 380.512 227.719C389.894 228.997 393.536 222.949 394.918 218.433C396.609 221.172 400.139 220.089 400.139 220.089L395.39 216.526C395.473 216.085 395.612 215.159 395.89 213.985C396.74 210.396 398.988 204.365 406.052 201.914L407.763 207.12L408.272 208.685C408.272 208.685 409.232 207.623 409.573 206.074C409.844 204.791 409.678 203.141 408.119 201.507C410.568 201.275 412.967 202.028 415.173 202.836C415.397 202.932 415.62 203.028 415.886 203.1C418.522 204.167 420.924 205.313 422.853 205.155C431.917 204.421 431.76 198.598 430.246 194.122C430.166 193.887 430.087 193.651 429.983 193.373C429.126 191.109 427.529 189.216 425.525 187.784C421.219 184.697 421.562 179.937 422.629 176.335C423.842 177.661 425.564 178.018 425.564 178.018C424.993 176.151 423.95 175.121 423.066 174.562C423.661 171.796 423.398 168.906 422.256 166.244C420.228 161.558 419.629 157.793 419.951 154.847C420.118 153.286 420.539 151.973 421.1 150.803C422.059 152.953 424.835 153.094 424.835 153.094L421.71 149.719C421.77 149.628 422.111 149.149 422.171 149.058C422.291 148.876 422.453 148.67 422.597 148.53C425.099 151.702 429.57 150.694 429.57 150.694L424.079 147.11C424.223 146.97 424.392 146.873 424.536 146.733C424.704 146.636 424.848 146.496 425.017 146.399C425.185 146.302 425.287 146.186 425.455 146.089C425.624 145.992 425.792 145.894 425.961 145.797C426.129 145.7 426.298 145.602 426.466 145.505C426.634 145.408 426.803 145.31 426.996 145.255C427.357 145.103 427.694 144.908 428.013 144.78C428.181 144.682 428.332 144.652 428.524 144.596C428.717 144.541 428.844 144.468 429.036 144.413C429.355 144.285 429.657 144.223 429.976 144.095C430.126 144.064 430.253 143.991 430.403 143.961C433.621 143.115 440.163 143.556 440.163 143.556C449.042 158.08 454.202 174.527 455.426 191.449C455.479 192.32 455.532 193.19 455.585 194.061C456.126 205.125 486.946 197.839 483.952 208.807C482.738 213.226 481.321 217.875 479.591 222.762C478.77 225.038 477.89 227.406 476.925 229.822C475.484 233.359 474.333 237.01 473.423 240.69C472.514 244.37 471.87 248.121 471.467 251.902L331.859 332.614C330.633 331.07 329.153 329.672 327.935 328.631C326.535 327.469 324.991 326.446 323.37 325.581C323.279 325.521 323.188 325.461 323.122 325.443C324.356 324.955 325.509 323.838 326.336 321.67L320.942 324C317.543 321.122 317.743 317.964 319.027 315.42ZM409.921 212.519L404.984 209.797C406.411 213.928 409.921 212.519 409.921 212.519ZM385.88 234.303C385.88 234.303 382.148 237.08 384.676 241.758C388.065 239.066 385.88 234.303 385.88 234.303ZM381.783 241.121C381.783 241.121 382.323 237.092 378.184 237.119L381.783 241.121ZM339.144 289.653L333.762 290.736C333.902 290.881 337.166 293.33 339.144 289.653Z" fill="url(#paint4_linear)"/>
<path d="M387.821 278.768C371.55 287.565 352.127 295.079 329.693 301.302C296.598 310.482 282.913 318.926 257.894 334.363C253.4 337.138 248.534 340.138 243.128 343.41C201.909 368.347 149.059 386.131 106.626 350.655C85.9854 333.398 77.0597 307.682 77.5822 278.768H387.821Z" fill="url(#paint5_linear)"/>
<path d="M277.701 327.001C273.225 329.664 279.294 333.578 267.714 334.602C256.134 335.627 248.537 340.138 243.131 343.409C240.094 345.246 236.995 347.045 233.843 348.786C230.655 347.221 225.957 344.56 223.155 341.776C218.9 337.538 224 334.336 230.672 330.146L231.146 329.849C236.667 326.38 233.448 318.044 231.146 314.309L277.701 327.001Z" fill="url(#paint6_linear)"/>
<path d="M190.229 366.762C161.805 374.088 132.309 372.126 106.625 350.655C92.223 338.613 83.5231 322.451 79.7598 303.958C94.8396 310.09 127.209 307.487 130.591 303.002C133.885 298.632 132.358 294.758 131.145 291.682C130.352 289.68 129.697 288.015 130.591 286.771C132.402 284.247 139.198 285.719 142.373 286.771C144.334 290.078 150.616 297.321 160.034 299.846C169.455 302.37 180.267 304.504 184.495 305.256L203.976 315.625C209.408 319.232 218.648 327.978 212.127 334.109C211.206 334.975 210.285 335.819 209.386 336.639L209.196 336.814C202.236 343.166 196.808 348.126 203.976 351.692C208.452 353.92 209.479 357.551 209.298 360.483C207.575 361.168 205.849 361.825 204.109 362.453C200.204 363.676 196.268 364.727 192.318 365.576L190.229 366.762Z" fill="url(#paint7_linear)"/>
<path d="M273.621 246.771C272.564 244.497 270.537 256.25 269.656 262.411C271.859 263.358 275.471 264.401 277.585 260.989C280.228 256.724 280.065 262.411 285.514 262.411C290.8 262.411 284.193 259.567 282.871 256.724C281.55 253.88 285.514 255.302 289.479 256.724C293.443 258.145 293.443 253.88 290.8 252.458C288.157 251.037 290.8 249.615 294.764 249.615C298.729 249.615 300.05 251.625 300.05 249.615C300.05 248.193 294.764 245.35 296.086 243.928C297.848 243.454 301.636 242.222 302.693 241.084C304.015 239.663 298.729 239.663 297.407 239.663H297.407C296.086 239.663 298.729 235.397 298.729 232.554C298.729 229.71 293.443 236.819 292.121 239.663C290.8 242.506 288.412 241.632 286.836 238.241C285.514 235.397 284.053 244.228 282.871 246.771C281.55 249.615 280.228 248.193 280.228 245.35C280.228 242.506 282.871 236.819 278.907 239.663C274.942 242.506 276.264 251.037 274.942 252.458C273.621 253.88 274.942 249.615 273.621 246.771Z" fill="url(#paint8_linear)"/>
<path d="M261.75 239.102C263.622 238.153 259.877 245.743 259.877 246.691C255.82 246.059 247.518 244.414 246.769 242.897C245.833 240.999 250.515 242.897 252.387 242.897C254.258 242.897 253.323 240.05 251.452 240.051C249.582 240.051 246.77 237.204 245.834 235.307C244.898 233.41 247.706 235.307 250.515 235.307C253.324 235.307 252.387 231.512 250.515 230.564C248.643 229.615 246.77 227.718 246.77 225.82C246.77 223.923 250.516 227.718 251.452 224.871C252.388 222.025 249.58 221.077 251.452 219.179C253.325 217.282 255.197 227.718 255.197 225.82C255.197 223.923 257.069 223.923 258.005 224.871C258.941 225.82 257.069 233.41 258.005 234.358C258.941 235.307 258.005 232.461 260.814 231.513C263.622 230.564 258.941 239.102 258.941 240.051C258.941 240.999 259.877 240.051 261.75 239.102Z" fill="url(#paint9_linear)"/>
<path d="M218.998 317.031L236.162 270.453L226.8 263.467L216.657 265.796C216.657 268.901 215.877 276.974 212.756 284.427C209.636 291.879 208.855 307.715 208.855 314.702L218.998 317.031Z" fill="#FFE2CF"/>
<path fill-rule="evenodd" clip-rule="evenodd" d="M236.17 270.454L219.006 317.031L215.406 316.205C215.758 315.231 216.388 313.962 217.452 312.373C219.727 308.978 218.685 303.519 217.651 298.102C217.267 296.09 216.884 294.083 216.672 292.19C216.087 286.946 222.094 281.265 225.787 277.772C227.014 276.611 227.986 275.692 228.375 275.111C229.623 273.248 227.855 268.642 226.815 266.572L232.775 267.92L236.17 270.454Z" fill="url(#paint10_linear)"/>
<path d="M259.452 227.12C255.945 225.957 263.836 242.149 268.221 250.391C273.092 246.997 295.736 239.96 291.602 235.847C288.68 232.938 290.141 234.392 282.834 234.392C275.527 234.392 293.064 228.574 293.064 225.666C293.064 222.757 290.141 222.757 287.218 221.303C283.085 219.246 294.525 219.848 297.448 216.939C300.371 214.03 290.141 214.031 288.68 211.122C287.218 208.212 304.755 205.304 304.755 199.486C304.755 193.668 295.987 202.395 291.602 200.941C287.218 199.486 295.987 183.488 291.602 179.124C287.218 174.761 281.298 188.075 279.911 192.214C278.45 196.577 274.066 200.941 272.604 198.032C271.143 195.123 269.681 190.76 265.297 195.123C260.913 199.486 268.221 215.485 266.759 216.939C265.297 218.394 265.297 212.576 260.913 214.031C256.529 215.485 266.759 225.666 265.297 230.029C263.836 234.392 263.836 228.575 259.452 227.12Z" fill="url(#paint11_linear)"/>
<path d="M211.94 253.381L220.35 260.334L223.258 257.39L242.165 238.222C243.24 237.095 243.556 235.466 242.861 234.088L239.383 226.634L238.245 224.253L223.764 227.949L226.42 232.271C227.052 233.336 226.989 234.652 226.23 235.591L211.94 253.381Z" fill="url(#paint12_linear)"/>
<path d="M223.069 255.949C223.069 256.513 223.132 256.951 223.258 257.39L242.165 238.222C243.24 237.095 243.556 235.466 242.861 234.088L239.383 226.634L231.985 231.708C231.985 231.708 236.032 233.9 234.324 237.533C233.882 238.41 233.249 239.099 232.491 239.663C230.151 241.291 222.753 247.18 223.069 255.949Z" fill="url(#paint13_linear)"/>
<path d="M218.71 224.817L226.741 234.589L232.053 231.707L240.652 227.009L235.151 214.043L228.828 218.177L218.71 224.817Z" fill="url(#paint14_linear)"/>
<path d="M232.052 231.707L240.715 227.009L235.15 214.043L228.827 218.177C227.878 225.569 230.345 229.766 232.052 231.707Z" fill="url(#paint15_linear)"/>
<path d="M206.525 328.361L209.307 329.363C210.319 329.739 211.33 330.052 212.405 330.177C215.99 331.138 218.699 332.544 222.82 333.482L233.061 335.251H233.188C233.251 335.251 233.314 335.251 233.378 335.251C234.389 335.251 235.275 334.812 235.907 333.998C237.045 332.495 236.602 330.302 234.895 329.425L232.998 328.361C229.836 326.669 227.589 324.794 224.469 322.465L219.352 318.74L219.092 316.93L216.621 316.146L207.979 314.267C207.789 314.58 207.6 314.893 207.41 315.206C207.41 315.206 207.211 315.192 207.22 315.206C207.22 315.206 204.248 318.902 204.628 325.73C204.628 326.92 205.386 327.922 206.525 328.361Z" fill="url(#paint16_linear)"/>
<path d="M216.241 316.96C215.23 319.027 215.356 321.407 216.557 323.412C218.138 326.043 221.3 329.112 227.56 329.989C233.63 330.866 234.073 333.246 233.061 335.251H233.188C233.251 335.251 233.314 335.251 233.378 335.251C234.389 335.251 235.275 334.812 235.907 333.998C237.045 332.494 236.602 330.302 234.895 329.425L232.998 328.36C229.836 326.669 227.589 324.794 224.469 322.465L219.008 318.583V316.96L216.621 316.146C216.431 316.459 216.368 316.709 216.241 316.96Z" fill="url(#paint17_linear)"/>
<path d="M129.296 300.486C129.359 301.425 129.485 302.365 129.675 303.179C130.118 304.871 131.446 306.123 133.153 306.499L135.556 307.063C136.757 307.376 138.022 306.75 138.465 305.56C138.654 305.058 138.97 304.495 139.287 303.994C139.413 303.806 139.603 303.618 139.729 303.492C141.816 300.987 145.736 299.483 147.191 299.045L148.772 298.607L152.882 286.956L153.135 286.267C153.135 285.765 150.542 282.571 148.266 279.94C146.369 277.748 143.27 276.871 140.488 277.81H140.425C138.212 278.562 136.441 280.378 135.809 282.633L135.682 283.009C135.05 285.202 134.102 287.394 132.71 289.211C130.244 292.531 129.169 296.853 129.296 300.486Z" fill="url(#paint18_linear)"/>
<path d="M129.297 300.486C129.36 298.732 129.992 292.53 134.924 292.342C139.793 292.155 142.386 289.774 143.081 289.085C143.208 288.96 143.334 288.96 143.334 288.96C147.634 290.902 150.796 289.148 152.819 287.018L153.072 286.329C153.072 285.828 150.48 282.633 148.203 280.002C146.306 277.81 143.208 276.933 140.426 277.873H140.362C138.149 278.624 136.379 280.441 135.746 282.696L135.62 283.072C134.988 285.264 134.039 287.457 132.648 289.273C130.245 292.53 129.17 296.853 129.297 300.486Z" fill="url(#paint19_linear)"/>
<path d="M159.973 260.271L177.804 260.02L174.453 253.882L193.739 245.363L200.442 245.989L230.162 248.745C233.134 248.996 235.853 250.499 237.686 252.817C239.204 254.696 239.963 257.076 239.963 259.394C239.963 260.459 239.773 261.586 239.457 262.589L236.85 271.894L236.724 271.832C236.724 271.832 232.474 268.249 229.156 267.348C225.332 266.311 219.014 266.66 219.014 266.66L216.673 267.823L211.192 276.996L215.302 266.66L191.4 272.799L191.273 272.862L190.147 303.058C187.027 308.492 182.351 302.672 173.764 301.505C172.12 301.004 168.762 325.667 168.762 325.667L165.98 315.644L158.329 288.459C155.989 280.065 154.661 271.421 154.408 262.714L154.345 260.208L159.973 260.271Z" fill="url(#paint20_linear)"/>
<path d="M230.717 268.125L236.169 271.055L236.295 271.118L239.457 262.589C239.773 261.524 239.963 260.459 239.963 259.394C239.963 257.014 239.204 254.696 237.686 252.817C235.853 250.499 233.134 248.996 230.162 248.745L200.442 245.989L199.43 251.376C199.43 251.376 207.145 260.897 223.206 258.267C239.754 257.256 224.475 263.467 230.717 268.125Z" fill="url(#paint21_linear)"/>
<path d="M151.912 285.203L158.933 292.966L158.256 288.522C155.916 280.128 154.589 271.484 154.336 262.777L154.272 260.271L159.9 260.208L170.081 267.475C170.081 267.475 177.353 277.81 171.788 290.777C167.425 300.987 166.287 310.508 165.971 314.141C165.844 315.895 163.947 316.96 162.429 316.146C161.481 315.645 160.343 314.58 158.952 312.763C156.928 309.944 155.537 306.687 154.841 303.305C153.514 297.103 150.099 285.139 143.333 288.897C143.27 288.96 143.143 289.023 143.08 289.023C146.558 284.074 151.912 285.203 151.912 285.203Z" fill="url(#paint22_linear)"/>
<path d="M153.451 262.025C153.451 262.025 160.28 266.097 170.144 267.537C178.807 268.79 189.873 268.038 200.686 260.584L217.127 239.475C222.818 232.209 226.801 223.815 228.951 214.857L219.024 197.444C217.696 195.126 215.166 193.748 212.447 193.873C211.752 193.936 211.056 193.998 210.361 194.061C204.48 194.687 198.852 196.504 193.667 199.385L192.402 200.074C182.981 205.336 174.697 212.477 168.121 220.996C163.821 226.634 160.343 232.772 157.877 239.349C155.411 245.864 153.956 252.817 153.514 259.833L153.451 262.025Z" fill="url(#paint23_linear)"/>
<path d="M214.539 212.54C214.982 213.417 215.424 214.294 216.057 215.108L219.471 219.931L224.15 216.298L224.467 215.546L226.617 209.909L233.446 200.764L234.078 199.887L232.118 191.18L222.506 192.37L219.218 193.748L215.867 195.126C214.982 196.504 214.286 197.945 213.78 199.385C212.326 203.708 212.579 208.406 214.539 212.54Z" fill="url(#paint24_linear)"/>
<path d="M213.708 199.385C216.87 200.763 218.957 197.443 218.957 197.443V197.381C218.767 196.065 218.767 194.813 219.146 193.685L215.795 195.063C214.91 196.504 214.214 197.945 213.708 199.385Z" fill="url(#paint25_linear)"/>
<path d="M196.638 228.388L196.954 230.204L199.167 243.922L203.783 272.235C203.847 272.549 203.91 272.925 204.1 273.175C204.289 273.614 204.542 273.989 204.922 274.303L233.566 301.989L239.131 298.168L242.166 296.039L219.276 269.166C217.821 267.475 216.999 265.345 216.873 263.09L215.987 242.106L215.924 241.041L215.292 226.509C215.102 221.497 210.929 217.614 205.933 217.614C205.87 217.614 205.744 217.614 205.68 217.614C199.989 217.739 195.69 222.813 196.638 228.388Z" fill="url(#paint26_linear)"/>
<path d="M195.507 233.399L197.846 244.048L199.111 243.922L203.727 272.235C203.79 272.549 203.854 272.925 204.043 273.175C204.612 269.73 204.549 265.095 204.359 260.96C204.107 256.137 203.537 251.314 202.526 246.616C202.336 245.739 202.146 244.737 201.957 243.609C201.387 240.477 200.818 236.531 200.629 232.271C200.249 225.444 199.427 224.629 199.427 224.629L196.961 230.267L195.507 233.399Z" fill="url(#paint27_linear)"/>
<path d="M209.858 249.685C211.819 252.316 212.957 255.573 212.83 258.83C212.767 260.96 212.451 263.528 211.502 266.285C208.088 275.806 223.011 285.202 229.081 288.522C231.927 290.088 234.456 292.092 236.606 294.472C237.618 295.6 238.503 296.79 239.072 298.043L242.107 295.913L219.217 269.041C217.763 267.349 216.941 265.22 216.814 262.965L215.866 240.916L206.95 242.92C207.013 243.045 207.772 246.929 209.858 249.685Z" fill="url(#paint28_linear)"/>
<path d="M194.926 230.831L195.496 233.399L197.835 244.047L199.1 243.922L201.882 243.609L206.941 243.045L215.857 242.106L216.932 241.98L217.121 228.638C217.248 221.184 210.166 215.797 203.21 217.551C202.704 217.676 202.135 217.864 201.629 218.052C201.503 218.115 201.44 218.115 201.376 218.177C196.444 220.37 193.788 225.631 194.926 230.831Z" fill="url(#paint29_linear)"/>
<path d="M221.17 210.974C222.056 215.484 225.091 219.868 226.292 221.434C226.545 221.81 226.988 222.061 227.494 222.061C227.873 222.061 228.252 221.998 228.505 221.748L235.271 216.987C235.904 216.549 236.599 216.361 237.295 216.361H237.358C237.801 216.361 238.243 216.11 238.37 215.672L240.267 210.723C240.393 210.347 240.646 210.097 241.026 209.971C241.658 209.721 242.164 209.22 242.417 208.531L243.176 206.401C243.239 206.276 243.239 206.213 243.302 206.088C244.061 203.77 244.061 201.202 243.302 198.884L243.239 198.634L242.417 196.065L240.962 195.815L237.421 195.188L234.765 194.75L222.878 203.833C221.803 204.647 221.107 205.837 220.917 207.153C220.854 208.468 220.917 209.721 221.17 210.974Z" fill="url(#paint30_linear)"/>
<path d="M214.664 212.665C217.825 215.797 219.786 213.667 220.671 212.164C221.303 211.099 222.505 210.598 223.706 210.974C223.832 211.037 223.896 211.037 223.896 211.037C223.896 211.037 236.859 217.551 234.519 207.153C233.001 200.45 235.594 196.88 237.617 195.251C238.692 194.374 239.641 193.999 239.641 193.999L241.095 195.815L243.372 198.634L243.435 198.884C244.194 201.265 244.194 203.77 243.435 206.088C243.372 206.213 243.372 206.276 243.308 206.401L242.55 208.531C242.297 209.157 241.854 209.721 241.222 209.972C240.842 210.097 240.526 210.41 240.4 210.723L238.503 215.672C238.313 216.11 237.933 216.361 237.491 216.361H237.428C236.669 216.361 235.973 216.611 235.404 216.987L228.638 221.748C228.322 221.998 227.943 222.061 227.5 222.061C227.057 221.998 226.615 221.748 226.362 221.372C225.729 220.495 224.591 218.866 223.516 216.799L219.596 219.869L216.181 215.045C215.612 214.231 215.106 213.354 214.727 212.477C214.6 212.602 214.6 212.603 214.664 212.665Z" fill="url(#paint31_linear)"/>
<path d="M215.868 195.125C215.868 195.125 217.259 196.566 219.03 197.443C220.737 198.257 222.76 198.633 224.404 197.005C226.491 194.937 227.819 195.313 228.578 195.94C229.337 196.566 229.653 197.568 229.4 198.508C228.894 200.512 226.744 202.016 226.744 202.016L228.135 203.77L230.348 202.141C231.297 201.452 232.309 201.013 233.447 200.7C233.763 200.638 234.016 200.575 234.269 200.512C236.672 200.137 238.252 198.946 239.138 197.443C239.58 196.691 240.149 196.441 240.719 196.441C240.908 196.441 241.161 196.441 241.288 196.503C241.983 196.942 242.552 197.568 242.932 198.32C243.311 199.26 243.564 200.262 243.754 201.327C243.944 203.143 243.817 204.772 243.754 205.022C243.754 205.022 247.611 206.902 249.129 206.087C250.077 205.586 250.52 203.582 250.773 202.141C250.773 202.016 250.836 201.89 250.836 201.703C250.836 200.951 250.52 200.262 249.951 199.761C249.065 199.009 248.749 197.881 249.002 196.754L249.129 196.253C249.318 195.501 249.129 194.75 248.623 194.186L245.841 191.242C245.018 190.365 244.26 189.425 243.564 188.423C242.616 187.107 241.477 185.917 240.213 184.978C237.873 183.224 235.028 182.159 232.056 182.034C230.538 181.971 229.02 182.096 227.503 182.535C224.91 183.286 222.444 184.602 220.61 186.544C218.65 188.36 216.943 191.179 215.868 195.125Z" fill="url(#paint32_linear)"/>
<path d="M215.864 195.126C215.864 195.126 217.255 196.567 219.025 197.444C219.658 182.535 231.988 181.972 231.988 181.972C230.471 181.909 228.953 182.034 227.435 182.473C224.843 183.224 222.377 184.54 220.543 186.482C218.646 188.361 216.939 191.18 215.864 195.126Z" fill="url(#paint33_linear)"/>
<path d="M169.785 267.35C164.6 257.578 164.536 248.997 166.244 242.294C168.204 234.652 174.085 228.764 181.609 226.133C186.099 224.567 191.6 220.621 194.383 210.661C197.86 198.259 205.448 194.813 210.064 193.937C204.184 194.563 198.556 196.379 193.371 199.261L192.106 199.95C182.684 205.212 174.401 212.353 167.825 220.872C163.525 226.509 160.047 232.648 157.581 239.225C155.115 245.739 153.66 252.692 153.218 259.708L153.091 261.838C153.091 261.838 159.92 265.909 169.785 267.35Z" fill="url(#paint34_linear)"/>
<path d="M158.926 292.19L151.904 284.427C150.864 284.427 148.159 284.737 145.663 285.979C143.166 287.221 142.022 290.637 141.762 292.19C146.443 299.435 157.053 315.323 162.046 320.912C168.288 327.899 171.408 327.123 178.43 327.123C184.047 327.123 185.972 319.101 187.012 315.478L187.792 303.058C185.452 301.246 180.771 298.4 174.529 298.4C168.288 298.4 163.087 302.023 161.266 303.834L158.926 292.19Z" fill="#FFE2CF"/>
<path d="M165.163 314.702L164.383 301.505L161.262 303.834C159.701 304.61 158.609 306.628 160.482 308.491C162.354 310.355 164.903 313.149 165.163 314.702Z" fill="#F8A792"/>
<path d="M174.523 298.4C178.164 299.952 185.134 303.679 183.885 306.163C183.312 307.301 181.901 307.918 180.459 308.548C177.966 309.638 175.382 310.768 176.863 314.702C178.631 319.396 173.575 324.46 170.381 326.751C172.219 327.184 174.142 327.163 176.519 327.136C177.122 327.13 177.756 327.123 178.423 327.123C183.726 327.123 185.741 319.971 186.822 316.123L187.005 315.478L187.786 303.058C185.445 301.246 180.764 298.4 174.523 298.4Z" fill="url(#paint35_linear)"/>
</g>
<path d="M259.081 241.653C259.271 242.405 259.524 243.219 259.777 243.971C259.84 244.096 259.903 244.284 259.967 244.409C261.168 247.291 265.531 253.304 266.669 254.87L270.716 227.685C270.716 227.685 271.285 223.926 273.941 218.539L277.166 212.964L277.672 213.278L274.321 219.667C271.349 224.553 269.325 252.615 269.325 252.615C269.136 254.369 269.009 256.123 268.946 257.94C268.883 259.318 268.883 260.696 268.883 262.011L269.388 261.385C271.981 258.315 275.079 255.81 278.621 253.868L282.794 251.613L283.047 252.239C283.047 252.239 275.965 255.747 271.665 261.322L270.147 263.577C269.325 264.83 268.883 266.271 268.946 267.774C269.009 269.778 269.136 271.658 269.325 273.286L271.665 296.526C271.855 298.217 271.918 299.908 271.918 301.599V312.311H268.883V301.85C268.883 300.159 268.819 298.467 268.63 296.839L266.227 273.286C265.784 268.776 265.721 264.204 266.1 259.694C266.29 257.814 265.784 255.872 264.709 254.307L262.875 251.613C260.915 248.606 259.398 245.349 258.512 241.904C257.374 237.519 255.604 232.508 255.351 231.882C255.73 232.32 257.943 237.269 259.081 241.653Z" fill="url(#paint36_linear)"/>
<path d="M257.877 327.72L257.94 327.846C258.636 328.848 260.027 330.226 261.924 331.416C263.125 332.168 264.517 332.794 266.097 333.233C270.65 334.423 277.479 334.423 282.665 332.356C288.419 330.163 290.253 322.96 286.522 318.136L283.676 314.441C281.021 310.933 277.543 308.114 273.622 306.172L272.421 305.609C270.081 304.481 267.299 304.794 265.339 306.36C264.959 306.673 264.58 307.049 264.264 307.425C263.125 308.928 262.05 310.87 261.671 313.125C261.165 316.069 259.521 318.763 258.004 320.767C256.486 322.709 256.359 325.528 257.877 327.72Z" fill="url(#paint37_linear)"/>
<path d="M265.619 336.942C266.821 337.694 268.212 338.32 269.793 338.759C274.346 339.949 281.175 339.949 286.36 337.882C292.114 335.689 293.948 328.486 290.217 323.662L287.372 319.967C284.716 316.459 281.238 313.64 277.318 311.698L276.116 311.134C273.776 310.007 270.994 310.32 269.034 311.886C269.477 314.517 271.121 319.466 277.507 319.904C286.297 320.468 286.107 330.991 278.645 331.367C274.156 331.555 267.833 332.933 265.619 336.942Z" fill="url(#paint38_linear)"/>
<path d="M240.739 337.391C239.444 332.581 245.259 331.911 245.259 331.911C245.259 331.911 250.855 331.335 252.881 330.929C254.086 330.688 257.137 328.418 259.061 328.71C260.861 328.983 259.491 329.825 262.601 329.825C263.297 329.825 264.401 330.566 264.885 330.401C265.826 330.081 266.65 329.803 268.435 330.929C269.393 331.531 269.293 332.146 270.467 332.9C272.12 333.961 272.466 333.964 275.692 334.297C277.388 334.473 280.379 333.899 282.49 332.9C284.167 332.107 284.768 331.729 285.242 330.595C285.508 329.968 285.78 329.312 286.738 328.71C288.523 327.583 289.347 327.862 290.288 328.182C290.773 328.346 292.694 328.182 293.39 328.182C296.5 328.182 297.055 329.865 297.829 330.595C299.388 331.63 297.65 332.066 299.327 333.69C300.584 334.906 304.346 336.981 304.346 336.981C305.907 337.57 309.652 338.959 308.054 339.608C300.797 342.558 263.299 344.617 246.355 340.756C242.785 339.942 241.077 338.648 240.739 337.391Z" fill="url(#paint39_linear)"/>
<path d="M294.744 122.352C293.132 119.968 290.071 119.778 289.426 119.778C288.54 119.778 287.654 119.778 286.687 119.682C286.607 119.682 286.446 119.682 286.365 119.682C283.626 119.396 281.048 117.966 279.114 115.679C275.408 111.389 270.574 110.34 266.949 110.34C265.499 110.34 264.21 109.196 263.807 107.48V107.385C261.873 99.568 253.173 100.045 247.453 101.284H247.372C244.311 101.951 241.41 103.762 239.154 106.336C236.415 109.387 229.648 113.2 214.582 106.527C202.82 101.284 196.294 108.815 193.716 111.675C192.266 113.295 190.252 114.344 187.916 114.535C184.451 114.916 182.196 116.918 180.826 119.11C178.248 123.114 174.542 125.974 170.433 127.023C164.955 128.548 158.832 130.168 158.832 130.168H310.292C310.292 130.168 299.739 129.787 294.744 122.352Z" fill="url(#paint40_linear)"/>
<path d="M161.6 109.823C188.633 109.823 210.548 88.2928 210.548 61.734C210.548 35.1752 188.633 13.645 161.6 13.645C134.567 13.645 112.652 35.1752 112.652 61.734C112.652 88.2928 134.567 109.823 161.6 109.823Z" fill="url(#paint41_linear)"/>
<path d="M66.4745 130.059C73.704 122.133 81.8933 117.18 90.4664 115.749C92.8976 115.309 95.3288 115.089 97.7599 114.979C115.002 114.131 128.95 76.7364 157.964 90.5423C166.473 96.7064 173.958 91.9732 178.565 87.3502C184.323 81.5163 191.296 80.4156 197.502 84.5983C202.812 88.1207 207.099 93.8445 210.17 98.9078C212.793 103.201 216.056 105.953 219.511 106.723C224.053 107.824 228.532 110.025 232.626 113.768L233.714 114.758C239.792 120.482 246.446 124.445 253.291 126.426L265.959 130.169L66.4745 130.059Z" fill="url(#paint42_linear)"/>
<path d="M448.822 115.309C443.801 110.736 438.114 107.879 432.161 107.053C430.473 106.799 428.784 106.672 427.096 106.609C425.541 106.545 423.986 105.91 422.609 104.767C420.965 103.433 418.166 102.354 413.678 103.878C407.902 105.783 404.659 104.132 403.149 102.862C402.615 102.417 402.171 101.782 401.816 101.147C400.305 98.3531 393.729 87.3669 385.288 92.5107C379.379 96.067 374.181 93.3363 370.982 90.6691C366.983 87.3034 362.14 86.6684 357.83 89.0815C354.143 91.1137 351.166 94.4159 349.033 97.337C347.212 99.8137 344.946 101.401 342.547 101.846C339.392 102.481 336.282 103.751 333.439 105.91L332.683 106.482C328.463 109.784 323.842 112.07 319.088 113.213L310.291 115.372L448.822 115.309Z" fill="url(#paint43_linear)"/>
<path d="M259.896 309.261C259.526 308.71 253.377 303.625 249.128 300.141C246.969 298.37 243.768 298.83 242.194 301.128L241.923 301.525C244.993 304.039 256.211 313.869 256.847 314.036C257.641 314.245 258.905 313.996 259.948 312.266C260.783 310.883 260.465 310.108 259.896 309.261Z" fill="url(#paint44_linear)"/>
<path d="M258.921 313.505C259.196 313.172 259.94 312.38 260.063 312.003C260.443 312.386 260.586 312.803 260.992 313.515C262.128 315.506 263.233 313.127 263.717 312.086C263.831 311.843 263.91 311.673 263.947 311.648C265.132 311.755 269.464 312.558 273.192 316.199C277.244 320.155 278.31 324.128 278.518 325.905C278.331 325.93 278.064 325.986 277.727 326.057C276.061 326.405 272.344 327.093 269.164 326.503C264.49 325.637 260.342 322.657 258.497 320.704C258.575 320.525 259.625 319.713 259.874 319.348C260.161 318.929 260.498 318.435 260.749 317.974C261.335 316.895 260.698 315.629 259.928 314.628C259.585 314.181 259.239 313.811 258.921 313.505Z" fill="url(#paint45_linear)"/>
<path opacity="0.6" d="M259.575 312.731C259.343 313.017 259.091 313.293 258.917 313.505C259.234 313.811 259.58 314.181 259.924 314.628C260.693 315.629 261.331 316.895 260.744 317.974C260.494 318.435 260.157 318.929 259.87 319.348L259.838 319.394C259.604 319.739 258.571 320.529 258.495 320.701C260.34 322.654 262.53 324.522 267.895 326.227C271.17 327.267 276.057 326.405 277.722 326.057L277.741 326.053C277.809 326.039 277.873 326.025 277.936 326.012C275.014 325.548 273.81 324.321 272.104 321.256C270.379 318.155 267.954 318.325 265.965 318.465C264.988 318.533 264.117 318.594 263.485 318.256C262.153 317.54 261.591 316.358 261.102 315.326C261.03 315.172 260.959 315.022 260.886 314.877C260.517 314.133 259.931 313.168 259.575 312.731Z" fill="url(#paint46_linear)"/>
<path d="M253.865 301.084C256.482 302.197 257.081 305.749 256.955 306.765C254.585 305.042 253.776 304.068 252.685 305.395C251.715 306.575 254.139 310.52 255.926 312.183C257.347 313.505 255.457 315.371 254.103 314.82C253.855 316.193 251.559 316.078 251.09 315.446C250.819 316.201 249.096 316.364 248.207 315.496C248.072 315.697 247.316 315.988 245.805 315.537C243.917 314.974 241.524 312.079 239.888 308.584C238.579 305.789 232.982 301.744 230.685 299.564C236.286 298.772 239.306 295.309 240.244 293.443C245.086 301.057 250.595 299.693 253.865 301.084Z" fill="url(#paint47_linear)"/>
<path d="M256.426 313.297C256.377 314.326 255.094 315.224 254.1 314.82C253.852 316.193 251.556 316.078 251.087 315.446C250.815 316.202 249.093 316.364 248.204 315.496C248.069 315.697 247.313 315.988 245.802 315.538C243.915 314.974 241.521 312.079 239.885 308.584C238.94 306.566 235.76 303.896 233.199 301.747C232.214 300.92 231.32 300.17 230.682 299.564C233.982 299.097 236.386 297.704 237.996 296.256C240.296 297.998 244.745 302.137 246.984 307.026C249.959 313.52 254.618 314.887 256.163 313.551C256.252 313.474 256.34 313.389 256.426 313.297Z" fill="url(#paint48_linear)"/>
<defs>
<linearGradient id="paint0_linear" x1="266.585" y1="56.5826" x2="263.518" y2="282.655" gradientUnits="userSpaceOnUse">
<stop offset="0.00487805" stop-color="#CA7DF1"/>
<stop offset="1" stop-color="#80E6FB"/>
</linearGradient>
<linearGradient id="paint1_linear" x1="266.585" y1="56.5826" x2="263.518" y2="282.655" gradientUnits="userSpaceOnUse">
<stop offset="0.00487805" stop-color="#CA7DF1"/>
<stop offset="1" stop-color="#80E6FB"/>
</linearGradient>
<linearGradient id="paint2_linear" x1="440.722" y1="80.4734" x2="440.722" y2="194.895" gradientUnits="userSpaceOnUse">
<stop offset="0.00487805" stop-color="#C97DF0"/>
<stop offset="1" stop-color="#7DF8FE"/>
</linearGradient>
<linearGradient id="paint3_linear" x1="88.6405" y1="288.307" x2="148.771" y2="211.628" gradientUnits="userSpaceOnUse">
<stop offset="0.00487805" stop-color="#0E073D"/>
<stop offset="1" stop-color="#1040D0"/>
</linearGradient>
<linearGradient id="paint4_linear" x1="397.1" y1="318.825" x2="395.248" y2="211.55" gradientUnits="userSpaceOnUse">
<stop offset="0.00487805" stop-color="#0E073D"/>
<stop offset="1" stop-color="#1040D0"/>
</linearGradient>
<linearGradient id="paint5_linear" x1="232.691" y1="289.421" x2="232.681" y2="357.223" gradientUnits="userSpaceOnUse">
<stop stop-color="#8058E2"/>
<stop offset="0.9951" stop-color="#A66EE7"/>
</linearGradient>
<linearGradient id="paint6_linear" x1="249.691" y1="307.637" x2="245.071" y2="359.657" gradientUnits="userSpaceOnUse">
<stop offset="0.00487805" stop-color="#2424CE"/>
<stop offset="1" stop-color="#A847D3" stop-opacity="0"/>
</linearGradient>
<linearGradient id="paint7_linear" x1="156.162" y1="269.811" x2="144.887" y2="391.089" gradientUnits="userSpaceOnUse">
<stop offset="0.00487805" stop-color="#2424CE"/>
<stop offset="1" stop-color="#A847D3" stop-opacity="0"/>
</linearGradient>
<linearGradient id="paint8_linear" x1="286.28" y1="231.895" x2="274.885" y2="261.887" gradientUnits="userSpaceOnUse">
<stop stop-color="#1F5AD0"/>
<stop offset="1" stop-color="#6AF1FC"/>
</linearGradient>
<linearGradient id="paint9_linear" x1="253.962" y1="218.948" x2="253.962" y2="246.691" gradientUnits="userSpaceOnUse">
<stop stop-color="#1F5AD1"/>
<stop offset="1" stop-color="#63E3F9"/>
</linearGradient>
<linearGradient id="paint10_linear" x1="225.788" y1="266.572" x2="225.788" y2="317.031" gradientUnits="userSpaceOnUse">
<stop stop-color="#F9AD8C"/>
<stop offset="1" stop-color="#F7A097"/>
</linearGradient>
<linearGradient id="paint11_linear" x1="281.667" y1="178.257" x2="273.709" y2="282.067" gradientUnits="userSpaceOnUse">
<stop stop-color="#2260D3"/>
<stop offset="1" stop-color="#61DFF9"/>
</linearGradient>
<linearGradient id="paint12_linear" x1="243.266" y1="242.289" x2="211.95" y2="242.289" gradientUnits="userSpaceOnUse">
<stop stop-color="#FFE4D1"/>
<stop offset="0.9946" stop-color="#FFE1CE"/>
</linearGradient>
<linearGradient id="paint13_linear" x1="190.639" y1="228.504" x2="257.526" y2="251.075" gradientUnits="userSpaceOnUse">
<stop stop-color="#FFDB67"/>
<stop offset="1" stop-color="#F180AE"/>
</linearGradient>
<linearGradient id="paint14_linear" x1="229.694" y1="177.477" x2="229.694" y2="254.26" gradientUnits="userSpaceOnUse">
<stop stop-color="#FFFF87"/>
<stop offset="1" stop-color="#F15A24"/>
</linearGradient>
<linearGradient id="paint15_linear" x1="202.225" y1="222.889" x2="238.424" y2="222.889" gradientUnits="userSpaceOnUse">
<stop stop-color="#FFFF87"/>
<stop offset="1" stop-color="#F15A24"/>
</linearGradient>
<linearGradient id="paint16_linear" x1="236.514" y1="324.328" x2="201.729" y2="324.328" gradientUnits="userSpaceOnUse">
<stop offset="0.00487805" stop-color="#0E073D"/>
<stop offset="1" stop-color="#2941CB"/>
</linearGradient>
<linearGradient id="paint17_linear" x1="246.775" y1="325.737" x2="89.3235" y2="325.737" gradientUnits="userSpaceOnUse">
<stop offset="0.00487805" stop-color="#0E073D"/>
<stop offset="1" stop-color="#2941CB"/>
</linearGradient>
<linearGradient id="paint18_linear" x1="141.238" y1="345.545" x2="141.238" y2="216.9" gradientUnits="userSpaceOnUse">
<stop offset="0.00487805" stop-color="#0E073D"/>
<stop offset="1" stop-color="#2941CB"/>
</linearGradient>
<linearGradient id="paint19_linear" x1="141.239" y1="358.356" x2="141.239" y2="266.293" gradientUnits="userSpaceOnUse">
<stop offset="0.00487805" stop-color="#0E073D"/>
<stop offset="1" stop-color="#2941CB"/>
</linearGradient>
<linearGradient id="paint20_linear" x1="237.994" y1="317.854" x2="144.456" y2="239.08" gradientUnits="userSpaceOnUse">
<stop offset="0.00487805" stop-color="#0E073D"/>
<stop offset="1" stop-color="#2941CB"/>
</linearGradient>
<linearGradient id="paint21_linear" x1="263.137" y1="309.534" x2="52.9912" y2="161.664" gradientUnits="userSpaceOnUse">
<stop offset="0.00487805" stop-color="#0E073D"/>
<stop offset="1" stop-color="#2941CB"/>
</linearGradient>
<linearGradient id="paint22_linear" x1="226.055" y1="346.04" x2="180.175" y2="303.764" gradientUnits="userSpaceOnUse">
<stop offset="0.00487805" stop-color="#0E073D"/>
<stop offset="1" stop-color="#2941CB"/>
</linearGradient>
<linearGradient id="paint23_linear" x1="191.183" y1="177.794" x2="191.183" y2="254.306" gradientUnits="userSpaceOnUse">
<stop stop-color="#FFFF87"/>
<stop offset="1" stop-color="#F15A24"/>
</linearGradient>
<linearGradient id="paint24_linear" x1="234.036" y1="205.535" x2="212.851" y2="205.535" gradientUnits="userSpaceOnUse">
<stop stop-color="#FFE4D1"/>
<stop offset="0.9946" stop-color="#FFE1CE"/>
</linearGradient>
<linearGradient id="paint25_linear" x1="216.452" y1="201.382" x2="216.452" y2="204.528" gradientUnits="userSpaceOnUse">
<stop stop-color="white"/>
<stop offset="1" stop-color="#F180AE"/>
</linearGradient>
<linearGradient id="paint26_linear" x1="242.067" y1="259.774" x2="196.492" y2="259.774" gradientUnits="userSpaceOnUse">
<stop stop-color="#FFE4D1"/>
<stop offset="0.9946" stop-color="#FFE1CE"/>
</linearGradient>
<linearGradient id="paint27_linear" x1="161.166" y1="231.466" x2="343.101" y2="310.921" gradientUnits="userSpaceOnUse">
<stop stop-color="#FFFF87"/>
<stop offset="1" stop-color="#F15A24"/>
</linearGradient>
<linearGradient id="paint28_linear" x1="130.391" y1="269.564" x2="290.341" y2="269.564" gradientUnits="userSpaceOnUse">
<stop stop-color="#FFDB67"/>
<stop offset="1" stop-color="#F180AE"/>
</linearGradient>
<linearGradient id="paint29_linear" x1="205.932" y1="177.482" x2="205.932" y2="254.256" gradientUnits="userSpaceOnUse">
<stop stop-color="#FFFF87"/>
<stop offset="1" stop-color="#F15A24"/>
</linearGradient>
<linearGradient id="paint30_linear" x1="243.963" y1="208.449" x2="220.939" y2="208.449" gradientUnits="userSpaceOnUse">
<stop stop-color="#FFE4D1"/>
<stop offset="0.9946" stop-color="#FFE1CE"/>
</linearGradient>
<linearGradient id="paint31_linear" x1="248.71" y1="221.092" x2="222.465" y2="201.413" gradientUnits="userSpaceOnUse">
<stop stop-color="#FFDB67"/>
<stop offset="1" stop-color="#F180AE"/>
</linearGradient>
<linearGradient id="paint32_linear" x1="250.737" y1="194.098" x2="215.845" y2="194.098" gradientUnits="userSpaceOnUse">
<stop offset="0.00487805" stop-color="#0E073D"/>
<stop offset="1" stop-color="#2941CB"/>
</linearGradient>
<linearGradient id="paint33_linear" x1="245.885" y1="189.691" x2="229.216" y2="189.691" gradientUnits="userSpaceOnUse">
<stop offset="0.00487805" stop-color="#0E073D"/>
<stop offset="1" stop-color="#2941FB"/>
</linearGradient>
<linearGradient id="paint34_linear" x1="181.555" y1="175.133" x2="181.555" y2="324.803" gradientUnits="userSpaceOnUse">
<stop stop-color="#FFFF87"/>
<stop offset="1" stop-color="#F15A24"/>
</linearGradient>
<linearGradient id="paint35_linear" x1="179.083" y1="298.4" x2="179.083" y2="327.148" gradientUnits="userSpaceOnUse">
<stop stop-color="#F9AD8C"/>
<stop offset="1" stop-color="#F69F97"/>
</linearGradient>
<linearGradient id="paint36_linear" x1="269.199" y1="201.548" x2="269.216" y2="316.569" gradientUnits="userSpaceOnUse">
<stop stop-color="#A444EE"/>
<stop offset="0.9951" stop-color="#EF9DAF"/>
</linearGradient>
<linearGradient id="paint37_linear" x1="272.654" y1="319.137" x2="272.654" y2="357.599" gradientUnits="userSpaceOnUse">
<stop stop-color="#FFFF87"/>
<stop offset="1" stop-color="#F15A24"/>
</linearGradient>
<linearGradient id="paint38_linear" x1="254.659" y1="313.066" x2="314.75" y2="353.506" gradientUnits="userSpaceOnUse">
<stop stop-color="#FFFF87"/>
<stop offset="1" stop-color="#F15A24"/>
</linearGradient>
<linearGradient id="paint39_linear" x1="288.046" y1="346.51" x2="288.046" y2="315.207" gradientUnits="userSpaceOnUse">
<stop stop-color="#324D94"/>
<stop offset="0.9951" stop-color="#9E4ECB"/>
</linearGradient>
<linearGradient id="paint40_linear" x1="223.744" y1="129.358" x2="226.229" y2="96.351" gradientUnits="userSpaceOnUse">
<stop offset="0.00487805" stop-color="#CA7DF1"/>
<stop offset="1" stop-color="#80E6FB"/>
</linearGradient>
<linearGradient id="paint41_linear" x1="161.577" y1="-2.1386" x2="161.599" y2="123.862" gradientUnits="userSpaceOnUse">
<stop stop-color="#FEED7C"/>
<stop offset="1" stop-color="#FF681F"/>
</linearGradient>
<linearGradient id="paint42_linear" x1="264.472" y1="106.102" x2="110.317" y2="106.102" gradientUnits="userSpaceOnUse">
<stop stop-color="#C67BF0"/>
<stop offset="0.9946" stop-color="#1321CB"/>
</linearGradient>
<linearGradient id="paint43_linear" x1="311.324" y1="101.487" x2="418.376" y2="101.487" gradientUnits="userSpaceOnUse">
<stop stop-color="#C67BF0"/>
<stop offset="0.9946" stop-color="#1321CB"/>
</linearGradient>
<linearGradient id="paint44_linear" x1="243.218" y1="300.452" x2="257.013" y2="312.397" gradientUnits="userSpaceOnUse">
<stop stop-color="#1A207C"/>
<stop offset="1" stop-color="#2941CB"/>
</linearGradient>
<linearGradient id="paint45_linear" x1="260.131" y1="312.435" x2="279.581" y2="325.268" gradientUnits="userSpaceOnUse">
<stop stop-color="#FBC283"/>
<stop offset="1" stop-color="#F68480"/>
</linearGradient>
<linearGradient id="paint46_linear" x1="259.231" y1="313.092" x2="278.071" y2="325.995" gradientUnits="userSpaceOnUse">
<stop stop-color="#F26229"/>
<stop offset="1" stop-color="#F03C7B"/>
</linearGradient>
<linearGradient id="paint47_linear" x1="231.769" y1="292.853" x2="256.497" y2="323.467" gradientUnits="userSpaceOnUse">
<stop stop-color="#FFFF87"/>
<stop offset="1" stop-color="#ED1E79"/>
</linearGradient>
<linearGradient id="paint48_linear" x1="236.973" y1="295.829" x2="243.849" y2="316.145" gradientUnits="userSpaceOnUse">
<stop stop-color="#FEE885"/>
<stop offset="1" stop-color="#EE4A72"/>
</linearGradient>
</defs>
</svg>
