<svg width="493" height="379" viewBox="0 0 493 379" fill="none" xmlns="http://www.w3.org/2000/svg">
<mask id="mask0" mask-type="alpha" maskUnits="userSpaceOnUse" x="45" y="45" width="387" height="324">
<path d="M145.688 353.596C231.448 383.292 312.539 370.808 372.882 304.984C424.529 248.645 449.867 180.242 415.758 110.322C378.606 34.1646 274.831 12.5149 207.49 117.002C171.842 149.728 143.204 151.773 104.616 170.181C57.7672 192.531 27.0854 248.194 58.6625 298.493C72.8604 321.11 107.704 340.443 145.688 353.596Z" fill="url(#paint0_linear)"/>
</mask>
<g mask="url(#mask0)">
<path d="M145.688 353.596C240.243 369.79 312.539 370.808 372.882 304.984C424.529 248.645 449.867 180.242 415.758 110.322C378.606 34.1646 274.831 12.5149 207.49 117.002C171.842 149.728 143.204 151.773 104.616 170.181C57.7672 192.531 27.0854 248.194 58.6625 298.493C72.8604 321.11 102.127 336.664 145.688 353.596Z" fill="url(#paint1_linear)"/>
<path d="M300.676 88.1903C299.504 86.5644 297.277 86.4344 296.809 86.4344C296.164 86.4344 295.52 86.4344 294.816 86.3693C294.758 86.3693 294.641 86.3693 294.582 86.3693C292.59 86.1742 290.715 85.1987 289.308 83.6379C286.613 80.7115 283.097 79.9961 280.46 79.9961C279.406 79.9961 278.468 79.2157 278.175 78.0451V77.9801C276.769 72.6474 270.44 72.9725 266.28 73.818H266.221C263.995 74.2732 261.885 75.5088 260.245 77.2647C258.252 79.3458 253.33 81.9471 242.373 77.3948C233.818 73.818 229.071 78.9556 227.196 80.9066C226.142 82.0121 224.677 82.7275 222.977 82.8576C220.458 83.1177 218.817 84.4834 217.821 85.9791C215.946 88.7105 213.25 90.6615 210.262 91.3769C206.278 92.4174 201.824 93.523 201.824 93.523H311.985C311.985 93.523 304.309 93.2628 300.676 88.1903Z" fill="url(#paint2_linear)"/>
<path d="M202.946 215.572L202.054 216.739H-13.7131C-14.1094 212.362 -14.2084 208.058 -14.0103 203.681C-13.8122 197.407 -13.1187 191.134 -11.8308 184.86C-11.3355 183.693 -11.1374 182.526 -11.0383 181.358C-10.0476 177.2 -8.85883 173.042 -7.4719 168.884C-7.4719 168.811 -7.4719 168.811 -7.37283 168.738C-5.19336 162.391 4.11893 158.89 12.4405 161.297C18.0873 162.902 24.923 163.194 31.8576 159.182L31.9567 159.109C32.452 158.817 32.9474 158.525 33.3436 158.306C41.5662 154.148 51.7701 158.89 52.5626 165.091C52.6617 165.82 52.5626 166.622 52.3645 167.352C51.9682 168.738 53.7514 169.832 55.5346 169.468C59.4973 168.738 64.7478 168.3 67.918 170.489C69.503 171.583 71.9797 171.656 73.7629 170.708C78.4191 168.227 86.7407 165.309 94.0716 170.854C98.2324 173.917 103.483 176.106 109.328 176.69L111.904 176.908C119.532 177.638 127.061 175.814 132.906 172.167C133.698 171.729 134.392 171.218 135.085 170.635C135.283 170.489 135.382 170.416 135.581 170.27C143.704 164.361 161.239 163.413 169.164 171.656C169.164 171.729 177.189 183.62 175.009 193.176C174.217 196.532 178.179 199.377 182.736 198.939C192.445 197.991 203.739 198.72 205.225 207.183C205.621 210.101 204.729 213.019 202.946 215.572Z" fill="url(#paint3_linear)"/>
<path d="M509.788 233.744C507.634 217.498 503.93 201.68 498.676 186.632C498.59 186.461 498.504 186.29 498.504 186.119C498.245 185.434 497.987 184.75 497.728 184.066C497.642 183.895 497.556 183.724 497.556 183.468C497.298 182.784 497.039 182.1 496.781 181.33C496.436 180.39 496.092 179.535 495.747 178.594C488.77 182.442 477.141 185.691 470.853 169.702C470.336 168.334 469.733 167.051 469.044 165.769C466.632 161.066 463.445 157.304 460.171 154.311C450.265 145.333 436.655 141.571 423.303 143.623C421.667 143.88 420.03 144.136 418.652 144.478C420.547 149.352 421.581 150.891 419.513 156.791C415.809 153.884 414.259 150.207 414.69 145.59C410.727 146.701 406.678 148.155 402.63 150.036L409.78 154.311C409.78 154.311 402.974 157.389 400.39 151.233C388.848 155.337 377.391 169.103 376.702 188.085C381.87 187.23 384.885 188.085 388.848 191.933H377.046C377.219 195.353 377.735 198.944 378.511 202.792C379.458 207.152 376.013 211.428 371.275 211.513C367.313 211.599 363.35 213.223 361.541 218.781C359.991 223.655 355.684 227.16 350.601 227.844C349.223 228.015 347.759 227.93 346.381 227.673C342.418 226.904 328.636 226.476 322.606 255.718C322.606 255.804 322.606 255.889 322.606 255.889C320.883 264.269 315.284 271.28 307.531 275.128C300.382 278.719 294.18 284.362 293.749 292.827C292.199 299.325 293.146 308.389 303.052 318.82C304 319.846 304.947 320.616 305.895 321.3C309.427 323.779 310.891 328.397 308.737 332.159C307.876 333.698 306.584 335.066 304.861 336.006C294.438 341.735 281.431 352.423 284.446 368.754C285.049 372.003 285.221 375.253 284.618 378.502C280.914 398.681 263.428 406.376 257.226 408.513C255.848 408.941 255.072 409.198 255.072 409.198L262.136 409.112C262.222 409.112 262.222 409.112 262.308 409.112L284.532 408.77L466.976 409.027H479.725C486.099 393.892 491.785 377.647 496.695 360.204C496.781 359.862 496.867 359.52 496.953 359.178C500.399 346.865 503.414 333.869 505.912 320.274C508.065 310.612 509.616 300.95 510.649 291.203C511.425 283.764 511.855 276.41 511.941 268.972C511.941 268.202 511.941 267.432 511.941 266.748C511.941 255.633 511.252 244.603 509.788 233.744Z" fill="url(#paint4_linear)"/>
<path opacity="0.3" d="M465.724 252.097C463.57 235.852 459.866 220.034 454.612 204.985C454.526 204.814 454.439 204.643 454.439 204.472C454.181 203.788 453.922 203.104 453.664 202.42C453.578 202.249 453.492 202.078 453.492 201.821C453.233 201.137 452.975 200.453 452.717 199.684C452.372 198.743 452.027 197.888 451.683 196.948C444.706 200.795 433.077 204.044 426.788 188.055C426.272 186.687 425.669 185.405 424.979 184.122C409.302 192.929 393.022 209.517 386.82 240.896C390.093 240.64 393.883 241.495 397.329 245.343L386.217 244.146C386.217 244.231 386.217 244.231 386.217 244.231C382.685 264.923 374.243 284.418 362.184 301.604C356.584 309.641 351.071 320.415 347.281 334.352C336.169 375.992 304.642 409.51 262.95 421.48C250.632 425.071 236.936 427.209 222.034 427.209C220.742 427.209 219.536 427.209 218.416 427.294L240.64 426.952L423.084 427.209H435.833C442.208 412.075 447.893 395.829 452.803 378.386C452.889 378.044 452.975 377.702 453.061 377.36C456.507 365.048 459.522 352.051 462.02 338.456C464.173 328.794 465.724 319.132 466.757 309.385C467.533 301.946 467.963 294.593 468.049 287.154C468.049 286.384 468.049 285.615 468.049 284.931C467.877 273.986 467.188 262.956 465.724 252.097ZM409.13 206.952L417.916 209.346C417.916 209.346 412.145 213.108 409.13 206.952ZM419.036 208.833C411.283 201.223 420.586 195.922 420.586 195.922L419.036 208.833Z" fill="url(#paint5_linear)"/>
<path d="M10.444 262.923C11.7361 253.288 13.9585 243.906 17.1112 234.98C17.1629 234.879 17.2146 234.778 17.2146 234.676C17.3697 234.271 17.5247 233.865 17.6798 233.459C17.7315 233.358 17.7831 233.256 17.7831 233.104C17.9382 232.698 18.0933 232.293 18.2483 231.836C18.455 231.278 18.6618 230.771 18.8685 230.214C23.0549 232.496 30.0322 234.423 33.8052 224.939C34.1153 224.128 34.4771 223.367 34.8905 222.607C36.3377 219.817 38.25 217.586 40.214 215.811C46.1576 210.486 54.3237 208.255 62.3347 209.472C63.3167 209.624 64.2987 209.776 65.1256 209.979C63.9886 212.87 63.3684 213.783 64.6088 217.282C66.8312 215.558 67.7615 213.377 67.5031 210.638C69.8806 211.298 72.3097 212.16 74.7388 213.276L70.4491 215.811C70.4491 215.811 74.5321 217.637 76.0826 213.986C83.0083 216.42 89.8823 224.584 90.2957 235.843C87.1947 235.335 85.3857 235.843 83.0083 238.125H90.089C89.9856 240.153 89.6755 242.283 89.2103 244.565C88.6418 247.151 90.7092 249.687 93.5518 249.738C95.9293 249.789 98.3067 250.752 99.3921 254.048C100.322 256.939 102.907 259.018 105.956 259.424C106.783 259.525 107.662 259.475 108.488 259.322C110.866 258.866 119.135 258.613 122.753 275.956C122.753 276.007 122.753 276.058 122.753 276.058C123.787 281.027 127.146 285.186 131.798 287.468C136.088 289.598 139.809 292.945 140.067 297.965C140.998 301.82 140.429 307.195 134.485 313.382C133.917 313.991 133.348 314.447 132.78 314.853C130.661 316.323 129.782 319.062 131.074 321.293C131.591 322.206 132.366 323.017 133.4 323.575C139.654 326.973 147.458 333.312 145.649 342.998C145.287 344.925 145.184 346.852 145.546 348.779C147.768 360.748 158.26 365.312 161.981 366.579C162.808 366.833 163.273 366.985 163.273 366.985L159.035 366.934C158.984 366.934 158.984 366.934 158.932 366.934L145.598 366.732L36.1309 366.884H28.4817C24.6571 357.908 21.246 348.272 18.3 337.927C18.2483 337.724 18.1966 337.521 18.1449 337.318C16.0776 330.016 14.2687 322.307 12.7698 314.244C11.4777 308.514 10.5474 302.783 9.9272 297.002C9.46205 292.59 9.20363 288.229 9.15194 283.817C9.15194 283.36 9.15194 282.904 9.15194 282.498C9.15194 275.905 9.56541 269.364 10.444 262.923Z" fill="url(#paint6_linear)"/>
<path opacity="0.3" d="M10.4397 262.923C11.7318 253.288 13.9541 243.906 17.1069 234.981C17.1586 234.879 17.2102 234.778 17.2102 234.677C17.3653 234.271 17.5204 233.865 17.6754 233.459C17.7271 233.358 17.7788 233.257 17.7788 233.104C17.9338 232.699 18.0889 232.293 18.2439 231.837C18.4507 231.279 18.6574 230.772 18.8641 230.214C23.0505 232.496 30.0278 234.423 33.8008 224.94C34.1109 224.128 34.4727 223.368 34.8862 222.607C44.2926 227.83 54.0609 237.669 57.7821 256.28C55.8181 256.128 53.544 256.635 51.4767 258.917L58.1439 258.207C58.1439 258.258 58.1439 258.258 58.1439 258.258C60.263 270.53 65.328 282.093 72.5637 292.286C75.9232 297.053 79.231 303.443 81.5051 311.709C88.1723 336.406 107.089 356.285 132.104 363.385C139.494 365.515 147.712 366.783 156.653 366.783C157.429 366.783 158.152 366.783 158.824 366.833L145.49 366.63L36.0232 366.783H28.374C24.5493 357.806 21.1382 348.171 18.1923 337.826C18.1406 337.623 18.0889 337.42 18.0372 337.217C15.9698 329.915 14.1609 322.206 12.6621 314.143C11.37 308.413 10.4397 302.682 9.81945 296.901C9.35429 292.489 9.09587 288.128 9.04419 283.716C9.04419 283.259 9.04419 282.803 9.04419 282.397C9.14756 275.906 9.56103 269.364 10.4397 262.923ZM44.396 236.147L39.1242 237.567C39.1242 237.567 42.587 239.798 44.396 236.147ZM38.4523 237.263C43.1039 232.749 37.522 229.605 37.522 229.605L38.4523 237.263Z" fill="url(#paint7_linear)"/>
<rect x="-0.621094" y="299.086" width="413.718" height="76.3226" fill="url(#paint8_linear)"/>
<path d="M124.533 337.619C131.045 335.197 139.675 338.08 145.023 337.619C152.726 336.954 156.287 334.616 157.641 333.49L184.559 341.902C184.478 342.951 175.954 348.183 176.147 350.314C176.388 352.978 171.852 356.062 162.688 358.726C155.356 360.857 156.45 365.546 157.093 368.856L90.0469 350.937C92.2172 349.645 98.7284 347.063 107.41 347.063C118.263 347.063 118.022 340.04 124.533 337.619Z" fill="url(#paint9_linear)"/>
<path d="M78.3574 345.435C86.3381 344.801 105.617 347.016 111.554 338.755C114.643 334.457 124.217 334.842 128.258 333.21L118.778 330.147L81.5604 334.842L78.3574 345.435Z" fill="url(#paint10_linear)"/>
<path d="M179.815 358.438C188.937 356.148 180.169 352.642 186.344 347.593C192.518 342.544 214.239 339.118 214.239 339.118H265.476C267.258 339.118 280.442 342.338 282.937 342.338C287.201 344.947 297.964 343.369 304.583 344.862C311.296 346.376 313.799 350.971 308.391 355.059C299.483 358.637 241.245 378.117 237.325 378.117C233.405 378.117 176.392 368.099 174.61 367.025C172.828 365.952 168.412 361.301 179.815 358.438Z" fill="url(#paint11_linear)"/>
</g>
<path d="M226.087 143.583C221.098 141.837 216.558 138.107 213.027 132.79C207.421 123.902 201.592 127.87 198.565 131.044C197.5 132.235 195.931 131.759 195.202 130.171C189.429 116.284 182.422 122.791 179.564 126.283C178.779 127.235 177.714 127.632 176.705 127.235C172.894 125.648 171.044 127.553 170.091 129.695C169.418 131.203 167.961 131.521 166.952 130.489C165.158 128.664 162.3 126.997 158.32 128.426C154.341 129.854 152.379 128.108 151.482 126.204C149.688 122.633 147.446 119.538 144.588 117.792C134.947 111.761 128.501 119.141 125.138 125.093C121.382 131.759 115.777 135.806 109.78 135.964C109.387 135.964 109.051 135.964 108.659 135.964C105.127 135.964 102.437 137.234 100.475 138.901C97.224 141.678 93.7488 143.979 90.0494 145.328L82.4824 148.265L240.38 148.582L226.087 143.583Z" fill="url(#paint12_linear)"/>
<path d="M319.338 121.052C319.338 121.052 333.218 120.097 343.655 108.951C347.528 104.811 352.477 107.359 354.737 108.824C355.221 109.142 355.866 108.696 355.866 108.059C355.813 104.493 358.61 104.556 360.439 104.939C361.246 105.13 362.053 104.62 362.376 103.665C364.044 98.5058 369.585 96.2766 369.585 96.2766C376.363 93.729 379.161 96.9772 380.344 99.9707C381.151 102.009 383.088 102.9 384.863 102.136L388.521 100.416C395.73 96.595 400.948 102.136 403.531 106.085C404.176 107.04 405.252 107.422 406.274 107.104C411.708 105.193 415.85 107.104 418.648 109.652C423.92 114.428 430.214 117.422 436.723 118.759L447.859 121.052H319.338V121.052Z" fill="url(#paint13_linear)"/>
<path d="M260.373 302.157C259.527 305.071 258.06 308.501 256.294 309.038C255.109 309.398 251.484 308.322 249.285 307.668L248.22 307.356L246.649 313.939C246.649 313.939 242.579 330.004 245.138 335.173C247.698 340.342 257.159 342.018 262.079 338.63C266.015 335.92 269.448 326.413 271.991 319.372C272.628 317.609 273.21 316 273.73 314.691C272.739 314.418 271.743 314.165 270.788 313.92C267.269 313.023 264.267 312.258 263.844 311.159C263.176 309.424 263.408 308.456 263.825 306.722C263.934 306.256 264.059 305.733 264.184 305.125L269.568 290.097L271.317 286.241L266.942 273.905L261.008 299.501C260.876 300.238 260.661 301.168 260.373 302.157Z" fill="#742D88"/>
<path d="M269.714 281.739C269.685 281.758 269.653 281.78 269.624 281.802C267.254 283.604 264.98 286.312 264.83 289.305C264.755 290.783 264.956 292.114 265.142 293.371C265.608 296.466 266.002 299.111 262.086 302.386C258.545 305.346 259.093 312.375 259.507 317.724L259.528 317.999C259.831 321.905 254.913 326.739 252.703 328.443C250.494 330.147 250.181 341.061 250.181 341.061C252.301 344.356 259.33 335.502 261.824 338.787C261.908 338.738 261.992 338.686 262.072 338.629C266.008 335.92 269.441 326.413 271.984 319.372C272.621 317.608 273.202 316 273.723 314.691C272.784 314.433 271.843 314.192 270.936 313.959L270.781 313.92C267.262 313.023 264.26 312.257 263.837 311.158C263.168 309.423 263.401 308.456 263.817 306.722L263.858 306.544C263.957 306.123 264.066 305.657 264.177 305.125L269.561 290.097L271.31 286.241L269.714 281.739Z" fill="url(#paint14_linear)"/>
<path d="M276.009 192.493C273.907 193.592 271.684 191.538 271.684 191.538L275.891 190.787C275.694 188.586 275.094 186.399 274.157 184.317C272.745 187.537 270.061 191.19 268.008 190.048C264.266 187.986 270.027 183.636 273.195 182.391C272.635 181.416 271.998 180.427 271.205 179.413C266.901 173.965 264.818 167.678 263.943 162.795C263.825 162.053 263.526 161.442 263.227 160.83C260.984 164.716 256.556 164.387 256.556 164.387L261.251 158.737C259.952 157.88 258.25 157.519 256.51 157.875C253.369 158.481 249.498 157.682 245.598 152.701C244.769 155.295 243.356 157.552 240.734 158.404L242.113 147.629C232.53 134.885 215.568 131.444 211.935 147.63C211.289 150.575 210.343 152.908 209.163 154.721L209.533 160.725C207.987 159.908 207.116 158.881 206.569 157.827C204.494 159.733 202.183 160.637 200.041 161.006C197.237 161.507 194.341 161.11 191.716 160.035C189.248 158.985 184.65 157.744 181.861 160.577C180.512 161.961 179.489 164.281 179.402 168.202C178.897 183.378 189.109 189.399 189.109 189.399C189.109 189.399 199.14 195.07 193.836 202.466L200.282 208.027C200.282 208.027 197.894 208.918 195.712 208.558C193.997 208.275 192.412 207.211 192.072 204.424C191.696 204.764 191.307 205.181 190.852 205.508C189.14 207.153 187.766 209.175 187.002 211.378C186.302 213.19 185.927 214.975 185.721 216.708C185.683 216.942 185.644 217.177 185.683 217.424C185.657 217.581 185.631 217.737 185.606 217.893C185.593 217.971 185.58 218.05 185.567 218.128C185.541 218.284 185.58 218.532 185.554 218.688C185.516 218.922 185.568 219.092 185.529 219.326C185.49 219.561 185.542 219.73 185.504 219.965C185.543 220.212 185.504 220.446 185.543 220.694C185.596 220.863 185.557 221.098 185.609 221.267C185.583 221.423 185.648 221.514 185.622 221.671C185.609 221.749 185.661 221.918 185.649 221.996C185.636 222.074 185.688 222.244 185.675 222.322C185.792 223.064 185.923 223.728 186.119 224.483C186.171 224.652 186.236 224.743 186.21 224.9C186.275 224.991 186.249 225.147 186.314 225.238C186.366 225.407 186.418 225.576 186.47 225.746C186.51 225.993 186.64 226.175 186.679 226.423C186.731 226.592 186.861 226.774 186.913 226.943C186.965 227.112 187.03 227.203 187.082 227.373C187.134 227.542 187.199 227.633 187.251 227.802C187.369 228.062 187.421 228.231 187.538 228.492C187.707 228.921 187.967 229.285 188.149 229.637C188.514 230.339 188.969 230.976 189.424 231.614C189.554 231.796 189.684 231.978 189.814 232.16C189.944 232.342 190.074 232.524 190.269 232.797C190.399 232.979 190.529 233.161 190.737 233.356C190.997 233.72 191.335 234.097 191.608 234.383C191.881 234.669 192.141 235.033 192.414 235.319C192.609 235.592 192.895 235.8 193.09 236.073C193.09 236.073 193.168 236.086 193.155 236.164C193.428 236.45 193.701 236.736 193.987 236.944C194.26 237.23 194.546 237.438 194.897 237.737L194.974 237.75C199.101 235.057 204.946 236.985 204.946 236.985C204.946 236.985 202.002 240.274 198.665 240.607C198.951 240.815 199.237 241.023 199.536 241.152C199.822 241.36 200.107 241.568 200.406 241.697C200.627 241.814 200.835 242.009 201.134 242.139C201.277 242.243 201.42 242.347 201.641 242.463C202.511 243.008 203.395 243.475 204.291 243.864C204.59 243.994 204.811 244.111 205.109 244.24C205.486 244.383 205.785 244.512 206.149 244.733C206.668 244.979 207.279 245.16 207.72 245.394C207.798 245.407 207.798 245.407 207.876 245.419C208.175 245.549 208.474 245.679 208.786 245.73C209.006 245.847 209.24 245.885 209.539 246.015C209.773 246.054 209.916 246.157 210.072 246.183C210.149 246.196 210.305 246.222 210.383 246.235C210.539 246.26 210.617 246.273 210.76 246.377C211.215 246.532 211.682 246.61 212.15 246.687C226.202 249.326 236.417 244.185 242.215 238.637C242.306 238.571 242.41 238.428 242.501 238.363C243.046 237.971 243.513 237.566 243.993 237.083C244.175 236.952 244.278 236.809 244.46 236.678C244.94 236.195 245.329 235.778 245.731 235.282C246.626 234.225 247.235 232.96 247.61 231.657C243.728 231.418 241.138 226.252 241.138 226.252C241.138 226.252 245.087 227.546 248.101 228.686C248.088 228.282 248.152 227.891 248.139 227.487C248.044 223.215 249.386 215.084 260.719 211.895C265.847 210.412 269.674 207.59 272.177 204.068C274.823 200.649 276.052 196.596 276.009 192.493ZM262.361 165.586C262.361 165.586 262.431 170.015 258.419 170.557C258.367 170.388 258.392 170.232 258.34 170.063C258.182 167.145 262.361 165.586 262.361 165.586Z" fill="url(#paint15_linear)"/>
<path d="M272.401 204.105C268.634 202.681 261.973 202.305 250.797 206.966C248.564 207.882 246.526 208.59 244.592 209.155C236.621 211.373 228.657 206.285 226.948 198.213C225.852 193.213 221.69 186.423 207.12 185.947C191.992 185.459 177.063 176.972 181.995 160.68C180.646 162.064 179.622 164.384 179.535 168.305C179.031 183.481 189.243 189.502 189.243 189.502C189.243 189.502 199.273 195.173 193.969 202.57L200.416 208.13C200.416 208.13 194.222 208.795 192.205 204.527C191.751 204.854 191.375 205.193 190.986 205.611C190.428 206.081 189.935 206.642 189.52 207.216C187.13 206.661 184.716 207.709 184.716 207.709C185.743 208.761 186.938 209.28 188.12 209.394C187.77 210.06 187.42 210.725 187.135 211.481C186.436 213.293 186.061 215.078 185.855 216.811C185.816 217.045 185.777 217.28 185.817 217.527C185.791 217.684 185.765 217.84 185.739 217.996C185.726 218.075 185.713 218.153 185.7 218.231C185.675 218.387 185.714 218.635 185.688 218.791C185.649 219.026 185.701 219.195 185.663 219.429C185.624 219.664 185.676 219.833 185.637 220.068C185.676 220.315 185.638 220.55 185.677 220.797C185.729 220.966 185.69 221.201 185.742 221.37C185.717 221.526 185.782 221.617 185.756 221.774C185.743 221.852 185.795 222.021 185.782 222.099C185.769 222.177 185.821 222.347 185.808 222.425C185.926 223.167 186.056 223.831 186.252 224.586C186.304 224.755 186.369 224.846 186.343 225.003C186.408 225.094 186.383 225.25 186.448 225.341C186.5 225.51 186.552 225.68 186.604 225.849C186.643 226.096 186.773 226.278 186.812 226.526C186.864 226.695 186.994 226.877 187.047 227.046C187.099 227.215 187.164 227.306 187.216 227.476C187.268 227.645 187.333 227.736 187.385 227.905C187.502 228.165 187.554 228.335 187.671 228.595C187.841 229.024 188.101 229.388 188.283 229.74C188.647 230.442 189.102 231.08 189.557 231.717C189.687 231.899 189.817 232.081 189.947 232.263C190.077 232.445 190.207 232.627 190.402 232.9C190.533 233.082 190.663 233.264 190.871 233.459C191.131 233.823 191.469 234.2 191.742 234.486C192.014 234.772 192.275 235.137 192.548 235.422C192.743 235.696 193.028 235.903 193.224 236.176C193.224 236.176 193.301 236.189 193.289 236.268C193.561 236.553 193.834 236.839 194.12 237.047C194.393 237.333 194.679 237.541 195.03 237.84L195.108 237.853C199.235 235.16 205.08 237.089 205.08 237.089C205.08 237.089 202.136 240.377 198.799 240.71C199.085 240.918 199.37 241.126 199.669 241.255C199.955 241.463 200.241 241.671 200.54 241.801C200.761 241.917 200.969 242.112 201.267 242.242C201.41 242.346 201.553 242.45 201.774 242.566C202.645 243.112 203.528 243.579 204.424 243.967C204.723 244.097 204.944 244.214 205.243 244.343C205.62 244.486 205.918 244.615 206.282 244.836L211.715 237.139C211.715 237.139 212.307 244.224 207.854 245.497C207.932 245.51 207.932 245.51 208.01 245.523C208.309 245.652 208.607 245.782 208.919 245.833C209.14 245.95 209.374 245.989 209.673 246.118C209.906 246.157 210.049 246.261 210.205 246.286C210.283 246.299 210.439 246.325 210.517 246.338C210.673 246.363 210.751 246.376 210.894 246.48C211.348 246.636 211.816 246.713 212.283 246.79C226.336 249.429 236.55 244.288 242.349 238.74C242.44 238.675 242.544 238.531 242.634 238.466C238.983 236.338 240.25 230.604 240.25 230.604L244.126 237.186C244.308 237.055 244.412 236.912 244.593 236.781C245.073 236.298 245.463 235.881 245.865 235.385C246.76 234.328 247.369 233.063 247.744 231.76C243.861 231.521 241.272 226.355 241.272 226.355C241.272 226.355 245.221 227.649 248.234 228.789C248.221 228.385 248.286 227.994 248.272 227.59C248.19 223.722 249.3 216.517 258.217 212.928C261.375 215.618 266.192 215.047 266.192 215.047C265.191 213.356 263.774 212.239 262.371 211.526C266.811 209.849 270.197 207.275 272.401 204.105Z" fill="url(#paint16_linear)"/>
<path d="M229.223 342.998C227.513 339.918 226.759 336.423 227.012 332.967L226.032 335.451L235.972 279.856C236.84 273.831 236.906 267.673 236.067 261.62L233.477 242.369C232.866 238.008 231.34 233.813 228.92 230.043L225.027 224.059C223.915 222.349 223.235 220.329 223.006 218.257L222.861 216.834L228.073 215.595C230.91 214.918 233.397 213.294 235.112 210.969L253.431 186.01L252.814 185.527L234.451 209.633C232.808 211.905 230.46 213.509 227.715 214.01L222.804 214.726L222.763 214.592C222.409 210.59 221.566 207.194 219.259 203.888L216.073 199.02C214.745 197.084 213.797 194.958 213.62 192.576L213.395 190.089C214.186 189.138 219.671 183.175 221.681 177.147C222.296 175.341 222.767 173.256 223.236 170.027C223.522 167.912 224.804 164.371 227.743 162.694L227.547 162.344C227.414 162.385 227.332 162.499 227.198 162.54C225.184 163.989 223.099 166.634 222.682 170.698C221.612 181.015 212.603 189.131 212.603 189.131L212.044 179.182L211.442 180.037L212.038 189.865L212.236 192.886C212.362 195.196 213.074 197.412 214.33 199.4L218.048 205.292C219.809 208.063 220.748 211.207 220.843 214.466L220.918 216.704C220.972 220.21 221.922 223.674 223.704 226.702L227.659 233.46C229.049 235.788 229.885 238.406 230.206 241.066L232.665 263.412C233.163 268.073 233.014 272.818 232.062 277.43L221.431 334.526L225.256 335.157C225.236 335.281 225.215 335.405 225.257 335.539C225.197 337.437 225.836 339.323 226.835 340.951L227.947 342.66C228.854 344.082 229.082 345.773 228.62 347.414L229.341 347.66L229.576 346.999C230.1 345.75 229.903 344.255 229.223 342.998Z" fill="url(#paint17_linear)"/>
<path d="M242.453 349.838C242.34 350.519 242.104 351.179 241.694 351.748C241.006 352.842 239.855 353.67 238.488 353.89L237.244 354.13L236.719 354.234C235.671 354.442 234.632 354.589 233.594 354.736C226.428 355.525 219.157 354.262 212.665 350.965C210.443 349.835 208.704 348.086 207.53 345.984C206.417 343.893 205.87 341.449 206.155 338.953L206.329 337.519C206.695 334.145 208.101 331.006 210.289 328.506C213.113 325.22 217.42 323.704 221.678 324.407C221.801 324.427 221.924 324.447 222.048 324.468C222.048 324.468 222.48 324.539 223.097 324.641C224.207 324.824 225.956 324.985 226.717 324.984C232.248 324.879 236.849 329.263 237.009 334.822L237.041 336.544C237.127 339.865 238.508 343.018 240.916 345.324L240.968 345.396C242.007 346.394 242.595 347.826 242.493 349.209C242.514 349.466 242.483 349.652 242.453 349.838Z" fill="url(#paint18_linear)"/>
<path d="M233.584 354.798C226.418 355.587 219.147 354.324 212.655 351.027C210.433 349.898 207.478 348.011 206.304 345.909C204.852 342.776 205.86 341.512 206.145 339.015C207.696 329.622 207.648 331.575 210.279 328.568C215.933 322.947 217.41 323.767 221.668 324.469C221.791 324.49 221.914 324.51 222.038 324.53C222.038 324.53 222.47 324.602 223.087 324.703C223.025 324.693 222.953 324.745 222.891 324.735C215.068 326.815 213.3 337.143 219.875 341.853C221.686 343.169 223.734 345.351 225.774 349.122C227.989 353.366 230.869 354.732 233.584 354.798Z" fill="url(#paint19_linear)"/>
<path d="M278.384 169.872L277.487 173.289L273.708 188.143L272.864 191.644C272.864 191.644 271.35 188.705 266.003 185.493L263.185 184.217C262.2 183.782 261.032 184.174 260.514 185.216L259.219 187.821L259.189 187.959L257.235 180.8L255.15 173.251L251.942 170.803L243.836 164.738L244.156 163.941L247.05 157.352L259.11 163.137L261.981 164.497L265.96 165.742L268.044 166.421L274.023 168.398L278.384 169.872Z" fill="url(#paint20_linear)"/>
<path d="M278.439 169.955L277.626 173.318C277.458 173.426 277.153 173.503 276.932 173.526C270.048 175.325 262.146 167.353 262.146 167.353L266.069 165.909L268.153 166.589L274.133 168.566L278.302 169.925C278.386 169.871 278.386 169.871 278.439 169.955Z" fill="url(#paint21_linear)"/>
<path d="M260.571 172.861C261.099 174.063 261.321 175.342 261.376 176.728C261.594 180.971 260.179 185.43 259.22 187.82C259.075 188.15 258.93 188.479 258.87 188.755C258.725 189.085 258.527 189.33 258.191 189.545C258.107 189.598 257.939 189.706 257.802 189.675C257.413 189.806 257.054 189.799 256.725 189.653L248.562 186.468C247.821 186.231 247.05 186.133 246.218 186.31C245.745 186.494 245.226 186.234 245.012 185.897L241.763 181.344C241.549 181.007 241.167 180.778 240.808 180.77C240.037 180.672 239.41 180.243 239.036 179.654L237.751 177.634L237.698 177.549C236.467 175.613 235.793 173.439 235.645 171.164C235.599 170.72 235.637 170.222 235.674 169.724L235.847 166.653L243.286 163.314L244.325 163.833L257.735 169.701C258.881 170.389 260.02 171.437 260.571 172.861Z" fill="url(#paint22_linear)"/>
<path d="M272.866 191.643C272.866 191.643 271.351 188.703 266.005 185.492L263.186 184.216C262.201 183.781 261.034 184.172 260.516 185.214L259.221 187.82C259.076 188.149 258.931 188.479 258.871 188.754C258.726 189.084 258.528 189.329 258.192 189.544C258.108 189.598 257.94 189.705 257.803 189.675C257.414 189.805 257.055 189.798 256.726 189.653L248.563 186.468C247.822 186.231 247.051 186.132 246.219 186.309C245.746 186.493 245.227 186.234 245.013 185.897L241.764 181.343C241.549 181.006 241.168 180.777 240.755 180.686C240.038 180.671 239.358 180.159 238.983 179.569L237.698 177.549L237.645 177.465C236.414 175.528 235.74 173.354 235.593 171.079C237.906 171.376 244.48 172.617 249.829 178.432C252.963 181.875 255.451 181.704 257.213 180.577C258.472 179.771 259.356 178.376 259.813 177.61C260.156 177.035 260.606 176.629 261.27 176.559C262.682 176.366 265.019 176.885 267.275 181.363C269.532 185.841 272.205 187.446 273.74 188.004L272.866 191.643Z" fill="url(#paint23_linear)"/>
<path d="M268.239 166.534C265.95 167.762 263.989 167.833 262.148 167.352C259.43 166.605 256.985 164.616 254.449 163.041C251.776 161.435 250.464 162.157 249.892 163.115C249.435 163.881 249.359 164.877 249.673 165.742C250.599 167.755 253.448 168.893 253.448 168.893L252.465 171.062L251.999 170.886L250.082 170.099C248.631 169.488 247.036 169.206 245.486 169.369C242.83 169.647 240.86 168.776 239.644 167.422C238.995 166.772 238.308 166.619 237.781 166.719C236.949 166.896 236.355 167.632 236.226 168.544C235.642 172.825 236.661 175.727 236.661 175.727C235.607 175.927 234.538 175.545 233.95 174.619C233.682 174.198 233.552 173.808 233.536 173.226C233.536 173.226 233.246 165.713 236.368 158.74C237.755 155.721 239.637 152.74 242.497 150.554C243.901 149.419 245.709 148.736 247.534 148.634C250.961 148.455 256.626 149.567 261.367 156.838C262.116 158.017 262.919 159.279 263.752 160.404L264.96 162.119L268.239 166.534Z" fill="url(#paint24_linear)"/>
<path d="M303.899 257.255C303.539 253.46 310.055 236.092 313.358 227.883H314.483L331.373 223.138C330.998 225.247 330.112 229.781 329.571 231.046C329.031 232.311 320.939 247.389 316.96 254.77V308.318H307.727C306.601 292.879 304.26 261.051 303.899 257.255Z" fill="#25167A"/>
<path d="M222.628 311.03L222.264 316.365C222.23 317.217 222.196 318.069 222.244 318.947L222.512 323.251C222.522 323.663 222.338 323.969 222.014 324.142C221.96 324.17 221.906 324.199 221.906 324.199C221.499 324.346 221.003 324.193 220.773 323.759L219.233 321.104C218.777 320.373 218.351 319.697 217.787 319.024L214.774 315.415C214.408 314.985 213.702 315.221 213.661 315.798L213.61 318.188C213.579 319.178 213.109 320.122 212.385 320.716L212.331 320.745C212.197 320.885 212.035 320.971 211.819 321.086C211.495 321.259 211.196 321.348 210.815 321.412L210.827 320.78C210.868 320.202 210.855 319.654 210.759 319.079C210.65 317.956 210.379 316.919 210.025 315.856L208.977 313.218C208.715 312.592 208.533 311.855 208.409 311.226L207.741 307.343C207.649 306.906 207.531 306.552 207.276 306.201C207.219 306.092 207.107 306.013 207.05 305.904L206.347 305.097L199.181 297.165L183.639 279.93C182.29 278.424 181.154 276.666 180.316 274.818L176.94 267.511L175.15 263.599L180.919 262.338L187.695 260.888L189.247 265.135L189.687 266.361C190.216 267.886 191.098 269.293 192.246 270.419C195.107 273.345 200.924 279.771 203.705 286.213C204.574 288.252 205.523 290.179 206.44 291.915C208.045 294.952 209.583 297.47 210.691 299.174C211.824 300.794 213.224 302.135 214.862 303.139L220.247 306.39C221.888 307.532 222.776 309.214 222.628 311.03Z" fill="url(#paint25_linear)"/>
<path d="M208.982 304.457C207.076 302.552 205.412 300.45 204.072 298.175C201.423 293.816 198.855 290.527 196.716 288.051C194.606 285.629 190.49 281.57 190.49 281.57C190.49 281.57 188.941 281.127 190.594 275.777C193.366 278.045 185.899 267.239 185.857 266.636C185.655 265.076 185.403 263.682 185.1 262.453C183.913 257.456 182.191 255.245 182.191 255.245C182.021 260.686 178.613 264.583 178.026 265.173L179.923 267.847C179.923 267.847 180.358 267.754 181.092 267.572L183.787 275.838C184.625 277.685 183.609 278.763 184.987 280.323L206.265 305.207L206.968 306.015C207.025 306.123 207.137 306.203 207.194 306.311C207.449 306.662 207.595 307.071 207.659 307.454L208.327 311.337C208.426 312.049 208.633 312.703 208.895 313.328L209.943 315.967C210.351 317.001 210.596 318.121 210.706 319.244C210.709 319.381 210.741 319.573 210.744 319.71C210.719 319.793 210.776 319.901 210.751 319.984C210.779 320.038 210.754 320.121 210.783 320.176C210.789 320.45 210.767 320.67 210.774 320.945L210.762 321.577C211.143 321.513 211.442 321.423 211.766 321.251C211.928 321.165 212.144 321.05 212.277 320.909L212.331 320.881C212.484 320.383 212.575 319.639 212.275 318.548C212.157 318.194 212.039 317.84 211.893 317.431C210.969 315.421 210.822 313.832 211.243 312.01C212.143 308.474 210.58 306.04 208.982 304.457Z" fill="url(#paint26_linear)"/>
<path d="M199.082 256.064L186.7 275.772L182.483 274.114H180.403L173.616 275.772L161.939 278.657L134.916 280.192L128.497 280.56C128.008 278.534 127.824 276.324 128.069 274.114C128.436 270.737 129.72 267.361 132.287 264.475C132.287 264.475 153.38 241.392 186.089 238.384L186.7 239.059L199.082 256.064Z" fill="url(#paint27_linear)"/>
<path d="M186.512 239.182L182.477 248.882C182.477 248.882 177.891 249.128 173.612 246.979C170.188 245.321 166.214 245.076 162.79 246.672C159.978 248.022 156.982 250.478 154.904 254.96C151.358 262.818 143.899 266.563 139.68 268.036C137.418 268.834 135.645 270.615 134.973 272.948V273.009C134.361 275.096 133.994 277.736 134.789 280.253L128.37 280.622C127.881 278.596 127.697 276.386 127.942 274.175C128.309 270.799 129.593 267.422 132.16 264.537C132.16 264.537 153.253 241.454 185.962 238.445L186.512 239.182Z" fill="url(#paint28_linear)"/>
<path d="M199.97 274.176C199.347 276.754 199.97 276.822 197.939 277.033C195.908 277.244 193.123 278.596 190.188 277.736C188.354 277.184 186.642 276.693 185.541 276.386C184.808 276.202 184.38 276.079 184.38 276.079L183.952 272.825L182.668 262.634L194.468 250.417C199.97 257.047 201.988 265.826 199.97 274.176Z" fill="url(#paint29_linear)"/>
<path d="M192.468 273.941C192.163 275.169 191.735 276.52 191.185 277.993C189.35 277.44 187.639 276.949 186.538 276.642C185.804 276.458 185.376 276.335 185.376 276.335C184.63 275.001 184.208 274.252 183.838 273.057C184.572 272.811 190.512 270.933 193.263 266.267C193.263 266.267 193.752 269.03 192.468 273.941Z" fill="url(#paint30_linear)"/>
<path d="M203.514 240.594L198.378 253.978L197.522 256.249L194.465 252.381L193.793 254.162C192.876 256.617 189.941 257.6 187.74 256.188C185.05 254.469 183.644 252.32 182.971 250.294C182.788 249.803 182.666 249.312 182.604 248.821C182.238 246.733 182.543 244.585 183.46 242.62L186.578 235.867L190.369 233.411L196.911 229.114L199.234 233.043L203.514 240.594Z" fill="url(#paint31_linear)"/>
<path d="M182.485 248.82C182.118 246.733 182.424 244.584 183.341 242.62L186.459 235.867L191.534 240.226C191.534 240.226 191.901 248.452 182.485 248.82Z" fill="url(#paint32_linear)"/>
<path d="M213.302 240.165C212.997 241.884 212.385 243.787 211.224 245.567C210.734 246.304 210.429 247.102 210.245 247.9C210.062 248.821 210.062 249.926 210.49 251.154C210.673 251.645 210.307 252.197 209.756 252.197C208.961 252.197 208.167 252.504 207.555 253.057C206.21 254.162 203.643 256.188 200.647 257.354C199.424 257.784 198.14 257.293 197.468 256.188L194.35 250.601L193.188 248.575C192.393 247.163 192.393 245.444 193.127 244.032C193.738 242.927 194.044 241.761 194.044 240.533C194.044 237.77 194.594 232.736 198.262 232.982C198.507 232.982 198.813 233.043 198.996 233.105C200.158 233.412 200.219 228.732 200.647 229.592C201.442 231.188 201.625 232.036 202.726 230.624L205.904 230.624C207.249 228.966 210.001 232.491 211.652 233.841L213.486 235.376C213.547 235.315 213.853 237.463 213.302 240.165Z" fill="url(#paint33_linear)"/>
<path opacity="0.4" d="M210.239 247.961C210.055 248.882 210.055 249.987 210.483 251.215C210.667 251.706 210.3 252.259 209.749 252.259C208.955 252.259 208.16 252.565 207.549 253.118C206.203 254.223 203.636 256.249 200.64 257.415C199.417 257.845 198.133 257.354 197.461 256.249L196.972 255.635C195.26 253.486 193.181 251.153 192.02 248.698C192.02 248.698 196.849 253.364 198.317 254.039C198.317 254.039 198.317 254.039 198.378 254.039C199.539 254.591 200.946 253.916 201.129 252.688C201.374 251.522 202.363 249.926 205.97 248.698C213.918 245.935 212.416 233.435 212.416 233.435L213.567 235.314C214.301 238.2 212.868 243.111 211.278 245.628C211.278 245.628 211.278 245.69 211.217 245.69C210.728 246.303 210.422 247.102 210.239 247.961Z" fill="url(#paint34_linear)"/>
<path d="M185.118 340.663C185.057 341.154 184.874 341.584 184.568 341.891C184.262 342.259 183.834 342.505 183.406 342.628C183.345 342.628 183.284 342.628 183.284 342.689C182.856 342.812 182.428 342.873 182 342.935C181.756 342.996 181.572 342.996 181.328 343.057C177.904 343.487 174.419 342.812 171.362 341.154C166.471 337.778 163.598 337.041 160.663 336.795C160.663 336.795 160.663 336.795 160.602 336.795C159.685 336.734 158.707 335.752 158.462 334.831C158.401 334.647 158.34 334.463 158.34 334.278C157.667 331.147 157.912 327.587 158.584 325.254C158.829 324.456 159.073 323.78 159.379 323.351L165.004 323.473L171.79 323.658C171.912 323.78 172.34 324.394 172.891 325.315C173.93 327.096 175.52 329.92 176.681 332.007C177.659 333.787 179.066 335.322 180.777 336.427L183.957 338.514C184.874 338.883 185.24 339.742 185.118 340.663Z" fill="url(#paint35_linear)"/>
<path d="M181.991 342.873C181.746 342.935 181.563 342.935 181.318 342.996C177.833 343.487 174.165 343.057 171.353 341.093C166.462 337.716 163.588 336.98 160.654 336.734C160.654 336.734 160.654 336.734 160.593 336.734C156.313 336.488 157.658 327.587 158.331 325.254C158.575 324.456 159.003 322.859 159.003 322.859L165.056 323.473C164.872 324.087 164.689 324.701 164.505 325.254C164.444 325.438 164.383 325.622 164.261 325.806C162.427 330.349 164.689 335.568 169.335 337.102C170.191 337.409 171.108 337.655 172.148 337.839C177.895 339.067 180.646 341.277 181.991 342.873Z" fill="url(#paint36_linear)"/>
<path d="M111.624 322.736V333.787L106.305 336.365L103.493 337.655C101.781 338.453 100.374 339.865 99.6408 341.645L98.3569 344.592C98.0512 345.267 97.6233 345.82 97.0119 346.188C96.4005 346.557 95.728 346.802 94.9944 346.802C94.2607 346.802 93.527 346.618 92.7934 346.127C92.6711 346.065 92.5488 345.943 92.4877 345.881C90.409 343.917 89.9199 341.277 89.9199 339.005C89.9199 336.795 90.4702 334.585 91.4484 332.621C92.4266 330.595 94.383 329.06 95.0555 324.885C95.1778 323.043 95.6669 321.509 96.2782 320.342C97.1342 318.623 99.0906 317.702 100.986 318.071C107.711 319.237 111.318 322.491 111.624 322.736Z" fill="url(#paint37_linear)"/>
<path d="M159.804 278.166L151.794 322.798C151.366 325.131 150.388 327.28 148.86 329.06C147.637 330.533 146.048 331.7 144.336 332.498C142.624 333.296 140.729 333.726 138.833 333.726L111.627 333.787V322.737L121.776 320.465C124.344 319.913 128.868 319.606 131.313 319.483C131.558 319.483 131.802 319.483 131.986 319.483C132.475 319.483 132.964 319.483 133.453 319.544C135.104 319.667 136.571 318.316 136.51 316.597L131.864 284.551L131.497 282.279L159.804 278.166Z" fill="url(#paint38_linear)"/>
<path d="M140.667 302.354C140.606 304.073 140.912 305.731 141.462 307.388C142.929 311.44 146.048 323.227 132.169 324.578C117.374 325.99 112.544 327.157 111.627 327.464V322.798L121.776 320.526C124.344 319.974 128.868 319.667 131.313 319.544C131.558 319.544 131.802 319.544 131.986 319.544C132.475 319.544 132.964 319.544 133.453 319.605C135.104 319.728 136.571 318.377 136.51 316.659L131.864 284.612L143.48 281.665L147.454 294.742C147.454 294.68 140.973 294.864 140.667 302.354Z" fill="url(#paint39_linear)"/>
<path d="M190.437 296.522L173.441 325.192H158.401C158.401 325.192 161.764 313.282 166.716 303.091C168.306 299.837 170.079 296.706 171.974 294.251C172.707 293.268 171.852 291.918 170.69 292.041L147.458 294.68C140.488 295.049 132.54 291.795 129.544 285.533C128.26 282.832 127.343 278.043 128.016 274.237V274.176C128.016 274.176 130.767 273.562 135.047 273.009C143.667 271.843 158.585 270.799 170.14 274.667L173.563 275.833L184.079 279.332C188.481 280.806 191.599 284.674 192.027 289.278C192.333 291.734 191.721 294.312 190.437 296.522Z" fill="url(#paint40_linear)"/>
<path d="M177.537 288.91C176.253 280.499 158.401 284.735 150.209 287.068C146.296 288.234 141.955 287.62 138.654 285.226C136.575 283.753 135.475 281.972 134.863 280.192C134.068 277.675 134.435 275.035 135.047 272.948C130.767 273.5 128.016 274.114 128.016 274.114V274.176C127.343 277.982 128.26 282.77 129.544 285.472C132.601 291.795 140.549 295.049 147.458 294.619L170.69 291.979C171.913 291.857 172.707 293.207 171.974 294.189C162.375 307.757 158.34 325.07 158.34 325.07H164.576C164.76 324.517 164.943 323.903 165.126 323.289C165.677 321.141 165.921 318.501 165.554 315.492C164.515 307.45 170.323 299.653 172.341 297.259C173.563 295.97 174.603 294.988 175.459 294.251C176.987 293.023 177.843 290.997 177.537 288.91Z" fill="url(#paint41_linear)"/>
<path d="M243.354 303.864C242.882 305.13 241.973 306.861 240.354 307.728C239.824 308.035 239.15 308.213 238.384 308.231L228.282 305.151C226.664 304.671 225.113 303.939 223.66 303.008C222.746 302.403 221.766 302.049 220.689 301.893L189.536 296.829C186.536 296.156 183.814 294.614 181.657 292.461L178.882 289.602L177.769 288.403L167.294 277.316C165.799 275.7 165.077 273.709 165.067 271.729C165.061 268.897 166.565 266.112 169.296 264.601C173.063 262.561 177.833 263.98 180.081 267.64L188.206 280.656C188.39 280.975 188.626 281.263 188.863 281.552C188.924 281.658 189.038 281.734 189.099 281.84C190.602 283.593 192.724 284.703 195.016 285.006C199.516 285.589 207.695 287.657 219.453 294.103C220.19 294.526 221.034 294.888 221.869 295.113L222.234 295.256C223.465 295.677 224.808 295.679 226.042 295.248L229.616 294.099C230.851 293.668 232.163 293.617 233.416 293.954L238.632 295.044C239.102 295.126 239.272 295.666 238.993 296.04L238.661 296.445C238.33 296.85 237.822 297.073 237.276 297.105L236.017 297.126C235.797 297.111 235.761 297.416 235.928 297.461C237.479 298.193 240.984 299.991 242.715 301.895L242.746 301.948C243.422 302.265 243.639 303.132 243.354 303.864Z" fill="url(#paint42_linear)"/>
<path opacity="0.6" d="M240.365 307.728C239.836 308.035 239.162 308.213 238.396 308.231L228.293 305.151C226.675 304.671 225.124 303.938 223.671 303.008C222.758 302.403 221.778 302.049 220.7 301.893L189.547 296.829C186.548 296.156 183.825 294.614 181.668 292.46L178.893 289.602L177.586 290.642L167.252 277.346C165.758 275.731 165.035 273.739 165.026 271.76C167.87 271.672 177.453 272.501 182.709 286.541C183.001 287.293 183.27 288.13 183.54 288.966C183.54 288.966 187.454 298.466 198.883 293.547C206.362 290.35 212.604 293.468 216.075 296.065C220.148 299.094 225.177 300.718 230.241 300.195C230.514 300.178 230.756 300.109 231.029 300.092C235.456 299.442 238.811 304.659 240.365 307.728Z" fill="url(#paint43_linear)"/>
<path d="M184.457 274.39L183.014 275.032L174.947 278.472L169.963 280.575L168.258 281.287L161.461 265.827C160.383 263.892 160.238 261.77 160.842 259.828C161.715 257.051 164.169 254.675 167.526 253.836C172.142 252.723 176.744 255.235 177.984 259.351L184.457 274.39Z" fill="url(#paint44_linear)"/>
<path d="M174.923 278.413L169.955 280.575L168.25 281.287L161.453 265.827C160.375 263.892 160.229 261.77 160.834 259.828C163.933 260.393 173.742 263.476 174.923 278.413Z" fill="url(#paint45_linear)"/>
<path d="M111.615 322.736V327.402C111.615 327.402 106.235 329.674 102.812 324.762C99.3879 319.851 95.9642 324.885 97.1258 329.981C97.7372 332.805 96.331 336.181 94.986 338.698C93.7021 341.031 93.5798 343.855 94.8025 346.25L95.0471 346.741V346.802C94.3134 346.802 93.5798 346.618 92.8461 346.127C92.7239 346.065 92.6016 345.943 92.5404 345.881C90.4618 343.917 89.9727 341.277 89.9727 339.005C89.9727 336.795 90.5229 334.585 91.5011 332.621C92.4793 330.595 94.4357 329.06 95.1082 324.885C95.2305 323.043 95.7196 321.509 96.331 320.342C97.1869 318.623 99.1433 317.702 101.039 318.071C107.703 319.237 111.31 322.491 111.615 322.736Z" fill="url(#paint46_linear)"/>
<path d="M201.147 219.297C211.368 221.107 213.542 231.092 213.542 235.616C211.438 233.358 204.882 232.814 202.349 236.72C197.207 244.647 191.036 240.167 186.571 244.647C181.573 249.661 175.937 242.217 166.79 249.345C161.92 254.72 155.096 251.859 151.84 249.345L151.894 249.318C156.892 246.812 159.472 245.517 161.719 240.258C163.973 234.98 173.239 228.679 180.851 227.219C188.464 225.759 188.371 217.035 201.147 219.297Z" fill="url(#paint47_linear)"/>
<path d="M212.676 230.189C210.6 227.367 204.866 223.167 199.065 225.899C196.006 227.339 194.154 229.685 192.64 231.383C190.564 233.712 185.817 235.029 180.85 235.458C172.266 236.201 167.378 239.544 164.272 244.148C162.15 247.292 159.967 251.517 155.651 250.688C153.926 250.357 152.856 250.13 151.84 249.345C156.872 246.821 160.013 244.64 162.267 239.362C164.522 234.084 173.238 228.679 180.85 227.219C183.789 226.655 185.58 225.009 187.405 223.33C190.309 220.661 193.303 217.908 201.147 219.297C207.744 220.465 210.988 225.038 212.459 229.352C212.535 229.646 212.608 229.926 212.676 230.189Z" fill="url(#paint48_linear)"/>
<path d="M331.93 272.65C331.93 276.806 329.569 298.625 328.389 309.015V310.144L314.676 306.53C314.824 297.42 315.03 278.613 314.676 276.264C314.234 273.328 312.467 260.227 312.025 255.258C311.671 251.283 317.627 233.123 320.649 224.54C321.534 223.336 325.382 220.384 333.698 218.216C344.093 215.506 349.18 209.407 349.18 212.569C348.296 238.544 334.141 252.322 331.93 256.839C329.718 261.357 331.929 267.455 331.93 272.65Z" fill="url(#paint49_linear)"/>
<path d="M306.764 306.944L316.657 308.248L325.15 322.357L310.46 333.404L296.398 338.861C294.672 338.373 291.036 337.264 290.295 336.731C289.369 336.066 290.558 332.073 291.221 329.278C291.885 326.483 303.958 323.555 305.815 322.357C307.301 321.398 306.986 311.114 306.764 306.944Z" fill="#16196C"/>
<path d="M317.426 339.692C312.447 341.07 303.503 340.716 297.279 340.149C294.882 339.931 293.423 337.902 294.496 335.748C294.897 334.944 295.412 334.003 296.076 332.914C299.05 328.033 309.598 324.871 312.832 323.695C315.177 322.842 313.539 311.97 313.539 305.46C315.07 305.46 318.392 307.387 322.044 307.925C324.655 308.309 328.417 308.873 329.047 308.873V317.459V333.342C329.047 334.428 328.496 335.44 327.527 335.93C325.542 336.933 322.086 338.403 317.426 339.692Z" fill="url(#paint50_linear)"/>
<path d="M272.548 210.682L273.732 188.8L281.233 191.647L280.017 214.626L284.273 226.421L281.233 235.979L276.976 236.996L273.137 218.494C272.604 215.927 272.406 213.3 272.548 210.682Z" fill="#CA9BDC"/>
<path d="M324.244 308.249C324.244 313.81 321.478 316.65 321.03 318.545C318.863 327.715 322.465 331.573 314.708 333.998C310.352 335.361 305.588 331.99 300.73 333.998C298.826 334.786 295.315 337.378 294.389 337.906C294.786 339.13 296.002 340.037 297.616 340.179C303.821 340.728 312.535 341.046 317.426 339.692C321.987 338.43 325.396 336.995 327.401 335.994C328.452 335.469 329.048 334.373 329.048 333.195V308.873C328.583 308.873 326.404 308.564 324.244 308.249Z" fill="url(#paint51_linear)"/>
<path opacity="0.8" d="M347.981 215.259C345.815 222.362 342.497 233.228 335.915 235.359C331.943 236.644 325.735 242.307 326.486 247.796C326.968 251.337 325.415 254.854 324.162 257.687C323.475 259.244 322.879 260.594 322.761 261.627C322.656 262.535 322.498 263.555 322.323 264.659C321.45 270.212 320.241 277.89 324.368 284.163C327.635 289.132 326.554 294.896 325.732 299.265C325.449 300.774 325.196 302.117 325.166 303.203C325.122 304.712 325.897 307.256 326.864 309.741L328.393 310.144V309.015C329.575 298.625 331.937 276.806 331.933 272.65C331.933 270.927 331.691 269.104 331.445 267.272C330.953 263.583 330.458 259.858 331.933 256.839C332.361 255.963 333.24 254.739 334.386 253.145C339.139 246.519 348.473 233.507 349.187 212.57C349.187 212.262 349.14 212.039 349.042 211.896C348.719 212.851 348.369 213.995 347.981 215.259Z" fill="url(#paint52_linear)"/>
<path d="M325.433 223.401C318.929 228.999 314.474 228.281 310.535 228.999C309.88 225.109 307.105 215.249 302.524 210.652C297.942 206.055 284.507 200.357 278.362 198.083L270.307 191.08C269.531 190.062 268.446 187.381 270.307 184.795C272.168 182.209 272.396 172.226 272.277 167.557C278.124 165.881 294.434 163.786 312.904 168.814C330.002 173.468 344.227 194.946 350.221 207.75C350.967 209.344 350.22 211.29 348.871 212.421C346.467 214.437 343.792 217.34 341.731 218.064C338.151 219.321 332.585 216.398 325.433 223.401Z" fill="url(#paint53_linear)"/>
<path d="M331.551 219.354C328.563 217.596 326.121 214.942 325.497 211.852C325.376 211.254 325.268 210.606 325.157 209.927C324.362 205.137 323.315 198.799 315.446 197.864C312.892 197.56 311.134 195.263 309.311 192.885C308.068 191.262 306.795 189.601 305.222 188.511C298.933 184.156 293.732 184.464 286.924 184.866L285.452 184.951C279.874 185.262 274.093 181.813 271.715 179.913C271.715 179.901 271.722 179.889 271.722 179.877C272.288 175.847 272.355 170.584 272.277 167.557C278.125 165.881 294.433 163.786 312.906 168.814C312.929 168.821 312.956 168.828 312.98 168.834C329.132 173.282 343.452 193.963 349.842 207.042C349.91 207.178 349.994 207.323 350.108 207.507C350.92 209.231 350.122 211.355 348.67 212.59C348.05 213.118 347.417 213.697 346.78 214.279C344.998 215.907 343.209 217.545 341.731 218.064C340.666 218.437 339.43 218.442 338.029 218.447C336.156 218.454 333.986 218.463 331.551 219.354Z" fill="url(#paint54_linear)"/>
<path d="M265.641 272.587L271.527 263.891H280.461L277.968 277.686C277.741 278.944 277.265 280.143 276.568 281.213L272.587 287.328L269.458 288.111L268.805 281.011L265.613 276.128C264.908 275.05 264.919 273.654 265.641 272.587Z" fill="#E0C9EF"/>
<path d="M295.81 224.722C295.81 221.435 297.095 210.461 297.737 205.385C292.195 205.747 280.823 207.173 279.668 209.977C278.224 213.482 281.352 226.777 281.111 228.227C280.87 229.678 281.594 230.282 278.341 235.358C275.089 240.434 270.512 263.035 271.596 264.606C272.463 265.863 277.339 266.58 279.668 266.781C283.322 258.442 290.918 241.208 292.075 238.984C293.52 236.204 295.809 228.831 295.81 224.722Z" fill="#E0C9EF"/>
<path opacity="0.6" d="M297.557 206.828C296.883 212.304 295.808 221.72 295.808 224.723C295.808 228.832 293.521 236.204 292.076 238.984C290.917 241.208 283.321 258.442 279.666 266.782C279.292 266.749 278.851 266.704 278.373 266.644C278.043 265.522 277.672 264.091 277.433 262.729C276.938 259.931 276.021 253.641 280.559 249.938C284.958 246.345 287.161 241.172 286.299 234.968C285.531 229.434 287.02 226.163 289.041 221.723C289.371 220.998 289.715 220.243 290.065 219.441C292.568 213.71 291.372 209.669 290.065 207.261C292.066 207.078 295.182 206.855 297.557 206.828Z" fill="url(#paint55_linear)"/>
<path d="M300.617 194.855C301.311 190.259 300.617 186.164 297.837 182.145C296.239 179.833 290.802 178.754 286.732 180.404C282.697 182.039 280.624 184.95 279.962 189.284C278.689 197.618 277.834 207.225 279.206 210.74C279.859 212.412 288.353 208.445 290.609 207.923C292.414 207.505 296.045 207.276 297.837 206.696C298.474 204.664 299.922 199.452 300.617 194.855Z" fill="#72DFDA"/>
<path opacity="0.5" d="M290.308 208.003C289.644 204.722 289.065 199.391 290.608 196.791C292.827 193.046 295.452 185.051 294.744 182.116C294.559 181.342 294.417 180.641 294.313 180.031C295.889 180.462 297.183 181.201 297.836 182.145C300.616 186.164 301.309 190.258 300.616 194.855C299.922 199.452 298.473 204.664 297.836 206.695C296.796 207.032 295.138 207.251 293.575 207.457C292.443 207.605 291.365 207.748 290.608 207.923C290.517 207.944 290.416 207.971 290.308 208.003Z" fill="url(#paint56_linear)"/>
<path d="M270.699 334.117C268.028 332.866 263.5 333.596 261.57 334.117C258.824 335.606 252.931 338.584 251.328 338.584H239.973C236.41 338.584 231.958 334.117 226.837 334.117C221.716 334.117 220.302 332.869 218.966 331.082C217.63 329.295 213.923 331.883 212.81 334.117C211.696 336.351 207.35 339.079 203.05 338.584C197.941 337.997 179.506 349.826 184.566 353.679C190.577 354.125 225.037 357.174 237.558 357.391C247.658 357.565 256.004 357.391 263.797 357.391C271.589 357.391 286.952 357.837 291.182 357.391C294.567 357.033 297.491 344.914 298.53 343.946C296.081 343.797 290.336 343.588 286.952 343.946C282.722 344.392 280.495 340.595 277.156 338.584C273.816 336.574 274.038 335.68 270.699 334.117Z" fill="url(#paint57_linear)"/>
<defs>
<linearGradient id="paint0_linear" x1="224.276" y1="23.573" x2="220.914" y2="271.07" gradientUnits="userSpaceOnUse">
<stop offset="0.00487805" stop-color="#CA7DF1"/>
<stop offset="1" stop-color="#80E6FB"/>
</linearGradient>
<linearGradient id="paint1_linear" x1="211.009" y1="354.138" x2="313.385" y2="30.9827" gradientUnits="userSpaceOnUse">
<stop offset="0.00487805" stop-color="#CA7DF1"/>
<stop offset="1" stop-color="#80E6FB"/>
</linearGradient>
<linearGradient id="paint2_linear" x1="249.036" y1="92.97" x2="250.627" y2="70.4375" gradientUnits="userSpaceOnUse">
<stop offset="0.00487805" stop-color="#CA7DF1"/>
<stop offset="1" stop-color="#80E6FB"/>
</linearGradient>
<linearGradient id="paint3_linear" x1="95.5865" y1="132.259" x2="95.5865" y2="250.551" gradientUnits="userSpaceOnUse">
<stop offset="0.00487805" stop-color="#C97DF0"/>
<stop offset="0.844972" stop-color="#89DAFB"/>
</linearGradient>
<linearGradient id="paint4_linear" x1="452.444" y1="300.914" x2="367.113" y2="178.835" gradientUnits="userSpaceOnUse">
<stop offset="0.00487805" stop-color="#0E073D"/>
<stop offset="1" stop-color="#2941CB"/>
</linearGradient>
<linearGradient id="paint5_linear" x1="406.21" y1="410.79" x2="419.235" y2="-124.824" gradientUnits="userSpaceOnUse">
<stop offset="0.00487805" stop-color="#0E073D"/>
<stop offset="1" stop-color="#2941CB"/>
</linearGradient>
<linearGradient id="paint6_linear" x1="77.8988" y1="318.349" x2="101.75" y2="242.178" gradientUnits="userSpaceOnUse">
<stop stop-color="#0E073D"/>
<stop offset="1" stop-color="#2941CB"/>
</linearGradient>
<linearGradient id="paint7_linear" x1="46.148" y1="357.045" x2="38.5116" y2="39.3659" gradientUnits="userSpaceOnUse">
<stop offset="0.00487805" stop-color="#0E073D"/>
<stop offset="1" stop-color="#2941CB"/>
</linearGradient>
<linearGradient id="paint8_linear" x1="206.238" y1="307.938" x2="206.233" y2="364.281" gradientUnits="userSpaceOnUse">
<stop stop-color="#8058E2"/>
<stop offset="0.9951" stop-color="#A66EE7"/>
</linearGradient>
<linearGradient id="paint9_linear" x1="139.605" y1="326.904" x2="136.579" y2="377.633" gradientUnits="userSpaceOnUse">
<stop offset="0.00487805" stop-color="#2424CE"/>
<stop offset="1" stop-color="#A847D3" stop-opacity="0"/>
</linearGradient>
<linearGradient id="paint10_linear" x1="108.066" y1="327.104" x2="106.817" y2="350.95" gradientUnits="userSpaceOnUse">
<stop offset="0.00487805" stop-color="#2424CE"/>
<stop offset="1" stop-color="#A847D3" stop-opacity="0"/>
</linearGradient>
<linearGradient id="paint11_linear" x1="236.323" y1="331.995" x2="233.435" y2="387.815" gradientUnits="userSpaceOnUse">
<stop offset="0.00487805" stop-color="#2424CE"/>
<stop offset="1" stop-color="#A847D3" stop-opacity="0"/>
</linearGradient>
<linearGradient id="paint12_linear" x1="83.6597" y1="132.049" x2="205.677" y2="132.049" gradientUnits="userSpaceOnUse">
<stop stop-color="#C67BF0"/>
<stop offset="0.9946" stop-color="#1321CB"/>
</linearGradient>
<linearGradient id="paint13_linear" x1="392.779" y1="120.349" x2="390.572" y2="91.6978" gradientUnits="userSpaceOnUse">
<stop offset="0.00487805" stop-color="#CA7DF1"/>
<stop offset="1" stop-color="#80E6FB"/>
</linearGradient>
<linearGradient id="paint14_linear" x1="260.686" y1="282.443" x2="265.059" y2="338.535" gradientUnits="userSpaceOnUse">
<stop stop-color="#C31573"/>
<stop offset="1" stop-color="#742D88"/>
</linearGradient>
<linearGradient id="paint15_linear" x1="245.543" y1="27.4525" x2="197.553" y2="363.807" gradientUnits="userSpaceOnUse">
<stop stop-color="#FFFF87"/>
<stop offset="1" stop-color="#F15A24"/>
</linearGradient>
<linearGradient id="paint16_linear" x1="279.598" y1="-139.158" x2="206.202" y2="305.714" gradientUnits="userSpaceOnUse">
<stop stop-color="#FFFF87"/>
<stop offset="1" stop-color="#F15A24"/>
</linearGradient>
<linearGradient id="paint17_linear" x1="204.693" y1="360.214" x2="230.157" y2="205.869" gradientUnits="userSpaceOnUse">
<stop stop-color="#FFC596"/>
<stop offset="0.6537" stop-color="#D053DB"/>
<stop offset="1" stop-color="#933FF4"/>
</linearGradient>
<linearGradient id="paint18_linear" x1="241.354" y1="240.892" x2="221.342" y2="362.195" gradientUnits="userSpaceOnUse">
<stop stop-color="#46EFFD"/>
<stop offset="1" stop-color="#FFDA83"/>
</linearGradient>
<linearGradient id="paint19_linear" x1="278.611" y1="348.77" x2="154.372" y2="328.257" gradientUnits="userSpaceOnUse">
<stop stop-color="#FFFF87"/>
<stop offset="1" stop-color="#F15A24"/>
</linearGradient>
<linearGradient id="paint20_linear" x1="306.335" y1="238.383" x2="239.827" y2="134.45" gradientUnits="userSpaceOnUse">
<stop stop-color="#C8A4E1"/>
<stop offset="0.9946" stop-color="#FCF4FF"/>
</linearGradient>
<linearGradient id="paint21_linear" x1="267.841" y1="176.218" x2="259.648" y2="200.381" gradientUnits="userSpaceOnUse">
<stop stop-color="#FFEAD6"/>
<stop offset="0.9951" stop-color="#9E4ECB"/>
</linearGradient>
<linearGradient id="paint22_linear" x1="294.211" y1="246.143" x2="227.703" y2="142.211" gradientUnits="userSpaceOnUse">
<stop stop-color="#C8A4E1"/>
<stop offset="0.9946" stop-color="#FCF4FF"/>
</linearGradient>
<linearGradient id="paint23_linear" x1="250.137" y1="202.049" x2="257.221" y2="167.359" gradientUnits="userSpaceOnUse">
<stop stop-color="#FFEAD6"/>
<stop offset="0.9951" stop-color="#9E4ECB"/>
</linearGradient>
<linearGradient id="paint24_linear" x1="238.829" y1="151.285" x2="253.816" y2="174.707" gradientUnits="userSpaceOnUse">
<stop offset="0.00487805" stop-color="#642C9B"/>
<stop offset="1" stop-color="#A847D3"/>
</linearGradient>
<linearGradient id="paint25_linear" x1="219.968" y1="341.954" x2="178.531" y2="234.103" gradientUnits="userSpaceOnUse">
<stop stop-color="#FFDBB7"/>
<stop offset="1" stop-color="#F180AE"/>
</linearGradient>
<linearGradient id="paint26_linear" x1="301.364" y1="231.639" x2="185.324" y2="292.946" gradientUnits="userSpaceOnUse">
<stop stop-color="#FFDBB7"/>
<stop offset="1" stop-color="#F180AE"/>
</linearGradient>
<linearGradient id="paint27_linear" x1="164.661" y1="281.11" x2="164.661" y2="232.846" gradientUnits="userSpaceOnUse">
<stop stop-color="#5B348F"/>
<stop offset="1" stop-color="#FF0362"/>
</linearGradient>
<linearGradient id="paint28_linear" x1="162.447" y1="236.954" x2="85.3546" y2="310.915" gradientUnits="userSpaceOnUse">
<stop offset="0.0097561" stop-color="#572D85"/>
<stop offset="1" stop-color="#8639B8"/>
</linearGradient>
<linearGradient id="paint29_linear" x1="193.298" y1="292.603" x2="195.906" y2="247.983" gradientUnits="userSpaceOnUse">
<stop offset="0.0097561" stop-color="#CC1270"/>
<stop offset="1" stop-color="#882683"/>
</linearGradient>
<linearGradient id="paint30_linear" x1="192.035" y1="266.311" x2="190.949" y2="280.009" gradientUnits="userSpaceOnUse">
<stop offset="0.0097561" stop-color="#7D2A86"/>
<stop offset="1" stop-color="#A11E7C"/>
</linearGradient>
<linearGradient id="paint31_linear" x1="192.922" y1="182.675" x2="192.922" y2="358.194" gradientUnits="userSpaceOnUse">
<stop stop-color="#FFDBB7"/>
<stop offset="1" stop-color="#F180AE"/>
</linearGradient>
<linearGradient id="paint32_linear" x1="209.324" y1="242.352" x2="187.441" y2="242.352" gradientUnits="userSpaceOnUse">
<stop stop-color="#FFDB67"/>
<stop offset="1" stop-color="#F180AE"/>
</linearGradient>
<linearGradient id="paint33_linear" x1="203.128" y1="182.675" x2="203.128" y2="358.194" gradientUnits="userSpaceOnUse">
<stop stop-color="#FFDBB7"/>
<stop offset="1" stop-color="#F180AE"/>
</linearGradient>
<linearGradient id="paint34_linear" x1="162.476" y1="246.367" x2="206.241" y2="246.367" gradientUnits="userSpaceOnUse">
<stop stop-color="#FFDB67"/>
<stop offset="1" stop-color="#F180AE"/>
</linearGradient>
<linearGradient id="paint35_linear" x1="171.553" y1="360.721" x2="171.553" y2="279.179" gradientUnits="userSpaceOnUse">
<stop stop-color="#5B348F"/>
<stop offset="1" stop-color="#FF0362"/>
</linearGradient>
<linearGradient id="paint36_linear" x1="186.011" y1="333.093" x2="83.7609" y2="333.093" gradientUnits="userSpaceOnUse">
<stop stop-color="#5B348F"/>
<stop offset="1" stop-color="#FF0362"/>
</linearGradient>
<linearGradient id="paint37_linear" x1="100.893" y1="361.777" x2="100.893" y2="291.159" gradientUnits="userSpaceOnUse">
<stop stop-color="#5B348F"/>
<stop offset="1" stop-color="#FF0362"/>
</linearGradient>
<linearGradient id="paint38_linear" x1="135.697" y1="363.383" x2="135.732" y2="241.573" gradientUnits="userSpaceOnUse">
<stop stop-color="#A144CE"/>
<stop offset="1" stop-color="#7934AC"/>
</linearGradient>
<linearGradient id="paint39_linear" x1="143.485" y1="339.541" x2="126.116" y2="281.772" gradientUnits="userSpaceOnUse">
<stop stop-color="#63318D"/>
<stop offset="1" stop-color="#4D297E"/>
</linearGradient>
<linearGradient id="paint40_linear" x1="159.923" y1="353.526" x2="159.947" y2="236.91" gradientUnits="userSpaceOnUse">
<stop stop-color="#A144CE"/>
<stop offset="1" stop-color="#7934AC"/>
</linearGradient>
<linearGradient id="paint41_linear" x1="172.082" y1="338.815" x2="136.506" y2="261.64" gradientUnits="userSpaceOnUse">
<stop stop-color="#63318D"/>
<stop offset="1" stop-color="#97227F"/>
</linearGradient>
<linearGradient id="paint42_linear" x1="251.875" y1="290.849" x2="150.025" y2="280.1" gradientUnits="userSpaceOnUse">
<stop stop-color="#FFDBB7"/>
<stop offset="1" stop-color="#F180AE"/>
</linearGradient>
<linearGradient id="paint43_linear" x1="215.028" y1="260.719" x2="197.22" y2="302.224" gradientUnits="userSpaceOnUse">
<stop stop-color="#FFDBB7"/>
<stop offset="1" stop-color="#F180AE"/>
</linearGradient>
<linearGradient id="paint44_linear" x1="178.149" y1="289.973" x2="169.588" y2="250.977" gradientUnits="userSpaceOnUse">
<stop offset="0.0097561" stop-color="#CC1270"/>
<stop offset="1" stop-color="#882683"/>
</linearGradient>
<linearGradient id="paint45_linear" x1="167.689" y1="258.586" x2="171.4" y2="284.758" gradientUnits="userSpaceOnUse">
<stop offset="0.0097561" stop-color="#7D2A86"/>
<stop offset="1" stop-color="#A11E7C"/>
</linearGradient>
<linearGradient id="paint46_linear" x1="102.515" y1="326.43" x2="102.515" y2="294.98" gradientUnits="userSpaceOnUse">
<stop stop-color="#5B348F"/>
<stop offset="1" stop-color="#FF0362"/>
</linearGradient>
<linearGradient id="paint47_linear" x1="162.728" y1="252.395" x2="200.572" y2="281.571" gradientUnits="userSpaceOnUse">
<stop stop-color="#D687E8"/>
<stop offset="1" stop-color="#772C88"/>
</linearGradient>
<linearGradient id="paint48_linear" x1="215.007" y1="224.047" x2="200.785" y2="200.234" gradientUnits="userSpaceOnUse">
<stop stop-color="#B81876"/>
<stop offset="1" stop-color="#6E2E8A"/>
</linearGradient>
<linearGradient id="paint49_linear" x1="330.597" y1="205.6" x2="330.597" y2="282.434" gradientUnits="userSpaceOnUse">
<stop stop-color="#130C52"/>
<stop offset="1" stop-color="#6137F9"/>
</linearGradient>
<linearGradient id="paint50_linear" x1="311.074" y1="305.459" x2="311.074" y2="340.651" gradientUnits="userSpaceOnUse">
<stop stop-color="#2539B8"/>
<stop offset="1" stop-color="#1D278C"/>
</linearGradient>
<linearGradient id="paint51_linear" x1="311.718" y1="308.249" x2="311.718" y2="340.65" gradientUnits="userSpaceOnUse">
<stop stop-color="#161868"/>
<stop offset="1" stop-color="#191F79"/>
</linearGradient>
<linearGradient id="paint52_linear" x1="409.694" y1="268.651" x2="218.085" y2="268.651" gradientUnits="userSpaceOnUse">
<stop stop-color="#130C52"/>
<stop offset="1" stop-color="#6137F9"/>
</linearGradient>
<linearGradient id="paint53_linear" x1="360.414" y1="196.85" x2="117.82" y2="196.85" gradientUnits="userSpaceOnUse">
<stop stop-color="#46EFFD"/>
<stop offset="1" stop-color="#FFDA83"/>
</linearGradient>
<linearGradient id="paint54_linear" x1="371.173" y1="224.504" x2="265.616" y2="146.444" gradientUnits="userSpaceOnUse">
<stop stop-color="#80E9D8"/>
<stop offset="1" stop-color="#FFDA83"/>
</linearGradient>
<linearGradient id="paint55_linear" x1="287.282" y1="206.828" x2="287.282" y2="266.782" gradientUnits="userSpaceOnUse">
<stop stop-color="#B36FCE"/>
<stop offset="1" stop-color="#C993D0"/>
</linearGradient>
<linearGradient id="paint56_linear" x1="305.123" y1="170.85" x2="267.03" y2="198.469" gradientUnits="userSpaceOnUse">
<stop stop-color="#6CF4F9"/>
<stop offset="1" stop-color="#003780"/>
</linearGradient>
<linearGradient id="paint57_linear" x1="245.562" y1="330.486" x2="242.608" y2="357.043" gradientUnits="userSpaceOnUse">
<stop stop-color="#4A33D3"/>
<stop offset="1" stop-color="#814FDB"/>
</linearGradient>
</defs>
</svg>
