<svg width="558" height="435" viewBox="0 0 558 435" fill="none" xmlns="http://www.w3.org/2000/svg">
<mask id="mask0" mask-type="alpha" maskUnits="userSpaceOnUse" x="0" y="0" width="558" height="434">
<path d="M334.453 16.6994C277.299 64.125 217.41 79.021 128.487 98.782C64.3052 113.045 16.7633 163.536 4.60296 212.785C-10.5975 274.347 18.2834 394.431 107.206 417.992C196.129 441.552 481.898 463.593 545.74 267.507C609.582 71.421 405.895 -42.5825 334.453 16.6994Z" fill="url(#paint0_linear)"/>
</mask>
<g mask="url(#mask0)">
<path d="M334.453 16.6994C277.299 64.125 217.41 79.021 128.487 98.782C64.3052 113.045 16.7633 163.536 4.60296 212.785C-10.5975 274.347 18.2834 394.431 107.206 417.992C196.129 441.552 481.898 463.593 545.74 267.507C609.582 71.421 405.895 -42.5825 334.453 16.6994Z" fill="url(#paint1_linear)"/>
<path d="M298.448 408.62C302.955 407.043 308.456 405.425 309.801 404.079L332.508 402.817V429.56H307.783H274.48V426.028C274.48 419.728 279.759 413.847 285.869 412.313C290.159 411.236 294.824 409.889 298.448 408.62Z" fill="#03010D"/>
<path d="M1.95208 171.728C9.54094 166.352 17.0944 161.759 23.6537 157.771C29.9551 153.939 35.3389 150.665 38.9552 147.791C39.5833 148.402 50.2023 159.142 43.2691 183.43L27.7674 187.52L40.9226 190.457C40.3181 192.032 39.6547 193.653 38.9199 195.334C35.7693 202.536 33.7008 210.157 32.7808 217.954C30.3681 219.18 28.0886 220.649 25.9779 222.336C12.6806 232.7 6.1859 230.256 5.83029 230.115L5.84395 230.123C6.30879 230.371 11.8484 233.331 27.5186 225.674C29.0571 224.918 30.6399 224.254 32.2591 223.688C31.749 233.93 32.8444 244.189 35.5065 254.098C36.9168 259.374 38.1376 264.709 39.1213 270.079L29.5334 280.654L39.9389 274.779C40.9176 280.809 41.5901 286.884 41.9537 292.981C42.044 294.47 42.5486 299.162 43.0957 304.253L43.3995 307.081C42.574 307.701 41.7368 308.286 40.8996 308.87L40.8872 308.879L40.2353 309.337C37.1303 311.507 33.9975 313.603 30.837 315.624L29.0475 316.799L27.957 317.481C27.2055 317.953 26.435 318.42 25.6726 318.883C25.2207 319.158 24.7714 319.43 24.3305 319.701C23.8802 319.983 23.43 320.254 22.9676 320.512C22.2803 320.935 21.593 321.346 20.8935 321.746C19.4478 322.592 18.0018 323.415 16.5443 324.225L15.0154 325.083L11.6613 326.928C9.44102 328.142 5.57234 352.721 2.3948 347.955C-0.782744 343.189 -3.67627 334.68 -3.67627 334.68C-20.7009 289.321 -17.2758 228.215 1.95208 171.728Z" fill="url(#paint2_linear)"/>
<path d="M6.02377 160.464C19.2189 152.515 31.2657 149.074 38.9579 147.885C39.5943 151.002 39.1984 154.238 37.8296 157.113C36.4608 159.989 34.1922 162.349 31.3613 163.842C28.9325 165.114 26.6815 166.694 24.6651 168.543C24.096 169.024 23.539 169.624 23.0177 170.2L15.8357 166.416L20.6712 172.984C20.2327 173.572 19.8178 174.183 19.4265 174.806C14.6832 182.287 10.3318 190.005 6.38993 197.931C3.39702 196.318 -0.38934 193.958 -3.89395 190.818C-1.10025 180.586 2.21444 170.43 6.02377 160.464Z" fill="url(#paint3_linear)"/>
<path d="M-4.56545 193.316C-2.36786 195.73 0.701699 198.351 4.97959 200.857C-3.70745 219.047 -11.008 240.456 -12.3591 262.641C-12.7507 269.037 -13.3946 275.543 -14.2368 282.07C-15.9441 253.87 -12.4984 223.313 -4.56545 193.316Z" fill="url(#paint4_linear)"/>
<path d="M-0.928053 341.455C-0.901366 341.355 -0.87468 341.254 -0.847683 341.153C1.81444 331.244 2.90982 320.985 2.39968 310.743C4.01886 311.31 5.60173 311.973 7.14024 312.729C22.8104 320.387 28.35 317.426 28.8149 317.178L28.8285 317.17C28.4729 317.311 21.9782 319.756 8.68091 309.392C6.5702 307.704 4.29069 306.235 1.87805 305.009C0.957992 297.212 -1.11051 289.591 -4.26106 282.389C-4.99587 280.709 -5.6593 279.087 -6.26378 277.512L6.89137 274.575L-8.61032 270.486C-15.5435 246.197 -4.92449 235.457 -4.29643 234.846C-0.680118 237.72 4.70371 240.994 11.0051 244.826C30.7239 256.816 59.4272 274.27 71.0672 302.036C92.815 353.814 88.7246 423.691 87.6031 438.066C51.4651 418.931 20.7221 389.525 -0.330091 342.803C-0.531791 342.355 -0.731008 341.906 -0.928053 341.455Z" fill="url(#paint5_linear)"/>
<path d="M58.5781 419.401C57.7295 415.968 56.8941 412.457 56.0851 408.885L81.1865 391.212L81.0447 391.26C79.176 391.898 61.5853 397.905 54.2838 400.612C52.8496 393.773 51.5342 386.77 50.4202 379.743C74.123 381.118 84.3392 364.656 84.3392 364.656C79.5477 368.573 74.0187 371.506 68.0735 373.285C62.1287 375.064 55.8859 375.654 49.7089 375.02C48.4646 366.524 47.5284 358.017 47.0189 349.697C45.6678 327.512 38.3672 306.103 29.6802 287.913C42.7997 280.228 44.5535 271.462 44.6485 270.886C40.216 277.69 33.1761 282.343 28.2698 284.987C24.328 277.062 19.9766 269.343 15.2332 261.862C14.8419 261.239 14.4271 260.628 13.9886 260.041L18.8241 253.472L11.6421 257.256C11.1207 256.68 10.5637 256.081 9.99464 255.599C7.97826 253.75 5.7273 252.17 3.29853 250.899C0.467597 249.405 -1.80106 247.045 -3.16982 244.17C-4.53858 241.294 -4.93453 238.058 -4.2981 234.941C18.5042 238.467 79.5747 261.78 95.3846 363.645C102.389 408.274 109.867 433.514 116.148 447.72C114.513 447.379 112.854 447.015 111.183 446.627L107.106 445.676L102.875 444.63L100.682 444.066L99.2007 443.678C99.0273 443.634 98.8538 443.589 98.6803 443.544C84.5133 437.014 71.0667 429.096 58.5781 419.401Z" fill="url(#paint6_linear)"/>
<path d="M280.55 408.62C285.057 407.043 290.557 405.425 291.903 404.079L314.609 402.817V429.56H289.885H256.582V426.028C256.582 419.728 261.86 413.847 267.97 412.313C272.26 411.236 276.926 409.889 280.55 408.62Z" fill="#0E063D"/>
<path d="M469.713 121.293C468.779 122.868 467.389 124.074 465.774 124.713C464.854 125.103 463.885 125.315 462.911 125.341C461.917 125.304 460.918 125.427 459.944 125.705C464.221 133.5 468.434 140.05 470.789 147.193C473.649 145.536 476.771 144.529 479.955 144.237C483.138 143.945 486.313 144.374 489.274 145.497C486.145 145.163 482.959 145.482 479.886 146.436C476.995 147.286 474.233 148.643 471.713 150.452C473.046 155.72 473.624 161.852 473.149 169.967C474.207 169.214 475.66 169.146 477.723 169.089C482.349 169.032 485.558 168.855 487.826 167.511C489.291 166.613 490.436 165.196 491.057 163.512C491.057 163.512 491.193 166.484 488.109 168.822C486.15 170.31 482.895 171.542 477.47 171.59C475.976 171.598 474.479 171.774 473.005 172.117C472.896 173.483 472.759 174.903 472.597 176.392C471.508 185.894 471.158 195.441 471.552 204.934C472.405 204.926 473.226 205.213 473.895 205.752C475.552 207.081 481.459 207.283 486.939 204.063C489.063 202.828 490.951 201.149 492.489 199.129C492.489 199.129 491.954 205.932 487.241 209.435C486.289 210.147 485.235 210.675 484.128 210.995C482.707 211.379 481.241 211.432 479.827 211.149C478.414 210.867 477.088 210.255 475.938 209.357C474.695 208.432 473.237 207.883 471.705 207.765C471.682 207.851 471.718 207.952 471.726 208.053C472.098 212.907 473.147 217.64 474.837 222.093C475.893 224.991 476.38 230.398 472.622 239.692C468.096 250.892 468.203 263.67 469.391 273.504L469.45 273.519C471.187 273.705 472.972 273.863 474.804 273.993L475.316 274.031L476.002 274.07C477.587 274.182 479.209 274.266 480.847 274.339L481.143 274.35C481.829 274.389 482.519 274.414 483.172 274.421L483.468 274.432C484.42 274.466 485.389 274.489 486.368 274.499L488.758 274.522L491.247 274.511L491.68 274.505L515.429 199.908C515.429 199.908 517.694 147.142 460.223 110.317L460.191 110.308C460.191 110.308 452.374 110.707 459.376 124.63C460.764 124.057 462.216 123.713 463.681 123.611C464.058 123.582 464.398 123.536 464.742 123.499C467.836 123.077 469.153 122.058 469.713 121.293Z" fill="url(#paint7_linear)"/>
<path d="M460.227 110.31C459.944 112.442 460.092 114.595 460.661 116.618C461.02 117.907 461.549 119.127 462.232 120.241C463.429 119.494 464.682 118.865 465.974 118.361C464.99 119.446 464.173 120.694 463.558 122.052L464.778 123.5L465.777 124.713C470.694 130.785 475.064 137.359 478.83 144.353C479.194 145.022 479.554 145.706 479.898 146.4C483.339 153.032 486 160.131 487.821 167.539C487.938 167.959 488.039 168.36 488.118 168.793C488.45 170.155 488.698 171.518 488.931 172.907C494.095 170.532 501.3 166.408 503.083 161.236C503.083 161.236 500.905 171.182 489.62 178.055C489.758 179.272 489.849 180.501 489.893 181.743C490.113 187.542 489.398 193.385 487.78 199.011C487.321 200.653 487.042 202.339 486.949 204.034C486.843 205.842 486.944 207.646 487.251 209.406C487.562 211.123 488.05 212.788 488.706 214.371C490.779 219.466 491.538 225.126 490.906 230.774C492.927 231.227 494.796 232.204 496.355 233.622C497.421 234.549 498.674 235.197 500.025 235.521V235.521C498.282 236.183 496.399 236.089 494.781 235.259C493.439 234.486 492 233.913 490.502 233.556C489.852 236.792 488.719 239.915 487.148 242.798L486.365 244.213C481.275 253.256 481.698 265.112 483.269 274.378L483.566 274.388C484.517 274.422 485.486 274.446 486.465 274.456L488.855 274.479L491.344 274.467L491.778 274.462L492.638 274.448L493.513 274.431L494.965 274.393L509.515 246.992C553.188 160.701 462.116 111.319 460.258 110.326L460.227 110.31Z" fill="url(#paint8_linear)"/>
<path d="M479.679 274.789C479.78 274.79 479.88 274.791 479.981 274.792L482.371 274.815L484.86 274.803L485.294 274.798L486.154 274.784L487.029 274.767L488.481 274.729C489.812 274.697 491.158 274.638 492.513 274.574L494.032 274.493L494.18 274.487C494.885 274.455 495.594 274.408 496.27 274.353C498.733 274.19 501.226 273.971 503.751 273.697C504.193 273.652 504.635 273.602 505.078 273.551L490.439 206.653C490.439 206.653 467.692 163.04 404.193 160.097L404.163 160.106C404.163 160.106 398.045 164.067 410.175 172.037C411.028 170.928 412.039 169.974 413.173 169.21C413.375 169.072 413.559 168.935 413.74 168.8C413.819 168.741 413.897 168.683 413.976 168.625C416.275 166.845 416.863 165.409 416.959 164.531C416.938 166.237 416.379 167.857 415.374 169.124C414.813 169.866 414.131 170.489 413.358 170.964C412.539 171.396 411.79 171.961 411.134 172.639C412.738 173.612 414.309 174.535 415.841 175.435C421.072 178.508 425.846 181.312 429.888 184.92C431.423 182.252 433.471 179.986 435.903 178.268C438.334 176.551 441.094 175.419 444.006 174.946C441.327 176.133 438.905 177.874 436.871 180.074C434.936 182.105 433.34 184.486 432.15 187.119C435.678 190.747 439 195.424 442.396 202.19C442.899 201.09 444.039 200.358 445.676 199.352C449.38 197.152 451.886 195.515 453.09 193.375C453.853 191.969 454.116 190.293 453.833 188.645C453.833 188.645 455.327 190.979 453.928 194.301C453.041 196.413 450.99 198.922 446.638 201.487C445.436 202.189 444.311 203.028 443.281 203.991C443.83 205.144 444.381 206.352 444.944 207.629C448.49 215.799 452.654 223.663 457.392 231.136C458.076 230.733 458.872 230.582 459.663 230.705C461.618 231.005 466.476 228.418 469.396 223.269C470.534 221.284 471.275 219.051 471.574 216.706C471.574 216.706 474.312 222.442 472.141 227.461C471.705 228.479 471.101 229.396 470.357 230.169C469.39 231.14 468.232 231.866 466.961 232.296C465.689 232.726 464.335 232.85 462.989 232.661C461.556 232.494 460.124 232.73 458.834 233.348C458.848 233.401 458.887 233.448 458.927 233.496C458.946 233.52 458.967 233.545 458.985 233.571C461.545 237.313 464.596 240.642 468.033 243.446C470.233 245.292 473.144 249.426 474.442 258.672C475.241 264.364 477.208 269.825 479.679 274.789Z" fill="url(#paint9_linear)"/>
<path d="M500.393 274.246L500.486 274.241L500.634 274.235C501.339 274.203 502.048 274.156 502.725 274.101C505.187 273.937 507.681 273.719 510.206 273.445C511.024 273.361 511.846 273.263 512.668 273.165L512.684 273.163L513.404 273.074L514.962 272.868L514.048 247.131C509.086 157.198 412.639 159.773 410.678 159.837L410.646 159.839C411.411 161.69 412.533 163.357 413.933 164.724C414.824 165.597 415.818 166.335 416.888 166.915C417.505 165.755 418.223 164.665 419.031 163.657C418.742 164.99 418.664 166.377 418.8 167.759L420.459 168.358L421.829 168.872C428.623 171.479 435.209 174.747 441.503 178.634C442.108 179.004 442.717 179.388 443.317 179.788C449.181 183.535 454.633 188.022 459.551 193.149C459.842 193.433 460.11 193.709 460.375 194.022C461.277 194.966 462.111 195.95 462.947 196.962C466.005 192.641 469.896 185.961 468.925 180.959C468.925 180.959 471.801 189.995 465.9 200.793C466.578 201.71 467.224 202.659 467.837 203.64C470.715 208.215 472.86 213.261 474.174 218.552C474.569 220.089 475.13 221.579 475.844 222.99C476.6 224.497 477.522 225.905 478.589 227.183C479.639 228.422 480.808 229.538 482.075 230.509C486.119 233.653 489.368 237.865 491.488 242.715C493.329 242.139 495.291 242.057 497.209 242.475C498.499 242.726 499.812 242.665 501.052 242.297C499.955 243.643 498.392 244.444 496.702 244.528C495.259 244.529 493.832 244.737 492.457 245.147C493.44 248.059 493.981 251.105 494.056 254.163L494.084 255.668C494.156 262.243 496.892 268.68 500.393 274.246Z" fill="url(#paint10_linear)"/>
<path d="M500.451 274.172L500.599 274.165C501.304 274.133 502.013 274.087 502.69 274.032C505.152 273.868 507.646 273.649 510.171 273.375C510.995 273.291 511.822 273.192 512.649 273.094L513.369 273.005L515.94 272.664C516.98 272.526 518.024 272.374 519.071 272.207C520.224 272.036 521.39 271.845 522.558 271.616L522.791 271.58L525.223 271.133L526.339 270.944C529.485 270.328 532.644 269.619 535.816 268.817C537.222 268.457 538.632 268.072 540.046 267.663L542.184 267.039L543.162 266.745C544.092 266.468 545.019 266.182 545.949 265.882C546.397 265.743 546.84 265.595 547.286 265.44C547.581 265.352 547.872 265.254 548.165 265.15C548.933 264.883 549.735 264.617 550.513 264.338L551.222 264.085L552.393 263.637C554.454 262.877 556.512 262.069 558.566 261.211L558.998 261.03C559.554 260.798 560.111 260.566 560.667 260.31C561.297 256.53 561.934 252.644 562.162 251.561C562.951 247.817 563.568 244.04 564.01 240.246L557.351 242.274L564.324 237.28C564.656 233.884 564.852 230.475 564.934 227.074C565.082 220.684 566.146 214.312 568.087 208.186C567.108 208.291 566.132 208.46 565.166 208.692C555.222 211.052 552.719 208.361 552.554 208.195C552.726 208.332 555.891 210.766 564.863 206.445C566.293 205.733 567.782 205.179 569.303 204.791C571.073 200.206 573.443 195.896 576.339 191.998C577.014 191.089 577.641 190.205 578.228 189.34L571.492 185.629L580.654 185.431C588.396 171.745 584.316 163.682 584.07 163.22C573.958 168.212 546.216 172.902 531.852 192.827C509.967 223.142 501.104 270.565 500.451 274.172Z" fill="url(#paint11_linear)"/>
<path d="M483.498 274.402C484.45 274.436 485.419 274.459 486.398 274.47L488.788 274.493L491.277 274.481L492.571 274.462L493.446 274.445C495.249 274.42 497.077 274.355 498.93 274.252L500.449 274.171L500.597 274.165C501.302 274.133 502.011 274.086 502.687 274.031C505.15 273.867 507.643 273.649 510.168 273.375C510.992 273.29 511.819 273.192 512.646 273.093L513.367 273.004L515.937 272.663C518.151 268.613 520.451 264.266 522.729 259.714L511.834 245.327C512.172 245.57 521.362 252.158 525.059 254.97C526.954 251.041 528.812 246.994 530.562 242.904C517.344 240.254 514.413 228.786 514.413 228.786C516.405 231.862 518.96 234.45 521.931 236.4C524.902 238.351 528.229 239.625 531.718 240.148C533.779 235.188 535.672 230.175 537.301 225.213C541.641 211.98 549.117 200.091 556.83 190.355C550.884 183.775 551.344 178.21 551.386 177.847C552.712 182.618 555.817 186.469 558.078 188.79C561.525 184.571 565.163 180.538 568.977 176.705C569.293 176.386 569.619 176.077 569.955 175.785L568.369 171.098L571.693 174.444C572.073 174.172 572.475 173.891 572.865 173.683C574.271 172.86 575.761 172.234 577.299 171.821C579.093 171.333 580.72 170.237 581.937 168.698C583.154 167.158 583.896 165.256 584.053 163.276V163.276C570.979 162.061 533.714 167.203 508.521 226.552C497.441 252.542 489.247 266.724 483.498 274.402Z" fill="url(#paint12_linear)"/>
<path d="M552.708 261.615C531.091 271.441 478.762 267.762 455.221 266.738C455.221 317.096 455.538 330.172 471.506 379.302H478.105H507.583C520.275 352.69 547.304 279.302 552.708 261.615Z" fill="url(#paint13_linear)"/>
<path d="M95.4834 202.002H481.713L526.452 234.681H50.7441L95.4834 202.002Z" fill="url(#paint14_linear)"/>
<rect x="50.7441" y="234.681" width="475.708" height="10.1878" fill="url(#paint15_linear)"/>
<path d="M486.105 205.211C483.253 208.169 480.928 211.488 479.376 215.196C476.315 222.507 469.727 229.181 459.457 234.681H526.452L486.105 205.211Z" fill="url(#paint16_linear)"/>
<path d="M68.8399 221.464L50.7441 234.681H255.869C246.238 232.214 236.985 229.623 227.944 227.09C177.873 213.07 134.287 200.865 68.8399 221.464Z" fill="url(#paint17_linear)"/>
<path d="M331.148 404.221H312.894L303.654 365.684L320.556 320.162C328.594 318.359 344.714 317.548 344.895 328.725C345.218 348.788 334.528 365.684 331.148 404.221Z" fill="#0E063D"/>
<path d="M345.132 217.648C347.784 215.612 353.156 211.503 353.433 211.365L362.195 220.703L351.646 226.698C350.82 228.005 349.117 232.309 347.15 235.172C344.417 239.149 340.348 241.57 338.561 243.645C336.774 245.72 334.816 246.003 333.719 245.663C332.047 245.144 331.932 243.069 333.719 241.109C335.148 239.541 339.656 233.442 339.253 232.289C337.177 230.848 331.183 234.803 328.185 238.169C324.438 242.377 328.185 245.951 329.165 247.104C330.145 248.257 330.433 250.562 328.185 250.735C325.937 250.908 321.885 248.774 320.288 245.663C319.193 243.53 318.789 240.59 319.25 236.901C319.619 233.95 320.557 228.81 323.285 226.698C325.071 225.315 330.087 223.943 332.393 222.605C334.699 221.268 341.693 219.089 345.132 217.648Z" fill="url(#paint18_linear)"/>
<path d="M286.93 291.743C286.124 314.291 289.476 383.251 291.191 405.173H314.125C314.274 404.465 316.032 379.253 319.701 353.483C323.37 327.714 319.365 315.604 316.905 312.771C334.651 320.414 374.82 334.939 393.521 331.897C412.222 328.854 414.586 299.684 413.43 285.479C386.586 278.097 328.179 263.647 309.299 264.899C285.699 266.465 286.93 286.598 286.93 291.743Z" fill="url(#paint19_linear)"/>
<path d="M377.307 308.632C389.714 318.022 402.472 304.979 405.492 300.803L396.321 327.422L369.03 328.765C361.797 325.819 343.014 319.123 325.745 315.902C308.475 312.681 301.399 306.88 300.02 304.382C303.151 300.131 312.099 295.433 319.928 298.341C330.384 302.225 337.041 302.369 349.68 300.803C359.448 299.593 369.03 302.369 377.307 308.632Z" fill="url(#paint20_linear)"/>
<path opacity="0.8" d="M326.56 241.72C326.442 244.034 328.085 245.884 328.918 246.822C329.012 246.928 329.096 247.021 329.165 247.104C330.145 248.256 330.433 250.562 328.185 250.735C325.937 250.908 321.885 248.773 320.288 245.663C319.193 243.53 318.789 240.59 319.25 236.901C319.619 233.949 320.557 228.809 323.285 226.698C324.275 225.931 326.259 225.167 328.223 224.411C329.801 223.803 331.366 223.201 332.393 222.605C333.543 221.938 335.861 221.061 338.322 220.171C335.49 222.128 334.563 223.87 333.315 226.893C332.144 229.732 330.774 231.158 329.367 232.624C328.529 233.497 327.678 234.383 326.847 235.589C325.559 237.46 325.978 239.884 326.56 241.72Z" fill="url(#paint21_linear)"/>
<path opacity="0.8" d="M358.305 216.553L362.199 220.703L351.65 226.699C351.346 227.179 350.924 228.064 350.414 229.134C349.536 230.974 348.398 233.361 347.154 235.172C345.43 237.681 343.175 239.57 341.296 241.144C340.196 242.065 339.225 242.879 338.565 243.645C336.778 245.721 334.82 246.003 333.723 245.663C332.051 245.144 331.936 243.069 333.723 241.109C334.189 240.597 334.983 239.604 335.827 238.457C336.789 237.883 337.947 237.394 339.329 237.091C344.991 235.848 346.53 229.286 346.53 224.629C346.53 223.029 347.587 216.845 358.305 216.553Z" fill="url(#paint22_linear)"/>
<path d="M396.877 138.399C384.618 146.542 372.307 146.713 367.684 145.781C365.485 151.411 360.414 165.221 357.73 175.421C354.374 188.172 348.111 202.265 348.111 205.173C348.916 209.647 355.679 217.7 358.96 221.167C359.967 221.54 361.801 227.788 361.085 249.8C360.369 271.812 347.738 279.254 341.512 280.223L435.24 306.619C434.569 288.798 433.003 244.745 432.109 211.101C431.214 177.457 408.248 148.615 396.877 138.399Z" fill="url(#paint23_linear)"/>
<path d="M402.118 143.613C394.699 147.678 383.625 160.385 397.771 179.336C415.555 203.159 402.805 230.227 394.528 239.622C389.68 245.124 371.71 257.876 356.65 268.073C352.252 276.216 345.625 279.551 341.596 280.21C341.594 280.222 341.592 280.232 341.59 280.245L435.24 306.619C434.569 288.797 433.004 244.744 432.109 211.101C431.337 182.067 414.128 156.61 402.118 143.613Z" fill="url(#paint24_linear)"/>
<path d="M388.041 257.07V224.746L386.699 221.95L372.159 220.272L360.191 223.628C360.788 230.786 361.623 246.176 360.191 250.471C358.402 255.84 351.803 259.755 348.335 259.755C345.562 259.755 344.048 255.355 343.638 253.156C342.258 251.515 338.18 248.257 332.9 248.346C326.301 248.458 323.058 252.261 321.156 259.755C319.635 265.75 320.522 268.74 321.156 269.486C324.922 271.573 333.504 275.973 337.71 276.868C368.244 282.46 380.771 265.795 383.791 263.334C386.207 261.365 387.631 258.338 388.041 257.07Z" fill="url(#paint25_linear)"/>
<path opacity="0.8" d="M373.501 221.95C368.72 226.839 365.754 234.263 367.652 244.508C369.69 251.401 374.866 266.465 365.191 275.6C374.45 272.495 379.831 267.186 382.476 264.576C383.032 264.028 383.467 263.599 383.792 263.334C386.207 261.365 387.632 258.338 388.042 257.071V224.746L386.7 221.95H373.501Z" fill="url(#paint26_linear)"/>
<path d="M395.757 148.578C381.709 155.199 368.951 154.99 364.328 154.058L367.795 145.446C382.201 146.788 393.11 141.196 396.876 138.288L403.028 143.768C401.872 144.738 398.8 147.056 395.757 148.578Z" fill="#F15A24"/>
<path d="M397.444 138.793C397.615 140.981 396.5 144.934 389.83 147.235C386.889 148.251 383.837 148.685 380.961 149.095C375.694 149.844 371.015 150.511 368.674 154.511C374.831 154.732 384.91 153.691 395.758 148.577C398.801 147.056 401.873 144.737 403.029 143.768L397.444 138.793Z" fill="url(#paint27_linear)"/>
<path d="M358.961 225.417C358.737 219.266 357.842 203.182 356.053 188.06C354.213 172.509 363.763 165.17 374.62 165.467C384.477 165.736 390.092 175.838 390.838 185.152C391.374 191.863 389.495 214.792 388.489 225.417C377.214 221.033 364.106 223.59 358.961 225.417Z" fill="#FDDD72"/>
<path d="M378.733 166.204C374.844 167.868 371.255 172.246 374.618 181.796L374.856 182.471C379.747 196.35 384.862 210.864 372.441 223.037C377.521 222.832 383.205 223.363 388.487 225.417C389.494 214.792 391.373 191.863 390.836 185.152C390.202 177.224 386.038 168.723 378.733 166.204Z" fill="url(#paint28_linear)"/>
<path opacity="0.8" d="M349.156 278.006C348.285 275.552 344.469 272.821 340.549 270.015C337.247 267.651 333.87 265.234 332.117 262.886C327.794 257.096 329.279 251.3 330.874 248.512C325.615 249.324 322.852 253.072 321.156 259.755C319.635 265.75 320.523 268.74 321.156 269.485C324.922 271.573 333.504 275.973 337.71 276.867C341.849 277.626 345.658 277.975 349.156 278.006Z" fill="url(#paint29_linear)"/>
<rect width="10.9611" height="108.101" transform="matrix(1 0 0 -1 330.553 435.727)" fill="url(#paint30_linear)"/>
<rect width="10.9611" height="89.931" transform="matrix(1 0 0 -1 383.525 435.722)" fill="url(#paint31_linear)"/>
<rect width="10.9611" height="106.433" transform="matrix(1 0 0 -1 401.039 422.226)" fill="url(#paint32_linear)"/>
<rect width="10.9611" height="90.7431" transform="matrix(1 0 0 -1 448.672 425.028)" fill="url(#paint33_linear)"/>
<path d="M478.299 303.635V202.149C478.299 198.122 474.304 195.313 470.514 196.676L421.635 214.26C416.308 216.177 412.756 221.229 412.756 226.89V308.382C412.756 324.917 396.774 336.746 380.961 331.915L316.455 312.211V325.521L393.78 352.464C405.9 356.687 419.219 355.767 430.644 349.918L458.818 335.495C470.776 329.373 478.299 317.07 478.299 303.635Z" fill="url(#paint34_linear)"/>
<rect width="4.02653" height="89.5006" transform="matrix(1 0 0 -1 407.969 422.226)" fill="url(#paint35_linear)"/>
<rect width="4.02653" height="89.9311" transform="matrix(1 0 0 -1 390.459 435.722)" fill="url(#paint36_linear)"/>
<rect width="4.02653" height="104.385" transform="matrix(1 0 0 -1 337.488 435.727)" fill="url(#paint37_linear)"/>
<path d="M325.053 313.509C319.001 315.012 307.847 308.949 299.954 304.449C298.164 308.129 300.165 324.082 305.892 333.833C313.05 346.022 315.897 364.917 305.495 375.956C297.368 384.581 297.47 398.733 298.59 405.174H314.124C314.153 405.035 314.244 403.951 314.4 402.104C315.037 394.543 314.841 385.785 319.589 367.285C324.295 348.95 330.985 319.812 325.053 313.509Z" fill="url(#paint38_linear)"/>
<rect x="455.611" y="334.285" width="4.02653" height="90.7431" fill="url(#paint39_linear)"/>
<path d="M328.375 286.353C325.538 285.699 323.447 283.291 323.197 280.391L322.854 276.42L404.608 295.176L404.608 303.935L328.375 286.353Z" fill="#DD6FB2"/>
<path d="M334.803 272.647C332.776 272.194 330.654 272.46 328.801 273.4L322.852 276.42L404.605 295.176L407.724 288.947L334.803 272.647Z" fill="#E390AF"/>
<path d="M467.115 302.355V205.54C467.115 201.822 463.427 199.229 459.928 200.488L408.451 219.006C404.332 220.488 401.601 224.414 401.644 228.792L402.388 303.282C402.538 318.334 388.079 329.235 373.65 324.949L318.754 308.644C317.607 308.304 316.455 309.163 316.455 310.36V314.109C316.455 319.95 320.294 325.097 325.893 326.761L375.665 341.553C397.945 348.174 421.876 346.444 442.972 336.687L446.088 335.246C458.908 329.317 467.115 316.48 467.115 302.355Z" fill="url(#paint40_linear)"/>
<path d="M349.229 290.854V322.262L355.055 324.083V292.197L349.229 290.854Z" fill="#D36EC9"/>
<path d="M346.541 290.544V322.262L352.367 324.082V291.887L346.541 290.544Z" fill="#E390AF"/>
<path d="M478.299 303.635V202.149C478.299 198.122 474.304 195.313 470.514 196.676L421.635 214.26C416.308 216.177 412.756 221.229 412.756 226.89V308.382C412.756 324.917 396.774 336.746 380.961 331.915L316.455 312.211V325.521L393.78 352.464C405.9 356.687 419.219 355.767 430.644 349.918L458.818 335.495C470.776 329.373 478.299 317.07 478.299 303.635Z" fill="url(#paint41_linear)"/>
<path d="M446.874 240.405C438.768 228.444 439.276 216.411 442.806 206.646L470.518 196.677C474.308 195.314 478.303 198.122 478.303 202.15L478.303 303.362C478.303 303.392 478.303 303.422 478.303 303.452C478.27 317.018 470.66 329.435 458.579 335.619L449.131 340.456C449.101 340.472 449.07 340.487 449.039 340.503L430.648 349.918C428.967 350.779 427.245 351.532 425.492 352.179C425.172 334.256 435.39 318.295 446.874 303.04C454.368 293.086 466.783 272.841 446.874 240.405Z" fill="url(#paint42_linear)"/>
</g>
<path d="M183.611 424.707C183.612 420.426 183.738 416.886 184.315 412.267L206.805 408.532C209.403 408.388 210.308 408.185 214.638 408.532C218.925 408.875 219.245 413.469 219.461 416.572L219.467 416.666C219.467 416.666 212.413 429.506 206.805 432.253C200.766 435.211 193.375 435.227 188.583 434.801C185.657 434.541 183.611 432.006 183.611 429.069L183.611 424.707Z" fill="#0E063D"/>
<path d="M178.949 364.225C170.874 339.688 171.181 330.552 171.181 328.999L208.142 316.89V330.556C207.056 364.569 207.589 381.224 208.302 412.538H184.162L184.162 412.222C184.163 403.983 184.165 385.505 178.949 364.225Z" fill="url(#paint43_linear)"/>
<path d="M225.137 424.706C225.137 420.426 225.264 416.886 225.841 412.267L246.881 407.333C249.479 407.188 250.384 406.986 254.714 407.332C259.001 407.675 259.321 412.269 259.537 415.372L259.543 415.466C259.543 415.466 253.938 429.505 248.331 432.252C242.292 435.211 234.9 435.226 230.109 434.8C227.183 434.54 225.137 432.005 225.137 429.068L225.137 424.706Z" fill="#0E063D"/>
<path d="M207.863 340.117C207.215 365.734 207.582 381.591 208.145 405.915L208.298 412.538H195.789C189.258 402.535 190.096 387.226 194.018 376.113C198.175 364.335 192.286 351.576 188.822 346.669L207.863 340.117Z" fill="url(#paint44_linear)"/>
<path d="M234.086 269.754C230.402 269.754 197.058 279.786 179.621 284.086L194.897 334.826L222.047 322.785C223.61 326.93 219.982 340.567 222.047 351.451C224.111 362.336 227.016 399.935 226.156 412.368H241.671C245.625 412.368 248.836 409.165 249.073 405.219C250.629 379.392 259.099 332.434 259.312 306.446C259.559 276.346 251.134 269.754 234.086 269.754Z" fill="url(#paint45_linear)"/>
<path d="M293.378 208.834L229.839 208.975L227.291 222.386H267.477H283.18L293.378 214.333V208.834Z" fill="url(#paint46_linear)"/>
<path d="M244.523 202.568C251.624 196.569 256.324 187.363 256.789 176.947H289.748C290.213 187.363 294.912 196.569 302.013 202.568V206.893H244.523V202.568Z" fill="url(#paint47_linear)"/>
<path opacity="0.3" d="M273.412 176.947C273.239 180.57 274.688 185.912 280.649 191.798C285.444 196.533 286.983 201.956 286.958 206.893H302.012V202.568C294.911 196.569 290.211 187.363 289.746 176.947H273.412Z" fill="url(#paint48_linear)"/>
<path d="M183.008 61.314H363.664V178.667H183.008V61.314Z" fill="url(#paint49_linear)"/>
<path d="M183.066 71.0527H363.723V164.059H183.066V71.0527Z" fill="url(#paint50_linear)"/>
<ellipse cx="273.378" cy="171.834" rx="3.13175" ry="3.40854" fill="#091871"/>
<path d="M183.008 61.314H192.368V177.787H183.008V61.314Z" fill="url(#paint51_linear)"/>
<path opacity="0.5" d="M202.246 84.6729H273.382V155.522H202.246V84.6729Z" fill="#51288D"/>
<path opacity="0.5" d="M249.221 84.6729H273.38V155.522H249.221V84.6729Z" fill="#5631E3"/>
<path opacity="0.5" d="M270.18 105.124V109.864H252.416V105.124H270.18Z" fill="#51288D"/>
<path opacity="0.5" d="M270.18 114.862V119.602H252.416V114.862H270.18Z" fill="#51288D"/>
<path opacity="0.5" d="M270.18 124.601V129.341H252.416V124.601H270.18Z" fill="#51288D"/>
<path opacity="0.5" d="M270.18 134.339V139.08H252.416V134.339H270.18Z" fill="#51288D"/>
<path opacity="0.5" d="M270.18 144.078V148.819H252.416V144.078H270.18Z" fill="#51288D"/>
<path opacity="0.5" d="M270.161 155.521C265.38 151.691 259.632 144.305 258.839 130.931C258.541 125.909 258.733 120.845 258.921 115.902C259.37 104.06 259.793 92.9085 253.398 84.6725H273.379V155.521H270.161Z" fill="url(#paint52_linear)"/>
<path opacity="0.5" d="M280.09 84.6729H343.62V109.993H280.09V84.6729Z" fill="#51288D"/>
<path opacity="0.5" d="M280.09 117.297H352.567V155.034H280.09V117.297Z" fill="#51288D"/>
<path d="M301.119 122.167H348.095V150.165H301.119V122.167Z" fill="#5631E3"/>
<path d="M284.564 122.167H296.644V150.165H284.564V122.167Z" fill="#6D5CC2"/>
<path opacity="0.5" d="M284.564 89.5415H343.62V105.123H284.564V89.5415Z" fill="#5631E3"/>
<path opacity="0.1" d="M336.249 61.314C324.096 67.7839 310.318 80.6192 301.121 104.15C289.756 133.231 265.08 160.42 230.426 178.667H364.114V63.1035C364.114 62.1152 363.312 61.314 362.324 61.314H336.249Z" fill="url(#paint53_linear)"/>
<path d="M302.016 94.4116H342.281V100.255H302.016V94.4116Z" fill="#9D7FC0"/>
<path d="M288.592 94.4116H297.54V100.255H288.592V94.4116Z" fill="#9D7FC0"/>
<path opacity="0.5" d="M211.195 94.6548H240.276V145.539H211.195V94.6548Z" fill="#6255DF"/>
<path d="M240.049 203.53C240.049 202.295 241.05 201.293 242.286 201.293H304.25C305.485 201.293 306.487 202.295 306.487 203.53V206.893H240.049V203.53Z" fill="#B4E3B5"/>
<path opacity="0.1" d="M183.008 149.869C196.604 138.797 212.849 121.185 226.069 93.5591C232.044 81.0738 238.443 70.444 245.178 61.314H184.797C183.809 61.314 183.008 62.1152 183.008 63.1035V149.869Z" fill="url(#paint54_linear)"/>
<path d="M261.303 88.0708C260.001 88.0705 258.728 88.4565 257.645 89.1799C256.562 89.9033 255.718 90.9316 255.22 92.1348C254.722 93.3379 254.591 94.6619 254.845 95.9391C255.1 97.2163 255.727 98.3895 256.648 99.3102C257.569 100.231 258.742 100.858 260.02 101.111C261.297 101.365 262.621 101.234 263.824 100.735C265.027 100.236 266.055 99.3919 266.778 98.3087C267.501 97.2255 267.886 95.9522 267.885 94.6499C267.885 92.9048 267.191 91.2314 265.957 89.9976C264.722 88.7639 263.049 88.0708 261.303 88.0708V88.0708ZM261.303 100.107C260.225 100.107 259.17 99.7882 258.273 99.1896C257.375 98.5909 256.676 97.7396 256.262 96.7433C255.849 95.747 255.74 94.6504 255.95 93.5923C256.159 92.5342 256.678 91.562 257.44 90.7987C258.203 90.0355 259.174 89.5154 260.232 89.3043C261.29 89.0932 262.387 89.2006 263.383 89.6128C264.38 90.0251 265.232 90.7237 265.832 91.6203C266.432 92.5169 266.753 93.5712 266.753 94.6499C266.754 96.0961 266.18 97.4834 265.158 98.5067C264.136 99.5299 262.75 100.105 261.303 100.107Z" fill="white"/>
<path d="M261.65 90.3394C262.1 91.0914 263.38 93.2292 263.394 93.232C263.574 93.5361 263.692 93.8728 263.741 94.2226C263.79 94.5724 263.77 94.9286 263.681 95.2705C263.593 95.6125 263.438 95.9337 263.225 96.2155C263.011 96.4973 262.745 96.7343 262.44 96.9129L261.618 95.5383C261.752 95.4589 261.868 95.3539 261.961 95.2293C262.054 95.1048 262.121 94.9631 262.159 94.8125C262.197 94.6619 262.205 94.5053 262.182 94.3516C262.159 94.198 262.106 94.0503 262.026 93.9172L260 90.5246C259.042 90.8263 258.219 91.452 257.671 92.2944C257.124 93.1367 256.887 94.1432 257 95.1413C257.114 96.1394 257.571 97.0669 258.294 97.7647C259.017 98.4625 259.96 98.8871 260.961 98.9657C260.33 97.9115 259.237 96.0898 259.224 96.087C259.045 95.7828 258.927 95.4461 258.878 95.0964C258.829 94.7466 258.849 94.3906 258.938 94.0488C259.027 93.7069 259.182 93.3858 259.395 93.104C259.607 92.8221 259.874 92.585 260.178 92.4061L261 93.7821C260.867 93.8615 260.75 93.9665 260.657 94.0911C260.564 94.2156 260.497 94.3573 260.459 94.5079C260.421 94.6585 260.414 94.8151 260.436 94.9688C260.459 95.1224 260.512 95.2701 260.592 95.4032L262.623 98.7721C263.576 98.4658 264.394 97.8382 264.936 96.9963C265.479 96.1544 265.713 95.1504 265.598 94.1555C265.482 93.1605 265.026 92.2363 264.306 91.5404C263.585 90.8445 262.646 90.42 261.648 90.3394H261.65Z" fill="white"/>
<path d="M234.245 300.681C226.362 304.623 214.332 304.068 209.303 303.298C207.25 306.07 203.144 311.859 203.144 312.845C203.144 313.83 202.323 323.109 201.912 327.625L242.559 308.687C243.072 304.376 242.128 296.739 234.245 300.681Z" fill="url(#paint55_linear)"/>
<path d="M117.585 178.468C107.843 188.454 104.799 212.463 104.494 223.219L167.854 332.869C189.548 330.324 230.153 320.173 219.029 299.931C207.905 279.689 207.176 246.058 208.202 231.773C216.18 239.638 225.64 242.259 230.541 242.259C245.859 242.533 256.527 232.875 259.946 228.012C259.832 217.184 246.725 215.133 246.725 215.703C244.081 217.253 241.065 217.108 239.887 216.843C226.78 210.916 224.818 192.326 216.294 176.495C209.475 163.831 175.528 165.175 160.205 167.204C150.057 166.798 127.326 168.483 117.585 178.468Z" fill="url(#paint56_linear)"/>
<path d="M208.198 231.893C201.73 225.63 193.356 215.295 189.623 210.434C189.47 211.592 189.106 212.786 188.712 214.076C187.051 219.513 184.87 226.654 195.895 240.118C205.036 251.279 206.125 256.774 203.764 276.053C201.873 291.499 214.656 300.713 220.355 302.992C220.047 301.999 219.61 300.978 219.034 299.93C207.941 279.745 207.185 246.245 208.198 231.893Z" fill="url(#paint57_linear)"/>
<path opacity="0.55" d="M155.472 167.169C143.127 172.51 125.571 183.927 134.678 202.139C138.684 210.151 143.499 214.445 147.936 218.402C158.139 227.5 166.339 234.812 158.086 281.452C156.032 293.059 155.261 302.951 155.417 311.345L104.494 223.218C104.799 212.463 107.843 188.454 117.585 178.468C126.012 169.83 144.159 167.404 155.472 167.169Z" fill="url(#paint58_linear)"/>
<path opacity="0.5" d="M220.587 303.828C216.949 303.518 213.236 303.665 209.473 303.814C201.318 304.138 192.924 304.472 184.529 300.179C165.142 290.266 163.049 269.427 164.426 260.248C158.275 262.083 145.699 266.746 144.598 270.712C144.104 272.488 143.364 279.919 142.578 289.117L167.86 332.869C188.114 330.493 224.854 321.487 220.587 303.828Z" fill="#E0407C"/>
<path opacity="0.9" d="M217.232 178.297C218.695 183.189 219.676 190.952 218.376 203.112C215.856 226.673 222.791 232.884 236.897 228.437C246.624 225.37 252.772 228.941 254.41 232.469L256.835 231.596C258.179 230.281 259.225 229.04 259.947 228.012C259.833 217.185 246.726 215.133 246.726 215.703C244.082 217.253 241.065 217.109 239.888 216.842C231.009 212.828 227.245 203.003 223.09 192.161C221.343 187.601 219.527 182.86 217.232 178.297Z" fill="url(#paint59_linear)"/>
<path d="M248.579 209.439C247.392 211.307 246.947 214.371 246.873 215.669L258.035 229.946C259.222 228.29 262.671 224.613 266.972 223.16C272.349 221.343 274.612 214.371 275.613 213.073C276.414 212.035 277.603 211.182 278.097 210.885C277.999 210.403 276.918 209.098 273.388 207.733C268.975 206.028 258.851 205.286 255.143 205.694C251.434 206.101 250.062 207.103 248.579 209.439Z" fill="#FFE3D0"/>
<path opacity="0.8" d="M263.679 205.891C261.89 206.893 260.656 208.444 261.384 210.87C263.175 216.84 263.838 220.091 255.481 220.422C253.873 220.486 252.465 220.797 251.244 221.262L258.033 229.946C259.22 228.29 262.669 224.613 266.97 223.16C271.174 221.739 273.474 217.169 274.756 214.621C275.114 213.91 275.392 213.356 275.611 213.073C276.412 212.035 277.601 211.182 278.095 210.886C277.997 210.403 276.916 209.098 273.386 207.734C271.113 206.856 267.325 206.233 263.679 205.891Z" fill="url(#paint60_linear)"/>
<path d="M246.687 215.366C245.393 215.563 243.75 216.182 242.624 216.671C242.273 216.823 242.289 217.292 242.645 217.433C243.966 217.959 246.328 218.98 248.213 220.544C252.805 224.355 255.477 228.585 256.295 230.963C256.401 231.273 256.788 231.41 257.048 231.21L261.657 227.655C261.825 227.526 261.877 227.293 261.783 227.104C257.008 217.507 249.75 215.275 246.687 215.366Z" fill="#7733AB"/>
<path d="M139.943 83.8638C148.486 73.1927 156.192 68.22 168.743 67.9367C179.606 67.6916 188.342 71.9879 194.5 79.1005C205.447 91.7438 204.676 101.616 206.408 120.235C207.794 135.131 213.625 149.391 216.367 154.659C211.099 158.339 197.055 166.263 183.026 168.515C158.951 172.672 139.077 166.783 132.149 163.319C124.355 129.328 130.091 96.169 139.943 83.8638Z" fill="url(#paint61_linear)"/>
<path opacity="0.5" d="M189.136 74.1235C191.094 75.5688 192.883 77.2378 194.496 79.0999C203.957 90.0278 204.665 98.8865 205.801 113.11C205.98 115.344 206.169 117.708 206.403 120.235C207.789 135.131 213.62 149.39 216.362 154.659C211.094 158.339 197.051 166.263 183.022 168.515C175.204 169.865 167.83 170.155 161.197 169.813C170.252 167.669 181.228 163.097 188.625 154.32C197.696 143.556 192.228 134.657 185.265 123.326C181.397 117.031 177.067 109.985 174.513 101.45C169.537 84.8208 180.966 77.2125 189.136 74.1235Z" fill="url(#paint62_linear)"/>
<path d="M203.693 288.152V329.441L197.867 331.834V289.918L203.693 288.152Z" fill="#081466"/>
<path d="M206.377 287.746V329.442L200.551 331.834V289.512L206.377 287.746Z" fill="#0B2DA1"/>
<path d="M239.261 412.281C229.025 395.472 236.074 361.188 241.437 348.116C246.295 336.274 243.461 325.469 241.437 321.547C236.541 322.968 228.383 325.365 222.425 327.188C222.365 328.83 220.127 331.382 219.941 333.476C219.44 339.125 218.794 352.893 219.941 358.945C222.006 369.829 226.746 399.848 225.886 412.281H239.261Z" fill="url(#paint63_linear)"/>
<path opacity="0.5" d="M143.996 79.1816C140.377 84.6657 138.6 91.4849 142.532 98.6284C144.998 103.106 148.607 107.382 152.197 111.636C162.034 123.291 171.731 134.781 157.396 149.804C150.713 156.809 146.422 162.585 144.141 167.393C138.756 166.105 134.625 164.557 132.149 163.319C124.355 129.329 130.091 96.1695 139.943 83.8635C141.307 82.1587 142.651 80.5998 143.996 79.1816Z" fill="url(#paint64_linear)"/>
<path d="M237.562 276.309C240.233 275.153 241.856 272.407 241.578 269.51L241.199 265.542L164.172 298.743L165.753 307.359L237.562 276.309Z" fill="#081466"/>
<path d="M228.763 263.989C230.675 263.177 232.81 263.056 234.802 263.646L241.199 265.543L164.172 298.744L159.981 293.18L228.763 263.989Z" fill="#0B2DA1"/>
<path d="M65.3095 317.384V221.09C65.3095 217.806 68.0255 215.174 71.3072 215.276L162.589 218.128C169.835 218.355 175.592 224.294 175.592 231.543V305.917C175.592 320.192 190.037 329.933 203.271 324.582L242.812 308.594V319.861C242.812 325.181 239.67 329.999 234.802 332.144L178.695 356.86C170.813 360.333 162.128 361.571 153.589 360.44L96.4014 352.866C78.6062 350.509 65.3095 335.335 65.3095 317.384Z" fill="url(#paint65_linear)"/>
<path d="M65.3095 317.384V221.106C65.3095 217.816 68.0355 215.182 71.3232 215.293L153.678 218.094C160.909 218.339 166.644 224.272 166.644 231.508V307.848C166.644 325.397 184.488 337.305 200.693 330.571L242.812 313.068V319.861C242.812 325.181 239.67 329.999 234.802 332.144L178.695 356.86C170.813 360.333 162.128 361.571 153.589 360.44L96.4014 352.866C78.6062 350.509 65.3095 335.335 65.3095 317.384Z" fill="url(#paint66_linear)"/>
<ellipse cx="257.126" cy="225.862" rx="1.19578" ry="1.37925" transform="rotate(-13.9388 257.126 225.862)" fill="#4C1B4A"/>
<path d="M307.892 222.52H303.004C303.178 221.135 303.57 218.246 303.737 217.771C303.905 217.296 306.95 214.407 308.451 213.022C310.523 212.324 315.17 211.122 317.181 211.905C319.192 212.687 319.532 213.767 319.451 214.209L307.892 222.52Z" fill="#60ECEC"/>
<path d="M283.125 219.244L283.125 222.446L293.373 214.335V208.835L283.125 219.244Z" fill="url(#paint67_linear)"/>
<path d="M305.819 222.566H293.941C292.694 221.808 290.949 219.399 293.941 215.82C297.68 211.347 301.347 210.614 303.326 210.541C305.306 210.468 310.724 210.541 314.532 210.541C317.716 210.541 319.531 212.918 319.431 214.294C318.643 212.71 317.305 211.622 314.766 211.889C309.193 212.476 306.528 219.071 305.819 222.566Z" fill="url(#paint68_linear)"/>
<path d="M419.019 92.8777C417.05 83.4825 407.312 84.1909 402.689 85.7194C401.869 90.119 400.855 99.3206 403.36 100.931C406.492 102.944 405.709 113.458 399.669 120.617C394.837 126.343 395.672 134.931 396.157 139.07C408.273 149.901 408.863 152.333 418.691 166.33C427.079 152.573 416.894 138.4 415.775 123.972C414.657 109.544 421.479 104.622 419.019 92.8777Z" fill="url(#paint69_linear)"/>
<path d="M368.805 93.2132C364.062 81.1336 356.278 77.6673 352.475 76.4364C349.455 74.9821 360.304 62.8576 375.515 63.5734C394.53 64.4682 400.122 77.5545 401.576 81.3573C403.03 85.1601 405.491 91.6473 403.142 103.28C401.263 112.585 394.306 121.101 391.062 124.195L385.694 120.057C384.165 115.881 380.28 107.463 376.97 107.194C372.831 106.859 369.364 96.0094 368.805 93.2132Z" fill="url(#paint70_linear)"/>
<path d="M416.123 114.906C416.542 112.282 417.185 109.987 417.801 107.785C419.101 103.141 420.286 98.909 419.022 92.878C417.054 83.4827 407.316 84.1905 402.693 85.7197C402.455 86.9946 402.201 88.7494 402.021 90.5293C407.502 90.753 418.559 85.794 416.123 114.906Z" fill="url(#paint71_linear)"/>
<path d="M359.232 79.9236C362.555 82.4078 366.152 86.4676 368.8 93.2134C369.36 96.0096 372.827 106.859 376.965 107.194C380.276 107.463 384.161 115.881 385.69 120.057L391.058 124.195C394.302 121.101 401.259 112.585 403.138 103.28C404.197 98.0334 404.278 93.833 403.914 90.4539C392.138 91.0691 388.588 86.1836 384.95 81.1784C383.115 78.6513 381.257 76.0945 378.308 74.1992C371.008 69.506 362.977 75.4051 359.583 79.2324L359.182 79.7916C359.198 79.8353 359.215 79.8799 359.232 79.9236Z" fill="url(#paint72_linear)"/>
<path d="M416.656 112.159C414.677 117.559 411.061 131.477 412.31 144.328C412.665 147.976 412.101 151.662 410.992 155.188C411.926 156.511 412.912 157.951 414.031 159.585C415.019 161.03 416.112 162.626 417.364 164.427C420.504 155.315 418.858 145.057 417.3 135.34C416.672 131.426 416.059 127.599 415.777 123.971C415.437 119.585 415.831 116.077 416.475 112.989C416.534 112.71 416.594 112.433 416.656 112.159Z" fill="url(#paint73_linear)"/>
<path d="M416.656 112.159C414.677 117.559 411.061 131.477 412.31 144.328C412.665 147.976 412.101 151.662 410.992 155.188C411.926 156.511 412.912 157.951 414.031 159.585C415.019 161.03 416.112 162.626 417.364 164.427C420.504 155.315 418.858 145.057 417.3 135.34C416.672 131.426 416.059 127.599 415.777 123.971C415.437 119.585 415.831 116.077 416.475 112.989C416.534 112.71 416.594 112.433 416.656 112.159Z" fill="url(#paint74_linear)"/>
<path d="M402.978 104.029C400.89 113.039 394.217 121.184 391.061 124.195L385.692 120.057C384.164 115.881 380.279 107.463 376.968 107.194C373.541 106.917 370.574 99.4289 369.338 95.2748C371.591 93.8688 375.836 92.0041 382.113 95.8978C388.725 99.9986 395.274 103.849 402.978 104.029Z" fill="url(#paint75_linear)"/>
<path d="M343.748 93.1014C343.658 88.538 349.75 80.0152 352.808 76.3242C353.777 76.4733 356.901 77.6664 361.643 81.2455C367.571 85.7195 373.387 103.056 374.841 105.069C376.296 107.082 379.763 107.418 381.664 104.286C383.566 101.155 389.046 99.8123 390.053 106.076C390.858 111.087 387.331 116.291 385.467 118.267C387.331 120.131 391.059 123.972 391.059 124.419C391.686 132.204 395.272 137.281 396.987 138.847C395.757 139.556 392.849 141.263 391.059 142.426C381.754 146.9 372.344 146.453 368.802 145.67C368.578 142.091 367.892 140.156 365.67 137.617C364.887 136.722 363.097 135.417 362.426 135.604C352.942 137.393 347.439 134.858 345.873 133.367C345.91 130.981 345.962 125.605 345.873 123.189C345.761 120.169 345.213 116.387 342.853 115.247C339.609 113.681 340.168 110.662 342.853 106.076C345.154 102.145 343.86 98.8057 343.748 93.1014Z" fill="url(#paint76_linear)"/>
<path d="M358.129 136.156C358.176 136.153 358.223 136.15 358.27 136.146C359.558 136.057 360.943 135.883 362.425 135.603C363.096 135.417 364.886 136.722 365.668 137.617C367.891 140.156 368.576 142.091 368.8 145.67C372.342 146.453 381.752 146.9 391.058 142.426C392.848 141.263 395.756 139.556 396.986 138.847C395.271 137.281 391.684 132.203 391.058 124.419C391.058 123.971 387.33 120.131 385.466 118.267C387.33 116.291 390.857 111.086 390.051 106.076C389.045 99.8121 383.564 101.154 381.663 104.286C379.761 107.418 376.294 107.082 374.84 105.069C374.461 104.544 373.785 102.976 372.887 100.866C372.829 100.73 372.77 100.591 372.71 100.45L372.705 100.437C370.141 94.404 365.921 84.474 361.642 81.2453C360.806 80.6144 360.016 80.0552 359.284 79.5649C354.201 83.4726 350.263 91.2522 357.951 103.839C365.939 116.917 362.538 128.995 358.129 136.156Z" fill="url(#paint77_linear)"/>
<path opacity="0.8" d="M372.54 146.127C370.98 146.047 369.701 145.869 368.801 145.67C368.578 142.091 367.892 140.156 365.67 137.617C364.936 136.778 363.317 135.579 362.564 135.586C365.78 134.994 370.814 133.799 376.631 131.354C375.206 134.125 373.039 139.893 372.54 146.127Z" fill="url(#paint78_linear)"/>
<path d="M400.91 143.452C401.468 137.018 403.87 130.854 406.163 124.969C409.189 117.206 412.023 109.932 410.183 103.168C408.94 98.6004 406.226 96.8161 404.059 96.1196C403.98 97.4164 403.763 100.219 403.528 101.05C406.458 103.331 405.597 113.591 399.669 120.616C399.66 120.627 399.65 120.638 399.641 120.649C394.84 126.376 395.673 134.939 396.157 139.069C397.978 140.697 399.539 142.136 400.91 143.452Z" fill="url(#paint79_linear)"/>
<path d="M353.744 188.657C357.62 173.68 360.128 166.498 364.73 154.157L366.465 166.974L353.744 188.657Z" fill="#FBC665"/>
<path d="M368.777 166.203C363.509 167.423 353.609 173.854 356.153 189.813C358.697 205.772 365.501 180.722 368.777 166.203Z" fill="#FDDD72"/>
<defs>
<linearGradient id="paint0_linear" x1="228.38" y1="54.1906" x2="217.506" y2="391.631" gradientUnits="userSpaceOnUse">
<stop stop-color="#C97DF0"/>
<stop offset="1" stop-color="#1F2C97"/>
</linearGradient>
<linearGradient id="paint1_linear" x1="228.38" y1="54.1906" x2="217.506" y2="391.631" gradientUnits="userSpaceOnUse">
<stop stop-color="#C97DF0"/>
<stop offset="1" stop-color="#1F2C97"/>
</linearGradient>
<linearGradient id="paint2_linear" x1="15.4709" y1="147.791" x2="15.4709" y2="348.567" gradientUnits="userSpaceOnUse">
<stop stop-color="#6CF5FA"/>
<stop offset="1" stop-color="#114ACE"/>
</linearGradient>
<linearGradient id="paint3_linear" x1="-81.5579" y1="154.369" x2="-28.1981" y2="400.667" gradientUnits="userSpaceOnUse">
<stop stop-color="#3048CD"/>
<stop offset="1" stop-color="#07013C"/>
</linearGradient>
<linearGradient id="paint4_linear" x1="-81.5579" y1="154.369" x2="-28.1981" y2="400.667" gradientUnits="userSpaceOnUse">
<stop stop-color="#3048CD"/>
<stop offset="1" stop-color="#07013C"/>
</linearGradient>
<linearGradient id="paint5_linear" x1="21.7779" y1="245.649" x2="29.3754" y2="475.875" gradientUnits="userSpaceOnUse">
<stop stop-color="#62E4F6"/>
<stop offset="1" stop-color="#07013C"/>
</linearGradient>
<linearGradient id="paint6_linear" x1="29.7284" y1="245.337" x2="135.313" y2="389.447" gradientUnits="userSpaceOnUse">
<stop stop-color="#0E3DC7"/>
<stop offset="1" stop-color="#A66FE3"/>
</linearGradient>
<linearGradient id="paint7_linear" x1="477.456" y1="122.787" x2="528.792" y2="237.002" gradientUnits="userSpaceOnUse">
<stop stop-color="#0E3DC7"/>
<stop offset="1" stop-color="#A66FE3"/>
</linearGradient>
<linearGradient id="paint8_linear" x1="501.556" y1="121.384" x2="462.083" y2="268.701" gradientUnits="userSpaceOnUse">
<stop stop-color="#6CF5FA"/>
<stop offset="1" stop-color="#114ACE"/>
</linearGradient>
<linearGradient id="paint9_linear" x1="438.01" y1="170.77" x2="441.397" y2="264.533" gradientUnits="userSpaceOnUse">
<stop stop-color="#6A4ED8"/>
<stop offset="1" stop-color="#4C1CB6"/>
</linearGradient>
<linearGradient id="paint10_linear" x1="449.135" y1="149.527" x2="485.891" y2="286.728" gradientUnits="userSpaceOnUse">
<stop stop-color="#6CF5FA"/>
<stop offset="1" stop-color="#114ACE"/>
</linearGradient>
<linearGradient id="paint11_linear" x1="560.415" y1="156.882" x2="527.076" y2="281.306" gradientUnits="userSpaceOnUse">
<stop stop-color="#0E3DC7"/>
<stop offset="1" stop-color="#A66FE4"/>
</linearGradient>
<linearGradient id="paint12_linear" x1="551.115" y1="154.451" x2="516.598" y2="283.271" gradientUnits="userSpaceOnUse">
<stop stop-color="#6CF5FA"/>
<stop offset="1" stop-color="#4688FD"/>
</linearGradient>
<linearGradient id="paint13_linear" x1="485.205" y1="276.673" x2="512.402" y2="424.228" gradientUnits="userSpaceOnUse">
<stop stop-color="#1F2B97"/>
<stop offset="1" stop-color="#0F0944"/>
</linearGradient>
<linearGradient id="paint14_linear" x1="73.4667" y1="198.087" x2="507.695" y2="234.681" gradientUnits="userSpaceOnUse">
<stop stop-color="#6137F9"/>
<stop offset="1" stop-color="#36209F"/>
</linearGradient>
<linearGradient id="paint15_linear" x1="50.7441" y1="239.775" x2="895.471" y2="244.869" gradientUnits="userSpaceOnUse">
<stop stop-color="#46AFE8"/>
<stop offset="1" stop-color="#4729C4"/>
</linearGradient>
<linearGradient id="paint16_linear" x1="288.598" y1="205.211" x2="288.598" y2="234.681" gradientUnits="userSpaceOnUse">
<stop stop-color="#4B5FFF"/>
<stop offset="1" stop-color="#2436B2"/>
</linearGradient>
<linearGradient id="paint17_linear" x1="288.598" y1="205.211" x2="288.598" y2="234.681" gradientUnits="userSpaceOnUse">
<stop stop-color="#4B5FFF"/>
<stop offset="1" stop-color="#2436B2"/>
</linearGradient>
<linearGradient id="paint18_linear" x1="319.156" y1="231.042" x2="362.209" y2="231.042" gradientUnits="userSpaceOnUse">
<stop stop-color="#FFE4D1"/>
<stop offset="0.9946" stop-color="#FFE1CE"/>
</linearGradient>
<linearGradient id="paint19_linear" x1="289.72" y1="373.58" x2="429.748" y2="257.104" gradientUnits="userSpaceOnUse">
<stop offset="0.00487805" stop-color="#0E073D"/>
<stop offset="1" stop-color="#2941CB"/>
</linearGradient>
<linearGradient id="paint20_linear" x1="426.18" y1="288.606" x2="430.726" y2="343.647" gradientUnits="userSpaceOnUse">
<stop offset="0.00487805" stop-color="#0E073D"/>
<stop offset="1" stop-color="#2941CB"/>
</linearGradient>
<linearGradient id="paint21_linear" x1="333.675" y1="220.784" x2="339.241" y2="248.517" gradientUnits="userSpaceOnUse">
<stop stop-color="#FFE3D0"/>
<stop offset="1" stop-color="#F180AE"/>
</linearGradient>
<linearGradient id="paint22_linear" x1="333.448" y1="247.461" x2="359.91" y2="213.31" gradientUnits="userSpaceOnUse">
<stop stop-color="#FFE3D0"/>
<stop offset="1" stop-color="#F9AF9F"/>
</linearGradient>
<linearGradient id="paint23_linear" x1="388.399" y1="101.945" x2="388.399" y2="275.493" gradientUnits="userSpaceOnUse">
<stop stop-color="#FFFF87"/>
<stop offset="1" stop-color="#F15A24"/>
</linearGradient>
<linearGradient id="paint24_linear" x1="411.005" y1="132.365" x2="458.424" y2="307.771" gradientUnits="userSpaceOnUse">
<stop stop-color="#FFE8B1"/>
<stop offset="1" stop-color="#E03B00"/>
</linearGradient>
<linearGradient id="paint25_linear" x1="320.463" y1="249.121" x2="388.063" y2="249.121" gradientUnits="userSpaceOnUse">
<stop stop-color="#FFE4D1"/>
<stop offset="0.9946" stop-color="#FFE1CE"/>
</linearGradient>
<linearGradient id="paint26_linear" x1="437.8" y1="248.36" x2="333.842" y2="248.36" gradientUnits="userSpaceOnUse">
<stop stop-color="#FFDB67"/>
<stop offset="1" stop-color="#F180AE"/>
</linearGradient>
<linearGradient id="paint27_linear" x1="402.022" y1="139.965" x2="385.851" y2="154.538" gradientUnits="userSpaceOnUse">
<stop stop-color="#FCD970"/>
<stop offset="1" stop-color="#F15A24"/>
</linearGradient>
<linearGradient id="paint28_linear" x1="381.776" y1="150.255" x2="381.776" y2="235.372" gradientUnits="userSpaceOnUse">
<stop stop-color="#FFFF87"/>
<stop offset="1" stop-color="#F15A24"/>
</linearGradient>
<linearGradient id="paint29_linear" x1="355.47" y1="282.84" x2="279.212" y2="237.172" gradientUnits="userSpaceOnUse">
<stop stop-color="#FFE3D0"/>
<stop offset="1" stop-color="#F180AE"/>
</linearGradient>
<linearGradient id="paint30_linear" x1="5.48056" y1="0" x2="5.48056" y2="108.101" gradientUnits="userSpaceOnUse">
<stop stop-color="#E13BCD"/>
<stop offset="1" stop-color="#51274C"/>
</linearGradient>
<linearGradient id="paint31_linear" x1="5.48056" y1="0" x2="5.48056" y2="89.931" gradientUnits="userSpaceOnUse">
<stop stop-color="#E13BCD"/>
<stop offset="1" stop-color="#51274C"/>
</linearGradient>
<linearGradient id="paint32_linear" x1="5.48056" y1="0" x2="5.48056" y2="106.433" gradientUnits="userSpaceOnUse">
<stop stop-color="#E13BCD"/>
<stop offset="1" stop-color="#51274C"/>
</linearGradient>
<linearGradient id="paint33_linear" x1="5.48056" y1="0" x2="5.48056" y2="90.7431" gradientUnits="userSpaceOnUse">
<stop stop-color="#E13BCD"/>
<stop offset="1" stop-color="#51274C"/>
</linearGradient>
<linearGradient id="paint34_linear" x1="397.377" y1="193.876" x2="397.377" y2="359.076" gradientUnits="userSpaceOnUse">
<stop stop-color="#FB7070"/>
<stop offset="1" stop-color="#B835A9"/>
</linearGradient>
<linearGradient id="paint35_linear" x1="2.01327" y1="0" x2="2.01327" y2="89.5006" gradientUnits="userSpaceOnUse">
<stop stop-color="#882E7D"/>
<stop offset="1" stop-color="#151315"/>
</linearGradient>
<linearGradient id="paint36_linear" x1="2.01327" y1="0" x2="2.01327" y2="89.9311" gradientUnits="userSpaceOnUse">
<stop stop-color="#882E7D"/>
<stop offset="1" stop-color="#151315"/>
</linearGradient>
<linearGradient id="paint37_linear" x1="2.01327" y1="0" x2="2.01327" y2="104.385" gradientUnits="userSpaceOnUse">
<stop stop-color="#882E7D"/>
<stop offset="1" stop-color="#151315"/>
</linearGradient>
<linearGradient id="paint38_linear" x1="311.968" y1="306.619" x2="311.968" y2="405.174" gradientUnits="userSpaceOnUse">
<stop stop-color="#0F0944"/>
<stop offset="1" stop-color="#1E2B96"/>
</linearGradient>
<linearGradient id="paint39_linear" x1="457.625" y1="334.285" x2="457.625" y2="425.028" gradientUnits="userSpaceOnUse">
<stop stop-color="#882E7D"/>
<stop offset="1" stop-color="#151315"/>
</linearGradient>
<linearGradient id="paint40_linear" x1="391.785" y1="197.903" x2="391.785" y2="359.076" gradientUnits="userSpaceOnUse">
<stop stop-color="#DE6FB1"/>
<stop offset="1" stop-color="#E49DAE"/>
</linearGradient>
<linearGradient id="paint41_linear" x1="397.377" y1="193.876" x2="397.377" y2="359.076" gradientUnits="userSpaceOnUse">
<stop stop-color="#FB7070"/>
<stop offset="1" stop-color="#B835A9"/>
</linearGradient>
<linearGradient id="paint42_linear" x1="451.894" y1="196.329" x2="451.894" y2="352.179" gradientUnits="userSpaceOnUse">
<stop stop-color="#FCB457"/>
<stop offset="1" stop-color="#C13CA2"/>
</linearGradient>
<linearGradient id="paint43_linear" x1="191.25" y1="398.569" x2="191.25" y2="151.152" gradientUnits="userSpaceOnUse">
<stop stop-color="#5B348F"/>
<stop offset="1" stop-color="#FF0362"/>
</linearGradient>
<linearGradient id="paint44_linear" x1="198.56" y1="340.117" x2="198.56" y2="412.538" gradientUnits="userSpaceOnUse">
<stop stop-color="#2D182A"/>
<stop offset="1" stop-color="#66308C"/>
</linearGradient>
<linearGradient id="paint45_linear" x1="219.38" y1="224.103" x2="219.38" y2="414.04" gradientUnits="userSpaceOnUse">
<stop offset="0.00487805" stop-color="#642C9B"/>
<stop offset="1" stop-color="#A847D3"/>
</linearGradient>
<linearGradient id="paint46_linear" x1="39.2365" y1="215.601" x2="364.279" y2="215.601" gradientUnits="userSpaceOnUse">
<stop stop-color="#46EFFD"/>
<stop offset="1" stop-color="#FFDA83"/>
</linearGradient>
<linearGradient id="paint47_linear" x1="273.268" y1="176.947" x2="273.268" y2="206.893" gradientUnits="userSpaceOnUse">
<stop stop-color="#4C94DE"/>
<stop offset="1" stop-color="#A8BDB7"/>
</linearGradient>
<linearGradient id="paint48_linear" x1="261.746" y1="170.251" x2="290.516" y2="204.534" gradientUnits="userSpaceOnUse">
<stop stop-color="#1B87DF"/>
<stop offset="1" stop-color="#014AC9"/>
</linearGradient>
<linearGradient id="paint49_linear" x1="152.174" y1="21.4605" x2="399.644" y2="194.689" gradientUnits="userSpaceOnUse">
<stop stop-color="#76EADE"/>
<stop offset="1" stop-color="#42ACCB"/>
</linearGradient>
<linearGradient id="paint50_linear" x1="215.036" y1="149.231" x2="298.53" y2="67.1677" gradientUnits="userSpaceOnUse">
<stop offset="0.00487805" stop-color="#68EBE6"/>
<stop offset="1" stop-color="#CBE0A6"/>
</linearGradient>
<linearGradient id="paint51_linear" x1="187.688" y1="61.314" x2="187.688" y2="177.787" gradientUnits="userSpaceOnUse">
<stop stop-color="#80DCE3"/>
<stop offset="1" stop-color="#46BACC"/>
</linearGradient>
<linearGradient id="paint52_linear" x1="263.389" y1="155.521" x2="263.389" y2="84.6725" gradientUnits="userSpaceOnUse">
<stop stop-color="#5631E3"/>
<stop offset="1" stop-color="#5631E3" stop-opacity="0"/>
</linearGradient>
<linearGradient id="paint53_linear" x1="297.27" y1="61.314" x2="297.27" y2="178.667" gradientUnits="userSpaceOnUse">
<stop stop-color="#F19BD3"/>
<stop offset="0.0001" stop-color="#BEE2AF"/>
<stop offset="0.955801" stop-color="#6CEBE4"/>
</linearGradient>
<linearGradient id="paint54_linear" x1="3812" y1="30553.9" x2="3812" y2="31156.3" gradientUnits="userSpaceOnUse">
<stop stop-color="#F19BD3"/>
<stop offset="0.0001" stop-color="#FFCAEC"/>
<stop offset="0.955801" stop-color="#FF34E9"/>
</linearGradient>
<linearGradient id="paint55_linear" x1="222.229" y1="328.384" x2="222.229" y2="241.15" gradientUnits="userSpaceOnUse">
<stop stop-color="#5B348F"/>
<stop offset="1" stop-color="#FF0362"/>
</linearGradient>
<linearGradient id="paint56_linear" x1="182.22" y1="165.896" x2="182.22" y2="332.869" gradientUnits="userSpaceOnUse">
<stop stop-color="#FB7070"/>
<stop offset="1" stop-color="#C96EDE"/>
</linearGradient>
<linearGradient id="paint57_linear" x1="191.379" y1="202.288" x2="203.85" y2="302.992" gradientUnits="userSpaceOnUse">
<stop stop-color="#E0407C"/>
<stop offset="1" stop-color="#E0407C" stop-opacity="0"/>
</linearGradient>
<linearGradient id="paint58_linear" x1="132.981" y1="289.082" x2="199.016" y2="210.393" gradientUnits="userSpaceOnUse">
<stop stop-color="#B7085E"/>
<stop offset="1" stop-color="#F9638E"/>
</linearGradient>
<linearGradient id="paint59_linear" x1="238.59" y1="178.297" x2="238.59" y2="232.469" gradientUnits="userSpaceOnUse">
<stop stop-color="#FE8877"/>
<stop offset="1" stop-color="#FFACDD"/>
</linearGradient>
<linearGradient id="paint60_linear" x1="336.566" y1="217.733" x2="214.406" y2="217.733" gradientUnits="userSpaceOnUse">
<stop stop-color="#FFDB67"/>
<stop offset="1" stop-color="#F180AE"/>
</linearGradient>
<linearGradient id="paint61_linear" x1="210.385" y1="169.944" x2="136.828" y2="31.7506" gradientUnits="userSpaceOnUse">
<stop stop-color="#231262"/>
<stop offset="1" stop-color="#44199F"/>
</linearGradient>
<linearGradient id="paint62_linear" x1="188.78" y1="74.1235" x2="188.78" y2="169.944" gradientUnits="userSpaceOnUse">
<stop stop-color="#E389C9" stop-opacity="0"/>
<stop offset="1" stop-color="#481B95"/>
</linearGradient>
<linearGradient id="paint63_linear" x1="232.719" y1="399.03" x2="232.719" y2="164.325" gradientUnits="userSpaceOnUse">
<stop stop-color="#5B348F"/>
<stop offset="1" stop-color="#FF0362"/>
</linearGradient>
<linearGradient id="paint64_linear" x1="128.665" y1="167.533" x2="191.006" y2="124.381" gradientUnits="userSpaceOnUse">
<stop stop-color="#4A1CB5" stop-opacity="0"/>
<stop offset="1" stop-color="#4C1CB6"/>
</linearGradient>
<linearGradient id="paint65_linear" x1="146.232" y1="212.852" x2="146.232" y2="378.052" gradientUnits="userSpaceOnUse">
<stop stop-color="#081C79"/>
<stop offset="1" stop-color="#000943"/>
</linearGradient>
<linearGradient id="paint66_linear" x1="146.232" y1="212.852" x2="146.232" y2="378.052" gradientUnits="userSpaceOnUse">
<stop stop-color="#0B2DA1"/>
<stop offset="1" stop-color="#081466"/>
</linearGradient>
<linearGradient id="paint67_linear" x1="283.125" y1="224.395" x2="302.583" y2="208.835" gradientUnits="userSpaceOnUse">
<stop stop-color="#46EFFD"/>
<stop offset="1" stop-color="#FFDA83"/>
</linearGradient>
<linearGradient id="paint68_linear" x1="282.706" y1="233.781" x2="316.274" y2="210.508" gradientUnits="userSpaceOnUse">
<stop stop-color="#46EFFD"/>
<stop offset="1" stop-color="#FFDA83"/>
</linearGradient>
<linearGradient id="paint69_linear" x1="394.979" y1="127.062" x2="419.574" y2="127.062" gradientUnits="userSpaceOnUse">
<stop offset="0.00487805" stop-color="#0E073D"/>
<stop offset="1" stop-color="#2941CB"/>
</linearGradient>
<linearGradient id="paint70_linear" x1="352.117" y1="93.7259" x2="404.149" y2="93.7259" gradientUnits="userSpaceOnUse">
<stop offset="0.00487805" stop-color="#0E073D"/>
<stop offset="1" stop-color="#2941CB"/>
</linearGradient>
<linearGradient id="paint71_linear" x1="419.582" y1="114.912" x2="409.122" y2="90.3746" gradientUnits="userSpaceOnUse">
<stop offset="0.00487805" stop-color="#0E073D"/>
<stop offset="1" stop-color="#2539E3"/>
</linearGradient>
<linearGradient id="paint72_linear" x1="359.182" y1="81.2457" x2="401.684" y2="98.3585" gradientUnits="userSpaceOnUse">
<stop offset="0.00487805" stop-color="#0E073D"/>
<stop offset="1" stop-color="#2941FB"/>
</linearGradient>
<linearGradient id="paint73_linear" x1="1030.28" y1="18244.7" x2="1030.28" y2="18379.2" gradientUnits="userSpaceOnUse">
<stop stop-color="#0E0944"/>
<stop offset="1" stop-color="#283FF6"/>
</linearGradient>
<linearGradient id="paint74_linear" x1="419.158" y1="164.438" x2="396.477" y2="150.19" gradientUnits="userSpaceOnUse">
<stop offset="0.00487805" stop-color="#0E073D"/>
<stop offset="1" stop-color="#2539E3"/>
</linearGradient>
<linearGradient id="paint75_linear" x1="369.338" y1="98.7712" x2="398.704" y2="113.727" gradientUnits="userSpaceOnUse">
<stop offset="0.00487805" stop-color="#0E073D"/>
<stop offset="1" stop-color="#2941FB"/>
</linearGradient>
<linearGradient id="paint76_linear" x1="340.399" y1="111.36" x2="396.878" y2="111.36" gradientUnits="userSpaceOnUse">
<stop stop-color="#FFE4D1"/>
<stop offset="0.9946" stop-color="#FFE1CE"/>
</linearGradient>
<linearGradient id="paint77_linear" x1="346.691" y1="143.872" x2="396.388" y2="120.709" gradientUnits="userSpaceOnUse">
<stop stop-color="#FFDB67"/>
<stop offset="1" stop-color="#F180AE"/>
</linearGradient>
<linearGradient id="paint78_linear" x1="369.598" y1="131.354" x2="369.598" y2="146.127" gradientUnits="userSpaceOnUse">
<stop stop-color="#F0447B"/>
<stop offset="1" stop-color="#F0447B" stop-opacity="0"/>
</linearGradient>
<linearGradient id="paint79_linear" x1="410.783" y1="143.462" x2="388.639" y2="115.234" gradientUnits="userSpaceOnUse">
<stop offset="0.00487805" stop-color="#0E073D"/>
<stop offset="1" stop-color="#2539E3"/>
</linearGradient>
</defs>
</svg>
