<svg width="2615" height="1115" viewBox="0 0 2615 1115" fill="none" xmlns="http://www.w3.org/2000/svg">
<rect width="2614.44" height="1114.38" fill="#193566"/>
<g style="mix-blend-mode:soft-light" opacity="0.6">
<g clip-path="url(#clip0)">
<path d="M1.19147 -318.394H2614.45V1365.15H1.19147V-318.394Z" fill="#193566"/>
<path d="M1519.53 -318.395C1432.41 -245.24 1327.3 -81.9897 1420.89 150.233C1554.07 480.659 1513.86 765.855 1294 976.926C1161.17 1104.44 1124.18 1252.6 1125.4 1365.15H2614.45V-318.395H1519.53Z" fill="#51A9FF"/>
<path d="M1.19147 -318.394H883.166C711.929 167.833 737.426 503.274 1033.93 1365.15H1.19147V-318.394Z" fill="#D7E2FF"/>
<path d="M2330.4 597.803C2238.72 543.909 2120.32 573.796 2064.87 665.315C2009.42 756.835 2037.73 875.615 2127.95 931.936L2330.4 597.803Z" fill="#F2F5FF"/>
<path d="M1.1875 -281.891C34.6703 -196.837 124.014 -86.8905 312.768 -77.1693C605.503 -62.0928 756.268 127.62 773.857 250.744C774.879 257.898 775.913 265.798 777.035 274.357C795.209 413.124 836.09 725.268 1213.59 841.239C1614.37 964.364 1825.44 1081.21 1954.85 1365.15H1.1875V-281.891Z" fill="#8BE2FF"/>
<path d="M2614.44 297.229V1365.15H1963.64C2079.65 863.028 2242.09 641.49 2614.44 297.229Z" fill="#244682"/>
<path d="M157.354 422.866C-54.2016 640.127 -52.4365 987.752 162.648 1202.84C377.733 1417.92 725.359 1419.69 942.619 1208.13L157.354 422.866Z" fill="#193566"/>
<circle cx="327.844" cy="593.733" r="100.51" fill="#F2F5FF"/>
<circle cx="1398.28" cy="-89.7362" r="100.51" fill="#8BE2FF"/>
<circle cx="1162.08" cy="194.207" r="55.2804" fill="#D7E2FF"/>
<circle cx="1791.52" cy="572.374" r="79.1515" fill="#193566"/>
<circle cx="427.1" cy="1047.28" r="149.508" fill="#51A9FF"/>
<circle cx="1061.57" cy="704.295" r="180.918" fill="#51A9FF"/>
<path d="M2614.44 -16.8374C2551.45 30.4794 2473.15 58.5174 2388.3 58.5174C2180.13 58.5174 2011.38 -110.232 2011.38 -318.395H2614.44V-16.8374Z" fill="#D7E2FF"/>
<rect x="1601.81" y="106.667" width="92.9716" height="268.864" transform="rotate(-45 1601.81 106.667)" fill="#193566"/>
<rect x="392.272" y="-217.057" width="92.9716" height="268.864" transform="rotate(30 392.272 -217.057)" fill="#51A9FF"/>
<rect x="1619.4" y="897.776" width="92.9716" height="299.017" fill="#D7E2FF"/>
<rect x="2242.56" y="-65.6719" width="92.9716" height="268.864" transform="rotate(-15 2242.56 -65.6719)" fill="#8BE2FF"/>
</g>
</g>
<path d="M1089.19 536.069V454.071H1065.54V536.069H1089.19ZM1091.23 426.909C1091.23 417.684 1084.77 413.584 1077.28 413.584C1069.97 413.584 1063.5 417.684 1063.5 426.909C1063.5 436.304 1069.97 440.404 1077.28 440.404C1084.77 440.404 1091.23 436.304 1091.23 426.909Z" fill="white"/>
<path d="M1130.49 464.491V454.071H1109.56V536.069H1133.21V482.599C1136.61 477.645 1143.08 472.179 1151.41 472.179C1160.6 472.179 1167.23 477.303 1167.23 488.407V536.069H1190.88V485.332C1190.88 466.37 1179.14 451.679 1157.7 451.679C1145.97 451.679 1136.78 457.146 1130.49 464.491Z" fill="white"/>
<path d="M1339.54 536.069V454.071H1315.89V536.069H1339.54ZM1341.58 426.909C1341.58 417.684 1335.12 413.584 1327.63 413.584C1320.32 413.584 1313.85 417.684 1313.85 426.909C1313.85 436.304 1320.32 440.404 1327.63 440.404C1335.12 440.404 1341.58 436.304 1341.58 426.909Z" fill="white"/>
<path d="M1461.14 495.07C1461.14 523.769 1482.58 538.46 1506.22 538.46C1530.04 538.46 1551.3 523.769 1551.3 495.07C1551.3 466.37 1530.04 451.679 1506.22 451.679C1482.58 451.679 1461.14 466.37 1461.14 495.07ZM1527.32 495.07C1527.32 507.711 1519.83 517.278 1506.22 517.278C1492.78 517.278 1485.3 507.711 1485.3 495.07C1485.3 482.428 1492.78 472.862 1506.22 472.862C1519.83 472.862 1527.32 482.428 1527.32 495.07Z" fill="white"/>
<path fill-rule="evenodd" clip-rule="evenodd" d="M1272.68 416.755V456.255C1266.15 453.21 1258.72 451.676 1251.02 451.676C1227.38 451.676 1205.94 466.367 1205.94 495.067C1205.94 523.766 1227.38 538.458 1251.02 538.458C1274.15 538.458 1294.88 524.599 1296.05 497.509L1296.11 497.463V416.755H1272.68ZM1326.85 665.462C1267.82 665.462 1218.74 622.684 1208.67 566.314H1232.57C1242.29 609.603 1280.81 641.936 1326.85 641.936C1380.22 641.936 1423.49 598.487 1423.49 544.89V533.785C1416.91 536.892 1409.41 538.458 1401.63 538.458C1377.99 538.458 1356.55 523.766 1356.55 495.067C1356.55 466.367 1377.99 451.676 1401.63 451.676C1424.93 451.676 1445.79 465.736 1446.68 493.216H1446.92V544.89C1446.92 611.48 1393.16 665.462 1326.85 665.462ZM1327.27 608.327C1299.64 608.327 1276.07 590.856 1266.91 566.314H1387.62C1378.47 590.856 1354.9 608.327 1327.27 608.327ZM1272.12 495.067C1272.12 507.708 1264.63 517.275 1251.02 517.275C1237.58 517.275 1230.1 507.708 1230.1 495.067C1230.1 482.425 1237.58 472.859 1251.02 472.859C1264.63 472.859 1272.12 482.425 1272.12 495.067ZM1401.63 517.275C1415.24 517.275 1422.73 507.708 1422.73 495.067C1422.73 482.425 1415.24 472.859 1401.63 472.859C1388.19 472.859 1380.71 482.425 1380.71 495.067C1380.71 507.708 1388.19 517.275 1401.63 517.275Z" fill="white"/>
<path d="M1572.5 454.605H1566.6V469.041H1562.03V454.605H1556.14V450.484H1572.5V454.605Z" fill="white"/>
<path d="M1595.25 450.484V469.041H1590.66V459.735L1586.56 466.094V466.121H1584V466.094L1579.87 459.681L1579.9 469.041H1575.31V450.484H1578.73L1585.28 460.39L1591.83 450.484H1595.25Z" fill="white"/>
<defs>
<clipPath id="clip0">
<rect y="0.130859" width="2614.44" height="1113.86" fill="white"/>
</clipPath>
</defs>
</svg>
