<svg width="804" height="249" viewBox="0 0 804 249" fill="none" xmlns="http://www.w3.org/2000/svg">
<line x1="0.371094" y1="120.39" x2="803.5" y2="120.39" stroke="#D6D6D6" stroke-width="1.20527"/>
<line x1="0.371094" y1="39.6347" x2="803.5" y2="39.6347" stroke="#D6D6D6" stroke-width="1.20527"/>
<line x1="0.371094" y1="3.47842" x2="803.5" y2="3.47842" stroke="#D6D6D6" stroke-width="1.20527"/>
<line x1="0.371094" y1="149.314" x2="803.5" y2="149.314" stroke="#D6D6D6" stroke-width="1.20527"/>
<line x1="0.371094" y1="192.707" x2="803.5" y2="192.707" stroke="#D6D6D6" stroke-width="1.20527"/>
<line x1="0.371094" y1="222.837" x2="803.5" y2="222.837" stroke="#D6D6D6" stroke-width="1.20527"/>
<line x1="0.371094" y1="248.15" x2="803.5" y2="248.15" stroke="#D6D6D6" stroke-width="1.20527"/>
<path d="M175.976 120.397V39.9418H152.775V120.397H175.976ZM177.979 13.2908C177.979 4.23958 171.636 0.216797 164.292 0.216797C157.115 0.216797 150.772 4.23958 150.772 13.2908C150.772 22.5097 157.115 26.5325 164.292 26.5325C171.636 26.5325 177.979 22.5097 177.979 13.2908Z" fill="#A7ADB0"/>
<path d="M216.497 50.1663V39.9418H195.967V120.397H219.167V67.9336C222.506 63.0728 228.848 57.7091 237.027 57.7091C246.04 57.7091 252.55 62.7375 252.55 73.6326V120.397H275.751V70.6155C275.751 52.0101 264.234 37.5951 243.203 37.5951C231.686 37.5951 222.672 42.9589 216.497 50.1663Z" fill="#A7ADB0"/>
<path d="M421.617 120.397V39.9418H398.417V120.397H421.617ZM423.62 13.2908C423.62 4.23958 417.278 0.216797 409.934 0.216797C402.756 0.216797 396.414 4.23958 396.414 13.2908C396.414 22.5097 402.756 26.5325 409.934 26.5325C417.278 26.5325 423.62 22.5097 423.62 13.2908Z" fill="#A7ADB0"/>
<path d="M540.932 80.1696C540.932 108.329 561.963 122.744 585.164 122.744C608.532 122.744 629.396 108.329 629.396 80.1696C629.396 52.0101 608.532 37.5951 585.164 37.5951C561.963 37.5951 540.932 52.0101 540.932 80.1696ZM605.861 80.1696C605.861 92.5732 598.517 101.96 585.164 101.96C571.978 101.96 564.634 92.5732 564.634 80.1696C564.634 67.766 571.978 58.3795 585.164 58.3795C598.517 58.3795 605.861 67.766 605.861 80.1696Z" fill="#A7ADB0"/>
<path fill-rule="evenodd" clip-rule="evenodd" d="M356.014 3.3291V42.0893C349.605 39.1011 342.315 37.5957 334.764 37.5957C311.563 37.5957 290.532 52.0106 290.532 80.1701C290.532 108.33 311.563 122.745 334.764 122.745C357.46 122.745 377.794 109.147 378.944 82.5649L379.001 82.5188V3.3291H356.014ZM409.164 247.36C351.245 247.36 303.088 205.388 293.211 150.079H316.662C326.193 192.553 363.989 224.277 409.164 224.277C461.532 224.277 503.984 181.645 503.984 129.056V118.159C497.528 121.208 490.167 122.745 482.539 122.745C459.338 122.745 438.307 108.33 438.307 80.1701C438.307 52.0106 459.338 37.5957 482.539 37.5957C505.399 37.5957 525.863 51.3911 526.741 78.3542H526.971V129.056C526.971 194.394 474.227 247.36 409.164 247.36ZM409.268 191.987C382.155 191.987 359.189 174.159 350.21 150.079H468.391C459.411 174.159 436.381 191.987 409.268 191.987ZM355.461 80.1701C355.461 92.5737 348.117 101.96 334.764 101.96C321.578 101.96 314.233 92.5737 314.233 80.1701C314.233 67.7665 321.578 58.38 334.764 58.38C348.117 58.38 355.461 67.7665 355.461 80.1701ZM482.539 101.96C495.892 101.96 503.236 92.5737 503.236 80.1701C503.236 67.7665 495.892 58.38 482.539 58.38C469.352 58.38 462.008 67.7665 462.008 80.1701C462.008 92.5737 469.352 101.96 482.539 101.96Z" fill="#A7ADB0"/>
<path d="M650.191 40.462H644.406V54.6259H639.926V40.462H634.141V36.4189H650.191V40.462Z" fill="#A7ADB0"/>
<path d="M672.52 36.4189V54.6259H668.014V45.4957L663.988 51.7342V51.761H661.481V51.7342L657.429 45.4421L657.455 54.6259H652.949V36.4189H656.309L662.734 46.1383L669.16 36.4189H672.52Z" fill="#A7ADB0"/>
<circle cx="408.982" cy="129.505" r="118.302" stroke="#D6D6D6" stroke-width="1.20527" stroke-dasharray="2.41 4.82"/>
<circle cx="409.282" cy="129.504" r="94.0331" stroke="#D6D6D6" stroke-width="1.20527" stroke-dasharray="2.41 4.82"/>
<circle cx="409.28" cy="129.506" r="62.8998" stroke="#D6D6D6" stroke-width="1.20527" stroke-dasharray="2.41 4.82"/>
</svg>
