<svg width="632" height="425" viewBox="0 0 632 425" fill="none" xmlns="http://www.w3.org/2000/svg">
<path fill-rule="evenodd" clip-rule="evenodd" d="M12.1963 56.9692C12.1963 53.641 14.8944 50.9429 18.2227 50.9429H620.682C624.01 50.9429 626.708 53.641 626.708 56.9692C626.708 60.2975 624.01 62.9956 620.682 62.9956H18.2227C14.8944 62.9956 12.1963 60.2975 12.1963 56.9692Z" fill="#F1F4F7"/>
<path d="M26.6885 5.58725L23.8682 15.6826H21.4817L19.587 8.49437L17.6056 15.6826L15.2336 15.6971L12.5145 5.58725H14.684L16.463 13.4263L18.5167 5.58725H20.773L22.7111 13.383L24.5045 5.58725H26.6885ZM37.6601 13.759H33.6393L32.974 15.6826H30.8479L34.4781 5.57279H36.8356L40.4659 15.6826H38.3254L37.6601 13.759ZM37.1104 12.1391L35.6497 7.91584L34.1889 12.1391H37.1104ZM50.4888 15.6826L48.2614 11.7486H47.3069V15.6826H45.282V5.58725H49.0714C49.8524 5.58725 50.5177 5.72706 51.0673 6.00669C51.6169 6.27667 52.0267 6.64789 52.2967 7.12036C52.5763 7.58318 52.7161 8.10386 52.7161 8.68239C52.7161 9.3477 52.5233 9.95034 52.1376 10.4903C51.7519 11.0206 51.1782 11.387 50.4165 11.5895L52.8318 15.6826H50.4888ZM47.3069 10.23H48.9991C49.5487 10.23 49.9585 10.0998 50.2284 9.83945C50.4984 9.56947 50.6334 9.19825 50.6334 8.72578C50.6334 8.26296 50.4984 7.9062 50.2284 7.6555C49.9585 7.39516 49.5487 7.26499 48.9991 7.26499H47.3069V10.23ZM69.0132 5.58725V15.6826H66.9884V9.11629L64.2837 15.6826H62.7506L60.0315 9.11629V15.6826H58.0067V5.58725H60.3063L63.5172 13.0937L66.728 5.58725H69.0132Z" fill="#353839"/>
<path d="M573.105 10.6205C573.105 9.62733 573.326 8.74024 573.77 7.95923C574.223 7.16857 574.835 6.55629 575.607 6.12239C576.388 5.67885 577.26 5.45708 578.225 5.45708C579.353 5.45708 580.341 5.74635 581.19 6.32488C582.038 6.90341 582.631 7.70371 582.969 8.72578H580.64C580.409 8.24367 580.081 7.88209 579.656 7.64104C579.242 7.39998 578.76 7.27945 578.21 7.27945C577.622 7.27945 577.096 7.41927 576.634 7.69889C576.18 7.96887 575.824 8.35456 575.563 8.85595C575.313 9.35734 575.187 9.94552 575.187 10.6205C575.187 11.2858 575.313 11.874 575.563 12.385C575.824 12.8864 576.18 13.2769 576.634 13.5565C577.096 13.8265 577.622 13.9615 578.21 13.9615C578.76 13.9615 579.242 13.841 579.656 13.5999C580.081 13.3492 580.409 12.9828 580.64 12.5007H582.969C582.631 13.5324 582.038 14.3375 581.19 14.9161C580.351 15.485 579.362 15.7694 578.225 15.7694C577.26 15.7694 576.388 15.5524 575.607 15.1185C574.835 14.675 574.223 14.0627 573.77 13.2817C573.326 12.5007 573.105 11.6136 573.105 10.6205ZM592.843 15.7839C591.898 15.7839 591.031 15.5621 590.24 15.1185C589.449 14.675 588.822 14.0627 588.36 13.2817C587.897 12.4911 587.665 11.5992 587.665 10.606C587.665 9.6225 587.897 8.74024 588.36 7.95923C588.822 7.16857 589.449 6.55147 590.24 6.10793C591.031 5.66439 591.898 5.44262 592.843 5.44262C593.798 5.44262 594.666 5.66439 595.447 6.10793C596.237 6.55147 596.859 7.16857 597.312 7.95923C597.775 8.74024 598.007 9.6225 598.007 10.606C598.007 11.5992 597.775 12.4911 597.312 13.2817C596.859 14.0627 596.237 14.675 595.447 15.1185C594.656 15.5621 593.788 15.7839 592.843 15.7839ZM592.843 13.976C593.451 13.976 593.986 13.841 594.449 13.571C594.912 13.2914 595.273 12.896 595.533 12.385C595.794 11.874 595.924 11.281 595.924 10.606C595.924 9.93105 595.794 9.34288 595.533 8.84149C595.273 8.33045 594.912 7.93994 594.449 7.66996C593.986 7.39998 593.451 7.26499 592.843 7.26499C592.236 7.26499 591.696 7.39998 591.223 7.66996C590.761 7.93994 590.399 8.33045 590.139 8.84149C589.878 9.34288 589.748 9.93105 589.748 10.606C589.748 11.281 589.878 11.874 590.139 12.385C590.399 12.896 590.761 13.2914 591.223 13.571C591.696 13.841 592.236 13.976 592.843 13.976ZM607.658 15.7839C606.713 15.7839 605.846 15.5621 605.055 15.1185C604.264 14.675 603.638 14.0627 603.175 13.2817C602.712 12.4911 602.48 11.5992 602.48 10.606C602.48 9.6225 602.712 8.74024 603.175 7.95923C603.638 7.16857 604.264 6.55147 605.055 6.10793C605.846 5.66439 606.713 5.44262 607.658 5.44262C608.613 5.44262 609.481 5.66439 610.262 6.10793C611.052 6.55147 611.674 7.16857 612.127 7.95923C612.59 8.74024 612.822 9.6225 612.822 10.606C612.822 11.5992 612.59 12.4911 612.127 13.2817C611.674 14.0627 611.052 14.675 610.262 15.1185C609.471 15.5621 608.603 15.7839 607.658 15.7839ZM607.658 13.976C608.266 13.976 608.801 13.841 609.264 13.571C609.727 13.2914 610.088 12.896 610.349 12.385C610.609 11.874 610.739 11.281 610.739 10.606C610.739 9.93105 610.609 9.34288 610.349 8.84149C610.088 8.33045 609.727 7.93994 609.264 7.66996C608.801 7.39998 608.266 7.26499 607.658 7.26499C607.051 7.26499 606.511 7.39998 606.038 7.66996C605.576 7.93994 605.214 8.33045 604.954 8.84149C604.693 9.34288 604.563 9.93105 604.563 10.606C604.563 11.281 604.693 11.874 604.954 12.385C605.214 12.896 605.576 13.2914 606.038 13.571C606.511 13.841 607.051 13.976 607.658 13.976ZM619.812 14.0772H623.139V15.6826H617.787V5.58725H619.812V14.0772Z" fill="#353839"/>
<g filter="url(#filter0_d)">
<path fill-rule="evenodd" clip-rule="evenodd" d="M118.716 71.4332C127.37 71.4332 134.385 64.418 134.385 55.7642C134.385 47.1105 127.37 40.0952 118.716 40.0952C110.062 40.0952 103.047 47.1105 103.047 55.7642C103.047 64.418 110.062 71.4332 118.716 71.4332Z" fill="#51A9FF"/>
</g>
<path fill-rule="evenodd" clip-rule="evenodd" d="M12.1963 169.059C12.1963 165.73 14.8944 163.032 18.2227 163.032H620.682C624.01 163.032 626.708 165.73 626.708 169.059C626.708 172.387 624.01 175.085 620.682 175.085H18.2227C14.8944 175.085 12.1963 172.387 12.1963 169.059Z" fill="#F1F4F7"/>
<path d="M19.4279 117.679V119.313H15.2191V121.902H18.4444V123.507H15.2191V127.774H13.1943V117.679H19.4279ZM26.3188 117.679V123.927C26.3188 124.611 26.4972 125.137 26.854 125.503C27.2107 125.86 27.7121 126.038 28.3581 126.038C29.0138 126.038 29.52 125.86 29.8768 125.503C30.2335 125.137 30.4119 124.611 30.4119 123.927V117.679H32.4512V123.912C32.4512 124.77 32.2632 125.498 31.8872 126.096C31.5208 126.684 31.0242 127.128 30.3975 127.427C29.7804 127.726 29.0909 127.875 28.3292 127.875C27.5771 127.875 26.8925 127.726 26.2754 127.427C25.668 127.128 25.1859 126.684 24.8291 126.096C24.4723 125.498 24.294 124.77 24.294 123.912V117.679H26.3188ZM46.5013 127.774H44.4765L39.8916 120.846V127.774H37.8668V117.664H39.8916L44.4765 124.606V117.664H46.5013V127.774Z" fill="#353839"/>
<path d="M551.745 127.875C551.041 127.875 550.404 127.755 549.835 127.514C549.276 127.273 548.833 126.925 548.505 126.472C548.177 126.019 548.008 125.484 547.999 124.867H550.168C550.197 125.281 550.342 125.609 550.602 125.85C550.872 126.091 551.238 126.212 551.701 126.212C552.174 126.212 552.545 126.101 552.815 125.879C553.085 125.648 553.22 125.349 553.22 124.983C553.22 124.684 553.128 124.438 552.945 124.245C552.762 124.052 552.53 123.903 552.251 123.797C551.981 123.681 551.605 123.555 551.123 123.42C550.467 123.228 549.932 123.04 549.517 122.856C549.112 122.664 548.76 122.379 548.461 122.003C548.172 121.617 548.028 121.106 548.028 120.47C548.028 119.872 548.177 119.351 548.476 118.908C548.775 118.464 549.194 118.127 549.734 117.896C550.274 117.654 550.891 117.534 551.586 117.534C552.627 117.534 553.471 117.789 554.117 118.3C554.772 118.802 555.134 119.506 555.201 120.412H552.974C552.955 120.065 552.805 119.781 552.526 119.559C552.256 119.327 551.894 119.212 551.441 119.212C551.046 119.212 550.727 119.313 550.486 119.515C550.255 119.718 550.139 120.012 550.139 120.398C550.139 120.668 550.226 120.894 550.4 121.077C550.583 121.251 550.804 121.396 551.065 121.511C551.335 121.617 551.711 121.743 552.193 121.887C552.849 122.08 553.384 122.273 553.798 122.466C554.213 122.659 554.57 122.948 554.869 123.334C555.168 123.719 555.317 124.226 555.317 124.852C555.317 125.392 555.177 125.894 554.898 126.357C554.618 126.819 554.208 127.191 553.668 127.47C553.128 127.74 552.487 127.875 551.745 127.875ZM562.557 119.313V121.844H565.955V123.449H562.557V126.125H566.389V127.774H560.532V117.664H566.389V119.313H562.557ZM576.895 127.774L574.668 123.84H573.713V127.774H571.689V117.679H575.478C576.259 117.679 576.924 117.818 577.474 118.098C578.023 118.368 578.433 118.739 578.703 119.212C578.983 119.674 579.123 120.195 579.123 120.774C579.123 121.439 578.93 122.042 578.544 122.582C578.158 123.112 577.585 123.478 576.823 123.681L579.238 127.774H576.895ZM573.713 122.321H575.406C575.955 122.321 576.365 122.191 576.635 121.931C576.905 121.661 577.04 121.29 577.04 120.817C577.04 120.354 576.905 119.998 576.635 119.747C576.365 119.486 575.955 119.356 575.406 119.356H573.713V122.321ZM586.438 117.679V127.774H584.413V117.679H586.438ZM596.584 127.875C595.639 127.875 594.771 127.653 593.98 127.21C593.19 126.766 592.563 126.154 592.1 125.373C591.637 124.582 591.406 123.69 591.406 122.697C591.406 121.714 591.637 120.832 592.1 120.051C592.563 119.26 593.19 118.643 593.98 118.199C594.771 117.756 595.639 117.534 596.584 117.534C597.538 117.534 598.406 117.756 599.187 118.199C599.978 118.643 600.6 119.26 601.053 120.051C601.516 120.832 601.747 121.714 601.747 122.697C601.747 123.69 601.516 124.582 601.053 125.373C600.6 126.154 599.978 126.766 599.187 127.21C598.397 127.653 597.529 127.875 596.584 127.875ZM596.584 126.067C597.191 126.067 597.726 125.932 598.189 125.662C598.652 125.383 599.014 124.987 599.274 124.476C599.534 123.965 599.665 123.372 599.665 122.697C599.665 122.022 599.534 121.434 599.274 120.933C599.014 120.422 598.652 120.031 598.189 119.761C597.726 119.491 597.191 119.356 596.584 119.356C595.976 119.356 595.436 119.491 594.964 119.761C594.501 120.031 594.14 120.422 593.879 120.933C593.619 121.434 593.489 122.022 593.489 122.697C593.489 123.372 593.619 123.965 593.879 124.476C594.14 124.987 594.501 125.383 594.964 125.662C595.436 125.932 595.976 126.067 596.584 126.067ZM608.709 117.679V123.927C608.709 124.611 608.887 125.137 609.244 125.503C609.601 125.86 610.102 126.038 610.748 126.038C611.404 126.038 611.91 125.86 612.267 125.503C612.623 125.137 612.802 124.611 612.802 123.927V117.679H614.841V123.912C614.841 124.77 614.653 125.498 614.277 126.096C613.911 126.684 613.414 127.128 612.787 127.427C612.17 127.726 611.481 127.875 610.719 127.875C609.967 127.875 609.282 127.726 608.665 127.427C608.058 127.128 607.576 126.684 607.219 126.096C606.862 125.498 606.684 124.77 606.684 123.912V117.679H608.709ZM623.742 127.875C623.038 127.875 622.402 127.755 621.833 127.514C621.274 127.273 620.83 126.925 620.503 126.472C620.175 126.019 620.006 125.484 619.996 124.867H622.166C622.195 125.281 622.339 125.609 622.6 125.85C622.87 126.091 623.236 126.212 623.699 126.212C624.171 126.212 624.543 126.101 624.813 125.879C625.083 125.648 625.218 125.349 625.218 124.983C625.218 124.684 625.126 124.438 624.943 124.245C624.76 124.052 624.528 123.903 624.249 123.797C623.979 123.681 623.603 123.555 623.12 123.42C622.465 123.228 621.93 123.04 621.515 122.856C621.11 122.664 620.758 122.379 620.459 122.003C620.17 121.617 620.025 121.106 620.025 120.47C620.025 119.872 620.175 119.351 620.474 118.908C620.773 118.464 621.192 118.127 621.732 117.896C622.272 117.654 622.889 117.534 623.583 117.534C624.625 117.534 625.468 117.789 626.114 118.3C626.77 118.802 627.132 119.506 627.199 120.412H624.972C624.952 120.065 624.803 119.781 624.523 119.559C624.253 119.327 623.892 119.212 623.439 119.212C623.043 119.212 622.725 119.313 622.484 119.515C622.253 119.718 622.137 120.012 622.137 120.398C622.137 120.668 622.224 120.894 622.397 121.077C622.58 121.251 622.802 121.396 623.063 121.511C623.333 121.617 623.709 121.743 624.191 121.887C624.846 122.08 625.382 122.273 625.796 122.466C626.211 122.659 626.567 122.948 626.866 123.334C627.165 123.719 627.315 124.226 627.315 124.852C627.315 125.392 627.175 125.894 626.895 126.357C626.616 126.819 626.206 127.191 625.666 127.47C625.126 127.74 624.485 127.875 623.742 127.875Z" fill="#353839"/>
<g filter="url(#filter1_d)">
<path fill-rule="evenodd" clip-rule="evenodd" d="M26.085 183.523C34.7388 183.523 41.754 176.508 41.754 167.854C41.754 159.2 34.7388 152.185 26.085 152.185C17.4313 152.185 10.416 159.2 10.416 167.854C10.416 176.508 17.4313 183.523 26.085 183.523Z" fill="#51A9FF"/>
</g>
<path fill-rule="evenodd" clip-rule="evenodd" d="M12.1963 281.15C12.1963 277.822 14.8944 275.124 18.2227 275.124H620.682C624.01 275.124 626.708 277.822 626.708 281.15C626.708 284.479 624.01 287.177 620.682 287.177H18.2227C14.8944 287.177 12.1963 284.479 12.1963 281.15Z" fill="#F1F4F7"/>
<path d="M24.2008 229.769V239.864H22.1759V233.298L19.4713 239.864H17.9382L15.2191 233.298V239.864H13.1943V229.769H15.4939L18.7048 237.275L21.9156 229.769H24.2008ZM34.348 239.966C33.403 239.966 32.5352 239.744 31.7446 239.3C30.9539 238.857 30.3272 238.244 29.8643 237.463C29.4015 236.673 29.1701 235.781 29.1701 234.788C29.1701 233.804 29.4015 232.922 29.8643 232.141C30.3272 231.35 30.9539 230.733 31.7446 230.29C32.5352 229.846 33.403 229.624 34.348 229.624C35.3025 229.624 36.1703 229.846 36.9514 230.29C37.742 230.733 38.3639 231.35 38.8171 232.141C39.2799 232.922 39.5114 233.804 39.5114 234.788C39.5114 235.781 39.2799 236.673 38.8171 237.463C38.3639 238.244 37.742 238.857 36.9514 239.3C36.1607 239.744 35.2929 239.966 34.348 239.966ZM34.348 238.158C34.9554 238.158 35.4906 238.023 35.9534 237.753C36.4162 237.473 36.7778 237.078 37.0381 236.567C37.2985 236.056 37.4286 235.463 37.4286 234.788C37.4286 234.113 37.2985 233.525 37.0381 233.023C36.7778 232.512 36.4162 232.122 35.9534 231.852C35.4906 231.582 34.9554 231.447 34.348 231.447C33.7405 231.447 33.2005 231.582 32.7281 231.852C32.2653 232.122 31.9037 232.512 31.6433 233.023C31.383 233.525 31.2528 234.113 31.2528 234.788C31.2528 235.463 31.383 236.056 31.6433 236.567C31.9037 237.078 32.2653 237.473 32.7281 237.753C33.2005 238.023 33.7405 238.158 34.348 238.158ZM48.006 229.769C49.0666 229.769 49.9971 229.976 50.7974 230.391C51.6073 230.805 52.2292 231.398 52.6631 232.17C53.1067 232.932 53.3284 233.819 53.3284 234.831C53.3284 235.843 53.1067 236.731 52.6631 237.492C52.2292 238.244 51.6073 238.828 50.7974 239.242C49.9971 239.657 49.0666 239.864 48.006 239.864H44.4769V229.769H48.006ZM47.9336 238.143C48.9943 238.143 49.8139 237.854 50.3924 237.275C50.9709 236.697 51.2602 235.882 51.2602 234.831C51.2602 233.78 50.9709 232.96 50.3924 232.372C49.8139 231.774 48.9943 231.476 47.9336 231.476H46.5018V238.143H47.9336ZM60.3281 231.403V233.934H63.727V235.54H60.3281V238.215H64.1609V239.864H58.3033V229.754H64.1609V231.403H60.3281ZM74.6669 239.864L72.4396 235.93H71.485V239.864H69.4602V229.769H73.2495C74.0306 229.769 74.6959 229.909 75.2455 230.188C75.7951 230.458 76.2049 230.83 76.4749 231.302C76.7545 231.765 76.8943 232.286 76.8943 232.864C76.8943 233.529 76.7014 234.132 76.3158 234.672C75.9301 235.202 75.3564 235.569 74.5946 235.771L77.01 239.864H74.6669ZM71.485 234.412H73.1772C73.7268 234.412 74.1366 234.281 74.4066 234.021C74.6766 233.751 74.8116 233.38 74.8116 232.907C74.8116 232.445 74.6766 232.088 74.4066 231.837C74.1366 231.577 73.7268 231.447 73.1772 231.447H71.485V234.412ZM90.8194 239.864H88.7945L84.2097 232.936V239.864H82.1848V229.754H84.2097L88.7945 236.697V229.754H90.8194V239.864Z" fill="#353839"/>
<path d="M507.635 229.769V231.403H504.945V239.864H502.92V231.403H500.23V229.769H507.635ZM517.778 239.864L515.551 235.93H514.596V239.864H512.572V229.769H516.361C517.142 229.769 517.807 229.909 518.357 230.188C518.906 230.458 519.316 230.83 519.586 231.302C519.866 231.765 520.006 232.286 520.006 232.864C520.006 233.529 519.813 234.132 519.427 234.672C519.041 235.202 518.468 235.569 517.706 235.771L520.121 239.864H517.778ZM514.596 234.412H516.289C516.838 234.412 517.248 234.281 517.518 234.021C517.788 233.751 517.923 233.38 517.923 232.907C517.923 232.445 517.788 232.088 517.518 231.837C517.248 231.577 516.838 231.447 516.289 231.447H514.596V234.412ZM531.487 237.941H527.466L526.8 239.864H524.674L528.305 229.754H530.662L534.292 239.864H532.152L531.487 237.941ZM530.937 236.321L529.476 232.097L528.015 236.321H530.937ZM542.638 229.769C543.698 229.769 544.629 229.976 545.429 230.391C546.239 230.805 546.861 231.398 547.295 232.17C547.738 232.932 547.96 233.819 547.96 234.831C547.96 235.843 547.738 236.731 547.295 237.492C546.861 238.244 546.239 238.828 545.429 239.242C544.629 239.657 543.698 239.864 542.638 239.864H539.108V229.769H542.638ZM542.565 238.143C543.626 238.143 544.445 237.854 545.024 237.275C545.602 236.697 545.892 235.882 545.892 234.831C545.892 233.78 545.602 232.96 545.024 232.372C544.445 231.774 543.626 231.476 542.565 231.476H541.133V238.143H542.565ZM554.96 229.769V239.864H552.935V229.769H554.96ZM567.289 229.769V231.403H564.599V239.864H562.574V231.403H559.884V229.769H567.289ZM574.251 229.769V239.864H572.226V229.769H574.251ZM584.397 239.966C583.452 239.966 582.584 239.744 581.793 239.3C581.003 238.857 580.376 238.244 579.913 237.463C579.45 236.673 579.219 235.781 579.219 234.788C579.219 233.804 579.45 232.922 579.913 232.141C580.376 231.35 581.003 230.733 581.793 230.29C582.584 229.846 583.452 229.624 584.397 229.624C585.351 229.624 586.219 229.846 587 230.29C587.791 230.733 588.413 231.35 588.866 232.141C589.329 232.922 589.56 233.804 589.56 234.788C589.56 235.781 589.329 236.673 588.866 237.463C588.413 238.244 587.791 238.857 587 239.3C586.209 239.744 585.342 239.966 584.397 239.966ZM584.397 238.158C585.004 238.158 585.539 238.023 586.002 237.753C586.465 237.473 586.826 237.078 587.087 236.567C587.347 236.056 587.477 235.463 587.477 234.788C587.477 234.113 587.347 233.525 587.087 233.023C586.826 232.512 586.465 232.122 586.002 231.852C585.539 231.582 585.004 231.447 584.397 231.447C583.789 231.447 583.249 231.582 582.777 231.852C582.314 232.122 581.952 232.512 581.692 233.023C581.432 233.525 581.302 234.113 581.302 234.788C581.302 235.463 581.432 236.056 581.692 236.567C581.952 237.078 582.314 237.473 582.777 237.753C583.249 238.023 583.789 238.158 584.397 238.158ZM603.16 239.864H601.135L596.55 232.936V239.864H594.526V229.754H596.55L601.135 236.697V229.754H603.16V239.864ZM614.811 237.941H610.79L610.125 239.864H607.998L611.629 229.754H613.986L617.616 239.864H615.476L614.811 237.941ZM614.261 236.321L612.8 232.097L611.339 236.321H614.261ZM624.457 238.259H627.784V239.864H622.433V229.769H624.457V238.259Z" fill="#353839"/>
<g filter="url(#filter2_d)">
<path fill-rule="evenodd" clip-rule="evenodd" d="M227.191 295.613C235.845 295.613 242.86 288.598 242.86 279.944C242.86 271.291 235.845 264.275 227.191 264.275C218.538 264.275 211.522 271.291 211.522 279.944C211.522 288.598 218.538 295.613 227.191 295.613Z" fill="#51A9FF"/>
</g>
<path fill-rule="evenodd" clip-rule="evenodd" d="M12.1963 393.24C12.1963 389.911 14.8944 387.213 18.2227 387.213H620.682C624.01 387.213 626.708 389.911 626.708 393.24C626.708 396.568 624.01 399.266 620.682 399.266H18.2227C14.8944 399.266 12.1963 396.568 12.1963 393.24Z" fill="#F1F4F7"/>
<path d="M12.7025 346.892C12.7025 345.899 12.9243 345.012 13.3678 344.231C13.821 343.44 14.4333 342.828 15.2047 342.394C15.9857 341.95 16.8583 341.729 17.8225 341.729C18.9506 341.729 19.939 342.018 20.7875 342.596C21.636 343.175 22.229 343.975 22.5665 344.997H20.2379C20.0065 344.515 19.6786 344.154 19.2544 343.913C18.8398 343.671 18.3576 343.551 17.808 343.551C17.2199 343.551 16.6944 343.691 16.2315 343.97C15.7784 344.24 15.4216 344.626 15.1613 345.127C14.9106 345.629 14.7852 346.217 14.7852 346.892C14.7852 347.557 14.9106 348.145 15.1613 348.656C15.4216 349.158 15.7784 349.548 16.2315 349.828C16.6944 350.098 17.2199 350.233 17.808 350.233C18.3576 350.233 18.8398 350.112 19.2544 349.871C19.6786 349.621 20.0065 349.254 20.2379 348.772H22.5665C22.229 349.804 21.636 350.609 20.7875 351.188C19.9486 351.756 18.9603 352.041 17.8225 352.041C16.8583 352.041 15.9857 351.824 15.2047 351.39C14.4333 350.946 13.821 350.334 13.3678 349.553C12.9243 348.772 12.7025 347.885 12.7025 346.892ZM32.4412 352.055C31.4962 352.055 30.6285 351.834 29.8378 351.39C29.0471 350.946 28.4204 350.334 27.9576 349.553C27.4947 348.763 27.2633 347.871 27.2633 346.877C27.2633 345.894 27.4947 345.012 27.9576 344.231C28.4204 343.44 29.0471 342.823 29.8378 342.379C30.6285 341.936 31.4962 341.714 32.4412 341.714C33.3958 341.714 34.2636 341.936 35.0446 342.379C35.8352 342.823 36.4572 343.44 36.9103 344.231C37.3732 345.012 37.6046 345.894 37.6046 346.877C37.6046 347.871 37.3732 348.763 36.9103 349.553C36.4572 350.334 35.8352 350.946 35.0446 351.39C34.2539 351.834 33.3861 352.055 32.4412 352.055ZM32.4412 350.247C33.0486 350.247 33.5838 350.112 34.0466 349.842C34.5094 349.563 34.871 349.168 35.1314 348.656C35.3917 348.145 35.5219 347.552 35.5219 346.877C35.5219 346.203 35.3917 345.614 35.1314 345.113C34.871 344.602 34.5094 344.211 34.0466 343.941C33.5838 343.671 33.0486 343.536 32.4412 343.536C31.8337 343.536 31.2938 343.671 30.8213 343.941C30.3585 344.211 29.9969 344.602 29.7366 345.113C29.4762 345.614 29.346 346.203 29.346 346.877C29.346 347.552 29.4762 348.145 29.7366 348.656C29.9969 349.168 30.3585 349.563 30.8213 349.842C31.2938 350.112 31.8337 350.247 32.4412 350.247ZM44.595 350.349H47.9216V351.954H42.5701V341.859H44.595V350.349ZM54.6926 350.349H58.0191V351.954H52.6677V341.859H54.6926V350.349ZM68.9555 350.03H64.9347L64.2694 351.954H62.1433L65.7736 341.844H68.1311L71.7614 351.954H69.6208L68.9555 350.03ZM68.4059 348.411L66.9451 344.187L65.4843 348.411H68.4059ZM82.3049 346.776C82.8738 346.882 83.3415 347.167 83.7079 347.63C84.0743 348.092 84.2575 348.623 84.2575 349.221C84.2575 349.761 84.1225 350.238 83.8525 350.652C83.5922 351.057 83.2113 351.376 82.7099 351.607C82.2085 351.838 81.6155 351.954 80.9309 351.954H76.5775V341.859H80.7429C81.4275 341.859 82.0157 341.97 82.5074 342.191C83.0088 342.413 83.3849 342.722 83.6356 343.117C83.8959 343.512 84.0261 343.961 84.0261 344.462C84.0261 345.05 83.867 345.542 83.5488 345.937C83.2402 346.333 82.8256 346.612 82.3049 346.776ZM78.6023 346.024H80.4536C80.9358 346.024 81.307 345.918 81.5673 345.706C81.8277 345.484 81.9578 345.171 81.9578 344.766C81.9578 344.361 81.8277 344.048 81.5673 343.826C81.307 343.604 80.9358 343.493 80.4536 343.493H78.6023V346.024ZM80.6417 350.305C81.1334 350.305 81.5143 350.19 81.7843 349.958C82.0639 349.727 82.2037 349.399 82.2037 348.975C82.2037 348.541 82.0591 348.203 81.7698 347.962C81.4805 347.712 81.09 347.586 80.5983 347.586H78.6023V350.305H80.6417ZM94.0165 352.055C93.0716 352.055 92.2038 351.834 91.4131 351.39C90.6225 350.946 89.9957 350.334 89.5329 349.553C89.0701 348.763 88.8387 347.871 88.8387 346.877C88.8387 345.894 89.0701 345.012 89.5329 344.231C89.9957 343.44 90.6225 342.823 91.4131 342.379C92.2038 341.936 93.0716 341.714 94.0165 341.714C94.9711 341.714 95.8389 341.936 96.6199 342.379C97.4106 342.823 98.0325 343.44 98.4857 344.231C98.9485 345.012 99.1799 345.894 99.1799 346.877C99.1799 347.871 98.9485 348.763 98.4857 349.553C98.0325 350.334 97.4106 350.946 96.6199 351.39C95.8292 351.834 94.9614 352.055 94.0165 352.055ZM94.0165 350.247C94.624 350.247 95.1591 350.112 95.6219 349.842C96.0848 349.563 96.4463 349.168 96.7067 348.656C96.967 348.145 97.0972 347.552 97.0972 346.877C97.0972 346.203 96.967 345.614 96.7067 345.113C96.4463 344.602 96.0848 344.211 95.6219 343.941C95.1591 343.671 94.624 343.536 94.0165 343.536C93.409 343.536 92.8691 343.671 92.3966 343.941C91.9338 344.211 91.5722 344.602 91.3119 345.113C91.0515 345.614 90.9214 346.203 90.9214 346.877C90.9214 347.552 91.0515 348.145 91.3119 348.656C91.5722 349.168 91.9338 349.563 92.3966 349.842C92.8691 350.112 93.409 350.247 94.0165 350.247ZM109.352 351.954L107.125 348.02H106.17V351.954H104.145V341.859H107.935C108.716 341.859 109.381 341.999 109.931 342.278C110.48 342.548 110.89 342.919 111.16 343.392C111.44 343.855 111.58 344.375 111.58 344.954C111.58 345.619 111.387 346.222 111.001 346.762C110.615 347.292 110.042 347.659 109.28 347.861L111.695 351.954H109.352ZM106.17 346.501H107.863C108.412 346.501 108.822 346.371 109.092 346.111C109.362 345.841 109.497 345.47 109.497 344.997C109.497 344.534 109.362 344.178 109.092 343.927C108.822 343.667 108.412 343.536 107.863 343.536H106.17V346.501ZM123.06 350.03H119.04L118.374 351.954H116.248L119.878 341.844H122.236L125.866 351.954H123.726L123.06 350.03ZM122.511 348.411L121.05 344.187L119.589 348.411H122.511ZM137.552 341.859V343.493H134.862V351.954H132.837V343.493H130.147V341.859H137.552ZM144.514 341.859V351.954H142.489V341.859H144.514ZM159.042 341.859L155.339 351.954H152.881L149.178 341.859H151.348L154.124 349.886L156.887 341.859H159.042ZM165.74 343.493V346.024H169.139V347.63H165.74V350.305H169.573V351.954H163.715V341.844H169.573V343.493H165.74Z" fill="#353839"/>
<path d="M476.972 350.03H472.951L472.286 351.954H470.16L473.79 341.844H476.148L479.778 351.954H477.637L476.972 350.03ZM476.422 348.411L474.962 344.187L473.501 348.411H476.422ZM486.59 341.859V348.107C486.59 348.791 486.768 349.317 487.125 349.683C487.482 350.04 487.983 350.219 488.629 350.219C489.285 350.219 489.791 350.04 490.148 349.683C490.505 349.317 490.683 348.791 490.683 348.107V341.859H492.722V348.092C492.722 348.951 492.534 349.679 492.158 350.276C491.792 350.865 491.295 351.308 490.669 351.607C490.051 351.906 489.362 352.055 488.6 352.055C487.848 352.055 487.164 351.906 486.547 351.607C485.939 351.308 485.457 350.865 485.1 350.276C484.743 349.679 484.565 348.951 484.565 348.092V341.859H486.59ZM505.008 341.859V343.493H502.318V351.954H500.293V343.493H497.603V341.859H505.008ZM518.319 341.859V351.954H516.294V347.659H511.969V351.954H509.944V341.859H511.969V346.01H516.294V341.859H518.319ZM528.457 352.055C527.512 352.055 526.644 351.834 525.854 351.39C525.063 350.946 524.436 350.334 523.973 349.553C523.51 348.763 523.279 347.871 523.279 346.877C523.279 345.894 523.51 345.012 523.973 344.231C524.436 343.44 525.063 342.823 525.854 342.379C526.644 341.936 527.512 341.714 528.457 341.714C529.411 341.714 530.279 341.936 531.06 342.379C531.851 342.823 532.473 343.44 532.926 344.231C533.389 345.012 533.62 345.894 533.62 346.877C533.62 347.871 533.389 348.763 532.926 349.553C532.473 350.334 531.851 350.946 531.06 351.39C530.27 351.834 529.402 352.055 528.457 352.055ZM528.457 350.247C529.064 350.247 529.6 350.112 530.062 349.842C530.525 349.563 530.887 349.168 531.147 348.656C531.407 348.145 531.538 347.552 531.538 346.877C531.538 346.203 531.407 345.614 531.147 345.113C530.887 344.602 530.525 344.211 530.062 343.941C529.6 343.671 529.064 343.536 528.457 343.536C527.849 343.536 527.309 343.671 526.837 343.941C526.374 344.211 526.013 344.602 525.752 345.113C525.492 345.614 525.362 346.203 525.362 346.877C525.362 347.552 525.492 348.145 525.752 348.656C526.013 349.168 526.374 349.563 526.837 349.842C527.309 350.112 527.849 350.247 528.457 350.247ZM543.793 351.954L541.565 348.02H540.611V351.954H538.586V341.859H542.375C543.156 341.859 543.822 341.999 544.371 342.278C544.921 342.548 545.331 342.919 545.601 343.392C545.88 343.855 546.02 344.375 546.02 344.954C546.02 345.619 545.827 346.222 545.441 346.762C545.056 347.292 544.482 347.659 543.72 347.861L546.136 351.954H543.793ZM540.611 346.501H542.303C542.853 346.501 543.262 346.371 543.532 346.111C543.802 345.841 543.937 345.47 543.937 344.997C543.937 344.534 543.802 344.178 543.532 343.927C543.262 343.667 542.853 343.536 542.303 343.536H540.611V346.501ZM553.335 341.859V351.954H551.311V341.859H553.335ZM565.665 341.859V343.493H562.975V351.954H560.95V343.493H558.26V341.859H565.665ZM576.792 350.03H572.771L572.106 351.954H569.98L573.61 341.844H575.968L579.598 351.954H577.457L576.792 350.03ZM576.242 348.411L574.782 344.187L573.321 348.411H576.242ZM589.621 351.954L587.393 348.02H586.439V351.954H584.414V341.859H588.203C588.984 341.859 589.65 341.999 590.199 342.278C590.749 342.548 591.159 342.919 591.429 343.392C591.708 343.855 591.848 344.375 591.848 344.954C591.848 345.619 591.655 346.222 591.27 346.762C590.884 347.292 590.31 347.659 589.548 347.861L591.964 351.954H589.621ZM586.439 346.501H588.131C588.681 346.501 589.09 346.371 589.36 346.111C589.63 345.841 589.765 345.47 589.765 344.997C589.765 344.534 589.63 344.178 589.36 343.927C589.09 343.667 588.681 343.536 588.131 343.536H586.439V346.501ZM599.163 341.859V351.954H597.139V341.859H599.163ZM610.813 350.03H606.793L606.127 351.954H604.001L607.632 341.844H609.989L613.619 351.954H611.479L610.813 350.03ZM610.264 348.411L608.803 344.187L607.342 348.411H610.264ZM627.07 351.954H625.045L620.46 345.026V351.954H618.435V341.844H620.46L625.045 348.787V341.844H627.07V351.954Z" fill="#353839"/>
<g filter="url(#filter3_d)">
<path fill-rule="evenodd" clip-rule="evenodd" d="M475.023 407.705C483.676 407.705 490.692 400.689 490.692 392.036C490.692 383.382 483.676 376.367 475.023 376.367C466.369 376.367 459.354 383.382 459.354 392.036C459.354 400.689 466.369 407.705 475.023 407.705Z" fill="#51A9FF"/>
</g>
<defs>
<filter id="filter0_d" x="93.4047" y="37.6847" width="50.6224" height="50.6224" filterUnits="userSpaceOnUse" color-interpolation-filters="sRGB">
<feFlood flood-opacity="0" result="BackgroundImageFix"/>
<feColorMatrix in="SourceAlpha" type="matrix" values="0 0 0 0 0 0 0 0 0 0 0 0 0 0 0 0 0 0 127 0"/>
<feOffset dy="7.23164"/>
<feGaussianBlur stdDeviation="4.82109"/>
<feColorMatrix type="matrix" values="0 0 0 0 0 0 0 0 0 0 0 0 0 0 0 0 0 0 0.0822294 0"/>
<feBlend mode="normal" in2="BackgroundImageFix" result="effect1_dropShadow"/>
<feBlend mode="normal" in="SourceGraphic" in2="effect1_dropShadow" result="shape"/>
</filter>
<filter id="filter1_d" x="0.773831" y="149.775" width="50.6224" height="50.6224" filterUnits="userSpaceOnUse" color-interpolation-filters="sRGB">
<feFlood flood-opacity="0" result="BackgroundImageFix"/>
<feColorMatrix in="SourceAlpha" type="matrix" values="0 0 0 0 0 0 0 0 0 0 0 0 0 0 0 0 0 0 127 0"/>
<feOffset dy="7.23164"/>
<feGaussianBlur stdDeviation="4.82109"/>
<feColorMatrix type="matrix" values="0 0 0 0 0 0 0 0 0 0 0 0 0 0 0 0 0 0 0.0822294 0"/>
<feBlend mode="normal" in2="BackgroundImageFix" result="effect1_dropShadow"/>
<feBlend mode="normal" in="SourceGraphic" in2="effect1_dropShadow" result="shape"/>
</filter>
<filter id="filter2_d" x="201.88" y="261.865" width="50.6224" height="50.6224" filterUnits="userSpaceOnUse" color-interpolation-filters="sRGB">
<feFlood flood-opacity="0" result="BackgroundImageFix"/>
<feColorMatrix in="SourceAlpha" type="matrix" values="0 0 0 0 0 0 0 0 0 0 0 0 0 0 0 0 0 0 127 0"/>
<feOffset dy="7.23164"/>
<feGaussianBlur stdDeviation="4.82109"/>
<feColorMatrix type="matrix" values="0 0 0 0 0 0 0 0 0 0 0 0 0 0 0 0 0 0 0.0822294 0"/>
<feBlend mode="normal" in2="BackgroundImageFix" result="effect1_dropShadow"/>
<feBlend mode="normal" in="SourceGraphic" in2="effect1_dropShadow" result="shape"/>
</filter>
<filter id="filter3_d" x="449.711" y="373.956" width="50.6224" height="50.6224" filterUnits="userSpaceOnUse" color-interpolation-filters="sRGB">
<feFlood flood-opacity="0" result="BackgroundImageFix"/>
<feColorMatrix in="SourceAlpha" type="matrix" values="0 0 0 0 0 0 0 0 0 0 0 0 0 0 0 0 0 0 127 0"/>
<feOffset dy="7.23164"/>
<feGaussianBlur stdDeviation="4.82109"/>
<feColorMatrix type="matrix" values="0 0 0 0 0 0 0 0 0 0 0 0 0 0 0 0 0 0 0.0822294 0"/>
<feBlend mode="normal" in2="BackgroundImageFix" result="effect1_dropShadow"/>
<feBlend mode="normal" in="SourceGraphic" in2="effect1_dropShadow" result="shape"/>
</filter>
</defs>
</svg>
