<svg width="3357" height="1213" viewBox="0 0 3357 1213" fill="none" xmlns="http://www.w3.org/2000/svg">
<rect width="1680.24" height="1212.8" fill="#6617BA"/>
<path d="M2413.07 496.093C2473.7 496.093 2522.86 445.555 2522.86 383.213L2486.37 383.213C2486.37 424.838 2453.55 458.582 2413.07 458.582H2393.79C2333.16 458.582 2284.01 509.121 2284.01 571.463H2320.49C2320.49 529.837 2353.31 496.093 2393.79 496.093H2413.07Z" fill="#9F72FF"/>
<path fill-rule="evenodd" clip-rule="evenodd" d="M2559.27 383.213C2559.27 466.387 2492.27 533.813 2409.61 533.813L2391.14 533.813C2370.35 533.813 2353.49 550.669 2353.49 571.463V571.463L2409.61 571.463C2512.93 571.463 2596.69 487.181 2596.69 383.213L2559.27 383.213Z" fill="#65D1FF"/>
<path fill-rule="evenodd" clip-rule="evenodd" d="M2247.6 571.463C2247.6 488.289 2314.6 420.863 2397.25 420.863L2415.72 420.863C2436.52 420.863 2453.37 404.006 2453.37 383.213V383.213L2397.25 383.213C2293.94 383.213 2210.18 467.495 2210.18 571.463L2247.6 571.463Z" fill="#FF61B6"/>
<path d="M2091.63 698.422C2079.28 698.422 2067.91 702.413 2057.79 710.644V702.163H2023.44V821.64H2057.79V744.816C2065.94 734.838 2074.59 729.85 2083.73 729.85C2099.79 729.85 2109.17 740.076 2109.17 759.033V821.64H2143.52V756.04C2143.52 738.58 2138.82 724.612 2129.19 714.136C2119.8 703.66 2107.2 698.422 2091.63 698.422Z" fill="white"/>
<path d="M2298.08 702.163H2263.73V709.147C2254.1 702.912 2242.73 699.669 2230.13 699.669C2213.83 699.669 2199.99 705.655 2188.38 717.877C2176.77 729.85 2171.09 744.566 2171.09 762.026C2171.09 779.237 2176.77 793.953 2188.38 806.175C2199.99 818.148 2213.83 824.134 2230.13 824.134C2242.73 824.134 2254.1 820.891 2263.73 814.656V821.64H2298.08V702.163ZM2235.82 794.701C2226.92 794.701 2219.51 791.459 2213.83 785.223C2208.14 778.738 2205.18 771.006 2205.18 762.026C2205.18 752.797 2208.14 745.065 2213.83 738.58C2219.51 732.095 2226.92 728.852 2235.82 728.852C2247.68 728.852 2257.06 733.591 2263.73 742.82V780.983C2256.82 790.212 2247.43 794.701 2235.82 794.701Z" fill="white"/>
<path d="M2419.45 790.212C2411.3 792.456 2404.63 793.454 2399.44 793.454C2385.61 793.454 2378.69 786.969 2378.69 773.749V731.346H2421.43V702.163H2378.69H2344.59H2319.64V731.346H2344.59V773.999C2344.59 804.928 2363.37 825.381 2392.03 825.381C2401.67 825.381 2412.29 823.635 2423.9 819.894L2419.45 790.212Z" fill="white"/>
<path d="M2504.31 699.669C2486.03 699.669 2470.96 705.655 2458.86 717.378C2446.75 729.102 2440.82 743.818 2440.82 762.026C2440.82 780.234 2446.75 795.45 2458.86 807.422C2470.96 819.395 2486.03 825.381 2504.31 825.381C2522.35 825.381 2537.42 819.395 2549.28 807.422C2561.39 795.45 2567.32 780.234 2567.32 762.026C2567.32 743.818 2561.39 729.102 2549.28 717.378C2537.42 705.655 2522.35 699.669 2504.31 699.669ZM2504.31 794.452C2486.53 794.452 2474.67 780.234 2474.67 762.026C2474.67 744.067 2486.53 730.598 2504.31 730.598C2521.86 730.598 2533.47 744.067 2533.47 762.026C2533.47 780.234 2521.86 794.452 2504.31 794.452Z" fill="white"/>
<path d="M2662.71 698.422C2650.35 698.422 2638.99 702.413 2628.86 710.644V702.163H2594.52V821.64H2628.86V744.816C2637.01 734.838 2645.66 729.85 2654.8 729.85C2670.86 729.85 2680.25 740.076 2680.25 759.033V821.64H2714.59V756.04C2714.59 738.58 2709.9 724.612 2700.26 714.136C2690.87 703.66 2678.27 698.422 2662.71 698.422Z" fill="white"/>
<path d="M2783.42 702.163H2749.08V821.64H2783.42V702.163Z" fill="white"/>
<rect x="1680.24" width="1676.03" height="1212.8" fill="#0F171F"/>
<path d="M2528 472.703C2585.22 472.703 2631.61 425.009 2631.61 366.176L2597.18 366.176C2597.18 405.459 2566.21 437.303 2528 437.303H2509.81C2452.59 437.303 2406.2 484.997 2406.2 543.831H2440.63C2440.63 504.548 2471.61 472.703 2509.81 472.703H2528Z" fill="#9F72FF"/>
<path fill-rule="evenodd" clip-rule="evenodd" d="M2665.98 366.177C2665.98 444.67 2602.74 508.301 2524.74 508.301L2507.31 508.301C2487.69 508.301 2471.78 524.209 2471.78 543.832V543.832L2524.74 543.832C2622.24 543.832 2701.29 464.293 2701.29 366.177L2665.98 366.177Z" fill="#65D1FF"/>
<path fill-rule="evenodd" clip-rule="evenodd" d="M2371.84 543.831C2371.84 465.338 2435.08 401.707 2513.08 401.707L2530.51 401.707C2550.13 401.707 2566.04 385.799 2566.04 366.176V366.176L2513.08 366.176C2415.57 366.176 2336.53 445.715 2336.53 543.831L2371.84 543.831Z" fill="#FF61B6"/>
<path d="M2224.66 663.645C2213 663.645 2202.27 667.411 2192.71 675.179V667.175H2160.3V779.928H2192.71V707.427C2200.41 698.012 2208.57 693.304 2217.2 693.304C2232.35 693.304 2241.21 702.955 2241.21 720.845V779.928H2273.62V718.02C2273.62 701.542 2269.19 688.361 2260.1 678.474C2251.24 668.588 2239.35 663.645 2224.66 663.645Z" fill="white"/>
<path d="M2419.48 667.175H2387.07V673.766C2377.98 667.882 2367.25 664.821 2355.36 664.821C2339.97 664.821 2326.92 670.471 2315.96 682.005C2305 693.304 2299.64 707.192 2299.64 723.669C2299.64 739.911 2305 753.799 2315.96 765.333C2326.92 776.632 2339.97 782.282 2355.36 782.282C2367.25 782.282 2377.98 779.221 2387.07 773.337V779.928H2419.48V667.175ZM2360.73 754.505C2352.33 754.505 2345.34 751.445 2339.97 745.561C2334.61 739.44 2331.81 732.143 2331.81 723.669C2331.81 714.96 2334.61 707.663 2339.97 701.542C2345.34 695.422 2352.33 692.362 2360.73 692.362C2371.92 692.362 2380.78 696.835 2387.07 705.544V741.559C2380.54 750.268 2371.68 754.505 2360.73 754.505Z" fill="white"/>
<path d="M2534.03 750.268C2526.33 752.387 2520.04 753.328 2515.14 753.328C2502.09 753.328 2495.56 747.208 2495.56 734.733V694.716H2535.89V667.175H2495.56H2463.38H2439.83V694.716H2463.38V734.968C2463.38 764.156 2481.1 783.459 2508.15 783.459C2517.24 783.459 2527.27 781.811 2538.23 778.28L2534.03 750.268Z" fill="white"/>
<path d="M2614.11 664.821C2596.86 664.821 2582.64 670.471 2571.21 681.534C2559.79 692.598 2554.19 706.486 2554.19 723.669C2554.19 740.853 2559.79 755.212 2571.21 766.51C2582.64 777.809 2596.86 783.459 2614.11 783.459C2631.13 783.459 2645.36 777.809 2656.55 766.51C2667.97 755.212 2673.57 740.853 2673.57 723.669C2673.57 706.486 2667.97 692.598 2656.55 681.534C2645.36 670.471 2631.13 664.821 2614.11 664.821ZM2614.11 754.27C2597.33 754.27 2586.13 740.853 2586.13 723.669C2586.13 706.721 2597.33 694.01 2614.11 694.01C2630.67 694.01 2641.63 706.721 2641.63 723.669C2641.63 740.853 2630.67 754.27 2614.11 754.27Z" fill="white"/>
<path d="M2763.59 663.645C2751.93 663.645 2741.21 667.411 2731.65 675.179V667.175H2699.24V779.928H2731.65V707.427C2739.34 698.012 2747.5 693.304 2756.13 693.304C2771.29 693.304 2780.15 702.955 2780.15 720.845V779.928H2812.56V718.02C2812.56 701.542 2808.13 688.361 2799.03 678.474C2790.17 668.588 2778.28 663.645 2763.59 663.645Z" fill="white"/>
<path d="M2877.51 667.175H2845.1V779.928H2877.51V667.175Z" fill="white"/>
<rect x="1680.24" y="1177.01" width="277.934" height="35.7945" fill="#0F171F"/>
<rect x="1958.17" y="1177.01" width="280.039" height="35.7945" fill="#430097"/>
<rect x="2236.1" y="1177.01" width="277.934" height="35.7945" fill="#B915A1"/>
<rect x="2514.04" y="1177.01" width="280.039" height="35.7945" fill="#FD7E40"/>
<rect x="2791.97" y="1177.01" width="280.039" height="35.7945" fill="#00B3E0"/>
<rect x="3072.01" y="1177.01" width="284.251" height="35.7945" fill="#DBE3EB"/>
<path fill-rule="evenodd" clip-rule="evenodd" d="M824.524 522.545C702.564 522.545 603.697 621.405 603.697 743.355L548.49 743.355C548.49 590.918 672.075 467.342 824.524 467.342L907.334 467.342C907.334 497.83 882.619 522.545 852.132 522.545H824.524ZM847.862 633.681C931.436 633.681 1010.04 560.564 1009.12 467.341H956.028C956.028 528.373 907.601 577.849 847.862 577.849L819.934 577.016C728.539 579.757 657.25 655.615 658.164 743.355L713.002 743.355C713.002 685.776 759.686 632.848 819.424 632.848L847.862 633.681ZM1063.59 467.338C1063.59 589.288 964.722 688.149 842.763 688.149H815.155C784.667 688.149 759.952 712.864 759.952 743.351L842.763 743.351C995.212 743.351 1118.8 619.776 1118.8 467.338L1063.59 467.338Z" fill="#F5F5F5"/>
<circle opacity="0.5" cx="824.504" cy="743.358" r="276.9" stroke="url(#paint0_linear)" stroke-width="1.88343"/>
<circle opacity="0.5" cx="824.506" cy="743.358" r="220.235" stroke="url(#paint1_linear)" stroke-width="1.88343"/>
<circle opacity="0.5" cx="824.503" cy="743.357" r="167.225" stroke="url(#paint2_linear)" stroke-width="1.88343"/>
<circle opacity="0.5" cx="824.505" cy="743.357" r="110.56" stroke="url(#paint3_linear)" stroke-width="1.88343"/>
<circle opacity="0.5" cx="842.784" cy="467.343" r="276.9" stroke="url(#paint4_linear)" stroke-width="1.88343"/>
<circle opacity="0.5" cx="842.784" cy="467.343" r="220.235" stroke="url(#paint5_linear)" stroke-width="1.88343"/>
<path opacity="0.5" d="M1010.01 467.344C1010.01 559.705 935.544 634.569 843.697 634.569C751.851 634.569 677.386 559.705 677.386 467.344C677.386 374.983 751.851 300.118 843.697 300.118C935.544 300.118 1010.01 374.983 1010.01 467.344Z" stroke="url(#paint6_linear)" stroke-width="1.88343"/>
<circle opacity="0.5" cx="844.612" cy="467.344" r="110.56" stroke="url(#paint7_linear)" stroke-width="1.88343"/>
<line opacity="0.5" x1="1228.47" y1="466.458" x2="449.785" y2="466.458" stroke="url(#paint8_linear)" stroke-width="1.88343"/>
<line opacity="0.5" x1="1228.47" y1="744.297" x2="449.785" y2="744.297" stroke="url(#paint9_linear)" stroke-width="1.88343"/>
<defs>
<linearGradient id="paint0_linear" x1="824.504" y1="465.517" x2="824.504" y2="1021.2" gradientUnits="userSpaceOnUse">
<stop stop-color="white"/>
<stop offset="1" stop-color="white" stop-opacity="0.3"/>
</linearGradient>
<linearGradient id="paint1_linear" x1="824.506" y1="522.182" x2="824.506" y2="964.534" gradientUnits="userSpaceOnUse">
<stop stop-color="white"/>
<stop offset="1" stop-color="white" stop-opacity="0.3"/>
</linearGradient>
<linearGradient id="paint2_linear" x1="824.503" y1="575.189" x2="824.503" y2="911.524" gradientUnits="userSpaceOnUse">
<stop stop-color="white"/>
<stop offset="1" stop-color="white" stop-opacity="0.3"/>
</linearGradient>
<linearGradient id="paint3_linear" x1="824.505" y1="631.854" x2="824.505" y2="854.859" gradientUnits="userSpaceOnUse">
<stop stop-color="white"/>
<stop offset="1" stop-color="white" stop-opacity="0.3"/>
</linearGradient>
<linearGradient id="paint4_linear" x1="842.784" y1="189.502" x2="842.784" y2="745.185" gradientUnits="userSpaceOnUse">
<stop stop-color="white"/>
<stop offset="1" stop-color="white" stop-opacity="0.3"/>
</linearGradient>
<linearGradient id="paint5_linear" x1="842.784" y1="246.167" x2="842.784" y2="688.52" gradientUnits="userSpaceOnUse">
<stop stop-color="white"/>
<stop offset="1" stop-color="white" stop-opacity="0.3"/>
</linearGradient>
<linearGradient id="paint6_linear" x1="843.697" y1="299.177" x2="843.697" y2="635.511" gradientUnits="userSpaceOnUse">
<stop stop-color="white"/>
<stop offset="1" stop-color="white" stop-opacity="0.3"/>
</linearGradient>
<linearGradient id="paint7_linear" x1="844.612" y1="355.842" x2="844.612" y2="578.846" gradientUnits="userSpaceOnUse">
<stop stop-color="white"/>
<stop offset="1" stop-color="white" stop-opacity="0.3"/>
</linearGradient>
<linearGradient id="paint8_linear" x1="839.128" y1="465.517" x2="839.128" y2="464.517" gradientUnits="userSpaceOnUse">
<stop stop-color="white"/>
<stop offset="1" stop-color="white" stop-opacity="0.3"/>
</linearGradient>
<linearGradient id="paint9_linear" x1="839.128" y1="743.355" x2="839.128" y2="742.355" gradientUnits="userSpaceOnUse">
<stop stop-color="white"/>
<stop offset="1" stop-color="white" stop-opacity="0.3"/>
</linearGradient>
</defs>
</svg>
