<svg width="1056" height="741" viewBox="0 0 1056 741" fill="none" xmlns="http://www.w3.org/2000/svg">
<rect x="313.65" y="442.711" width="171.415" height="180.863" fill="#C2C7CA"/>
<rect opacity="0.2" x="313.65" y="429.214" width="171.415" height="180.863" fill="url(#paint0_linear)"/>
<path opacity="0.3" d="M73.3984 390.071H240.765V411.668C240.765 415.396 237.743 418.417 234.016 418.417H80.1471C76.4199 418.417 73.3984 415.396 73.3984 411.668V390.071Z" fill="#C2C7CA"/>
<g opacity="0.6">
<path d="M485.066 112.88L423.039 49.9404H247.515V335.527L485.066 336.082V112.88Z" fill="#DDE1E3"/>
<path d="M485.066 107.979L423.039 49.9404H375.746V204.681H485.066V107.979Z" fill="#EDEDED"/>
<path d="M436.536 108.07H485.066V295.591H303.81C307.243 295.591 303.81 49.9404 303.81 49.9404H423.039V94.5728C423.039 102.027 429.082 108.07 436.536 108.07Z" fill="url(#paint1_linear)"/>
<path fill-rule="evenodd" clip-rule="evenodd" d="M437.685 180.764C432.069 176.118 424.449 172.092 415.038 168.799C406.618 165.853 396.929 163.544 386.446 161.944C389.565 166.868 392.592 171.986 395.51 177.28C395.95 178.075 396.381 178.87 396.811 179.665C419.905 184.963 435.159 194.099 435.159 204.484C435.159 213.202 424.411 221.039 407.304 226.464C402.73 212.234 396.071 196.941 387.776 181.9C377.07 162.476 364.874 145.5 352.512 132.806C338.208 118.125 325.084 110.68 313.504 110.68C308.825 110.68 304.504 111.862 300.655 114.19C295.542 117.28 289.055 123.781 287.186 137.199C286.153 144.615 286.631 153.54 288.615 163.725C290.385 172.827 293.319 182.758 297.232 193.06C299.749 187.752 302.476 182.431 305.403 177.123C305.834 176.341 306.268 175.563 306.705 174.788C299.548 151.208 299.478 132.82 308.06 127.629C309.658 126.663 311.485 126.199 313.501 126.199C320.572 126.196 329.996 131.975 340.128 141.916C330.624 153.193 321.401 166.798 313.077 181.9C300.983 203.839 292.295 226.333 288.615 245.247C286.631 255.431 286.153 264.354 287.186 271.772C289.055 285.187 295.542 291.691 300.655 294.781C304.504 297.109 308.829 298.292 313.501 298.292C325.081 298.292 338.205 290.846 352.509 276.165C357.605 270.934 362.67 264.971 367.617 258.414C361.994 258.782 356.256 258.969 350.426 258.969C349.54 258.969 348.653 258.962 347.77 258.955C334.802 273.857 322.326 282.772 313.501 282.772C311.485 282.772 309.658 282.308 308.06 281.343C300.852 276.983 299.749 263.311 303.815 245.08C317.873 248.049 333.839 249.659 350.426 249.659C374.614 249.659 397.557 246.289 415.038 240.173C424.449 236.879 432.069 232.85 437.685 228.204C447.843 219.8 449.973 210.667 449.973 204.484C449.973 198.304 447.843 189.172 437.685 180.764ZM307.993 230.131C312.139 217.545 318.176 203.682 325.907 189.659C333.648 175.617 342.099 163.22 350.442 153.163C358.773 163.217 367.218 175.637 374.946 189.659C382.686 203.696 388.704 217.558 392.85 230.151C380.371 232.683 365.888 234.14 350.426 234.14C334.949 234.14 320.479 232.667 307.993 230.131Z" fill="white"/>
</g>
<path opacity="0.4" d="M699.672 479.152H1054.65V740.999H699.672V479.152Z" fill="url(#paint2_linear)"/>
<rect x="699.672" y="444.06" width="296.94" height="21.5956" transform="rotate(90 699.672 444.06)" fill="#C0C6CA"/>
<rect x="678.076" y="444.06" width="296.94" height="193.011" transform="rotate(90 678.076 444.06)" fill="#9FA6AA"/>
<path d="M374.441 437.312H62.6543V741H374.441V437.312Z" fill="#A8AFB4"/>
<path d="M364.994 437.312V496.699H105.239L62.6553 449.19V437.312H364.994Z" fill="url(#paint3_linear)"/>
<path d="M42.4082 741L42.4082 611.426H123.499L217.873 714.545L236.769 741H42.4082Z" fill="url(#paint4_linear)"/>
<path d="M390.639 437.312H364.994V741H390.639V437.312Z" fill="#8A9398"/>
<path d="M390.639 442.71H364.994V515.595H390.639V442.71Z" fill="url(#paint5_linear)"/>
<path d="M124.28 610.077H0.513672V634.373C0.513672 638.101 3.53514 641.122 7.2623 641.122H117.531C121.258 641.122 124.28 638.101 124.28 634.373V610.077Z" fill="#A8AFB3"/>
<path d="M124.742 610.077H95.0475L91.0719 628.366C89.4533 635.811 82.8642 641.122 75.2448 641.122H117.993C121.72 641.122 124.742 638.101 124.742 634.373V610.077Z" fill="#899296"/>
<path fill-rule="evenodd" clip-rule="evenodd" d="M8.58594 641.12H116.208L103.858 732.813C103.227 737.501 99.2254 741 94.4948 741H30.2996C25.569 741 21.5675 737.501 20.9361 732.813L8.58594 641.12Z" fill="#899296"/>
<path fill-rule="evenodd" clip-rule="evenodd" d="M89.5691 641.12H116.208L102.755 741H76.0273L89.5691 641.12Z" fill="url(#paint6_linear)"/>
<path fill-rule="evenodd" clip-rule="evenodd" d="M47.8066 543.939C47.8066 527.54 58.952 514.246 72.7217 514.246H97.7465V543.939C97.7465 560.339 86.6012 573.633 72.8314 573.633H47.8066V543.939Z" fill="#6AA36A"/>
<path fill-rule="evenodd" clip-rule="evenodd" d="M0.566406 535.842H35.539C54.2413 535.842 69.4025 552.455 69.4025 572.959V610.077H34.4299C15.7276 610.077 0.566406 593.463 0.566406 572.959V535.842Z" fill="#67BB65"/>
<path fill-rule="evenodd" clip-rule="evenodd" d="M69.123 571.181C69.123 555.391 81.8855 542.59 97.6139 542.59H103.426H125.767C125.767 542.59 126.497 553.182 125.767 562.366C125.038 571.55 124.475 574.411 124.475 574.411C122.484 590.063 108.36 605.261 92.9382 608.33C92.9382 608.33 85.5632 609.854 84.1924 610.008C82.8216 610.162 69.123 610.008 69.123 610.008V571.181Z" fill="#65AC65"/>
<path d="M362.294 418.415H37.0098V444.06H362.294V418.415Z" fill="#DDE1E3"/>
<path d="M485.119 418.415H354.195V444.06H485.119V418.415Z" fill="#A8AFB4"/>
<mask id="mask0" mask-type="alpha" maskUnits="userSpaceOnUse" x="595" y="49" width="321" height="396">
<path d="M915.682 49.9404H595.797V444.061H915.682V49.9404Z" fill="white"/>
</mask>
<g mask="url(#mask0)">
<path d="M915.682 49.9404H595.797V444.061H915.682V49.9404Z" fill="#E1F1F9"/>
<path d="M627.516 149.82C662.179 149.82 690.278 121.721 690.278 87.0586C690.278 52.3963 662.179 24.2969 627.516 24.2969C592.854 24.2969 564.754 52.3963 564.754 87.0586C564.754 121.721 592.854 149.82 627.516 149.82Z" fill="#FFD5A3"/>
<path fill-rule="evenodd" clip-rule="evenodd" d="M914.332 325.285H648.436C639.724 325.43 632.354 320.255 632.239 314.488V226.756H526.96V261.849C527.447 268.199 520.077 273.374 510.764 273.996V487.252H1016.91V325.285H914.332Z" fill="#A4B4BE"/>
<path fill-rule="evenodd" clip-rule="evenodd" d="M623.464 366.688C623.464 399.106 597.149 425.384 564.692 425.384C532.232 425.384 505.92 399.106 505.92 366.688C505.92 334.273 532.232 307.993 564.692 307.993C597.149 307.993 623.464 334.273 623.464 366.688Z" fill="#67B964"/>
<path fill-rule="evenodd" clip-rule="evenodd" d="M664.908 386.933C664.908 403.839 651.186 417.544 634.258 417.544C617.33 417.544 603.607 403.839 603.607 386.933C603.607 370.027 617.33 356.322 634.258 356.322C651.186 356.322 664.908 370.027 664.908 386.933Z" fill="#67B964"/>
<path fill-rule="evenodd" clip-rule="evenodd" d="M886.098 302.538L956.021 457.977H805.607L886.098 302.538Z" fill="#71BD73"/>
<path fill-rule="evenodd" clip-rule="evenodd" d="M834.566 400.355L869.792 458.909H764.514L799.74 400.355H778.486L817.153 336.084L855.818 400.355H834.566Z" fill="#5F925F"/>
<path fill-rule="evenodd" clip-rule="evenodd" d="M955.012 170.903C955.066 169.957 955.093 169.004 955.093 168.044C955.093 140.835 933.092 118.778 905.952 118.778C883.385 118.778 864.371 134.028 858.604 154.809C855.588 153.862 852.379 153.351 849.051 153.351C831.434 153.351 817.152 167.668 817.152 185.33C817.152 202.992 831.434 217.31 849.051 217.31H958.542C971.397 217.31 981.819 206.862 981.819 193.973C981.819 181.085 971.397 170.637 958.542 170.637C957.342 170.637 956.163 170.728 955.012 170.903Z" fill="white"/>
<circle cx="766.536" cy="188.287" r="26.3197" fill="white"/>
</g>
<path fill-rule="evenodd" clip-rule="evenodd" d="M253.193 368.476C249.282 371 245.844 377.329 244.613 385.107C242.922 395.783 246.027 405.146 251.549 406.021C257.071 406.896 262.918 398.95 264.609 388.274C266.018 379.382 264.098 371.4 260.227 368.476H284.742L278.611 418.417H240.348C236.295 418.417 233.156 414.869 233.65 410.846L238.851 368.476H253.193Z" fill="#E5E5E5"/>
<path fill-rule="evenodd" clip-rule="evenodd" d="M262.64 368.476C258.729 371 255.291 377.329 254.059 385.107C252.368 395.783 255.474 405.146 260.996 406.021C266.518 406.896 272.365 398.95 274.056 388.274C275.464 379.382 273.545 371.4 269.673 368.476H294.189L288.058 418.417H245.451C236.534 418.417 229.628 410.612 230.715 401.761L234.801 368.476H262.64Z" fill="url(#paint7_linear)"/>
<rect x="301.557" y="411.667" width="52.6393" height="6.74863" fill="#C4C4C4"/>
<path d="M234.744 371.176L228.231 403.741C227.062 409.587 231.533 415.042 237.496 415.042H313.703" stroke="#DDE1E3" stroke-width="6.74863"/>
<g style="mix-blend-mode:multiply" opacity="0.6">
<path d="M528.256 49.9404H632.185V741.001L583.829 700.181C548.589 670.432 528.256 626.66 528.256 580.541V49.9404Z" fill="#CCC7E3"/>
</g>
<path opacity="0.6" d="M528.256 454.858H632.185V740.999L583.83 700.18C548.589 670.431 528.256 626.658 528.256 580.54V454.858Z" fill="#CCC7E3"/>
<path fill-rule="evenodd" clip-rule="evenodd" d="M655.524 535.137C655.524 534.372 655.706 531.525 656.07 526.597L635.891 533.977C648.98 535.516 655.524 535.903 655.524 535.137Z" fill="#5D6367"/>
<path fill-rule="evenodd" clip-rule="evenodd" d="M605.978 424.963C584.343 395.683 558.921 376.136 529.712 366.321C500.503 356.507 461.794 355.051 413.584 361.955L422.846 406.153L665.823 483.702L605.978 424.963Z" fill="#4B5D6C"/>
<g style="mix-blend-mode:multiply" opacity="0.6">
<path d="M595.742 523.693L678.076 550.688V740.999H630.933L595.742 710.169V523.693Z" fill="#CCC7E3"/>
</g>
<path fill-rule="evenodd" clip-rule="evenodd" d="M190.273 150.366C191.694 143.139 198.263 140.372 205.628 140.372H227.267V379.274H205.628C198.263 379.274 191.694 376.507 190.273 369.28C187.042 352.844 185.426 316.359 185.426 259.823C185.426 203.287 187.042 166.802 190.273 150.366Z" fill="#E5E5E5"/>
<mask id="mask1" mask-type="alpha" maskUnits="userSpaceOnUse" x="652" y="454" width="94" height="80">
<path d="M700.964 454.856H745.505L697.37 533.324H652.73L700.964 454.856Z" fill="white"/>
</mask>
<g mask="url(#mask1)">
<path d="M700.964 454.856H745.505L697.37 533.324H652.73L700.964 454.856Z" fill="#6A7B87"/>
<path fill-rule="evenodd" clip-rule="evenodd" d="M694.216 454.856H738.757L690.621 533.324H645.967L694.216 454.856Z" fill="#4B5D6C"/>
</g>
<mask id="mask2" mask-type="alpha" maskUnits="userSpaceOnUse" x="647" y="295" width="218" height="201">
<path d="M771.782 295.589H858.144C861.871 295.589 864.892 298.61 864.892 302.337C864.892 303.601 864.538 304.839 863.869 305.911L750.769 487.092C747.564 492.227 741.938 495.347 735.885 495.347H647.086L771.782 295.589Z" fill="white"/>
</mask>
<g mask="url(#mask2)">
<path d="M742.088 336.082H828.45C832.177 336.082 835.198 339.103 835.198 342.831C835.198 344.094 834.844 345.332 834.175 346.404L750.769 487.095C747.564 492.23 741.938 495.35 735.885 495.35H647.086L742.088 336.082Z" fill="#6A7B87"/>
<path fill-rule="evenodd" clip-rule="evenodd" d="M723.193 336.082H821.723L742.64 470.698C739.461 475.947 733.77 479.153 727.633 479.153H638.988L723.193 336.082Z" fill="#8796A3"/>
</g>
<path fill-rule="evenodd" clip-rule="evenodd" d="M740.162 706.236L630.929 668.842V685.345L740.162 722.739V706.236Z" fill="#566471"/>
<path d="M722.421 740.972C712.623 740.972 704.68 733.015 704.68 723.2C704.68 713.385 712.623 705.428 722.421 705.428C732.219 705.428 740.162 713.385 740.162 723.2C740.162 733.015 732.219 740.972 722.421 740.972Z" fill="#566471"/>
<path fill-rule="evenodd" clip-rule="evenodd" d="M508.01 706.239L617.243 668.845V685.347L508.01 722.741V706.239Z" fill="#566471"/>
<path d="M631.942 579.031H615.469V724.376H631.942V579.031Z" fill="#566471"/>
<path d="M598.441 573.633H647.071L643.103 608.007C642.395 614.139 637.202 618.767 631.029 618.767H615.815C609.817 618.767 604.715 614.391 603.802 608.462L598.441 573.633Z" fill="url(#paint8_linear)"/>
<path d="M631.439 596.2C631.439 593.324 633.771 590.992 636.647 590.992H662.702V601.408H636.647C633.771 601.408 631.439 599.076 631.439 596.2Z" fill="#A0A9B1"/>
<path d="M662.702 590.992C665.579 590.992 667.912 593.325 667.912 596.203V610.085C667.912 612.963 665.579 615.295 662.702 615.295C659.824 615.295 657.491 612.963 657.491 610.085V596.203C657.491 593.325 659.824 590.992 662.702 590.992Z" fill="#657581"/>
<path d="M657.492 610.085C657.492 607.209 659.823 604.878 662.699 604.878H688.758C691.633 604.878 693.965 607.209 693.965 610.085C693.965 612.961 691.633 615.292 688.758 615.292H662.699C659.823 615.292 657.492 612.961 657.492 610.085Z" fill="#A0A9B1"/>
<ellipse cx="688.753" cy="610.085" rx="5.21033" ry="5.20703" fill="#657581"/>
<path d="M624.087 740.972C633.885 740.972 641.828 733.015 641.828 723.2C641.828 713.385 633.885 705.429 624.087 705.429C614.289 705.429 606.346 713.385 606.346 723.2C606.346 733.015 614.289 740.972 624.087 740.972Z" fill="#566471"/>
<path d="M525.751 740.972C535.549 740.972 543.492 733.015 543.492 723.2C543.492 713.385 535.549 705.429 525.751 705.429C515.953 705.429 508.01 713.385 508.01 723.2C508.01 733.015 515.953 740.972 525.751 740.972Z" fill="#566471"/>
<mask id="mask3" mask-type="alpha" maskUnits="userSpaceOnUse" x="514" y="553" width="193" height="21">
<path d="M514.812 553.386H706.474C706.474 564.567 697.409 573.632 686.228 573.632H535.058C523.877 573.632 514.812 564.567 514.812 553.386V553.386Z" fill="white"/>
</mask>
<g mask="url(#mask3)">
<path d="M514.812 553.386H706.474C706.474 564.567 697.409 573.632 686.228 573.632H535.058C523.877 573.632 514.812 564.567 514.812 553.386V553.386Z" fill="#8796A3"/>
<path fill-rule="evenodd" clip-rule="evenodd" d="M575.551 553.386H767.212C767.212 564.567 758.148 573.632 746.966 573.632H595.797C584.615 573.632 575.551 564.567 575.551 553.386V553.386Z" fill="#6A7B87"/>
</g>
<mask id="mask4" mask-type="alpha" maskUnits="userSpaceOnUse" x="491" y="533" width="234" height="21">
<path d="M724.02 533.143H491.867V553.388H724.02V533.143Z" fill="white"/>
</mask>
<g mask="url(#mask4)">
<path d="M713.897 533.143H501.99C496.399 533.143 491.867 537.675 491.867 543.266C491.867 548.856 496.399 553.388 501.99 553.388H713.897C719.488 553.388 724.02 548.856 724.02 543.266C724.02 537.675 719.488 533.143 713.897 533.143Z" fill="#8796A3"/>
<path d="M713.897 533.143H566.777C561.186 533.143 556.654 537.675 556.654 543.266C556.654 548.856 561.186 553.388 566.777 553.388H713.897C719.488 553.388 724.02 548.856 724.02 543.266C724.02 537.675 719.488 533.143 713.897 533.143Z" fill="#6A7B87"/>
</g>
<path d="M197.574 151.17C197.574 145.206 202.409 140.372 208.372 140.372H363.591C369.554 140.372 374.388 145.206 374.388 151.17V336.082H197.574V151.17Z" fill="#6DC2DC"/>
<path d="M247.514 217.306C247.514 212.088 251.744 207.858 256.962 207.858H320.399C325.617 207.858 329.847 212.088 329.847 217.306V284.793C329.847 290.011 325.617 294.241 320.399 294.241H256.962C251.744 294.241 247.514 290.011 247.514 284.793V217.306Z" fill="#9AD8EB"/>
<path opacity="0.9" d="M300.953 232.954L286.993 246.913L278.095 238.015" stroke="white" stroke-width="8.09836"/>
<path d="M247.514 268.596H329.847V284.792C329.847 290.01 325.617 294.241 320.399 294.241H256.962C251.744 294.241 247.514 290.01 247.514 284.792V268.596Z" fill="white"/>
<path d="M197.574 336.084H374.388V368.476C374.388 374.439 369.554 379.273 363.591 379.273H208.372C202.409 379.273 197.574 374.439 197.574 368.476V336.084Z" fill="#D2D3D5"/>
<mask id="mask5" mask-type="alpha" maskUnits="userSpaceOnUse" x="113" y="367" width="58" height="52">
<path d="M170.633 367.127H113.944V415.305C113.944 417.023 115.734 418.417 117.931 418.417H166.647C168.848 418.417 170.633 417.018 170.633 415.305V367.127Z" fill="white"/>
</mask>
<g mask="url(#mask5)">
<path d="M170.633 367.127H115.294C114.549 367.127 113.944 367.731 113.944 368.477V415.305C113.944 417.023 115.734 418.417 117.931 418.417H166.647C168.848 418.417 170.633 417.018 170.633 415.305V367.127Z" fill="#EAA859"/>
<path opacity="0.912477" fill-rule="evenodd" clip-rule="evenodd" d="M182.105 367.126H125.417V415.304C125.417 417.022 127.207 418.416 129.403 418.416H178.119C180.321 418.416 182.105 417.017 182.105 415.304V367.126Z" fill="#FBB359"/>
</g>
<path fill-rule="evenodd" clip-rule="evenodd" d="M164.948 377.533V367.127H179.829C187.436 367.127 193.578 373.343 193.578 381.01V391.4C193.578 399.067 187.422 405.282 179.829 405.282H164.948V394.876H178.685C181.218 394.876 183.271 392.802 183.271 390.251V382.158C183.271 379.604 181.222 377.533 178.685 377.533H164.948Z" fill="#FBB359"/>
<g opacity="0.443614">
<g opacity="0.443614">
<path fill-rule="evenodd" clip-rule="evenodd" d="M169.566 334.282C169.798 334.282 170.026 334.291 170.252 334.309C170.155 334.298 170.057 334.289 169.959 334.282H177.298C181.08 334.066 184.076 331.33 184.076 327.983C184.076 324.637 181.08 321.9 177.298 321.696L169.34 321.684C165.347 321.684 162.11 318.864 162.11 315.386C162.11 311.907 158.872 309.087 154.879 309.087H121.121C117.128 309.087 113.891 311.907 113.891 315.386C113.891 318.864 117.128 321.684 121.121 321.684H147.196C151.189 321.684 154.427 324.504 154.427 327.983C154.427 331.28 151.52 333.985 147.817 334.259H137.26C133.266 334.259 130.029 337.102 130.029 340.581C130.029 344.059 133.266 346.879 137.26 346.879H155.331C159.114 346.664 162.11 343.927 162.11 340.581C162.232 337.084 165.524 334.282 169.566 334.282Z" fill="#5F5F5F"/>
<path d="M176.967 300.097C180.894 300.097 184.077 296.973 184.077 293.119C184.077 289.266 180.894 286.142 176.967 286.142C173.041 286.142 169.857 289.266 169.857 293.119C169.857 296.973 173.041 300.097 176.967 300.097Z" fill="#5F5F5F"/>
</g>
</g>
<path d="M808.378 339.457C848.364 334.002 876.091 289.505 858.898 259.659C841.705 229.813 805.94 226.044 805.94 226.044" stroke="url(#paint9_linear)" stroke-width="35.0929"/>
<path d="M799.604 236.201C773.96 195.709 718.058 196.102 697.025 223.379C675.992 250.655 693.651 280.067 693.651 280.067" stroke="url(#paint10_linear)" stroke-width="35.0929"/>
<path fill-rule="evenodd" clip-rule="evenodd" d="M570.04 453.508H587.586L538.192 533.886H520.211L570.04 453.508Z" fill="#6A7B87"/>
<path fill-rule="evenodd" clip-rule="evenodd" d="M653.96 470.422L632.549 523.417L321.802 397.867L343.213 344.872L598.495 446.084L604.569 436.636L653.96 470.422Z" fill="#6A7B88"/>
<path fill-rule="evenodd" clip-rule="evenodd" d="M653.96 470.422L632.549 523.417L355.491 411.666L343.213 344.872L598.495 446.084L604.569 436.636L653.96 470.422Z" fill="url(#paint11_linear)"/>
<path fill-rule="evenodd" clip-rule="evenodd" d="M691.886 497.216C679.338 520.551 660.882 532.632 636.521 533.46C599.978 534.701 564.119 527.212 528.311 480.064L660.196 472.405L691.886 497.216Z" fill="url(#paint12_linear)"/>
<path fill-rule="evenodd" clip-rule="evenodd" d="M736.225 308.551C723.911 294.876 713.17 282.093 705.746 264.546L666.073 286.492C679.08 311.741 688.054 331.834 701.022 341.48C713.99 351.126 728.4 338.386 736.225 308.551Z" fill="url(#paint13_radial)"/>
<path fill-rule="evenodd" clip-rule="evenodd" d="M760.389 323.776C772.187 324.374 781.055 324.465 786.995 324.05C792.934 323.634 801.89 322.297 813.862 320.037L821.751 364.304C793.954 370.134 772.223 371.059 756.559 367.079C740.895 363.099 742.171 348.664 760.389 323.776Z" fill="#78CBE5"/>
<path fill-rule="evenodd" clip-rule="evenodd" d="M734.143 305.826L760.178 322.734C777.683 334.102 782.658 357.508 771.29 375.012L691.898 497.266L602.472 439.192L681.864 316.938L734.143 305.826Z" fill="#78CBE5"/>
<path d="M763.301 369.146H775.986L691.628 497.371L665.309 479.824L726.31 388.877C734.581 376.545 748.453 369.146 763.301 369.146Z" fill="#6DC2DC"/>
<path fill-rule="evenodd" clip-rule="evenodd" d="M752.524 261.845L784.746 281.595L767.093 310.394C755.882 328.685 734.943 336.249 720.326 327.289L714.572 323.763L728.056 303.643C732.759 296.625 731.794 287.253 725.76 281.341L720.326 276.017L752.524 261.845Z" fill="url(#paint14_linear)"/>
<path fill-rule="evenodd" clip-rule="evenodd" d="M795.718 203.264L805.983 213.529C821.139 228.685 821.139 253.259 805.983 268.416L777.231 292.783C772.487 297.526 742.833 292.802 738.089 288.059L716.915 272.524C710.062 265.671 710.062 254.562 716.915 247.709L761.36 203.264C770.848 193.776 786.23 193.776 795.718 203.264Z" fill="#F5CE8D"/>
<path fill-rule="evenodd" clip-rule="evenodd" d="M796.803 170.631C782.455 172.873 778.831 183.753 778.015 190.804C777.556 194.767 779.455 198.476 782.296 201.276L809.368 227.956C812.53 231.118 812.53 236.246 809.368 239.409L802.641 246.136C801.586 247.19 801.586 248.899 802.641 249.953L805.949 253.261C807.53 254.843 807.53 257.407 805.949 258.988L779.896 285.041C773.965 290.972 764.349 290.972 758.418 285.041L754.468 281.09C750.489 277.111 749.763 270.92 752.715 266.129L755.161 262.159C757.778 257.91 757.143 252.422 753.625 248.883L734.735 229.879L716.698 247.785C709.821 254.612 709.781 265.722 716.608 272.599C716.646 272.637 716.684 272.675 716.723 272.713L736.438 292.47C739.224 295.261 743.005 296.83 746.948 296.83L771.81 296.83C775.716 296.83 779.465 295.291 782.243 292.546L826.65 248.684C837.192 238.142 837.192 221.05 826.65 210.508C825.078 208.936 823.505 207.364 821.933 205.792C805.721 189.579 796.803 184.128 796.803 170.631Z" fill="#8F775F"/>
<path d="M767.125 216.706L781.485 230.862L774.349 238.1C770.44 242.065 764.057 242.111 760.092 238.202V238.202C756.126 234.293 756.081 227.91 759.99 223.944L767.125 216.706Z" stroke="#5D6367" stroke-width="5.39891"/>
<path d="M753.715 205.155L759.889 210.616L751.199 219.43C748.123 222.55 743.123 222.658 739.915 219.673L739.543 219.327L753.715 205.155Z" stroke="#5D6367" stroke-width="5.39891"/>
<line x1="752.901" y1="201.874" x2="809.59" y2="257.212" stroke="#5D6367" stroke-width="5.39891"/>
<path fill-rule="evenodd" clip-rule="evenodd" d="M322.169 397.971L292.107 385.347L318.784 279.395H333.949L343.439 345.145L322.169 397.971Z" fill="#797E82"/>
<path fill-rule="evenodd" clip-rule="evenodd" d="M625.38 453.508H642.926L593.532 533.886H575.551L625.38 453.508Z" fill="#6A7B87"/>
<path fill-rule="evenodd" clip-rule="evenodd" d="M593.679 431.912H761.999C766.204 431.912 769.612 435.32 769.612 439.525C769.612 440.882 769.249 442.215 768.561 443.385C764.38 450.493 756.749 454.857 748.502 454.857H575.363C575.363 454.857 583.479 441.378 586.699 435.904C588.154 433.431 590.809 431.912 593.679 431.912Z" fill="#4B5D6C"/>
<g opacity="0.5">
<path fill-rule="evenodd" clip-rule="evenodd" d="M587.645 0H930.475L922.214 20.2459V36.4426H595.906V20.2459L587.645 0Z" fill="#D1D4D3"/>
<rect x="595.906" y="18.8965" width="326.309" height="17.5464" fill="#C2C7CA"/>
</g>
<path fill-rule="evenodd" clip-rule="evenodd" d="M381.812 362.869L340.646 309.087L328.498 319.564L355.493 408.968L391.935 398.822L381.812 362.869Z" fill="#5D6367"/>
<path d="M873.787 162.027V49.9404H954.163V302.885L998.913 340.011C1035.08 370.013 1056 414.561 1056 461.548V732.903L1007.22 689.59C973.475 659.621 954.163 616.643 954.163 571.509V302.885L930.874 283.564C894.711 253.563 873.787 209.015 873.787 162.027Z" fill="#CCC7E3"/>
<g style="mix-blend-mode:multiply" opacity="0.6">
<path d="M954.162 49.9414H1007.36V689.713L1001.01 683.426C971.03 653.764 954.162 613.344 954.162 571.172V49.9414Z" fill="#CCC7E3"/>
</g>
<rect x="922.377" y="669.465" width="85.0328" height="71.5355" fill="#7A8388"/>
<path d="M811.699 669.465H922.377V741H811.699V669.465Z" fill="#A8AFB4"/>
<path d="M958.82 612.776H1007.41V669.464H958.82V612.776Z" fill="#8A9398"/>
<path d="M1007.41 689.71H1056V741.001H1007.41V689.71Z" fill="#8A9398"/>
<rect x="889.984" y="612.776" width="68.8361" height="56.6875" fill="#989FA4"/>
<path d="M381.812 366.452C390.586 363.752 420.145 357.679 468.195 357.679C504.358 357.679 535.681 387.373 511.386 411.668C470.22 396.821 424.329 407.619 396.659 415.042L381.812 366.452Z" fill="#4B5D6C"/>
<ellipse opacity="0.8" cx="359.541" cy="155.219" rx="4.04919" ry="4.0498" fill="#A2E0F3"/>
<ellipse opacity="0.5" cx="347.393" cy="155.219" rx="4.04916" ry="4.0498" fill="#57A0B7"/>
<path d="M880.612 395.911L880.256 396.501C878.564 399.311 875.865 401.399 872.687 402.356L869.738 403.244C875.584 404.679 880.186 409.104 881.772 414.815L882.86 418.733C885.021 426.515 892.216 431.913 900.427 431.913C906.664 431.913 912.467 428.777 915.807 423.602L930.476 400.869L929.271 401.427C920.378 405.541 909.81 403.701 902.898 396.835L899.644 393.603C897.369 391.343 894.269 390.071 891.034 390.071C886.753 390.071 882.791 392.291 880.612 395.911Z" fill="#D1EEF7"/>
<path d="M890.408 428.962C893.309 430.84 896.767 431.913 900.427 431.913C906.664 431.913 912.467 428.777 915.806 423.602L930.476 400.869L929.271 401.426C924.233 403.757 918.658 404.177 913.514 402.855C908.951 411.429 900.954 422.651 890.408 428.962Z" fill="#C0DEE8"/>
<defs>
<linearGradient id="paint0_linear" x1="477.666" y1="380.624" x2="477.666" y2="623.575" gradientUnits="userSpaceOnUse">
<stop stop-color="#8A9398"/>
<stop offset="1" stop-color="#8A9398" stop-opacity="0"/>
</linearGradient>
<linearGradient id="paint1_linear" x1="380.641" y1="158.222" x2="490.563" y2="64.5514" gradientUnits="userSpaceOnUse">
<stop stop-color="#DDE1E3"/>
<stop offset="1" stop-color="#C9CCCD"/>
</linearGradient>
<linearGradient id="paint2_linear" x1="601.142" y1="830.081" x2="891.333" y2="583.081" gradientUnits="userSpaceOnUse">
<stop offset="0.0485089" stop-color="#8A9398"/>
<stop offset="1" stop-color="#8A9398" stop-opacity="0"/>
</linearGradient>
<linearGradient id="paint3_linear" x1="115.667" y1="416.527" x2="115.667" y2="496.699" gradientUnits="userSpaceOnUse">
<stop stop-color="#8A9398"/>
<stop offset="1" stop-color="#8A9398" stop-opacity="0"/>
</linearGradient>
<linearGradient id="paint4_linear" x1="76.1514" y1="622.224" x2="198.977" y2="688.361" gradientUnits="userSpaceOnUse">
<stop stop-color="#8A9398"/>
<stop offset="1" stop-color="#8A9398" stop-opacity="0"/>
</linearGradient>
<linearGradient id="paint5_linear" x1="364.994" y1="433.846" x2="364.994" y2="515.595" gradientUnits="userSpaceOnUse">
<stop stop-color="#5F676B"/>
<stop offset="1" stop-color="#8A9398" stop-opacity="0"/>
</linearGradient>
<linearGradient id="paint6_linear" x1="73.4525" y1="596.578" x2="73.4524" y2="767.994" gradientUnits="userSpaceOnUse">
<stop stop-color="#5F676B"/>
<stop offset="1" stop-color="#8A9398" stop-opacity="0"/>
</linearGradient>
<linearGradient id="paint7_linear" x1="269.837" y1="404.92" x2="271.113" y2="359.028" gradientUnits="userSpaceOnUse">
<stop stop-color="#A8AFB4"/>
<stop offset="1" stop-color="#848587"/>
</linearGradient>
<linearGradient id="paint8_linear" x1="622.756" y1="573.633" x2="622.756" y2="618.767" gradientUnits="userSpaceOnUse">
<stop stop-color="#596670"/>
<stop offset="1" stop-color="#6A7B87"/>
</linearGradient>
<linearGradient id="paint9_linear" x1="812.578" y1="223.84" x2="851.569" y2="256.448" gradientUnits="userSpaceOnUse">
<stop stop-color="#E4BD83"/>
<stop offset="1" stop-color="#F5CE8D"/>
</linearGradient>
<linearGradient id="paint10_linear" x1="734.818" y1="192.335" x2="777.268" y2="195.491" gradientUnits="userSpaceOnUse">
<stop offset="0.20498" stop-color="#F5CE8D"/>
<stop offset="1" stop-color="#E5BD84"/>
</linearGradient>
<linearGradient id="paint11_linear" x1="472.918" y1="433.937" x2="406.106" y2="348.229" gradientUnits="userSpaceOnUse">
<stop stop-color="#6A7B88"/>
<stop offset="1" stop-color="#4B5D6C"/>
</linearGradient>
<linearGradient id="paint12_linear" x1="610.098" y1="472.405" x2="610.098" y2="533.143" gradientUnits="userSpaceOnUse">
<stop stop-color="#6A7B88"/>
<stop offset="1" stop-color="#4B5D6C"/>
</linearGradient>
<radialGradient id="paint13_radial" cx="0" cy="0" r="1" gradientUnits="userSpaceOnUse" gradientTransform="translate(704.966 305.144) rotate(-122.502) scale(35.2868 56.2178)">
<stop stop-color="#69BDD8"/>
<stop offset="1" stop-color="#78CBE5"/>
</radialGradient>
<linearGradient id="paint14_linear" x1="746.291" y1="296.938" x2="735.493" y2="320.558" gradientUnits="userSpaceOnUse">
<stop stop-color="#D9B27D"/>
<stop offset="1" stop-color="#F5CE8D"/>
</linearGradient>
</defs>
</svg>
