<svg width="513" height="29" viewBox="0 0 513 29" fill="none" xmlns="http://www.w3.org/2000/svg">
<mask id="mask0" mask-type="alpha" maskUnits="userSpaceOnUse" x="0" y="6" width="35" height="21">
<path d="M7.43673 10.4332C13.1193 5.13424 22.3325 5.13424 28.0151 10.4332L34.6296 16.6012L28.0151 22.7691C22.3325 28.0681 13.1193 28.0681 7.43673 22.7691L0.822266 16.6012L7.43673 10.4332Z" fill="#5ED8F7"/>
</mask>
<g mask="url(#mask0)">
<rect x="0.822266" y="6.45898" width="32.6804" height="21.4113" fill="#4A79B0"/>
<rect x="17.7236" y="6.45947" width="16.9036" height="21.4113" fill="#5ED8F7"/>
<circle cx="17.7268" cy="16.6023" r="6.76194" fill="#FBCF1A"/>
<path d="M17.7268 23.3642C13.9923 23.3642 10.9648 20.3368 10.9648 16.6023C10.9648 12.8678 13.9923 9.84033 17.7268 9.84033V23.3642Z" fill="#5ED8F7"/>
</g>
<rect x="98.8672" y="6.45996" width="11.2699" height="6.76194" fill="#4A79B0"/>
<rect x="93.2314" y="13.2227" width="11.2699" height="6.76194" fill="#54A9D3"/>
<path d="M87.5967 6.46045H98.8666V13.2224H87.5967V6.46045Z" fill="#5ED8F7"/>
<rect x="98.8672" y="19.9829" width="11.2699" height="6.76194" fill="#4A79B0"/>
<path d="M87.5947 19.9829H98.8646V26.7448H87.5947V19.9829Z" fill="#5ED8F7"/>
<path d="M81.959 13.2227H93.2289V19.9846H81.959V13.2227Z" fill="#FBCF1A"/>
<path d="M178.307 1.95459L190.14 8.71605V22.239L178.307 29.0004L166.475 22.239V8.71605L178.307 1.95459Z" fill="#5ED8F7"/>
<path fill-rule="evenodd" clip-rule="evenodd" d="M184.354 5.40674L190.141 8.71352V22.2364L178.312 28.9956V5.40674H184.354Z" fill="#4A79B0"/>
<path fill-rule="evenodd" clip-rule="evenodd" d="M166.48 8.71458V8.80925L178.313 15.5707L190.146 8.80925V8.71458L178.313 1.95312L166.48 8.71458Z" fill="#FBCF1A"/>
<path d="M246.49 3.0791H252.125V26.7442H246.49V3.0791Z" fill="#5ED8F7"/>
<circle cx="256.07" cy="11.5319" r="3.94446" fill="#FBCF1A"/>
<path d="M267.901 16.6015H273.535V26.7437H267.901V16.6015Z" fill="#54A9D3"/>
<path d="M273.535 15.4746V21.1092H252.124V15.4746H273.535Z" fill="#54A9D3"/>
<path d="M260.012 7.58643H269.028C271.517 7.58643 273.536 9.60456 273.536 12.0941V15.4754H260.012V7.58643Z" fill="#4A79B0"/>
<mask id="mask1" mask-type="alpha" maskUnits="userSpaceOnUse" x="326" y="6" width="30" height="21">
<path fill-rule="evenodd" clip-rule="evenodd" d="M326.501 6.45996H355.801V12.0942C353.311 12.0947 351.293 14.1128 351.293 16.6022C351.293 19.0916 353.311 21.1097 355.801 21.1101V26.7443H326.501V21.1111C328.991 21.1111 331.009 19.0928 331.009 16.6032C331.009 14.1135 328.991 12.0953 326.501 12.0952V6.45996Z" fill="#5ED8F7"/>
</mask>
<g mask="url(#mask1)">
<rect x="335.515" y="6.45996" width="20.2844" height="20.2844" fill="#5ED8F7"/>
<rect width="29.2997" height="10.1422" transform="matrix(-1 0 0 1 355.804 16.6021)" fill="#54A9D3"/>
<path d="M326.501 6.45996H347.912V16.6021H326.501V6.45996Z" fill="#4A79B0"/>
<rect x="334.392" y="12.0947" width="13.5239" height="10.1429" fill="#FBCF1A"/>
</g>
<path d="M421.159 0.825684L432.428 12.0948H409.89L421.159 0.825684Z" fill="#FBCF1A"/>
<path d="M409.89 12.0952H432.428V26.745H409.89V12.0952Z" fill="#5ED8F7"/>
<path d="M409.89 12.0952H417.779V26.7461H409.89V12.0952Z" fill="#4A79B0"/>
<path d="M417.78 12.0952H432.431V19.9841H417.78V12.0952Z" fill="#54A9D3"/>
<circle cx="502.299" cy="6.46063" r="5.63495" fill="#FBCF1A"/>
<path d="M492.156 22.2374C492.156 16.636 496.697 12.0952 502.298 12.0952C507.9 12.0952 512.441 16.636 512.441 22.2374V26.745H492.156V22.2374Z" fill="#4A79B0"/>
<path fill-rule="evenodd" clip-rule="evenodd" d="M502.298 26.745V12.0952C507.899 12.0957 512.439 16.6363 512.439 22.2374V26.745H502.298Z" fill="#5ED8F7"/>
</svg>
