<svg width="499" height="118" viewBox="0 0 499 118" fill="none" xmlns="http://www.w3.org/2000/svg">
<path fill-rule="evenodd" clip-rule="evenodd" d="M95.3331 43.831C91.7879 40.9251 86.9785 38.4078 81.0377 36.348C75.723 34.5054 69.607 33.0618 62.9898 32.0612C64.9587 35.1405 66.8691 38.3409 68.7112 41.6521C68.989 42.1493 69.2608 42.6465 69.5325 43.1437C84.1098 46.457 93.7387 52.1707 93.7387 58.6656C93.7387 64.1181 86.9544 69.0191 76.1558 72.4118C73.269 63.5123 69.0655 53.9485 63.8293 44.5413C57.0712 32.3933 49.3729 21.7766 41.5699 13.8381C32.5409 4.65657 24.2568 0 16.9471 0C13.9938 0 11.266 0.739535 8.83608 2.19563C5.609 4.12803 1.51425 8.19338 0.334548 16.5852C-0.317713 21.223 -0.0157404 26.805 1.23644 33.1746C2.35374 38.8674 4.20584 45.0782 6.67597 51.521C8.26435 48.2014 9.98559 44.8735 11.8337 41.5539C12.1054 41.0651 12.3792 40.5783 12.655 40.0937C8.13752 25.3468 8.09323 13.8464 13.5106 10.6C14.5192 9.99626 15.6727 9.70588 16.945 9.70588C21.4082 9.70379 27.3571 13.3179 33.7528 19.535C27.7536 26.5878 21.9316 35.0966 16.6773 44.5413C9.04343 58.2624 3.55961 72.3303 1.23644 84.1587C-0.0157404 90.5283 -0.317713 96.1083 0.334548 100.748C1.51425 109.138 5.609 113.205 8.83608 115.138C11.266 116.594 13.9958 117.333 16.945 117.333C24.2548 117.333 32.5389 112.677 41.5679 103.495C44.7849 100.224 47.9818 96.4947 51.1042 92.3939C47.555 92.6237 43.9333 92.7407 40.2533 92.7407C39.6936 92.7407 39.134 92.7365 38.5763 92.7323C30.3909 102.052 22.5154 107.627 16.945 107.627C15.6727 107.627 14.5192 107.337 13.5106 106.733C8.9609 104.007 8.26435 95.4565 10.8311 84.0542C19.7051 85.9114 29.7829 86.9184 40.2533 86.9184C55.521 86.9184 70.0036 84.8105 81.0377 80.9854C86.9785 78.9256 91.7879 76.4061 95.3331 73.5002C101.745 68.2441 103.09 62.5325 103.09 58.6656C103.09 54.8008 101.745 49.0893 95.3331 43.831ZM13.4683 74.7057C16.0854 66.834 19.8962 58.1643 24.7761 49.3943C29.662 40.6118 34.9969 32.8592 40.2633 26.569C45.5216 32.8571 50.8525 40.6244 55.7303 49.3943C60.6162 58.1727 64.415 66.8423 67.0321 74.7182C59.1547 76.3017 50.013 77.2126 40.2532 77.2126C30.4834 77.2126 21.3497 76.2913 13.4683 74.7057Z" fill="#54C0DE"/>
<path fill-rule="evenodd" clip-rule="evenodd" d="M409.555 28.7344C406.978 28.7344 404.919 30.6851 404.919 33.2041C404.919 35.6587 406.978 37.5469 409.555 37.5469C412.129 37.5469 414.191 35.6587 414.191 33.2041C414.191 30.6851 412.129 28.7344 409.555 28.7344ZM390.045 62.286C390.045 66.0645 391.976 67.9528 395.841 67.9528C396.936 67.9528 397.958 67.8621 399.386 67.5477L402.021 73.4281C399.189 74.2463 396.678 74.6876 394.423 74.6876C387.149 74.6876 382.641 69.9035 382.641 62.286V50.0738H375.686V43.9677H382.641V33.0775H390.045V43.9677H401.314V50.0738H390.045V62.286ZM316.622 46.4238C319.39 44.1566 322.546 43.0241 326.023 43.0241C330.014 43.0241 333.234 44.3461 335.68 46.9255C338.127 49.507 339.352 52.9692 339.352 57.314V73.742H331.945V57.7533C331.945 52.5299 329.113 49.634 324.477 49.634C321.645 49.634 319.005 51.0809 316.622 53.9143V73.742H309.154V43.9672H316.622V46.4238ZM497.316 44.3866C496.436 43.5604 495.366 43.1211 494.109 43.1211C492.853 43.1211 491.784 43.5423 490.883 44.3866C490.003 45.2109 489.551 46.2386 489.551 47.4659C489.551 48.6952 490.003 49.7229 490.883 50.5472C491.784 51.3714 492.853 51.7946 494.109 51.7946C495.366 51.7946 496.436 51.3714 497.316 50.5472C498.217 49.7229 498.666 48.6952 498.666 47.4659C498.666 46.2386 498.217 45.229 497.316 44.3866ZM496.667 49.9869C495.949 50.668 495.077 51.0086 494.09 51.0086C493.103 51.0086 492.231 50.668 491.514 49.9869C490.796 49.2856 490.429 48.4513 490.429 47.4658C490.429 46.4622 490.796 45.63 491.514 44.9287C492.231 44.2274 493.103 43.8868 494.09 43.8868C495.077 43.8868 495.949 44.2274 496.667 44.9287C497.403 45.63 497.772 46.4622 497.772 47.4658C497.772 48.4513 497.403 49.2856 496.667 49.9869ZM495.97 46.7079C495.97 45.8756 495.271 45.2891 494.342 45.2891H492.561V49.4365H493.315V48.0923H494.072L495.137 49.4365H496.106L494.962 47.9976C495.64 47.788 495.97 47.3527 495.97 46.7079ZM494.323 47.4097H493.315V45.989H494.323C494.847 45.989 495.174 46.2933 495.174 46.6903C495.174 47.1256 494.847 47.4097 494.323 47.4097ZM295.537 63.6702C293.154 66.6305 290.516 68.0775 287.617 68.0775C282.982 68.0775 280.147 65.0567 280.147 59.9582V43.9674H272.743V60.3975C272.743 64.7423 273.968 68.2044 276.414 70.7839C278.861 73.3654 282.081 74.6874 286.072 74.6874C289.613 74.6874 292.769 73.5548 295.537 71.2252V73.7422H302.941V43.9674H295.537V63.6702ZM359.494 49.8839C363.293 49.8839 366.128 51.8991 366.835 55.1094H374.433C373.983 51.6472 372.307 48.8159 369.475 46.6112C366.707 44.4086 363.359 43.276 359.494 43.276C354.923 43.276 351.06 44.7854 347.97 47.7458C344.878 50.7041 343.334 54.4182 343.334 58.8859C343.334 63.2932 344.878 67.0072 347.97 69.9655C351.06 72.9239 354.923 74.4353 359.494 74.4353C363.423 74.4353 366.771 73.3652 369.539 71.1626C372.307 68.9579 373.983 66.0641 374.433 62.5999H366.835C366.128 65.8122 363.293 67.8879 359.494 67.8879C354.343 67.8879 350.738 63.9864 350.738 58.8859C350.738 53.7874 354.343 49.8839 359.494 49.8839ZM413.288 43.9674H405.884V73.7422H413.288V43.9674ZM434.129 43.276C429.494 43.276 425.631 44.7854 422.539 47.7458C419.449 50.7041 417.903 54.4182 417.903 58.8859C417.903 63.4201 419.449 67.1966 422.539 70.2174C425.631 73.1758 429.494 74.6872 434.129 74.6872C438.701 74.6872 442.564 73.1758 445.654 70.2174C448.746 67.1966 450.29 63.4201 450.29 58.8859C450.29 54.4182 448.746 50.7041 445.654 47.7458C442.628 44.7854 438.765 43.276 434.129 43.276ZM434.129 68.0775C436.704 68.0775 438.829 67.1968 440.439 65.4335C442.049 63.6702 442.886 61.4676 442.886 58.8861C442.886 53.7876 439.281 49.8841 434.129 49.8841C428.914 49.8841 425.309 53.7876 425.309 58.8861C425.309 61.4676 426.146 63.6702 427.754 65.4335C429.43 67.1968 431.555 68.0775 434.129 68.0775ZM462.406 46.4238C465.174 44.1566 468.33 43.0241 471.808 43.0241C475.798 43.0241 479.018 44.3461 481.465 46.9255C483.911 49.507 485.136 52.9692 485.136 57.314V73.742H477.73V57.7533C477.73 52.5299 474.897 49.634 470.262 49.634C467.427 49.634 464.789 51.0809 462.406 53.9143V73.742H454.936V43.9672H462.406V46.4238ZM258.562 56.6631C258.562 68.0551 246.357 68.174 239.472 64.7018L236.386 71.6684C247.103 76.9623 266.353 76.2368 266.353 57.8158V30.9368H258.562V56.6631ZM150.74 30.9368C155.955 30.9368 160.139 32.3213 163.295 35.0297C166.449 37.7362 168.059 41.2608 168.059 45.7305C168.059 50.3897 166.385 54.1662 162.974 56.9976C159.624 59.831 155.182 61.2154 149.645 61.2154H141.982V73.742H134.256V30.9368H150.74ZM150.482 54.2913H141.982V37.9258H150.482C156.404 37.9258 160.397 41.0091 160.397 45.7307C160.397 50.8292 156.404 54.2913 150.482 54.2913ZM194.276 46.0449C191.636 44.2192 188.546 43.276 184.941 43.276C180.69 43.276 177.085 44.7854 174.059 47.8707C171.097 50.8915 169.615 54.5431 169.615 58.8859C169.615 63.2307 171.097 66.8823 174.059 69.9031C177.085 72.9239 180.69 74.4353 184.941 74.4353C188.546 74.4353 191.636 73.4901 194.276 71.6664V73.742H201.681V43.9673H194.276V46.0449ZM186.035 68.1399C189.577 68.1399 192.345 66.7554 194.276 63.922V53.7875C192.345 50.9561 189.577 49.5697 186.035 49.5697C183.459 49.5697 181.336 50.5148 179.596 52.3406C177.858 54.1664 177.021 56.369 177.021 58.886C177.021 61.405 177.858 63.6076 179.596 65.4334C181.336 67.2592 183.459 68.1399 186.035 68.1399ZM223.681 66.1892L233.595 43.9049H241.451L221.555 88.5984H213.7L219.882 74.7498L204.75 43.9049H212.735L223.681 66.1892Z" fill="white"/>
</svg>
