<svg width="141" height="162" viewBox="0 0 141 162" fill="none" xmlns="http://www.w3.org/2000/svg">
<path fill-rule="evenodd" clip-rule="evenodd" d="M129.8 60.6017C124.986 56.606 118.454 53.1447 110.386 50.3124C103.169 47.7789 94.8631 45.794 85.8767 44.4181C88.5505 48.6521 91.145 53.0528 93.6465 57.6057C94.0238 58.2893 94.3929 58.973 94.762 59.6566C114.558 64.2124 127.635 72.0686 127.635 80.9992C127.635 88.4964 118.421 95.2353 103.757 99.9002C99.8362 87.6634 94.1277 74.5131 87.0167 61.5783C77.8389 44.8748 67.3843 30.2768 56.7876 19.3613C44.5259 6.73676 33.2757 0.333984 23.3488 0.333984C19.3381 0.333984 15.6336 1.35085 12.3337 3.35297C7.95123 6.01002 2.3904 11.5999 0.788314 23.1387C-0.0974825 29.5156 0.312608 37.1909 2.01312 45.9491C3.53045 53.7766 6.04568 62.3165 9.40022 71.1753C11.5573 66.6109 13.8948 62.035 16.4046 57.4707C16.7736 56.7985 17.1455 56.1292 17.52 55.4628C11.3851 35.1859 11.3249 19.3728 18.6819 14.909C20.0516 14.0788 21.6182 13.6796 23.346 13.6796C29.4072 13.6767 37.486 18.6461 46.1717 27.1946C38.0246 36.8921 30.118 48.5918 22.9824 61.5783C12.6153 80.4448 5.16808 99.7882 2.01312 116.052C0.312608 124.81 -0.0974825 132.483 0.788314 138.863C2.3904 150.399 7.95123 155.991 12.3337 158.648C15.6336 160.65 19.3408 161.667 23.346 161.667C33.273 161.667 44.5231 155.265 56.7848 142.64C61.1537 138.142 65.4952 133.014 69.7355 127.376C64.9156 127.692 59.9972 127.852 54.9996 127.852C54.2395 127.852 53.4795 127.847 52.7222 127.841C41.606 140.655 30.9108 148.322 23.346 148.322C21.6182 148.322 20.0516 147.922 18.6819 147.092C12.5032 143.344 11.5573 131.587 15.0431 115.909C27.0943 118.462 40.7804 119.847 54.9996 119.847C75.7338 119.847 95.4017 116.948 110.386 111.689C118.454 108.857 124.986 105.392 129.8 101.397C138.508 94.1696 140.334 86.3162 140.334 80.9992C140.334 75.6851 138.508 67.8317 129.8 60.6017ZM18.6245 103.054C22.1786 92.2307 27.354 80.3099 33.981 68.2512C40.6163 56.1752 47.8612 45.5154 55.0132 36.8664C62.1543 45.5126 69.3937 56.1925 76.0181 68.2512C82.6533 80.3214 87.8123 92.2422 91.3664 103.072C80.6685 105.249 68.2537 106.501 54.9995 106.501C41.7317 106.501 29.3279 105.234 18.6245 103.054Z" fill="white"/>
</svg>
