<svg width="305" height="309" viewBox="0 0 305 309" fill="none" xmlns="http://www.w3.org/2000/svg">
<path d="M303.334 51.8281H303.778" stroke="#B9BDC2" stroke-width="0.972"/>
<path d="M303.334 252.951H303.778" stroke="#B9BDC2" stroke-width="0.972"/>
<path d="M261.766 0.776812V0.333008" stroke="#B9BDC2" stroke-width="0.972"/>
<path d="M149.848 0.776812V0.333008" stroke="#B9BDC2" stroke-width="0.972"/>
<path d="M37.9277 0.776812V0.333008" stroke="#B9BDC2" stroke-width="0.972"/>
<path d="M274.312 1.85059L97.7871 307.268" stroke="#B9BDC2" stroke-width="0.972" stroke-dasharray="1.08 4.32"/>
<path d="M200.605 1.85059L24.0801 307.268" stroke="#B9BDC2" stroke-width="0.972" stroke-dasharray="1.08 4.32"/>
<path d="M237.464 1.85059L60.5566 307.933" stroke="#B9BDC2" stroke-width="0.972" stroke-dasharray="1.08 4.32"/>
<path d="M202.31 307.268L25.7852 1.85938" stroke="#B9BDC2" stroke-width="0.972" stroke-dasharray="1.08 4.32"/>
<path d="M276.019 307.268L99.4941 1.85938" stroke="#B9BDC2" stroke-width="0.972" stroke-dasharray="1.08 4.32"/>
<path d="M239.542 307.268L62.6348 1.85938" stroke="#B9BDC2" stroke-width="0.972" stroke-dasharray="1.08 4.32"/>
<path d="M77.0278 114.499L76.8741 114.038L76.8735 114.038L77.0278 114.499ZM51.5285 127.326L51.2276 126.944L51.2275 126.944L51.5285 127.326ZM51.5552 178.2L51.8561 177.818L51.856 177.818L51.5552 178.2ZM77.0544 191.027L77.2081 190.566L77.208 190.566L77.0544 191.027ZM222.54 191.027L222.693 191.488L222.694 191.488L222.54 191.027ZM248.039 178.2L247.738 177.818L247.738 177.818L248.039 178.2ZM248.039 127.335L247.738 127.716L247.738 127.716L248.039 127.335ZM222.54 114.508L222.693 114.047L222.693 114.047L222.54 114.508ZM149.775 121.456C176.081 121.456 199.875 125.01 217.075 130.744C225.678 133.612 232.605 137.016 237.371 140.772C242.143 144.532 244.682 148.59 244.682 152.767H245.654C245.654 148.164 242.855 143.856 237.973 140.008C233.085 136.156 226.042 132.708 217.383 129.822C200.059 124.047 176.156 120.484 149.775 120.484V121.456ZM244.682 152.767C244.682 156.944 242.143 161.002 237.371 164.762C232.605 168.518 225.678 171.922 217.075 174.79C199.875 180.524 176.081 184.078 149.775 184.078V185.05C176.156 185.05 200.059 181.487 217.383 175.712C226.042 172.826 233.085 169.378 237.973 165.526C242.855 161.678 245.654 157.37 245.654 152.767H244.682ZM149.775 184.078C123.469 184.078 99.6749 180.524 82.4742 174.79C73.8713 171.922 66.9445 168.518 62.1784 164.762C57.4069 161.002 54.8676 156.944 54.8676 152.767H53.8956C53.8956 157.37 56.6945 161.678 61.5768 165.526C66.4646 169.378 73.5073 172.826 82.1668 175.712C99.4909 181.487 123.394 185.05 149.775 185.05V184.078ZM54.8676 152.767C54.8676 148.59 57.4069 144.532 62.1784 140.772C66.9445 137.016 73.8713 133.612 82.4742 130.744C99.6749 125.01 123.469 121.456 149.775 121.456V120.484C123.394 120.484 99.4909 124.047 82.1668 129.822C73.5073 132.708 66.4646 136.156 61.5768 140.008C56.6945 143.856 53.8956 148.164 53.8956 152.767H54.8676ZM149.775 103.845C122.506 103.845 96.6141 107.457 76.8741 114.038L77.1815 114.96C96.7968 108.421 122.579 104.817 149.775 104.817V103.845ZM76.8735 114.038C66.2462 117.595 57.6049 121.917 51.2276 126.944L51.8294 127.708C58.0907 122.771 66.6207 118.494 77.182 114.96L76.8735 114.038ZM51.2275 126.944C39.6695 136.061 37.2308 146.003 37.2308 152.767H38.2028C38.2028 146.27 40.528 136.622 51.8295 127.707L51.2275 126.944ZM37.2308 152.767C37.2308 159.533 39.6879 169.466 51.2543 178.582L51.856 177.818C40.5452 168.904 38.2028 159.264 38.2028 152.767H37.2308ZM51.2543 178.582C57.6312 183.609 66.2725 187.949 76.9009 191.488L77.208 190.566C66.6478 187.049 58.1177 182.755 51.8561 177.818L51.2543 178.582ZM76.9007 191.488C96.6408 198.069 122.532 201.681 149.801 201.681V200.709C122.606 200.709 96.8235 197.105 77.2081 190.566L76.9007 191.488ZM149.801 201.681C177.071 201.681 202.953 198.069 222.693 191.488L222.386 190.566C202.771 197.105 176.997 200.709 149.801 200.709V201.681ZM222.694 191.488C233.321 187.931 241.963 183.609 248.34 178.582L247.738 177.818C241.477 182.755 232.947 187.031 222.385 190.566L222.694 191.488ZM248.34 178.582C259.906 169.466 262.363 159.533 262.363 152.767H261.391C261.391 159.264 259.049 168.904 247.738 177.818L248.34 178.582ZM262.363 152.767C262.363 146.002 259.906 136.069 248.34 126.953L247.738 127.716C259.049 136.631 261.391 146.271 261.391 152.767H262.363ZM248.34 126.953C241.963 121.926 233.322 117.586 222.693 114.047L222.386 114.969C232.946 118.486 241.476 122.78 247.738 127.716L248.34 126.953ZM222.693 114.047C202.927 107.466 177.044 103.845 149.775 103.845V104.817C176.97 104.817 202.744 108.43 222.386 114.969L222.693 114.047Z" fill="#B9BDC2"/>
<path d="M177.381 136.864L177.801 136.62L177.801 136.62L177.381 136.864ZM197.476 235.164L197.713 235.588L197.718 235.585L197.476 235.164ZM191.352 236.697L191.361 236.211H191.352V236.697ZM122.169 168.661L121.749 168.905L121.749 168.905L122.169 168.661ZM102.074 70.3614L101.837 69.9371L101.831 69.9401L102.074 70.3614ZM93.7103 55.9565L93.4692 55.5345L93.4676 55.5354L93.7103 55.9565ZM78.5477 80.6267L78.0668 80.5563L78.0668 80.5565L78.5477 80.6267ZM80.1564 109.064L79.6802 109.162L79.6802 109.162L80.1564 109.064ZM107.709 176.985L108.129 176.742L108.129 176.742L107.709 176.985ZM147.42 229.623L147.08 229.971L147.08 229.971L147.42 229.623ZM191.334 253.345L191.339 252.859H191.334V253.345ZM205.804 249.578L206.045 250L206.047 249.999L205.804 249.578ZM220.967 224.907L221.447 224.978L221.447 224.978L220.967 224.907ZM219.358 196.47L218.882 196.567L218.882 196.567L219.358 196.47ZM191.806 128.549L191.385 128.792L191.385 128.792L191.806 128.549ZM152.104 75.9196L151.764 76.267L151.764 76.267L152.104 75.9196ZM108.198 69.3138C112.318 69.3138 117.222 71.0104 122.653 74.2318C128.076 77.4489 133.984 82.1634 140.1 88.1412C152.331 100.096 165.357 117.068 176.96 137.107L177.801 136.62C166.163 116.52 153.085 99.4743 140.779 87.4461C134.626 81.4323 128.657 76.6638 123.149 73.3959C117.647 70.1323 112.565 68.3418 108.198 68.3418V69.3138ZM176.96 137.107C190.113 159.83 198.924 182.164 202.547 199.89C204.359 208.756 204.868 216.441 203.99 222.435C203.112 228.436 200.86 232.656 197.234 234.742L197.718 235.585C201.713 233.287 204.053 228.717 204.952 222.576C205.852 216.428 205.323 208.62 203.499 199.695C199.85 181.841 190.992 159.409 177.801 136.62L176.96 137.107ZM197.239 234.739C195.445 235.741 193.417 236.25 191.361 236.211L191.343 237.183C193.571 237.225 195.769 236.674 197.713 235.588L197.239 234.739ZM191.352 236.211C187.232 236.211 182.327 234.515 176.897 231.293C171.474 228.076 165.566 223.362 159.45 217.384C147.219 205.429 134.193 188.457 122.59 168.418L121.749 168.905C133.387 189.005 146.465 206.051 158.771 218.079C164.923 224.093 170.892 228.861 176.401 232.129C181.903 235.393 186.984 237.183 191.352 237.183V236.211ZM122.59 168.418C109.437 145.695 100.626 123.361 97.0028 105.635C95.1907 96.7693 94.6821 89.0838 95.5595 83.0897C96.4379 77.0891 98.6895 72.8685 102.316 70.7826L101.831 69.9401C97.8367 72.2377 95.4967 76.8076 94.5978 82.949C93.6978 89.0969 94.2264 96.9052 96.0505 105.83C99.6998 123.684 108.558 146.116 121.749 168.905L122.59 168.418ZM102.311 70.7856C104.104 69.7835 106.133 69.2755 108.188 69.3137L108.207 68.3419C105.979 68.3005 103.781 68.851 101.837 69.9371L102.311 70.7856ZM108.203 51.703C103.037 51.6501 97.9512 52.9728 93.4692 55.5345L93.9515 56.3784C98.2836 53.9023 103.2 52.6239 108.193 52.675L108.203 51.703ZM93.4676 55.5354C87.6017 58.9174 80.1969 66.0073 78.0668 80.5563L79.0286 80.6971C81.1113 66.4716 88.3182 59.6263 93.9531 56.3775L93.4676 55.5354ZM78.0668 80.5565C76.8919 88.6073 77.4421 98.2051 79.6802 109.162L80.6325 108.967C78.4089 98.0814 77.8749 88.6025 79.0286 80.6969L78.0668 80.5565ZM79.6802 109.162C83.8352 129.5 93.6445 153.67 107.288 177.229L108.129 176.742C94.5227 153.247 84.7611 129.176 80.6325 108.967L79.6802 109.162ZM107.288 177.229C119.366 198.09 133.106 216.3 147.08 229.971L147.759 229.276C133.861 215.679 120.173 197.544 108.129 176.742L107.288 177.229ZM147.08 229.971C163.214 245.743 178.103 253.831 191.334 253.831V252.859C178.489 252.859 163.835 244.991 147.759 229.276L147.08 229.971ZM191.33 253.831C196.489 253.881 201.569 252.559 206.045 250L205.563 249.156C201.236 251.629 196.326 252.908 191.339 252.859L191.33 253.831ZM206.047 249.999C211.913 246.617 219.317 239.527 221.447 224.978L220.486 224.837C218.403 239.063 211.196 245.908 205.561 249.157L206.047 249.999ZM221.447 224.978C222.622 216.927 222.072 207.32 219.834 196.372L218.882 196.567C221.105 207.444 221.639 216.932 220.486 224.837L221.447 224.978ZM219.834 196.372C215.679 176.034 205.87 151.864 192.226 128.305L191.385 128.792C204.992 152.287 214.753 176.358 218.882 196.567L219.834 196.372ZM192.226 128.305C180.157 107.453 166.408 89.2341 152.443 75.5722L151.764 76.267C165.653 89.855 179.35 107.999 191.385 128.792L192.226 128.305ZM152.443 75.5723C136.327 59.7998 121.455 51.703 108.206 51.703V52.675C121.07 52.675 135.706 60.5522 151.764 76.267L152.443 75.5723Z" fill="#B9BDC2"/>
<path d="M191.344 68.8275L190.883 68.6734L190.665 69.3265L191.353 69.3134L191.344 68.8275ZM197.468 70.3611L197.71 69.9399L197.705 69.9369L197.468 70.3611ZM177.372 168.661L177.793 168.904L177.793 168.904L177.372 168.661ZM108.198 236.67V236.184L108.189 236.185L108.198 236.67ZM102.075 235.137L101.832 235.558L101.837 235.561L102.075 235.137ZM122.17 136.837L121.749 136.594L121.749 136.594L122.17 136.837ZM191.353 68.8009L191.814 68.955L192.028 68.3149H191.353V68.8009ZM147.438 75.8839L147.099 75.5363L147.098 75.5366L147.438 75.8839ZM107.718 128.522L107.298 128.278L107.298 128.279L107.718 128.522ZM80.1661 196.443L79.6901 196.345L79.69 196.346L80.1661 196.443ZM78.5574 224.881L79.0383 224.81L79.0383 224.81L78.5574 224.881ZM93.7201 249.551L93.4774 249.972L93.479 249.973L93.7201 249.551ZM108.19 253.318V252.832L108.185 252.832L108.19 253.318ZM152.104 229.597L152.444 229.944L152.444 229.944L152.104 229.597ZM191.815 176.958L191.395 176.715H191.395L191.815 176.958ZM219.368 109.038L219.844 109.135L219.844 109.135L219.368 109.038ZM220.976 80.5998L220.495 80.6702V80.6702L220.976 80.5998ZM205.814 55.9296L206.056 55.5085L206.054 55.5072L205.814 55.9296ZM191.344 52.1887L190.883 52.0346L190.667 52.6824L191.35 52.6747L191.344 52.1887ZM191.353 69.3134C193.409 69.2744 195.438 69.7825 197.231 70.7853L197.705 69.9369C195.762 68.85 193.563 68.2993 191.335 68.3416L191.353 69.3134ZM197.225 70.7823C200.852 72.8703 203.102 77.092 203.978 83.0931C204.854 89.0876 204.343 96.7728 202.529 105.638C198.902 123.363 190.091 145.695 176.952 168.418L177.793 168.904C190.971 146.116 199.829 123.686 203.481 105.833C205.307 96.909 205.838 89.101 204.94 82.9526C204.043 76.8108 201.705 72.2399 197.71 69.9399L197.225 70.7823ZM176.952 168.418C165.357 188.457 152.334 205.422 140.103 217.37C133.987 223.345 128.078 228.056 122.655 231.27C117.224 234.489 112.318 236.184 108.198 236.184V237.156C112.566 237.156 117.648 235.368 123.15 232.107C128.66 228.841 134.629 224.076 140.782 218.065C153.088 206.044 166.164 189.004 177.793 168.904L176.952 168.418ZM108.189 236.185C106.134 236.224 104.105 235.715 102.312 234.713L101.837 235.561C103.781 236.648 105.98 237.199 108.208 237.156L108.189 236.185ZM102.317 234.716C98.6905 232.628 96.4404 228.406 95.5641 222.405C94.6888 216.41 95.1998 208.725 97.0136 199.86C100.64 182.135 109.451 159.803 122.591 137.08L121.749 136.594C108.572 159.382 99.714 181.812 96.0613 199.665C94.2356 208.589 93.7045 216.397 94.6023 222.545C95.4991 228.687 97.8374 233.258 101.832 235.558L102.317 234.716ZM122.591 137.08C134.189 117.041 147.215 100.069 159.448 88.1144C165.564 82.1366 171.473 77.4221 176.897 74.205C182.328 70.9836 187.233 69.2869 191.353 69.2869V68.3149C186.985 68.3149 181.903 70.1054 176.401 73.369C170.891 76.6369 164.921 81.4055 158.768 87.4192C146.461 99.4474 133.383 116.494 121.749 136.594L122.591 137.08ZM190.892 68.6468L190.883 68.6734L191.805 68.9816L191.814 68.955L190.892 68.6468ZM191.353 51.6761C178.122 51.6761 163.233 59.7638 147.099 75.5363L147.778 76.2314C163.853 60.5167 178.507 52.6481 191.353 52.6481V51.6761ZM147.098 75.5366C133.133 89.2073 119.376 107.444 107.298 128.278L108.139 128.766C120.183 107.99 133.889 89.828 147.778 76.2311L147.098 75.5366ZM107.298 128.279C93.6631 151.828 83.8628 175.999 79.6901 196.345L80.6422 196.54C84.7886 176.323 94.5415 152.251 108.139 128.766L107.298 128.279ZM79.69 196.346C77.4519 207.302 76.9016 216.927 78.0766 224.951L79.0383 224.81C77.8847 216.931 78.4187 207.426 80.6423 196.54L79.69 196.346ZM78.0766 224.951C80.2067 239.5 87.6114 246.59 93.4774 249.972L93.9629 249.13C88.3279 245.881 81.1211 239.036 79.0383 224.81L78.0766 224.951ZM93.479 249.973C97.9556 252.531 103.035 253.854 108.194 253.804L108.185 252.832C103.198 252.88 98.2882 251.602 93.9613 249.129L93.479 249.973ZM108.19 253.804C121.421 253.804 136.31 245.717 152.444 229.944L151.765 229.249C135.689 244.964 121.035 252.832 108.19 252.832V253.804ZM152.444 229.944C166.4 216.3 180.158 198.063 192.236 177.202L191.395 176.715C179.351 197.517 165.645 215.679 151.765 229.249L152.444 229.944ZM192.236 177.202C205.871 153.652 215.671 129.482 219.844 109.135L218.892 108.94C214.745 129.158 204.992 153.229 191.395 176.715L192.236 177.202ZM219.844 109.135C222.082 98.1783 222.632 88.5538 221.457 80.5294L220.495 80.6702C221.649 88.549 221.115 98.0544 218.891 108.94L219.844 109.135ZM221.457 80.5294C219.327 65.9804 211.922 58.8905 206.056 55.5085L205.571 56.3506C211.206 59.5994 218.413 66.4447 220.495 80.6702L221.457 80.5294ZM206.054 55.5072C201.575 52.9576 196.496 51.6444 191.339 51.7027L191.35 52.6747C196.334 52.6183 201.244 53.8876 205.573 56.3519L206.054 55.5072ZM191.805 52.3428L191.814 52.3162L190.892 52.008L190.883 52.0346L191.805 52.3428Z" fill="#B9BDC2"/>
<path d="M111.176 211.172H188.367" stroke="#B9BDC2" stroke-width="0.972"/>
<path d="M216.363 150.294L177.771 83.623" stroke="#B9BDC2" stroke-width="0.972"/>
<path d="M116.206 93.3125L77.6152 159.992" stroke="#B9BDC2" stroke-width="0.972"/>
<path d="M149.704 211.619H146.709C132.106 227.576 118.064 237.158 108.127 237.158C105.985 237.2 103.871 236.67 102.003 235.625C86.7606 226.849 95.7818 182.836 122.099 137.325C132.631 119.135 144.318 103.462 155.561 91.7608C152.006 88.3479 147.474 84.2702 143.252 80.5293C130.747 93.5958 118.517 110.235 107.656 129.01C94.0398 152.528 84.2632 176.648 80.1036 196.931C77.8728 207.852 77.3306 217.417 78.4949 225.368C80.6014 239.756 87.8983 246.723 93.6576 250.039C98.0565 252.554 103.048 253.854 108.118 253.806C121.157 253.806 135.937 245.828 152.033 230.084C158.099 224.104 163.781 217.747 169.044 211.052C162.716 211.448 156.267 211.646 149.695 211.646" fill="#B9BDC2"/>
<path d="M247.986 127.769C241.666 122.787 233.081 118.47 222.486 114.942C211.992 111.557 201.22 109.098 190.295 107.593C193.808 112.87 197.209 118.351 200.498 124.037C200.99 124.888 201.479 125.742 201.964 126.599C227.961 132.281 245.142 142.076 245.142 153.192C245.142 170.753 202.435 184.981 149.748 184.981C127.955 184.981 107.869 182.543 91.8084 178.448L85.6758 194.041C103.994 198.952 126.355 201.62 149.757 201.62C176.99 201.62 202.827 198.012 222.504 191.452C233.099 187.906 241.684 183.607 248.003 178.625C259.442 169.619 261.842 159.823 261.842 153.192C261.842 146.562 259.442 136.775 248.003 127.76" fill="#B9BDC2"/>
<path d="M191.797 128.983C179.745 108.16 166.022 89.9789 152.095 76.3451C135.99 60.6016 121.218 52.6234 108.18 52.6234C103.107 52.5746 98.1122 53.875 93.7103 56.3909C87.9599 59.7062 80.6541 66.6738 78.5477 81.0611C77.3834 89.0393 77.9255 98.5776 80.1564 109.499C82.4614 120.239 85.706 130.758 89.853 140.933C92.6853 135.242 95.7516 129.545 99.0519 123.842C99.5378 123.003 100.027 122.169 100.518 121.342C92.4572 96.0601 92.3861 76.3451 102.047 70.8136C103.916 69.7695 106.029 69.2402 108.171 69.28C125.147 69.28 154.112 97.177 177.354 137.316C187.877 155.497 195.636 173.439 200.178 188.997L216.514 185.451C211.492 167.846 202.924 148.22 191.797 128.992" fill="#B9BDC2"/>
<path d="M149.586 303.312V1.55469" stroke="#33B4D8" stroke-width="0.666667"/>
<path d="M0.0175781 152.833H301.888" stroke="#33B4D8" stroke-width="0.666667"/>
</svg>
