<svg width="1023" height="438" viewBox="0 0 1023 438" fill="none" xmlns="http://www.w3.org/2000/svg">
<path fill-rule="evenodd" clip-rule="evenodd" d="M54.1373 106.829C83.6374 106.829 107.552 82.9147 107.552 53.4146C107.552 23.9145 83.6374 0 54.1373 0C24.6372 0 0.722656 23.9145 0.722656 53.4146C0.722656 82.9147 24.6372 106.829 54.1373 106.829Z" fill="#A89CDF"/>
<path fill-rule="evenodd" clip-rule="evenodd" d="M27.4297 32.0488H83.5151V39.6634C83.5151 39.9188 83.4174 40.1644 83.2421 40.3501L61.6328 63.2305C61.1068 63.7874 60.8138 64.5243 60.8138 65.2903V80.122L50.1309 88.1342V65.2903C50.1309 64.5243 49.8379 63.7874 49.3119 63.2305L27.7027 40.3501C27.5274 40.1644 27.4297 39.9188 27.4297 39.6634V32.0488Z" stroke="white" stroke-width="2.67073" stroke-linecap="round"/>
<path fill-rule="evenodd" clip-rule="evenodd" d="M26.0938 37.3901H84.8498V40.0609H26.0938V37.3901Z" fill="white"/>
<path d="M65.7449 46.0701L54.805 57.0099L49.2066 51.4115" stroke="#94E6FF" stroke-width="2.67073"/>
<path fill-rule="evenodd" clip-rule="evenodd" d="M420.028 106.829C449.528 106.829 473.443 82.9147 473.443 53.4146C473.443 23.9145 449.528 0 420.028 0C390.528 0 366.613 23.9145 366.613 53.4146C366.613 82.9147 390.528 106.829 420.028 106.829Z" fill="#FFC776"/>
<path d="M450.168 74.1601L445.447 78.8813V78.8813L440.726 74.1601" stroke="#9585D8" stroke-width="2.67073"/>
<path d="M445.402 48.0728V77.0226" stroke="#9585D8" stroke-width="2.67073" stroke-linecap="round"/>
<path fill-rule="evenodd" clip-rule="evenodd" d="M444.066 26.7069C444.066 25.9694 444.664 25.3716 445.402 25.3716C446.139 25.3716 446.737 25.9694 446.737 26.7069C446.737 27.4444 446.139 28.0423 445.402 28.0423C444.664 28.0423 444.066 27.4444 444.066 26.7069ZM444.066 33.3837C444.066 32.6462 444.664 32.0483 445.402 32.0483C446.139 32.0483 446.737 32.6462 446.737 33.3837C446.737 34.1212 446.139 34.719 445.402 34.719C444.664 34.719 444.066 34.1212 444.066 33.3837ZM445.402 38.7251C444.664 38.7251 444.066 39.323 444.066 40.0605C444.066 40.798 444.664 41.3959 445.402 41.3959C446.139 41.3959 446.737 40.798 446.737 40.0605C446.737 39.323 446.139 38.7251 445.402 38.7251Z" fill="#9585D8"/>
<path fill-rule="evenodd" clip-rule="evenodd" d="M395.992 33.3839C395.992 29.6963 398.982 26.707 402.669 26.707H425.37C429.058 26.707 432.047 29.6963 432.047 33.3839V73.4448C432.047 77.1324 429.058 80.1217 425.37 80.1217H402.669C398.981 80.1217 395.992 77.1323 395.992 73.4448V33.3839Z" stroke="white" stroke-width="2.67073" stroke-linecap="round"/>
<path fill-rule="evenodd" clip-rule="evenodd" d="M416.023 26.707H424.036V78.7863H416.023V26.707Z" fill="#D8D8D8" fill-opacity="0.01"/>
<mask id="mask0" mask-type="alpha" maskUnits="userSpaceOnUse" x="416" y="26" width="9" height="53">
<path fill-rule="evenodd" clip-rule="evenodd" d="M416.023 26.707H424.036V78.7863H416.023V26.707Z" fill="white"/>
</mask>
<g mask="url(#mask0)">
<path fill-rule="evenodd" clip-rule="evenodd" d="M414.769 31.7223L427.717 23.63L426.302 21.3652L413.354 29.4575L414.769 31.7223ZM414.769 37.0639L427.717 28.9716L426.301 26.7068L413.354 34.7991L414.769 37.0639ZM427.717 34.3131L414.769 42.4054L413.354 40.1406L426.301 32.0483L427.717 34.3131ZM414.769 47.7468L427.717 39.6545L426.301 37.3898L413.354 45.4821L414.769 47.7468ZM427.717 44.996L414.769 53.0883L413.354 50.8235L426.301 42.7312L427.717 44.996ZM414.769 58.4298L427.717 50.3375L426.301 48.0727L413.354 56.165L414.769 58.4298ZM427.717 55.6789L414.769 63.7712L413.354 61.5065L426.301 53.4141L427.717 55.6789ZM414.769 69.1127L427.717 61.0204L426.301 58.7556L413.354 66.8479L414.769 69.1127ZM427.717 66.3619L414.769 74.4542L413.354 72.1894L426.301 64.0971L427.717 66.3619ZM414.769 79.7956L427.717 71.7033L426.301 69.4385L413.354 77.5309L414.769 79.7956ZM427.717 77.0448L414.769 85.1371L413.354 82.8723L426.301 74.78L427.717 77.0448Z" fill="white"/>
</g>
<path fill-rule="evenodd" clip-rule="evenodd" d="M402.67 37.3901C402.67 35.1776 404.464 33.384 406.676 33.384V33.384C408.889 33.384 410.682 35.1776 410.682 37.3901V37.3901C410.682 39.6026 408.889 41.3962 406.676 41.3962V41.3962C404.464 41.3962 402.67 39.6026 402.67 37.3901V37.3901Z" stroke="white" stroke-width="2.67073" stroke-linecap="round"/>
<path fill-rule="evenodd" clip-rule="evenodd" d="M237.083 112.171C266.583 112.171 290.497 88.256 290.497 58.7559C290.497 29.2559 266.583 5.34131 237.083 5.34131C207.583 5.34131 183.668 29.2559 183.668 58.7559C183.668 88.256 207.583 112.171 237.083 112.171Z" fill="#87CC80"/>
<path fill-rule="evenodd" clip-rule="evenodd" d="M227.735 40.0612C231.423 40.0612 234.412 37.0719 234.412 33.3843C234.412 29.6968 231.423 26.7075 227.735 26.7075C224.048 26.7075 221.059 29.6968 221.059 33.3843C221.059 37.0719 224.048 40.0612 227.735 40.0612Z" stroke="white" stroke-width="2.67073" stroke-linecap="round"/>
<path d="M215.718 68.104V55.417C215.718 50.6279 219.611 46.7381 224.397 46.7381H233.077L234.413 44.0674H224.397C218.136 44.0674 213.047 49.1524 213.047 55.417V70.7747H227.736V68.104H215.718Z" fill="white"/>
<path d="M253.107 82.7931V84.141C253.107 86.3466 251.3 88.1346 249.111 88.1346H233.066C230.859 88.1346 229.07 86.3311 229.07 84.1331V57.4165C229.07 55.2065 230.877 53.415 233.066 53.415H249.111C251.318 53.415 253.107 55.2131 253.107 57.4127V74.1541" stroke="white" stroke-width="2.67073"/>
<path d="M238.418 49.4181C238.418 47.2005 240.225 45.4028 242.414 45.4028H258.458C260.665 45.4028 262.455 47.2062 262.455 49.4042V74.7856C262.455 76.9955 260.648 78.787 258.458 78.787H242.414" stroke="#FFE4B0" stroke-width="2.67073" stroke-linecap="square"/>
<path d="M244.475 83.5557L239.754 78.8345V78.8345L244.475 74.1132" stroke="#FFE4B0" stroke-width="2.67073"/>
<path fill-rule="evenodd" clip-rule="evenodd" d="M235.748 61.4272C235.748 60.6897 236.346 60.0918 237.083 60.0918H245.096C245.833 60.0918 246.431 60.6897 246.431 61.4272V66.7686C246.431 67.5061 245.833 68.104 245.096 68.104H237.083C236.346 68.104 235.748 67.5061 235.748 66.7686V61.4272Z" stroke="white" stroke-width="2.67073" stroke-linecap="round"/>
<path fill-rule="evenodd" clip-rule="evenodd" d="M239.754 60.0918H242.425V62.7625H239.754V60.0918ZM239.754 65.4333H242.425V68.104H239.754V65.4333Z" fill="white"/>
<path fill-rule="evenodd" clip-rule="evenodd" d="M602.973 106.829C632.473 106.829 656.388 82.9147 656.388 53.4146C656.388 23.9145 632.473 0 602.973 0C573.473 0 549.559 23.9145 549.559 53.4146C549.559 82.9147 573.473 106.829 602.973 106.829Z" fill="#A89CDF"/>
<path d="M601.936 73.4449H578.792C577.396 73.4449 576.266 72.2837 576.266 70.852V30.6365C576.266 29.2037 577.396 28.0425 578.792 28.0425H616.471C617.867 28.0425 618.997 29.2037 618.997 30.6365V43.9872" stroke="white" stroke-width="2.67073"/>
<path d="M629.68 64.7653C629.68 73.2466 622.804 80.122 614.323 80.122C605.842 80.122 598.966 73.2466 598.966 64.7653C598.966 56.284 605.842 49.4086 614.323 49.4086C622.804 49.4086 629.68 56.284 629.68 64.7653Z" stroke="white" stroke-width="2.67073"/>
<path d="M623.67 78.1189L629.053 83.5019" stroke="white" stroke-width="2.67073" stroke-linecap="round"/>
<path fill-rule="evenodd" clip-rule="evenodd" d="M612.92 71.6989L612.92 71.699L611.031 69.8105L611.031 69.8104L606.311 65.0896L608.199 63.2011L612.92 67.9219L621.418 59.4238L623.306 61.3123L614.808 69.8104L614.809 69.8108L612.92 71.6993L612.92 71.6989Z" fill="#94E6FF"/>
<path d="M584.279 47.4051C584.279 44.8239 586.371 42.7314 588.953 42.7314C591.534 42.7314 593.626 44.8239 593.626 47.4051V49.4082H584.279V47.4051Z" stroke="white" stroke-width="2.67073"/>
<path fill-rule="evenodd" clip-rule="evenodd" d="M588.952 40.0607C590.427 40.0607 591.623 38.865 591.623 37.39C591.623 35.915 590.427 34.7192 588.952 34.7192C587.477 34.7192 586.281 35.915 586.281 37.39C586.281 38.865 587.477 40.0607 588.952 40.0607Z" fill="white"/>
<path d="M600.302 36.0551H613.656V42.7319H600.302V36.0551Z" stroke="#94E6FF" stroke-width="2.67073"/>
<path fill-rule="evenodd" clip-rule="evenodd" d="M598.967 48.0732H614.991L612.32 50.744H598.967V48.0732Z" fill="white"/>
<path fill-rule="evenodd" clip-rule="evenodd" d="M582.943 54.75H601.638V57.4207H582.943V54.75Z" fill="white"/>
<path fill-rule="evenodd" clip-rule="evenodd" d="M582.943 61.4268H598.968V64.0975H582.943V61.4268Z" fill="white"/>
<path fill-rule="evenodd" clip-rule="evenodd" d="M785.919 106.829C815.419 106.829 839.333 82.9147 839.333 53.4146C839.333 23.9145 815.419 0 785.919 0C756.418 0 732.504 23.9145 732.504 53.4146C732.504 82.9147 756.418 106.829 785.919 106.829Z" fill="#87CC80"/>
<path d="M762.522 53.2521C762.522 39.3295 774.037 28.043 788.241 28.043C802.446 28.043 813.961 39.3295 813.961 53.2521C813.961 63.1242 808.412 71.539 799.98 75.6764" stroke="white" stroke-width="2.67073"/>
<path d="M756.844 48.332L762.765 54.2532L769.398 47.6205" stroke="white" stroke-width="2.67073"/>
<path fill-rule="evenodd" clip-rule="evenodd" d="M787.465 47.9251C784.166 47.9251 781.491 45.2679 781.491 41.9901C781.491 38.7123 784.166 36.0552 787.465 36.0552C790.765 36.0552 793.439 38.7123 793.439 41.9901C793.439 45.2679 790.765 47.9251 787.465 47.9251Z" stroke="white" stroke-width="2.67073" stroke-linecap="round"/>
<path d="M800.607 76.8877C799.351 77.446 797.937 76.5266 797.937 75.1521V62.7616C797.937 58.5047 794.734 55.0471 790.452 55.0471H777.906L779.781 52.9637C780.288 52.4009 781.009 52.0796 781.766 52.0796H790.452C797.019 52.0796 800.607 57.0038 800.607 62.7616V76.8877Z" fill="white"/>
<path d="M761.882 64.0978C761.882 61.8853 763.676 60.0917 765.888 60.0917H788.59C790.802 60.0917 792.596 61.8853 792.596 64.0978V74.7807C792.596 76.9932 790.802 78.7868 788.59 78.7868H765.888C763.676 78.7868 761.882 76.9932 761.882 74.7807V64.0978Z" stroke="#FFE4B0" stroke-width="2.67073"/>
<path fill-rule="evenodd" clip-rule="evenodd" d="M785.919 73.4458C786.656 73.4458 787.254 72.8479 787.254 72.1104V66.769C787.254 66.0315 786.656 65.4336 785.919 65.4336H780.577C779.84 65.4336 779.242 66.0315 779.242 66.769V72.1104C779.242 72.8479 779.84 73.4458 780.577 73.4458H785.919Z" stroke="#FFE4B0" stroke-width="2.67073" stroke-linecap="round"/>
<path fill-rule="evenodd" clip-rule="evenodd" d="M781.912 70.7749V68.1042H779.241V70.7749H781.912Z" fill="#FFE4B0"/>
<path fill-rule="evenodd" clip-rule="evenodd" d="M787.254 70.7749V68.1042H784.583V70.7749H787.254Z" fill="#FFE4B0"/>
<path fill-rule="evenodd" clip-rule="evenodd" d="M968.864 106.829C998.364 106.829 1022.28 82.9147 1022.28 53.4146C1022.28 23.9145 998.364 0 968.864 0C939.364 0 915.449 23.9145 915.449 53.4146C915.449 82.9147 939.364 106.829 968.864 106.829Z" fill="#A89CDF"/>
<path fill-rule="evenodd" clip-rule="evenodd" d="M991.443 61.6951C991.443 65.3815 980.831 75.8998 977.239 75.8998C976.768 75.8057 973.382 72.5132 972.723 71.9488L962.188 82.4847C963.975 84.5542 967.555 88.1343 969.06 88.1343C981.289 88.1343 1003.58 65.8396 1003.58 53.6104C1003.58 52.1053 1000 48.5253 997.934 46.7379L987.492 57.2738C988.057 57.9323 991.443 61.3073 991.443 61.6951Z" stroke="white" stroke-width="2.67073"/>
<path fill-rule="evenodd" clip-rule="evenodd" d="M944.828 33.3779C944.828 28.9564 948.419 25.3721 952.839 25.3721H972.872C977.297 25.3721 980.883 28.9658 980.883 33.3779V70.7808C980.883 71.9585 980.628 73.0767 980.171 74.0837C978.632 75.2989 977.546 75.0397 976.814 74.3785C977.682 73.4296 978.212 72.1665 978.212 70.7807V33.3778C978.212 30.4373 975.818 28.0427 972.872 28.0427H952.839C949.892 28.0427 947.499 30.4332 947.499 33.3778V70.7807C947.499 73.7212 949.893 76.1159 952.839 76.1159H967.529L964.858 78.7867H952.839C948.415 78.7867 944.828 75.193 944.828 70.7808V33.3779Z" fill="white"/>
<path fill-rule="evenodd" clip-rule="evenodd" d="M952.84 41.3966V34.7197H955.511V41.3966H952.84ZM952.84 50.7439V44.0671H955.511V50.7439H952.84ZM952.84 53.4146V60.0915H955.511V53.4146H952.84ZM952.84 69.439V62.7622H955.511V69.439H952.84Z" fill="#94E6FF"/>
<path d="M966.195 34.0518V38.7255" stroke="#94E6FF" stroke-width="2.67073"/>
<path d="M966.195 41.3965V46.7379" stroke="#94E6FF" stroke-width="2.67073"/>
<path d="M960.853 37.3904C960.853 35.9154 962.049 34.7196 963.524 34.7196H968.865C970.34 34.7196 971.536 35.9154 971.536 37.3904V42.7318C971.536 44.2068 970.34 45.4026 968.865 45.4026H963.524C962.049 45.4026 960.853 44.2068 960.853 42.7318V37.3904Z" stroke="#94E6FF" stroke-width="2.67073"/>
<path fill-rule="evenodd" clip-rule="evenodd" d="M237.083 272.415C266.583 272.415 290.497 248.5 290.497 219C290.497 189.5 266.583 165.585 237.083 165.585C207.583 165.585 183.668 189.5 183.668 219C183.668 248.5 207.583 272.415 237.083 272.415Z" fill="#FFC776"/>
<path d="M250.436 198.719L251.772 198.733L251.772 198.726V198.719H250.436ZM215.717 201.64V200.305H214.381V201.64H215.717ZM220.721 248.378C218.716 248.378 217.052 246.718 217.052 244.622H214.381C214.381 248.15 217.198 251.049 220.721 251.049V248.378ZM217.052 244.622V198.719H214.381V244.622H217.052ZM217.052 198.719C217.052 196.623 218.716 194.963 220.721 194.963V192.293C217.198 192.293 214.381 195.191 214.381 198.719H217.052ZM220.721 194.963H245.431V192.293H220.721V194.963ZM245.431 194.963C247.437 194.963 249.101 196.623 249.101 198.719H251.772C251.772 195.191 248.954 192.293 245.431 192.293V194.963ZM249.101 198.705L249.041 204.323L251.712 204.352L251.772 198.733L249.101 198.705ZM249.101 230.833V244.622H251.772V230.833H249.101ZM249.101 244.622C249.101 246.718 247.437 248.378 245.432 248.378V251.049C248.955 251.049 251.772 248.15 251.772 244.622H249.101ZM245.432 248.378H220.722V251.049H245.432V248.378ZM215.717 237.695H250.436V235.024H215.717V237.695ZM250.436 200.305H215.717V202.976H250.436V200.305ZM214.381 201.64V236.36H217.052V201.64H214.381Z" fill="white"/>
<path d="M230.963 197.634H237.083" stroke="white" stroke-width="2.67073" stroke-linecap="round"/>
<path fill-rule="evenodd" clip-rule="evenodd" d="M238.821 227.013L231.74 231.019V211.269C231.74 209.639 233.132 208.317 234.85 208.317H267.356C269.074 208.317 270.466 209.639 270.466 211.269V223.371C270.466 226.011 269.074 226.495 267.356 227.013H238.821Z" stroke="#9585D8" stroke-width="2.67073"/>
<path d="M235.748 220.005C243.028 219.355 249.735 214.525 248.116 212.871C246.498 211.216 238.143 217.27 240.046 220.738C241.948 224.205 248.535 219.054 248.535 219.054C248.535 219.054 247.529 223.342 253.123 220.979C258.716 218.617 258.483 217.007 258.261 219.74C258.039 222.473 261.581 221.626 265.126 220.732" stroke="#9585D8" stroke-width="2.67073" stroke-linecap="round"/>
<path d="M235.747 243.037C235.747 244.512 234.551 245.708 233.076 245.708C231.601 245.708 230.406 244.512 230.406 243.037C230.406 241.562 231.601 240.366 233.076 240.366C234.551 240.366 235.747 241.562 235.747 243.037Z" stroke="white" stroke-width="2.67073"/>
<path fill-rule="evenodd" clip-rule="evenodd" d="M54.1373 272.415C83.6374 272.415 107.552 248.5 107.552 219C107.552 189.5 83.6374 165.585 54.1373 165.585C24.6372 165.585 0.722656 189.5 0.722656 219C0.722656 248.5 24.6372 272.415 54.1373 272.415Z" fill="#87CC80"/>
<path fill-rule="evenodd" clip-rule="evenodd" d="M32.1264 245.707H77.4818C80.8083 245.707 83.5145 243.041 83.5145 239.739V205.843C83.5145 203.775 82.432 201.855 80.6574 200.769L78.9213 199.705V202.642L79.4631 202.976C80.5561 203.645 80.8436 204.585 80.8436 205.844V239.739C80.8436 241.754 79.5503 243.037 77.4817 243.037H32.1263C30.0577 243.037 28.7644 241.754 28.7644 239.739V205.844C28.7644 204.585 29.0519 203.645 30.1449 202.976L30.6879 202.641V199.705L28.9508 200.769C27.1763 201.855 26.0938 203.775 26.0938 205.843V239.739C26.0938 243.041 28.7999 245.707 32.1264 245.707ZM40.4834 193.705L52.7444 186.195C54.0071 185.422 55.6017 185.422 56.8641 186.196L69.1249 193.705H64.446L55.6698 188.287C55.141 187.963 54.4673 187.963 53.9383 188.287L45.162 193.705H40.4834Z" fill="white"/>
<path d="M28.7344 243.037L53.1525 227.513C54.1974 226.845 55.5202 226.845 56.5646 227.513L80.8772 243.037" stroke="white" stroke-width="2.67073"/>
<path d="M48.7243 229.322L28.1852 215.229L26.6742 217.431L47.2132 231.524L48.7243 229.322ZM81.4277 215.327L61.0722 229.216L62.5774 231.422L82.9329 217.533L81.4277 215.327Z" fill="white"/>
<path d="M35.4403 200.851C35.4403 199.704 35.9135 198.97 37.0364 198.97H71.2344C72.3573 198.97 72.8305 199.704 72.8305 200.851V217.665L75.5012 215.974V200.851C75.5012 198.327 73.5827 196.299 71.2344 196.299H37.0364C34.688 196.299 32.7695 198.327 32.7695 200.851V215.974L35.4403 217.563V200.851Z" fill="#FFE4B0"/>
<path d="M40.7832 213.845C48.0631 213.009 54.7697 206.799 53.1515 204.672C51.5334 202.545 43.1784 210.329 45.081 214.787C46.9836 219.245 53.5702 212.622 53.5702 212.622C53.5702 212.622 52.5647 218.135 58.158 215.098C63.7514 212.06 63.5182 209.991 63.296 213.504C63.0737 217.017 66.6161 215.929 70.1613 214.779" stroke="#FFE4B0" stroke-width="2.67073" stroke-linecap="round"/>
<path fill-rule="evenodd" clip-rule="evenodd" d="M420.028 272.415C449.528 272.415 473.443 248.5 473.443 219C473.443 189.5 449.528 165.585 420.028 165.585C390.528 165.585 366.613 189.5 366.613 219C366.613 248.5 390.528 272.415 420.028 272.415Z" fill="#A89CDF"/>
<mask id="path-71-outside-1" maskUnits="userSpaceOnUse" x="386.314" y="191.963" width="68" height="48" fill="black">
<rect fill="white" x="386.314" y="191.963" width="68" height="48"/>
<path fill-rule="evenodd" clip-rule="evenodd" d="M434.436 208.098C432.893 200.603 426.204 194.963 418.185 194.963C409.026 194.963 401.6 202.322 401.6 211.4C401.6 211.604 401.604 211.807 401.611 212.009C401.607 212.009 401.604 212.009 401.6 212.009C394.815 212.009 389.314 217.46 389.314 224.184C389.314 230.909 394.815 236.36 401.6 236.36L401.669 236.359H442.064C442.09 236.36 442.116 236.36 442.142 236.36C446.891 236.36 450.741 232.544 450.741 227.837C450.741 223.614 447.643 220.109 443.576 219.432C445.665 218.143 447.056 215.846 447.056 213.227C447.056 209.192 443.756 205.921 439.685 205.921C437.63 205.921 435.772 206.754 434.436 208.098Z"/>
</mask>
<path d="M434.436 208.098L431.82 208.636L432.822 213.506L436.329 209.981L434.436 208.098ZM401.611 212.009L401.609 214.68L404.382 214.682L404.28 211.911L401.611 212.009ZM401.6 236.36V239.03L401.607 239.03L401.6 236.36ZM401.669 236.359V233.689L401.662 233.689L401.669 236.359ZM442.064 236.359L442.087 233.689L442.075 233.689H442.064V236.359ZM443.576 219.432L442.173 217.16L436.115 220.898L443.138 222.067L443.576 219.432ZM437.052 207.559C435.255 198.832 427.48 192.293 418.185 192.293V197.634C424.927 197.634 430.531 202.374 431.82 208.636L437.052 207.559ZM418.185 192.293C407.573 192.293 398.929 200.825 398.929 211.4H404.271C404.271 203.82 410.478 197.634 418.185 197.634V192.293ZM398.929 211.4C398.929 211.637 398.934 211.872 398.942 212.107L404.28 211.911C404.274 211.741 404.271 211.571 404.271 211.4H398.929ZM401.6 214.68C401.603 214.68 401.606 214.68 401.609 214.68L401.614 209.338C401.609 209.338 401.605 209.338 401.6 209.338V214.68ZM391.985 224.184C391.985 218.958 396.267 214.68 401.6 214.68V209.338C393.362 209.338 386.644 215.962 386.644 224.184H391.985ZM401.6 233.689C396.267 233.689 391.985 229.411 391.985 224.184H386.644C386.644 232.406 393.362 239.03 401.6 239.03V233.689ZM401.662 233.689L401.592 233.689L401.607 239.03L401.677 239.03L401.662 233.689ZM442.064 233.689H401.669V239.03H442.064V233.689ZM442.142 233.689C442.123 233.689 442.105 233.689 442.087 233.689L442.04 239.03C442.074 239.03 442.108 239.031 442.142 239.031V233.689ZM448.071 227.837C448.071 231.046 445.439 233.689 442.142 233.689V239.031C448.344 239.031 453.412 234.042 453.412 227.837H448.071ZM443.138 222.067C445.955 222.536 448.071 224.959 448.071 227.837H453.412C453.412 222.27 449.331 217.682 444.014 216.798L443.138 222.067ZM444.385 213.227C444.385 214.874 443.514 216.332 442.173 217.16L444.979 221.705C447.817 219.953 449.727 216.817 449.727 213.227H444.385ZM439.685 208.592C442.303 208.592 444.385 210.69 444.385 213.227H449.727C449.727 207.695 445.208 203.251 439.685 203.251V208.592ZM436.329 209.981C437.182 209.124 438.366 208.592 439.685 208.592V203.251C436.895 203.251 434.362 204.385 432.542 206.214L436.329 209.981Z" fill="white" mask="url(#path-71-outside-1)"/>
<path fill-rule="evenodd" clip-rule="evenodd" d="M404.004 236.36H437.388L436.053 239.031H405.339L404.004 236.36Z" fill="#A89CDF"/>
<path d="M408.009 214.994H433.381V230.257C433.381 235.068 431.025 239.574 427.074 242.319L420.695 246.752L414.316 242.319C410.365 239.574 408.009 235.068 408.009 230.257V214.994Z" stroke="#94E6FF" stroke-width="2.67073"/>
<path fill-rule="evenodd" clip-rule="evenodd" d="M420.346 221.597C421.353 222.586 422.33 223.886 423.181 225.363C423.927 226.656 424.57 228.219 425.064 230.029C425.094 230.019 425.125 230.009 425.155 229.999C425.732 229.806 426.176 229.581 426.474 229.346C426.821 229.071 426.926 228.841 426.926 228.613C426.926 228.385 426.744 228.007 425.931 227.802C425.207 225.882 424.274 224.554 424.274 224.554C424.392 224.571 424.495 224.586 424.588 224.599C425.17 224.682 425.331 224.705 425.931 224.906C426.759 225.183 427.452 225.533 427.993 225.961C428.942 226.711 429.374 227.654 429.374 228.613C429.374 229.572 428.942 230.515 427.993 231.266C427.452 231.694 426.759 232.044 425.932 232.32C424.493 232.802 422.651 233.061 420.721 233.061C419.057 233.061 417.301 232.865 415.909 232.522C415.796 233.096 415.771 233.575 415.825 233.94C415.889 234.379 416.034 234.585 416.232 234.699C416.33 234.756 416.441 234.785 416.577 234.785C417.063 234.785 417.485 234.784 418.346 233.94C418.936 234.293 421.351 234.293 421.351 234.293C421.081 234.635 420.908 234.79 420.699 234.976C420.595 235.069 420.483 235.169 420.346 235.304C419.071 236.555 417.82 237.233 416.577 237.233C416.016 237.233 415.482 237.094 415.006 236.818C414.176 236.339 413.577 235.492 413.402 234.293C413.302 233.611 413.346 232.836 413.521 231.98C413.823 230.491 414.521 228.765 415.485 227.092C416.238 225.786 417.317 224.359 418.481 223.2C417.689 222.456 417.035 222.116 416.578 222.116C416.441 222.116 416.33 222.145 416.231 222.202C416.035 222.316 415.889 222.522 415.825 222.961C415.77 223.337 415.792 223.723 415.914 224.321C414.91 225.363 414.155 226.807 414.155 226.807C414.111 226.696 414.07 226.593 414.031 226.497C413.79 225.896 413.647 225.543 413.521 224.921C413.347 224.065 413.303 223.29 413.403 222.607C413.577 221.409 414.176 220.562 415.006 220.083C415.482 219.808 416.016 219.668 416.578 219.668C417.821 219.668 419.072 220.346 420.346 221.597ZM422.657 230.511C422.225 228.972 421.678 227.658 421.06 226.585C420.749 226.045 420.42 225.535 420.082 225.063C419.128 226.037 418.228 227.236 417.606 228.315C417.245 228.942 416.928 229.573 416.664 230.186C417.811 230.449 419.308 230.612 420.721 230.612C421.389 230.612 422.04 230.577 422.657 230.511Z" fill="#94E6FF"/>
<path fill-rule="evenodd" clip-rule="evenodd" d="M601.637 272.415C631.137 272.415 655.052 248.5 655.052 219C655.052 189.5 631.137 165.585 601.637 165.585C572.137 165.585 548.223 189.5 548.223 219C548.223 248.5 572.137 272.415 601.637 272.415Z" fill="#87CC80"/>
<path d="M632.35 220.335C632.35 237.298 618.599 251.049 601.637 251.049C584.674 251.049 570.923 237.298 570.923 220.335C570.923 203.373 584.674 189.622 601.637 189.622C618.599 189.622 632.35 203.373 632.35 220.335Z" stroke="white" stroke-width="2.67073"/>
<path d="M620.331 213.659C620.331 211.446 618.537 209.653 616.325 209.653H586.946C584.734 209.653 582.94 211.446 582.94 213.659V227.013C582.94 229.225 584.734 231.019 586.947 231.019H616.325C618.537 231.019 620.331 229.225 620.331 227.013V213.659Z" stroke="#FFE4B0" stroke-width="2.67073"/>
<path fill-rule="evenodd" clip-rule="evenodd" d="M590.953 224.341C590.215 224.341 589.617 223.743 589.617 223.006V217.664C589.617 216.927 590.215 216.329 590.953 216.329H596.294C597.032 216.329 597.629 216.927 597.629 217.664V223.006C597.629 223.743 597.032 224.341 596.294 224.341H590.953Z" stroke="#FFE4B0" stroke-width="2.67073" stroke-linecap="round"/>
<path fill-rule="evenodd" clip-rule="evenodd" d="M589.617 219V221.671H592.288V219H589.617ZM594.959 219V221.671H597.629V219H594.959Z" fill="#FFE4B0"/>
<path d="M578.936 189.622H590.954V201.64" stroke="white" stroke-width="2.67073"/>
<path fill-rule="evenodd" clip-rule="evenodd" d="M592.289 188.287H601.637V193.628H592.289V188.287Z" fill="#87CC80"/>
<path d="M624.338 251.049H612.32V239.031" stroke="white" stroke-width="2.67073"/>
<path fill-rule="evenodd" clip-rule="evenodd" d="M610.984 252.384H601.637V247.043H610.984V252.384Z" fill="#87CC80"/>
<path fill-rule="evenodd" clip-rule="evenodd" d="M785.919 273.75C815.419 273.75 839.333 249.836 839.333 220.336C839.333 190.835 815.419 166.921 785.919 166.921C756.418 166.921 732.504 190.835 732.504 220.336C732.504 249.836 756.418 273.75 785.919 273.75Z" fill="#A89CDF"/>
<mask id="path-88-inside-2" fill="white">
<path fill-rule="evenodd" clip-rule="evenodd" d="M759.213 198.97C756.263 198.97 753.871 201.361 753.871 204.311V236.36C753.871 239.31 756.263 241.701 759.213 241.701H807.317L823.31 225.708V204.311C823.31 201.361 820.919 198.97 817.969 198.97H759.213Z"/>
</mask>
<path d="M807.317 241.701V244.372H808.423L809.205 243.59L807.317 241.701ZM823.31 225.708L825.199 227.596L825.981 226.814V225.708H823.31ZM756.542 204.311C756.542 202.836 757.738 201.64 759.213 201.64V196.299C754.788 196.299 751.2 199.886 751.2 204.311H756.542ZM756.542 236.36V204.311H751.2V236.36H756.542ZM759.213 239.031C757.738 239.031 756.542 237.835 756.542 236.36H751.2C751.2 240.785 754.788 244.372 759.213 244.372V239.031ZM807.317 239.031H759.213V244.372H807.317V239.031ZM809.205 243.59L825.199 227.596L821.422 223.819L805.428 239.813L809.205 243.59ZM820.639 204.311V225.708H825.981V204.311H820.639ZM817.969 201.64C819.444 201.64 820.639 202.836 820.639 204.311H825.981C825.981 199.886 822.394 196.299 817.969 196.299V201.64ZM759.213 201.64H817.969V196.299H759.213V201.64Z" fill="white" mask="url(#path-88-inside-2)"/>
<path d="M821.975 206.982H755.875" stroke="white" stroke-width="2.67073" stroke-linecap="square"/>
<path d="M807.285 239.03V228.219C807.285 226.815 808.467 225.677 809.925 225.677H820.639" stroke="white" stroke-width="2.67073"/>
<path fill-rule="evenodd" clip-rule="evenodd" d="M784.584 231.019H807.285V233.689H784.584V231.019Z" fill="white"/>
<path fill-rule="evenodd" clip-rule="evenodd" d="M784.635 221.671H801.995V224.342H784.635V221.671Z" fill="white"/>
<path fill-rule="evenodd" clip-rule="evenodd" d="M752.535 239.031V237.695L757.877 229.683L768.56 213.659L781.913 233.689L787.255 244.372L753.871 243.037L752.535 239.031Z" fill="#A89CDF"/>
<path fill-rule="evenodd" clip-rule="evenodd" d="M756.187 245.707C755.159 245.707 754.516 244.593 755.032 243.703L767.404 222.332C767.919 221.443 769.201 221.443 769.716 222.332L782.089 243.703C782.604 244.593 781.962 245.707 780.933 245.707H756.187Z" stroke="#94E6FF" stroke-width="2.67073"/>
<path fill-rule="evenodd" clip-rule="evenodd" d="M767.225 231.018C767.225 230.281 767.822 229.683 768.56 229.683C769.297 229.683 769.895 230.281 769.895 231.018V236.36C769.895 237.097 769.297 237.695 768.56 237.695C767.822 237.695 767.225 237.097 767.225 236.36V231.018Z" fill="#94E6FF"/>
<path fill-rule="evenodd" clip-rule="evenodd" d="M767.225 240.366C767.225 239.629 767.822 239.031 768.56 239.031C769.297 239.031 769.895 239.629 769.895 240.366C769.895 241.104 769.297 241.701 768.56 241.701C767.822 241.701 767.225 241.104 767.225 240.366Z" fill="#94E6FF"/>
<path fill-rule="evenodd" clip-rule="evenodd" d="M785.919 438C815.419 438 839.333 414.086 839.333 384.586C839.333 355.085 815.419 331.171 785.919 331.171C756.418 331.171 732.504 355.085 732.504 384.586C732.504 414.086 756.418 438 785.919 438Z" fill="#F5828E"/>
<path d="M769.894 365.891H795.266V372.567H769.894V365.891Z" stroke="#F9CF91" stroke-width="2.67073"/>
<path d="M768.559 379.244H796.601" stroke="#F9CF91" stroke-width="2.67073"/>
<path d="M768.559 385.921H788.589" stroke="#F9CF91" stroke-width="2.67073"/>
<path d="M768.559 392.598H779.242" stroke="#F9CF91" stroke-width="2.67073"/>
<path d="M768.559 399.274H779.242" stroke="#F9CF91" stroke-width="2.67073"/>
<path fill-rule="evenodd" clip-rule="evenodd" d="M804.614 385.921V359.214C804.614 357.704 803.483 356.543 801.943 356.543H763.218C761.677 356.543 760.547 357.704 760.547 359.214V405.952C760.547 407.461 761.677 408.622 763.218 408.622H785.919V396.604H796.602V385.921H804.614Z" stroke="white" stroke-width="2.67073"/>
<path d="M804.613 404.616H805.949V403.281V395.268H813.961C814.698 395.268 815.296 395.866 815.296 396.604V411.293C815.296 412.768 814.1 413.964 812.625 413.964H797.936C797.199 413.964 796.601 413.366 796.601 412.628V404.616H804.613Z" stroke="white" stroke-width="2.67073"/>
<path fill-rule="evenodd" clip-rule="evenodd" d="M602.973 438C632.473 438 656.388 414.086 656.388 384.586C656.388 355.085 632.473 331.171 602.973 331.171C573.473 331.171 549.559 355.085 549.559 384.586C549.559 414.086 573.473 438 602.973 438Z" fill="#A89CDF"/>
<path d="M576.155 399.566C576.515 400.21 577.329 400.44 577.973 400.08C578.616 399.719 578.846 398.906 578.486 398.262L576.155 399.566ZM616.357 359.937C617.005 360.289 617.815 360.05 618.168 359.402C618.52 358.754 618.281 357.943 617.633 357.591L616.357 359.937ZM629.711 369.462C629.347 368.82 628.532 368.595 627.891 368.959C627.249 369.322 627.024 370.137 627.388 370.779L629.711 369.462ZM589.591 409.235C588.943 408.883 588.132 409.122 587.779 409.77C587.427 410.418 587.666 411.229 588.314 411.581L589.591 409.235ZM612.026 405.497C612.705 405.211 613.023 404.427 612.736 403.748C612.45 403.068 611.666 402.75 610.987 403.037L612.026 405.497ZM585.238 374.975C585.58 374.321 585.327 373.514 584.673 373.173C584.02 372.831 583.213 373.084 582.871 373.737L585.238 374.975ZM591.631 364.848C590.989 365.212 590.765 366.027 591.13 366.668C591.494 367.31 592.31 367.534 592.951 367.169L591.631 364.848ZM621.736 391.838C621.478 392.53 621.83 393.299 622.521 393.556C623.212 393.813 623.981 393.462 624.239 392.771L621.736 391.838ZM602.974 353.873C586.011 353.873 572.26 367.623 572.26 384.586H574.931C574.931 369.098 587.486 356.543 602.974 356.543V353.873ZM572.26 384.586C572.26 390.023 573.674 395.134 576.155 399.566L578.486 398.262C576.222 394.218 574.931 389.555 574.931 384.586H572.26ZM617.633 357.591C613.275 355.219 608.28 353.873 602.974 353.873V356.543C607.823 356.543 612.381 357.773 616.357 359.937L617.633 357.591ZM602.974 415.299C619.936 415.299 633.687 401.548 633.687 384.586H631.016C631.016 400.073 618.461 412.629 602.974 412.629V415.299ZM633.687 384.586C633.687 379.09 632.242 373.928 629.711 369.462L627.388 370.779C629.697 374.853 631.016 379.564 631.016 384.586H633.687ZM588.314 411.581C592.672 413.953 597.667 415.299 602.974 415.299V412.629C598.124 412.629 593.566 411.399 589.591 409.235L588.314 411.581ZM580.272 384.36C580.272 397.02 590.512 407.287 603.15 407.287V404.616C591.993 404.616 582.943 395.55 582.943 384.36H580.272ZM603.15 407.287C606.295 407.287 609.295 406.65 612.026 405.497L610.987 403.037C608.579 404.054 605.932 404.616 603.15 404.616V407.287ZM582.871 373.737C581.211 376.915 580.272 380.53 580.272 384.36H582.943C582.943 380.97 583.773 377.779 585.238 374.975L582.871 373.737ZM625.675 384.764C625.675 372.132 615.466 361.885 602.865 361.885V364.555C613.983 364.555 623.004 373.599 623.004 384.764H625.675ZM602.865 361.885C598.783 361.885 594.948 362.961 591.631 364.848L592.951 367.169C595.876 365.506 599.258 364.555 602.865 364.555V361.885ZM624.239 392.771C625.168 390.277 625.675 387.578 625.675 384.764H623.004C623.004 387.255 622.555 389.638 621.736 391.838L624.239 392.771Z" fill="white"/>
<path d="M613.879 384.363C613.879 390.509 608.896 395.491 602.751 395.491C596.605 395.491 591.622 390.509 591.622 384.363C591.622 378.217 596.605 373.235 602.751 373.235C608.896 373.235 613.879 378.217 613.879 384.363Z" stroke="#9CD9EB" stroke-width="2.67073"/>
<path d="M611.146 392.203L618.763 399.82" stroke="#9CD9EB" stroke-width="2.67073" stroke-linecap="round"/>
<path fill-rule="evenodd" clip-rule="evenodd" d="M237.083 438C266.583 438 290.497 414.086 290.497 384.586C290.497 355.085 266.583 331.171 237.083 331.171C207.583 331.171 183.668 355.085 183.668 384.586C183.668 414.086 207.583 438 237.083 438Z" fill="#87CC80"/>
<path d="M230.463 366.238L228.409 362.503L227.264 360.549L226.109 362.497L215.02 381.192L213.824 383.208H216.169H220.102L218.938 381.218L212.169 393.236L211.047 395.227H213.332H218.588L217.442 393.206L210.252 405.224L209.043 407.245H211.398H225.049L225.076 404.574H211.398L212.544 406.595L219.734 394.577L220.943 392.556H218.588H213.332L214.495 394.547L221.265 382.528L222.386 380.538H220.102H216.169L217.317 382.554L228.406 363.859L226.105 363.853L228.941 368.691L230.463 366.238Z" fill="#FFDDAA"/>
<path fill-rule="evenodd" clip-rule="evenodd" d="M246.204 367.507L241.868 359.918L233.374 373.721H237.9L233.894 376.124H229.072L241.944 355.208L248.291 366.314L246.204 367.507ZM252.215 379.543L257.664 386.807H251.961L258.638 398.825H248.583L249.919 396.422H254.553L247.876 384.403H252.856L250.292 380.985L252.215 379.543Z" fill="#FFDDAA"/>
<path d="M239.895 411.426C240.943 407.749 244.101 405.035 247.901 404.558V411.426H239.895Z" stroke="#FFDDAA" stroke-width="2.40366"/>
<path d="M233.38 383.177C235.965 388.366 240.046 392.673 245.108 395.533C241.553 401.333 235.395 405.036 228.62 405.469L228.62 403.148C228.62 398.579 227.257 394.12 224.716 390.339L233.38 383.177Z" stroke="white" stroke-width="2.67073"/>
<path d="M222.809 387.036L255.777 368.515C256.29 368.227 256.939 368.407 257.229 368.918L260.032 373.846C260.409 374.508 259.992 375.34 259.236 375.434L252.123 376.323L251.871 376.355L251.648 376.477L225.104 391.011L222.809 387.036Z" fill="#87CC80" stroke="white" stroke-width="2.67073"/>
<path fill-rule="evenodd" clip-rule="evenodd" d="M968.864 273.75C998.364 273.75 1022.28 249.836 1022.28 220.336C1022.28 190.835 998.364 166.921 968.864 166.921C939.364 166.921 915.449 190.835 915.449 220.336C915.449 249.836 939.364 273.75 968.864 273.75Z" fill="#6A7A87"/>
<path d="M946.162 196.299H991.565V200.305C988.615 200.305 986.223 202.696 986.223 205.646V237.695C986.223 240.645 988.615 243.037 991.565 243.037V247.043H946.162L946.162 243.037C949.112 243.037 951.504 240.645 951.504 237.695V205.646C951.504 202.696 949.112 200.305 946.162 200.305L946.162 196.299Z" stroke="white" stroke-width="2.67073"/>
<path fill-rule="evenodd" clip-rule="evenodd" d="M965.413 226.487C967.383 228.457 970.578 228.457 972.548 226.487C974.518 224.516 974.121 221.651 972.548 219.351C971.831 218.303 968.98 214.663 968.98 214.663C968.98 214.663 966.258 218.109 965.413 219.351C963.846 221.655 963.443 224.516 965.413 226.487Z" stroke="#C9BFFF" stroke-width="2.67073"/>
<path d="M952.172 205.646H985.556" stroke="white" stroke-width="2.67073" stroke-linecap="square"/>
<path d="M953.508 237.695H984.221" stroke="white" stroke-width="2.67073" stroke-linecap="square"/>
<path fill-rule="evenodd" clip-rule="evenodd" d="M420.028 438C449.528 438 473.443 414.086 473.443 384.586C473.443 355.085 449.528 331.171 420.028 331.171C390.528 331.171 366.613 355.085 366.613 384.586C366.613 414.086 390.528 438 420.028 438Z" fill="#F9C274"/>
<path fill-rule="evenodd" clip-rule="evenodd" d="M421.363 363.406V354.732C421.363 353.731 420.302 353.086 419.413 353.546L402.054 362.528C401.61 362.758 401.332 363.215 401.332 363.714V375.088L404.201 376.574V364.823L418.505 357.302V364.885L412.737 367.87C412.293 368.099 412.015 368.557 412.015 369.056V380.429L414.884 381.915V370.165L429.188 362.644V370.887L422.086 374.547C421.642 374.776 421.363 375.234 421.363 375.734V385.771L422.698 386.589L424.232 385.921V376.842L441.207 367.985V376.892L444.064 375.406V365.411C444.064 364.411 443.005 363.766 442.117 364.224L432.045 369.414V360.073C432.045 359.072 430.985 358.427 430.096 358.887L421.363 363.406Z" fill="#D7EAD5"/>
<mask id="path-128-inside-3" fill="white">
<path fill-rule="evenodd" clip-rule="evenodd" d="M401.332 392.814V405.209L423.366 416.635L445.399 405.209V392.598"/>
</mask>
<path d="M401.332 405.209H398.661V406.832L400.103 407.58L401.332 405.209ZM423.366 416.635L422.136 419.006L423.366 419.643L424.595 419.006L423.366 416.635ZM445.399 405.209L446.629 407.58L448.07 406.832V405.209H445.399ZM398.661 392.814V405.209H404.003V392.814H398.661ZM400.103 407.58L422.136 419.006L424.595 414.264L402.561 402.838L400.103 407.58ZM424.595 419.006L446.629 407.58L444.17 402.838L422.136 414.264L424.595 419.006ZM448.07 405.209V392.598H442.728V405.209H448.07Z" fill="white" mask="url(#path-128-inside-3)"/>
<path d="M422.699 391.263V412.629" stroke="white" stroke-width="2.67073" stroke-linecap="square"/>
<path d="M390.79 386.37L400.937 380.761L422.557 392.149L412.411 397.757L390.79 386.37Z" stroke="white" stroke-width="2.67073"/>
<path d="M454.606 386.37L444.46 380.761L422.839 392.149L432.986 397.757L454.606 386.37Z" stroke="white" stroke-width="2.67073"/>
<path fill-rule="evenodd" clip-rule="evenodd" d="M54.1373 438C83.6374 438 107.552 414.086 107.552 384.586C107.552 355.085 83.6374 331.171 54.1373 331.171C24.6372 331.171 0.722656 355.085 0.722656 384.586C0.722656 414.086 24.6372 438 54.1373 438Z" fill="#61CAE7"/>
<path fill-rule="evenodd" clip-rule="evenodd" d="M31.3356 399.876C33.5665 402.107 37.1835 402.107 39.4144 399.876C41.6452 397.645 41.1953 394.401 39.4144 391.797C38.6024 390.61 35.375 386.488 35.375 386.488C35.375 386.488 32.2921 390.391 31.3356 391.797C29.5613 394.406 29.1048 397.645 31.3356 399.876Z" stroke="#BCEFFF" stroke-width="2.67073"/>
<path d="M48.7963 408.177C48.7963 403.561 52.3098 399.765 56.8085 399.319V409.958H50.5768C49.5935 409.958 48.7963 409.161 48.7963 408.177Z" stroke="white" stroke-width="2.67073"/>
<path d="M31.435 377.909V370.565C31.435 361.346 38.9083 353.872 48.127 353.872C57.3458 353.872 64.8191 361.346 64.8191 370.565V409.958H56.8069V370.565C56.8069 365.771 52.9208 361.885 48.127 361.885C43.3333 361.885 39.4472 365.771 39.4472 370.565V377.909H31.435Z" stroke="white" stroke-width="2.67073"/>
<path d="M56.808 399.275H79.5092V409.958H56.808V399.275Z" stroke="white" stroke-width="2.67073"/>
<path fill-rule="evenodd" clip-rule="evenodd" d="M968.864 438C998.364 438 1022.28 414.086 1022.28 384.586C1022.28 355.085 998.364 331.171 968.864 331.171C939.364 331.171 915.449 355.085 915.449 384.586C915.449 414.086 939.364 438 968.864 438Z" fill="#A89CDF"/>
<path d="M999.577 384.585C999.577 401.548 985.826 415.299 968.863 415.299C951.901 415.299 938.15 401.548 938.15 384.585C938.15 367.623 951.901 353.872 968.863 353.872C985.826 353.872 999.577 367.623 999.577 384.585Z" stroke="white" stroke-width="2.67073"/>
<path d="M947.496 353.873H958.179V364.555" stroke="white" stroke-width="2.67073"/>
<path fill-rule="evenodd" clip-rule="evenodd" d="M959.514 352.537H968.861V357.879H959.514V352.537Z" fill="#A89CDF"/>
<path d="M990.229 415.299H979.546V404.616" stroke="white" stroke-width="2.67073"/>
<path fill-rule="evenodd" clip-rule="evenodd" d="M978.211 416.634H968.863V411.293H978.211V416.634Z" fill="#A89CDF"/>
<path d="M955.511 372.567H980.883V387.31C980.883 391.533 978.667 395.445 975.045 397.617L968.197 401.724L961.349 397.617C957.727 395.445 955.511 391.533 955.511 387.31V372.567Z" stroke="#94E6FF" stroke-width="2.67073"/>
<path d="M962.989 383.33C962.024 385.003 961.327 386.729 961.024 388.218C960.85 389.074 960.806 389.849 960.906 390.532C961.081 391.73 961.68 392.577 962.51 393.056C962.985 393.332 963.52 393.471 964.081 393.471C965.324 393.471 966.575 392.793 967.85 391.542C968.265 391.134 968.451 391.043 968.855 390.532C968.855 390.532 966.44 390.532 965.85 390.178C964.989 391.022 964.566 391.023 964.081 391.023C963.945 391.023 963.834 390.994 963.735 390.937C963.538 390.823 963.393 390.617 963.328 390.178C963.274 389.802 963.302 389.304 963.423 388.706C963.67 387.496 964.269 386.011 965.11 384.553C965.931 383.129 967.237 381.496 968.51 380.447L966.953 378.558C965.433 379.81 963.947 381.668 962.989 383.33Z" fill="#94E6FF"/>
<path d="M968.225 389.298C970.155 389.298 971.996 389.04 973.435 388.558C974.263 388.281 974.955 387.931 975.496 387.504C976.445 386.753 976.878 385.81 976.878 384.851C976.878 383.892 976.445 382.949 975.496 382.198C974.955 381.771 974.263 381.421 973.435 381.144C972.738 380.91 972.633 380.917 971.777 380.792C971.777 380.792 972.71 382.12 973.435 384.04C974.248 384.245 974.43 384.623 974.43 384.851C974.43 385.079 974.324 385.309 973.977 385.584C973.68 385.819 973.235 386.044 972.658 386.237C971.489 386.628 969.906 386.85 968.225 386.85C966.266 386.85 964.144 386.536 963.022 386.079L962.099 388.346C963.556 388.94 965.976 389.298 968.225 389.298Z" fill="#94E6FF"/>
<path d="M970.684 381.601C969.833 380.123 968.857 378.824 967.85 377.835C966.576 376.584 965.325 375.906 964.081 375.906C963.52 375.906 962.986 376.045 962.51 376.321C961.68 376.8 961.081 377.647 960.906 378.845C960.806 379.528 960.85 380.303 961.024 381.159C961.171 381.88 961.339 382.241 961.658 383.044C961.658 383.044 962.414 381.601 963.417 380.559C963.296 379.961 963.274 379.575 963.328 379.199C963.393 378.76 963.538 378.554 963.735 378.44C963.834 378.383 963.945 378.354 964.081 378.354C964.567 378.354 965.275 378.738 966.135 379.582C966.974 380.406 967.818 381.529 968.563 382.823C969.346 384.18 970.014 385.925 970.479 388.021L972.869 387.491C972.351 385.155 971.593 383.177 970.684 381.601Z" fill="#94E6FF"/>
</svg>
