<svg width="636" height="195" viewBox="0 0 636 195" fill="none" xmlns="http://www.w3.org/2000/svg">
<path opacity="0.5" d="M0.333984 76.4436C0.333984 69.9347 5.61051 64.6582 12.1194 64.6582H12.5015C19.0104 64.6582 24.2869 69.9347 24.2869 76.4436C24.2869 82.9526 19.0104 88.2291 12.5015 88.2291H12.1194C5.61052 88.2291 0.333984 82.9526 0.333984 76.4436Z"/>
<path d="M0.333984 117.59C0.333984 111.081 5.61051 105.805 12.1194 105.805H12.5015C19.0104 105.805 24.2869 111.081 24.2869 117.59C24.2869 124.099 19.0104 129.376 12.5015 129.376H12.1194C5.61052 129.376 0.333984 124.099 0.333984 117.59Z" fill="#B9BDC2" fill-opacity="0.275362"/>
<path d="M33.5471 122.358C34.0497 122.358 34.4729 121.935 34.4729 121.433C34.4729 120.93 34.0497 120.507 33.5471 120.507C33.0445 120.507 32.6213 120.93 32.6213 121.433C32.6213 121.935 33.0445 122.358 33.5471 122.358ZM39.1959 122.372C41.1666 122.372 42.5552 121.221 42.5552 119.383C42.5552 117.584 41.2195 116.539 39.7382 116.539C38.8918 116.539 38.1644 116.883 37.7411 117.306V114.754H41.9733V113.391H36.1937V118.325L37.2915 118.642C37.8469 118.113 38.4685 117.875 39.2224 117.875C40.3069 117.875 40.9946 118.497 40.9946 119.449C40.9946 120.308 40.2937 120.996 39.1827 120.996C38.1908 120.996 37.3973 120.626 36.8021 119.951L35.916 121.009C36.6302 121.856 37.675 122.372 39.1959 122.372ZM49.5993 122.213L47.2451 118.933L49.4538 115.825H47.8932L46.3855 117.994L44.8645 115.825H43.3039L45.5126 118.933L43.1717 122.213H44.7191L46.3855 119.859L48.0387 122.213H49.5993Z" fill="#A7B5C0"/>
<path d="M40.8354 78.1279V69.3065H39.4864L36.9471 71.8722L37.8464 72.8113L39.288 71.3168V78.1279H40.8354ZM48.2666 78.1279L45.9125 74.848L48.1211 71.74H46.5605L45.0528 73.909L43.5319 71.74H41.9712L44.1799 74.848L41.839 78.1279H43.3864L45.0528 75.7738L46.706 78.1279H48.2666Z" fill="#A7B5C0"/>
<path d="M88.6641 68.8855H632.958" stroke="#6A7A87" stroke-width="0.666667"/>
<path d="M88.6641 39.2947H632.958" stroke="#6A7A87" stroke-width="0.666667" stroke-dasharray="1.47"/>
<path d="M88.6641 155.235H632.958" stroke="#6A7A87" stroke-width="0.666667" stroke-dasharray="1.47"/>
<path d="M88.6641 112.695H634.426" stroke="#6A7A87" stroke-width="0.666667"/>
<path d="M330.6 150.114L371.642 55.5889" stroke="#6A7A87" stroke-width="0.666667" stroke-dasharray="1.48"/>
<path d="M318.891 193.742L319.119 193.216" stroke="#231F20" stroke-width="0.666667"/>
<path d="M320.104 191.203L395.295 18" stroke="#6A7A87" stroke-width="0.666667" stroke-dasharray="1.48"/>
<path d="M117.334 107.4L156.497 18" stroke="#6A7A87" stroke-width="0.666667" stroke-dasharray="1.48"/>
<path d="M395.691 16.847L395.919 16.3213" stroke="#231F20" stroke-width="0.666667"/>
<path d="M555.708 193.742L555.48 193.216" stroke="#231F20" stroke-width="0.666667"/>
<path d="M547.788 174.831L494.895 52.9912" stroke="#6A7A87" stroke-width="0.666667" stroke-dasharray="1.48"/>
<path d="M199.647 108.599L172.047 44.9994" stroke="#6A7A87" stroke-width="0.666667" stroke-dasharray="1.48"/>
<path d="M201.334 131.4H139.646" stroke="#6A7A87" stroke-width="0.666667" stroke-dasharray="1.48"/>
<path d="M478.921 16.847L478.693 16.3213" stroke="#231F20" stroke-width="0.666667"/>
<path d="M555.708 12.8695L555.48 12.3438" stroke="#231F20" stroke-width="0.666667"/>
<path fill-rule="evenodd" clip-rule="evenodd" d="M126.871 41.4316C129.396 39.9816 132.261 39.232 135.171 39.26L135.137 39.1914C142.616 39.1914 151.087 43.8318 160.322 52.9068C169.233 61.9587 176.901 72.1596 183.125 83.2407C188.217 91.9866 192.441 101.213 195.735 110.786C206.783 107.437 213.715 102.591 213.715 97.2075C213.715 90.7842 203.876 85.138 188.963 81.8692L188.119 80.3947C186.234 77.1259 184.284 73.9676 182.27 70.9197C188.535 71.7849 194.711 73.2 200.729 75.1486C205.985 76.7631 210.928 79.2639 215.345 82.5435C221.947 87.7325 223.326 93.3787 223.326 97.1961C223.326 101.014 221.901 106.66 215.345 111.849C210.928 115.129 205.985 117.629 200.729 119.244C189.441 123.027 174.631 125.107 159.011 125.107C148.913 125.151 138.836 124.202 128.923 122.272C126.289 133.542 127.008 141.988 131.659 144.686C132.731 145.287 133.943 145.59 135.171 145.566C140.872 145.566 148.932 140.057 157.301 130.845H159.011C162.774 130.845 166.471 130.73 170.105 130.502C167.089 134.361 163.833 138.026 160.357 141.474C151.133 150.618 142.65 155.189 135.171 155.189C132.265 155.216 129.404 154.466 126.882 153.018C123.576 151.109 119.392 147.086 118.183 138.799C117.559 133.323 117.872 127.781 119.107 122.41C121.478 110.694 127.087 96.8189 134.897 83.2636C139.897 74.4661 145.752 66.1852 152.376 58.5415C145.82 52.3925 139.732 48.8493 135.171 48.8493C133.943 48.8246 132.731 49.1284 131.659 49.7294C126.118 52.9411 126.164 64.302 130.781 78.8746L129.938 80.3147C128.045 83.5988 126.286 86.8829 124.659 90.167C122.279 84.2993 120.417 78.2336 119.095 72.0398C117.86 66.6688 117.548 61.1261 118.172 55.6499C119.38 47.3635 123.576 43.3403 126.871 41.4316ZM131.614 113.003C140.637 114.692 149.798 115.522 158.977 115.483C168.155 115.525 177.317 114.698 186.34 113.014C180.135 95.6427 170.867 79.5303 158.977 65.4447C147.085 79.5245 137.817 95.6337 131.614 113.003Z" fill="#B9BDC2"/>
<path opacity="0.5" d="M195.152 39.2939H252.98V155.223H195.152V39.2939Z"/>
<path opacity="0.5" d="M527.887 83.7617H633.354V112.13H527.887V83.7617Z"/>
<path d="M223.699 1.46973H253.514V192.091H223.699V1.46973Z" fill="#B9BDC2" fill-opacity="0.123188"/>
<path d="M195.305 191.821V1.2002" stroke="#6A7A87" stroke-width="0.666667" stroke-dasharray="1.47"/>
<path d="M604.506 191.821V1.2002" stroke="#6A7A87" stroke-width="0.666667" stroke-dasharray="1.47"/>
<path d="M117.863 191.467V0.845703" stroke="#6A7A87" stroke-width="0.666667" stroke-dasharray="1.47"/>
<path d="M253.117 191.467V0.845703" stroke="#6A7A87" stroke-width="0.666667" stroke-dasharray="1.47"/>
<path d="M223.303 191.467V0.845703" stroke="#6A7A87" stroke-width="0.666667"/>
<path d="M421.505 112.695H414.116V110.123C411.512 112.437 408.144 113.7 404.665 113.666C401.022 113.801 397.502 112.341 395.019 109.666C392.579 107.022 391.359 103.479 391.359 99.0364V82.2236H398.747V98.5907C398.747 103.814 401.575 106.9 406.204 106.9C409.1 106.9 411.734 105.414 414.105 102.385V82.2236H421.493L421.505 112.695Z" fill="#B9BDC2"/>
<path d="M454.19 85.2412C456.63 87.8852 457.85 91.4284 457.85 95.8706V112.683H450.462V96.3164C450.462 90.9674 447.635 88.0072 443.006 88.0072C440.178 88.0072 437.544 89.493 435.162 92.3847V112.683H427.705V82.2124H435.162V84.7269C437.775 82.4877 441.107 81.27 444.545 81.298C448.185 81.1602 451.706 82.616 454.19 85.2869" fill="#B9BDC2"/>
<path d="M485.284 101.334H492.866C492.459 104.788 490.704 107.94 487.986 110.101C485.145 112.37 481.595 113.556 477.964 113.449C473.67 113.55 469.519 111.9 466.46 108.878C460.287 102.559 460.287 92.4516 466.46 86.1329C469.518 83.1091 473.67 81.4592 477.964 81.5611C481.585 81.4894 485.115 82.704 487.929 84.9899C490.684 87.099 492.469 90.237 492.877 93.6878H485.295C484.588 90.4075 481.761 88.3388 477.964 88.3388C472.822 88.3388 469.219 92.3277 469.219 97.551C469.219 102.774 472.822 106.763 477.964 106.763C481.761 106.763 484.588 104.637 485.295 101.346" fill="#B9BDC2"/>
<path d="M520.399 112.375C517.946 113.164 515.393 113.599 512.817 113.666C505.554 113.666 501.051 108.774 501.051 100.968V88.4641H494.176V82.2121H501.017V71.0684H508.405V82.2121H519.658V88.4641H508.405V100.968C508.405 104.831 510.331 106.763 514.185 106.763C515.379 106.766 516.569 106.628 517.731 106.351L520.399 112.375Z" fill="#B9BDC2"/>
<path fill-rule="evenodd" clip-rule="evenodd" d="M531.193 67.9371C530.323 67.0778 529.145 66.6042 527.924 66.6226C526.703 66.6042 525.525 67.0778 524.655 67.9371C523.785 68.7965 523.295 69.9699 523.295 71.1944C523.295 73.7572 525.367 75.8348 527.924 75.8348C530.48 75.8348 532.553 73.7572 532.553 71.1944C532.553 69.9699 532.063 68.7965 531.193 67.9371ZM524.264 112.695H531.652V82.2238H524.264V112.695Z" fill="#B9BDC2"/>
<path fill-rule="evenodd" clip-rule="evenodd" d="M540.887 109.083C547.375 115.186 557.476 115.186 563.964 109.083C567.037 106.022 568.713 101.824 568.593 97.4825C568.717 93.1904 567.038 89.0431 563.964 86.053C560.918 83.0098 556.758 81.3565 552.46 81.4812C548.144 81.3737 543.969 83.0231 540.887 86.053C537.813 89.0431 536.134 93.1904 536.258 97.4825C536.139 101.824 537.814 106.022 540.887 109.083ZM543.658 97.4822C543.658 92.2589 547.249 88.27 552.46 88.27C557.602 88.27 561.205 92.2589 561.205 97.4822C561.263 99.9433 560.391 102.336 558.765 104.18C557.169 105.978 554.859 106.97 552.46 106.889C550.047 106.956 547.725 105.967 546.098 104.18C544.471 102.336 543.6 99.9433 543.658 97.4822Z" fill="#B9BDC2"/>
<path d="M599.706 85.2412C602.146 87.8852 603.366 91.4284 603.366 95.8706V112.683H595.978V96.3164C595.978 90.9674 593.15 88.0072 588.521 88.0072C585.694 88.0072 583.06 89.493 580.677 92.3847V112.683H573.221V82.2124H580.677V84.7269C583.291 82.4877 586.623 81.27 590.06 81.298C593.701 81.1602 597.221 82.616 599.706 85.2869" fill="#B9BDC2"/>
<path d="M377.21 68.8859V95.1737C377.21 106.832 365.022 106.958 358.158 103.403L355.08 110.535C365.775 115.953 384.997 115.21 384.997 96.3624V68.8516L377.21 68.8859Z" fill="#B9BDC2"/>
<path fill-rule="evenodd" clip-rule="evenodd" d="M282.111 73.0689C278.953 70.303 274.78 68.8857 269.569 68.8857H253.117V112.695H260.836V99.8711H268.486C274.016 99.8711 278.451 98.4539 281.792 95.5508C285.163 92.6941 287.034 88.4404 286.865 84.0184C287.015 79.8354 285.267 75.8094 282.111 73.0689ZM279.203 84.0187C279.203 89.242 275.224 92.7851 269.307 92.7851L260.825 92.7737V76.0181H269.307C275.224 76.0181 279.203 79.184 279.203 84.0187Z" fill="#B9BDC2"/>
<path fill-rule="evenodd" clip-rule="evenodd" d="M313.043 112.695H320.431V82.2237H313.043V84.3496C310.316 82.4386 307.054 81.4459 303.728 81.5151C299.603 81.4553 295.65 83.1646 292.862 86.2126C286.947 92.5598 286.947 102.416 292.862 108.763C295.673 111.772 299.617 113.456 303.728 113.403C307.054 113.473 310.316 112.48 313.043 110.569V112.695ZM313.043 92.2701V102.637C311.264 105.446 308.127 107.092 304.811 106.957C302.368 107.021 300.018 106.01 298.381 104.191C294.95 100.384 294.95 94.5916 298.381 90.7843C300.011 88.9473 302.359 87.9126 304.811 87.9498C308.127 87.8148 311.264 89.4611 313.043 92.2701Z" fill="#B9BDC2"/>
<path d="M340.269 127.908H332.425L338.593 113.724L323.486 82.1553H331.456L342.39 104.969L352.286 82.1553H360.13L340.269 127.908Z" fill="#B9BDC2"/>
</svg>
