<svg width="686" height="303" viewBox="0 0 686 303" fill="none" xmlns="http://www.w3.org/2000/svg">
<path d="M524.12 10.0599C507.857 10.0599 494.674 23.2432 494.674 39.5056V162.478C494.674 178.74 507.857 191.924 524.12 191.924H647.092C663.355 191.924 676.538 178.741 676.538 162.478V39.5056C676.538 23.2432 663.355 10.0599 647.092 10.0599H524.12Z" stroke="#BDC1C2" stroke-width="18.2766"/>
<path d="M403.404 111.597C387.142 111.597 373.958 124.78 373.958 141.042V264.015C373.958 280.277 387.142 293.46 403.404 293.46H526.377C542.639 293.46 555.822 280.277 555.822 264.015V141.042C555.822 124.78 542.639 111.597 526.377 111.597H403.404Z" stroke="#F40052" stroke-width="18.2766"/>
<path d="M434.302 244.546L433.9 246.423H435.447V247.946H433.571L433.132 250.017H431.512L431.95 247.946H429.733L429.294 250.017H427.686L428.124 247.946H426.285V246.423H428.453L428.855 244.546H427.028V243.023H429.184L429.611 241.001H431.219L430.793 243.023H433.01L433.437 241.001H435.057L434.631 243.023H436.191V244.546H434.302ZM432.681 244.546H430.464L430.062 246.423H432.279L432.681 244.546ZM445.778 241.512V242.889H442.233V245.07H444.95V246.423H442.233V250.017H440.527V241.512H445.778ZM449.634 248.287V246.947L453.618 241.244H455.604V246.8H456.677V248.287H455.604V250.017H453.898V248.287H449.634ZM454.008 243.072L451.51 246.8H454.008V243.072ZM460.677 245.46C460.677 244.055 460.928 242.954 461.432 242.158C461.944 241.362 462.789 240.964 463.966 240.964C465.144 240.964 465.985 241.362 466.489 242.158C467 242.954 467.256 244.055 467.256 245.46C467.256 246.874 467 247.982 466.489 248.786C465.985 249.591 465.144 249.993 463.966 249.993C462.789 249.993 461.944 249.591 461.432 248.786C460.928 247.982 460.677 246.874 460.677 245.46ZM465.575 245.46C465.575 244.859 465.534 244.355 465.453 243.949C465.38 243.535 465.226 243.198 464.99 242.938C464.762 242.678 464.421 242.548 463.966 242.548C463.512 242.548 463.166 242.678 462.931 242.938C462.703 243.198 462.549 243.535 462.468 243.949C462.395 244.355 462.358 244.859 462.358 245.46C462.358 246.077 462.395 246.597 462.468 247.02C462.541 247.434 462.695 247.771 462.931 248.031C463.166 248.283 463.512 248.409 463.966 248.409C464.421 248.409 464.767 248.283 465.002 248.031C465.238 247.771 465.392 247.434 465.465 247.02C465.538 246.597 465.575 246.077 465.575 245.46ZM471.468 245.46C471.468 244.055 471.72 242.954 472.223 242.158C472.735 241.362 473.58 240.964 474.758 240.964C475.935 240.964 476.776 241.362 477.28 242.158C477.792 242.954 478.047 244.055 478.047 245.46C478.047 246.874 477.792 247.982 477.28 248.786C476.776 249.591 475.935 249.993 474.758 249.993C473.58 249.993 472.735 249.591 472.223 248.786C471.72 247.982 471.468 246.874 471.468 245.46ZM476.366 245.46C476.366 244.859 476.325 244.355 476.244 243.949C476.171 243.535 476.017 243.198 475.781 242.938C475.554 242.678 475.212 242.548 474.758 242.548C474.303 242.548 473.957 242.678 473.722 242.938C473.494 243.198 473.34 243.535 473.259 243.949C473.186 244.355 473.149 244.859 473.149 245.46C473.149 246.077 473.186 246.597 473.259 247.02C473.332 247.434 473.486 247.771 473.722 248.031C473.957 248.283 474.303 248.409 474.758 248.409C475.212 248.409 475.558 248.283 475.793 248.031C476.029 247.771 476.183 247.434 476.256 247.02C476.329 246.597 476.366 246.077 476.366 245.46ZM488.229 242.609H484.282V244.692C484.452 244.481 484.696 244.311 485.013 244.181C485.329 244.043 485.667 243.974 486.024 243.974C486.674 243.974 487.206 244.116 487.62 244.4C488.034 244.684 488.335 245.05 488.522 245.497C488.709 245.935 488.802 246.406 488.802 246.91C488.802 247.844 488.534 248.596 487.998 249.164C487.47 249.733 486.714 250.017 485.732 250.017C484.806 250.017 484.066 249.786 483.514 249.323C482.962 248.86 482.649 248.254 482.576 247.507H484.233C484.306 247.832 484.468 248.092 484.72 248.287C484.98 248.482 485.309 248.579 485.707 248.579C486.186 248.579 486.548 248.429 486.792 248.129C487.035 247.828 487.157 247.43 487.157 246.934C487.157 246.431 487.031 246.049 486.779 245.789C486.536 245.521 486.174 245.387 485.695 245.387C485.354 245.387 485.069 245.472 484.842 245.643C484.615 245.813 484.452 246.041 484.355 246.325H482.722V241.11H488.229V242.609ZM493.551 248.092C494.33 247.442 494.952 246.902 495.415 246.471C495.878 246.033 496.264 245.578 496.572 245.107C496.881 244.636 497.035 244.173 497.035 243.718C497.035 243.303 496.938 242.979 496.743 242.743C496.548 242.507 496.247 242.39 495.841 242.39C495.435 242.39 495.122 242.528 494.903 242.804C494.684 243.072 494.57 243.442 494.562 243.913H492.905C492.937 242.938 493.226 242.199 493.77 241.695C494.322 241.191 495.021 240.94 495.866 240.94C496.792 240.94 497.502 241.187 497.998 241.683C498.493 242.17 498.741 242.816 498.741 243.62C498.741 244.254 498.571 244.859 498.229 245.436C497.888 246.012 497.498 246.516 497.06 246.947C496.621 247.369 496.048 247.881 495.342 248.482H498.936V249.895H492.917V248.628L493.551 248.092Z" fill="#353839"/>
<path d="M281.56 10.0599C265.298 10.0599 252.115 23.2432 252.115 39.5056V162.478C252.115 178.74 265.298 191.924 281.56 191.924H404.533C420.795 191.924 433.978 178.741 433.978 162.478V39.5056C433.978 23.2432 420.795 10.0599 404.533 10.0599H281.56Z" stroke="#859095" stroke-width="18.2766"/>
<path d="M160.844 111.597C144.581 111.597 131.398 124.78 131.398 141.042V264.015C131.398 280.277 144.581 293.46 160.844 293.46H283.816C300.078 293.46 313.262 280.277 313.262 264.015V141.042C313.262 124.78 300.078 111.597 283.816 111.597H160.844Z" stroke="#1EAAF1" stroke-width="18.2766"/>
<path d="M191.742 244.546L191.34 246.423H192.888V247.946H191.011L190.573 250.017H188.952L189.391 247.946H187.173L186.735 250.017H185.126L185.565 247.946H183.725V246.423H185.894L186.296 244.546H184.468V243.023H186.625L187.051 241.001H188.66L188.233 243.023H190.451L190.877 241.001H192.498L192.071 243.023H193.631V244.546H191.742ZM190.122 244.546H187.904L187.502 246.423H189.72L190.122 244.546ZM197.565 242.706V241.135H200.502V250.017H198.747V242.706H197.565ZM207.002 242.889V245.021H209.865V246.374H207.002V248.628H210.23V250.017H205.296V241.5H210.23V242.889H207.002ZM219.91 248.397H216.522L215.962 250.017H214.171L217.229 241.5H219.215L222.273 250.017H220.47L219.91 248.397ZM219.447 247.032L218.216 243.474L216.985 247.032H219.447ZM231.546 248.397H228.158L227.598 250.017H225.807L228.865 241.5H230.851L233.909 250.017H232.106L231.546 248.397ZM231.083 247.032L229.852 243.474L228.621 247.032H231.083ZM243.218 241.512V242.889H239.673V245.07H242.39V246.423H239.673V250.017H237.967V241.512H243.218ZM246.94 242.706V241.135H249.876V250.017H248.122V242.706H246.94Z" fill="#353839"/>
<path d="M38.9998 10.0599C22.7374 10.0599 9.55406 23.2432 9.55406 39.5056V162.478C9.55406 178.74 22.7373 191.924 38.9998 191.924H161.972C178.235 191.924 191.418 178.741 191.418 162.478V39.5056C191.418 23.2432 178.235 10.0599 161.972 10.0599H38.9998Z" stroke="#353839" stroke-width="18.2766"/>
<path d="M69.8967 64.0365L69.4946 65.9129H71.042V67.436H69.1656L68.7269 69.5073H67.1064L67.5451 67.436H65.3275L64.8888 69.5073H63.2805L63.7191 67.436H61.8793V65.9129H64.0481L64.4502 64.0365H62.6225V62.5135H64.7792L65.2056 60.4908H66.814L66.3875 62.5135H68.6051L69.0316 60.4908H70.6521L70.2256 62.5135H71.7852V64.0365H69.8967ZM68.2761 64.0365H66.0586L65.6565 65.9129H67.874L68.2761 64.0365ZM75.9509 62.9643C75.9915 62.152 76.2758 61.5265 76.8038 61.0879C77.3399 60.6411 78.0426 60.4177 78.9117 60.4177C79.5047 60.4177 80.0124 60.5233 80.4348 60.7345C80.8572 60.9376 81.174 61.2178 81.3852 61.5753C81.6045 61.9245 81.7142 62.3226 81.7142 62.7693C81.7142 63.2811 81.5801 63.7157 81.3121 64.0731C81.0521 64.4224 80.7394 64.6579 80.3739 64.7798V64.8285C80.845 64.9747 81.2105 65.2347 81.4705 65.6083C81.7385 65.982 81.8726 66.4612 81.8726 67.0461C81.8726 67.5334 81.7588 67.968 81.5314 68.3498C81.3121 68.7316 80.9831 69.0321 80.5444 69.2515C80.1139 69.4626 79.5941 69.5682 78.9848 69.5682C78.0669 69.5682 77.3196 69.3367 76.7429 68.8737C76.1662 68.4107 75.8616 67.7284 75.8291 66.8267H77.4862C77.5024 67.2248 77.6364 67.5456 77.8882 67.7893C78.1482 68.0249 78.5015 68.1427 78.9483 68.1427C79.3626 68.1427 79.6794 68.0289 79.8987 67.8015C80.1261 67.5659 80.2398 67.2654 80.2398 66.8999C80.2398 66.4125 80.0855 66.0632 79.7768 65.852C79.4682 65.6408 78.9889 65.5352 78.3391 65.5352H77.9857V64.134H78.3391C79.4925 64.134 80.0693 63.7481 80.0693 62.9765C80.0693 62.6272 79.9637 62.3551 79.7525 62.1601C79.5494 61.9652 79.2529 61.8677 78.863 61.8677C78.4812 61.8677 78.1847 61.9733 77.9735 62.1845C77.7705 62.3876 77.6527 62.6475 77.6202 62.9643H75.9509ZM92.105 62.0992H88.1573V64.1827C88.3279 63.9715 88.5715 63.8009 88.8883 63.671C89.2051 63.5329 89.5422 63.4638 89.8996 63.4638C90.5495 63.4638 91.0815 63.606 91.4958 63.8903C91.9101 64.1746 92.2106 64.5401 92.3975 64.9869C92.5843 65.4255 92.6777 65.8967 92.6777 66.4003C92.6777 67.3344 92.4096 68.0858 91.8735 68.6544C91.3455 69.223 90.5901 69.5073 89.6072 69.5073C88.6812 69.5073 87.942 69.2758 87.3897 68.8128C86.8373 68.3498 86.5246 67.7446 86.4515 66.9973H88.1085C88.1816 67.3222 88.3441 67.5822 88.5959 67.7771C88.8558 67.9721 89.1848 68.0696 89.5829 68.0696C90.0621 68.0696 90.4236 67.9193 90.6673 67.6187C90.911 67.3182 91.0328 66.9202 91.0328 66.4247C91.0328 65.921 90.9069 65.5393 90.6551 65.2793C90.4114 65.0113 90.0499 64.8772 89.5707 64.8772C89.2295 64.8772 88.9452 64.9625 88.7178 65.1331C88.4903 65.3037 88.3279 65.5311 88.2304 65.8154H86.5977V60.6005H92.105V62.0992ZM96.9145 62.9643C96.9551 62.152 97.2394 61.5265 97.7674 61.0879C98.3035 60.6411 99.0061 60.4177 99.8753 60.4177C100.468 60.4177 100.976 60.5233 101.398 60.7345C101.821 60.9376 102.138 61.2178 102.349 61.5753C102.568 61.9245 102.678 62.3226 102.678 62.7693C102.678 63.2811 102.544 63.7157 102.276 64.0731C102.016 64.4224 101.703 64.6579 101.337 64.7798V64.8285C101.809 64.9747 102.174 65.2347 102.434 65.6083C102.702 65.982 102.836 66.4612 102.836 67.0461C102.836 67.5334 102.722 67.968 102.495 68.3498C102.276 68.7316 101.947 69.0321 101.508 69.2515C101.077 69.4626 100.558 69.5682 99.9484 69.5682C99.0305 69.5682 98.2832 69.3367 97.7065 68.8737C97.1297 68.4107 96.8251 67.7284 96.7926 66.8267H98.4497C98.466 67.2248 98.6 67.5456 98.8518 67.7893C99.1117 68.0249 99.4651 68.1427 99.9119 68.1427C100.326 68.1427 100.643 68.0289 100.862 67.8015C101.09 67.5659 101.203 67.2654 101.203 66.8999C101.203 66.4125 101.049 66.0632 100.74 65.852C100.432 65.6408 99.9525 65.5352 99.3026 65.5352H98.9493V64.134H99.3026C100.456 64.134 101.033 63.7481 101.033 62.9765C101.033 62.6272 100.927 62.3551 100.716 62.1601C100.513 61.9652 100.216 61.8677 99.8266 61.8677C99.4448 61.8677 99.1483 61.9733 98.9371 62.1845C98.734 62.3876 98.6162 62.6475 98.5837 62.9643H96.9145ZM108.585 64.8041C107.772 64.3817 107.366 63.7278 107.366 62.8424C107.366 62.4038 107.476 62.0058 107.695 61.6484C107.923 61.2828 108.26 60.9945 108.707 60.7833C109.161 60.564 109.714 60.4543 110.364 60.4543C111.013 60.4543 111.562 60.564 112.009 60.7833C112.463 60.9945 112.801 61.2828 113.02 61.6484C113.247 62.0058 113.361 62.4038 113.361 62.8424C113.361 63.2892 113.251 63.6832 113.032 64.0243C112.813 64.3574 112.52 64.6173 112.155 64.8041C112.602 64.9991 112.951 65.2834 113.203 65.657C113.454 66.0307 113.58 66.4734 113.58 66.9851C113.58 67.5375 113.438 68.0208 113.154 68.4351C112.878 68.8412 112.496 69.154 112.009 69.3733C111.521 69.5926 110.973 69.7023 110.364 69.7023C109.754 69.7023 109.206 69.5926 108.719 69.3733C108.239 69.154 107.858 68.8412 107.573 68.4351C107.297 68.0208 107.159 67.5375 107.159 66.9851C107.159 66.4734 107.285 66.0307 107.537 65.657C107.789 65.2753 108.138 64.991 108.585 64.8041ZM111.704 63.0861C111.704 62.6881 111.582 62.3794 111.338 62.1601C111.103 61.9408 110.778 61.8311 110.364 61.8311C109.958 61.8311 109.633 61.9408 109.389 62.1601C109.153 62.3794 109.036 62.6922 109.036 63.0983C109.036 63.4638 109.157 63.7563 109.401 63.9756C109.653 64.1949 109.974 64.3046 110.364 64.3046C110.754 64.3046 111.074 64.1949 111.326 63.9756C111.578 63.7481 111.704 63.4517 111.704 63.0861ZM110.364 65.5474C109.901 65.5474 109.523 65.6652 109.231 65.9007C108.946 66.1363 108.804 66.4734 108.804 66.912C108.804 67.3182 108.942 67.6512 109.218 67.9112C109.503 68.163 109.884 68.2889 110.364 68.2889C110.843 68.2889 111.221 68.1589 111.497 67.899C111.773 67.639 111.911 67.3101 111.911 66.912C111.911 66.4815 111.769 66.1485 111.485 65.9129C111.2 65.6692 110.827 65.5474 110.364 65.5474ZM117.866 62.9643C117.907 62.152 118.191 61.5265 118.719 61.0879C119.255 60.6411 119.958 60.4177 120.827 60.4177C121.42 60.4177 121.928 60.5233 122.35 60.7345C122.772 60.9376 123.089 61.2178 123.3 61.5753C123.52 61.9245 123.629 62.3226 123.629 62.7693C123.629 63.2811 123.495 63.7157 123.227 64.0731C122.967 64.4224 122.655 64.6579 122.289 64.7798V64.8285C122.76 64.9747 123.126 65.2347 123.386 65.6083C123.654 65.982 123.788 66.4612 123.788 67.0461C123.788 67.5334 123.674 67.968 123.447 68.3498C123.227 68.7316 122.898 69.0321 122.46 69.2515C122.029 69.4626 121.509 69.5682 120.9 69.5682C119.982 69.5682 119.235 69.3367 118.658 68.8737C118.081 68.4107 117.777 67.7284 117.744 66.8267H119.401C119.418 67.2248 119.552 67.5456 119.803 67.7893C120.063 68.0249 120.417 68.1427 120.864 68.1427C121.278 68.1427 121.595 68.0289 121.814 67.8015C122.041 67.5659 122.155 67.2654 122.155 66.8999C122.155 66.4125 122.001 66.0632 121.692 65.852C121.383 65.6408 120.904 65.5352 120.254 65.5352H119.901V64.134H120.254C121.408 64.134 121.984 63.7481 121.984 62.9765C121.984 62.6272 121.879 62.3551 121.668 62.1601C121.465 61.9652 121.168 61.8677 120.778 61.8677C120.396 61.8677 120.1 61.9733 119.889 62.1845C119.686 62.3876 119.568 62.6475 119.535 62.9643H117.866ZM130.024 67.0095C130.089 67.3669 130.235 67.6431 130.462 67.8381C130.698 68.0249 131.011 68.1183 131.401 68.1183C131.904 68.1183 132.27 67.9112 132.497 67.4969C132.725 67.0745 132.838 66.3678 132.838 65.3768C132.652 65.6367 132.388 65.8398 132.046 65.986C131.713 66.1322 131.352 66.2053 130.962 66.2053C130.442 66.2053 129.971 66.0997 129.549 65.8885C129.134 65.6692 128.805 65.3484 128.562 64.926C128.318 64.4955 128.196 63.9756 128.196 63.3664C128.196 62.4647 128.464 61.7499 129 61.2219C129.536 60.6858 130.267 60.4177 131.193 60.4177C132.347 60.4177 133.159 60.7873 133.63 61.5265C134.11 62.2657 134.349 63.3786 134.349 64.8651C134.349 65.921 134.256 66.7861 134.069 67.4603C133.89 68.1345 133.578 68.6463 133.131 68.9956C132.692 69.3449 132.091 69.5195 131.328 69.5195C130.726 69.5195 130.215 69.4058 129.792 69.1783C129.37 68.9428 129.045 68.6382 128.818 68.2645C128.598 67.8827 128.472 67.4644 128.44 67.0095H130.024ZM131.315 64.8163C131.738 64.8163 132.071 64.6864 132.314 64.4264C132.558 64.1665 132.68 63.8172 132.68 63.3786C132.68 62.8993 132.55 62.5297 132.29 62.2698C132.038 62.0017 131.693 61.8677 131.254 61.8677C130.816 61.8677 130.466 62.0058 130.207 62.282C129.955 62.55 129.829 62.9074 129.829 63.3542C129.829 63.7847 129.951 64.1381 130.194 64.4142C130.446 64.6823 130.82 64.8163 131.315 64.8163Z" fill="#353839"/>
<path d="M312.458 64.0365L312.056 65.9129H313.604V67.436H311.727L311.288 69.5073H309.668L310.107 67.436H307.889L307.45 69.5073H305.842L306.281 67.436H304.441V65.9129H306.61L307.012 64.0365H305.184V62.5135H307.341L307.767 60.4908H309.376L308.949 62.5135H311.167L311.593 60.4908H313.214L312.787 62.5135H314.347V64.0365H312.458ZM310.838 64.0365H308.62L308.218 65.9129H310.436L310.838 64.0365ZM319.975 64.8041C319.162 64.3817 318.756 63.7278 318.756 62.8424C318.756 62.4038 318.866 62.0058 319.085 61.6484C319.313 61.2828 319.65 60.9945 320.096 60.7833C320.551 60.564 321.104 60.4543 321.753 60.4543C322.403 60.4543 322.952 60.564 323.398 60.7833C323.853 60.9945 324.19 61.2828 324.41 61.6484C324.637 62.0058 324.751 62.4038 324.751 62.8424C324.751 63.2892 324.641 63.6832 324.422 64.0243C324.203 64.3574 323.91 64.6173 323.545 64.8041C323.991 64.9991 324.341 65.2834 324.592 65.657C324.844 66.0307 324.97 66.4734 324.97 66.9851C324.97 67.5375 324.828 68.0208 324.544 68.4351C324.268 68.8412 323.886 69.154 323.398 69.3733C322.911 69.5926 322.363 69.7023 321.753 69.7023C321.144 69.7023 320.596 69.5926 320.109 69.3733C319.629 69.154 319.248 68.8412 318.963 68.4351C318.687 68.0208 318.549 67.5375 318.549 66.9851C318.549 66.4734 318.675 66.0307 318.927 65.657C319.179 65.2753 319.528 64.991 319.975 64.8041ZM323.094 63.0861C323.094 62.6881 322.972 62.3794 322.728 62.1601C322.493 61.9408 322.168 61.8311 321.753 61.8311C321.347 61.8311 321.022 61.9408 320.779 62.1601C320.543 62.3794 320.425 62.6922 320.425 63.0983C320.425 63.4638 320.547 63.7563 320.791 63.9756C321.043 64.1949 321.364 64.3046 321.753 64.3046C322.143 64.3046 322.464 64.1949 322.716 63.9756C322.968 63.7481 323.094 63.4517 323.094 63.0861ZM321.753 65.5474C321.29 65.5474 320.913 65.6652 320.62 65.9007C320.336 66.1363 320.194 66.4734 320.194 66.912C320.194 67.3182 320.332 67.6512 320.608 67.9112C320.892 68.163 321.274 68.2889 321.753 68.2889C322.233 68.2889 322.61 68.1589 322.887 67.899C323.163 67.639 323.301 67.3101 323.301 66.912C323.301 66.4815 323.159 66.1485 322.874 65.9129C322.59 65.6692 322.217 65.5474 321.753 65.5474ZM335.202 62.0992H331.254V64.1827C331.425 63.9715 331.669 63.8009 331.985 63.671C332.302 63.5329 332.639 63.4638 332.997 63.4638C333.646 63.4638 334.179 63.606 334.593 63.8903C335.007 64.1746 335.308 64.5401 335.494 64.9869C335.681 65.4255 335.775 65.8967 335.775 66.4003C335.775 67.3344 335.507 68.0858 334.97 68.6544C334.443 69.223 333.687 69.5073 332.704 69.5073C331.778 69.5073 331.039 69.2758 330.487 68.8128C329.934 68.3498 329.622 67.7446 329.548 66.9973H331.206C331.279 67.3222 331.441 67.5822 331.693 67.7771C331.953 67.9721 332.282 68.0696 332.68 68.0696C333.159 68.0696 333.521 67.9193 333.764 67.6187C334.008 67.3182 334.13 66.9202 334.13 66.4247C334.13 65.921 334.004 65.5393 333.752 65.2793C333.508 65.0113 333.147 64.8772 332.668 64.8772C332.326 64.8772 332.042 64.9625 331.815 65.1331C331.587 65.3037 331.425 65.5311 331.327 65.8154H329.695V60.6005H335.202V62.0992ZM341.961 67.0095C342.026 67.3669 342.172 67.6431 342.4 67.8381C342.635 68.0249 342.948 68.1183 343.338 68.1183C343.841 68.1183 344.207 67.9112 344.434 67.4969C344.662 67.0745 344.776 66.3678 344.776 65.3768C344.589 65.6367 344.325 65.8398 343.984 65.986C343.651 66.1322 343.289 66.2053 342.899 66.2053C342.379 66.2053 341.908 66.0997 341.486 65.8885C341.072 65.6692 340.743 65.3484 340.499 64.926C340.255 64.4955 340.133 63.9756 340.133 63.3664C340.133 62.4647 340.401 61.7499 340.937 61.2219C341.474 60.6858 342.205 60.4177 343.131 60.4177C344.284 60.4177 345.096 60.7873 345.568 61.5265C346.047 62.2657 346.286 63.3786 346.286 64.8651C346.286 65.921 346.193 66.7861 346.006 67.4603C345.827 68.1345 345.515 68.6463 345.068 68.9956C344.629 69.3449 344.028 69.5195 343.265 69.5195C342.664 69.5195 342.152 69.4058 341.729 69.1783C341.307 68.9428 340.982 68.6382 340.755 68.2645C340.535 67.8827 340.409 67.4644 340.377 67.0095H341.961ZM343.253 64.8163C343.675 64.8163 344.008 64.6864 344.252 64.4264C344.495 64.1665 344.617 63.8172 344.617 63.3786C344.617 62.8993 344.487 62.5297 344.227 62.2698C343.975 62.0017 343.63 61.8677 343.192 61.8677C342.753 61.8677 342.404 62.0058 342.144 62.282C341.892 62.55 341.766 62.9074 341.766 63.3542C341.766 63.7847 341.888 64.1381 342.132 64.4142C342.383 64.6823 342.757 64.8163 343.253 64.8163ZM350.528 64.9503C350.528 63.5451 350.78 62.4444 351.284 61.6484C351.796 60.8523 352.64 60.4543 353.818 60.4543C354.996 60.4543 355.837 60.8523 356.34 61.6484C356.852 62.4444 357.108 63.5451 357.108 64.9503C357.108 66.3637 356.852 67.4725 356.34 68.2767C355.837 69.0809 354.996 69.483 353.818 69.483C352.64 69.483 351.796 69.0809 351.284 68.2767C350.78 67.4725 350.528 66.3637 350.528 64.9503ZM355.427 64.9503C355.427 64.3492 355.386 63.8456 355.305 63.4395C355.232 63.0252 355.077 62.6881 354.842 62.4282C354.614 62.1682 354.273 62.0383 353.818 62.0383C353.363 62.0383 353.018 62.1682 352.782 62.4282C352.555 62.6881 352.401 63.0252 352.319 63.4395C352.246 63.8456 352.21 64.3492 352.21 64.9503C352.21 65.5677 352.246 66.0876 352.319 66.51C352.393 66.9242 352.547 67.2613 352.782 67.5213C353.018 67.7731 353.363 67.899 353.818 67.899C354.273 67.899 354.618 67.7731 354.854 67.5213C355.089 67.2613 355.244 66.9242 355.317 66.51C355.39 66.0876 355.427 65.5677 355.427 64.9503ZM363.293 67.0095C363.358 67.3669 363.505 67.6431 363.732 67.8381C363.968 68.0249 364.28 68.1183 364.67 68.1183C365.174 68.1183 365.539 67.9112 365.767 67.4969C365.994 67.0745 366.108 66.3678 366.108 65.3768C365.921 65.6367 365.657 65.8398 365.316 65.986C364.983 66.1322 364.622 66.2053 364.232 66.2053C363.712 66.2053 363.241 66.0997 362.818 65.8885C362.404 65.6692 362.075 65.3484 361.831 64.926C361.588 64.4955 361.466 63.9756 361.466 63.3664C361.466 62.4647 361.734 61.7499 362.27 61.2219C362.806 60.6858 363.537 60.4177 364.463 60.4177C365.617 60.4177 366.429 60.7873 366.9 61.5265C367.379 62.2657 367.619 63.3786 367.619 64.8651C367.619 65.921 367.525 66.7861 367.339 67.4603C367.16 68.1345 366.847 68.6463 366.4 68.9956C365.962 69.3449 365.361 69.5195 364.597 69.5195C363.996 69.5195 363.484 69.4058 363.062 69.1783C362.639 68.9428 362.315 68.6382 362.087 68.2645C361.868 67.8827 361.742 67.4644 361.709 67.0095H363.293ZM364.585 64.8163C365.007 64.8163 365.34 64.6864 365.584 64.4264C365.828 64.1665 365.95 63.8172 365.95 63.3786C365.95 62.8993 365.82 62.5297 365.56 62.2698C365.308 62.0017 364.963 61.8677 364.524 61.8677C364.085 61.8677 363.736 62.0058 363.476 62.282C363.224 62.55 363.098 62.9074 363.098 63.3542C363.098 63.7847 363.22 64.1381 363.464 64.4142C363.716 64.6823 364.089 64.8163 364.585 64.8163ZM377.831 62.0992H373.883V64.1827C374.054 63.9715 374.298 63.8009 374.614 63.671C374.931 63.5329 375.268 63.4638 375.626 63.4638C376.276 63.4638 376.808 63.606 377.222 63.8903C377.636 64.1746 377.937 64.5401 378.124 64.9869C378.31 65.4255 378.404 65.8967 378.404 66.4003C378.404 67.3344 378.136 68.0858 377.6 68.6544C377.072 69.223 376.316 69.5073 375.333 69.5073C374.407 69.5073 373.668 69.2758 373.116 68.8128C372.563 68.3498 372.251 67.7446 372.178 66.9973H373.835C373.908 67.3222 374.07 67.5822 374.322 67.7771C374.582 67.9721 374.911 68.0696 375.309 68.0696C375.788 68.0696 376.15 67.9193 376.393 67.6187C376.637 67.3182 376.759 66.9202 376.759 66.4247C376.759 65.921 376.633 65.5393 376.381 65.2793C376.138 65.0113 375.776 64.8772 375.297 64.8772C374.956 64.8772 374.671 64.9625 374.444 65.1331C374.216 65.3037 374.054 65.5311 373.957 65.8154H372.324V60.6005H377.831V62.0992Z" fill="#353839"/>
<path d="M555.018 64.0365L554.616 65.9129H556.163V67.436H554.287L553.848 69.5073H552.228L552.666 67.436H550.449L550.01 69.5073H548.402L548.84 67.436H547V65.9129H549.169L549.571 64.0365H547.744V62.5135H549.9L550.327 60.4908H551.935L551.509 62.5135H553.726L554.153 60.4908H555.773L555.347 62.5135H556.906V64.0365H555.018ZM553.397 64.0365H551.18L550.778 65.9129H552.995L553.397 64.0365ZM566.068 65.1453C566.547 65.2347 566.941 65.4743 567.25 65.8642C567.558 66.2541 567.713 66.7008 567.713 67.2045C567.713 67.6594 567.599 68.0614 567.371 68.4107C567.152 68.7519 566.831 69.0199 566.409 69.2149C565.986 69.4098 565.487 69.5073 564.91 69.5073H561.243V61.0026H564.752C565.328 61.0026 565.824 61.096 566.238 61.2828C566.661 61.4697 566.977 61.7296 567.189 62.0626C567.408 62.3957 567.518 62.7734 567.518 63.1958C567.518 63.6913 567.384 64.1056 567.115 64.4386C566.856 64.7716 566.506 65.0072 566.068 65.1453ZM562.948 64.5117H564.508C564.914 64.5117 565.227 64.4224 565.446 64.2436C565.666 64.0568 565.775 63.7928 565.775 63.4517C565.775 63.1105 565.666 62.8465 565.446 62.6597C565.227 62.4728 564.914 62.3794 564.508 62.3794H562.948V64.5117ZM564.666 68.1183C565.081 68.1183 565.402 68.0208 565.629 67.8259C565.865 67.6309 565.982 67.3547 565.982 66.9973C565.982 66.6318 565.86 66.3475 565.617 66.1444C565.373 65.9332 565.044 65.8276 564.63 65.8276H562.948V68.1183H564.666ZM574.959 61.0026C575.853 61.0026 576.637 61.1772 577.311 61.5265C577.993 61.8758 578.517 62.3754 578.883 63.0252C579.256 63.6669 579.443 64.4142 579.443 65.2671C579.443 66.1201 579.256 66.8674 578.883 67.5091C578.517 68.1427 577.993 68.6341 577.311 68.9834C576.637 69.3327 575.853 69.5073 574.959 69.5073H571.986V61.0026H574.959ZM574.898 68.0574C575.792 68.0574 576.482 67.8137 576.97 67.3263C577.457 66.8389 577.701 66.1525 577.701 65.2671C577.701 64.3817 577.457 63.6913 576.97 63.1958C576.482 62.6922 575.792 62.4404 574.898 62.4404H573.692V68.0574H574.898ZM583.22 65.2428C583.22 64.4061 583.407 63.6588 583.78 63.0008C584.162 62.3348 584.678 61.8189 585.328 61.4534C585.986 61.0798 586.721 60.8929 587.533 60.8929C588.483 60.8929 589.316 61.1366 590.031 61.624C590.746 62.1114 591.245 62.7856 591.53 63.6466H589.568C589.373 63.2405 589.097 62.9359 588.739 62.7328C588.39 62.5297 587.984 62.4282 587.521 62.4282C587.025 62.4282 586.583 62.546 586.193 62.7815C585.811 63.009 585.51 63.3339 585.291 63.7563C585.08 64.1787 584.974 64.6742 584.974 65.2428C584.974 65.8033 585.08 66.2988 585.291 66.7293C585.51 67.1517 585.811 67.4806 586.193 67.7162C586.583 67.9437 587.025 68.0574 587.521 68.0574C587.984 68.0574 588.39 67.9558 588.739 67.7528C589.097 67.5416 589.373 67.2329 589.568 66.8267H591.53C591.245 67.6959 590.746 68.3742 590.031 68.8615C589.324 69.3408 588.492 69.5804 587.533 69.5804C586.721 69.5804 585.986 69.3977 585.328 69.0321C584.678 68.6585 584.162 68.1427 583.78 67.4847C583.407 66.8267 583.22 66.0794 583.22 65.2428ZM595.499 62.1967V60.6249H598.435V69.5073H596.68V62.1967H595.499ZM602.815 65.2428C602.815 64.4061 603.002 63.6588 603.375 63.0008C603.757 62.3348 604.273 61.8189 604.923 61.4534C605.581 61.0798 606.316 60.8929 607.128 60.8929C608.079 60.8929 608.911 61.1366 609.626 61.624C610.341 62.1114 610.84 62.7856 611.125 63.6466H609.163C608.968 63.2405 608.692 62.9359 608.334 62.7328C607.985 62.5297 607.579 62.4282 607.116 62.4282C606.621 62.4282 606.178 62.546 605.788 62.7815C605.406 63.009 605.106 63.3339 604.886 63.7563C604.675 64.1787 604.57 64.6742 604.57 65.2428C604.57 65.8033 604.675 66.2988 604.886 66.7293C605.106 67.1517 605.406 67.4806 605.788 67.7162C606.178 67.9437 606.621 68.0574 607.116 68.0574C607.579 68.0574 607.985 67.9558 608.334 67.7528C608.692 67.5416 608.968 67.2329 609.163 66.8267H611.125C610.84 67.6959 610.341 68.3742 609.626 68.8615C608.919 69.3408 608.087 69.5804 607.128 69.5804C606.316 69.5804 605.581 69.3977 604.923 69.0321C604.273 68.6585 603.757 68.1427 603.375 67.4847C603.002 66.8267 602.815 66.0794 602.815 65.2428ZM615.837 67.5822C616.617 66.9323 617.238 66.3922 617.701 65.9617C618.164 65.523 618.55 65.0681 618.859 64.597C619.167 64.1259 619.322 63.6629 619.322 63.208C619.322 62.7937 619.224 62.4688 619.029 62.2332C618.834 61.9977 618.534 61.8799 618.128 61.8799C617.722 61.8799 617.409 62.018 617.189 62.2941C616.97 62.5622 616.856 62.9318 616.848 63.4029H615.191C615.224 62.4282 615.512 61.689 616.056 61.1854C616.609 60.6817 617.307 60.4299 618.152 60.4299C619.078 60.4299 619.789 60.6777 620.284 61.1732C620.78 61.6606 621.028 62.3063 621.028 63.1105C621.028 63.7441 620.857 64.3492 620.516 64.926C620.175 65.5027 619.785 66.0063 619.346 66.4368C618.907 66.8592 618.335 67.371 617.628 67.9721H621.223V69.3855H615.203V68.1183L615.837 67.5822Z" fill="#353839"/>
<path fill-rule="evenodd" clip-rule="evenodd" d="M178.895 102.684H208.227V120.735H178.895V102.684Z" fill="#1EAAF1"/>
<path fill-rule="evenodd" clip-rule="evenodd" d="M418.07 102.684H447.403V120.735H418.07V102.684Z" fill="#F40052"/>
<path fill-rule="evenodd" clip-rule="evenodd" d="M261.253 97.043V126.376H243.202V97.043H261.253Z" fill="#859095"/>
<path fill-rule="evenodd" clip-rule="evenodd" d="M503.812 97.043V126.376H485.761V97.043H503.812Z" fill="#BDC1C2"/>
</svg>
