<svg width="509" height="504" viewBox="0 0 509 504" fill="none" xmlns="http://www.w3.org/2000/svg">
<path fill-rule="evenodd" clip-rule="evenodd" d="M152.688 217.849C161.147 218.166 167.285 210.415 165.954 202.056C164.8 194.8 158.359 189.655 151.025 189.203C137.784 188.387 124.178 185.411 114.432 180.099C97.1364 170.672 82.0645 152.84 73.5938 121.75L46.0732 129.248C56.1768 166.331 75.4117 191.316 100.782 205.144C115.698 213.274 134.717 217.174 152.688 217.849ZM430.582 197.17C422.832 195.768 415.412 200.914 414.009 208.665C412.607 216.416 417.753 223.836 425.504 225.238C440.713 227.99 451.244 233.924 458.51 241.193C465.834 248.52 470.532 257.9 472.89 268.538C476.686 285.669 474.169 305.125 467.755 321.233C462.188 335.213 467.055 337.754 477.599 343.257C480.172 344.6 483.084 346.12 486.266 348.026C500.163 324.831 507.298 291.968 500.738 262.366C497.408 247.34 490.456 232.805 478.683 221.028C466.854 209.194 450.843 200.836 430.582 197.17Z" fill="#C4C4C4"/>
<path d="M196.954 415.273H267.512V468.568C267.512 488.052 251.717 503.847 232.233 503.847C212.749 503.847 196.954 488.052 196.954 468.568V415.273Z" fill="#E8C37E"/>
<path d="M312.55 415.273H383.108V468.568C383.108 488.052 367.313 503.847 347.829 503.847C328.345 503.847 312.55 488.052 312.55 468.568V415.273Z" fill="#E8C37E"/>
<path d="M139.906 151.054C139.906 68.1419 207.119 0.928711 290.031 0.928711C372.943 0.928711 440.156 68.1419 440.156 151.054V275.657H139.906V151.054Z" fill="#8867D7"/>
<path d="M139.906 142.046H440.156V277.158H139.906V142.046Z" fill="#D07AFF"/>
<path d="M196.954 142.045H267.512V135.289C267.512 115.805 251.717 100.01 232.233 100.01C212.749 100.01 196.954 115.805 196.954 135.289V142.045Z" fill="#7459B5"/>
<path d="M312.549 142.046H383.108V135.29C383.108 115.806 367.313 100.011 347.829 100.011C328.344 100.011 312.549 115.806 312.549 135.29V142.046Z" fill="#7459B5"/>
<path d="M139.906 277.158H440.156V386.749C440.156 402.503 427.385 415.273 411.632 415.273H168.43C152.677 415.273 139.906 402.503 139.906 386.749V277.158Z" fill="#F663AD"/>
<path d="M2.93667 80.4243C1.78888 80.1365 0.774856 81.2279 1.14612 82.3515L21.5883 144.216L60.3043 162.7L85.6094 154.339L105.689 116.425L85.2473 54.5614C84.876 53.4378 83.4114 53.1655 82.661 54.0805L62.2756 78.9389L69.3378 100.311C71.907 108.086 67.6867 116.472 59.9117 119.041C52.1366 121.61 43.7509 117.39 41.1818 109.615L34.1196 88.2427L2.93667 80.4243Z" fill="#C4C4C4"/>
<path d="M139.906 216.825C144.18 217.353 148.463 217.69 152.689 217.849C161.147 218.166 167.285 210.415 165.955 202.056C164.8 194.8 158.359 189.655 151.026 189.203C147.317 188.974 143.579 188.576 139.906 188.005V216.825Z" fill="#B657EA"/>
<path d="M196.954 277.158H267.512V415.273H196.954V277.158Z" fill="#C839A5"/>
<path d="M312.549 277.158H383.108V415.273H312.549V277.158Z" fill="#C839A5"/>
<path d="M312.55 415.273H383.108V456.484L312.55 426.459V415.273Z" fill="#C4AC80"/>
<path fill-rule="evenodd" clip-rule="evenodd" d="M440.156 199.332C437.077 198.49 433.886 197.768 430.582 197.17C422.832 195.767 415.411 200.914 414.009 208.665C412.607 216.415 417.753 223.835 425.504 225.238C430.97 226.227 435.832 227.627 440.156 229.352V199.332ZM477.516 343.213C477.543 343.227 477.571 343.242 477.598 343.256C480.172 344.6 483.084 346.12 486.265 348.026C487.201 346.464 488.106 344.858 488.978 343.213H477.516Z" fill="#B657EA"/>
<path d="M196.954 142.046H267.512V277.158H196.954V142.046Z" fill="#B657EA"/>
<path d="M312.549 142.046H383.108V277.158H312.549V142.046Z" fill="#B657EA"/>
<circle cx="383.109" cy="229.118" r="27.0225" fill="#DFA3FF"/>
<circle cx="196.954" cy="229.118" r="27.0225" fill="#DFA3FF"/>
<path d="M363.592 183.233C374.731 172.094 392.791 172.094 403.931 183.233" stroke="#3B3B3B" stroke-width="12.01" stroke-linecap="round"/>
<path d="M177.438 183.233C188.577 172.094 206.637 172.094 217.776 183.233" stroke="#3B3B3B" stroke-width="12.01" stroke-linecap="round"/>
<path d="M255.502 182.635C255.502 178.459 258.888 175.073 263.064 175.073H315.496C319.673 175.073 323.058 178.459 323.058 182.635V201.345C323.058 220 307.935 235.123 289.28 235.123C270.625 235.123 255.502 220 255.502 201.345V182.635Z" fill="#3B3B3B"/>
<path fill-rule="evenodd" clip-rule="evenodd" d="M317.859 219.36C311.875 228.832 301.312 235.123 289.28 235.123C277.248 235.123 266.686 228.832 260.702 219.36C266.686 209.888 277.248 203.597 289.28 203.597C301.312 203.597 311.875 209.888 317.859 219.36Z" fill="#FC6D6D"/>
<path d="M260.756 180.328H317.804V201.345C317.804 217.098 305.033 229.869 289.28 229.869C273.527 229.869 260.756 217.098 260.756 201.345V180.328Z" stroke="#3B3B3B" stroke-width="10.5087"/>
<path d="M426.324 402.85L483.513 366.278L493.47 326.724L475.877 299.212L435.794 291.658L378.605 328.229L402.45 339.369C407.278 341.624 412.924 341.251 417.414 338.38L429.166 330.865C436.065 326.453 445.234 328.469 449.645 335.368C454.057 342.267 452.041 351.435 445.142 355.847L433.389 363.362C428.9 366.233 426.193 371.203 426.215 376.532L426.324 402.85Z" fill="#C4C4C4"/>
<path d="M196.954 415.273H267.512V456.484L196.954 426.459V415.273Z" fill="#C4AC80"/>
</svg>
