<svg width="370" height="189" viewBox="0 0 370 189" fill="none" xmlns="http://www.w3.org/2000/svg">
<path d="M0 47.0553C0 21.0674 21.0674 0 47.0553 0V0C73.0433 0 94.1107 21.0674 94.1107 47.0553V141.166H0V47.0553Z" fill="#736CDD"/>
<path d="M0 94.1106H94.1107V141.166H0V94.1106Z" fill="#C4C4C4"/>
<path d="M0 94.1106H94.1107V141.166H0V94.1106Z" fill="#C4C4C4"/>
<path d="M0 47.0554H94.1107V94.1108H0V47.0554Z" fill="#B656E9"/>
<path d="M30.9575 86.6809C30.9575 77.7903 38.1648 70.583 47.0554 70.583V70.583C55.946 70.583 63.1533 77.7903 63.1533 86.6809V94.1107H30.9575V86.6809Z" fill="#7F5296"/>
<path d="M30.9575 94.1106H63.1533V141.166H30.9575V94.1106Z" fill="#C937A7"/>
<path fill-rule="evenodd" clip-rule="evenodd" d="M30.9577 94.1106H0V141.166H30.9577V94.1106ZM63.1535 141.166H94.1107V94.1106H63.1535V141.166Z" fill="#F761AF"/>
<path fill-rule="evenodd" clip-rule="evenodd" d="M30.958 141.166V172.124C30.958 181.014 38.1653 188.221 47.0559 188.221C55.9465 188.221 63.1538 181.014 63.1538 172.123V141.166H30.958Z" fill="#E8C37E"/>
<path d="M118.786 124.863C121.425 127.514 129.686 133.736 144.603 133.736C161.47 133.736 171.682 121.752 171.682 109.883C171.682 94.2119 157.454 87.1829 148.504 83.6107C139.439 79.9234 135.997 76.6969 135.997 72.4334C135.997 69.3221 139.095 66.5566 143.226 66.5566C150.225 66.5566 158.601 72.8943 159.634 73.4704C160.666 74.2771 162.732 73.24 163.535 71.9724L169.387 63.0997C169.846 62.2931 170.075 60.2189 168.698 59.4123C165.256 56.8772 156.077 50.77 144.144 50.77C126.473 50.77 117.638 62.2931 117.638 73.7009C117.638 87.5286 130.03 95.249 139.898 99.1669C147.701 102.278 151.717 105.965 151.717 110.805C151.717 114.838 148.389 117.719 143.799 117.719C136.226 117.719 127.965 111.612 127.506 111.381C126.703 110.805 124.523 110.575 123.605 112.073L118.212 121.637C117.294 123.25 117.638 123.711 118.786 124.863Z" fill="#444444"/>
<path d="M186.632 132.353C186.747 133.16 187.894 133.736 188.583 133.736H189.157C189.73 133.736 190.648 133.275 190.992 132.814L205.565 109.768H205.679L220.481 132.814C220.711 133.275 221.743 133.736 222.317 133.736H222.776C223.579 133.736 224.612 133.16 224.841 132.353L240.102 89.3723C240.676 87.8743 239.643 86.4915 238.037 86.4915H227.366C226.104 86.4915 225.53 86.8372 225.071 87.8743L219.219 103.661H219.104L208.089 86.261C207.86 85.8001 207.171 85.3392 206.368 85.3392H205.221C204.188 85.3392 203.614 85.9153 203.385 86.261L192.484 103.661H192.369L186.403 87.8743C186.173 87.0676 185.026 86.4915 184.337 86.4915H173.437C171.831 86.4915 170.798 87.8743 171.372 89.3723L186.632 132.353Z" fill="#444444"/>
<path d="M239.339 109.538C239.339 122.789 249.666 133.736 263.32 133.736C270.549 133.736 276.286 131.201 280.302 127.168C281.335 126.131 281.105 124.748 280.417 123.826L274.68 116.912C273.991 116.106 272.844 116.106 271.811 116.912C269.975 118.295 266.648 119.678 263.779 119.678C257.812 119.678 255.288 115.184 254.944 112.073H282.482C283.515 112.073 284.547 111.266 284.662 110.114C284.777 109.307 284.892 107.809 284.892 107.003C284.892 94.3272 274.794 85.3392 263.091 85.3392C249.551 85.3392 239.339 96.5166 239.339 109.538ZM256.436 103.085C256.894 100.089 259.534 97.6689 262.632 97.6689C265.615 97.6689 268.483 100.089 268.713 103.085H256.436Z" fill="#444444"/>
<path d="M287.559 109.538C287.559 122.789 297.886 133.736 311.54 133.736C318.769 133.736 324.506 131.201 328.522 127.168C329.554 126.131 329.325 124.748 328.636 123.826L322.899 116.912C322.211 116.106 321.063 116.106 320.031 116.912C318.195 118.295 314.867 119.678 311.999 119.678C306.032 119.678 303.508 115.184 303.164 112.073H330.702C331.734 112.073 332.767 111.266 332.882 110.114C332.997 109.307 333.111 107.809 333.111 107.003C333.111 94.3272 323.014 85.3392 311.31 85.3392C297.771 85.3392 287.559 96.5166 287.559 109.538ZM304.655 103.085C305.114 100.089 307.753 97.6689 310.851 97.6689C313.835 97.6689 316.703 100.089 316.933 103.085H304.655Z" fill="#444444"/>
<path d="M339.818 117.719C339.818 128.205 344.867 133.736 353.587 133.736C359.325 133.736 367.471 131.201 367.471 131.201C368.619 130.855 369.192 129.588 368.963 128.551L366.439 118.987C366.094 117.719 365.062 117.258 363.914 117.489C362.767 117.719 361.046 118.295 359.439 118.295C358.062 118.295 356.341 118.065 356.341 115.53V101.126H364.832C366.094 101.126 367.012 100.089 367.012 98.9364V88.6809C367.012 87.4133 366.094 86.4915 364.832 86.4915H356.341V73.7009C356.341 72.5486 355.423 71.5115 354.276 71.5115H341.999C340.851 71.5115 339.818 72.5486 339.818 73.7009V86.4915H336.835C335.688 86.4915 334.77 87.4133 334.77 88.6809V98.9364C334.77 100.089 335.688 101.126 336.835 101.126H339.818V117.719Z" fill="#444444"/>
</svg>
