<svg width="645" height="357" viewBox="0 0 645 357" fill="none" xmlns="http://www.w3.org/2000/svg">
<path fill-rule="evenodd" clip-rule="evenodd" d="M0 49.2856C0 46.3713 2.36253 44.0088 5.27685 44.0088H635.333C638.247 44.0088 640.61 46.3713 640.61 49.2856V49.2856C640.61 52.2 638.247 54.5625 635.333 54.5625H5.27686C2.36253 54.5625 0 52.2 0 49.2856V49.2856Z" fill="#F1F4F7"/>
<path d="M7.90359 4.1612L4.91478 9.92352V13.001H3.14176V9.92352L0.140285 4.1612H2.14127L4.04093 8.20115L5.92793 4.1612H7.90359ZM16.0583 13.0896C15.2309 13.0896 14.4711 12.8954 13.7787 12.5071C13.0864 12.1187 12.5376 11.5826 12.1324 10.8987C11.7271 10.2064 11.5245 9.42538 11.5245 8.55576C11.5245 7.69458 11.7271 6.92205 12.1324 6.23817C12.5376 5.54584 13.0864 5.00549 13.7787 4.61712C14.4711 4.22874 15.2309 4.03455 16.0583 4.03455C16.8942 4.03455 17.6541 4.22874 18.3379 4.61712C19.0303 5.00549 19.5748 5.54584 19.9716 6.23817C20.3769 6.92205 20.5795 7.69458 20.5795 8.55576C20.5795 9.42538 20.3769 10.2064 19.9716 10.8987C19.5748 11.5826 19.0303 12.1187 18.3379 12.5071C17.6456 12.8954 16.8857 13.0896 16.0583 13.0896ZM16.0583 11.5066C16.5902 11.5066 17.0588 11.3884 17.4641 11.152C17.8693 10.9071 18.186 10.561 18.4139 10.1135C18.6419 9.66601 18.7559 9.14677 18.7559 8.55576C18.7559 7.96475 18.6419 7.44973 18.4139 7.0107C18.186 6.56322 17.8693 6.22128 17.4641 5.98488C17.0588 5.74847 16.5902 5.63027 16.0583 5.63027C15.5264 5.63027 15.0536 5.74847 14.6399 5.98488C14.2347 6.22128 13.918 6.56322 13.6901 7.0107C13.4621 7.44973 13.3481 7.96475 13.3481 8.55576C13.3481 9.14677 13.4621 9.66601 13.6901 10.1135C13.918 10.561 14.2347 10.9071 14.6399 11.152C15.0536 11.3884 15.5264 11.5066 16.0583 11.5066ZM26.6752 4.1612V9.63224C26.6752 10.2317 26.8314 10.6918 27.1438 11.0127C27.4562 11.325 27.8952 11.4812 28.4609 11.4812C29.035 11.4812 29.4783 11.325 29.7907 11.0127C30.1031 10.6918 30.2593 10.2317 30.2593 9.63224V4.1612H32.0449V9.61957C32.0449 10.371 31.8803 11.0084 31.551 11.5319C31.2302 12.0469 30.7954 12.4353 30.2466 12.697C29.7062 12.9588 29.1026 13.0896 28.4356 13.0896C27.777 13.0896 27.1776 12.9588 26.6372 12.697C26.1053 12.4353 25.6832 12.0469 25.3708 11.5319C25.0584 11.0084 24.9022 10.371 24.9022 9.61957V4.1612H26.6752ZM42.8025 4.1612V5.59228H40.4469V13.001H38.6739V5.59228H36.3183V4.1612H42.8025ZM54.4578 4.1612V13.001H52.6848V9.23964H48.8981V13.001H47.1251V4.1612H48.8981V7.79589H52.6848V4.1612H54.4578ZM64.6902 4.1612V5.59228H61.0049V7.85921H63.829V9.26497H61.0049V13.001H59.2318V4.1612H64.6902ZM70.7241 4.1612V9.63224C70.7241 10.2317 70.8803 10.6918 71.1926 11.0127C71.505 11.325 71.9441 11.4812 72.5097 11.4812C73.0839 11.4812 73.5271 11.325 73.8395 11.0127C74.1519 10.6918 74.3081 10.2317 74.3081 9.63224V4.1612H76.0938V9.61957C76.0938 10.371 75.9291 11.0084 75.5999 11.5319C75.279 12.0469 74.8442 12.4353 74.2954 12.697C73.7551 12.9588 73.1514 13.0896 72.4844 13.0896C71.8259 13.0896 71.2264 12.9588 70.6861 12.697C70.1542 12.4353 69.732 12.0469 69.4196 11.5319C69.1072 11.0084 68.951 10.371 68.951 9.61957V4.1612H70.7241ZM82.6088 11.5952H85.5216V13.001H80.8358V4.1612H82.6088V11.5952Z" fill="#353839"/>
<path d="M585.72 4.16022V13H583.947V7.25034L581.578 13H580.236L577.855 7.25034V13H576.082V4.16022H578.096L580.907 10.7331L583.719 4.16022H585.72ZM595.922 11.3156H592.401L591.819 13H589.957L593.136 4.14756H595.2L598.379 13H596.504L595.922 11.3156ZM595.441 9.89721L594.161 6.1992L592.882 9.89721H595.441ZM608.611 4.16022V5.5913H606.256V13H604.483V5.5913H602.127V4.16022H608.611ZM614.682 4.16022V9.63126C614.682 10.2307 614.838 10.6909 615.15 11.0117C615.463 11.3241 615.902 11.4803 616.467 11.4803C617.042 11.4803 617.485 11.3241 617.797 11.0117C618.11 10.6909 618.266 10.2307 618.266 9.63126V4.16022H620.051V9.61859C620.051 10.37 619.887 11.0075 619.558 11.5309C619.237 12.0459 618.802 12.4343 618.253 12.6961C617.713 12.9578 617.109 13.0887 616.442 13.0887C615.784 13.0887 615.184 12.9578 614.644 12.6961C614.112 12.4343 613.69 12.0459 613.377 11.5309C613.065 11.0075 612.909 10.37 612.909 9.61859V4.16022H614.682ZM629.353 13L627.402 9.55527H626.566V13H624.793V4.16022H628.111C628.795 4.16022 629.378 4.28264 629.859 4.52749C630.34 4.76389 630.699 5.08895 630.936 5.50265C631.18 5.90791 631.303 6.36383 631.303 6.87041C631.303 7.45297 631.134 7.98066 630.796 8.45347C630.459 8.91783 629.956 9.23866 629.289 9.41596L631.404 13H629.353ZM626.566 8.22551H628.048C628.529 8.22551 628.888 8.11153 629.125 7.88357C629.361 7.64716 629.479 7.32211 629.479 6.9084C629.479 6.50314 629.361 6.19075 629.125 5.97124C628.888 5.74328 628.529 5.6293 628.048 5.6293H626.566V8.22551ZM637.708 5.5913V7.80758H640.685V9.21333H637.708V11.5563H641.065V13H635.935V4.14756H641.065V5.5913H637.708Z" fill="#353839"/>
<path fill-rule="evenodd" clip-rule="evenodd" d="M0 147.435C0 144.521 2.36253 142.158 5.27685 142.158H635.333C638.247 142.158 640.61 144.521 640.61 147.435V147.435C640.61 150.349 638.247 152.712 635.333 152.712H5.27686C2.36253 152.712 0 150.349 0 147.435V147.435Z" fill="#F1F4F7"/>
<path d="M5.43402 111.149L3.4837 107.705H2.64784V111.149H0.874823V102.31H4.19291C4.87679 102.31 5.45935 102.432 5.9406 102.677C6.42185 102.913 6.78067 103.238 7.01708 103.652C7.26192 104.057 7.38435 104.513 7.38435 105.02C7.38435 105.602 7.21549 106.13 6.87777 106.603C6.54005 107.067 6.03769 107.388 5.3707 107.565L7.48566 111.149H5.43402ZM2.64784 106.375H4.12958C4.61083 106.375 4.96966 106.261 5.20606 106.033C5.44246 105.797 5.56067 105.472 5.56067 105.058C5.56067 104.653 5.44246 104.34 5.20606 104.121C4.96966 103.893 4.61083 103.779 4.12958 103.779H2.64784V106.375ZM13.7899 103.741V105.957H16.7661V107.363H13.7899V109.706H17.146V111.149H12.0169V102.297H17.146V103.741H13.7899ZM23.5592 109.744H26.472V111.149H21.7862V102.31H23.5592V109.744ZM36.0482 109.465H32.5275L31.9449 111.149H30.0833L33.2621 102.297H35.3264L38.5051 111.149H36.6308L36.0482 109.465ZM35.567 108.047L34.2879 104.349L33.0088 108.047H35.567ZM48.016 111.149L46.1036 108.173L44.3686 111.149H42.3676L45.1538 106.692L42.3296 102.31H44.3686L46.2809 105.273L48.0033 102.31H50.0043L47.2308 106.755L50.0549 111.149H48.016ZM56.2062 103.741V105.957H59.1824V107.363H56.2062V109.706H59.5623V111.149H54.4332V102.297H59.5623V103.741H56.2062ZM67.2926 102.31C68.2213 102.31 69.0361 102.491 69.7368 102.854C70.446 103.217 70.9906 103.736 71.3705 104.412C71.7589 105.079 71.9531 105.856 71.9531 106.742C71.9531 107.629 71.7589 108.405 71.3705 109.072C70.9906 109.731 70.446 110.242 69.7368 110.605C69.0361 110.968 68.2213 111.149 67.2926 111.149H64.2025V102.31H67.2926ZM67.2293 109.642C68.158 109.642 68.8756 109.389 69.3822 108.882C69.8888 108.376 70.1421 107.662 70.1421 106.742C70.1421 105.822 69.8888 105.104 69.3822 104.589C68.8756 104.066 68.158 103.804 67.2293 103.804H65.9755V109.642H67.2293Z" fill="#353839"/>
<path d="M552.294 103.741V105.957H555.27V107.363H552.294V109.706H555.65V111.149H550.521V102.297H555.65V103.741H552.294ZM567.851 111.149H566.078L562.063 105.083V111.149H560.29V102.297H562.063L566.078 108.376V102.297H567.851V111.149ZM574.405 103.741V105.957H577.381V107.363H574.405V109.706H577.761V111.149H572.632V102.297H577.761V103.741H574.405ZM586.961 111.149L585.01 107.705H584.174V111.149H582.401V102.31H585.719C586.403 102.31 586.986 102.432 587.467 102.677C587.948 102.913 588.307 103.238 588.544 103.652C588.788 104.057 588.911 104.513 588.911 105.02C588.911 105.602 588.742 106.13 588.404 106.603C588.067 107.067 587.564 107.388 586.897 107.565L589.012 111.149H586.961ZM584.174 106.375H585.656C586.137 106.375 586.496 106.261 586.733 106.033C586.969 105.797 587.087 105.472 587.087 105.058C587.087 104.653 586.969 104.34 586.733 104.121C586.496 103.893 586.137 103.779 585.656 103.779H584.174V106.375ZM599.698 104.969C599.496 104.598 599.217 104.315 598.862 104.121C598.508 103.926 598.094 103.829 597.621 103.829C597.098 103.829 596.634 103.948 596.228 104.184C595.823 104.42 595.506 104.758 595.278 105.197C595.05 105.636 594.936 106.143 594.936 106.717C594.936 107.308 595.05 107.823 595.278 108.262C595.515 108.701 595.84 109.039 596.254 109.275C596.667 109.511 597.149 109.63 597.697 109.63C598.373 109.63 598.926 109.452 599.356 109.098C599.787 108.735 600.07 108.232 600.205 107.591H597.165V106.236H601.953V107.781C601.834 108.397 601.581 108.967 601.193 109.49C600.804 110.014 600.302 110.436 599.686 110.757C599.078 111.069 598.394 111.225 597.634 111.225C596.781 111.225 596.009 111.035 595.316 110.656C594.633 110.267 594.092 109.731 593.695 109.047C593.307 108.363 593.113 107.586 593.113 106.717C593.113 105.847 593.307 105.07 593.695 104.387C594.092 103.694 594.633 103.158 595.316 102.778C596.009 102.39 596.777 102.196 597.621 102.196C598.618 102.196 599.483 102.441 600.218 102.93C600.952 103.411 601.459 104.091 601.737 104.969H599.698ZM608.066 103.741V105.957H611.042V107.363H608.066V109.706H611.422V111.149H606.293V102.297H611.422V103.741H608.066ZM622.078 102.31V103.741H619.723V111.149H617.95V103.741H615.594V102.31H622.078ZM628.174 102.31V111.149H626.401V102.31H628.174ZM632.524 106.717C632.524 105.847 632.718 105.07 633.106 104.387C633.503 103.694 634.039 103.158 634.715 102.778C635.399 102.39 636.163 102.196 637.007 102.196C637.995 102.196 638.86 102.449 639.603 102.956C640.346 103.462 640.865 104.163 641.161 105.058H639.122C638.919 104.636 638.632 104.319 638.261 104.108C637.898 103.897 637.476 103.791 636.994 103.791C636.479 103.791 636.019 103.914 635.614 104.159C635.217 104.395 634.905 104.733 634.677 105.172C634.457 105.611 634.347 106.126 634.347 106.717C634.347 107.299 634.457 107.814 634.677 108.262C634.905 108.701 635.217 109.043 635.614 109.288C636.019 109.524 636.479 109.642 636.994 109.642C637.476 109.642 637.898 109.537 638.261 109.326C638.632 109.106 638.919 108.785 639.122 108.363H641.161C640.865 109.267 640.346 109.972 639.603 110.478C638.869 110.976 638.003 111.225 637.007 111.225C636.163 111.225 635.399 111.035 634.715 110.656C634.039 110.267 633.503 109.731 633.106 109.047C632.718 108.363 632.524 107.586 632.524 106.717Z" fill="#353839"/>
<path fill-rule="evenodd" clip-rule="evenodd" d="M0 245.584C0 242.67 2.36253 240.308 5.27685 240.308H635.333C638.247 240.308 640.61 242.67 640.61 245.584V245.584C640.61 248.499 638.247 250.861 635.333 250.861H5.27686C2.36253 250.861 0 248.499 0 245.584V245.584Z" fill="#F1F4F7"/>
<path d="M6.3332 200.459V201.89H2.64784V204.157H5.47201V205.563H2.64784V209.299H0.874823V200.459H6.3332ZM14.7226 209.387C13.8952 209.387 13.1354 209.193 12.443 208.805C11.7507 208.417 11.2019 207.88 10.7967 207.197C10.3914 206.504 10.1888 205.723 10.1888 204.854C10.1888 203.992 10.3914 203.22 10.7967 202.536C11.2019 201.844 11.7507 201.303 12.443 200.915C13.1354 200.527 13.8952 200.332 14.7226 200.332C15.5585 200.332 16.3183 200.527 17.0022 200.915C17.6946 201.303 18.2391 201.844 18.6359 202.536C19.0412 203.22 19.2438 203.992 19.2438 204.854C19.2438 205.723 19.0412 206.504 18.6359 207.197C18.2391 207.88 17.6946 208.417 17.0022 208.805C16.3099 209.193 15.55 209.387 14.7226 209.387ZM14.7226 207.804C15.2545 207.804 15.7231 207.686 16.1284 207.45C16.5336 207.205 16.8503 206.859 17.0782 206.411C17.3062 205.964 17.4202 205.445 17.4202 204.854C17.4202 204.263 17.3062 203.748 17.0782 203.309C16.8503 202.861 16.5336 202.519 16.1284 202.283C15.7231 202.046 15.2545 201.928 14.7226 201.928C14.1907 201.928 13.7179 202.046 13.3042 202.283C12.899 202.519 12.5823 202.861 12.3544 203.309C12.1264 203.748 12.0124 204.263 12.0124 204.854C12.0124 205.445 12.1264 205.964 12.3544 206.411C12.5823 206.859 12.899 207.205 13.3042 207.45C13.7179 207.686 14.1907 207.804 14.7226 207.804ZM25.3648 207.893H28.2777V209.299H23.5918V200.459H25.3648V207.893ZM34.2065 207.893H37.1194V209.299H32.4335V200.459H34.2065V207.893ZM45.3785 209.387C44.5511 209.387 43.7912 209.193 43.0989 208.805C42.4066 208.417 41.8578 207.88 41.4525 207.197C41.0473 206.504 40.8446 205.723 40.8446 204.854C40.8446 203.992 41.0473 203.22 41.4525 202.536C41.8578 201.844 42.4066 201.303 43.0989 200.915C43.7912 200.527 44.5511 200.332 45.3785 200.332C46.2143 200.332 46.9742 200.527 47.6581 200.915C48.3504 201.303 48.895 201.844 49.2918 202.536C49.6971 203.22 49.8997 203.992 49.8997 204.854C49.8997 205.723 49.6971 206.504 49.2918 207.197C48.895 207.88 48.3504 208.417 47.6581 208.805C46.9658 209.193 46.2059 209.387 45.3785 209.387ZM45.3785 207.804C45.9104 207.804 46.379 207.686 46.7842 207.45C47.1895 207.205 47.5061 206.859 47.7341 206.411C47.962 205.964 48.076 205.445 48.076 204.854C48.076 204.263 47.962 203.748 47.7341 203.309C47.5061 202.861 47.1895 202.519 46.7842 202.283C46.379 202.046 45.9104 201.928 45.3785 201.928C44.8466 201.928 44.3738 202.046 43.9601 202.283C43.5548 202.519 43.2382 202.861 43.0102 203.309C42.7823 203.748 42.6683 204.263 42.6683 204.854C42.6683 205.445 42.7823 205.964 43.0102 206.411C43.2382 206.859 43.5548 207.205 43.9601 207.45C44.3738 207.686 44.8466 207.804 45.3785 207.804ZM66.0636 200.459L63.594 209.299H61.5044L59.8454 203.005L58.1103 209.299L56.0334 209.311L53.6525 200.459H55.5521L57.1099 207.323L58.9082 200.459H60.8839L62.5809 207.285L64.1513 200.459H66.0636ZM72.0232 201.89V204.106H74.9994V205.512H72.0232V207.855H75.3793V209.299H70.2502V200.446H75.3793V201.89H72.0232ZM84.5787 209.299L82.6284 205.854H81.7925V209.299H80.0195V200.459H83.3376C84.0215 200.459 84.604 200.581 85.0853 200.826C85.5665 201.063 85.9253 201.388 86.1617 201.801C86.4066 202.207 86.529 202.663 86.529 203.169C86.529 203.752 86.3602 204.279 86.0224 204.752C85.6847 205.217 85.1824 205.537 84.5154 205.715L86.6303 209.299H84.5787ZM81.7925 204.524H83.2743C83.7555 204.524 84.1143 204.41 84.3507 204.182C84.5871 203.946 84.7053 203.621 84.7053 203.207C84.7053 202.802 84.5871 202.49 84.3507 202.27C84.1143 202.042 83.7555 201.928 83.2743 201.928H81.7925V204.524ZM94.2137 209.387C93.5974 209.387 93.0401 209.282 92.542 209.071C92.0523 208.86 91.6639 208.556 91.3769 208.159C91.0898 207.762 90.942 207.294 90.9336 206.753H92.8333C92.8586 207.116 92.9852 207.403 93.2132 207.614C93.4496 207.826 93.7704 207.931 94.1757 207.931C94.5894 207.931 94.9145 207.834 95.1509 207.64C95.3873 207.437 95.5055 207.175 95.5055 206.855C95.5055 206.593 95.4253 206.378 95.2648 206.209C95.1044 206.04 94.9018 205.909 94.657 205.816C94.4205 205.715 94.0913 205.605 93.6691 205.487C93.095 205.318 92.6264 205.153 92.2634 204.993C91.9088 204.824 91.6006 204.575 91.3389 204.246C91.0856 203.908 90.9589 203.461 90.9589 202.903C90.9589 202.38 91.0898 201.924 91.3515 201.536C91.6133 201.147 91.9805 200.852 92.4533 200.649C92.9261 200.438 93.4665 200.332 94.0744 200.332C94.9862 200.332 95.725 200.556 96.2907 201.004C96.8648 201.443 97.1814 202.059 97.2405 202.853H95.2902C95.2733 202.549 95.1424 202.3 94.8976 202.105C94.6612 201.903 94.3446 201.801 93.9477 201.801C93.6016 201.801 93.323 201.89 93.1119 202.067C92.9093 202.245 92.8079 202.502 92.8079 202.84C92.8079 203.076 92.8839 203.275 93.0359 203.435C93.1963 203.587 93.3905 203.714 93.6185 203.815C93.8549 203.908 94.1841 204.018 94.6063 204.144C95.1804 204.313 95.649 204.482 96.012 204.651C96.3751 204.82 96.6875 205.073 96.9492 205.411C97.2109 205.749 97.3418 206.192 97.3418 206.741C97.3418 207.213 97.2194 207.652 96.9745 208.058C96.7297 208.463 96.3709 208.788 95.8981 209.033C95.4253 209.269 94.8638 209.387 94.2137 209.387Z" fill="#353839"/>
<path d="M573.008 207.893H575.92V209.299H571.235V200.459H573.008V207.893ZM581.849 201.89V204.106H584.825V205.512H581.849V207.855H585.205V209.299H580.076V200.446H585.205V201.89H581.849ZM595.266 207.614H591.745L591.163 209.299H589.301L592.48 200.446H594.544L597.723 209.299H595.848L595.266 207.614ZM594.785 206.196L593.506 202.498L592.226 206.196H594.785ZM605.03 200.459C605.959 200.459 606.773 200.641 607.474 201.004C608.183 201.367 608.728 201.886 609.108 202.561C609.496 203.228 609.69 204.005 609.69 204.892C609.69 205.778 609.496 206.555 609.108 207.222C608.728 207.88 608.183 208.391 607.474 208.754C606.773 209.117 605.959 209.299 605.03 209.299H601.94V200.459H605.03ZM604.967 207.792C605.895 207.792 606.613 207.538 607.12 207.032C607.626 206.525 607.879 205.812 607.879 204.892C607.879 203.971 607.626 203.254 607.12 202.739C606.613 202.215 605.895 201.953 604.967 201.953H603.713V207.792H604.967ZM615.82 201.89V204.106H618.796V205.512H615.82V207.855H619.176V209.299H614.047V200.446H619.176V201.89H615.82ZM628.375 209.299L626.425 205.854H625.589V209.299H623.816V200.459H627.134C627.818 200.459 628.4 200.581 628.882 200.826C629.363 201.063 629.722 201.388 629.958 201.801C630.203 202.207 630.325 202.663 630.325 203.169C630.325 203.752 630.157 204.279 629.819 204.752C629.481 205.217 628.979 205.537 628.312 205.715L630.427 209.299H628.375ZM625.589 204.524H627.071C627.552 204.524 627.911 204.41 628.147 204.182C628.384 203.946 628.502 203.621 628.502 203.207C628.502 202.802 628.384 202.49 628.147 202.27C627.911 202.042 627.552 201.928 627.071 201.928H625.589V204.524ZM638.01 209.387C637.394 209.387 636.836 209.282 636.338 209.071C635.849 208.86 635.46 208.556 635.173 208.159C634.886 207.762 634.738 207.294 634.73 206.753H636.63C636.655 207.116 636.782 207.403 637.01 207.614C637.246 207.826 637.567 207.931 637.972 207.931C638.386 207.931 638.711 207.834 638.947 207.64C639.184 207.437 639.302 207.175 639.302 206.855C639.302 206.593 639.222 206.378 639.061 206.209C638.901 206.04 638.698 205.909 638.453 205.816C638.217 205.715 637.888 205.605 637.465 205.487C636.891 205.318 636.423 205.153 636.06 204.993C635.705 204.824 635.397 204.575 635.135 204.246C634.882 203.908 634.755 203.461 634.755 202.903C634.755 202.38 634.886 201.924 635.148 201.536C635.41 201.147 635.777 200.852 636.25 200.649C636.723 200.438 637.263 200.332 637.871 200.332C638.783 200.332 639.521 200.556 640.087 201.004C640.661 201.443 640.978 202.059 641.037 202.853H639.087C639.07 202.549 638.939 202.3 638.694 202.105C638.458 201.903 638.141 201.801 637.744 201.801C637.398 201.801 637.119 201.89 636.908 202.067C636.706 202.245 636.604 202.502 636.604 202.84C636.604 203.076 636.68 203.275 636.832 203.435C636.993 203.587 637.187 203.714 637.415 203.815C637.651 203.908 637.981 204.018 638.403 204.144C638.977 204.313 639.445 204.482 639.808 204.651C640.171 204.82 640.484 205.073 640.746 205.411C641.007 205.749 641.138 206.192 641.138 206.741C641.138 207.213 641.016 207.652 640.771 208.058C640.526 208.463 640.167 208.788 639.694 209.033C639.222 209.269 638.66 209.387 638.01 209.387Z" fill="#353839"/>
<path fill-rule="evenodd" clip-rule="evenodd" d="M0 343.734C0 340.82 2.36253 338.457 5.27685 338.457H635.333C638.247 338.457 640.61 340.82 640.61 343.734V343.734C640.61 346.648 638.247 349.011 635.333 349.011H5.27686C2.36253 349.011 0 346.648 0 343.734V343.734Z" fill="#F1F4F7"/>
<path d="M2.64784 300.04V302.256H5.62399V303.662H2.64784V306.004H6.00392V307.448H0.874823V298.596H6.00392V300.04H2.64784ZM15.9378 307.448L14.0255 304.472L12.2905 307.448H10.2895L13.0757 302.99L10.2515 298.608H12.2905L14.2028 301.572L15.9252 298.608H17.9261L15.1526 303.054L17.9768 307.448H15.9378ZM28.8013 301.344C28.8013 301.817 28.6873 302.26 28.4593 302.674C28.2398 303.087 27.8894 303.421 27.4082 303.674C26.9354 303.928 26.3359 304.054 25.6098 304.054H24.1281V307.448H22.3551V298.608H25.6098C26.2937 298.608 26.8763 298.727 27.3575 298.963C27.8388 299.199 28.1976 299.525 28.434 299.938C28.6788 300.352 28.8013 300.821 28.8013 301.344ZM25.5338 302.623C26.0235 302.623 26.3866 302.513 26.623 302.294C26.8594 302.066 26.9776 301.749 26.9776 301.344C26.9776 300.483 26.4963 300.052 25.5338 300.052H24.1281V302.623H25.5338ZM37.6482 307.448L35.6979 304.004H34.862V307.448H33.089V298.608H36.4071C37.091 298.608 37.6735 298.731 38.1548 298.976C38.636 299.212 38.9949 299.537 39.2313 299.951C39.4761 300.356 39.5985 300.812 39.5985 301.319C39.5985 301.901 39.4297 302.429 39.0919 302.902C38.7542 303.366 38.2519 303.687 37.5849 303.864L39.6998 307.448H37.6482ZM34.862 302.674H36.3438C36.825 302.674 37.1838 302.56 37.4202 302.332C37.6566 302.095 37.7748 301.77 37.7748 301.357C37.7748 300.951 37.6566 300.639 37.4202 300.419C37.1838 300.192 36.825 300.078 36.3438 300.078H34.862V302.674ZM46.0041 300.04V302.256H48.9802V303.662H46.0041V306.004H49.3602V307.448H44.2311V298.596H49.3602V300.04H46.0041ZM57.0525 307.537C56.4361 307.537 55.8789 307.431 55.3808 307.22C54.8911 307.009 54.5027 306.705 54.2156 306.308C53.9286 305.912 53.7808 305.443 53.7724 304.903H55.672C55.6974 305.266 55.824 305.553 56.052 305.764C56.2884 305.975 56.6092 306.08 57.0145 306.08C57.4282 306.08 57.7532 305.983 57.9896 305.789C58.226 305.587 58.3442 305.325 58.3442 305.004C58.3442 304.742 58.264 304.527 58.1036 304.358C57.9432 304.189 57.7406 304.058 57.4957 303.966C57.2593 303.864 56.93 303.754 56.5079 303.636C55.9338 303.467 55.4652 303.303 55.1021 303.142C54.7475 302.973 54.4394 302.724 54.1776 302.395C53.9243 302.057 53.7977 301.61 53.7977 301.053C53.7977 300.529 53.9286 300.073 54.1903 299.685C54.452 299.297 54.8193 299.001 55.2921 298.798C55.7649 298.587 56.3053 298.482 56.9132 298.482C57.825 298.482 58.5638 298.706 59.1294 299.153C59.7036 299.592 60.0202 300.208 60.0793 301.002H58.1289C58.1121 300.698 57.9812 300.449 57.7363 300.255C57.4999 300.052 57.1833 299.951 56.7865 299.951C56.4403 299.951 56.1617 300.04 55.9507 300.217C55.748 300.394 55.6467 300.652 55.6467 300.989C55.6467 301.226 55.7227 301.424 55.8747 301.585C56.0351 301.737 56.2293 301.863 56.4572 301.965C56.6936 302.057 57.0229 302.167 57.4451 302.294C58.0192 302.463 58.4878 302.632 58.8508 302.8C59.2139 302.969 59.5263 303.223 59.788 303.56C60.0497 303.898 60.1806 304.341 60.1806 304.89C60.1806 305.363 60.0582 305.802 59.8133 306.207C59.5685 306.612 59.2096 306.937 58.7368 307.182C58.264 307.419 57.7026 307.537 57.0525 307.537ZM67.7988 307.537C67.1824 307.537 66.6252 307.431 66.1271 307.22C65.6374 307.009 65.249 306.705 64.9619 306.308C64.6749 305.912 64.5271 305.443 64.5187 304.903H66.4183C66.4437 305.266 66.5703 305.553 66.7983 305.764C67.0347 305.975 67.3555 306.08 67.7608 306.08C68.1745 306.08 68.4995 305.983 68.7359 305.789C68.9723 305.587 69.0905 305.325 69.0905 305.004C69.0905 304.742 69.0103 304.527 68.8499 304.358C68.6895 304.189 68.4869 304.058 68.242 303.966C68.0056 303.864 67.6763 303.754 67.2542 303.636C66.6801 303.467 66.2115 303.303 65.8484 303.142C65.4938 302.973 65.1857 302.724 64.9239 302.395C64.6707 302.057 64.544 301.61 64.544 301.053C64.544 300.529 64.6749 300.073 64.9366 299.685C65.1983 299.297 65.5656 299.001 66.0384 298.798C66.5112 298.587 67.0516 298.482 67.6595 298.482C68.5713 298.482 69.3101 298.706 69.8757 299.153C70.4499 299.592 70.7665 300.208 70.8256 301.002H68.8752C68.8584 300.698 68.7275 300.449 68.4827 300.255C68.2462 300.052 67.9296 299.951 67.5328 299.951C67.1867 299.951 66.908 300.04 66.697 300.217C66.4943 300.394 66.393 300.652 66.393 300.989C66.393 301.226 66.469 301.424 66.621 301.585C66.7814 301.737 66.9756 301.863 67.2035 301.965C67.4399 302.057 67.7692 302.167 68.1914 302.294C68.7655 302.463 69.2341 302.632 69.5971 302.8C69.9602 302.969 70.2726 303.223 70.5343 303.56C70.796 303.898 70.9269 304.341 70.9269 304.89C70.9269 305.363 70.8045 305.802 70.5596 306.207C70.3148 306.612 69.9559 306.937 69.4831 307.182C69.0103 307.419 68.4489 307.537 67.7988 307.537ZM77.266 298.608V307.448H75.4929V298.608H77.266ZM89.9872 298.608L86.7451 307.448H84.5922L81.3501 298.608H83.2498L85.6813 305.637L88.1002 298.608H89.9872ZM95.8522 300.04V302.256H98.8283V303.662H95.8522V306.004H99.2083V307.448H94.0792V298.596H99.2083V300.04H95.8522Z" fill="#353839"/>
<path d="M563.787 307.448L561.836 304.004H561V307.448H559.227V298.608H562.545C563.229 298.608 563.812 298.731 564.293 298.976C564.774 299.212 565.133 299.537 565.37 299.951C565.614 300.356 565.737 300.812 565.737 301.319C565.737 301.901 565.568 302.429 565.23 302.902C564.893 303.366 564.39 303.687 563.723 303.864L565.838 307.448H563.787ZM561 302.674H562.482C562.963 302.674 563.322 302.56 563.559 302.332C563.795 302.095 563.913 301.77 563.913 301.357C563.913 300.951 563.795 300.639 563.559 300.419C563.322 300.192 562.963 300.078 562.482 300.078H561V302.674ZM572.142 300.04V302.256H575.119V303.662H572.142V306.004H575.499V307.448H570.369V298.596H575.499V300.04H572.142ZM583.191 307.537C582.575 307.537 582.017 307.431 581.519 307.22C581.029 307.009 580.641 306.705 580.354 306.308C580.067 305.912 579.919 305.443 579.911 304.903H581.81C581.836 305.266 581.962 305.553 582.19 305.764C582.427 305.975 582.748 306.08 583.153 306.08C583.567 306.08 583.892 305.983 584.128 305.789C584.364 305.587 584.483 305.325 584.483 305.004C584.483 304.742 584.402 304.527 584.242 304.358C584.082 304.189 583.879 304.058 583.634 303.966C583.398 303.864 583.068 303.754 582.646 303.636C582.072 303.467 581.604 303.303 581.241 303.142C580.886 302.973 580.578 302.724 580.316 302.395C580.063 302.057 579.936 301.61 579.936 301.053C579.936 300.529 580.067 300.073 580.329 299.685C580.59 299.297 580.958 299.001 581.43 298.798C581.903 298.587 582.444 298.482 583.052 298.482C583.963 298.482 584.702 298.706 585.268 299.153C585.842 299.592 586.159 300.208 586.218 301.002H584.267C584.25 300.698 584.12 300.449 583.875 300.255C583.638 300.052 583.322 299.951 582.925 299.951C582.579 299.951 582.3 300.04 582.089 300.217C581.886 300.394 581.785 300.652 581.785 300.989C581.785 301.226 581.861 301.424 582.013 301.585C582.173 301.737 582.368 301.863 582.596 301.965C582.832 302.057 583.161 302.167 583.583 302.294C584.158 302.463 584.626 302.632 584.989 302.8C585.352 302.969 585.665 303.223 585.926 303.56C586.188 303.898 586.319 304.341 586.319 304.89C586.319 305.363 586.197 305.802 585.952 306.207C585.707 306.612 585.348 306.937 584.875 307.182C584.402 307.419 583.841 307.537 583.191 307.537ZM592.658 300.04V302.256H595.634V303.662H592.658V306.004H596.014V307.448H590.885V298.596H596.014V300.04H592.658ZM605.213 307.448L603.263 304.004H602.427V307.448H600.654V298.608H603.972C604.656 298.608 605.239 298.731 605.72 298.976C606.201 299.212 606.56 299.537 606.797 299.951C607.041 300.356 607.164 300.812 607.164 301.319C607.164 301.901 606.995 302.429 606.657 302.902C606.32 303.366 605.817 303.687 605.15 303.864L607.265 307.448H605.213ZM602.427 302.674H603.909C604.39 302.674 604.749 302.56 604.986 302.332C605.222 302.095 605.34 301.77 605.34 301.357C605.34 300.951 605.222 300.639 604.986 300.419C604.749 300.192 604.39 300.078 603.909 300.078H602.427V302.674ZM619.737 298.608L616.495 307.448H614.342L611.1 298.608H612.999L615.431 305.637L617.85 298.608H619.737ZM625.602 300.04V302.256H628.578V303.662H625.602V306.004H628.958V307.448H623.829V298.596H628.958V300.04H625.602ZM636.688 298.608C637.617 298.608 638.432 298.79 639.133 299.153C639.842 299.516 640.386 300.035 640.766 300.711C641.155 301.378 641.349 302.155 641.349 303.041C641.349 303.928 641.155 304.704 640.766 305.371C640.386 306.03 639.842 306.541 639.133 306.904C638.432 307.267 637.617 307.448 636.688 307.448H633.598V298.608H636.688ZM636.625 305.941C637.554 305.941 638.271 305.688 638.778 305.181C639.284 304.675 639.538 303.961 639.538 303.041C639.538 302.121 639.284 301.403 638.778 300.888C638.271 300.365 637.554 300.103 636.625 300.103H635.371V305.941H636.625Z" fill="#353839"/>
</svg>
