<svg width="341" height="303" viewBox="0 0 341 303" fill="none" xmlns="http://www.w3.org/2000/svg">
<g style="mix-blend-mode:multiply">
<path d="M224.084 251.224C214.037 280.913 242.203 294.558 260.578 286.532C289.231 274.019 300.38 250.185 305.666 229.315C322.1 164.436 235.679 133.764 216.864 186.436C204.531 220.96 236.103 215.712 224.084 251.224Z" fill="url(#paint0_linear)"/>
</g>
<g style="mix-blend-mode:multiply">
<path d="M239.648 97.3447C295.406 129.291 214.415 237.129 160.529 205.087C92.2623 164.493 162.078 52.9015 239.648 97.3447Z" fill="url(#paint1_linear)"/>
</g>
<path d="M170.117 172.777H171.483C171.642 172.777 171.8 172.789 171.959 172.813C172.121 172.834 172.266 172.879 172.394 172.948C172.522 173.013 172.625 173.106 172.704 173.227C172.784 173.348 172.824 173.508 172.824 173.708C172.824 173.915 172.765 174.088 172.648 174.226C172.534 174.361 172.382 174.457 172.192 174.516V174.526C172.313 174.543 172.422 174.578 172.518 174.63C172.618 174.678 172.703 174.742 172.772 174.821C172.844 174.897 172.899 174.987 172.937 175.09C172.975 175.194 172.994 175.304 172.994 175.422C172.994 175.615 172.953 175.777 172.87 175.908C172.787 176.036 172.68 176.139 172.549 176.219C172.418 176.298 172.27 176.355 172.104 176.389C171.942 176.424 171.78 176.441 171.618 176.441H170.117V172.777ZM170.924 174.241H171.509C171.571 174.241 171.631 174.235 171.69 174.221C171.752 174.207 171.807 174.185 171.856 174.153C171.904 174.122 171.942 174.081 171.97 174.029C172.001 173.978 172.016 173.915 172.016 173.843C172.016 173.767 171.999 173.705 171.964 173.657C171.933 173.605 171.892 173.565 171.84 173.538C171.788 173.51 171.73 173.491 171.664 173.481C171.599 173.467 171.535 173.46 171.473 173.46H170.924V174.241ZM170.924 175.758H171.649C171.711 175.758 171.773 175.751 171.835 175.737C171.9 175.723 171.959 175.699 172.011 175.665C172.063 175.63 172.104 175.585 172.135 175.53C172.17 175.475 172.187 175.408 172.187 175.328C172.187 175.242 172.164 175.173 172.12 175.121C172.078 175.066 172.025 175.025 171.959 174.997C171.894 174.97 171.823 174.951 171.747 174.94C171.671 174.93 171.6 174.925 171.535 174.925H170.924V175.758ZM176.563 175.028C176.563 175.246 176.53 175.446 176.464 175.629C176.399 175.811 176.3 175.97 176.169 176.105C176.042 176.239 175.881 176.345 175.688 176.42C175.495 176.496 175.272 176.534 175.02 176.534C174.765 176.534 174.541 176.496 174.347 176.42C174.154 176.345 173.992 176.239 173.861 176.105C173.733 175.97 173.637 175.811 173.571 175.629C173.506 175.446 173.473 175.246 173.473 175.028V172.777H174.28V174.997C174.28 175.111 174.297 175.216 174.332 175.313C174.37 175.409 174.422 175.494 174.487 175.566C174.553 175.635 174.63 175.691 174.72 175.732C174.813 175.77 174.913 175.789 175.02 175.789C175.127 175.789 175.226 175.77 175.315 175.732C175.405 175.691 175.483 175.635 175.548 175.566C175.614 175.494 175.664 175.409 175.698 175.313C175.736 175.216 175.755 175.111 175.755 174.997V172.777H176.563V175.028ZM178.21 174.878L176.833 172.777H177.837L178.613 174.148L179.436 172.777H180.394L179.017 174.878V176.441H178.21V174.878ZM182.906 173.491H181.86V172.777H184.759V173.491H183.713V176.441H182.906V173.491ZM185.158 172.777H185.966V176.441H185.158V172.777ZM189.097 173.729C189.017 173.632 188.919 173.558 188.802 173.507C188.688 173.455 188.555 173.429 188.403 173.429C188.251 173.429 188.11 173.458 187.979 173.517C187.851 173.576 187.739 173.658 187.642 173.765C187.549 173.869 187.475 173.993 187.42 174.138C187.368 174.283 187.342 174.44 187.342 174.609C187.342 174.781 187.368 174.94 187.42 175.085C187.475 175.227 187.549 175.351 187.642 175.458C187.735 175.561 187.844 175.642 187.968 175.701C188.096 175.76 188.232 175.789 188.377 175.789C188.543 175.789 188.689 175.755 188.817 175.686C188.945 175.616 189.05 175.52 189.133 175.396L189.806 175.898C189.65 176.115 189.454 176.276 189.216 176.379C188.978 176.483 188.733 176.534 188.481 176.534C188.194 176.534 187.93 176.489 187.689 176.4C187.447 176.31 187.239 176.182 187.063 176.017C186.887 175.848 186.749 175.644 186.648 175.406C186.552 175.168 186.504 174.902 186.504 174.609C186.504 174.316 186.552 174.05 186.648 173.812C186.749 173.574 186.887 173.372 187.063 173.206C187.239 173.037 187.447 172.908 187.689 172.818C187.93 172.728 188.194 172.684 188.481 172.684C188.584 172.684 188.691 172.694 188.802 172.715C188.915 172.732 189.026 172.761 189.133 172.803C189.243 172.844 189.348 172.899 189.449 172.968C189.549 173.037 189.638 173.122 189.718 173.222L189.097 173.729ZM190.274 172.777H191.082V174.298L192.505 172.777H193.561L191.931 174.48L193.701 176.441H192.572L191.082 174.702V176.441H190.274V172.777ZM194.01 172.777H196.499V173.522H194.817V174.205H196.406V174.951H194.817V175.696H196.592V176.441H194.01V172.777ZM197.948 173.491H196.902V172.777H199.801V173.491H198.755V176.441H197.948V173.491ZM202.022 173.672C201.957 173.589 201.867 173.529 201.753 173.491C201.643 173.45 201.538 173.429 201.437 173.429C201.379 173.429 201.318 173.436 201.256 173.45C201.194 173.463 201.136 173.486 201.08 173.517C201.025 173.544 200.98 173.582 200.946 173.631C200.911 173.679 200.894 173.738 200.894 173.807C200.894 173.917 200.935 174.002 201.018 174.06C201.101 174.119 201.205 174.169 201.329 174.21C201.456 174.252 201.593 174.293 201.738 174.335C201.883 174.376 202.017 174.435 202.141 174.511C202.269 174.587 202.374 174.688 202.457 174.816C202.54 174.944 202.581 175.114 202.581 175.328C202.581 175.532 202.543 175.71 202.467 175.861C202.392 176.013 202.288 176.139 202.157 176.239C202.029 176.339 201.879 176.414 201.707 176.462C201.538 176.51 201.358 176.534 201.168 176.534C200.93 176.534 200.709 176.498 200.506 176.426C200.302 176.353 200.112 176.236 199.936 176.074L200.511 175.442C200.594 175.553 200.697 175.639 200.822 175.701C200.949 175.76 201.08 175.789 201.215 175.789C201.28 175.789 201.346 175.782 201.412 175.768C201.481 175.751 201.541 175.727 201.593 175.696C201.648 175.665 201.691 175.625 201.722 175.577C201.757 175.529 201.774 175.472 201.774 175.406C201.774 175.296 201.731 175.209 201.644 175.147C201.562 175.082 201.456 175.026 201.329 174.982C201.201 174.937 201.063 174.892 200.915 174.847C200.766 174.802 200.628 174.742 200.501 174.666C200.373 174.59 200.266 174.49 200.18 174.366C200.097 174.241 200.056 174.078 200.056 173.874C200.056 173.677 200.093 173.505 200.169 173.356C200.249 173.208 200.352 173.084 200.48 172.984C200.611 172.884 200.761 172.81 200.93 172.761C201.099 172.709 201.274 172.684 201.453 172.684C201.66 172.684 201.86 172.713 202.053 172.772C202.247 172.83 202.421 172.929 202.576 173.067L202.022 173.672Z" fill="white"/>
<path d="M164.557 162.924H168.14V159.341H170.28V162.924H173.864V165.064H170.28V168.648H168.14V165.064H164.557V162.924ZM175.359 166.44L180.03 162.245C180.267 162.03 180.505 161.786 180.743 161.515C180.981 161.243 181.1 160.926 181.1 160.564C181.1 160.156 180.952 159.839 180.658 159.613C180.364 159.375 180.018 159.256 179.622 159.256C179.146 159.256 178.773 159.403 178.501 159.697C178.241 159.992 178.093 160.354 178.059 160.784L175.512 160.598C175.546 159.975 175.676 159.437 175.902 158.984C176.129 158.52 176.429 158.135 176.803 157.829C177.176 157.523 177.612 157.297 178.11 157.15C178.62 156.991 179.169 156.912 179.758 156.912C180.301 156.912 180.811 156.991 181.286 157.15C181.762 157.297 182.175 157.523 182.526 157.829C182.877 158.124 183.149 158.497 183.341 158.95C183.545 159.403 183.647 159.93 183.647 160.53C183.647 160.915 183.608 161.266 183.528 161.583C183.449 161.888 183.336 162.171 183.189 162.432C183.053 162.681 182.889 162.913 182.696 163.128C182.504 163.343 182.294 163.553 182.068 163.757L178.416 166.899H183.749V169.141H175.359V166.44ZM189.894 166.729H184.646V164.589L189.554 157.116H192.34V164.589H193.885V166.729H192.34V169.141H189.894V166.729ZM189.894 160.445H189.86L187.193 164.589H189.894V160.445ZM202.73 159.358H197.958L197.907 161.209C198.167 161.118 198.524 161.073 198.977 161.073C199.588 161.073 200.149 161.164 200.658 161.345C201.168 161.526 201.604 161.792 201.966 162.143C202.34 162.483 202.628 162.902 202.832 163.4C203.036 163.887 203.138 164.436 203.138 165.047C203.138 165.727 203.019 166.333 202.781 166.865C202.555 167.397 202.238 167.85 201.83 168.223C201.423 168.586 200.936 168.863 200.37 169.056C199.815 169.248 199.209 169.344 198.552 169.344C197.511 169.344 196.639 169.09 195.937 168.58C195.235 168.071 194.754 167.301 194.493 166.27L197.16 165.659C197.228 166.089 197.409 166.44 197.703 166.712C197.997 166.972 198.365 167.103 198.807 167.103C199.351 167.103 199.781 166.933 200.098 166.593C200.426 166.253 200.59 165.823 200.59 165.302C200.59 164.906 200.505 164.583 200.336 164.334C200.177 164.074 199.962 163.87 199.69 163.723C199.43 163.564 199.135 163.457 198.807 163.4C198.479 163.343 198.15 163.315 197.822 163.315C197.403 163.315 196.978 163.355 196.548 163.434C196.129 163.513 195.722 163.621 195.325 163.757L195.461 157.116H202.73V159.358Z" fill="white"/>
<rect width="24.1514" height="24.1514" rx="5.17576" transform="matrix(0.706936 0.707277 -0.706936 0.707277 186.103 117.646)" fill="white"/>
<path d="M193.432 131.166L192.216 129.95C192.1 130.013 191.976 130.063 191.844 130.1C191.713 130.137 191.573 130.155 191.426 130.155C190.973 130.155 190.589 129.995 190.273 129.674C189.957 129.353 189.799 128.966 189.799 128.513C189.799 128.365 189.815 128.226 189.846 128.094C189.878 127.963 189.925 127.839 189.989 127.723L188.772 126.507C188.614 126.349 188.422 126.27 188.196 126.27C187.97 126.27 187.772 126.349 187.604 126.507L178.712 135.415C178.554 135.573 178.475 135.765 178.475 135.991C178.475 136.218 178.554 136.41 178.712 136.568L179.928 137.784C180.043 137.721 180.167 137.673 180.299 137.642C180.43 137.61 180.57 137.594 180.717 137.594C181.17 137.594 181.554 137.752 181.87 138.068C182.186 138.384 182.344 138.768 182.344 139.221C182.344 139.369 182.328 139.508 182.297 139.64C182.265 139.771 182.218 139.895 182.155 140.011L183.371 141.227C183.529 141.385 183.721 141.464 183.947 141.464C184.174 141.464 184.371 141.385 184.54 141.227L193.432 132.335C193.59 132.177 193.669 131.982 193.669 131.751C193.669 131.519 193.59 131.324 193.432 131.166Z" fill="#44EBC7"/>
<path d="M185.29 137.093L182.998 134.801L187.205 130.594L189.498 132.886L185.29 137.093Z" fill="white"/>
<g style="mix-blend-mode:multiply">
<path d="M51.1706 141.727C103.625 202.142 187.616 141.377 153.51 83.9114C136.798 55.7543 36.2555 4.53254 25.6842 58.442C18.4983 95.0869 34.2971 122.293 51.1706 141.727Z" fill="url(#paint2_linear)"/>
</g>
<g style="mix-blend-mode:multiply">
<path d="M133.835 198.175C161.247 210.229 149.974 250.646 131.162 264.047C101.828 284.944 77.5782 278.546 59.6022 268.182C3.72027 235.965 45.8857 120.529 95.2379 140.862C127.587 154.19 101.046 183.756 133.835 198.175Z" fill="url(#paint3_linear)"/>
</g>
<path d="M67.1601 236.016H67.9675V239.681H67.1601V236.016ZM68.7019 236.016H69.7992L71.3571 238.563H71.3675V236.016H72.1749V239.681H71.119L69.5197 237.072H69.5094V239.681H68.7019V236.016ZM72.5601 236.016H73.4814L74.3871 238.418H74.3975L75.3188 236.016H76.1831L74.6718 239.681H74.0248L72.5601 236.016ZM76.5563 236.016H77.3637V239.681H76.5563V236.016ZM78.8072 236.731H77.7617V236.016H80.6602V236.731H79.6147V239.681H78.8072V236.731ZM81.1012 236.016H83.5908V236.762H81.9087V237.445H83.4976V238.19H81.9087V238.936H83.6839V239.681H81.1012V236.016ZM85.8929 236.016H88.3513V236.762H86.7003V237.507H88.2271V238.252H86.7003V239.681H85.8929V236.016ZM88.9299 236.016H90.348C90.5343 236.016 90.7103 236.035 90.8759 236.073C91.045 236.108 91.1917 236.168 91.3159 236.255C91.4435 236.337 91.5436 236.451 91.6161 236.596C91.692 236.738 91.7299 236.915 91.7299 237.129C91.7299 237.388 91.6627 237.609 91.5281 237.792C91.3935 237.971 91.1968 238.085 90.938 238.133L91.8697 239.681H90.9018L90.1358 238.216H89.7373V239.681H88.9299V236.016ZM89.7373 237.533H90.2134C90.2859 237.533 90.3618 237.531 90.4412 237.528C90.524 237.521 90.5982 237.505 90.6637 237.481C90.7293 237.454 90.7828 237.412 90.8242 237.357C90.869 237.302 90.8915 237.224 90.8915 237.124C90.8915 237.031 90.8725 236.957 90.8345 236.902C90.7966 236.846 90.7483 236.805 90.6896 236.777C90.631 236.746 90.5637 236.726 90.4878 236.715C90.4118 236.705 90.3377 236.7 90.2652 236.7H89.7373V237.533ZM92.2757 236.016H93.0831V239.681H92.2757V236.016ZM93.8486 236.016H96.3381V236.762H94.656V237.445H96.2449V238.19H94.656V238.936H96.4313V239.681H93.8486V236.016ZM97.0776 236.016H98.1749L99.7328 238.563H99.7431V236.016H100.551V239.681H99.4947L97.8954 237.072H97.885V239.681H97.0776V236.016ZM101.298 236.016H102.509C102.803 236.016 103.08 236.049 103.343 236.115C103.608 236.18 103.839 236.287 104.036 236.436C104.233 236.581 104.388 236.77 104.502 237.005C104.619 237.24 104.678 237.524 104.678 237.859C104.678 238.156 104.621 238.418 104.507 238.646C104.397 238.87 104.247 239.06 104.057 239.215C103.867 239.367 103.648 239.483 103.399 239.562C103.151 239.641 102.891 239.681 102.618 239.681H101.298V236.016ZM102.106 238.936H102.525C102.711 238.936 102.884 238.917 103.042 238.879C103.204 238.841 103.344 238.779 103.462 238.692C103.579 238.603 103.67 238.487 103.736 238.346C103.805 238.201 103.839 238.025 103.839 237.818C103.839 237.638 103.805 237.483 103.736 237.352C103.67 237.217 103.581 237.107 103.467 237.021C103.353 236.934 103.218 236.87 103.063 236.829C102.911 236.784 102.751 236.762 102.582 236.762H102.106V238.936ZM107.037 236.912C106.971 236.829 106.882 236.769 106.768 236.731C106.657 236.689 106.552 236.669 106.452 236.669C106.393 236.669 106.333 236.676 106.271 236.689C106.209 236.703 106.15 236.726 106.095 236.757C106.04 236.784 105.995 236.822 105.96 236.87C105.926 236.919 105.909 236.977 105.909 237.046C105.909 237.157 105.95 237.241 106.033 237.3C106.116 237.359 106.219 237.409 106.343 237.45C106.471 237.492 106.607 237.533 106.752 237.574C106.897 237.616 107.032 237.674 107.156 237.75C107.284 237.826 107.389 237.928 107.472 238.056C107.554 238.183 107.596 238.354 107.596 238.568C107.596 238.772 107.558 238.949 107.482 239.101C107.406 239.253 107.303 239.379 107.171 239.479C107.044 239.579 106.894 239.653 106.721 239.702C106.552 239.75 106.373 239.774 106.183 239.774C105.945 239.774 105.724 239.738 105.52 239.665C105.317 239.593 105.127 239.476 104.951 239.313L105.526 238.682C105.608 238.792 105.712 238.879 105.836 238.941C105.964 238.999 106.095 239.029 106.229 239.029C106.295 239.029 106.361 239.022 106.426 239.008C106.495 238.991 106.556 238.967 106.607 238.936C106.663 238.905 106.706 238.865 106.737 238.817C106.771 238.768 106.788 238.711 106.788 238.646C106.788 238.535 106.745 238.449 106.659 238.387C106.576 238.321 106.471 238.266 106.343 238.221C106.216 238.176 106.078 238.132 105.929 238.087C105.781 238.042 105.643 237.982 105.515 237.906C105.388 237.83 105.281 237.73 105.194 237.605C105.112 237.481 105.07 237.317 105.07 237.114C105.07 236.917 105.108 236.745 105.184 236.596C105.263 236.448 105.367 236.324 105.495 236.224C105.626 236.123 105.776 236.049 105.945 236.001C106.114 235.949 106.288 235.923 106.468 235.923C106.675 235.923 106.875 235.953 107.068 236.011C107.261 236.07 107.435 236.168 107.591 236.306L107.037 236.912Z" fill="white"/>
<path d="M70.2413 226.164H73.8249V222.58H75.9649V226.164H79.5486V228.304H75.9649V231.888H73.8249V228.304H70.2413V226.164ZM81.0434 229.68L85.7141 225.485C85.9518 225.269 86.1896 225.026 86.4274 224.754C86.6652 224.483 86.7841 224.165 86.7841 223.803C86.7841 223.396 86.6369 223.078 86.3425 222.852C86.0481 222.614 85.7027 222.495 85.3064 222.495C84.8309 222.495 84.4572 222.643 84.1855 222.937C83.9251 223.231 83.7779 223.594 83.7439 224.024L81.1963 223.837C81.2302 223.214 81.3605 222.677 81.5869 222.224C81.8134 221.759 82.1134 221.374 82.4871 221.069C82.8607 220.763 83.2966 220.537 83.7948 220.389C84.3044 220.231 84.8535 220.152 85.4423 220.152C85.9858 220.152 86.4953 220.231 86.9709 220.389C87.4464 220.537 87.8597 220.763 88.2107 221.069C88.5617 221.363 88.8335 221.737 89.026 222.19C89.2298 222.643 89.3317 223.169 89.3317 223.769C89.3317 224.154 89.292 224.505 89.2128 224.822C89.1335 225.128 89.0203 225.411 88.8731 225.671C88.7372 225.92 88.573 226.153 88.3806 226.368C88.1881 226.583 87.9786 226.792 87.7521 226.996L84.1006 230.138H89.4336V232.38H81.0434V229.68ZM98.7035 222.597H93.9309L93.88 224.449C94.1404 224.358 94.4971 224.313 94.95 224.313C95.5614 224.313 96.1219 224.403 96.6314 224.584C97.1409 224.766 97.5768 225.032 97.9392 225.383C98.3128 225.722 98.6016 226.141 98.8054 226.639C99.0092 227.126 99.1111 227.676 99.1111 228.287C99.1111 228.966 98.9922 229.572 98.7544 230.104C98.528 230.636 98.2109 231.089 97.8033 231.463C97.3957 231.825 96.9088 232.103 96.3427 232.295C95.7879 232.488 95.1821 232.584 94.5254 232.584C93.4837 232.584 92.6118 232.329 91.9098 231.82C91.2078 231.31 90.7266 230.54 90.4662 229.51L93.1327 228.898C93.2006 229.329 93.3818 229.68 93.6762 229.951C93.9705 230.212 94.3385 230.342 94.7801 230.342C95.3236 230.342 95.7539 230.172 96.0709 229.833C96.3993 229.493 96.5635 229.063 96.5635 228.542C96.5635 228.145 96.4785 227.823 96.3087 227.574C96.1502 227.313 95.935 227.109 95.6633 226.962C95.4029 226.804 95.1085 226.696 94.7801 226.639C94.4518 226.583 94.1234 226.555 93.795 226.555C93.3761 226.555 92.9515 226.594 92.5212 226.673C92.1023 226.753 91.6947 226.86 91.2984 226.996L91.4343 220.355H98.7035V222.597Z" fill="white"/>
<rect width="24.1514" height="24.1514" rx="5.17576" transform="matrix(0.706936 0.707277 -0.706936 0.707277 87.959 180.065)" fill="white"/>
<path d="M86.32 195.541V194.335C86.32 193.891 86.3934 193.475 86.5403 193.087C86.6872 192.698 86.8875 192.365 87.1413 192.088C87.395 191.797 87.6888 191.568 88.0227 191.402C88.3699 191.235 88.7371 191.152 89.1244 191.152H91.0074V193.544H89.1244C89.0176 193.544 88.9107 193.62 88.8039 193.773C88.7104 193.912 88.6637 194.085 88.6637 194.293V195.541H91.0074V197.975H88.6637V203.882H86.32V197.975H84.437V195.541H86.32Z" fill="#FF9575"/>
<g style="mix-blend-mode:multiply">
<path d="M325.109 78.5024C314.989 27.2272 236.46 -12.3668 234.89 40.9334C233.562 85.9697 184.996 49.5604 196.737 90.069C223.253 181.554 340.549 156.729 325.109 78.5024Z" fill="url(#paint4_linear)"/>
</g>
<path d="M246.807 107.515H247.615V110.434H249.111V111.179H246.807V107.515ZM249.546 107.515H250.353V111.179H249.546V107.515ZM251.119 107.515H251.926V109.037L253.35 107.515H254.405L252.775 109.218L254.545 111.179H253.417L251.926 109.44V111.179H251.119V107.515ZM254.854 107.515H257.344V108.26H255.661V108.944H257.25V109.689H255.661V110.434H257.437V111.179H254.854V107.515ZM259.615 107.515H260.976C261.166 107.515 261.345 107.532 261.514 107.567C261.683 107.601 261.83 107.662 261.954 107.748C262.082 107.831 262.182 107.945 262.254 108.09C262.33 108.231 262.368 108.41 262.368 108.628C262.368 108.842 262.334 109.021 262.265 109.166C262.196 109.311 262.101 109.427 261.98 109.513C261.859 109.599 261.716 109.661 261.55 109.699C261.385 109.734 261.205 109.751 261.012 109.751H260.422V111.179H259.615V107.515ZM260.422 109.068H260.96C261.033 109.068 261.102 109.061 261.167 109.047C261.236 109.033 261.297 109.011 261.348 108.98C261.404 108.945 261.447 108.9 261.478 108.845C261.512 108.787 261.53 108.714 261.53 108.628C261.53 108.535 261.507 108.46 261.462 108.405C261.421 108.347 261.366 108.302 261.297 108.271C261.231 108.24 261.157 108.221 261.074 108.214C260.991 108.203 260.912 108.198 260.836 108.198H260.422V109.068ZM262.678 109.347C262.678 109.054 262.726 108.788 262.823 108.55C262.923 108.312 263.061 108.11 263.237 107.945C263.413 107.776 263.622 107.646 263.863 107.556C264.105 107.467 264.369 107.422 264.655 107.422C264.942 107.422 265.205 107.467 265.447 107.556C265.689 107.646 265.897 107.776 266.073 107.945C266.249 108.11 266.386 108.312 266.482 108.55C266.582 108.788 266.632 109.054 266.632 109.347C266.632 109.641 266.582 109.906 266.482 110.144C266.386 110.382 266.249 110.586 266.073 110.755C265.897 110.921 265.689 111.048 265.447 111.138C265.205 111.228 264.942 111.273 264.655 111.273C264.369 111.273 264.105 111.228 263.863 111.138C263.622 111.048 263.413 110.921 263.237 110.755C263.061 110.586 262.923 110.382 262.823 110.144C262.726 109.906 262.678 109.641 262.678 109.347ZM263.516 109.347C263.516 109.52 263.542 109.678 263.594 109.823C263.649 109.965 263.727 110.089 263.827 110.196C263.927 110.3 264.046 110.381 264.184 110.439C264.326 110.498 264.483 110.527 264.655 110.527C264.828 110.527 264.983 110.498 265.121 110.439C265.262 110.381 265.383 110.3 265.483 110.196C265.583 110.089 265.659 109.965 265.711 109.823C265.766 109.678 265.794 109.52 265.794 109.347C265.794 109.178 265.766 109.021 265.711 108.876C265.659 108.731 265.583 108.607 265.483 108.504C265.383 108.397 265.262 108.314 265.121 108.255C264.983 108.196 264.828 108.167 264.655 108.167C264.483 108.167 264.326 108.196 264.184 108.255C264.046 108.314 263.927 108.397 263.827 108.504C263.727 108.607 263.649 108.731 263.594 108.876C263.542 109.021 263.516 109.178 263.516 109.347ZM268.993 108.41C268.927 108.328 268.837 108.267 268.723 108.229C268.613 108.188 268.508 108.167 268.408 108.167C268.349 108.167 268.289 108.174 268.227 108.188C268.164 108.202 268.106 108.224 268.051 108.255C267.995 108.283 267.951 108.321 267.916 108.369C267.882 108.417 267.864 108.476 267.864 108.545C267.864 108.655 267.906 108.74 267.988 108.799C268.071 108.857 268.175 108.907 268.299 108.949C268.427 108.99 268.563 109.032 268.708 109.073C268.853 109.114 268.987 109.173 269.112 109.249C269.239 109.325 269.345 109.427 269.427 109.554C269.51 109.682 269.552 109.853 269.552 110.067C269.552 110.27 269.514 110.448 269.438 110.6C269.362 110.752 269.258 110.878 269.127 110.978C268.999 111.078 268.849 111.152 268.677 111.2C268.508 111.248 268.328 111.273 268.139 111.273C267.901 111.273 267.68 111.236 267.476 111.164C267.273 111.091 267.083 110.974 266.907 110.812L267.481 110.181C267.564 110.291 267.668 110.377 267.792 110.439C267.919 110.498 268.051 110.527 268.185 110.527C268.251 110.527 268.316 110.52 268.382 110.507C268.451 110.489 268.511 110.465 268.563 110.434C268.618 110.403 268.661 110.363 268.692 110.315C268.727 110.267 268.744 110.21 268.744 110.144C268.744 110.034 268.701 109.948 268.615 109.886C268.532 109.82 268.427 109.765 268.299 109.72C268.171 109.675 268.033 109.63 267.885 109.585C267.737 109.54 267.599 109.48 267.471 109.404C267.343 109.328 267.236 109.228 267.15 109.104C267.067 108.98 267.026 108.816 267.026 108.612C267.026 108.416 267.064 108.243 267.14 108.095C267.219 107.946 267.323 107.822 267.45 107.722C267.581 107.622 267.731 107.548 267.901 107.499C268.07 107.448 268.244 107.422 268.423 107.422C268.63 107.422 268.83 107.451 269.024 107.51C269.217 107.568 269.391 107.667 269.546 107.805L268.993 108.41ZM270.862 108.229H269.817V107.515H272.715V108.229H271.67V111.179H270.862V108.229Z" fill="white"/>
<path d="M244.151 97.2521H247.734V93.6684H249.874V97.2521H253.458V99.3921H249.874V102.976H247.734V99.3921H244.151V97.2521ZM259.012 94.2968L256.6 96.4199L255.157 94.7554L259.08 91.4435H261.458V103.468H259.012V94.2968ZM264.393 97.4559C264.393 96.7425 264.455 96.0179 264.579 95.2819C264.715 94.5459 264.947 93.8779 265.276 93.2778C265.615 92.6777 266.074 92.1908 266.651 91.8172C267.229 91.4322 267.965 91.2397 268.859 91.2397C269.754 91.2397 270.49 91.4322 271.067 91.8172C271.645 92.1908 272.098 92.6777 272.426 93.2778C272.766 93.8779 272.998 94.5459 273.122 95.2819C273.258 96.0179 273.326 96.7425 273.326 97.4559C273.326 98.1692 273.258 98.8939 273.122 99.6298C272.998 100.366 272.766 101.034 272.426 101.634C272.098 102.234 271.645 102.727 271.067 103.112C270.49 103.485 269.754 103.672 268.859 103.672C267.965 103.672 267.229 103.485 266.651 103.112C266.074 102.727 265.615 102.234 265.276 101.634C264.947 101.034 264.715 100.366 264.579 99.6298C264.455 98.8939 264.393 98.1692 264.393 97.4559ZM266.94 97.4559C266.94 97.7729 266.952 98.1522 266.974 98.5938C267.008 99.0354 267.087 99.46 267.212 99.8676C267.336 100.275 267.523 100.621 267.772 100.904C268.033 101.187 268.395 101.328 268.859 101.328C269.312 101.328 269.669 101.187 269.929 100.904C270.19 100.621 270.382 100.275 270.507 99.8676C270.631 99.46 270.705 99.0354 270.728 98.5938C270.762 98.1522 270.779 97.7729 270.779 97.4559C270.779 97.1388 270.762 96.7595 270.728 96.3179C270.705 95.8764 270.631 95.4518 270.507 95.0441C270.382 94.6365 270.19 94.2912 269.929 94.0081C269.669 93.725 269.312 93.5835 268.859 93.5835C268.395 93.5835 268.033 93.725 267.772 94.0081C267.523 94.2912 267.336 94.6365 267.212 95.0441C267.087 95.4518 267.008 95.8764 266.974 96.3179C266.952 96.7595 266.94 97.1388 266.94 97.4559Z" fill="white"/>
<rect width="24.1514" height="24.1514" rx="5.17576" transform="matrix(0.706936 0.707277 -0.706936 0.707277 260.596 51.5632)" fill="white"/>
<path d="M264.419 70.0857L260.81 73.7383L257.202 70.0857C256.264 69.1364 256.264 67.5973 257.202 66.648C258.14 65.6987 259.66 65.6987 260.598 66.648C260.676 66.727 260.745 66.8114 260.81 66.8979C260.875 66.8114 260.944 66.727 261.023 66.648C261.96 65.6987 263.481 65.6987 264.419 66.648C265.357 67.5973 265.357 69.1364 264.419 70.0857Z" fill="#A37FFF"/>
<g style="mix-blend-mode:multiply">
<ellipse rx="25.464" ry="25.4688" transform="matrix(0.984653 0.174521 -0.174083 0.984731 33.8681 122.531)" fill="url(#paint5_linear)"/>
</g>
<g style="mix-blend-mode:multiply">
<ellipse cx="183.023" cy="213.774" rx="18.1108" ry="18.1195" transform="rotate(-23.5919 183.023 213.774)" fill="#FFC138"/>
</g>
<g style="mix-blend-mode:multiply">
<circle r="13.846" transform="matrix(-0.916419 0.40022 0.40022 0.916419 172.477 55.3894)" fill="#ECECEC"/>
</g>
<g style="mix-blend-mode:multiply">
<circle r="13.846" transform="matrix(-0.916419 0.40022 0.40022 0.916419 322.364 183.922)" fill="#ECECEC"/>
</g>
<g style="mix-blend-mode:multiply">
<circle r="10.7549" transform="matrix(-0.916419 0.40022 0.40022 0.916419 193.867 256.233)" fill="#ECECEC"/>
</g>
<path d="M66.5046 122.267H67.3844L67.9693 124.617H67.9796L68.7457 122.267H69.4961L70.257 124.679H70.2673L70.8832 122.267H71.701L70.6296 125.931H69.9102L69.1028 123.395H69.0924L68.285 125.931H67.5915L66.5046 122.267ZM73.1378 122.267H73.8055L75.3997 125.931H74.4887L74.173 125.155H72.7497L72.4443 125.931H71.5541L73.1378 122.267ZM73.4484 123.333L73.0033 124.472H73.8987L73.4484 123.333ZM76.0022 122.981H74.9567V122.267H77.8551V122.981H76.8096V125.931H76.0022V122.981ZM80.6615 123.219C80.5821 123.122 80.4838 123.048 80.3665 122.996C80.2526 122.945 80.1198 122.919 79.9679 122.919C79.8161 122.919 79.6747 122.948 79.5435 123.007C79.4159 123.066 79.3037 123.148 79.2071 123.255C79.1139 123.359 79.0398 123.483 78.9846 123.628C78.9328 123.773 78.9069 123.93 78.9069 124.099C78.9069 124.271 78.9328 124.43 78.9846 124.575C79.0398 124.717 79.1139 124.841 79.2071 124.948C79.3003 125.051 79.409 125.132 79.5332 125.191C79.6609 125.25 79.7971 125.279 79.9421 125.279C80.1077 125.279 80.2543 125.245 80.382 125.175C80.5097 125.106 80.6149 125.01 80.6977 124.886L81.3706 125.388C81.2153 125.605 81.0186 125.766 80.7805 125.869C80.5425 125.973 80.2975 126.024 80.0456 126.024C79.7592 126.024 79.4952 125.979 79.2537 125.89C79.0122 125.8 78.8034 125.672 78.6274 125.507C78.4515 125.338 78.3134 125.134 78.2134 124.896C78.1168 124.658 78.0684 124.392 78.0684 124.099C78.0684 123.806 78.1168 123.54 78.2134 123.302C78.3134 123.064 78.4515 122.862 78.6274 122.696C78.8034 122.527 79.0122 122.398 79.2537 122.308C79.4952 122.218 79.7592 122.174 80.0456 122.174C80.1491 122.174 80.2561 122.184 80.3665 122.205C80.4803 122.222 80.5908 122.251 80.6977 122.293C80.8081 122.334 80.9134 122.389 81.0135 122.458C81.1135 122.527 81.2032 122.612 81.2826 122.712L80.6615 123.219ZM81.8083 122.267H82.6157V123.633H84.184V122.267H84.9914V125.931H84.184V124.347H82.6157V125.931H81.8083V122.267ZM88.4731 122.267H89.1407L90.7349 125.931H89.8239L89.5082 125.155H88.0849L87.7795 125.931H86.8893L88.4731 122.267ZM88.7836 123.333L88.3385 124.472H89.2339L88.7836 123.333ZM92.2726 122.267H93.1939L94.0997 124.668H94.11L95.0313 122.267H95.8956L94.3843 125.931H93.7374L92.2726 122.267ZM96.2688 122.267H97.0763V125.931H96.2688V122.267ZM97.8107 122.267H99.0218C99.3151 122.267 99.5929 122.299 99.8551 122.365C100.121 122.431 100.352 122.538 100.549 122.686C100.745 122.831 100.901 123.021 101.014 123.255C101.132 123.49 101.19 123.775 101.19 124.109C101.19 124.406 101.134 124.668 101.02 124.896C100.909 125.12 100.759 125.31 100.569 125.465C100.38 125.617 100.16 125.733 99.912 125.812C99.6636 125.891 99.4031 125.931 99.1305 125.931H97.8107V122.267ZM98.6181 125.186H99.0373C99.2237 125.186 99.3962 125.167 99.5549 125.129C99.7171 125.091 99.8568 125.029 99.9741 124.943C100.091 124.853 100.183 124.737 100.248 124.596C100.317 124.451 100.352 124.275 100.352 124.068C100.352 123.888 100.317 123.733 100.248 123.602C100.183 123.467 100.093 123.357 99.9793 123.271C99.8655 123.185 99.7309 123.121 99.5756 123.079C99.4238 123.034 99.2633 123.012 99.0943 123.012H98.6181V125.186ZM101.769 122.267H104.259V123.012H102.576V123.695H104.165V124.441H102.576V125.186H104.352V125.931H101.769V122.267ZM104.801 124.099C104.801 123.806 104.85 123.54 104.946 123.302C105.046 123.064 105.184 122.862 105.36 122.696C105.536 122.527 105.745 122.398 105.987 122.308C106.228 122.218 106.492 122.174 106.779 122.174C107.065 122.174 107.329 122.218 107.57 122.308C107.812 122.398 108.021 122.527 108.197 122.696C108.373 122.862 108.509 123.064 108.606 123.302C108.706 123.54 108.756 123.806 108.756 124.099C108.756 124.392 108.706 124.658 108.606 124.896C108.509 125.134 108.373 125.338 108.197 125.507C108.021 125.672 107.812 125.8 107.57 125.89C107.329 125.979 107.065 126.024 106.779 126.024C106.492 126.024 106.228 125.979 105.987 125.89C105.745 125.8 105.536 125.672 105.36 125.507C105.184 125.338 105.046 125.134 104.946 124.896C104.85 124.658 104.801 124.392 104.801 124.099ZM105.64 124.099C105.64 124.271 105.666 124.43 105.718 124.575C105.773 124.717 105.85 124.841 105.95 124.948C106.051 125.051 106.17 125.132 106.308 125.191C106.449 125.25 106.606 125.279 106.779 125.279C106.951 125.279 107.106 125.25 107.244 125.191C107.386 125.132 107.507 125.051 107.607 124.948C107.707 124.841 107.783 124.717 107.834 124.575C107.89 124.43 107.917 124.271 107.917 124.099C107.917 123.93 107.89 123.773 107.834 123.628C107.783 123.483 107.707 123.359 107.607 123.255C107.507 123.148 107.386 123.066 107.244 123.007C107.106 122.948 106.951 122.919 106.779 122.919C106.606 122.919 106.449 122.948 106.308 123.007C106.17 123.066 106.051 123.148 105.95 123.255C105.85 123.359 105.773 123.483 105.718 123.628C105.666 123.773 105.64 123.93 105.64 124.099Z" fill="white"/>
<rect width="24.1514" height="24.1514" rx="5.17576" transform="matrix(0.706936 0.707277 -0.706936 0.707277 87.1382 65.9045)" fill="white"/>
<path d="M91.1887 82.0823C92.0163 82.5552 92.0163 83.7486 91.1887 84.2215L86.2801 87.0264C85.4588 87.4957 84.4369 86.9027 84.4369 85.9568V80.347C84.4369 79.4011 85.4588 78.808 86.2801 79.2774L91.1887 82.0823Z" fill="#EC71BC"/>
<path d="M72.6107 112.017H76.1943V108.433H78.3343V112.017H81.918V114.157H78.3343V117.74H76.1943V114.157H72.6107V112.017ZM91.3614 108.45H86.5889L86.5379 110.301C86.7983 110.211 87.155 110.165 87.6079 110.165C88.2193 110.165 88.7798 110.256 89.2893 110.437C89.7989 110.618 90.2348 110.884 90.5971 111.235C90.9708 111.575 91.2595 111.994 91.4633 112.492C91.6671 112.979 91.769 113.528 91.769 114.14C91.769 114.819 91.6501 115.425 91.4123 115.957C91.1859 116.489 90.8689 116.942 90.4612 117.316C90.0536 117.678 89.5667 117.956 89.0006 118.148C88.4458 118.34 87.84 118.437 87.1833 118.437C86.1416 118.437 85.2698 118.182 84.5677 117.672C83.8657 117.163 83.3845 116.393 83.1241 115.363L85.7906 114.751C85.8585 115.181 86.0397 115.532 86.3341 115.804C86.6285 116.065 86.9965 116.195 87.4381 116.195C87.9815 116.195 88.4118 116.025 88.7289 115.685C89.0572 115.346 89.2214 114.915 89.2214 114.394C89.2214 113.998 89.1365 113.676 88.9666 113.426C88.8081 113.166 88.593 112.962 88.3212 112.815C88.0608 112.656 87.7664 112.549 87.4381 112.492C87.1097 112.436 86.7813 112.407 86.453 112.407C86.034 112.407 85.6094 112.447 85.1792 112.526C84.7602 112.606 84.3526 112.713 83.9563 112.849L84.0922 106.208H91.3614V108.45ZM92.8525 112.221C92.8525 111.507 92.9148 110.783 93.0394 110.047C93.1752 109.311 93.4074 108.643 93.7357 108.042C94.0754 107.442 94.534 106.955 95.1114 106.582C95.6889 106.197 96.4249 106.004 97.3194 106.004C98.2139 106.004 98.9498 106.197 99.5273 106.582C100.105 106.955 100.558 107.442 100.886 108.042C101.226 108.643 101.458 109.311 101.582 110.047C101.718 110.783 101.786 111.507 101.786 112.221C101.786 112.934 101.718 113.659 101.582 114.394C101.458 115.13 101.226 115.799 100.886 116.399C100.558 116.999 100.105 117.491 99.5273 117.876C98.9498 118.25 98.2139 118.437 97.3194 118.437C96.4249 118.437 95.6889 118.25 95.1114 117.876C94.534 117.491 94.0754 116.999 93.7357 116.399C93.4074 115.799 93.1752 115.13 93.0394 114.394C92.9148 113.659 92.8525 112.934 92.8525 112.221ZM95.4002 112.221C95.4002 112.538 95.4115 112.917 95.4341 113.358C95.4681 113.8 95.5474 114.225 95.6719 114.632C95.7965 115.04 95.9833 115.385 96.2324 115.668C96.4928 115.951 96.8551 116.093 97.3194 116.093C97.7723 116.093 98.1289 115.951 98.3894 115.668C98.6498 115.385 98.8423 115.04 98.9668 114.632C99.0914 114.225 99.165 113.8 99.1876 113.358C99.2216 112.917 99.2386 112.538 99.2386 112.221C99.2386 111.903 99.2216 111.524 99.1876 111.083C99.165 110.641 99.0914 110.216 98.9668 109.809C98.8423 109.401 98.6498 109.056 98.3894 108.773C98.1289 108.49 97.7723 108.348 97.3194 108.348C96.8551 108.348 96.4928 108.49 96.2324 108.773C95.9833 109.056 95.7965 109.401 95.6719 109.809C95.5474 110.216 95.4681 110.641 95.4341 111.083C95.4115 111.524 95.4002 111.903 95.4002 112.221Z" fill="white"/>
<path d="M247.207 240.533L248.625 240.533C248.811 240.533 248.987 240.552 249.153 240.59C249.322 240.625 249.468 240.685 249.593 240.771C249.72 240.854 249.82 240.968 249.893 241.113C249.969 241.254 250.007 241.432 250.007 241.646C250.007 241.905 249.939 242.126 249.805 242.309C249.67 242.488 249.474 242.602 249.215 242.65L250.146 244.198L249.179 244.198L248.413 242.733L248.014 242.733L248.014 244.198L247.207 244.198L247.207 240.533ZM248.014 242.05L248.49 242.05C248.563 242.05 248.639 242.048 248.718 242.045C248.801 242.038 248.875 242.022 248.94 241.998C249.006 241.97 249.06 241.929 249.101 241.874C249.146 241.819 249.168 241.741 249.168 241.641C249.168 241.548 249.149 241.474 249.111 241.418C249.073 241.363 249.025 241.322 248.966 241.294C248.908 241.263 248.84 241.242 248.764 241.232C248.689 241.222 248.614 241.217 248.542 241.217L248.014 241.217L248.014 242.05ZM250.594 240.533L253.083 240.533L253.083 241.279L251.401 241.279L251.401 241.962L252.99 241.962L252.99 242.707L251.401 242.707L251.401 243.452L253.176 243.452L253.176 244.198L250.594 244.198L250.594 240.533ZM254.532 241.248L253.486 241.248L253.486 240.533L256.385 240.533L256.385 241.248L255.339 241.248L255.339 244.198L254.532 244.198L254.532 241.248ZM256.412 240.533L257.292 240.533L257.877 242.883L257.887 242.883L258.653 240.533L259.403 240.533L260.164 242.945L260.175 242.945L260.791 240.533L261.608 240.533L260.537 244.198L259.818 244.198L259.01 241.662L259 241.662L258.192 244.198L257.499 244.198L256.412 240.533ZM262.002 240.533L264.491 240.533L264.491 241.279L262.809 241.279L262.809 241.962L264.398 241.962L264.398 242.707L262.809 242.707L262.809 243.452L264.584 243.452L264.584 244.198L262.002 244.198L262.002 240.533ZM265.262 240.533L267.751 240.533L267.751 241.279L266.069 241.279L266.069 241.962L267.658 241.962L267.658 242.707L266.069 242.707L266.069 243.452L267.845 243.452L267.845 244.198L265.262 244.198L265.262 240.533ZM269.2 241.248L268.154 241.248L268.154 240.533L271.053 240.533L271.053 241.248L270.007 241.248L270.007 244.198L269.2 244.198L269.2 241.248Z" fill="white"/>
<path d="M242.821 230.681L246.404 230.681L246.404 227.097L248.544 227.097L248.544 230.681L252.128 230.681L252.128 232.821L248.544 232.821L248.544 236.405L246.404 236.405L246.404 232.821L242.821 232.821L242.821 230.681ZM256.459 229.611L257.291 229.611C257.529 229.611 257.761 229.594 257.988 229.56C258.214 229.526 258.418 229.464 258.599 229.373C258.792 229.271 258.945 229.135 259.058 228.966C259.171 228.784 259.228 228.552 259.228 228.269C259.228 227.907 259.08 227.607 258.786 227.369C258.503 227.131 258.152 227.012 257.733 227.012C257.337 227.012 257.008 227.12 256.748 227.335C256.488 227.55 256.318 227.816 256.238 228.133L253.436 227.556C253.572 227.035 253.776 226.594 254.047 226.231C254.319 225.858 254.642 225.557 255.016 225.331C255.389 225.105 255.802 224.94 256.255 224.838C256.72 224.725 257.207 224.669 257.716 224.669C258.248 224.669 258.758 224.737 259.245 224.872C259.743 224.997 260.179 225.201 260.552 225.484C260.926 225.756 261.22 226.101 261.436 226.52C261.662 226.939 261.775 227.437 261.775 228.015C261.775 228.683 261.6 229.254 261.249 229.73C260.898 230.205 260.388 230.511 259.72 230.647L259.72 230.698C260.082 230.743 260.4 230.851 260.671 231.021C260.954 231.191 261.192 231.4 261.385 231.649C261.577 231.898 261.724 232.181 261.826 232.498C261.928 232.815 261.979 233.149 261.979 233.5C261.979 234.1 261.86 234.627 261.622 235.08C261.396 235.533 261.085 235.912 260.688 236.218C260.303 236.512 259.845 236.733 259.313 236.88C258.792 237.027 258.237 237.101 257.648 237.101C256.572 237.101 255.644 236.852 254.863 236.354C254.093 235.856 253.583 235.069 253.334 233.993L256.018 233.365C256.108 233.795 256.289 234.134 256.561 234.384C256.844 234.633 257.257 234.757 257.801 234.757C258.356 234.757 258.763 234.616 259.024 234.333C259.296 234.038 259.431 233.665 259.431 233.212C259.431 232.872 259.358 232.612 259.211 232.43C259.075 232.238 258.894 232.096 258.667 232.006C258.441 231.915 258.186 231.864 257.903 231.853C257.62 231.83 257.337 231.819 257.054 231.819L256.459 231.819L256.459 229.611ZM263.063 230.885C263.063 230.172 263.125 229.447 263.249 228.711C263.385 227.975 263.617 227.307 263.946 226.707C264.285 226.107 264.744 225.62 265.321 225.246C265.899 224.861 266.635 224.669 267.529 224.669C268.424 224.669 269.16 224.861 269.737 225.246C270.315 225.62 270.768 226.107 271.096 226.707C271.436 227.307 271.668 227.975 271.792 228.711C271.928 229.447 271.996 230.172 271.996 230.885C271.996 231.598 271.928 232.323 271.792 233.059C271.668 233.795 271.436 234.463 271.096 235.063C270.768 235.663 270.315 236.156 269.737 236.541C269.16 236.914 268.424 237.101 267.529 237.101C266.635 237.101 265.899 236.914 265.321 236.541C264.744 236.156 264.285 235.663 263.946 235.063C263.617 234.463 263.385 233.795 263.249 233.059C263.125 232.323 263.063 231.598 263.063 230.885ZM265.61 230.885C265.61 231.202 265.622 231.581 265.644 232.023C265.678 232.464 265.757 232.889 265.882 233.297C266.006 233.704 266.193 234.05 266.442 234.333C266.703 234.616 267.065 234.757 267.529 234.757C267.982 234.757 268.339 234.616 268.599 234.333C268.86 234.05 269.052 233.704 269.177 233.297C269.301 232.889 269.375 232.464 269.398 232.023C269.432 231.581 269.449 231.202 269.449 230.885C269.449 230.568 269.432 230.188 269.398 229.747C269.375 229.305 269.301 228.881 269.177 228.473C269.052 228.065 268.86 227.72 268.599 227.437C268.339 227.154 267.982 227.012 267.529 227.012C267.065 227.012 266.703 227.154 266.442 227.437C266.193 227.72 266.006 228.065 265.882 228.473C265.757 228.881 265.678 229.305 265.644 229.747C265.622 230.188 265.61 230.568 265.61 230.885Z" fill="white"/>
<rect width="24.1514" height="24.1514" rx="5.17576" transform="matrix(0.706936 0.707277 -0.706936 0.707277 259.609 184.171)" fill="white"/>
<path d="M265.532 198.438C265.219 198.899 264.827 199.314 264.357 199.682L264.357 199.959C264.357 200.749 264.207 201.553 263.907 202.37C263.619 203.173 263.188 203.904 262.614 204.563C262.052 205.208 261.354 205.735 260.518 206.144C259.695 206.552 258.742 206.756 257.658 206.756C256.992 206.756 256.352 206.664 255.738 206.48C255.138 206.282 254.57 206.012 254.034 205.669C254.126 205.683 254.217 205.689 254.308 205.689C254.4 205.689 254.498 205.689 254.602 205.689C255.725 205.689 256.698 205.353 257.521 204.681C256.998 204.668 256.535 204.51 256.13 204.207C255.738 203.891 255.471 203.496 255.327 203.022C255.484 203.061 255.627 203.081 255.758 203.081C255.875 203.081 255.98 203.074 256.071 203.061C256.176 203.048 256.28 203.028 256.385 203.002C255.836 202.883 255.379 202.613 255.014 202.192C254.661 201.757 254.485 201.25 254.485 200.67L254.485 200.651C254.641 200.73 254.805 200.795 254.974 200.848C255.157 200.901 255.36 200.927 255.582 200.927C255.242 200.716 254.981 200.44 254.798 200.097C254.615 199.755 254.524 199.373 254.524 198.951C254.524 198.53 254.628 198.128 254.837 197.746C255.425 198.484 256.137 199.076 256.972 199.524C257.808 199.959 258.716 200.196 259.695 200.236C259.656 200.078 259.636 199.906 259.636 199.722C259.636 199.393 259.695 199.083 259.813 198.793C259.943 198.49 260.113 198.233 260.322 198.023C260.544 197.799 260.792 197.627 261.066 197.509C261.354 197.377 261.66 197.311 261.987 197.311C262.339 197.311 262.659 197.384 262.947 197.529C263.234 197.66 263.489 197.838 263.711 198.062C263.972 198.023 264.233 197.95 264.494 197.845C264.755 197.739 264.997 197.627 265.219 197.509C265.01 198.062 264.664 198.497 264.181 198.813C264.429 198.787 264.664 198.741 264.886 198.675C265.108 198.609 265.323 198.53 265.532 198.438Z" fill="#4DC4FF"/>
<defs>
<linearGradient id="paint0_linear" x1="179.963" y1="322.884" x2="289.964" y2="171.584" gradientUnits="userSpaceOnUse">
<stop stop-color="#A37FFF"/>
<stop offset="1" stop-color="#1FE9FF"/>
</linearGradient>
<linearGradient id="paint1_linear" x1="293.712" y1="127.219" x2="90.9754" y2="93.3999" gradientUnits="userSpaceOnUse">
<stop stop-color="#23E2FF"/>
<stop offset="1" stop-color="#7BF969"/>
</linearGradient>
<linearGradient id="paint2_linear" x1="65.5464" y1="215.38" x2="180.599" y2="142.895" gradientUnits="userSpaceOnUse">
<stop stop-color="#A37FFF"/>
<stop offset="1" stop-color="#FF6EAA"/>
</linearGradient>
<linearGradient id="paint3_linear" x1="106.444" y1="349.983" x2="-23.2502" y2="295.852" gradientUnits="userSpaceOnUse">
<stop stop-color="#FFD123"/>
<stop offset="1" stop-color="#FF6EAA"/>
</linearGradient>
<linearGradient id="paint4_linear" x1="251.453" y1="143.225" x2="365.315" y2="147" gradientUnits="userSpaceOnUse">
<stop stop-color="#A37FFF"/>
<stop offset="1" stop-color="#1FE9FF"/>
</linearGradient>
<linearGradient id="paint5_linear" x1="123.538" y1="147.769" x2="-12.3611" y2="55.2298" gradientUnits="userSpaceOnUse">
<stop stop-color="#A37FFF"/>
<stop offset="1" stop-color="#1FE9FF"/>
</linearGradient>
</defs>
</svg>
