<svg width="556" height="603" viewBox="0 0 556 603" fill="none" xmlns="http://www.w3.org/2000/svg">
<g filter="url(#filter0_d)">
<path fill-rule="evenodd" clip-rule="evenodd" d="M68.75 133H440.75V507.824H68.75V133Z" fill="white"/>
</g>
<mask id="mask0" mask-type="alpha" maskUnits="userSpaceOnUse" x="68" y="133" width="373" height="375">
<path fill-rule="evenodd" clip-rule="evenodd" d="M68.75 133H440.75V507.824H68.75V133Z" fill="white"/>
</mask>
<g mask="url(#mask0)">
<g opacity="0.07">
<path fill-rule="evenodd" clip-rule="evenodd" d="M302.725 163.176C289.112 155.316 272.339 155.316 258.725 163.176L232.25 178.462L258.725 163.176C272.339 155.316 280.725 140.791 280.725 125.071V94.5V125.071C280.725 140.791 289.112 155.316 302.725 163.176L329.2 178.462L302.725 163.176Z" stroke="black" stroke-width="0.5"/>
<path fill-rule="evenodd" clip-rule="evenodd" d="M82.7252 163.176C69.1116 155.316 52.3389 155.316 38.7252 163.176L12.25 178.462L38.7252 163.176C52.3389 155.316 60.7252 140.791 60.7252 125.071V94.5V125.071C60.7252 140.791 69.1116 155.316 82.7252 163.176L109.2 178.462L82.7252 163.176Z" stroke="black" stroke-width="0.5"/>
<path fill-rule="evenodd" clip-rule="evenodd" d="M375.725 163.176C362.112 155.316 345.339 155.316 331.725 163.176L305.25 178.462L331.725 163.176C345.339 155.316 353.725 140.791 353.725 125.071V94.5V125.071C353.725 140.791 362.112 155.316 375.725 163.176L402.2 178.462L375.725 163.176Z" stroke="black" stroke-width="0.5"/>
<path fill-rule="evenodd" clip-rule="evenodd" d="M24.7253 168.871C24.7253 153.152 16.3389 138.626 2.72527 130.766L-23.75 115.481L2.72527 130.766C16.3389 138.626 33.1116 138.626 46.7253 130.766L73.2005 115.481L46.7253 130.766C33.1116 138.626 24.7253 153.152 24.7253 168.871L24.7253 199.442L24.7253 168.871Z" stroke="black" stroke-width="0.5"/>
<path fill-rule="evenodd" clip-rule="evenodd" d="M317.725 168.871C317.725 153.152 309.339 138.626 295.725 130.766L269.25 115.481L295.725 130.766C309.339 138.626 326.112 138.626 339.725 130.766L366.201 115.481L339.725 130.766C326.112 138.626 317.725 153.152 317.725 168.871L317.725 199.442L317.725 168.871Z" stroke="black" stroke-width="0.5"/>
<path fill-rule="evenodd" clip-rule="evenodd" d="M97.7253 168.871C97.7253 153.152 89.3389 138.626 75.7253 130.766L49.25 115.481L75.7253 130.766C89.3389 138.626 106.112 138.626 119.725 130.766L146.201 115.481L119.725 130.766C106.112 138.626 97.7253 153.152 97.7253 168.871L97.7253 199.442L97.7253 168.871Z" stroke="black" stroke-width="0.5"/>
<path fill-rule="evenodd" clip-rule="evenodd" d="M390.725 168.871C390.725 153.152 382.339 138.626 368.725 130.766L342.25 115.481L368.725 130.766C382.339 138.626 399.112 138.626 412.725 130.766L439.201 115.481L412.725 130.766C399.112 138.626 390.725 153.152 390.725 168.871L390.725 199.442L390.725 168.871Z" stroke="black" stroke-width="0.5"/>
<path fill-rule="evenodd" clip-rule="evenodd" d="M156.725 163.176C143.112 155.316 126.339 155.316 112.725 163.176L86.25 178.462L112.725 163.176C126.339 155.316 134.725 140.791 134.725 125.071V94.5V125.071C134.725 140.791 143.112 155.316 156.725 163.176L183.2 178.462L156.725 163.176Z" stroke="black" stroke-width="0.5"/>
<path fill-rule="evenodd" clip-rule="evenodd" d="M449.725 163.176C436.112 155.316 419.339 155.316 405.725 163.176L379.25 178.462L405.725 163.176C419.339 155.316 427.725 140.791 427.725 125.071V94.5V125.071C427.725 140.791 436.112 155.316 449.725 163.176L476.2 178.462L449.725 163.176Z" stroke="black" stroke-width="0.5"/>
<path fill-rule="evenodd" clip-rule="evenodd" d="M229.725 163.176C216.112 155.316 199.339 155.316 185.725 163.176L159.25 178.462L185.725 163.176C199.339 155.316 207.725 140.791 207.725 125.071V94.5V125.071C207.725 140.791 216.112 155.316 229.725 163.176L256.2 178.462L229.725 163.176Z" stroke="black" stroke-width="0.5"/>
<path fill-rule="evenodd" clip-rule="evenodd" d="M171.725 168.871C171.725 153.152 163.339 138.626 149.725 130.766L123.25 115.481L149.725 130.766C163.339 138.626 180.112 138.626 193.725 130.766L220.201 115.481L193.725 130.766C180.112 138.626 171.725 153.152 171.725 168.871L171.725 199.442L171.725 168.871Z" stroke="black" stroke-width="0.5"/>
<path fill-rule="evenodd" clip-rule="evenodd" d="M464.725 168.871C464.725 153.152 456.339 138.626 442.725 130.766L416.25 115.481L442.725 130.766C456.339 138.626 473.112 138.626 486.725 130.766L513.201 115.481L486.725 130.766C473.112 138.626 464.725 153.152 464.725 168.871L464.725 199.442L464.725 168.871Z" stroke="black" stroke-width="0.5"/>
<path fill-rule="evenodd" clip-rule="evenodd" d="M244.725 168.871C244.725 153.152 236.339 138.626 222.725 130.766L196.25 115.481L222.725 130.766C236.339 138.626 253.112 138.626 266.725 130.766L293.201 115.481L266.725 130.766C253.112 138.626 244.725 153.152 244.725 168.871L244.725 199.442L244.725 168.871Z" stroke="black" stroke-width="0.5"/>
<path fill-rule="evenodd" clip-rule="evenodd" d="M302.725 231.176C289.112 223.316 272.339 223.316 258.725 231.176L232.25 246.462L258.725 231.176C272.339 223.316 280.725 208.791 280.725 193.071V162.5V193.071C280.725 208.791 289.112 223.316 302.725 231.176L329.2 246.462L302.725 231.176Z" stroke="black" stroke-width="0.5"/>
<path fill-rule="evenodd" clip-rule="evenodd" d="M82.7252 231.176C69.1116 223.316 52.3389 223.316 38.7252 231.176L12.25 246.462L38.7252 231.176C52.3389 223.316 60.7252 208.791 60.7252 193.071V162.5V193.071C60.7252 208.791 69.1116 223.316 82.7252 231.176L109.2 246.462L82.7252 231.176Z" stroke="black" stroke-width="0.5"/>
<path fill-rule="evenodd" clip-rule="evenodd" d="M375.725 231.176C362.112 223.316 345.339 223.316 331.725 231.176L305.25 246.462L331.725 231.176C345.339 223.316 353.725 208.791 353.725 193.071V162.5V193.071C353.725 208.791 362.112 223.316 375.725 231.176L402.2 246.462L375.725 231.176Z" stroke="black" stroke-width="0.5"/>
<path fill-rule="evenodd" clip-rule="evenodd" d="M24.7253 236.871C24.7253 221.152 16.3389 206.626 2.72527 198.766L-23.75 183.481L2.72527 198.766C16.3389 206.626 33.1116 206.626 46.7253 198.766L73.2005 183.481L46.7253 198.766C33.1116 206.626 24.7253 221.152 24.7253 236.871L24.7253 267.442L24.7253 236.871Z" stroke="black" stroke-width="0.5"/>
<path fill-rule="evenodd" clip-rule="evenodd" d="M317.725 236.871C317.725 221.152 309.339 206.626 295.725 198.766L269.25 183.481L295.725 198.766C309.339 206.626 326.112 206.626 339.725 198.766L366.201 183.481L339.725 198.766C326.112 206.626 317.725 221.152 317.725 236.871L317.725 267.442L317.725 236.871Z" stroke="black" stroke-width="0.5"/>
<path fill-rule="evenodd" clip-rule="evenodd" d="M97.7253 236.871C97.7253 221.152 89.3389 206.626 75.7253 198.766L49.25 183.481L75.7253 198.766C89.3389 206.626 106.112 206.626 119.725 198.766L146.201 183.481L119.725 198.766C106.112 206.626 97.7253 221.152 97.7253 236.871L97.7253 267.442L97.7253 236.871Z" stroke="black" stroke-width="0.5"/>
<path fill-rule="evenodd" clip-rule="evenodd" d="M390.725 236.871C390.725 221.152 382.339 206.626 368.725 198.766L342.25 183.481L368.725 198.766C382.339 206.626 399.112 206.626 412.725 198.766L439.201 183.481L412.725 198.766C399.112 206.626 390.725 221.152 390.725 236.871L390.725 267.442L390.725 236.871Z" stroke="black" stroke-width="0.5"/>
<path fill-rule="evenodd" clip-rule="evenodd" d="M156.725 231.176C143.112 223.316 126.339 223.316 112.725 231.176L86.25 246.462L112.725 231.176C126.339 223.316 134.725 208.791 134.725 193.071V162.5V193.071C134.725 208.791 143.112 223.316 156.725 231.176L183.2 246.462L156.725 231.176Z" stroke="black" stroke-width="0.5"/>
<path fill-rule="evenodd" clip-rule="evenodd" d="M449.725 231.176C436.112 223.316 419.339 223.316 405.725 231.176L379.25 246.462L405.725 231.176C419.339 223.316 427.725 208.791 427.725 193.071V162.5V193.071C427.725 208.791 436.112 223.316 449.725 231.176L476.2 246.462L449.725 231.176Z" stroke="black" stroke-width="0.5"/>
<path fill-rule="evenodd" clip-rule="evenodd" d="M229.725 231.176C216.112 223.316 199.339 223.316 185.725 231.176L159.25 246.462L185.725 231.176C199.339 223.316 207.725 208.791 207.725 193.071V162.5V193.071C207.725 208.791 216.112 223.316 229.725 231.176L256.2 246.462L229.725 231.176Z" stroke="black" stroke-width="0.5"/>
<path fill-rule="evenodd" clip-rule="evenodd" d="M171.725 236.871C171.725 221.152 163.339 206.626 149.725 198.766L123.25 183.481L149.725 198.766C163.339 206.626 180.112 206.626 193.725 198.766L220.201 183.481L193.725 198.766C180.112 206.626 171.725 221.152 171.725 236.871L171.725 267.442L171.725 236.871Z" stroke="black" stroke-width="0.5"/>
<path fill-rule="evenodd" clip-rule="evenodd" d="M464.725 236.871C464.725 221.152 456.339 206.626 442.725 198.766L416.25 183.481L442.725 198.766C456.339 206.626 473.112 206.626 486.725 198.766L513.201 183.481L486.725 198.766C473.112 206.626 464.725 221.152 464.725 236.871L464.725 267.442L464.725 236.871Z" stroke="black" stroke-width="0.5"/>
<path fill-rule="evenodd" clip-rule="evenodd" d="M244.725 236.871C244.725 221.152 236.339 206.626 222.725 198.766L196.25 183.481L222.725 198.766C236.339 206.626 253.112 206.626 266.725 198.766L293.201 183.481L266.725 198.766C253.112 206.626 244.725 221.152 244.725 236.871L244.725 267.442L244.725 236.871Z" stroke="black" stroke-width="0.5"/>
<path fill-rule="evenodd" clip-rule="evenodd" d="M302.725 299.176C289.112 291.316 272.339 291.316 258.725 299.176L232.25 314.462L258.725 299.176C272.339 291.316 280.725 276.791 280.725 261.071V230.5V261.071C280.725 276.791 289.112 291.316 302.725 299.176L329.2 314.462L302.725 299.176Z" stroke="black" stroke-width="0.5"/>
<path fill-rule="evenodd" clip-rule="evenodd" d="M82.7252 299.176C69.1116 291.316 52.3389 291.316 38.7252 299.176L12.25 314.462L38.7252 299.176C52.3389 291.316 60.7252 276.791 60.7252 261.071V230.5V261.071C60.7252 276.791 69.1116 291.316 82.7252 299.176L109.2 314.462L82.7252 299.176Z" stroke="black" stroke-width="0.5"/>
<path fill-rule="evenodd" clip-rule="evenodd" d="M375.725 299.176C362.112 291.316 345.339 291.316 331.725 299.176L305.25 314.462L331.725 299.176C345.339 291.316 353.725 276.791 353.725 261.071V230.5V261.071C353.725 276.791 362.112 291.316 375.725 299.176L402.2 314.462L375.725 299.176Z" stroke="black" stroke-width="0.5"/>
<path fill-rule="evenodd" clip-rule="evenodd" d="M24.7253 304.871C24.7253 289.152 16.3389 274.626 2.72527 266.766L-23.75 251.481L2.72527 266.766C16.3389 274.626 33.1116 274.626 46.7253 266.766L73.2005 251.481L46.7253 266.766C33.1116 274.626 24.7253 289.152 24.7253 304.871L24.7253 335.442L24.7253 304.871Z" stroke="black" stroke-width="0.5"/>
<path fill-rule="evenodd" clip-rule="evenodd" d="M317.725 304.871C317.725 289.152 309.339 274.626 295.725 266.766L269.25 251.481L295.725 266.766C309.339 274.626 326.112 274.626 339.725 266.766L366.201 251.481L339.725 266.766C326.112 274.626 317.725 289.152 317.725 304.871L317.725 335.442L317.725 304.871Z" stroke="black" stroke-width="0.5"/>
<path fill-rule="evenodd" clip-rule="evenodd" d="M97.7253 304.871C97.7253 289.152 89.3389 274.626 75.7253 266.766L49.25 251.481L75.7253 266.766C89.3389 274.626 106.112 274.626 119.725 266.766L146.201 251.481L119.725 266.766C106.112 274.626 97.7253 289.152 97.7253 304.871L97.7253 335.442L97.7253 304.871Z" stroke="black" stroke-width="0.5"/>
<path fill-rule="evenodd" clip-rule="evenodd" d="M390.725 304.871C390.725 289.152 382.339 274.626 368.725 266.766L342.25 251.481L368.725 266.766C382.339 274.626 399.112 274.626 412.725 266.766L439.201 251.481L412.725 266.766C399.112 274.626 390.725 289.152 390.725 304.871L390.725 335.442L390.725 304.871Z" stroke="black" stroke-width="0.5"/>
<path fill-rule="evenodd" clip-rule="evenodd" d="M156.725 299.176C143.112 291.316 126.339 291.316 112.725 299.176L86.25 314.462L112.725 299.176C126.339 291.316 134.725 276.791 134.725 261.071V230.5V261.071C134.725 276.791 143.112 291.316 156.725 299.176L183.2 314.462L156.725 299.176Z" stroke="black" stroke-width="0.5"/>
<path fill-rule="evenodd" clip-rule="evenodd" d="M449.725 299.176C436.112 291.316 419.339 291.316 405.725 299.176L379.25 314.462L405.725 299.176C419.339 291.316 427.725 276.791 427.725 261.071V230.5V261.071C427.725 276.791 436.112 291.316 449.725 299.176L476.2 314.462L449.725 299.176Z" stroke="black" stroke-width="0.5"/>
<path fill-rule="evenodd" clip-rule="evenodd" d="M229.725 299.176C216.112 291.316 199.339 291.316 185.725 299.176L159.25 314.462L185.725 299.176C199.339 291.316 207.725 276.791 207.725 261.071V230.5V261.071C207.725 276.791 216.112 291.316 229.725 299.176L256.2 314.462L229.725 299.176Z" stroke="black" stroke-width="0.5"/>
<path fill-rule="evenodd" clip-rule="evenodd" d="M171.725 304.871C171.725 289.152 163.339 274.626 149.725 266.766L123.25 251.481L149.725 266.766C163.339 274.626 180.112 274.626 193.725 266.766L220.201 251.481L193.725 266.766C180.112 274.626 171.725 289.152 171.725 304.871L171.725 335.442L171.725 304.871Z" stroke="black" stroke-width="0.5"/>
<path fill-rule="evenodd" clip-rule="evenodd" d="M464.725 304.871C464.725 289.152 456.339 274.626 442.725 266.766L416.25 251.481L442.725 266.766C456.339 274.626 473.112 274.626 486.725 266.766L513.201 251.481L486.725 266.766C473.112 274.626 464.725 289.152 464.725 304.871L464.725 335.442L464.725 304.871Z" stroke="black" stroke-width="0.5"/>
<path fill-rule="evenodd" clip-rule="evenodd" d="M244.725 304.871C244.725 289.152 236.339 274.626 222.725 266.766L196.25 251.481L222.725 266.766C236.339 274.626 253.112 274.626 266.725 266.766L293.201 251.481L266.725 266.766C253.112 274.626 244.725 289.152 244.725 304.871L244.725 335.442L244.725 304.871Z" stroke="black" stroke-width="0.5"/>
<path fill-rule="evenodd" clip-rule="evenodd" d="M302.725 367.176C289.112 359.316 272.339 359.316 258.725 367.176L232.25 382.462L258.725 367.176C272.339 359.316 280.725 344.791 280.725 329.071V298.5V329.071C280.725 344.791 289.112 359.316 302.725 367.176L329.2 382.462L302.725 367.176Z" stroke="black" stroke-width="0.5"/>
<path fill-rule="evenodd" clip-rule="evenodd" d="M82.7252 367.176C69.1116 359.316 52.3389 359.316 38.7252 367.176L12.25 382.462L38.7252 367.176C52.3389 359.316 60.7252 344.791 60.7252 329.071V298.5V329.071C60.7252 344.791 69.1116 359.316 82.7252 367.176L109.2 382.462L82.7252 367.176Z" stroke="black" stroke-width="0.5"/>
<path fill-rule="evenodd" clip-rule="evenodd" d="M375.725 367.176C362.112 359.316 345.339 359.316 331.725 367.176L305.25 382.462L331.725 367.176C345.339 359.316 353.725 344.791 353.725 329.071V298.5V329.071C353.725 344.791 362.112 359.316 375.725 367.176L402.2 382.462L375.725 367.176Z" stroke="black" stroke-width="0.5"/>
<path fill-rule="evenodd" clip-rule="evenodd" d="M24.7253 372.871C24.7253 357.152 16.3389 342.626 2.72527 334.766L-23.75 319.481L2.72527 334.766C16.3389 342.626 33.1116 342.626 46.7253 334.766L73.2005 319.481L46.7253 334.766C33.1116 342.626 24.7253 357.152 24.7253 372.871L24.7253 403.442L24.7253 372.871Z" stroke="black" stroke-width="0.5"/>
<path fill-rule="evenodd" clip-rule="evenodd" d="M317.725 372.871C317.725 357.152 309.339 342.626 295.725 334.766L269.25 319.481L295.725 334.766C309.339 342.626 326.112 342.626 339.725 334.766L366.201 319.481L339.725 334.766C326.112 342.626 317.725 357.152 317.725 372.871L317.725 403.442L317.725 372.871Z" stroke="black" stroke-width="0.5"/>
<path fill-rule="evenodd" clip-rule="evenodd" d="M97.7253 372.871C97.7253 357.152 89.3389 342.626 75.7253 334.766L49.25 319.481L75.7253 334.766C89.3389 342.626 106.112 342.626 119.725 334.766L146.201 319.481L119.725 334.766C106.112 342.626 97.7253 357.152 97.7253 372.871L97.7253 403.442L97.7253 372.871Z" stroke="black" stroke-width="0.5"/>
<path fill-rule="evenodd" clip-rule="evenodd" d="M390.725 372.871C390.725 357.152 382.339 342.626 368.725 334.766L342.25 319.481L368.725 334.766C382.339 342.626 399.112 342.626 412.725 334.766L439.201 319.481L412.725 334.766C399.112 342.626 390.725 357.152 390.725 372.871L390.725 403.442L390.725 372.871Z" stroke="black" stroke-width="0.5"/>
<path fill-rule="evenodd" clip-rule="evenodd" d="M156.725 367.176C143.112 359.316 126.339 359.316 112.725 367.176L86.25 382.462L112.725 367.176C126.339 359.316 134.725 344.791 134.725 329.071V298.5V329.071C134.725 344.791 143.112 359.316 156.725 367.176L183.2 382.462L156.725 367.176Z" stroke="black" stroke-width="0.5"/>
<path fill-rule="evenodd" clip-rule="evenodd" d="M449.725 367.176C436.112 359.316 419.339 359.316 405.725 367.176L379.25 382.462L405.725 367.176C419.339 359.316 427.725 344.791 427.725 329.071V298.5V329.071C427.725 344.791 436.112 359.316 449.725 367.176L476.2 382.462L449.725 367.176Z" stroke="black" stroke-width="0.5"/>
<path fill-rule="evenodd" clip-rule="evenodd" d="M229.725 367.176C216.112 359.316 199.339 359.316 185.725 367.176L159.25 382.462L185.725 367.176C199.339 359.316 207.725 344.791 207.725 329.071V298.5V329.071C207.725 344.791 216.112 359.316 229.725 367.176L256.2 382.462L229.725 367.176Z" stroke="black" stroke-width="0.5"/>
<path fill-rule="evenodd" clip-rule="evenodd" d="M171.725 372.871C171.725 357.152 163.339 342.626 149.725 334.766L123.25 319.481L149.725 334.766C163.339 342.626 180.112 342.626 193.725 334.766L220.201 319.481L193.725 334.766C180.112 342.626 171.725 357.152 171.725 372.871L171.725 403.442L171.725 372.871Z" stroke="black" stroke-width="0.5"/>
<path fill-rule="evenodd" clip-rule="evenodd" d="M464.725 372.871C464.725 357.152 456.339 342.626 442.725 334.766L416.25 319.481L442.725 334.766C456.339 342.626 473.112 342.626 486.725 334.766L513.201 319.481L486.725 334.766C473.112 342.626 464.725 357.152 464.725 372.871L464.725 403.442L464.725 372.871Z" stroke="black" stroke-width="0.5"/>
<path fill-rule="evenodd" clip-rule="evenodd" d="M244.725 372.871C244.725 357.152 236.339 342.626 222.725 334.766L196.25 319.481L222.725 334.766C236.339 342.626 253.112 342.626 266.725 334.766L293.201 319.481L266.725 334.766C253.112 342.626 244.725 357.152 244.725 372.871L244.725 403.442L244.725 372.871Z" stroke="black" stroke-width="0.5"/>
<path fill-rule="evenodd" clip-rule="evenodd" d="M302.725 435.176C289.112 427.316 272.339 427.316 258.725 435.176L232.25 450.462L258.725 435.176C272.339 427.316 280.725 412.791 280.725 397.071V366.5V397.071C280.725 412.791 289.112 427.316 302.725 435.176L329.2 450.462L302.725 435.176Z" stroke="black" stroke-width="0.5"/>
<path fill-rule="evenodd" clip-rule="evenodd" d="M82.7252 435.176C69.1116 427.316 52.3389 427.316 38.7252 435.176L12.25 450.462L38.7252 435.176C52.3389 427.316 60.7252 412.791 60.7252 397.071V366.5V397.071C60.7252 412.791 69.1116 427.316 82.7252 435.176L109.2 450.462L82.7252 435.176Z" stroke="black" stroke-width="0.5"/>
<path fill-rule="evenodd" clip-rule="evenodd" d="M375.725 435.176C362.112 427.316 345.339 427.316 331.725 435.176L305.25 450.462L331.725 435.176C345.339 427.316 353.725 412.791 353.725 397.071V366.5V397.071C353.725 412.791 362.112 427.316 375.725 435.176L402.2 450.462L375.725 435.176Z" stroke="black" stroke-width="0.5"/>
<path fill-rule="evenodd" clip-rule="evenodd" d="M24.7253 440.871C24.7253 425.152 16.3389 410.626 2.72527 402.766L-23.75 387.481L2.72527 402.766C16.3389 410.626 33.1116 410.626 46.7253 402.766L73.2005 387.481L46.7253 402.766C33.1116 410.626 24.7253 425.152 24.7253 440.871L24.7253 471.442L24.7253 440.871Z" stroke="black" stroke-width="0.5"/>
<path fill-rule="evenodd" clip-rule="evenodd" d="M317.725 440.871C317.725 425.152 309.339 410.626 295.725 402.766L269.25 387.481L295.725 402.766C309.339 410.626 326.112 410.626 339.725 402.766L366.201 387.481L339.725 402.766C326.112 410.626 317.725 425.152 317.725 440.871L317.725 471.442L317.725 440.871Z" stroke="black" stroke-width="0.5"/>
<path fill-rule="evenodd" clip-rule="evenodd" d="M97.7253 440.871C97.7253 425.152 89.3389 410.626 75.7253 402.766L49.25 387.481L75.7253 402.766C89.3389 410.626 106.112 410.626 119.725 402.766L146.201 387.481L119.725 402.766C106.112 410.626 97.7253 425.152 97.7253 440.871L97.7253 471.442L97.7253 440.871Z" stroke="black" stroke-width="0.5"/>
<path fill-rule="evenodd" clip-rule="evenodd" d="M390.725 440.871C390.725 425.152 382.339 410.626 368.725 402.766L342.25 387.481L368.725 402.766C382.339 410.626 399.112 410.626 412.725 402.766L439.201 387.481L412.725 402.766C399.112 410.626 390.725 425.152 390.725 440.871L390.725 471.442L390.725 440.871Z" stroke="black" stroke-width="0.5"/>
<path fill-rule="evenodd" clip-rule="evenodd" d="M156.725 435.176C143.112 427.316 126.339 427.316 112.725 435.176L86.25 450.462L112.725 435.176C126.339 427.316 134.725 412.791 134.725 397.071V366.5V397.071C134.725 412.791 143.112 427.316 156.725 435.176L183.2 450.462L156.725 435.176Z" stroke="black" stroke-width="0.5"/>
<path fill-rule="evenodd" clip-rule="evenodd" d="M449.725 435.176C436.112 427.316 419.339 427.316 405.725 435.176L379.25 450.462L405.725 435.176C419.339 427.316 427.725 412.791 427.725 397.071V366.5V397.071C427.725 412.791 436.112 427.316 449.725 435.176L476.2 450.462L449.725 435.176Z" stroke="black" stroke-width="0.5"/>
<path fill-rule="evenodd" clip-rule="evenodd" d="M229.725 435.176C216.112 427.316 199.339 427.316 185.725 435.176L159.25 450.462L185.725 435.176C199.339 427.316 207.725 412.791 207.725 397.071V366.5V397.071C207.725 412.791 216.112 427.316 229.725 435.176L256.2 450.462L229.725 435.176Z" stroke="black" stroke-width="0.5"/>
<path fill-rule="evenodd" clip-rule="evenodd" d="M171.725 440.871C171.725 425.152 163.339 410.626 149.725 402.766L123.25 387.481L149.725 402.766C163.339 410.626 180.112 410.626 193.725 402.766L220.201 387.481L193.725 402.766C180.112 410.626 171.725 425.152 171.725 440.871L171.725 471.442L171.725 440.871Z" stroke="black" stroke-width="0.5"/>
<path fill-rule="evenodd" clip-rule="evenodd" d="M464.725 440.871C464.725 425.152 456.339 410.626 442.725 402.766L416.25 387.481L442.725 402.766C456.339 410.626 473.112 410.626 486.725 402.766L513.201 387.481L486.725 402.766C473.112 410.626 464.725 425.152 464.725 440.871L464.725 471.442L464.725 440.871Z" stroke="black" stroke-width="0.5"/>
<path fill-rule="evenodd" clip-rule="evenodd" d="M244.725 440.871C244.725 425.152 236.339 410.626 222.725 402.766L196.25 387.481L222.725 402.766C236.339 410.626 253.112 410.626 266.725 402.766L293.201 387.481L266.725 402.766C253.112 410.626 244.725 425.152 244.725 440.871L244.725 471.442L244.725 440.871Z" stroke="black" stroke-width="0.5"/>
<path fill-rule="evenodd" clip-rule="evenodd" d="M302.725 503.176C289.112 495.316 272.339 495.316 258.725 503.176L232.25 518.462L258.725 503.176C272.339 495.316 280.725 480.791 280.725 465.071V434.5V465.071C280.725 480.791 289.112 495.316 302.725 503.176L329.2 518.462L302.725 503.176Z" stroke="black" stroke-width="0.5"/>
<path fill-rule="evenodd" clip-rule="evenodd" d="M82.7252 503.176C69.1116 495.316 52.3389 495.316 38.7252 503.176L12.25 518.462L38.7252 503.176C52.3389 495.316 60.7252 480.791 60.7252 465.071V434.5V465.071C60.7252 480.791 69.1116 495.316 82.7252 503.176L109.2 518.462L82.7252 503.176Z" stroke="black" stroke-width="0.5"/>
<path fill-rule="evenodd" clip-rule="evenodd" d="M375.725 503.176C362.112 495.316 345.339 495.316 331.725 503.176L305.25 518.462L331.725 503.176C345.339 495.316 353.725 480.791 353.725 465.071V434.5V465.071C353.725 480.791 362.112 495.316 375.725 503.176L402.2 518.462L375.725 503.176Z" stroke="black" stroke-width="0.5"/>
<path fill-rule="evenodd" clip-rule="evenodd" d="M24.7253 508.871C24.7253 493.152 16.3389 478.626 2.72527 470.766L-23.75 455.481L2.72527 470.766C16.3389 478.626 33.1116 478.626 46.7253 470.766L73.2005 455.481L46.7253 470.766C33.1116 478.626 24.7253 493.152 24.7253 508.871L24.7253 539.442L24.7253 508.871Z" stroke="black" stroke-width="0.5"/>
<path fill-rule="evenodd" clip-rule="evenodd" d="M317.725 508.871C317.725 493.152 309.339 478.626 295.725 470.766L269.25 455.481L295.725 470.766C309.339 478.626 326.112 478.626 339.725 470.766L366.201 455.481L339.725 470.766C326.112 478.626 317.725 493.152 317.725 508.871L317.725 539.442L317.725 508.871Z" stroke="black" stroke-width="0.5"/>
<path fill-rule="evenodd" clip-rule="evenodd" d="M97.7253 508.871C97.7253 493.152 89.3389 478.626 75.7253 470.766L49.25 455.481L75.7253 470.766C89.3389 478.626 106.112 478.626 119.725 470.766L146.201 455.481L119.725 470.766C106.112 478.626 97.7253 493.152 97.7253 508.871L97.7253 539.442L97.7253 508.871Z" stroke="black" stroke-width="0.5"/>
<path fill-rule="evenodd" clip-rule="evenodd" d="M390.725 508.871C390.725 493.152 382.339 478.626 368.725 470.766L342.25 455.481L368.725 470.766C382.339 478.626 399.112 478.626 412.725 470.766L439.201 455.481L412.725 470.766C399.112 478.626 390.725 493.152 390.725 508.871L390.725 539.442L390.725 508.871Z" stroke="black" stroke-width="0.5"/>
<path fill-rule="evenodd" clip-rule="evenodd" d="M156.725 503.176C143.112 495.316 126.339 495.316 112.725 503.176L86.25 518.462L112.725 503.176C126.339 495.316 134.725 480.791 134.725 465.071V434.5V465.071C134.725 480.791 143.112 495.316 156.725 503.176L183.2 518.462L156.725 503.176Z" stroke="black" stroke-width="0.5"/>
<path fill-rule="evenodd" clip-rule="evenodd" d="M449.725 503.176C436.112 495.316 419.339 495.316 405.725 503.176L379.25 518.462L405.725 503.176C419.339 495.316 427.725 480.791 427.725 465.071V434.5V465.071C427.725 480.791 436.112 495.316 449.725 503.176L476.2 518.462L449.725 503.176Z" stroke="black" stroke-width="0.5"/>
<path fill-rule="evenodd" clip-rule="evenodd" d="M229.725 503.176C216.112 495.316 199.339 495.316 185.725 503.176L159.25 518.462L185.725 503.176C199.339 495.316 207.725 480.791 207.725 465.071V434.5V465.071C207.725 480.791 216.112 495.316 229.725 503.176L256.2 518.462L229.725 503.176Z" stroke="black" stroke-width="0.5"/>
<path fill-rule="evenodd" clip-rule="evenodd" d="M171.725 508.871C171.725 493.152 163.339 478.626 149.725 470.766L123.25 455.481L149.725 470.766C163.339 478.626 180.112 478.626 193.725 470.766L220.201 455.481L193.725 470.766C180.112 478.626 171.725 493.152 171.725 508.871L171.725 539.442L171.725 508.871Z" stroke="black" stroke-width="0.5"/>
<path fill-rule="evenodd" clip-rule="evenodd" d="M464.725 508.871C464.725 493.152 456.339 478.626 442.725 470.766L416.25 455.481L442.725 470.766C456.339 478.626 473.112 478.626 486.725 470.766L513.201 455.481L486.725 470.766C473.112 478.626 464.725 493.152 464.725 508.871L464.725 539.442L464.725 508.871Z" stroke="black" stroke-width="0.5"/>
<path fill-rule="evenodd" clip-rule="evenodd" d="M244.725 508.871C244.725 493.152 236.339 478.626 222.725 470.766L196.25 455.481L222.725 470.766C236.339 478.626 253.112 478.626 266.725 470.766L293.201 455.481L266.725 470.766C253.112 478.626 244.725 493.152 244.725 508.871L244.725 539.442L244.725 508.871Z" stroke="black" stroke-width="0.5"/>
<path fill-rule="evenodd" clip-rule="evenodd" d="M302.725 571.176C289.112 563.316 272.339 563.316 258.725 571.176L232.25 586.462L258.725 571.176C272.339 563.316 280.725 548.791 280.725 533.071V502.5V533.071C280.725 548.791 289.112 563.316 302.725 571.176L329.2 586.462L302.725 571.176Z" stroke="black" stroke-width="0.5"/>
<path fill-rule="evenodd" clip-rule="evenodd" d="M82.7252 571.176C69.1116 563.316 52.3389 563.316 38.7252 571.176L12.25 586.462L38.7252 571.176C52.3389 563.316 60.7252 548.791 60.7252 533.071V502.5V533.071C60.7252 548.791 69.1116 563.316 82.7252 571.176L109.2 586.462L82.7252 571.176Z" stroke="black" stroke-width="0.5"/>
<path fill-rule="evenodd" clip-rule="evenodd" d="M375.725 571.176C362.112 563.316 345.339 563.316 331.725 571.176L305.25 586.462L331.725 571.176C345.339 563.316 353.725 548.791 353.725 533.071V502.5V533.071C353.725 548.791 362.112 563.316 375.725 571.176L402.2 586.462L375.725 571.176Z" stroke="black" stroke-width="0.5"/>
<path fill-rule="evenodd" clip-rule="evenodd" d="M24.7253 576.871C24.7253 561.152 16.3389 546.626 2.72527 538.766L-23.75 523.481L2.72527 538.766C16.3389 546.626 33.1116 546.626 46.7253 538.766L73.2005 523.481L46.7253 538.766C33.1116 546.626 24.7253 561.152 24.7253 576.871L24.7253 607.442L24.7253 576.871Z" stroke="black" stroke-width="0.5"/>
<path fill-rule="evenodd" clip-rule="evenodd" d="M317.725 576.871C317.725 561.152 309.339 546.626 295.725 538.766L269.25 523.481L295.725 538.766C309.339 546.626 326.112 546.626 339.725 538.766L366.201 523.481L339.725 538.766C326.112 546.626 317.725 561.152 317.725 576.871L317.725 607.442L317.725 576.871Z" stroke="black" stroke-width="0.5"/>
<path fill-rule="evenodd" clip-rule="evenodd" d="M97.7253 576.871C97.7253 561.152 89.3389 546.626 75.7253 538.766L49.25 523.481L75.7253 538.766C89.3389 546.626 106.112 546.626 119.725 538.766L146.201 523.481L119.725 538.766C106.112 546.626 97.7253 561.152 97.7253 576.871L97.7253 607.442L97.7253 576.871Z" stroke="black" stroke-width="0.5"/>
<path fill-rule="evenodd" clip-rule="evenodd" d="M390.725 576.871C390.725 561.152 382.339 546.626 368.725 538.766L342.25 523.481L368.725 538.766C382.339 546.626 399.112 546.626 412.725 538.766L439.201 523.481L412.725 538.766C399.112 546.626 390.725 561.152 390.725 576.871L390.725 607.442L390.725 576.871Z" stroke="black" stroke-width="0.5"/>
<path fill-rule="evenodd" clip-rule="evenodd" d="M156.725 571.176C143.112 563.316 126.339 563.316 112.725 571.176L86.25 586.462L112.725 571.176C126.339 563.316 134.725 548.791 134.725 533.071V502.5V533.071C134.725 548.791 143.112 563.316 156.725 571.176L183.2 586.462L156.725 571.176Z" stroke="black" stroke-width="0.5"/>
<path fill-rule="evenodd" clip-rule="evenodd" d="M449.725 571.176C436.112 563.316 419.339 563.316 405.725 571.176L379.25 586.462L405.725 571.176C419.339 563.316 427.725 548.791 427.725 533.071V502.5V533.071C427.725 548.791 436.112 563.316 449.725 571.176L476.2 586.462L449.725 571.176Z" stroke="black" stroke-width="0.5"/>
<path fill-rule="evenodd" clip-rule="evenodd" d="M229.725 571.176C216.112 563.316 199.339 563.316 185.725 571.176L159.25 586.462L185.725 571.176C199.339 563.316 207.725 548.791 207.725 533.071V502.5V533.071C207.725 548.791 216.112 563.316 229.725 571.176L256.2 586.462L229.725 571.176Z" stroke="black" stroke-width="0.5"/>
<path fill-rule="evenodd" clip-rule="evenodd" d="M171.725 576.871C171.725 561.152 163.339 546.626 149.725 538.766L123.25 523.481L149.725 538.766C163.339 546.626 180.112 546.626 193.725 538.766L220.201 523.481L193.725 538.766C180.112 546.626 171.725 561.152 171.725 576.871L171.725 607.442L171.725 576.871Z" stroke="black" stroke-width="0.5"/>
<path fill-rule="evenodd" clip-rule="evenodd" d="M464.725 576.871C464.725 561.152 456.339 546.626 442.725 538.766L416.25 523.481L442.725 538.766C456.339 546.626 473.112 546.626 486.725 538.766L513.201 523.481L486.725 538.766C473.112 546.626 464.725 561.152 464.725 576.871L464.725 607.442L464.725 576.871Z" stroke="black" stroke-width="0.5"/>
<path fill-rule="evenodd" clip-rule="evenodd" d="M244.725 576.871C244.725 561.152 236.339 546.626 222.725 538.766L196.25 523.481L222.725 538.766C236.339 546.626 253.112 546.626 266.725 538.766L293.201 523.481L266.725 538.766C253.112 546.626 244.725 561.152 244.725 576.871L244.725 607.442L244.725 576.871Z" stroke="black" stroke-width="0.5"/>
</g>
</g>
<path fill-rule="evenodd" clip-rule="evenodd" d="M353.75 413.456C339.943 413.456 328.75 402.263 328.75 388.456V330C328.75 316.193 339.943 305 353.75 305C367.557 305 378.75 316.193 378.75 330V388.456C378.75 402.263 367.557 413.456 353.75 413.456Z" fill="url(#paint0_linear)"/>
<path fill-rule="evenodd" clip-rule="evenodd" d="M374.75 24.5C374.75 10.969 363.781 0 350.25 0C336.719 0 325.75 10.969 325.75 24.5C325.75 38.031 336.719 49 350.25 49C363.781 49 374.75 38.031 374.75 24.5Z" fill="#12FFE8"/>
<path fill-rule="evenodd" clip-rule="evenodd" d="M374.75 123.5C374.75 109.969 363.781 99 350.25 99C336.719 99 325.75 109.969 325.75 123.5C325.75 137.031 336.719 148 350.25 148C363.781 148 374.75 137.031 374.75 123.5Z" fill="#6B8CFA"/>
<path fill-rule="evenodd" clip-rule="evenodd" d="M374.75 222.5C374.75 208.969 363.781 198 350.25 198C336.719 198 325.75 208.969 325.75 222.5C325.75 236.031 336.719 247 350.25 247C363.781 247 374.75 236.031 374.75 222.5Z" fill="#B851FF"/>
<path fill-rule="evenodd" clip-rule="evenodd" d="M440.75 416.456C426.943 416.456 415.75 405.263 415.75 391.456V333C415.75 319.193 426.943 308 440.75 308C454.557 308 465.75 319.193 465.75 333V391.456C465.75 405.263 454.557 416.456 440.75 416.456Z" fill="url(#paint1_linear)"/>
<path fill-rule="evenodd" clip-rule="evenodd" d="M464.75 24.5C464.75 10.969 453.781 0 440.25 0C426.719 0 415.75 10.969 415.75 24.5C415.75 38.031 426.719 49 440.25 49C453.781 49 464.75 38.031 464.75 24.5Z" fill="#7D93F3"/>
<path fill-rule="evenodd" clip-rule="evenodd" d="M464.75 123.5C464.75 109.969 453.781 99 440.25 99C426.719 99 415.75 109.969 415.75 123.5C415.75 137.031 426.719 148 440.25 148C453.781 148 464.75 137.031 464.75 123.5Z" fill="#C4A0FF"/>
<path fill-rule="evenodd" clip-rule="evenodd" d="M464.75 222.5C464.75 208.969 453.781 198 440.25 198C426.719 198 415.75 208.969 415.75 222.5C415.75 236.031 426.719 247 440.25 247C453.781 247 464.75 236.031 464.75 222.5Z" fill="#FF5DAF"/>
<path fill-rule="evenodd" clip-rule="evenodd" d="M530.75 416.456C516.943 416.456 505.75 405.263 505.75 391.456V333C505.75 319.193 516.943 308 530.75 308C544.557 308 555.75 319.193 555.75 333V391.456C555.75 405.263 544.557 416.456 530.75 416.456Z" fill="#363636"/>
<path fill-rule="evenodd" clip-rule="evenodd" d="M554.75 222.5C554.75 208.969 543.781 198 530.25 198C516.719 198 505.75 208.969 505.75 222.5C505.75 236.031 516.719 247 530.25 247C543.781 247 554.75 236.031 554.75 222.5Z" fill="#727272"/>
<path d="M530.25 2.5C542.4 2.5 552.25 12.3497 552.25 24.5C552.25 36.6503 542.4 46.5 530.25 46.5C518.1 46.5 508.25 36.6503 508.25 24.5C508.25 12.3497 518.1 2.5 530.25 2.5Z" stroke="#BFBFBF" stroke-width="5"/>
<path fill-rule="evenodd" clip-rule="evenodd" d="M555.75 122.5C555.75 108.969 544.781 98 531.25 98C517.719 98 506.75 108.969 506.75 122.5C506.75 136.031 517.719 147 531.25 147C544.781 147 555.75 136.031 555.75 122.5Z" fill="#BFBFBF"/>
<path d="M340.628 57.216H340.596L338.284 58.584L338.7 59.456L339.66 58.912V63.2H340.628V57.216ZM343.33 57.216C342.338 57.216 341.714 57.752 341.506 58.816L342.386 59.024C342.498 58.392 342.794 58.088 343.33 58.088C343.834 58.088 344.21 58.424 344.21 58.992C344.21 59.464 344.082 59.76 343.698 60.272L341.562 63.152V63.2H345.25V62.328H343.33L344.514 60.776C344.954 60.2 345.186 59.712 345.186 59.016C345.186 57.96 344.442 57.216 343.33 57.216ZM349.716 57.32H346.124V63.2H347.124V60.744H349.3V59.864H347.124V58.24H349.716V57.32ZM354.083 57.32H350.491V63.2H351.491V60.744H353.667V59.864H351.491V58.24H354.083V57.32ZM358.57 57.32H354.858V63.2H358.634V62.28H355.858V60.656H358.226V59.784H355.858V58.24H358.57V57.32ZM361.098 57.216C360.146 57.216 359.362 57.888 359.362 58.84C359.362 59.392 359.626 59.84 360.034 60.096C359.49 60.368 359.13 60.888 359.13 61.504C359.13 62.56 360.018 63.304 361.098 63.304C362.178 63.304 363.082 62.56 363.082 61.504C363.082 60.888 362.706 60.368 362.162 60.088C362.57 59.832 362.842 59.384 362.842 58.84C362.842 57.888 362.05 57.216 361.098 57.216ZM361.098 60.56C361.65 60.56 362.09 60.968 362.09 61.52C362.09 62.064 361.65 62.464 361.098 62.464C360.546 62.464 360.114 62.064 360.114 61.52C360.114 60.968 360.546 60.56 361.098 60.56ZM361.098 58.056C361.562 58.056 361.938 58.408 361.938 58.888C361.938 59.384 361.562 59.744 361.098 59.744C360.634 59.744 360.266 59.384 360.266 58.888C360.266 58.408 360.634 58.056 361.098 58.056Z" fill="#818181"/>
<path d="M340.298 156.32H339.21L337.434 159.104C337.162 159.432 336.994 159.864 336.994 160.352C336.994 161.496 337.882 162.304 338.962 162.304C340.042 162.304 340.938 161.496 340.938 160.352C340.938 159.216 340.042 158.4 338.962 158.392L340.298 156.32ZM338.962 159.256C339.522 159.256 339.954 159.704 339.954 160.352C339.954 161.008 339.522 161.44 338.962 161.44C338.41 161.44 337.986 161.008 337.986 160.352C337.986 159.704 338.41 159.256 338.962 159.256ZM343.976 156.32H341.808V162.2H344.368C345.472 162.2 346.304 161.592 346.304 160.52C346.304 159.68 345.816 159.264 345.184 159.072C345.496 158.896 345.824 158.504 345.824 157.888C345.824 156.92 345.16 156.32 343.976 156.32ZM344.184 159.624C344.912 159.624 345.296 159.92 345.296 160.456C345.296 161 344.888 161.288 344.248 161.288H342.8V159.624H344.184ZM343.848 157.232C344.48 157.232 344.816 157.52 344.816 158.008C344.816 158.464 344.472 158.784 343.904 158.784H342.8V157.232H343.848ZM348.727 156.216C347.775 156.216 346.991 156.888 346.991 157.84C346.991 158.392 347.255 158.84 347.663 159.096C347.119 159.368 346.759 159.888 346.759 160.504C346.759 161.56 347.647 162.304 348.727 162.304C349.807 162.304 350.711 161.56 350.711 160.504C350.711 159.888 350.335 159.368 349.791 159.088C350.199 158.832 350.471 158.384 350.471 157.84C350.471 156.888 349.679 156.216 348.727 156.216ZM348.727 159.56C349.279 159.56 349.719 159.968 349.719 160.52C349.719 161.064 349.279 161.464 348.727 161.464C348.175 161.464 347.743 161.064 347.743 160.52C347.743 159.968 348.175 159.56 348.727 159.56ZM348.727 157.056C349.191 157.056 349.567 157.408 349.567 157.888C349.567 158.384 349.191 158.744 348.727 158.744C348.263 158.744 347.895 158.384 347.895 157.888C347.895 157.408 348.263 157.056 348.727 157.056ZM354.205 156.216C352.461 156.216 351.213 157.512 351.213 159.264C351.213 161 352.461 162.304 354.205 162.304C355.053 162.304 355.765 162.032 356.325 161.416L355.701 160.68C355.357 161.088 354.853 161.384 354.205 161.384C353.021 161.384 352.229 160.488 352.229 159.264C352.229 158.024 353.021 157.136 354.205 157.136C354.829 157.136 355.325 157.424 355.669 157.808L356.301 157.088C355.749 156.52 355.101 156.216 354.205 156.216ZM360.626 156.32H357.034V162.2H358.034V159.744H360.21V158.864H358.034V157.24H360.626V156.32ZM362.922 156.216H362.89L360.122 162.2H361.21L361.674 161.136H364.138L364.602 162.2H365.69L362.922 156.216ZM362.906 158.272L363.794 160.312H362.018L362.906 158.272Z" fill="#818181"/>
<path d="M431.311 57.32H427.255V58.208H429.879L427.359 63.2H428.415L431.311 57.368V57.32ZM433.823 57.32H432.007V63.2H433.823C435.839 63.2 437.007 62.112 437.007 60.256C437.007 58.4 435.823 57.32 433.823 57.32ZM433.799 58.248C435.223 58.248 435.999 58.984 435.999 60.256C435.999 61.536 435.231 62.28 433.799 62.28H433.007V58.248H433.799ZM439.49 57.216C438.402 57.216 437.506 58.024 437.506 59.168C437.506 60.304 438.394 61.128 439.482 61.128L438.146 63.2H439.242L441.066 60.36L441.074 60.344C441.314 60.024 441.45 59.624 441.45 59.168C441.45 58.024 440.562 57.216 439.49 57.216ZM439.49 58.08C440.042 58.08 440.466 58.512 440.466 59.168C440.466 59.824 440.042 60.264 439.49 60.264C438.93 60.264 438.498 59.824 438.498 59.168C438.498 58.512 438.93 58.08 439.49 58.08ZM443.791 57.216C442.863 57.216 442.279 57.736 442.015 58.52L442.863 58.872C442.999 58.376 443.311 58.088 443.783 58.088C444.263 58.088 444.615 58.416 444.615 58.936C444.615 59.472 444.223 59.752 443.791 59.76H443.143V60.568H443.775C444.359 60.568 444.767 60.952 444.767 61.488C444.767 62.064 444.391 62.432 443.839 62.432C443.239 62.432 442.943 62.096 442.791 61.536L441.911 61.76C442.183 62.76 442.799 63.304 443.847 63.304C444.999 63.304 445.743 62.568 445.743 61.496C445.743 60.84 445.383 60.384 444.847 60.16C445.271 59.944 445.583 59.568 445.583 58.936C445.583 57.944 444.863 57.216 443.791 57.216ZM450.107 57.32H446.515V63.2H447.515V60.744H449.691V59.864H447.515V58.24H450.107V57.32ZM452.354 57.216C451.426 57.216 450.842 57.736 450.578 58.52L451.426 58.872C451.562 58.376 451.874 58.088 452.346 58.088C452.826 58.088 453.178 58.416 453.178 58.936C453.178 59.472 452.786 59.752 452.354 59.76H451.706V60.568H452.338C452.922 60.568 453.33 60.952 453.33 61.488C453.33 62.064 452.954 62.432 452.402 62.432C451.802 62.432 451.506 62.096 451.354 61.536L450.474 61.76C450.746 62.76 451.362 63.304 452.41 63.304C453.562 63.304 454.306 62.568 454.306 61.496C454.306 60.84 453.946 60.384 453.41 60.16C453.834 59.944 454.146 59.568 454.146 58.936C454.146 57.944 453.426 57.216 452.354 57.216Z" fill="#818181"/>
<path d="M522.864 57.32H519.272V63.2H520.272V60.744H522.448V59.864H520.272V58.24H522.864V57.32ZM527.232 57.32H523.64V63.2H524.64V60.744H526.816V59.864H524.64V58.24H527.232V57.32ZM531.599 57.32H528.007V63.2H529.007V60.744H531.183V59.864H529.007V58.24H531.599V57.32ZM535.966 57.32H532.374V63.2H533.374V60.744H535.55V59.864H533.374V58.24H535.966V57.32ZM540.333 57.32H536.741V63.2H537.741V60.744H539.917V59.864H537.741V58.24H540.333V57.32ZM544.7 57.32H541.108V63.2H542.108V60.744H544.284V59.864H542.108V58.24H544.7V57.32Z" fill="#818181"/>
<path d="M519.964 155.32H517.796V161.2H520.356C521.46 161.2 522.292 160.592 522.292 159.52C522.292 158.68 521.804 158.264 521.172 158.072C521.484 157.896 521.812 157.504 521.812 156.888C521.812 155.92 521.148 155.32 519.964 155.32ZM520.172 158.624C520.9 158.624 521.284 158.92 521.284 159.456C521.284 160 520.876 160.288 520.236 160.288H518.788V158.624H520.172ZM519.836 156.232C520.468 156.232 520.804 156.52 520.804 157.008C520.804 157.464 520.46 157.784 519.892 157.784H518.788V156.232H519.836ZM526.739 155.32H523.147V161.2H524.147V158.744H526.323V157.864H524.147V156.24H526.739V155.32ZM529.683 155.32H527.515V161.2H530.075C531.179 161.2 532.011 160.592 532.011 159.52C532.011 158.68 531.523 158.264 530.891 158.072C531.203 157.896 531.531 157.504 531.531 156.888C531.531 155.92 530.867 155.32 529.683 155.32ZM529.891 158.624C530.619 158.624 531.003 158.92 531.003 159.456C531.003 160 530.595 160.288 529.955 160.288H528.507V158.624H529.891ZM529.555 156.232C530.187 156.232 530.523 156.52 530.523 157.008C530.523 157.464 530.179 157.784 529.611 157.784H528.507V156.232H529.555ZM536.458 155.32H532.866V161.2H533.866V158.744H536.042V157.864H533.866V156.24H536.458V155.32ZM539.401 155.32H537.233V161.2H539.793C540.897 161.2 541.729 160.592 541.729 159.52C541.729 158.68 541.241 158.264 540.609 158.072C540.921 157.896 541.249 157.504 541.249 156.888C541.249 155.92 540.585 155.32 539.401 155.32ZM539.609 158.624C540.337 158.624 540.721 158.92 540.721 159.456C540.721 160 540.313 160.288 539.673 160.288H538.225V158.624H539.609ZM539.273 156.232C539.905 156.232 540.241 156.52 540.241 157.008C540.241 157.464 539.897 157.784 539.329 157.784H538.225V156.232H539.273ZM546.177 155.32H542.585V161.2H543.585V158.744H545.761V157.864H543.585V156.24H546.177V155.32Z" fill="#818181"/>
<path d="M429.424 156.216C427.68 156.216 426.432 157.512 426.432 159.264C426.432 161 427.68 162.304 429.424 162.304C430.272 162.304 430.984 162.032 431.544 161.416L430.92 160.68C430.576 161.088 430.072 161.384 429.424 161.384C428.24 161.384 427.448 160.488 427.448 159.264C427.448 158.024 428.24 157.136 429.424 157.136C430.048 157.136 430.544 157.424 430.888 157.808L431.52 157.088C430.968 156.52 430.32 156.216 429.424 156.216ZM435.261 156.256H435.221L431.653 161.176V161.208H434.293V162.2H435.261V161.208H435.989V160.408H435.261V156.256ZM434.333 158.768V160.424H433.149L434.333 158.768ZM439.024 156.216H438.992L436.224 162.2H437.312L437.776 161.136H440.24L440.704 162.2H441.792L439.024 156.216ZM439.008 158.272L439.896 160.312H438.12L439.008 158.272ZM444.216 156.216C442.896 156.216 442.128 157.4 442.128 159.256C442.128 161.12 442.896 162.304 444.216 162.304C445.536 162.304 446.304 161.12 446.304 159.256C446.304 157.4 445.536 156.216 444.216 156.216ZM444.216 157.08C444.968 157.08 445.32 157.944 445.32 159.256C445.32 160.576 444.968 161.44 444.216 161.44C443.464 161.44 443.112 160.576 443.112 159.256C443.112 157.944 443.464 157.08 444.216 157.08ZM450.798 156.32H447.206V162.2H448.206V159.744H450.382V158.864H448.206V157.24H450.798V156.32ZM455.165 156.32H451.573V162.2H452.573V159.744H454.749V158.864H452.573V157.24H455.165V156.32Z" fill="#818181"/>
<path d="M340.577 255.32H338.409V261.2H340.969C342.073 261.2 342.905 260.592 342.905 259.52C342.905 258.68 342.417 258.264 341.785 258.072C342.097 257.896 342.425 257.504 342.425 256.888C342.425 255.92 341.761 255.32 340.577 255.32ZM340.785 258.624C341.513 258.624 341.897 258.92 341.897 259.456C341.897 260 341.489 260.288 340.849 260.288H339.401V258.624H340.785ZM340.449 256.232C341.081 256.232 341.417 256.52 341.417 257.008C341.417 257.464 341.073 257.784 340.505 257.784H339.401V256.232H340.449ZM345.329 255.216C344.377 255.216 343.593 255.888 343.593 256.84C343.593 257.392 343.857 257.84 344.265 258.096C343.721 258.368 343.361 258.888 343.361 259.504C343.361 260.56 344.249 261.304 345.329 261.304C346.409 261.304 347.313 260.56 347.313 259.504C347.313 258.888 346.937 258.368 346.393 258.088C346.801 257.832 347.073 257.384 347.073 256.84C347.073 255.888 346.281 255.216 345.329 255.216ZM345.329 258.56C345.881 258.56 346.321 258.968 346.321 259.52C346.321 260.064 345.881 260.464 345.329 260.464C344.777 260.464 344.345 260.064 344.345 259.52C344.345 258.968 344.777 258.56 345.329 258.56ZM345.329 256.056C345.793 256.056 346.169 256.408 346.169 256.888C346.169 257.384 345.793 257.744 345.329 257.744C344.865 257.744 344.497 257.384 344.497 256.888C344.497 256.408 344.865 256.056 345.329 256.056ZM351.334 255.32H348.15V258.408L348.79 258.704C348.998 258.536 349.294 258.368 349.718 258.368C350.31 258.368 350.718 258.776 350.718 259.392C350.718 260 350.302 260.432 349.718 260.432C349.166 260.432 348.83 260.136 348.686 259.616L347.862 260.008C348.158 260.856 348.79 261.304 349.782 261.304C350.958 261.304 351.694 260.504 351.694 259.432C351.694 258.184 350.87 257.528 349.782 257.528C349.502 257.528 349.294 257.592 349.126 257.664V256.192H351.334V255.32ZM354.366 255.216H354.334L352.022 256.584L352.438 257.456L353.398 256.912V261.2H354.366V255.216ZM359.196 255.32H355.604V261.2H356.604V258.744H358.78V257.864H356.604V256.24H359.196V255.32ZM363.564 255.32H359.972V261.2H360.972V258.744H363.148V257.864H360.972V256.24H363.564V255.32Z" fill="#818181"/>
<path d="M430.556 255.32H426.964V261.2H427.964V258.744H430.14V257.864H427.964V256.24H430.556V255.32ZM434.923 255.32H431.331V261.2H432.331V258.744H434.507V257.864H432.331V256.24H434.923V255.32ZM438.842 255.32H435.658V258.408L436.298 258.704C436.506 258.536 436.802 258.368 437.226 258.368C437.818 258.368 438.226 258.776 438.226 259.392C438.226 260 437.81 260.432 437.226 260.432C436.674 260.432 436.338 260.136 436.194 259.616L435.37 260.008C435.666 260.856 436.298 261.304 437.29 261.304C438.466 261.304 439.202 260.504 439.202 259.432C439.202 258.184 438.378 257.528 437.29 257.528C437.01 257.528 436.802 257.592 436.634 257.664V256.192H438.842V255.32ZM441.85 255.32H440.034V261.2H441.85C443.866 261.2 445.034 260.112 445.034 258.256C445.034 256.4 443.85 255.32 441.85 255.32ZM441.826 256.248C443.25 256.248 444.026 256.984 444.026 258.256C444.026 259.536 443.258 260.28 441.826 260.28H441.034V256.248H441.826ZM447.969 255.216H447.937L445.169 261.2H446.257L446.721 260.136H449.185L449.649 261.2H450.737L447.969 255.216ZM447.953 257.272L448.841 259.312H447.065L447.953 257.272ZM455.009 255.32H451.417V261.2H452.417V258.744H454.593V257.864H452.417V256.24H455.009V255.32Z" fill="#818181"/>
<path d="M340.628 424.216H340.596L338.284 425.584L338.7 426.456L339.66 425.912V430.2H340.628V424.216ZM343.33 424.216C342.338 424.216 341.714 424.752 341.506 425.816L342.386 426.024C342.498 425.392 342.794 425.088 343.33 425.088C343.834 425.088 344.21 425.424 344.21 425.992C344.21 426.464 344.082 426.76 343.698 427.272L341.562 430.152V430.2H345.25V429.328H343.33L344.514 427.776C344.954 427.2 345.186 426.712 345.186 426.016C345.186 424.96 344.442 424.216 343.33 424.216ZM349.716 424.32H346.124V430.2H347.124V427.744H349.3V426.864H347.124V425.24H349.716V424.32ZM354.083 424.32H350.491V430.2H351.491V427.744H353.667V426.864H351.491V425.24H354.083V424.32ZM358.57 424.32H354.858V430.2H358.634V429.28H355.858V427.656H358.226V426.784H355.858V425.24H358.57V424.32ZM361.098 424.216C360.146 424.216 359.362 424.888 359.362 425.84C359.362 426.392 359.626 426.84 360.034 427.096C359.49 427.368 359.13 427.888 359.13 428.504C359.13 429.56 360.018 430.304 361.098 430.304C362.178 430.304 363.082 429.56 363.082 428.504C363.082 427.888 362.706 427.368 362.162 427.088C362.57 426.832 362.842 426.384 362.842 425.84C362.842 424.888 362.05 424.216 361.098 424.216ZM361.098 427.56C361.65 427.56 362.09 427.968 362.09 428.52C362.09 429.064 361.65 429.464 361.098 429.464C360.546 429.464 360.114 429.064 360.114 428.52C360.114 427.968 360.546 427.56 361.098 427.56ZM361.098 425.056C361.562 425.056 361.938 425.408 361.938 425.888C361.938 426.384 361.562 426.744 361.098 426.744C360.634 426.744 360.266 426.384 360.266 425.888C360.266 425.408 360.634 425.056 361.098 425.056Z" fill="#818181"/>
<path d="M430.628 424.216H430.596L428.284 425.584L428.7 426.456L429.66 425.912V430.2H430.628V424.216ZM433.33 424.216C432.338 424.216 431.714 424.752 431.506 425.816L432.386 426.024C432.498 425.392 432.794 425.088 433.33 425.088C433.834 425.088 434.21 425.424 434.21 425.992C434.21 426.464 434.082 426.76 433.698 427.272L431.562 430.152V430.2H435.25V429.328H433.33L434.514 427.776C434.954 427.2 435.186 426.712 435.186 426.016C435.186 424.96 434.442 424.216 433.33 424.216ZM439.716 424.32H436.124V430.2H437.124V427.744H439.3V426.864H437.124V425.24H439.716V424.32ZM444.083 424.32H440.491V430.2H441.491V427.744H443.667V426.864H441.491V425.24H444.083V424.32ZM448.57 424.32H444.858V430.2H448.634V429.28H445.858V427.656H448.226V426.784H445.858V425.24H448.57V424.32ZM451.098 424.216C450.146 424.216 449.362 424.888 449.362 425.84C449.362 426.392 449.626 426.84 450.034 427.096C449.49 427.368 449.13 427.888 449.13 428.504C449.13 429.56 450.018 430.304 451.098 430.304C452.178 430.304 453.082 429.56 453.082 428.504C453.082 427.888 452.706 427.368 452.162 427.088C452.57 426.832 452.842 426.384 452.842 425.84C452.842 424.888 452.05 424.216 451.098 424.216ZM451.098 427.56C451.65 427.56 452.09 427.968 452.09 428.52C452.09 429.064 451.65 429.464 451.098 429.464C450.546 429.464 450.114 429.064 450.114 428.52C450.114 427.968 450.546 427.56 451.098 427.56ZM451.098 425.056C451.562 425.056 451.938 425.408 451.938 425.888C451.938 426.384 451.562 426.744 451.098 426.744C450.634 426.744 450.266 426.384 450.266 425.888C450.266 425.408 450.634 425.056 451.098 425.056Z" fill="#818181"/>
<path d="M520.409 424.216C519.481 424.216 518.897 424.736 518.633 425.52L519.481 425.872C519.617 425.376 519.929 425.088 520.401 425.088C520.881 425.088 521.233 425.416 521.233 425.936C521.233 426.472 520.841 426.752 520.409 426.76H519.761V427.568H520.393C520.977 427.568 521.385 427.952 521.385 428.488C521.385 429.064 521.009 429.432 520.457 429.432C519.857 429.432 519.561 429.096 519.409 428.536L518.529 428.76C518.801 429.76 519.417 430.304 520.465 430.304C521.617 430.304 522.361 429.568 522.361 428.496C522.361 427.84 522.001 427.384 521.465 427.16C521.889 426.944 522.201 426.568 522.201 425.936C522.201 424.944 521.481 424.216 520.409 424.216ZM526.052 424.32H524.964L523.188 427.104C522.916 427.432 522.748 427.864 522.748 428.352C522.748 429.496 523.636 430.304 524.716 430.304C525.796 430.304 526.692 429.496 526.692 428.352C526.692 427.216 525.796 426.4 524.716 426.392L526.052 424.32ZM524.716 427.256C525.276 427.256 525.708 427.704 525.708 428.352C525.708 429.008 525.276 429.44 524.716 429.44C524.164 429.44 523.74 429.008 523.74 428.352C523.74 427.704 524.164 427.256 524.716 427.256ZM529.034 424.216C528.106 424.216 527.522 424.736 527.258 425.52L528.106 425.872C528.242 425.376 528.554 425.088 529.026 425.088C529.506 425.088 529.858 425.416 529.858 425.936C529.858 426.472 529.466 426.752 529.034 426.76H528.386V427.568H529.018C529.602 427.568 530.01 427.952 530.01 428.488C530.01 429.064 529.634 429.432 529.082 429.432C528.482 429.432 528.186 429.096 528.034 428.536L527.154 428.76C527.426 429.76 528.042 430.304 529.09 430.304C530.242 430.304 530.986 429.568 530.986 428.496C530.986 427.84 530.626 427.384 530.09 427.16C530.514 426.944 530.826 426.568 530.826 425.936C530.826 424.944 530.106 424.216 529.034 424.216ZM534.677 424.32H533.589L531.813 427.104C531.541 427.432 531.373 427.864 531.373 428.352C531.373 429.496 532.261 430.304 533.341 430.304C534.421 430.304 535.317 429.496 535.317 428.352C535.317 427.216 534.421 426.4 533.341 426.392L534.677 424.32ZM533.341 427.256C533.901 427.256 534.333 427.704 534.333 428.352C534.333 429.008 533.901 429.44 533.341 429.44C532.789 429.44 532.365 429.008 532.365 428.352C532.365 427.704 532.789 427.256 533.341 427.256ZM537.659 424.216C536.731 424.216 536.147 424.736 535.883 425.52L536.731 425.872C536.867 425.376 537.179 425.088 537.651 425.088C538.131 425.088 538.483 425.416 538.483 425.936C538.483 426.472 538.091 426.752 537.659 426.76H537.011V427.568H537.643C538.227 427.568 538.635 427.952 538.635 428.488C538.635 429.064 538.259 429.432 537.707 429.432C537.107 429.432 536.811 429.096 536.659 428.536L535.779 428.76C536.051 429.76 536.667 430.304 537.715 430.304C538.867 430.304 539.611 429.568 539.611 428.496C539.611 427.84 539.251 427.384 538.715 427.16C539.139 426.944 539.451 426.568 539.451 425.936C539.451 424.944 538.731 424.216 537.659 424.216ZM543.302 424.32H542.214L540.438 427.104C540.166 427.432 539.998 427.864 539.998 428.352C539.998 429.496 540.886 430.304 541.966 430.304C543.046 430.304 543.942 429.496 543.942 428.352C543.942 427.216 543.046 426.4 541.966 426.392L543.302 424.32ZM541.966 427.256C542.526 427.256 542.958 427.704 542.958 428.352C542.958 429.008 542.526 429.44 541.966 429.44C541.414 429.44 540.99 429.008 540.99 428.352C540.99 427.704 541.414 427.256 541.966 427.256Z" fill="#818181"/>
<path d="M522.623 255.32H518.567V256.208H521.191L518.671 261.2H519.727L522.623 255.368V255.32ZM524.783 255.216C523.791 255.216 523.167 255.752 522.959 256.816L523.839 257.024C523.951 256.392 524.247 256.088 524.783 256.088C525.287 256.088 525.663 256.424 525.663 256.992C525.663 257.464 525.535 257.76 525.151 258.272L523.015 261.152V261.2H526.703V260.328H524.783L525.967 258.776C526.407 258.2 526.639 257.712 526.639 257.016C526.639 255.96 525.895 255.216 524.783 255.216ZM531.217 255.32H527.161V256.208H529.785L527.265 261.2H528.321L531.217 255.368V255.32ZM533.377 255.216C532.385 255.216 531.761 255.752 531.553 256.816L532.433 257.024C532.545 256.392 532.841 256.088 533.377 256.088C533.881 256.088 534.257 256.424 534.257 256.992C534.257 257.464 534.129 257.76 533.745 258.272L531.609 261.152V261.2H535.297V260.328H533.377L534.561 258.776C535.001 258.2 535.233 257.712 535.233 257.016C535.233 255.96 534.489 255.216 533.377 255.216ZM539.811 255.32H535.755V256.208H538.379L535.859 261.2H536.915L539.811 255.368V255.32ZM541.971 255.216C540.979 255.216 540.355 255.752 540.147 256.816L541.027 257.024C541.139 256.392 541.435 256.088 541.971 256.088C542.475 256.088 542.851 256.424 542.851 256.992C542.851 257.464 542.723 257.76 542.339 258.272L540.203 261.152V261.2H543.891V260.328H541.971L543.155 258.776C543.595 258.2 543.827 257.712 543.827 257.016C543.827 255.96 543.083 255.216 541.971 255.216Z" fill="#818181"/>
<defs>
<filter id="filter0_d" x="0.75" y="92" width="508" height="510.824" filterUnits="userSpaceOnUse" color-interpolation-filters="sRGB">
<feFlood flood-opacity="0" result="BackgroundImageFix"/>
<feColorMatrix in="SourceAlpha" type="matrix" values="0 0 0 0 0 0 0 0 0 0 0 0 0 0 0 0 0 0 127 0"/>
<feOffset dy="27"/>
<feGaussianBlur stdDeviation="34"/>
<feColorMatrix type="matrix" values="0 0 0 0 0 0 0 0 0 0 0 0 0 0 0 0 0 0 0.0992697 0"/>
<feBlend mode="normal" in2="BackgroundImageFix" result="effect1_dropShadow"/>
<feBlend mode="normal" in="SourceGraphic" in2="effect1_dropShadow" result="shape"/>
</filter>
<linearGradient id="paint0_linear" x1="378.75" y1="413.456" x2="378.75" y2="305" gradientUnits="userSpaceOnUse">
<stop stop-color="#12FFE8"/>
<stop offset="0.505102" stop-color="#6B8CFA"/>
<stop offset="1" stop-color="#B851FF"/>
</linearGradient>
<linearGradient id="paint1_linear" x1="415.75" y1="308" x2="415.75" y2="416.456" gradientUnits="userSpaceOnUse">
<stop stop-color="#FF5DAF"/>
<stop offset="0.518359" stop-color="#C4A0FF"/>
<stop offset="1" stop-color="#7D93F3"/>
</linearGradient>
</defs>
</svg>
